<?xml version="1.0" encoding="UTF-8"?><svg id="eksport" xmlns="http://www.w3.org/2000/svg" width="1920" height="1080" viewBox="0 0 1920 1080"><defs><style>.cls-1{fill:#fcfcfc;opacity:.5;}.cls-1,.cls-2{stroke-width:0px;}.cls-2{fill:#d0e8f7;}</style></defs><g id="himmel"><rect id="himmel-2" class="cls-2" y="-1.38" width="1918.32" height="1080.85"/><path id="sky" class="cls-1" d="m130.06,215.22s17.01-25.83,44.74-.63c0,0,34.88-35.92,60.6.63,0,0,38.32-13.86,32.02,16.38,0,0-3.78,22.68-25.2,11.34,0,0-10.71,24.57-37.18,5.67,0,0-34.03,27.72-63.01-3.78,0,0-32.14,25.83-42.22-10.71,0,0-5.04-30.24,30.24-18.9Z"/><path id="sky-2" class="cls-1" d="m533.21,107.36s24.1-36.59,63.37-.89c0,0,49.41-50.87,85.84.89,0,0,54.28-19.63,45.36,23.2,0,0-5.35,32.13-35.7,16.06,0,0-15.17,34.81-52.66,8.03,0,0-48.19,39.27-89.25-5.35,0,0-45.52,36.59-59.8-15.17,0,0-7.14-42.84,42.84-26.77Z"/><path id="sky-3" class="cls-1" d="m1423.23,166.13s21.52-32.67,56.58-.8c0,0,44.12-45.42,76.64.8,0,0,48.47-17.53,40.5,20.72,0,0-4.78,28.69-31.87,14.34,0,0-13.55,31.08-47.02,7.17,0,0-43.03,35.06-79.69-4.78,0,0-40.64,32.67-53.39-13.55,0,0-6.37-38.25,38.25-23.91Z"/></g></svg>