<?xml version="1.0" encoding="UTF-8"?><svg id="eksport" xmlns="http://www.w3.org/2000/svg" width="127" height="235" viewBox="0 0 127 235"><defs><style>.cls-1{opacity:.5;}.cls-2{fill:#38322d;}.cls-2,.cls-3,.cls-4,.cls-5,.cls-6,.cls-7{stroke-width:0px;}.cls-3{fill:#fff;}.cls-4{fill:#f4e787;}.cls-5{fill:#fcfcfc;}.cls-6{fill:#e9eff4;}.cls-7{fill:#f4e6ef;}</style></defs><g id="glas"><g id="fod"><g class="cls-1"><path class="cls-6" d="m76.28,195.12s-4.66,25.53.55,26.3c5.21.77,22.29,3.15,18.26,6.75-4.02,3.6-34.73,5.72-52.17,1.4,0,0-13.23-2.65,18.63-8.52,0,0,2.92.48-.19-26"/></g><path class="cls-2" d="m67.2,232.43c-8.57,0-17.51-.7-24.38-2.4-.5-.1-3.1-.69-3.09-2.16.01-1.41,2.28-3.7,21.75-7.29h0c.24-.23,2.08-2.8-.58-25.47l.95-.11c1.63,15.43,2.37,25.45-.24,26.53-20.8,3.98-23.94,6.43-18.59,7.58,16.43,4.02,50.39,2.87,52.18-2.16-.49-1.63-6.54-3.31-17.98-4.98-6.82-.24-1.19-27.17-1.41-26.92l.94.17c.15.07-4.6,23.64.15,25.74,8.59,1.23,18.51,3.02,19.22,5.72.98,4.48-16.5,5.62-28.92,5.77Z"/><g class="cls-1"><path class="cls-2" d="m88.17,225.48c1.21.33,2.54.58,3.56,1.33.06.06.08.07.11.14,0,.01,0,.05,0,.03-.6.56-1.59.59-2.37.77-3.41.6-6.87.85-10.32,1.07-.31.02-.31.49,0,.48,2.62-.15,5.24-.37,7.84-.7,1.55-.23,3.15-.36,4.63-.91,2.48-1.28-2.4-2.46-3.34-2.68-.3-.07-.43.39-.13.46h0Z"/></g><g class="cls-1"><path class="cls-2" d="m39.73,225.14c-1.49.24-2.88,2.37-2.58,3.85.61,2.44,3.55,3.15,5.69,3.64.3.06.43-.4.13-.46-1.33-.28-2.7-.65-3.86-1.38-2.28-1.31-1.77-3.76.23-5.03.15-.08.21-.11.34-.14.06-.01-.03,0,.06,0,.31,0,.31-.47,0-.48h0Z"/></g><g class="cls-1"><path class="cls-2" d="m97.55,229.48c-1.46,2.14-4.87,3.05-7.47,3.65-.3.06-.17.52.13.46,2.63-.62,6.31-1.54,7.8-3.98.12-.28-.35-.41-.46-.13h0Z"/></g></g><g id="glas_fill_" class="cls-1"><path class="cls-6" d="m97.78,55.62c0-10.5-36.2-11.22-36.2-11.22,0,0-34.42-.7-40.15,12.66,0,0,39.13,12.41,76.35-1.43"/></g><g id="glas_stroke_"><path class="cls-2" d="m59.05,62.6c-21.31,0-37.5-5.01-37.75-5.09l-.5-.16c3.8-11.87,32.09-13.7,40.8-13.43.09,0,9.19.2,18.17,1.68,12.47,2.13,18.65,5.32,18.5,10.35-13.34,5.02-27.15,6.65-39.21,6.65Zm-36.95-5.85c4.74,1.38,40.95,11.13,75.19-1.46-.4-4.87-9.78-7.44-17.68-8.75-8.91-1.47-17.95-1.67-18.04-1.67-.34,0-33.31-.53-39.47,11.88Z"/><path class="cls-2" d="m59.05,62.36c-12.87-.08-25.82-1.63-38.19-5.24l.14.35c4.73-12.41,32.31-13.69,43.82-13.18,7.18.48,33.55,1.99,33.2,11.66l.18-.23c-12.48,4.67-25.85,6.65-39.15,6.64-.31,0-.31.48,0,.48,13.33,0,26.76-1.96,39.28-6.66.1-.04.18-.12.18-.23,0-.81-.09-1.58-.4-2.34-2.52-5.52-12.94-7.29-18.42-8.27-15.32-2.37-31.38-2.54-46.31,2.05-5.08,1.68-10.75,4.51-12.78,9.83-.06.14-.02.3.14.35,8.05,2.41,16.4,3.77,24.76,4.61,4.51.43,9.04.65,13.56.66.31,0,.31-.48,0-.48Z"/><path class="cls-2" d="m22.04,56.98c11.08,3.07,22.57,4.58,34.06,4.87,13.97.3,28.1-1.5,41.26-6.33.09-.03.19-.12.18-.23-.28-3.05-3.5-4.79-6-5.86-8.18-3.27-17.15-3.98-25.86-4.62-7.35-.47-14.74.06-22.01,1.16-7.09,1.24-16.43,3.25-20.95,9.31-.3.43-.57.88-.81,1.35-.14.27.27.52.41.24.99-1.98,2.62-3.54,4.44-4.77,6.84-4.35,15.14-5.54,23.05-6.44,8.71-1.29,45.35-.52,47.26,9.62l.18-.23c-23.85,8.59-50.37,7.91-74.68,1.57-.13-.04-.26-.07-.39-.11-.3-.09-.42.37-.13.46Z"/></g><g id="sugerør"><path class="cls-5" d="m51.74,83.05S31.46,14.58,26.92,12.43c0,0-2.62-2.62-23.38-1.43,0,0-3.34-5.29,0-9.09,0,0,21.95-.46,27.68,2.41,0,0,8.24-2.39,29.89,78.73l24.75,104.74s-4.77,3.82-9.07,2.39l-25.05-107.12Z"/><path class="cls-2" d="m52.2,82.93c-7.1-22.7-13.35-45.82-22.78-67.68-.55-1.07-1.25-2.56-2.17-3.16-4.97-2.74-17.76-1.77-23.7-1.56l.41.24c-.89-1.49-1.43-3.22-1.42-4.96.03-1.15.47-1.93.89-2.94.18-.44.03-.34.28-.46,6.48-.08,13.06,0,19.53.68,2.37.25,4.86.54,7.1,1.39.35.13.65.26,1.01.32.06,0-.18,0-.07.01.18.02-.11-.05.15.03.44.17.65.35,1.03.69,1.45,1.39,2.51,3.16,3.56,4.96,9.96,19.16,15.37,40.35,21.43,60.98,10.12,38.62,18.52,77.67,27.95,116.47l.12-.46c-2.22,1.76-5.66,3.17-8.6,2.26l.33.33c-8.36-35.7-16.69-71.42-25.05-107.12-.14-.6-1.06-.34-.92.25,8.35,35.69,16.69,71.4,25.04,107.07.3.7,1.67.7,2.33.72,2.75.04,5.39-1.22,7.55-2.84.13-.11.16-.31.12-.46-2.94-12.45-5.89-24.91-8.83-37.36-11.69-46.5-19.61-94.69-39.67-138.54-1.21-2.27-3.79-7.56-6.57-7.92-.54-.04.4.15.12.02C25.11,1.48,18.08,1.69,11.48,1.46c-2.62-.03-5.26-.09-7.87-.02-1.04.17-1.67,2.1-1.86,3-.49,2.27.17,4.85,1.39,6.8.09.14.24.25.41.24,5.94-.34,11.98-.6,17.91.06,1.84.23,4.22.41,5.51,1.52,1.99,2.6,3.05,5.89,4.31,8.89,7.66,20.06,13.74,40.7,20,61.23.17.59,1.1.34.92-.25Z"/><path class="cls-2" d="m24.3,11.27c-.02-.31-.46-7.55,3.21-8.6l.26.92c-2.44.7-2.64,5.74-2.52,7.62l-.95.06Z"/><path class="cls-2" d="m28.16,13.46l-1.03-.14c.05-.34,1.17-8.41,5.23-8.81l.1,1.04c-2.69.26-4.02,5.8-4.3,7.9Z"/><path class="cls-2" d="m28.97,15.01l-.81-.51c.16-.25,3.89-6.13,7.58-6.13v.95c-3.17,0-6.74,5.62-6.78,5.68Z"/><path class="cls-2" d="m30.4,17.74l-.75-.58c.18-.23,4.46-5.7,8.11-4.95l-.19.93c-3.08-.64-7.12,4.54-7.16,4.6Z"/></g><g id="banan"><path class="cls-4" d="m85.26,58.19s-9.02-18.49,11.27-27.06c0,0,27.51-7.22,28.41,21.65,0,0-1.35,24.35-30.22,14.43,0,0-8.12-4.51-9.47-9.02Z"/><path class="cls-2" d="m107.16,70.06c-3.71,0-7.92-.8-12.58-2.41l-.08-.03c-.34-.19-8.26-4.63-9.68-9.26-4.08-8.91-2.9-21.91,11.53-27.67l.06-.02c11.8-2.88,28.69.59,29.01,22.09-.37,6.42-5.13,17.53-18.26,17.3Zm-12.23-3.29c17.73,6.42,28.16-1.02,29.54-14.02-.33-20.68-16.27-23.82-27.78-21.17-14.16,5.7-14.7,18.14-11,26.4l.03.07c1.24,4.13,8.63,8.39,9.21,8.72Z"/><path class="cls-4" d="m102.84,40.63s-2.15,4.54,1.11,8.83c0,0-2.85-3.66-8.35-2.9,0,0,2.79,3.81,8.19,3.27,0,0-4.95.86-6.81,5.87,0,0,4.79-.48,7.07-5.45,0,0-1.83,4.73,1.55,8.65,0,0,2.08-3.93-1.03-8.73,0,0,2.83,3.55,8.27,2.8,0,0-2.75-3.84-8.2-3.27,0,0,5.04-.87,6.83-5.86,0,0-4.57.22-7.15,5.54,0,0,1.96-4.46-1.46-8.74Z"/><path class="cls-2" d="m105.6,59.06c-2.55-2.82-2.27-6.39-1.9-7.95-2.4,4.2-6.68,4.67-6.72,4.68h-.15c1.29-3.71,4.55-5.34,6.08-5.82-4.59.15-7.44-3.34-7.38-3.36,0,0-.09-.13-.09-.13,3.88-.62,6.73,1.14,7.88,2.19-2.43-4.02-.57-8.04-.55-8.09l.06-.13c2.53,3.02,2.27,6.47,1.87,8.01,2.63-4.47,6.72-4.72,6.77-4.72h.14c-1.24,3.71-4.52,5.32-6.06,5.8,4.6-.16,7.44,3.35,7.38,3.37,0,0,.09.13.09.13-4,.64-6.9-1.26-7.95-2.25,2.51,4.48.64,8.11.62,8.15l-.06.12Zm-1.65-8.85l.17.07s-1.73,4.64,1.44,8.45c.31-.71,1.65-4.29-1.08-8.51l.15-.11s2.81,3.43,8.02,2.79c-.53-.65-3.24-3.6-8.02-3.11l-.03-.18s4.91-.9,6.7-5.66c-.79.1-4.66.8-6.93,5.47l-.17-.08s1.86-4.37-1.36-8.52c-.32.8-1.71,4.81,1.16,8.59l-.15.11s-2.83-3.53-8.11-2.88c.54.65,3.28,3.58,8,3.1l.03.18s-4.82.9-6.69,5.66c.83-.14,4.84-1,6.84-5.37Z"/><g id="ansigt"><g id="_øje"><path class="cls-2" d="m104.01,46.28c-2.9,5.99-12.03,1.62-9.18-4.4,2.9-5.99,12.03-1.62,9.18,4.4Z"/><path class="cls-3" d="m100.84,47.22c-.56,1.21-2.44.3-1.85-.88.56-1.21,2.44-.3,1.85.88Z"/><path class="cls-3" d="m100.31,43.58c-1.03,2.23-4.51.56-3.42-1.64,1.03-2.23,4.51-.56,3.42,1.64Z"/></g><g id="_øje-2"><path class="cls-2" d="m115.64,54.07c-2.9,5.99-12.03,1.62-9.18-4.4,2.9-5.99,12.03-1.62,9.18,4.4Z"/><path class="cls-3" d="m111.94,51.38c-1.03,2.23-4.51.56-3.42-1.64,1.03-2.23,4.51-.56,3.42,1.64Z"/><path class="cls-3" d="m112.47,55.02c-.56,1.21-2.44.3-1.85-.88.56-1.21,2.44-.3,1.85.88Z"/></g><g id="_øjenbryn"><path class="cls-2" d="m100.72,36.71c.12-.27.34-.48.46-.58.07-.05.15-.1.23-.14.04-.02.09-.04.02-.01.26-.1.41-.12.69-.09.65.08,1.44.69,1.96,1.23.36.36.91-.2.55-.55-1.14-1.26-3.17-2.27-4.41-.55-.19.23-.38.64-.05.84.17.1.45.05.54-.14h0Z"/><path class="cls-2" d="m117.02,46.22c-.21.03-.07,0-.01,0,.42-.01.62,0,1.02.15-.1-.03-.06-.03-.04-.02.12.05.23.11.33.19.07.04-.07-.06,0,0,.09.07.17.15.24.24-.03-.04-.04-.04-.03-.03.08.09.14.2.19.3.04.07-.01-.05.02.05.04.12.08.25.1.38,0,.02.02.16.01.06.07.57-.01,1.11-.16,1.68-.12.49.63.7.76.21.54-1.8.1-3.93-2.13-3.99-.17,0-.33,0-.49.03-.49.15-.3.86.21.76h0Z"/></g><g id="mund"><path class="cls-2" d="m99.84,51.13c-.43,3.11,1.96,4.02,4.52,2.87.49-.17.29-.88-.21-.76-.91.35-1.89.64-2.7.32.1.04-.03-.02-.06-.03-.05-.02-.09-.05-.14-.08-.03-.02-.14-.1-.05-.03-.25-.21-.29-.28-.45-.59-.01-.02-.03-.07.01.03-.24-.64-.22-1-.17-1.59,0-.06-.02.14,0,.06.11-.51-.61-.7-.76-.21h0Z"/></g><g id="kinder"><path class="cls-7" d="m93.3,47.74c.99,3.63-2.1,4.45-3.03.8-.99-3.63,2.1-4.45,3.03-.8Z"/><path class="cls-7" d="m108.11,58.2c3.76.14,3.62,3.33-.14,3.13-3.76-.14-3.62-3.33.14-3.13Z"/></g></g><path class="cls-2" d="m106.64,67.18c-3.2,0-6.82-.69-10.85-2.08-.31-.17-7.13-3.99-8.31-7.92-.14-.29-3.27-7.05-.77-13.73,1.62-4.31,5.2-7.67,10.65-9.97.12-.03,10.69-2.72,17.97,2.72,4.36,3.25,6.68,8.71,6.92,16.22,0,.09-.52,8.13-6.69,12.28-2.45,1.64-5.42,2.47-8.91,2.47Zm-3.02-34.14c-3.51,0-6.14.67-6.19.68-5.37,2.27-8.9,5.57-10.5,9.82-2.51,6.69.73,13.48.77,13.55v.02c1.16,3.83,8.12,7.74,8.19,7.78,8.33,2.86,14.9,2.74,19.53-.37,6.07-4.08,6.58-12.01,6.58-12.09-.23-7.42-2.53-12.82-6.82-16.02-3.6-2.69-8.03-3.37-11.56-3.37Z"/></g><g id="glas_fill_-2" class="cls-1"><path class="cls-6" d="m21.44,57.52s16.94,38.41,13.6,62.75c0,0,.48,12.41-4.77,42.94-8.49,41.44,86.26,44.32,68.71-.95,0,0-9.54-39.13-8.59-44.38,0,0-1.67-37.93,6.92-62.27,0,0-31.02,13.36-75.87,1.91Z"/></g><g id="glas_stroke_-2"><path class="cls-2" d="m67.91,195.69c-16.4-.37-42.64-8.42-38.12-32.55,5.18-30.19,4.77-42.67,4.76-42.89,2.89-14.78-6.63-47.53-13.95-63.43,42.99,11.67,78.18-2.04,77.51-2.07-8.76,23.42-7.33,62.83-7.25,63.17-.96,5.11,8.48,43.81,8.57,44.23,9.51,26.79-15.45,33.68-31.52,33.54Zm-32.4-75.39c.02.84.26,13.65-4.78,43-7.98,41.42,85.58,42.71,67.79-.88-.4-1.64-9.51-39.08-8.62-44.56-.06-1.59-1.39-37.66,6.61-61.42-5.59,2.09-34.62,11.64-74.26,1.79,7.88,17.7,15.92,48.48,13.26,62.07Z"/><path class="cls-2" d="m67.91,195.45c-14.5-.43-34.64-6.12-37.9-22.39-.76-3.86-.36-7.66.29-11.5,2.14-13.52,4.39-27.14,4.5-40.86,1.97-22.07-5.73-43.85-13.99-63.99l-.27.35c25.33,6.41,52.86,6.88,77.64-2.07l-.29-.29c-7.1,20.73-7.51,43.02-7.32,64.72.15,4.09,1.07,8.21,1.85,12.22,1.88,9.62,4.08,19.17,6.34,28.7,1.42,5.17,3.13,10.31,2.31,15.75-1.83,14.29-18.23,18.9-30.58,19.32-.86.04-1.71.06-2.57.06-.31,0-.31.48,0,.48,18.92-.02,38.79-8.06,32.73-30.59-1.3-4.08-2.2-8.28-3.16-12.46-2.27-10.2-4.77-20.38-6.2-30.74-.46-6.43-.32-12.89-.21-19.34.57-16.17,1.83-32.64,7.27-47.99.06-.16-.13-.36-.29-.29-24.66,8.94-52.17,8.49-77.39,2.07-.22-.06-.35.17-.27.35,8.07,20.02,15.9,41.56,13.92,63.46-.23,12.7-1.94,25.32-3.95,37.84-1.41,7.41-2.39,14.57,1.59,21.44,6.89,11.36,21.41,15.14,33.87,16.18.69.05,1.39.06,2.08.06.31,0,.31-.48,0-.48Z"/><path class="cls-2" d="m35.27,120.3c-.05,13.12-2.13,26.16-4.12,39.1-.57,3.47-1.27,6.89-1.06,10.43,1.15,32.77,79.64,35.32,69.91-3.11-2.84-10.09-5.01-20.38-7.19-30.64-1.13-6.04-2.69-12.12-2.67-18.29-.32-20.53.35-41.56,6.6-61.28.06-.16-.12-.36-.29-.29-23.73,8.19-49.93,7.69-74.14,1.79-.22-.05-.35.17-.27.35,6.87,16.89,12.74,34.67,13.61,53,.1,2.96.02,5.95-.38,8.89-.04.3.42.43.46.13,2.19-20.32-5.76-43.54-13.28-62.26l-.27.35c24.3,5.92,50.56,6.42,74.39-1.79l-.29-.29c-6.54,20.37-6.88,42.14-6.65,63.35,1.52,14.02,5.24,27.74,8.35,41.48,9.16,25.02-10.4,33.75-32.17,33.23-15.13-1.16-35.21-7.63-35.29-25.82-.04-3.71.81-7.36,1.39-11,1.87-12.35,3.79-24.79,3.83-37.31,0-.31-.49-.31-.48,0Z"/></g><g id="skygger"><g class="cls-1"><path class="cls-2" d="m28.17,55.17c2.46-2.14,5.55-3.78,8.85-3.93.31-.01.31-.49,0-.48-3.16.12-6.17,1.62-8.61,3.57-.2.16-.4.32-.58.5-.22.21.11.55.34.34h0Z"/></g><g class="cls-1"><path class="cls-2" d="m39.81,105.97l-.48-.02c.47-10.75-2.94-15.92-2.98-15.97l.39-.27c.14.21,3.53,5.33,3.06,16.26Z"/></g><g class="cls-1"><path class="cls-2" d="m88.52,135.2c-5.03-5.91-3.93-27.76-2.9-34.43l.47.06c-.03.26-3.26,25.67,2.82,34.08l-.39.28Z"/></g><g class="cls-1"><path class="cls-2" d="m40.07,180.65c-6.54-4.96-4-23.58-2.5-29.53l.34.08c-.05.23-5.26,22.65,2.38,29.18l-.23.27Z"/></g><g class="cls-1"><path class="cls-2" d="m71.31,199.89c-.43,3.48-1.96,13.59.06,16.21.2.23.54-.11.34-.34-.52-.6-.64-1.63-.72-2.4-.14-1.3-.14-2.61-.1-3.91.08-2.6.33-5.2.66-7.78.07-.55.14-1.1.22-1.65.05-.3-.41-.43-.46-.13h0Z"/></g></g></g></svg>