<?xml version="1.0" encoding="UTF-8"?><svg id="eksport" xmlns="http://www.w3.org/2000/svg" width="260" height="490" viewBox="0 0 260 490"><defs><style>.cls-1{opacity:.5;}.cls-2{fill:#38322d;}.cls-2,.cls-3,.cls-4,.cls-5,.cls-6,.cls-7{stroke-width:0px;}.cls-3{fill:#fff;}.cls-4{fill:#f4e787;}.cls-5{fill:#fcfcfc;}.cls-6{fill:#e9eff4;}.cls-7{fill:#f4e6ef;}</style></defs><g id="glas"><g id="fod"><g class="cls-1"><path class="cls-6" d="m156.79,407.66s-9.77,53.5,1.16,55.11c10.93,1.61,46.71,6.6,38.27,14.14-8.43,7.54-72.78,11.98-109.33,2.94,0,0-27.74-5.55,39.05-17.86,0,0,6.11,1-.39-54.48"/></g><path class="cls-2" d="m137.75,485.86c-17.97,0-36.69-1.46-51.1-5.03-1.05-.21-6.49-1.45-6.47-4.53.02-2.96,4.77-7.76,45.58-15.29h0c.51-.49,4.36-5.88-1.21-53.38l1.99-.23c3.43,32.34,4.97,53.34-.5,55.6-43.58,8.34-50.17,13.47-38.95,15.88,34.44,8.42,105.61,6.03,109.36-4.53-1.03-3.42-13.7-6.93-37.68-10.44-14.29-.5-2.49-56.94-2.96-56.42l1.97.36c.31.15-9.65,49.54.32,53.94,18,2.57,38.8,6.33,40.27,11.98,2.05,9.38-34.58,11.78-60.61,12.09Z"/><g class="cls-1"><path class="cls-2" d="m181.71,471.29c2.53.7,5.32,1.21,7.46,2.8.13.12.16.15.23.3.01.02,0,.1.02.06-1.26,1.17-3.34,1.23-4.96,1.62-7.14,1.25-14.39,1.78-21.62,2.25-.64.04-.64,1.04,0,1,5.48-.31,10.97-.77,16.42-1.46,3.25-.48,6.61-.76,9.7-1.9,5.19-2.67-5.02-5.17-6.99-5.62-.63-.14-.89.82-.27.96h0Z"/></g><g class="cls-1"><path class="cls-2" d="m80.18,470.58c-3.13.5-6.03,4.97-5.4,8.07,1.28,5.11,7.44,6.61,11.93,7.64.63.13.9-.83.27-.96-2.79-.59-5.66-1.36-8.1-2.9-4.77-2.74-3.72-7.87.47-10.54.31-.18.43-.23.71-.29.13-.03-.06,0,.12,0,.64,0,.64-1,0-1h0Z"/></g><g class="cls-1"><path class="cls-2" d="m201.36,479.68c-3.07,4.49-10.2,6.38-15.65,7.65-.63.14-.36,1.1.27.96,5.51-1.31,13.23-3.22,16.35-8.35.24-.6-.73-.86-.96-.27h0Z"/></g></g><g id="glas_fill_" class="cls-1"><path class="cls-6" d="m201.84,115.31c0-22-75.87-23.52-75.87-23.52,0,0-72.13-1.48-84.13,26.52,0,0,82,26,160-3"/></g><g id="glas_stroke_"><path class="cls-2" d="m120.67,129.94c-44.67,0-78.6-10.51-79.12-10.67l-1.05-.33c7.96-24.87,67.25-28.7,85.51-28.14.19,0,19.26.42,38.07,3.52,26.14,4.47,39.08,11.14,38.77,21.69-27.96,10.52-56.89,13.95-82.18,13.93Zm-77.43-12.26c9.94,2.89,85.83,23.32,157.58-3.06-.84-10.21-20.5-15.6-37.05-18.34-18.68-3.08-37.62-3.5-37.81-3.5-.7-.01-69.8-1.12-82.72,24.9Z"/><path class="cls-2" d="m120.67,129.44c-26.97-.16-54.11-3.42-80.04-10.99l.3.73c9.9-26.01,67.72-28.7,91.83-27.62,15.06,1,70.3,4.17,69.59,24.44l.37-.48c-26.16,9.8-54.18,13.93-82.04,13.91-.64,0-.64,1,0,1,27.95,0,56.08-4.11,82.31-13.95.21-.08.37-.25.37-.48,0-1.7-.18-3.31-.85-4.89-5.29-11.58-27.11-15.27-38.61-17.33-32.11-4.97-65.75-5.33-97.04,4.3-10.65,3.52-22.53,9.46-26.79,20.6-.13.3-.04.63.3.73,16.88,5.05,34.38,7.9,51.88,9.65,9.45.9,18.94,1.37,28.43,1.37.64,0,.64-1,0-1Z"/><path class="cls-2" d="m43.1,118.16c23.22,6.43,47.31,9.6,71.37,10.22,29.28.63,58.9-3.15,86.47-13.27.19-.07.39-.25.37-.48-.58-6.38-7.34-10.04-12.58-12.28-17.15-6.86-35.94-8.34-54.2-9.68-15.4-.99-30.9.12-46.14,2.43-14.86,2.59-34.44,6.8-43.9,19.51-.64.9-1.2,1.84-1.69,2.83-.29.57.58,1.08.86.5,2.08-4.15,5.49-7.42,9.3-9.99,14.32-9.11,31.72-11.62,48.3-13.49,18.24-2.7,95.05-1.09,99.05,20.17l.37-.48c-49.98,17.99-105.56,16.58-156.5,3.29-.27-.08-.54-.15-.81-.23-.62-.18-.88.78-.27.96Z"/></g><g id="sugerør"><path class="cls-5" d="m105.34,172.81S62.84,29.31,53.34,24.81c0,0-5.5-5.5-49-3,0,0-7-11.08,0-19.04,0,0,46-.96,58,5.04,0,0,17.27-5,62.63,165l51.87,219.5s-10,8-19,5l-52.5-224.5Z"/><path class="cls-2" d="m106.31,172.54c-14.87-47.57-27.97-96.03-47.75-141.85-1.16-2.25-2.62-5.37-4.54-6.63-10.42-5.75-37.22-3.72-49.67-3.26l.86.5c-1.86-3.12-3-6.76-2.97-10.4.06-2.4.98-4.04,1.86-6.17.38-.93.06-.72.6-.97,13.59-.17,27.37,0,40.94,1.43,4.96.53,10.18,1.12,14.87,2.9.74.28,1.37.55,2.13.68.12.02-.38,0-.14.02.37.05-.22-.11.32.06.93.35,1.37.73,2.15,1.45,3.05,2.9,5.26,6.62,7.45,10.39,20.88,40.15,32.22,84.57,44.91,127.79,21.21,80.93,38.81,162.78,58.57,244.09l.26-.97c-4.65,3.69-11.87,6.64-18.03,4.74l.7.7c-17.52-74.83-34.98-149.68-52.5-224.5-.29-1.25-2.22-.72-1.93.53,17.49,74.79,34.99,149.63,52.48,224.39.63,1.47,3.5,1.47,4.88,1.51,5.76.08,11.3-2.55,15.82-5.96.28-.22.33-.65.26-.97-6.17-26.1-12.33-52.2-18.5-78.3-24.49-97.46-41.1-198.43-83.15-290.34-2.54-4.75-7.95-15.84-13.77-16.61-1.13-.09.83.32.25.04C49.54,1.86,34.8,2.29,20.98,1.81c-5.5-.07-11.02-.19-16.5-.04-2.18.36-3.5,4.39-3.91,6.29-1.02,4.75.36,10.17,2.91,14.26.18.29.51.52.86.5,12.44-.71,25.11-1.25,37.53.13,3.85.48,8.85.86,11.56,3.19,4.16,5.44,6.4,12.34,9.03,18.63,16.04,42.05,28.8,85.29,41.92,128.31.36,1.23,2.3.71,1.93-.53Z"/><path class="cls-2" d="m47.85,22.38c-.04-.65-.96-15.83,6.72-18.03l.55,1.92c-5.1,1.46-5.54,12.02-5.28,15.97l-2,.13Z"/><path class="cls-2" d="m55.94,26.96l-2.17-.29c.1-.72,2.46-17.62,10.97-18.45l.21,2.18c-5.64.55-8.42,12.15-9.01,16.57Z"/><path class="cls-2" d="m57.64,30.21l-1.69-1.06c.33-.52,8.15-12.84,15.89-12.84v2c-6.65,0-14.13,11.78-14.2,11.9Z"/><path class="cls-2" d="m60.63,35.92l-1.58-1.22c.38-.49,9.34-11.95,16.99-10.37l-.41,1.96c-6.45-1.34-14.92,9.52-15.01,9.63Z"/></g><g id="banan"><path class="cls-4" d="m175.6,120.7s-18.9-38.75,23.63-56.71c0,0,57.65-15.12,59.54,45.37,0,0-2.84,51.04-63.32,30.24,0,0-17.01-9.45-19.85-18.9Z"/><path class="cls-2" d="m221.49,145.59c-7.78,0-16.59-1.68-26.37-5.04l-.16-.07c-.71-.39-17.31-9.71-20.3-19.41-8.56-18.67-6.08-45.92,24.17-57.99l.13-.05c24.73-6.03,60.12,1.23,60.8,46.3-.78,13.45-10.75,36.74-38.28,36.26Zm-25.63-6.9c37.16,13.46,59.02-2.15,61.91-29.38-.69-43.33-34.1-49.92-58.22-44.36-29.67,11.94-30.81,38.02-23.05,55.32l.06.15c2.59,8.65,18.09,17.58,19.3,18.27Z"/><path class="cls-4" d="m212.44,83.91s-4.52,9.51,2.33,18.5c0,0-5.97-7.66-17.51-6.07,0,0,5.85,7.98,17.16,6.85,0,0-10.38,1.81-14.28,12.3,0,0,10.04-1,14.82-11.41,0,0-3.83,9.92,3.24,18.13,0,0,4.37-8.24-2.15-18.3,0,0,5.94,7.44,17.33,5.87,0,0-5.75-8.04-17.18-6.86,0,0,10.55-1.81,14.31-12.28,0,0-9.57.47-14.99,11.61,0,0,4.11-9.35-3.07-18.32Z"/><path class="cls-2" d="m218.23,122.53c-5.33-5.92-4.77-13.39-3.98-16.67-5.03,8.8-14,9.8-14.09,9.81l-.31.03c2.7-7.81,9.54-11.22,12.73-12.22-9.62.3-15.58-6.99-15.47-7.03,0,0-.19-.26-.19-.26,8.13-1.31,14.11,2.38,16.51,4.58-5.09-8.43-1.2-16.86-1.16-16.95l.13-.28c5.3,6.33,4.76,13.56,3.91,16.78,5.51-9.37,14.09-9.9,14.18-9.9h.29c-2.59,7.77-9.47,11.15-12.71,12.16,9.65-.34,15.59,7.02,15.46,7.06,0,0,.19.26.19.26-8.38,1.34-14.46-2.63-16.66-4.71,5.26,9.4,1.35,17,1.31,17.08l-.13.25Zm-3.45-18.55l.36.15c-.04.1-3.63,9.72,3.01,17.7.66-1.49,3.47-8.99-2.27-17.84l.32-.23c.06.07,5.88,7.19,16.81,5.84-1.12-1.37-6.79-7.55-16.8-6.52l-.05-.39c.1-.02,10.29-1.89,14.05-11.86-1.65.2-9.76,1.67-14.52,11.47l-.35-.16c.04-.09,3.9-9.17-2.84-17.87-.67,1.67-3.59,10.09,2.43,18l-.31.24c-.06-.08-5.92-7.41-16.99-6.04,1.14,1.36,6.88,7.5,16.77,6.5l.05.39c-.1.02-10.11,1.88-14.01,11.86,1.74-.28,10.14-2.11,14.34-11.26Z"/><g id="ansigt"><g id="_øje"><path class="cls-2" d="m214.89,95.73c-6.08,12.55-25.21,3.39-19.24-9.22,6.08-12.55,25.21-3.39,19.24,9.22Z"/><path class="cls-3" d="m208.25,97.72c-1.17,2.53-5.11.64-3.87-1.85,1.17-2.53,5.11-.64,3.87,1.85Z"/><path class="cls-3" d="m207.14,90.09c-2.16,4.68-9.45,1.18-7.16-3.43,2.16-4.68,9.45-1.18,7.16,3.43Z"/></g><g id="_øje-2"><path class="cls-2" d="m239.27,112.07c-6.08,12.55-25.21,3.39-19.24-9.22,6.08-12.55,25.21-3.39,19.24,9.22Z"/><path class="cls-3" d="m231.52,106.43c-2.16,4.68-9.45,1.18-7.16-3.43,2.16-4.68,9.45-1.18,7.16,3.43Z"/><path class="cls-3" d="m232.63,114.05c-1.17,2.53-5.11.64-3.87-1.85,1.17-2.53,5.11-.64,3.87,1.85Z"/></g><g id="_øjenbryn"><path class="cls-2" d="m207.99,75.69c.25-.56.72-1.01.97-1.23.15-.11.32-.21.49-.3.08-.04.18-.08.04-.02.54-.21.85-.25,1.45-.19,1.36.18,3.01,1.44,4.12,2.58.75.75,1.91-.42,1.16-1.16-2.4-2.64-6.65-4.76-9.25-1.16-.4.49-.8,1.34-.1,1.76.35.21.94.11,1.12-.29h0Z"/><path class="cls-2" d="m242.16,95.61c-.44.06-.14.02-.03.01.87-.03,1.3.01,2.14.32-.21-.07-.13-.06-.08-.03.24.11.47.24.69.39.14.08-.14-.13-.02-.02.19.15.35.32.51.51-.07-.07-.08-.09-.06-.07.17.19.28.42.39.64.08.16-.03-.11.04.09.09.26.17.52.22.79,0,.04.05.33.02.12.14,1.2-.02,2.33-.33,3.52-.26,1.03,1.33,1.46,1.58.44,1.13-3.77.21-8.24-4.47-8.36-.35-.02-.69,0-1.03.05-1.03.3-.64,1.8.44,1.58h0Z"/></g><g id="mund"><path class="cls-2" d="m216.2,111.21c.76-6.54-4.3-8.33-9.61-5.81-1.02.37-.56,1.86.47,1.57,1.88-.78,3.92-1.42,5.64-.8-.21-.08.07.03.12.06.1.05.2.1.29.16.05.03.29.2.1.06.53.44.62.57.96,1.21.02.04.06.14-.03-.06.53,1.33.51,2.09.44,3.33,0,.12.04-.28.01-.13-.2,1.07,1.31,1.44,1.59.4h0Z"/></g><g id="kinder"><path class="cls-7" d="m192.44,98.8c2.08,7.62-4.4,9.33-6.35,1.68-2.08-7.62,4.4-9.33,6.35-1.68Z"/><path class="cls-7" d="m223.49,120.71c7.89.29,7.59,6.98-.3,6.56-7.89-.29-7.59-6.98.3-6.56Z"/></g></g><path class="cls-2" d="m220.41,139.55c-6.7,0-14.29-1.45-22.74-4.35-.65-.36-14.94-8.37-17.42-16.59-.29-.61-6.86-14.78-1.62-28.77,3.39-9.04,10.9-16.07,22.31-20.89.26-.07,22.39-5.7,37.65,5.7,9.13,6.82,14,18.25,14.5,33.99,0,.19-1.09,17.05-14.01,25.74-5.13,3.45-11.37,5.17-18.67,5.17Zm-6.33-71.55c-7.36,0-12.86,1.4-12.97,1.43-11.25,4.75-18.66,11.68-22,20.59-5.26,14.02,1.54,28.25,1.61,28.4v.04c2.42,8.03,17.02,16.22,17.16,16.3,17.45,6,31.23,5.74,40.92-.78,12.71-8.55,13.79-25.16,13.79-25.33-.49-15.56-5.3-26.86-14.29-33.58-7.55-5.64-16.83-7.06-24.22-7.06Z"/></g><g id="glas_fill_-2" class="cls-1"><path class="cls-6" d="m41.84,119.31s35.5,80.5,28.5,131.5c0,0,1,26-10,90-17.79,86.84,180.77,92.89,144-2,0,0-20-82-18-93,0,0-3.5-79.5,14.5-130.5,0,0-65,28-159,4Z"/></g><g id="glas_stroke_-2"><path class="cls-2" d="m139.25,408.86c-34.37-.77-89.36-17.65-79.89-68.22,10.85-63.26,10-89.42,9.98-89.88,6.06-30.97-13.89-99.62-29.24-132.93,90.09,24.45,163.83-4.27,162.45-4.35-18.36,49.07-15.35,131.67-15.2,132.39-2.02,10.72,17.77,91.81,17.97,92.69,19.94,56.14-32.38,70.58-66.06,70.29Zm-67.91-158c.05,1.77.55,28.61-10.02,90.12-16.72,86.81,179.36,89.51,142.07-1.84-.84-3.43-19.92-81.89-18.06-93.39-.13-3.34-2.92-78.93,13.85-128.72-11.71,4.37-72.55,24.4-155.63,3.75,16.52,37.1,33.36,101.61,27.79,130.09Z"/><path class="cls-2" d="m139.25,408.36c-30.38-.89-72.59-12.83-79.44-46.93-1.6-8.1-.75-16.05.61-24.1,4.49-28.33,9.21-56.88,9.43-85.64,4.13-46.25-12-91.9-29.33-134.11l-.56.73c53.09,13.43,110.79,14.42,162.71-4.35l-.62-.62c-14.88,43.45-15.74,90.15-15.35,135.63.32,8.58,2.24,17.21,3.87,25.61,3.94,20.15,8.55,40.17,13.29,60.14,2.97,10.83,6.55,21.6,4.85,33.02-3.83,29.94-38.21,39.6-64.08,40.49-1.79.08-3.59.12-5.39.13-.64,0-.64,1,0,1,39.65-.04,81.3-16.89,68.6-64.11-2.73-8.56-4.61-17.36-6.62-26.11-4.77-21.37-9.99-42.72-13-64.42-.96-13.48-.67-27.02-.43-40.53,1.2-33.88,3.84-68.4,15.23-100.57.12-.33-.27-.76-.61-.62-51.68,18.74-109.33,17.8-162.18,4.35-.46-.12-.73.35-.56.73,16.92,41.95,33.33,87.09,29.18,132.99-.48,26.61-4.07,53.06-8.28,79.31-2.95,15.54-5.02,30.52,3.34,44.93,14.44,23.81,44.88,31.72,70.98,33.91,1.46.09,2.91.12,4.37.13.64,0,.64-1,0-1Z"/><path class="cls-2" d="m70.85,250.86c-.11,27.49-4.46,54.82-8.64,81.93-1.19,7.27-2.66,14.45-2.22,21.85,2.41,68.67,166.9,74.02,146.51-6.51-5.95-21.15-10.5-42.71-15.06-64.21-2.38-12.67-5.63-25.39-5.6-38.34-.67-43.02.74-87.11,13.84-128.43.12-.34-.26-.75-.61-.61-49.74,17.17-104.64,16.11-155.37,3.75-.46-.11-.73.35-.56.73,14.39,35.39,26.71,72.65,28.53,111.08.2,6.21.04,12.46-.79,18.62-.09.63.88.9.96.27,4.6-42.58-12.08-91.25-27.84-130.47l-.56.73c50.92,12.41,105.96,13.45,155.9-3.75l-.62-.62c-13.7,42.69-14.41,88.32-13.94,132.75,3.19,29.39,10.98,58.13,17.49,86.93,19.2,52.44-21.79,70.73-67.41,69.64-31.71-2.44-73.8-15.99-73.96-54.1-.08-7.77,1.7-15.43,2.92-23.06,3.92-25.89,7.94-51.96,8.03-78.2-.02-.64-1.02-.64-1,0Z"/></g><g id="skygger"><g class="cls-1"><path class="cls-2" d="m55.96,114.38c5.15-4.48,11.64-7.92,18.56-8.24.64-.02.64-1.02,0-1-6.63.25-12.94,3.39-18.04,7.49-.42.33-.83.68-1.22,1.04-.47.44.24,1.15.71.71h0Z"/></g><g class="cls-1"><path class="cls-2" d="m80.34,220.83l-1-.04c.98-22.54-6.17-33.37-6.24-33.47l.83-.56c.3.45,7.41,11.18,6.41,34.08Z"/></g><g class="cls-1"><path class="cls-2" d="m182.44,282.1c-10.53-12.39-8.23-58.17-6.09-72.15l.99.13c-.07.54-6.83,53.8,5.91,71.43l-.81.59Z"/></g><g class="cls-1"><path class="cls-2" d="m80.9,377.34c-13.72-10.39-8.38-49.41-5.23-61.88l.72.17c-.11.47-11.03,47.46,4.99,61.15l-.48.56Z"/></g><g class="cls-1"><path class="cls-2" d="m146.36,417.68c-.9,7.29-4.11,28.48.13,33.98.42.49,1.13-.22.71-.71-1.1-1.26-1.34-3.42-1.52-5.04-.3-2.72-.3-5.47-.21-8.2.17-5.45.7-10.89,1.39-16.3.15-1.15.3-2.31.47-3.46.09-.63-.87-.9-.96-.27h0Z"/></g></g></g></svg>