<?xml version="1.0" encoding="UTF-8"?><svg id="eksport" xmlns="http://www.w3.org/2000/svg" width="127" height="235" viewBox="0 0 127 235"><defs><style>.cls-1{fill:#f4e787;stroke-width:0px;}</style></defs><g id="glas"><g id="banana_shake"><path class="cls-1" d="m29.77,81.24s19.09-10.02,62.51-3.34c0,0-17.65,14.79-62.51,3.34Z"/></g><g id="banana_shake-2"><path class="cls-1" d="m29.77,81.24s7.63,26.24,5.21,39.12c0,0,.48,12.41-4.77,42.94-8.49,41.44,86.26,44.32,68.71-.95,0,0-9.54-39.13-8.59-44.38,0,0-1.39-16.7,1.95-40.08,0,0-17.65,14.79-62.51,3.34Z"/><path class="cls-1" d="m68.64,195.59c-9.6,0-19.11-2.39-26.23-6.6-10.18-6.04-14.6-15.17-12.44-25.73,5.18-30.14,4.77-42.76,4.77-42.89v-.03s0-.03,0-.03c2.39-12.68-5.13-38.75-5.2-39.01l-.12-.4.4.1c12.75,3.25,31.41,6.35,47.92,2.63,9.87-2.22,14.33-5.89,14.38-5.92l.48-.4-.09.62c-3.3,23.08-1.96,39.86-1.95,40.02v.03s0,.03,0,.03c-.93,5.14,8.49,43.89,8.59,44.28,5.16,13.32.24,21.22-4.81,25.49-5.66,4.79-14.68,7.63-24.76,7.79-.31,0-.63,0-.94,0Zm-33.42-75.21c.02.68.3,13.43-4.78,42.97-2.12,10.35,2.22,19.3,12.21,25.23,15.4,9.13,39.89,8.58,51.38-1.15,7.07-5.99,8.68-14.62,4.67-24.99-.4-1.63-9.52-39.12-8.61-44.47-.06-.82-1.27-17.16,1.87-39.53-1.39.98-5.91,3.82-14.07,5.66-16.44,3.72-34.98.71-47.78-2.52.44,1.55,2.04,7.4,3.41,14.35,1.47,7.47,2.95,17.77,1.7,24.46Z"/></g></g></svg>