<?xml version="1.0" encoding="UTF-8"?><svg id="eksport" xmlns="http://www.w3.org/2000/svg" width="192" height="411" viewBox="0 0 192 411"><defs><style>.cls-1{stroke:#38322d;stroke-miterlimit:10;}.cls-1,.cls-2{fill:#38322d;}.cls-3{opacity:.5;}.cls-2,.cls-4,.cls-5,.cls-6,.cls-7,.cls-8,.cls-9{stroke-width:0px;}.cls-4{fill:#c96;}.cls-5{fill:#fff;}.cls-6{fill:#f4e787;}.cls-7{fill:#f0ad5f;}.cls-8{fill:#e5bc9c;}.cls-9{fill:#f4e6ef;}</style></defs><g id="Ella"><g id="hår"><path class="cls-4" d="m87.9,3s116.89-22.94,99.15,152.62l-5.22-6.98-4.2,6.98-7.28-8.98-3.13,10.97-6.26-9.98-1.04,7.98-7.31-3.99-5.22,7.98c-10.85-6.09-7.48-14-16.7-2.99l-5.22-5.99-1.04,6.98s-9.39-4.99-6.26-8.98c3.13-3.99-5.78,10.97-5.78,10.97,0,0-8.83-2-11.96-9.98,0,0,2.09,6.98-9.39,11.97,0,0,2.09-14.12-3.13-14.04,0,0,5.22,5.5,0,10.27,0,0-3.13-2.21-6.26-9.19,0,0-8.35,4.99-6.26,10.97,0,0-7.31-7.98-6.26-10.97,0,0,0,8.98-4.17,10.97l-4.17-8.98s0,4.99-3.13,5.99c0,0-6.26-2.99-6.26-9.98v11.56s-7.31-.58-7.31-14.55c0,0-3.13,9.73,0,12.35,0,0-7.31-.38-8.35-10.35l-4.17,11.97s-8.35-6.98-7.31-10.97l-1.04,8.98s-6.26-3.99-5.22-9.98c0,0-3.72,4.39-3.13,10.97C6.11,138.96-28.9,12.84,87.9,3Z"/><path class="cls-2" d="m88.16,3.97c90.42-9.93,106.48,81.23,97.88,151.66l1.86-.5c-1.74-2.33-3.48-4.66-5.22-6.98-.44-.59-1.31-.7-1.73,0-1.4,2.33-2.8,4.66-4.2,6.98l1.57-.2c-2.43-2.99-4.85-5.99-7.28-8.98-.49-.61-1.48-.22-1.67.44-1.04,3.66-2.09,7.32-3.13,10.97.61-.08,1.22-.16,1.83-.24-2.09-3.33-4.17-6.65-6.26-9.98-.57-.91-1.74-.44-1.86.5-.35,2.66-.7,5.32-1.04,7.98.5-.29,1-.58,1.5-.86-2.44-1.33-4.87-2.66-7.31-3.99-.49-.27-1.07-.1-1.37.36-1.74,2.66-3.48,5.32-5.22,7.98l1.37-.36c-3.1-1.67-5.59-4.17-7.83-6.84-3.62-4.69-7.61,1.2-10.08,4h1.41c-1.74-2-3.48-3.99-5.22-5.99-.46-.53-1.56-.29-1.67.44-.35,2.33-.7,4.66-1.04,6.98l1.47-.6c-2.17-1.24-8.4-4.99-5.66-7.88.18-.24.07.02,0-.03-.48-.28-.96-.55-1.43-.83l.03-.22c-1.49,3.3-4.26,7.7-6.34,11.32l1.13-.46c-4.81-1.1-9.41-4.68-11.26-9.28-.63-1.3-2.45-.61-1.87.81.7,4.91-4.72,8.86-9,10.56l1.47,1.13c.44-4.15,1.93-14.87-4.1-15.31-.89,0-1.29,1.09-.71,1.71,2.37,2.46,2.82,6.47,0,8.86l1.21-.16c-2.16-1.77-4.58-5.74-5.9-8.84-.22-.49-.94-.61-1.37-.36-3.98,2.39-8.37,7.1-6.72,12.1.56-.32,1.11-.65,1.67-.97-2.04-2.29-4-4.72-5.41-7.46-.4-.81-.82-1.83-.6-2.54-.65-.09-1.31-.18-1.96-.27,0,1.44-.17,2.89-.45,4.3-.42,2.11-1.15,4.76-3.23,5.81l1.37.36c-1.39-2.99-2.78-5.99-4.17-8.98-.43-.93-1.86-.43-1.86.5,0,1.73-.52,4.37-2.4,5.02l.77.1c-3.44-1.66-5.73-5.33-5.77-9.11-.01-1.29-2-1.29-2,0v11.56c.33-.33.67-.67,1-1-.07,0,.34.08.06,0-.16-.05-.33-.07-.49-.12-.12-.04-.23-.08-.35-.12s-.14-.06,0,0c-4.74-2.21-5.47-8.59-5.52-13.31,0-1.15-1.62-1.33-1.96-.27-.99,3.71-2.89,10.3.26,13.32l.71-1.71c-.22-.01-.22-.03-.07,0-4.5-.61-6.94-5.19-7.28-9.35-.12-1.1-1.58-1.38-1.96-.27-1.39,3.99-2.78,7.98-4.17,11.97l1.67-.44c-2.37-2.05-4.65-4.32-6.26-7.03-.49-.86-1.03-1.97-.79-2.97l-1.96-.27c-.35,2.99-.7,5.99-1.04,8.98.5-.29,1-.58,1.5-.86-2.76-1.87-5.35-5.28-4.76-8.85.14-.87-.96-1.83-1.67-.97-2.64,3.15-3.75,7.66-3.42,11.68l1.86-.5c-.3-.62-.58-1.25-.85-1.88C-8.07,92.1,1.45,13.94,79.9,4.89c2.66-.37,5.33-.66,8-.89,1.27-.11,1.28-2.11,0-2C2.49,5.84-12.96,90.06,13.98,157.12c.43.87,1.94.47,1.86-.5-.38-3.54.84-7.72,2.84-10.27-.56-.32-1.11-.65-1.67-.97-.71,4.47,1.98,8.73,5.68,11.1.7.45,1.42-.16,1.5-.86.35-2.99.7-5.99,1.04-8.98.13-1.12-1.71-1.35-1.96-.27-.67,2.84,1.56,5.66,3.27,7.67,1.3,1.53,2.75,2.98,4.29,4.28.59.5,1.41.3,1.67-.44,1.39-3.99,2.78-7.98,4.17-11.97-.65-.09-1.31-.18-1.96-.27.41,5.22,3.67,10.89,9.35,11.35.84.05,1.35-1.14.71-1.71-1.65-1.45-1.16-4.64-.86-6.55.25-1.63.62-3.26,1.12-4.83l-1.96-.27c-.03,5.7,1.43,14.42,8.31,15.55.54.05,1-.5,1-1v-11.56h-2c.03,4.56,2.76,8.73,6.75,10.84.87.37,1.89-.34,2.51-.93,1.53-1.52,2.08-3.82,2.13-5.92l-1.86.5c1.39,2.99,2.78,5.99,4.17,8.98.24.51.92.58,1.37.36,3.98-2.29,4.46-7.69,4.67-11.84,0-1.15-1.63-1.33-1.96-.27-.37,1.17.06,2.42.52,3.49,1.47,3.14,3.71,5.87,5.99,8.45.66.73,1.98-.03,1.67-.97-1.35-4.09,2.59-7.92,5.8-9.84l-1.37-.36c1.65,3.49,3.57,7.09,6.62,9.55.36.26.91.13,1.21-.16,3.59-3.13,3.17-8.41,0-11.69l-.71,1.71c3.65.34,2.37,10.72,2.19,12.63-.22.93.54,1.69,1.45,1.28,3.87-1.7,7.84-4.29,9.44-8.39.55-1.41.85-3.21.42-4.71l-1.93.53c2.11,5.25,7.12,9.41,12.66,10.67.44.1.9-.07,1.13-.46,1.97-3.3,3.95-6.61,5.73-10.01.29-.55.69-1.17.81-1.78.25-1.24-1.09-1.71-1.9-.91-2.07,2.05-1.42,4.64.29,6.67,1.53,1.81,3.65,3.28,5.74,4.4.51.27,1.37.07,1.47-.6.35-2.33.7-4.66,1.04-6.98-.56.15-1.11.29-1.67.44,1.74,2,3.48,3.99,5.22,5.99.33.38,1.08.39,1.41,0,1.53-1.77,3.19-3.97,5.13-5.09.1-.04.55-.15.34-.12.08-.01.16-.01.24,0,.17.02-.15-.04.08.02.18.05.45.21.63.37,2.74,2.96,5.4,6.07,9.05,7.97.49.28,1.07.1,1.37-.36,1.74-2.66,3.48-5.32,5.22-7.98l-1.37.36c10.46,5.36,8.09,6.99,9.85-4.85l-1.86.5c2.09,3.33,4.17,6.65,6.26,9.98.45.72,1.59.6,1.83-.24,1.04-3.66,2.09-7.32,3.13-10.97l-1.67.44c2.43,2.99,4.85,5.99,7.28,8.98.42.51,1.27.3,1.57-.2,1.4-2.33,2.8-4.66,4.2-6.98h-1.73c1.74,2.33,3.48,4.66,5.22,6.98.61.81,1.76.52,1.86-.5C196.69,83.34,179.94-8,87.63,2.04c-1.26.25-.73,2.18.53,1.93Z"/><g class="cls-3"><path class="cls-2" d="m108.77,10.98c46.24,8.03,68.15,50.41,68.38,94.26.02.64,1.02.64,1,0-.19-7.9-.91-15.79-2.35-23.56-5.34-34.66-31.25-66.49-67.03-71.71-.64-.07-.63.93,0,1h0Z"/></g><path class="cls-2" d="m140.21,116.64c-16.43-10.16-23.33-30.44-24.46-48.9-.04-.64-1.04-.64-1,0,1.14,18.8,8.21,39.45,24.96,49.76.57.29,1.08-.57.5-.86h0Z"/><g class="cls-3"><path class="cls-2" d="m156.29,148.28c-2.14-3.57-1.31-8.79-.21-12.82.17-.62-.79-.89-.96-.27-1.11,4.39-2.14,9.75.47,13.79.41.49,1.12-.22.71-.71h0Z"/></g><g class="cls-3"><path class="cls-2" d="m15.29,119.82c-2.28-38.85,8.74-90.76,50.54-104.15.61-.2.35-1.17-.27-.96C22.96,28.7,12.16,80.04,14.29,119.82c.05.64,1.05.64,1,0h0Z"/></g><g class="cls-3"><path class="cls-2" d="m171.12,126.17c5.46,4.63,6.88,12.65,6.21,19.55-.06.64.94.64,1,0,.63-7.18-.78-15.63-6.71-20.42-.53-.37-1.03.49-.5.86h0Z"/></g><g class="cls-3"><path class="cls-2" d="m113.94,29.86c5.8,8.47,20.79,13.52,30.35,16.52.62.18.88-.78.27-.96-7.35-2.19-14.7-4.86-21.3-8.81-3.07-1.86-6.19-3.95-8.28-6.95-.06-.1-.12-.19-.17-.3-.28-.58-1.15-.07-.86.5h0Z"/></g><g class="cls-3"><path class="cls-2" d="m82.27,29c-7.81,10.97-21.55,16.14-34.37,18.48-.63.11-.36,1.07.27.96,13.1-2.38,27.01-7.72,34.97-18.94.33-.56-.54-1.06-.86-.5h0Z"/></g><path class="cls-2" d="m111.45,127.77c-6.01-4.05-8.23-11.86-8.36-18.8-.01-.64-1.01-.64-1,0,.15,7.23,2.48,15.48,8.86,19.66.56.32,1.07-.55.5-.86h0Z"/><g class="cls-3"><path class="cls-2" d="m26,118.19c3.76,6.2,2.43,14.18-.39,20.49-.26.58.6,1.09.86.5,2.95-6.61,4.38-14.99.39-21.5-.37-.52-1.24-.02-.86.5h0Z"/></g></g><g id="ben"><path class="cls-8" d="m106.01,394.34s.8-14.29,2.13-27.09c-1.5.39-12.69,5.08-16.99,6.12-.85,12.46-1.3,26.18.5,29.18,1.86,3.09,27.11,9.75,25.68,1.63,0,0-1.09-10.81-11.33-9.83Z"/><path class="cls-2" d="m107.01,394.34c.52-9.04,1.22-18.08,2.13-27.09.07-.66-.69-1.12-1.27-.96-4.48,1.46-8.78,3.5-13.27,4.97-1.22.42-2.45.84-3.71,1.15-.45.11-.7.53-.73.96-.47,8.75-1.3,17.59-.3,26.32.15,1.09.34,2.27.88,3.25,1.66,2.22,4.73,2.9,7.22,3.8,4.82,1.52,21.08,5.54,20.38-2.57-.54-5.21-4.22-10.33-9.73-10.81-1.07,0-3.49-.56-3.6.99,0,.5.46,1.05,1,1,6.23-.73,9.63,3.96,10.32,8.78.01.11.03.21.04.32.03.19,0-.19,0,.07.02.17.01.35,0,.52,0,.27.05-.11-.01.09-.03.11-.18.52-.06.26-.07.15-.15.28-.24.41-.06.1.14-.12-.03.03-.06.05-.12.12-.17.17-.03.03-.21.18-.09.08s-.12.08-.16.11c-4.46,2.55-18.53-1.01-22.75-3.81-.14-.12-.27-.24-.39-.37-.01,0,.11.22.06.07-.05-.11-.13-.21-.17-.33-.08-.17.04.12,0,0-1.12-3.52-.93-7.42-.95-11.11.03-5.76.36-11.51.74-17.26l-.73.96c5.82-1.54,11.29-4.19,16.99-6.12l-1.27-.96c-.93,9.01-1.6,18.05-2.13,27.09-.07,1.29,1.93,1.28,2,0Z"/><path class="cls-8" d="m133.39,353.85s-1.61,45.47,2.25,50.96c2.07,2.95,27.73,7.8,25.73-.2,0,0-1.86-10.7-12-9,0,0-.7-46.96,2.89-47.22"/><path class="cls-2" d="m132.39,353.85c.04,7.92-2.09,49.57,3.43,52.42,4.81,2.51,10.45,3.25,15.8,3.66,5.44.31,13.42-.35,10.02-7.88-1.97-5.32-6.83-8.58-12.54-7.4l1.27.96c-.05-13.83-.28-28.45,1.17-41.88.2-1.5.54-3.52,1.04-4.39.06-.13.17-.2-.03.02.04-.04.08-.09.12-.13-.05.04-.24.16-.07.06.1-.06-.27.1-.16.07.09-.03.22-.02-.17.02,1.32-.07,1.31-1.97,0-2-2.13.35-2.21,3.52-2.57,5.22-1.69,14.25-1.36,28.68-1.32,43,.01.7.63,1.07,1.27.96,4.43-.91,8.47,1.69,10.01,5.83.26.61.7,1.95.83,2.84-.04-.27,0,.11,0,.21,0,.06,0,.13,0,.19,0,.21,0,0,0,.01-.03.12-.06.23-.09.35-.04.19.04-.07.01-.02-.03.06-.06.12-.09.18-.05.09-.26.35-.08.14-.39.45-.6.57-1.17.86-.09.04-.19.09-.04.02-1.97.77-3.96.83-6.19.79-5-.15-10.02-1.01-14.73-2.78-.27-.08-1.3-.64-1.47-.78.14.11-.08-.08-.13-.12-.18-.14-.03-.03-.01,0-.15-.22-.28-.46-.38-.71-.33-.72-.91-3.59-1.01-4.62-1.59-14.89-1.05-29.92-.73-44.86.32-1.42-1.89-1.73-1.99-.27h0Z"/><g class="cls-3"><path class="cls-2" d="m90.5,406.74s-.26.1-.08.05c-.16.07-.34.11-.51.14.07-.02.08-.02.06-.02-.14.03-.28.02-.41.01-.13,0,.12.03,0,0-.08-.02-.16-.03-.24-.06-.04-.01-.21-.09-.06-.01-.13-.06-.26-.13-.38-.22-.02-.02-.11-.09,0,0-.12-.1-.23-.2-.33-.32-.02-.02-.14-.17-.07-.08-.98-1.39-1.17-3.12-1.33-4.77-.05-.64-1.05-.64-1,0,.2,1.97.43,4.17,1.82,5.69.79.81,2.06,1.01,3.04.45.55-.33.05-1.2-.5-.86h0Z"/></g><g class="cls-3"><path class="cls-2" d="m133.93,408.26s-.26.1-.08.05c-.16.07-.34.11-.51.14.07-.02.08-.02.06-.02-.14.03-.28.02-.41.01-.13,0,.12.03,0,0-.08-.02-.16-.03-.24-.06-.04-.01-.21-.09-.06-.01-.13-.06-.26-.13-.38-.22-.02-.02-.11-.09,0,0-.12-.1-.23-.2-.33-.32-.02-.02-.14-.17-.07-.08-.98-1.39-1.17-3.12-1.33-4.77-.05-.64-1.05-.64-1,0,.2,1.97.43,4.17,1.82,5.69.79.81,2.06,1.01,3.04.45.55-.33.05-1.2-.5-.86h0Z"/></g></g><g id="nederdel"><path class="cls-9" d="m154.2,240.62s12.04,58.78,11.28,75.23c0,0,9.86,45.84-106.47,77.19,0,0,8.67-30.42,10.16-47.94,1.67-19.59,10.87-100.95,16.79-99.61,5.91,1.34,30.07,9.59,68.24-4.88Z"/><g id="sløjfe"><path class="cls-2" d="m82.67,250.85c-18.51,23.97-36.81,7.4-21.71-1.05,0,0,11.06-6.22,22.77-.92,0,0-22.81-.04-19.65,8.5,0,0,2.07,4.73,18.97-6.76"/><path class="cls-2" d="m63.25,264.27c-4.06.16-8.49-2.49-8.84-6.35-.54-3.49,2.39-7.19,6.71-9.36l.02.02c2.66-1.27,12.59-5.32,22.99-.61l4.23,1.92c-.92,0-4.97-.02-5.82,0l1.05,1.55c-.1.07-.21.14-.31.21-7.28,9.34-14.65,12.62-20.05,12.62Zm-1.81-13.6c-13.02,7.63,1.35,19,15.78,4.77-5.87,3.24-11.89,5.64-14.06,2.33-2.4-7.48,8.76-8.97,14.94-9.63-8.87-1.67-16.29,2.33-16.66,2.53h0Zm3.54,6.25c.27.26,3.31,2.48,17.35-7.03-4.73.23-19.18,1.06-17.35,7.03Z"/><path class="cls-2" d="m81.43,254.08c5.17,22.89-13.36,26.14-11.06,12.81,0,0,1.67-9.78,10.41-14.41,0,0-11,13.97-4.46,16.15,0,0,3.77,1.01,5.16-14.89"/><path class="cls-2" d="m74.49,275.5c-8.95-.49-5.5-17.47,5.94-23.7,0,0,3.21-1.7,3.21-1.7-.44.56-2.41,3.04-2.8,3.58l1.41.12c0,.1-.02.2-.03.3,2.59,11.89-.79,20.78-7.73,21.41Zm-3.36-8.47c-1.02,4.93,1.78,8.83,6.08,5.99,2.6-1.84,4.81-6.2,4.3-13.31-.95,5.16-2.37,9.9-5.39,9.66-5.58-2.16-1.07-9.64,1.48-13.74-5.2,4.64-6.41,11.07-6.47,11.39h0Zm9.57-13.16c-2.15,3.04-8.55,12.21-4.22,14,.29-.05,3.05-.91,4.22-14Z"/><path class="cls-2" d="m77.52,269.66c-2.71,5.13-5.29,10.71-5.38,16.6.04,2.15,1.28,5.13,1.52,6.64.38,1.86.7,3.63.47,5.18-.02.24.13-.48.03-.15-.05.18-.27.83,0,.1-.03.08-.07.15-.1.23.31-.62.19-.33.09-.2.36-.51.22-.27.11-.16-.21.22.35-.28.1-.1-6.08,3.3-10.93,11.96-9.78,19.7.1.83.79,1.14,1.47.66.74-.53,1.26-1.67,1.15-2.58-.74-7.03,2.46-11.24,7.14-14.35,4.19-2.28,2.13-10.64.55-15.42.03.13.04.16.04.15-.12-.48-.16-1.08-.17-1.61,0-1.41.56-3.98,1.37-6.19.38-1.15,2.01-4.93,3.07-6.82-.39.77-.21.38-.11.2.38-.68.89-1.87.27-2.57s-1.55.17-1.85.71h0Z"/><path class="cls-2" d="m72.07,271.51c-5.59,4.11-12.55,11.09-9.45,18.6.12.52.54,3.25.48,4.65,0,.1-.01.32,0-.14-.05,1.99-.17,3.07-.72,4.79-.06.19-.01.35.05-.13-.17.51-.42.99-.65,1.48-.15.31.08-.15.09-.16-.19.4-.49.77-.74,1.14-.09.12-.05.07.12-.15-.33.42-.69.81-1.07,1.18.3-.29-.13.11-.25.2-.38.31-.78.59-1.19.84-.02.01-.42.23-.14.08-.88.48-1.83.85-2.8,1.12-1.37.39-2.28,4.17-.35,3.62,9.85-2.7,12.08-14.66,9.11-22.62-.07-.33-.08-.66-.12-1-.01-.09.01-.32,0,.07,0-.29.03-.58.07-.87.02-.12.12-.52,0-.01.07-.33.16-.66.27-.98.08-.26.06.07-.05.14.94-2.4,2.49-4.14,4.9-6.4-.18.17-.17.15,0,0,.89-.78,1.8-1.54,2.77-2.21.76-.52,1.25-1.67,1.15-2.58-.1-.86-.78-1.14-1.47-.66h0Z"/></g><g id="blomst"><path class="cls-7" d="m131.06,271.7s-2.65-7.95-11.06-9.1c0,0-5.65,6.09-2.17,14.34,0,0-6.9-1.99-13.24,5.25,0,0,2.37,7.54,11.07,9.09,0,0-5.65,6.09-2.17,14.34,0,0,7.28,1.67,13.23-5.26,0,0,2.65,7.95,11.06,9.1,0,0,5.65-6.09,2.17-14.34,0,0,7.58,2.09,13.24-5.25,0,0-2.08-7.13-10.87-9.24,0,0,5.45-5.94,1.97-14.19,0,0-7.28-1.67-13.23,5.26Z"/><path class="cls-6" d="m125.22,275.45s-1.52,6.15,3.54,10.76c0,0-4.39-3.92-10.96-1.73,0,0,4.36,4.12,10.84,2.23,0,0-5.86,2.19-6.91,8.85,0,0,5.75-1.67,7.33-8.38,0,0-1.07,6.31,4.03,10.44,0,0,1.59-5.38-3.41-10.66,0,0,4.35,3.79,10.83,1.64,0,0-4.31-4.17-10.86-2.24,0,0,5.96-2.21,6.93-8.84,0,0-5.55,1.31-7.4,8.52,0,0,1.3-6-3.95-10.58Z"/></g><g class="cls-3"><path class="cls-2" d="m149.74,253.5c-5.06,3.57-11.36,5.43-17.51,5.58-.64,0-.64,1.01,0,1,5.93-.09,11.88-1.9,16.93-5,.37-.23.74-.46,1.09-.72.51-.38.02-1.24-.5-.86h0Z"/></g><g class="cls-3"><path class="cls-2" d="m157.66,315.7c.67,5.96-.33,12.76-3.01,18.38-.27.58.59,1.09.86.5,1.94-4.1,3-8.55,3.27-13.07.12-2.01.13-4.08-.17-6.08-.1-.63-1.06-.36-.96.27h0Z"/></g><g class="cls-3"><path class="cls-2" d="m74.71,347.56c-.48,8-1.33,16.04-3.38,23.8-.69,2.57-1.54,5.15-2.9,7.45-.33.56.54,1.06.86.5,2.53-4.46,3.56-9.6,4.5-14.59.99-5.67,1.59-11.42,1.91-17.17.03-.64-.97-.64-1,0h0Z"/></g><path class="cls-1" d="m155.16,245.23s-33.05,19.12-71.98,4.98c0,0,1.16-4.55,2.82-3.4,0,0,28.64,7.95,68.18-5.6l.97,4.02Z"/><g id="blomst-2"><path class="cls-7" d="m131.54,350.55c-4.66-6.05-2.22-11.9-2.22-11.9,7.15-1.67,11.1,3.81,11.1,3.81,3.02-7.06,9.07-7.72,9.07-7.72,5.04,5.86,2.21,11.91,2.21,11.91-5.25,5.17-20.5,24.13-29.14,11.82,2.2-6.88,8.98-7.9,8.98-7.9Z"/><path class="cls-6" d="m142.76,354.3c-5.51-2.65-5.72-7.5-5.72-7.5,5.18,1.81,6.05,7.15,6.05,7.15-.56-5.79,3.45-8.78,3.45-8.78.75,5.77-2.96,8.84-2.96,8.84,1.24-.84-.74.66-.74.66-4.47,3.55-9.18,1.34-9.18,1.34,4.47-3.72,9.09-1.72,9.09-1.72Z"/></g><g id="blomst-3"><path class="cls-7" d="m73.78,300.94c.63-3.03.64-6.13,1-9.2.37-3.33,1.28-6.65,1.73-9.98,2.01-5.63,5.62-9.58,12.22-8.02,2.97,7.07-1.74,12.74-1.74,12.74,7.87,1.48,9.93,7.91,9.93,7.91-4.56,6.46-11.46,4.92-11.46,4.92,2.43,7.8-1.94,12.66-1.94,12.66-8.04-1.06-9.93-7.91-9.93-7.91.07-.83.12-1.87.17-3.04,0-.03.01-.05.02-.08Z"/><path class="cls-6" d="m75.46,291.53c6.21-1.83,9.71,1.89,9.71,1.89-5.37,2.26-9.73-1.37-9.73-1.37,4.41,4.22,3.27,9.47,3.27,9.47-4.55-4.06-3.71-9.17-3.71-9.17-.41,1.56.14-1.06.14-1.06,1.13-6.04,6.4-7.65,6.4-7.65-1.01,6.17-6.08,7.89-6.08,7.89Z"/></g><g id="blomst-4"><path class="cls-7" d="m96.14,321.2s-5.14-4.09-11.2-1.11c0,0-1.15,6.55,4.66,10.47,0,0-5.41,1.75-6.54,9.36,0,0,4.78,3.94,11.2,1.1,0,0-1.15,6.55,4.66,10.47,0,0,5.53-2.13,6.53-9.37,0,0,5.14,4.09,11.2,1.11,0,0,1.15-6.55-4.66-10.47,0,0,5.91-1.98,6.54-9.36,0,0-4.41-3.8-11.13-1.29,0,0,1.09-6.36-4.73-10.28,0,0-5.53,2.13-6.53,9.37Z"/><path class="cls-6" d="m93.86,326.28s1.61,4.75,6.92,5.56c0,0-4.58-.64-8,3.72,0,0,4.64.79,8.13-3.34,0,0-2.95,4.05-.81,8.93,0,0,3.1-3.67,1.29-8.81,0,0,1.98,4.66,7.11,5.13,0,0-1.24-4.27-6.8-5.55,0,0,4.49.58,7.87-3.73,0,0-4.63-.85-8.15,3.34,0,0,3.01-4.12.83-8.94,0,0-3.12,3.33-1.28,8.93,0,0-1.69-4.56-7.12-5.25Z"/></g><g id="blomst-5"><path class="cls-7" d="m82.24,377.8c-1.75-5.54,1.49-9.03,1.49-9.03,5.5.74,6.89,5.68,6.89,5.68,3.96-4.19,8.41-3.04,8.41-3.04,2.06,5.51-1.5,9.03-1.5,9.03-5.05,2.25-20.74,11.59-23.7.54,3.33-4.29,8.4-3.19,8.4-3.19Z"/><path class="cls-6" d="m89.22,383.48c-3.22-3.36-2.12-6.86-2.12-6.86,3.2,2.68,2.45,6.7,2.45,6.7,1.1-4.25,4.7-5.29,4.7-5.29-.95,4.29-4.37,5.47-4.37,5.47,1.1-.26-.69.27-.69.27-4.08,1.31-6.85-1.52-6.85-1.52,4.12-1.43,6.89,1.23,6.89,1.23Z"/></g><path class="cls-2" d="m155.09,240.3c4.46,24.65,10.78,50.77,11.28,75.24.23,43.19-61.95,64.31-95.36,75.1-2.46.16-12.75,5.21-12.92,2.22,15.17-47.38,10.82-98.84,25.36-146.25,1.31-3.54,3.6-1.35,7.52-.86,17.86,2.25,35.97,2.45,53.13-2.72,1.85-.13,13.63-5.92,10.41-1.51-21.6,8.39-46.71,11.46-68.65,4.92-.26.02.24-.08.01,0-.25.08.25-.12-.02.02s.06-.11-.06.04c-.06.08-.14.15-.2.23-.08.1-.29.42-.11.14-14.9,47.08-10.32,99.01-25.54,146.36l-1.24-1.1c34.78-9.93,105.57-31.85,105.85-76.18-.63-23.81-6.58-49.81-11.03-74-.54-.88.03-3.62,1.57-1.65Z"/></g><g id="overkrop"><path class="cls-8" d="m92.17,147.91l-3.22,81.46s-20.84-21.14-20.31-28.3c.53-7.16.84-53.24,23.53-53.16"/><path class="cls-2" d="m89.85,231.72c-3.09-3.33-22.1-21.91-22.22-30.72.84-13.95,1.82-54.83,25.57-54.08l-3.35,84.8Zm1.27-82.77c-12.88-.18-20.62,21.65-21.49,52.2-.37,5.03,11.94,19.07,18.41,25.85l3.08-78.05Z"/><path class="cls-8" d="m121.22,146.2c21.99-5.61,33.52,39,35.78,45.82,2.26,6.81-12.8,32.4-12.8,32.4,0,0-15.51-47.02-22.98-78.22"/><path class="cls-2" d="m143.94,226.82l-.69-2.1c-.09-.22-16.08-48.91-23.24-79.25,22.83-6.44,33.71,32.91,37.93,46.23,2.03,8.55-11.81,31.14-14,35.12Zm-21.51-79.87c6.54,27.01,18.96,65.6,22.03,75.02,4.6-8.12,13.19-24.83,11.59-29.64-8.31-29.45-21.15-48.75-33.62-45.37Z"/><path class="cls-8" d="m87.75,178s5.83,15.03-2.38,67.61c0,0,16.8,14.17,68-4,0,0-23.62-51.61-21.62-65.61l-9.53-31.39s-19.64,4.22-31.05,3.31c-11.42-.91,0,0,0,0l-3.42,30.09Z"/><path class="cls-2" d="m107.97,251.91c-17.03-.15-22.52-5.01-23.68-5.9,8.1-50.41,2.57-68.22,2.52-67.65,0,0-.09-.23-.09-.23.04-.4,3.29-28.94,3.33-29.3l-4.04-.32.16-1.99,5.07.41c11.13.89,30.57-3.25,30.76-3.29l.9-.19,9.86,32.49c-2.12,13.6,21.27,64.67,21.51,65.27,0,0,.46.99.46.99-19.81,7.2-36.2,9.82-46.76,9.72Zm-21.52-6.76c2.92,1.91,20.79,11.52,65.55-4.12-3.35-7.42-22.91-51.46-21.28-64.94l-9.2-30.31c-3.91.8-19.26,3.76-29.48,3.2l-3.28,28.91c.73,2.19,5.25,18.42-2.32,67.27Z"/><g id="bikini"><path class="cls-2" d="m93.69,145.5c-4.52,24.62,1.3,25.89,1.3,25.89,37.42,33.7,5.01,37.92-7.59,31.17-7.53-5.69,4.36-56.81,4.36-56.81l1.94-.24Z"/><path class="cls-2" d="m120.79,200.94c11.81,9.46,20.96-.94,20.96-.94,6-7-10-29-10-29-.99-12.73-8.06-26.5-8.06-26.5h-4c15.69,28.77-6.94,38.73,1.09,56.45,0,0-2.87.96-10.04.06l.71-.93h9l.33.87Z"/></g></g><g id="ansigt"><path class="cls-8" d="m99.27,29.82s29.7,33.04,52.1,27.78c13.12,23.43,21.83,65.77-9.5,79.41-48.04,25.17-126.86,9.24-101.77-67.88,0,0,33.07-1.09,59.17-39.3Z"/><path class="cls-2" d="m96.45,149.13c-42.71-.84-74.93-25.35-57.09-80.98l.7-.02c-.06.44,35.11-2.95,59.1-39.92,7.2,8.51,34.81,33.81,52.71,28.25,13.95,24.18,22.18,67.89-9.61,81.47-14.31,7.5-30.47,11.2-45.81,11.2Zm-55.61-79.05c-23.28,73.06,48.64,92.03,100.56,66.04,30.14-12.96,22.33-54.01,9.45-77.39-16.19,4.07-40.73-15.56-51.47-27.32-18.27,25.38-38.39,35.97-58.54,38.67Z"/><g id="kinder"><path class="cls-9" d="m59.21,112.31c13.78,4.59,9.79,16.25-3.92,11.43-13.78-4.59-9.79-16.25,3.92-11.43Z"/><path class="cls-9" d="m141.33,103.21c12.35-7.64,18.75,2.9,6.27,10.33-12.35,7.64-18.75-2.9-6.27-10.33Z"/></g><g id="_øjenbryn"><path class="cls-2" d="m128.04,74.58c-1.34,7.62,7.65,10.54,13.72,10.69,1.28.09,1.28-1.91,0-2-5.01-.1-12.51-2.45-11.84-7.89.53-1.39-1.45-2.19-1.88-.8h0Z"/><path class="cls-2" d="m63.53,81.87c.09.13.16.27.23.4.05.09.2.47.06.11.18.44.31.89.39,1.36.01.07.04.35.01.06.05.42.06.85.03,1.28,0,.07-.05.41-.01.18-.08.53-.22,1.05-.42,1.55-1.45,3.31-5.26,5.5-8.57,6.99-1.12.68-.17,2.33,1.01,1.73,5.64-2.28,12.73-7.95,9-14.67-.72-1.06-2.46-.06-1.73,1.01h0Z"/></g><g id="_øjne"><g id="_øje"><path class="cls-2" d="m88.74,97.44c.62,18.5-26.88,19.89-28.12,1.42-.62-18.5,26.88-19.88,28.12-1.42Z"/><path class="cls-5" d="m76.2,95.78c.44,6.78-10.22,7.32-10.46.53-.44-6.78,10.22-7.32,10.46-.53Z"/><path class="cls-5" d="m82.29,103.92c.24,3.67-5.53,3.96-5.66.29-.24-3.67,5.53-3.96,5.66-.29Z"/></g><g id="_øje-2"><path class="cls-2" d="m137.97,92.52c.62,18.5-26.88,19.89-28.12,1.42-.62-18.5,26.88-19.88,28.12-1.42Z"/><path class="cls-5" d="m125.43,90.85c.44,6.78-10.22,7.32-10.46.53-.44-6.78,10.22-7.32,10.46-.53Z"/><path class="cls-5" d="m131.52,99c.24,3.67-5.53,3.96-5.66.29-.24-3.67,5.53-3.96,5.66-.29Z"/></g></g><g id="mund"><path class="cls-2" d="m93.83,112.2c3.29-6.76,9.25-7.5,14.27-1.55.88.95,2.29-.47,1.41-1.41-5.97-6.75-13.21-6.2-17.41,1.95-.6,1.17,1.04,2.13,1.73,1.01h0Z"/></g></g><g class="cls-3"><path class="cls-2" d="m60.13,192.46c-1.99,6.89-4,18.74,5.02,21.26.62.15.89-.81.27-.96-7.61-1.87-6.29-12.12-4.91-17.86.18-.73.36-1.45.59-2.16.2-.61-.77-.88-.96-.27h0Z"/></g><g class="cls-3"><path class="cls-2" d="m164.26,184.05c2.51,5.94,6.17,16.97-1.73,20.33-.59.23-.34,1.2.27.96,8.73-3.6,5.14-15.26,2.32-21.8-.27-.58-1.14-.07-.86.5h0Z"/></g></g></svg>