<?xml version="1.0" encoding="UTF-8"?><svg id="eksport" xmlns="http://www.w3.org/2000/svg" width="251" height="403" viewBox="0 0 251 403"><defs><style>.cls-1{opacity:.5;}.cls-2{fill:#38322d;}.cls-2,.cls-3,.cls-4,.cls-5,.cls-6,.cls-7{stroke-width:0px;}.cls-3{fill:#c96;}.cls-4{fill:#f4e787;}.cls-5{fill:#f0ad5f;}.cls-6{fill:#e5bc9c;}.cls-7{fill:#f4e6ef;}</style></defs><g id="Ella"><path class="cls-6" d="m89.26,148.87s23.5,28.26,2.5,80.43c0,0,47.34,10.87,72.67,0,0,0-15.67-63.04-5.17-80.43s0,0,0,0h-70"/><path class="cls-2" d="m88.55,149.57c.05.07.1.14.16.2,15.56,22.32,12.38,54.55,2.08,79.25-.2.49.22,1.12.7,1.23,22.95,4.42,51.17,8.57,73.44-.1.41-.17.56-.74.46-1.13-3.83-16.22-6.93-32.68-8.3-49.3-.54-9.51-1.33-19.7,2.17-28.7,1.6-3.26,3.73-6.23,5.53-9.38.67-1.1-1.06-2.11-1.73-1.01-1.56,2.58-3.11,5.15-4.67,7.73l.86-.5c-23.33.02-46.67-.03-70,0-1.29,0-1.29,2,0,2,23.33,0,46.66,0,70,0,.83-.05,1.23-1.09,1.61-1.72,1.31-2.17,2.62-4.34,3.93-6.5-.58-.34-1.15-.67-1.73-1.01-1.61,2.66-3.28,5.3-4.83,8-4.34,8.56-3.73,18.73-3.35,28.06,1.19,17.83,4.49,35.5,8.58,52.87l.46-1.13c-20.16,8.18-50.86,4.2-71.9-.1l.7,1.23c10.22-25.14,13.68-56.18-1.69-79.97-.33-.48-.67-1.01-1.07-1.43-.82-.99-2.23.43-1.41,1.41h0Z"/><g id="bikini"><path class="cls-2" d="m100.08,185.1c18.64,3.06,38.03,3.21,56.46-1.23,1.25-.31.72-2.24-.53-1.93-18.06,4.37-37.13,4.16-55.4,1.23-1.26-.24-1.8,1.69-.53,1.93h0Z"/><path class="cls-2" d="m127.94,186.96c-1.95-3.62-5.8-15.82,5.41-14.83l.24.05c.09.03,2.29.83,2.69,3.16.75,2.97-3.18,7.71-8.34,11.62Zm4.19-12.89c-5.8-.25-4.78,5.96-3.4,9.66,5.62-4.88,6.98-8.17,4.29-9.62-.31-.03-.61-.04-.89-.04Z"/><path class="cls-2" d="m127.44,186.54c-2.72-.6-15.49-5.32-10-12.99l.17-.19c.08-.06,1.93-1.58,4.17-.7,3.08.97,5.03,7.19,5.65,13.88Zm-8.46-11.7c-3.04,4.24,2.65,7.37,6.05,8.79-1.23-7.5-3.36-10.4-6.05-8.79Z"/><path class="cls-2" d="m135.04,202.47c2.68-6.6-1.79-13.31-6.77-17.43-.43-.34-.81-.09-1.16.24-2.04,1.93-3.88,4.12-5.54,6.38-4.04,5.25-8.2,14.56-.49,18.59,1,.55,2.28-2.16,1.22-2.74-2.18-1.1-3.71-3.23-3.6-5.44,0,.09,0,.11,0,.1,0-.42.05-.85.11-1.25.02-.17.23-1.05.39-1.52.03-.09.16-.47.03-.1,1.81-4.66,4.92-8.31,8.61-12.02l-1.16.24c3.88,3.37,8.4,8.52,6.89,14.03-.16.5.1-.25-.09.25-.79,1.85.75,2.49,1.56.7h0Z"/></g><g id="arme"><path class="cls-6" d="m212.26,78.13c8-3,11-20,11-20,0,0,.61-.08-3.62-6.86s-3.39-9.32-3.39-9.32c2.54-4.24,9.32,6.78,9.32,6.78-3.39-22.03,3.16-17.69,5.08-4.24,6.27-30.17,9.37-5.5,5.08,1.02,8.47-12.88,10.17-9.49,10.17-9.49,1.69,4.24-6.57,13.88-5.08,12.71,11.86-9.32,10.42-1.15,3.39,4.24-2.08,1.59-8.73,7.17-9.95,8.17,0,0-8.98,32.76-19.99,33.88"/><path class="cls-2" d="m212.52,79.09c7.3-3.06,10.14-13.6,11.7-20.7l-.7.7c1.44-.49.45-2.28-.02-3.18-2.14-4.39-6.09-8.53-6.32-13.56,0-.33-.04.17,0-.01,0-.02.03-.09.02-.11-.01-.04-.03.14-.05.15.04-.02.07-.12.1-.15-.15.13.03-.02.06-.05.03-.04.08-.07.11-.11-.02.02-.17.13-.03.02.07-.05.32-.14.07-.06.09-.03.17-.05.26-.07-.24.05,0,0,.11.01.24.01-.15-.05.09.01.1.03.2.05.3.08,2.73,1.42,4.73,4.55,6.46,7.15.63,1.02,1.99.31,1.83-.77-.6-4.12-1.2-8.32-.79-12.48,0,.06,0,.08,0,.07.07-.52.18-1.03.36-1.52,0-.02-.11.18,0,.01.05-.08.1-.17.14-.25.06-.14,0-.01-.05.06.03-.04.07-.08.11-.11.15-.13-.22.14,0,.01.12-.07-.25.09-.12.05.05-.01.2-.04-.01,0s-.06.01,0,.01c.14,0-.28-.05-.14-.02.25.05-.05-.06.01,0,.06.05.14.09.21.13,0,0-.17-.17-.04-.03.12.11.23.23.34.35.03.03.15.19.05.06,1.83,2.73,2.58,6.59,3.12,9.97.14.98,1.74.92,1.93,0,1.06-4.61,1.78-9.57,4.24-13.69-.13.18-.06.06.03-.03s.18-.18.28-.27c-.09.08-.2.13-.05.05.2-.11-.11.03-.06.01.29-.07-.25-.01,0,0,.13,0-.32-.06-.12-.01.13.03-.27-.14-.08-.03.15.09-.2-.2.03.03.08.08.09.19-.04-.06.11.15.18.31.27.48.05.11-.08-.24,0-.01.22.59.35,1.21.44,1.83.02.1.04.31.01.09.39,3.65.2,7.4-1.11,10.84.04-.1.04-.1.03-.07-.18.43-.36.75-.59,1.11-.7,1.08,1.02,2.08,1.73,1.01,2.05-3.06,4.14-6.21,6.96-8.61.2-.16.68-.49,1.06-.67.23-.13-.18.04.09-.03.08-.02.16-.05.23-.07.21-.06.15.01,0-.01.19.03.44.01.11-.03.04,0,.1.01.13.03.19.09-.25-.12-.1-.04.25.12-.05-.06-.02-.03.23.2-.13-.2-.01-.03-.15-.21-.03-.07.01.11.07.27.07.29.07.43-.13,4.17-3.12,7.45-5.15,10.86-.82,1.19.17,2.52,1.45,1.59,2.08-1.54,4.67-3.65,6.97-4.03.06,0,.13,0,.19,0,.18,0-.08-.06,0,0,.03.02.11.03.15.04-.09-.03-.2-.09-.06-.02s-.15-.16-.06-.05c.13.15-.04-.08-.03-.05.11.24-.06-.2.03.06.01.04.04.22.01.04s0,.04,0,.09c0,.06,0,.12,0,.18,0,.18.04-.2,0-.01-.11.49-.23.85-.45,1.27-1.92,3.69-5.68,5.91-8.77,8.55-1.74,1.43-3.46,2.87-5.19,4.31-.6.4-.99.94-1.1,1.66-1.31,4.47-2.83,8.88-4.57,13.2-2.67,6.2-6.71,16.06-12.99,18.94-.41.18-1.06.29-1.27.33-1.33.09-1.31,1.97,0,2,10.75-1.43,18.13-25.34,20.95-34.61l-.26.44c2.91-2.39,5.78-4.83,8.72-7.19,2.66-2.04,5.6-4.5,6.72-7.82.64-1.59-.13-3.47-2.05-3.33-3.13.39-5.69,2.67-8.14,4.44.05-.1.66-.09.7-.08l.44.26h0c.09.14.17.29.26.44.04.11.07.61-.08.67,2.24-3.78,5.77-7.69,5.58-12.36-.1-.97-.4-1.89-1.43-2.17-3.87-.73-8.76,7.48-10.81,10.31l1.73,1.01c2.12-3.66,2.26-8.2,2.01-12.33-.08-3.85-2.49-7.36-5.13-2.55-1.94,4.13-2.81,8.66-3.8,13.09h1.93c-.31-2.59-2.66-14.69-6.86-11.27-1.04,1.19-1.08,3.18-1.13,4.67-.13,3.8.41,7.63.98,11.38l1.83-.77c-1.65-2.57-3.47-5.14-5.87-7.07-.85-.65-1.9-1.27-3.01-1.16-1.86.22-2.7,1.79-2.29,3.54.64,5.12,5.71,11,7.04,14.47,0,.21.04-.21.03-.16.08-.3.35-.61.68-.67-.31.06-.64.39-.7.7-1.41,6.39-3.91,16.29-10.3,19.3-1.25.43-.74,2.25.53,1.93h0Z"/><path class="cls-6" d="m40.64,78.02c-8.17-2.51-12.19-19.3-12.19-19.3,0,0-.62-.05,3.2-7.07,3.82-7.02,2.82-9.51,2.82-9.51-2.79-4.07-8.89,7.33-8.89,7.33,2.05-22.2-4.23-17.47-5.33-3.92-8.09-29.73-9.69-4.92-5.01,1.33-9.24-12.34-10.73-8.86-10.73-8.86-1.43,4.33,7.4,13.46,5.85,12.38-12.41-8.58-10.48-.52-3.13,4.43,2.17,1.46,9.15,6.62,10.43,7.55,0,0,10.95,32.15,22.01,32.6"/><path class="cls-2" d="m40.91,77.05c-6.03-2.21-9.06-10.83-10.92-16.53-.45-.93-.22-2.67-1.54-2.8.58.07.95.48.96.9.55-2.96,10.03-15.92,4.43-18.21-3.69-1.22-7.56,5.91-9.13,8.56l1.86.5c.31-3.44.56-6.92.33-10.37-.11-1.61-.21-3.62-1.14-5.01-4.48-4.59-6.44,8.81-6.52,11.46l1.96-.27c-.84-2.65-4.04-16.84-7.94-14.85-1.32.71-1.48,2.75-1.58,4.05-.14,4.34.24,9.18,2.68,12.9.58-.34,1.15-.67,1.73-1.01-2.18-2.78-7.36-10.26-11.19-9.76-.7.15-1.22.62-1.41,1.31-.71,2.57,1,5.48,2.3,7.56,1.15,1.9,2.6,3.61,3.86,5.41-.14-.11-.09-.66-.08-.69l.26-.44h0c.15-.08.29-.17.44-.25.13-.05.7.02.68.07-2.19-1.42-7.62-5.47-10.04-3.34-.59.61-.61,1.51-.41,2.28,1.5,4.62,6.26,7.05,9.92,9.78,2.25,1.63,4.49,3.29,6.74,4.93l-.46-.6c3.31,8.98,12.27,32.58,22.97,33.34,1.29.06,1.28-1.94,0-2-.16,0-.33-.02-.49-.04.25.03-.23-.04-.3-.06-.36-.08-.71-.19-1.05-.32-.03,0-.29-.12-.08-.03-8.03-4.06-13.68-18.04-17.13-26.12-.7-1.75-1.31-3.53-1.99-5.29-.23-.6-.98-.99-1.49-1.36-2.76-2.02-5.51-4.06-8.3-6.04-2.43-1.73-4.97-3.51-6.28-6.3.1.23-.04-.13-.06-.19-.04-.13-.07-.26-.11-.39-.02-.08,0-.27,0,.02,0-.02,0-.22,0-.23v-.05c.01-.11,0-.07-.02.11,0,0,.03-.13.03-.14.05-.17-.13.21-.03.07.09-.13.07-.02-.06.06.25-.16-.15.1.05-.04.14-.1-.23.05-.05.02.07-.01.15-.04.22-.05-.35.08.27-.02.42.03,1.3.21,3.56,1.4,4.99,2.35,1,.47,2.16,2.11,3.31,1.2.96-.96-.81-2.59-1.35-3.31-1.91-2.78-4.52-5.69-4.52-9.24-.03.23.02-.07.03-.1.02-.19.12-.2-.02-.03.18-.2-.23.21,0,0,.14-.13-.28.17-.04.04.14-.08-.29.06.04,0,.22-.04-.25-.04-.08.01.05.02.13-.01.18,0,.26.06-.24-.08-.02,0,.18.05.37.09.55.16.18.06-.23-.11-.05-.02.46.22.9.49,1.31.8.02.01.25.19.08.06,2.73,2.22,4.9,5.04,7.03,7.82.32.43.86.65,1.37.36,1.25-.9-.22-1.92-.53-2.93-1.35-3.45-1.81-7.18-1.45-11.01,0,.08-.01.1,0,.09.06-.47.18-.95.31-1.36.1-.32-.11.14.06-.15.11-.27.3-.32.04-.11.14-.11.23-.17,0-.04.05-.03.2-.09,0-.02-.25.1.19,0-.09.02.02,0-.25-.04-.11,0,.18.06-.17-.11-.09-.04.05.05.19.1.23.14,0,0-.2-.18-.1-.08.17.15.32.32.47.5,2.19,3.38,3.57,8.77,4.81,13.06.31,1.14,1.87.82,1.96-.27.37-3.45.77-7.16,2.63-10.14-.09.13-.04.04.08-.09.07-.07.15-.14.22-.21-.2.22.04-.02.04-.02,0-.01.24-.11,0,0-.18.08-.04.02,0,0,.19-.04-.3,0-.03.01.06,0-.3-.05-.14-.02s-.05-.01-.1-.05c.03.02.06.03.09.05.02.01-.06-.12-.07-.06,0,0,.28.39.05.03.05.08.11.16.16.25.05.09.19.45.09.18,1.31,4.51.62,9.37.32,13.98-.09,1,1.41,1.35,1.86.5,1.66-2.74,3.33-6.13,6.28-7.67.04-.01.34-.07.19-.05s.14,0,.18,0c.04,0,.19.03.04,0-.18-.03.05,0,.07.03.07.07-.12-.06.08.04.23.11,0-.04.1.06.08.07.22.21.21.21-.05.01-.03-.24-.06-.18,0,0,.08.7.05.14.06,4.88-3.23,8.9-5.13,13.18-.43.92-2.02,3.74.02,3.98l-.96-.73c1.99,7.02,5.43,17.3,12.89,19.99,1.23.39,1.76-1.54.53-1.93h0Z"/></g><g id="hår"><path class="cls-3" d="m118.76,2.13s112-23,95,153l-5-7-4.03,7-6.97-9-3,11-6-10-1,8-7-4-5,8c-10.39-6.11-7.17-14.04-16-3l-5-6-1,7s-9-5-6-9-5.54,11-5.54,11c0,0-8.46-2-11.46-10,0,0,2,7-9,12,0,0,2-14.16-3-14.08,0,0,5,5.51,0,10.3,0,0-3-2.22-6-9.22,0,0-8,5-6,11,0,0-7-8-6-11,0,0,0,9-4,11l-4-9s0,5-3,6c0,0-6-3-6-10v11.58s-7-.58-7-14.58c0,0-3,9.76,0,12.38,0,0-7-.38-8-10.38l-4,12s-8-7-7-11l-1,9s-6-4-5-10c0,0-3.56,4.4-3,11C40.39,138.42,6.84,11.99,118.76,2.13Z"/><path class="cls-2" d="m119.02,3.09c86.83-11.39,102.38,86.03,93.73,152.04l1.86-.5c-1.67-2.33-3.33-4.67-5-7-.42-.59-1.33-.7-1.73,0-1.34,2.33-2.68,4.67-4.03,7l1.57-.2c-2.32-3-4.65-6-6.97-9-.48-.62-1.49-.22-1.67.44-1,3.67-2,7.33-3,11l1.83-.24c-2-3.33-4-6.67-6-10-.55-.92-1.75-.43-1.86.5-.33,2.67-.67,5.33-1,8,.5-.29,1-.58,1.5-.86-2.33-1.33-4.67-2.67-7-4-.48-.27-1.08-.1-1.37.36-1.67,2.67-3.33,5.33-5,8l1.37-.36c-8.84-4.67-7.88-15.16-17.21-2.84h1.41c-1.67-2-3.33-4-5-6-.45-.54-1.57-.28-1.67.44-.33,2.33-.67,4.67-1,7,.49-.2.98-.4,1.47-.6-2.21-1.31-8.26-5.2-5.28-8.05-.29.58-1.74-1.19-1.55-.47-.03-.1-.03-.41-.01-.43,0,0-.01.07-.02.06.02.03-.2.49-.05.14-1.81,3.8-3.96,7.43-6,11.11l1.13-.46c-4.68-1.12-9.02-4.78-10.76-9.3-.6-1.3-2.44-.64-1.87.83.02.08.03.28,0-.06.6,5.17-4.41,8.8-8.6,10.64l1.47,1.13c.4-4.03,1.9-14.92-3.96-15.35-.9,0-1.27,1.08-.71,1.71.27.3.26.31.55.73,1.84,2.54,1.85,5.95-.55,8.15l1.21-.16c-1.99-1.69-4.41-5.81-5.64-8.86-.21-.49-.95-.62-1.37-.36-3.93,2.47-8.02,7.19-6.46,12.13.56-.32,1.11-.65,1.67-.97-1.97-2.31-3.83-4.76-5.18-7.48-.38-.81-.76-1.89-.57-2.54l-1.96-.27c0,1.44-.16,2.9-.43,4.32-.4,2.06-1.06,4.76-3.07,5.82l1.37.36c-1.33-3-2.67-6-4-9-.42-.95-1.86-.42-1.86.5,0,1.65-.45,4.37-2.27,5.04l.77.1c-3.33-1.68-5.47-5.41-5.5-9.14-.01-1.29-2-1.29-2,0v11.58l1-1c-4.61-1.03-6.16-8.64-6-13.58,0-1.14-1.64-1.34-1.96-.27-.94,3.72-2.79,10.3.26,13.35.24-.57.47-1.14.71-1.71-4.18-.49-6.71-5.11-7-9.38-.12-1.1-1.59-1.39-1.96-.27-1.33,4-2.67,8-4,12l1.67-.44c-2.28-2.07-4.47-4.35-5.99-7.05-.47-.88-.97-1.99-.75-2.98l-1.96-.27c-.33,3-.67,6-1,9,.5-.29,1-.58,1.5-.86-2.64-1.9-5.11-5.31-4.54-8.87.13-.85-.97-1.85-1.67-.97-2.56,3.2-3.6,7.69-3.29,11.71l1.86-.5c-.17-.36-.33-.71-.48-1.08-.06-.15-.05-.13,0,.02C26.25,89.23,35.49,9.19,118.76,3.13c1.27-.11,1.28-2.11,0-2C34.68,5.71,23,91.59,47.89,156.63c.42.89,1.94.46,1.86-.5-.39-3.47.87-7.88,2.71-10.29l-1.67-.97c-.67,4.42,1.83,8.7,5.46,11.13.69.47,1.43-.17,1.5-.86.33-3,.67-6,1-9,.12-1.12-1.72-1.36-1.96-.27-.64,2.83,1.48,5.64,3.15,7.69,1.24,1.53,2.62,2.98,4.11,4.28.58.51,1.42.3,1.67-.44,1.33-4,2.67-8,4-12l-1.96-.27c.38,5.11,3.39,10.87,9,11.38.86.05,1.33-1.13.71-1.71-.72-.66-.92-1.69-1-2.63-.19-2.97.44-5.94,1.26-8.78l-1.96-.27c-.02,5.57,1.22,14.4,8,15.58.54.05,1-.5,1-1v-11.58h-2c.02,4.49,2.57,8.71,6.49,10.86.86.38,1.88-.35,2.48-.95,1.47-1.55,1.99-3.82,2.03-5.92-.62.17-1.24.34-1.86.5,1.33,3,2.67,6,4,9,.23.51.93.59,1.37.36,3.88-2.33,4.28-7.77,4.5-11.86,0-1.14-1.64-1.34-1.96-.27s.01,2.3.44,3.34c1.39,3.2,3.58,5.99,5.82,8.64.66.75,1.96-.04,1.67-.97-1.28-4.05,2.43-7.91,5.54-9.87l-1.37-.36c.57,1.58,5.59,11.39,7.57,9.42,3.46-3.13,3.05-8.44,0-11.71l-.71,1.71c3.39.38,2.3,10.37,2.02,12.92-.03.23.03-.24.01-.11-.12.89.63,1.52,1.47,1.13,5.05-2.21,10.72-7.01,9.46-13.13l-1.93.53c1.98,5.15,6.73,9.4,12.16,10.7.43.1.91-.07,1.13-.46,1.87-3.29,3.76-6.58,5.45-9.96.29-.58.66-1.2.81-1.83.29-1.18-1.03-1.78-1.84-.98-2.03,2.01-1.43,4.64.2,6.67,1.47,1.82,3.51,3.32,5.55,4.46.5.28,1.37.07,1.47-.6.33-2.33.67-4.67,1-7l-1.67.44c1.67,2,3.33,4,5,6,.32.38,1.1.39,1.41,0,1.54-1.81,2.95-3.98,5.06-5.17.12-.05.35-.07.47-.03.21.06,0-.05.25.12s.11.05.32.24c2.62,2.96,5.15,6.07,8.68,7.99.47.28,1.08.1,1.37-.36,1.67-2.67,3.33-5.33,5-8-.46.12-.91.24-1.37.36,10.32,5.68,7.79,6.59,9.5-4.86-.62.17-1.24.34-1.86.5,2,3.33,4,6.67,6,10,.44.73,1.6.6,1.83-.24,1-3.67,2-7.33,3-11l-1.67.44c2.32,3,4.65,6,6.97,9,.4.52,1.28.3,1.57-.2,1.34-2.33,2.68-4.67,4.03-7h-1.73c1.67,2.33,3.33,4.67,5,7,.59.83,1.77.5,1.86-.5C222.89,86.41,208.48-9.31,118.49,1.16c-1.26.26-.73,2.19.53,1.93Z"/><g class="cls-1"><path class="cls-2" d="m138.76,10.13c.06,0,.31.04.13.02,45.26,8.37,65.21,52.13,65.37,94.48.02.64,1.02.64,1,0-.18-7.9-.87-15.79-2.24-23.58-4.95-33.79-29.06-66.48-64.26-71.92-.64-.07-.63.93,0,1h0Z"/></g><g class="cls-1"><path class="cls-2" d="m168.9,116.05c-16.03-10.47-22.31-30.75-23.43-49.02-.04-.64-1.04-.64-1,0,1.13,18.62,7.57,39.26,23.92,49.88.57.3,1.07-.56.5-.86h0Z"/></g><g class="cls-1"><path class="cls-2" d="m102.01,141.43c-9.14-5.93-12.67-17.54-13.33-27.93-.04-.64-1.04-.64-1,0,.66,10.75,4.36,22.66,13.83,28.79.57.3,1.07-.56.5-.86h0Z"/></g><g class="cls-1"><path class="cls-2" d="m76.3,131.38c-9.94-16.43-6.6-37.49.36-54.44.25-.59-.72-.85-.96-.27-7.09,17.21-10.3,38.52-.26,55.21.38.52,1.24.02.86-.5h0Z"/></g><g class="cls-1"><path class="cls-2" d="m49.21,119.23c-1.99-38.11,7.53-90.38,48.41-104.41.6-.21.34-1.18-.27-.96-41.77,14.8-50.89,66.05-49.15,105.23-.09.71,1.04.89,1.01.15h0Z"/></g><g class="cls-1"><path class="cls-2" d="m186.03,123.6c5.2,4.6,6.6,12.76,5.94,19.6-.05.64.95.64,1,0,.59-7.13-.66-15.58-6.44-20.47-.52-.38-1.02.48-.5.86h0Z"/></g><g class="cls-1"><path class="cls-2" d="m133.56,30.73c18.09,6.25,29.13,24.4,34.66,41.84.19.61,1.16.35.96-.27-5.64-17.77-16.91-36.23-35.36-42.54-.62-.15-.89.81-.27.96h0Z"/></g><g class="cls-1"><path class="cls-2" d="m103.66,104.26c-7.84-24.21-1-52.1,9.46-74.99.27-.58-.59-1.09-.86-.5-10.55,23.35-17.59,50.9-9.46,76,.25.59,1.11.08.86-.5h0Z"/></g><g class="cls-1"><path class="cls-2" d="m141.33,127.2c-5.85-4.16-7.87-11.98-8-18.84-.01-.64-1.01-.64-1,0,.15,7.15,2.27,15.43,8.5,19.71.56.33,1.06-.54.5-.86h0Z"/></g></g><g id="ben"><path class="cls-6" d="m123.18,344.62s4.78,45.25,1.32,50.99c-1.86,3.09-18.03-.18-23.38-7.95,0,0-3.36-7.86,6.87-6.86,0,0-.41-40.31-4.01-40.31"/><path class="cls-2" d="m122.18,344.62c1.37,15.78,3.35,31.71,2.21,47.56-.09.69-.29,1.87-.62,2.69.12-.34.04-.08,0,0-.05.09-.1.19-.16.28-.08.15.18-.17.01-.02-.07.06-.33.24-.07.08-.14.08-.28.18-.43.24-5.67,1.46-17.04-2.59-21.08-8.18-.25-.27.03.17.02.11-.18-.48-.33-.98-.41-1.49-.01-.07-.05-.43-.02-.11-.05-.46-.07-.92-.01-1.38,0,.03-.04.23,0,.05.05-.29.12-.57.23-.85-.03.08-.03.09-.02.07.09-.21.2-.41.32-.57.15-.22-.14.15.04-.05.22-.25.45-.44.57-.52.1-.08.56-.31.55-.31,1.47-.61,3.13-.56,4.69-.41.54.05,1.01-.5,1-1-.11-8.57-.39-17.14-1.01-25.69-.43-4.59-.59-9.34-2.04-13.74-.35-.87-.89-1.86-1.96-1.88-1.29-.03-1.29,1.97,0,2,.18,0-.32-.07-.11-.01.05.01-.29-.15-.09-.03.1.06-.26-.2-.08-.06.1.08.18.29,0-.02.12.19.24.38.33.59.1.19-.08-.23.03.07,1.3,4.09,1.49,8.23,1.88,12.59.67,8.7.92,17.44,1.05,26.17.33-.33.67-.67,1-1-2.08-.19-4.53-.18-6.32,1.05-3.22,2.23-2.43,7.23.39,9.47,4.44,4.55,15.93,9.07,22.08,6.86,5.74-1.45.54-45.49.04-52.55-.08-1.31-1.96-1.33-2,0h0Z"/><path class="cls-6" d="m148.73,359.71s-1.69,31.02,2.67,36.12c2.34,2.74,18.05-1.25,22.07-9.78,0,0,2.03-8.3-7.9-5.65,0,0-.26-31.88,1.58-31.98"/><path class="cls-2" d="m147.73,359.71c-.38,10.1-.81,20.35.7,30.38.33,2.02.72,4.38,1.96,6.08,1.42,1.94,4.39,1.62,6.48,1.32,6.68-1.17,13.84-4.45,17.28-10.57.65-1.27.61-2.98.26-4.33-1.06-4.04-5.78-4.16-9.11-3.14l1.27.96c0-9.19-.12-18.41.61-27.58.14-1.44.18-2.3.59-3.7-.05.21-.09.11.04-.05.08-.1-.21.24-.08.11-.16.17-.32.21-.58.23,1.32-.08,1.31-1.97,0-2-1.62.16-1.67,2.64-1.81,3.84-.91,9.68-.74,19.43-.76,29.14,0,.66.63,1.13,1.27.96,2.08-.55,4.9-.99,6.18.68-.02-.03-.12-.17-.02-.02.12.19.23.38.33.58.11.22-.05-.15,0,0,.3.81.36,1.46.29,2.47-.01.14-.08.59-.02.22-.03.17-.05.33-.09.5-3.2,6.03-12.45,10.17-19.07,9.86-.33-.06-.66-.13-.98-.25.02,0,.21.11.07.03-.07-.04-.14-.08-.21-.11-.16-.08-.13-.11-.04-.02-.05-.05-.11-.11-.16-.16-.19-.17.09.14-.03-.04-.23-.31-.53-.93-.6-1.1-2.26-6.95-1.97-14.55-2.06-21.88.02-4.14.22-8.27.32-12.4.07-1.29-1.93-1.28-2,0h0Z"/><g class="cls-1"><path class="cls-2" d="m129.94,396.6c.8,1.87-.72,3.33-2.78,3.89-1.74.53-3.59.64-5.4.66-.64,0-.64,1.01,0,1,3.6.08,10.96-.86,9.05-6.05-.29-.57-1.16-.07-.86.5h0Z"/></g><g class="cls-1"><path class="cls-2" d="m145.85,398.85c.05,5.47,7.24,3.75,10.55,2.49.6-.21.34-1.18-.27-.96-1.56.55-3.18,1.05-4.84,1.22-1.72.24-4.23-.12-4.44-2.21,0,.05.01.06,0,.05-.02-.2-.03-.4-.01-.58.08-.64-.92-.63-1,0h0Z"/></g><g class="cls-1"><path class="cls-2" d="m96.46,382.31c.16.2.05.06.02.01-.05-.08-.09-.16-.13-.24-.02-.05-.04-.14.01.04-.07-.16-.1-.32-.14-.49-.02-.08,0,.14,0,.05-.02-.15-.01-.29,0-.44-.03.27.04-.24.09-.3.04-.11-.05.09.03-.06.07-.12.14-.25.22-.36.07-.09-.07.09,0,0,.16-.19.35-.37.54-.52,1.07-.8,2.85-1.31,4.32-1.59.63-.18.37-1.12-.27-.96-1.89.42-4.02.9-5.34,2.42-.75.9-.8,2.22-.07,3.15.47.46,1.15-.22.71-.71h0Z"/></g><g class="cls-1"><path class="cls-2" d="m178.33,382.32c2.17-3.37-2.83-5.17-5.42-5.57-.63-.16-.89.79-.27.96,1.46.28,3.25.79,4.32,1.59.54.46.78.71.9,1.33-.04-.17,0-.03,0,.03,0,.08,0,.16,0,.24,0,.05-.04.2,0,.01-.01.17-.12.34-.14.51.01-.12.05-.1,0-.02-.03.07-.07.14-.11.2-.03.06-.16.22,0,.01-.44.49.24,1.16.71.71h0Z"/></g></g><g id="nederdel"><path class="cls-7" d="m91.76,228.29s-8.5,61.83-6.5,78.83c0,0-7.13,48.25,118.44,72.13,0,0-11.4-30.89-14.25-48.94-3.19-20.19-18.85-103.85-25.02-102.02-6.17,1.83-31.17,12.17-72.67,0Z"/><g id="sløjfe"><path class="cls-2" d="m168.31,233.59c21.36,23.47,39.55,4.94,22.93-2.7,0,0-12.18-5.63-24.2.74,0,0,24.17-1.74,21.44,7.35,0,0-1.85,5.06-20.6-5.6"/><path class="cls-2" d="m188.78,246.07c-5.62,0-13.16-3.03-21.04-11.62-.12-.07-.23-.13-.35-.2l.96-1.7c-.89.03-5.03.35-5.97.41l4.19-2.22c12.18-6.46,24.56-1,25.08-.77,11.07,4.81,8.26,16.03-2.87,16.09Zm-14.7-8.32c16.51,14.11,31.24,1.05,16.74-5.95-.41-.18-8.73-3.86-18.16-1.32,6.46.19,18.75.86,16.78,8.78-2.01,3.68-8.75,1.51-15.35-1.51Zm-5.64-5.2c15.79,8.96,18.85,6.33,19.11,6.04,1.52-6.41-14.12-6.16-19.11-6.04Zm19.14,5.96l-.02.07s.01-.01.01-.02v-.05Z"/><path class="cls-2" d="m169.86,236.85c-3.82,24.11,16.06,26.11,12.65,12.46,0,0-2.48-10.02-12.08-14.17,0,0,12.67,13.67,5.9,16.41,0,0-3.92,1.32-6.55-15.06"/><path class="cls-2" d="m178.37,258.53c-7.14-.63-11.12-9.1-9.3-21.61-.02-.1-.03-.2-.05-.3l1.48-.24c-.45-.52-2.63-2.85-3.12-3.39l3.35,1.45c12.7,5.64,17.57,23.43,7.64,24.09Zm-8.23-16.21c-.1,7.58,2.56,12.06,5.46,13.83,4.73,2.69,7.67-1.44,6.16-6.65h0c-.09-.34-1.89-7.1-7.94-11.54,2.99,4,8.51,11.61,2.8,14.3-3.18.57-5.12-4.52-6.48-9.95Zm.41-5.89c2.22,13.79,5.27,14.35,5.57,14.37,4.58-2.18-3.1-11.44-5.57-14.37Z"/><path class="cls-2" d="m173.3,255.37c2.52,3.98,4.54,7.76,5.69,12.26-.02-.09-.03-.11-.02-.1.19.85.3,1.68.32,2.53,0-.21,0-.25,0-.13-.04.33,0,.7-.09,1.02-.17.36.17-.63.02-.14-.66,2.59-1.19,5.24-1.35,7.91-.1,1.85-.17,4.18,1.01,5.74.47.63,1.26.88,1.92,1.26.62.36,1.22.76,1.79,1.18.04.03.29.22.04.03,3.25,2.34,6.01,6.53,6.61,9.98.26,1.3.38,2.78.31,4.04-.03.69.25,1.62,1.13,1.29.83-.31,1.45-1.49,1.49-2.33.58-7.88-4.3-15.53-10.86-18.38-.18-.15-.3-.35-.44-.53.22.31-.07-.18-.12-.33-.06-.18-.11-.36-.16-.54.03.13.04.16.04.14-.36-1.99-.07-4.04.37-6.6-.13.61.04-.22.08-.38.24-1.16.6-2.32.76-3.49.33-2.39-.27-4.87-1.04-7.12-1.27-3.72-3.19-7.32-5.37-10.59-.51-.76-1.57.25-1.85.71-.45.73-.8,1.79-.27,2.57h0Z"/><path class="cls-2" d="m180.17,257.75c3.96,2.5,8.67,6.02,9.97,10.74-.09-.35,0,.05.01.1.03.2.06.4.08.61.01.13-.01.76.02.29-.02.25-.05.49-.07.74-.03.32,0-.06.02-.11-.05.21-.1.42-.16.62-.13.45.18-.44,0,0-2.2,8.3.66,18.98,10.17,20.72.87.18,1.55-.62,1.85-1.36.19-.45.64-2.11-.23-2.29-5.26-.87-8.54-4.85-9.36-9.06-.31-1.44-.44-2.92-.45-4.39,0-.27,0,.17,0,.18.01-1.22.1-2.45.3-3.66.02-.21-.12.58-.08.42s-.27.66-.07.24c3.04-7.58-4.58-13.92-10.38-17.44-1.39-.61-2.97,2.95-1.63,3.65h0Z"/></g><g id="blomst"><path class="cls-5" d="m118.53,258.79s2.23-8.44,11.06-10.25c0,0,6.43,5.9,3.34,14.71,0,0,7.16-2.57,14.41,4.46,0,0-1.97,7.99-11.07,10.25,0,0,6.43,5.9,3.34,14.71,0,0-7.59,2.28-14.41-4.47,0,0-2.23,8.44-11.06,10.25,0,0-6.43-5.9-3.34-14.71,0,0-7.88,2.73-14.41-4.46,0,0,1.69-7.55,10.85-10.39,0,0-6.21-5.76-3.12-14.57,0,0,7.59-2.28,14.41,4.47Z"/><path class="cls-4" d="m124.99,262.25s2.06,6.26-2.97,11.42c0,0,4.37-4.39,11.49-2.61,0,0-4.32,4.6-11.33,3.12,0,0,6.37,1.83,7.96,8.66,0,0-6.22-1.31-8.37-8.15,0,0,1.59,6.47-3.51,11.12,0,0-2.07-5.46,2.84-11.31,0,0-4.34,4.25-11.36,2.5,0,0,4.27-4.64,11.35-3.13,0,0-6.48-1.85-7.98-8.65,0,0,5.97.94,8.46,8.28,0,0-1.82-6.13,3.42-11.26Z"/></g><g class="cls-1"><path class="cls-2" d="m96.93,242.21c5.88,3.31,12.75,4.95,19.49,4.61.64-.04.64-1.04,0-1-6.55.35-13.28-1.23-18.98-4.47-.55-.34-1.05.53-.5.86h0Z"/></g><g class="cls-1"><path class="cls-2" d="m92.52,306.28c-.3,6.74,1.33,13.61,4.67,19.48.32.56,1.18.05.86-.5-3.25-5.69-4.86-12.42-4.53-18.97.05-.64-.95-.64-1,0h0Z"/></g><g class="cls-1"><path class="cls-2" d="m182.73,333.3c1.1,8.4,2.61,16.83,5.41,24.85.94,2.64,2.04,5.29,3.67,7.59.37.52,1.24.02.86-.5-2.98-4.38-4.4-9.61-5.75-14.67-1.19-4.73-2.09-9.54-2.8-14.36-.15-.99-.28-1.91-.39-2.9-.07-.63-1.07-.64-1,0h0Z"/></g><path class="cls-2" d="m91.08,232.15s36.41,17.37,76.65-.17c0,0-1.56-4.63-3.24-3.32,0,0-29.78,10.37-72.67-.74l-.74,4.24Z"/><g id="blomst-2"><path class="cls-5" d="m123.75,340.57c4.5-6.61,1.49-12.5,1.49-12.5-7.7-1.2-11.49,4.77-11.49,4.77-3.72-7.09-10.17-7.33-10.17-7.33-4.92,6.45-1.48,12.51-1.48,12.51,5.94,4.97,23.48,23.49,31.74,10.09-2.83-6.97-10.09-7.53-10.09-7.53Z"/><path class="cls-4" d="m112.13,345.29c5.65-3.16,5.52-8.2,5.52-8.2-5.36,2.26-5.9,7.86-5.9,7.86.17-6.04-4.29-8.84-4.29-8.84-.37,6.03,3.77,8.95,3.77,8.95-1.37-.78.83.63.83.63,5,3.35,9.82.71,9.82.71-5.01-3.52-9.76-1.1-9.76-1.1Z"/></g><g id="blomst-3"><path class="cls-5" d="m181.37,284.86c-.89-3.09-1.12-6.31-1.73-9.46-.63-3.42-1.83-6.8-2.55-10.22-2.54-5.69-6.65-9.51-13.53-7.41-2.63,7.55,2.77,13.08,2.77,13.08-8.23,2.12-9.95,8.93-9.95,8.93,5.3,6.36,12.51,4.25,12.51,4.25-2.01,8.26,2.97,12.98,2.97,12.98,8.44-1.7,9.95-8.94,9.95-8.94-.13-.85-.26-1.93-.41-3.14,0-.03-.02-.05-.03-.08Z"/><path class="cls-4" d="m178.9,275.23c-6.72-1.44-10.15,2.68-10.15,2.68,5.86,1.95,10.22-2.14,10.22-2.14-4.37,4.7-2.78,10.06-2.78,10.06,4.53-4.55,3.26-9.78,3.26-9.78.55,1.59-.22-1.08-.22-1.08-1.64-6.17-7.34-7.45-7.34-7.45,1.52,6.32,7.01,7.72,7.01,7.72Z"/></g><g id="blomst-4"><path class="cls-5" d="m159.14,307.52s5.15-4.62,11.79-1.98c0,0,1.7,6.7-4.18,11.2,0,0,5.86,1.41,7.61,9.22,0,0-4.78,4.44-11.79,1.97,0,0,1.7,6.7-4.18,11.2,0,0-6.02-1.79-7.6-9.22,0,0-5.15,4.62-11.79,1.98,0,0-1.7-6.7,4.18-11.2,0,0-6.41-1.62-7.61-9.22,0,0,4.4-4.27,11.7-2.16,0,0-1.61-6.51,4.27-11.01,0,0,6.02,1.79,7.6,9.22Z"/><path class="cls-4" d="m161.92,312.62s-1.36,5.04-6.93,6.27c0,0,4.81-1.01,8.75,3.27,0,0-4.86,1.17-8.86-2.86,0,0,3.42,3.98,1.51,9.2,0,0-3.55-3.57-2-9.04,0,0-1.76,4.98-7.16,5.84,0,0,1-4.51,6.8-6.25,0,0-4.72.93-8.61-3.28,0,0,4.85-1.22,8.88,2.86,0,0-3.49-4.04-1.53-9.2,0,0,3.55,3.22,2.01,9.17,0,0,1.46-4.85,7.16-5.97Z"/></g><g id="blomst-5"><path class="cls-5" d="m177.98,365.16c1.45-5.87-2.24-9.25-2.24-9.25-5.78,1.17-6.89,6.4-6.89,6.4-4.5-4.05-9.14-2.52-9.14-2.52-1.79,5.87,2.24,9.25,2.24,9.25,5.51,1.96,22.82,10.48,25.15-1.2-3.84-4.2-9.13-2.68-9.13-2.68Z"/><path class="cls-4" d="m170.98,371.57c3.17-3.72,1.75-7.26,1.75-7.26-3.2,3.01-2.11,7.12-2.11,7.12-1.47-4.33-5.37-5.14-5.37-5.14,1.32,4.37,5.03,5.35,5.03,5.35-1.18-.19.75.23.75.23,4.42,1.06,7.15-2.08,7.15-2.08-4.48-1.18-7.21,1.79-7.21,1.79Z"/></g><path class="cls-2" d="m90.79,228.03c-2.94,25.89-7.74,53.43-6.5,78.83,2.89,44.79,70.32,62.07,106.51,70.78,2.62-.02,13.89,4.45,13.86,1.35-19.52-47.99-18.64-101.66-37.49-149.73-1.65-3.57-3.91-1.13-8.03-.33-18.77,3.66-37.95,5.2-56.5,1.12-1.97,0-14.87-5.12-11.15-.79,23.5,7.1,50.34,8.41,73.12,0,.28,0-.26-.06-.01,0,.27.07-.27-.11.02.02s-.07-.11.07.04c.07.08.15.14.23.22.09.09.33.41.13.14,19.21,47.7,18.12,101.88,37.69,149.84l1.23-1.23c-37.58-7.71-114.2-25.18-117.71-71.12-1.06-24.73,3.36-52.13,6.32-77.54.51-.95-.3-3.75-1.78-1.6Z"/></g></g></svg>