<?xml version="1.0" encoding="UTF-8"?><svg id="eksport" xmlns="http://www.w3.org/2000/svg" width="192" height="411" viewBox="0 0 192 411"><defs><style>.cls-1{stroke-width:2px;}.cls-1,.cls-2,.cls-3{stroke-miterlimit:10;}.cls-1,.cls-4{fill:#e5bc9c;}.cls-1,.cls-3{stroke:#38322d;}.cls-2{stroke:#f4e787;}.cls-2,.cls-5{fill:#f4e787;}.cls-6{fill:#e9eff4;}.cls-6,.cls-7{opacity:.5;}.cls-6,.cls-8,.cls-9,.cls-10,.cls-5,.cls-11,.cls-4,.cls-12,.cls-13{stroke-width:0px;}.cls-8{fill:#38322d;}.cls-9{fill:#c96;}.cls-10{fill:#fff;}.cls-11{fill:#f0ad5f;}.cls-12{fill:#fcfcfc;}.cls-13{fill:#f4e6ef;}.cls-3{fill:none;stroke-width:.5px;}</style></defs><g id="Ella"><g id="ben"><path class="cls-4" d="m106.03,394.48s.8-14.29,2.13-27.09c-1.5.39-12.69,5.08-16.99,6.12-.85,12.46-1.3,26.18.5,29.18,1.86,3.09,27.11,9.75,25.68,1.63,0,0-1.09-10.81-11.33-9.83Z"/><path class="cls-8" d="m107.03,394.48c.52-9.04,1.22-18.08,2.13-27.09.07-.66-.69-1.12-1.27-.96-4.48,1.46-8.78,3.5-13.27,4.97-1.22.42-2.45.84-3.71,1.15-.45.11-.7.53-.73.96-.47,8.75-1.3,17.59-.3,26.32.15,1.09.34,2.27.88,3.25,1.66,2.22,4.73,2.9,7.22,3.8,4.82,1.52,21.08,5.54,20.38-2.57-.54-5.21-4.22-10.33-9.73-10.81-1.07,0-3.49-.56-3.6.99,0,.5.46,1.05,1,1,6.23-.73,9.63,3.96,10.32,8.78.01.11.03.21.04.32.03.19,0-.19,0,.07.02.17.01.35,0,.52,0,.27.05-.11-.01.09-.03.11-.18.52-.06.26-.07.15-.15.28-.24.41-.06.1.14-.12-.03.03-.06.05-.12.12-.17.17-.03.03-.21.18-.09.08s-.12.08-.16.11c-4.46,2.55-18.53-1.01-22.75-3.81-.14-.12-.27-.24-.39-.37-.01,0,.11.22.06.07-.05-.11-.13-.21-.17-.33-.08-.17.04.12,0,0-1.12-3.52-.93-7.42-.95-11.11.03-5.76.36-11.51.74-17.26l-.73.96c5.82-1.54,11.29-4.19,16.99-6.12l-1.27-.96c-.93,9.01-1.6,18.05-2.13,27.09-.07,1.29,1.93,1.28,2,0Z"/><path class="cls-4" d="m133.41,352.99s-1.61,45.47,2.25,50.96c2.07,2.95,27.73,7.8,25.73-.2,0,0-1.86-10.7-12-9,0,0-.7-46.96,2.89-47.22"/><path class="cls-8" d="m132.41,352.99c.04,7.92-2.09,49.57,3.43,52.42,4.81,2.51,10.45,3.25,15.8,3.66,5.44.31,13.42-.35,10.02-7.88-1.97-5.32-6.83-8.58-12.54-7.4l1.27.96c-.05-13.83-.28-28.45,1.17-41.88.2-1.5.54-3.52,1.04-4.39.06-.13.17-.2-.03.02.04-.04.08-.09.12-.13-.05.04-.24.16-.07.06.1-.06-.27.1-.16.07.09-.03.22-.02-.17.02,1.32-.07,1.31-1.97,0-2-2.13.35-2.21,3.52-2.57,5.22-1.69,14.25-1.36,28.68-1.32,43,.01.7.63,1.07,1.27.96,4.43-.91,8.47,1.69,10.01,5.83.26.61.7,1.95.83,2.84-.04-.27,0,.11,0,.21,0,.06,0,.13,0,.19,0,.21,0,0,0,.01-.03.12-.06.23-.09.35-.04.19.04-.07.01-.02-.03.06-.06.12-.09.18-.05.09-.26.35-.08.14-.39.45-.6.57-1.17.86-.09.04-.19.09-.04.02-1.97.77-3.96.83-6.19.79-5-.15-10.02-1.01-14.73-2.78-.27-.08-1.3-.64-1.47-.78.14.11-.08-.08-.13-.12-.18-.14-.03-.03-.01,0-.15-.22-.28-.46-.38-.71-.33-.72-.91-3.59-1.01-4.62-1.59-14.89-1.05-29.92-.73-44.86.32-1.42-1.89-1.73-1.99-.27h0Z"/><g class="cls-7"><path class="cls-8" d="m90.52,406.89s-.26.1-.08.05c-.16.07-.34.11-.51.14.07-.02.08-.02.06-.02-.14.03-.28.02-.41.01-.13,0,.12.03,0,0-.08-.02-.16-.03-.24-.06-.04-.01-.21-.09-.06-.01-.13-.06-.26-.13-.38-.22-.02-.02-.11-.09,0,0-.12-.1-.23-.2-.33-.32-.02-.02-.14-.17-.07-.08-.98-1.39-1.17-3.12-1.33-4.77-.05-.64-1.05-.64-1,0,.2,1.97.43,4.17,1.82,5.69.79.81,2.06,1.01,3.04.45.55-.33.05-1.2-.5-.86h0Z"/></g><g class="cls-7"><path class="cls-8" d="m133.95,408.4s-.26.1-.08.05c-.16.07-.34.11-.51.14.07-.02.08-.02.06-.02-.14.03-.28.02-.41.01-.13,0,.12.03,0,0-.08-.02-.16-.03-.24-.06-.04-.01-.21-.09-.06-.01-.13-.06-.26-.13-.38-.22-.02-.02-.11-.09,0,0-.12-.1-.23-.2-.33-.32-.02-.02-.14-.17-.07-.08-.98-1.39-1.17-3.12-1.33-4.77-.05-.64-1.05-.64-1,0,.2,1.97.43,4.17,1.82,5.69.79.81,2.06,1.01,3.04.45.55-.33.05-1.2-.5-.86h0Z"/></g></g><g id="hår"><path class="cls-9" d="m87.92,3.14s116.89-22.94,99.15,152.62l-5.22-6.98-4.2,6.98-7.28-8.98-3.13,10.97-6.26-9.98-1.04,7.98-7.31-3.99-5.22,7.98c-10.85-6.09-7.48-14-16.7-2.99l-5.22-5.99-1.04,6.98s-9.39-4.99-6.26-8.98c3.13-3.99-5.78,10.97-5.78,10.97,0,0-8.83-2-11.96-9.98,0,0,2.09,6.98-9.39,11.97,0,0,2.09-14.12-3.13-14.04,0,0,5.22,5.5,0,10.27,0,0-3.13-2.21-6.26-9.19,0,0-8.35,4.99-6.26,10.97,0,0-7.31-7.98-6.26-10.97,0,0,0,8.98-4.17,10.97l-4.17-8.98s0,4.99-3.13,5.99c0,0-6.26-2.99-6.26-9.98v11.56s-7.31-.58-7.31-14.55c0,0-3.13,9.73,0,12.35,0,0-7.31-.38-8.35-10.35l-4.17,11.97s-8.35-6.98-7.31-10.97l-1.04,8.98s-6.26-3.99-5.22-9.98c0,0-3.72,4.39-3.13,10.97C6.13,139.1-28.89,12.98,87.92,3.14Z"/><path class="cls-8" d="m88.18,4.11c90.42-9.93,106.48,81.23,97.88,151.66.62-.17,1.24-.34,1.86-.5-1.74-2.33-3.48-4.66-5.22-6.98-.44-.59-1.31-.7-1.73,0-1.4,2.33-2.8,4.66-4.2,6.98l1.57-.2c-2.43-2.99-4.85-5.99-7.28-8.98-.49-.61-1.48-.22-1.67.44-1.04,3.66-2.09,7.32-3.13,10.97l1.83-.24c-2.09-3.33-4.17-6.65-6.26-9.98-.57-.91-1.74-.44-1.86.5-.35,2.66-.7,5.32-1.04,7.98.5-.29,1-.58,1.5-.86-2.44-1.33-4.87-2.66-7.31-3.99-.49-.27-1.07-.1-1.37.36-1.74,2.66-3.48,5.32-5.22,7.98l1.37-.36c-3.1-1.67-5.59-4.17-7.83-6.84-3.62-4.69-7.61,1.2-10.08,4h1.41c-1.74-2-3.48-3.99-5.22-5.99-.46-.53-1.56-.29-1.67.44-.35,2.33-.7,4.66-1.04,6.98l1.47-.6c-2.17-1.24-8.4-4.99-5.66-7.88.18-.24.07.02,0-.03l-1.43-.83.03-.22c-1.49,3.3-4.26,7.7-6.34,11.32l1.13-.46c-4.81-1.1-9.41-4.68-11.26-9.28-.63-1.3-2.45-.61-1.87.81.7,4.91-4.72,8.86-9,10.56l1.47,1.13c.44-4.15,1.93-14.87-4.1-15.31-.89,0-1.29,1.09-.71,1.71,2.37,2.46,2.82,6.47,0,8.86l1.21-.16c-2.16-1.77-4.58-5.74-5.9-8.84-.22-.49-.94-.61-1.37-.36-3.98,2.39-8.37,7.1-6.72,12.1.56-.32,1.11-.65,1.67-.97-2.04-2.29-4-4.72-5.41-7.46-.4-.81-.82-1.83-.6-2.54l-1.96-.27c0,1.44-.17,2.89-.45,4.3-.42,2.11-1.15,4.76-3.23,5.81l1.37.36c-1.39-2.99-2.78-5.99-4.17-8.98-.43-.93-1.86-.43-1.86.5,0,1.73-.52,4.37-2.4,5.02l.77.1c-3.44-1.66-5.73-5.33-5.77-9.11-.01-1.29-2-1.29-2,0v11.56c.33-.33.67-.67,1-1-.07,0,.34.08.06,0-.16-.05-.33-.07-.49-.12-.12-.04-.23-.08-.35-.12s-.14-.06,0,0c-4.74-2.21-5.47-8.59-5.52-13.31,0-1.15-1.62-1.33-1.96-.27-.99,3.71-2.89,10.3.26,13.32l.71-1.71c-.22-.01-.22-.03-.07,0-4.5-.61-6.94-5.19-7.28-9.35-.12-1.1-1.58-1.38-1.96-.27-1.39,3.99-2.78,7.98-4.17,11.97l1.67-.44c-2.37-2.05-4.65-4.32-6.26-7.03-.49-.86-1.03-1.97-.79-2.97-.65-.09-1.31-.18-1.96-.27-.35,2.99-.7,5.99-1.04,8.98.5-.29,1-.58,1.5-.86-2.76-1.87-5.35-5.28-4.76-8.85.14-.87-.96-1.83-1.67-.97-2.64,3.15-3.75,7.66-3.42,11.68l1.86-.5c-.3-.62-.58-1.25-.85-1.88C-8.05,92.24,1.46,14.08,79.91,5.03c2.66-.37,5.33-.66,8-.89,1.27-.11,1.28-2.11,0-2C2.51,5.98-12.94,90.2,14,157.27c.43.87,1.94.47,1.86-.5-.38-3.54.84-7.72,2.84-10.27l-1.67-.97c-.71,4.47,1.98,8.73,5.68,11.1.7.45,1.42-.16,1.5-.86.35-2.99.7-5.99,1.04-8.98.13-1.12-1.71-1.35-1.96-.27-.67,2.84,1.56,5.66,3.27,7.67,1.3,1.53,2.75,2.98,4.29,4.28.59.5,1.41.3,1.67-.44,1.39-3.99,2.78-7.98,4.17-11.97l-1.96-.27c.41,5.22,3.67,10.89,9.35,11.35.84.05,1.35-1.14.71-1.71-1.65-1.45-1.16-4.64-.86-6.55.25-1.63.62-3.26,1.12-4.83-.65-.09-1.31-.18-1.96-.27-.03,5.7,1.43,14.42,8.31,15.55.54.05,1-.5,1-1v-11.56h-2c.03,4.56,2.76,8.73,6.75,10.84.87.37,1.89-.34,2.51-.93,1.53-1.52,2.08-3.82,2.13-5.92l-1.86.5c1.39,2.99,2.78,5.99,4.17,8.98.24.51.92.58,1.37.36,3.98-2.29,4.46-7.69,4.67-11.84,0-1.15-1.63-1.33-1.96-.27-.37,1.17.06,2.42.52,3.49,1.47,3.14,3.71,5.87,5.99,8.45.66.73,1.98-.03,1.67-.97-1.35-4.09,2.59-7.92,5.8-9.84-.46-.12-.91-.24-1.37-.36,1.65,3.49,3.57,7.09,6.62,9.55.36.26.91.13,1.21-.16,3.59-3.13,3.17-8.41,0-11.69l-.71,1.71c3.65.34,2.37,10.72,2.19,12.63-.22.93.54,1.69,1.45,1.28,3.87-1.7,7.84-4.29,9.44-8.39.55-1.41.85-3.21.42-4.71l-1.93.53c2.11,5.25,7.12,9.41,12.66,10.67.44.1.9-.07,1.13-.46,1.97-3.3,3.95-6.61,5.73-10.01.29-.55.69-1.17.81-1.78.25-1.24-1.09-1.71-1.9-.91-2.07,2.05-1.42,4.64.29,6.67,1.53,1.81,3.65,3.28,5.74,4.4.51.27,1.37.07,1.47-.6.35-2.33.7-4.66,1.04-6.98l-1.67.44c1.74,2,3.48,3.99,5.22,5.99.33.38,1.08.39,1.41,0,1.53-1.77,3.19-3.97,5.13-5.09.1-.04.55-.15.34-.12.08-.01.16-.01.24,0,.17.02-.15-.04.08.02.18.05.45.21.63.37,2.74,2.96,5.4,6.07,9.05,7.97.49.28,1.07.1,1.37-.36,1.74-2.66,3.48-5.32,5.22-7.98l-1.37.36c10.46,5.36,8.09,6.99,9.85-4.85-.62.17-1.24.34-1.86.5,2.09,3.33,4.17,6.65,6.26,9.98.45.72,1.59.6,1.83-.24,1.04-3.66,2.09-7.32,3.13-10.97-.56.15-1.11.29-1.67.44,2.43,2.99,4.85,5.99,7.28,8.98.42.51,1.27.3,1.57-.2,1.4-2.33,2.8-4.66,4.2-6.98h-1.73c1.74,2.33,3.48,4.66,5.22,6.98.61.81,1.76.52,1.86-.5C196.71,83.49,179.96-7.86,87.65,2.18c-1.26.25-.73,2.18.53,1.93Z"/><g class="cls-7"><path class="cls-8" d="m108.79,11.12c46.24,8.03,68.15,50.41,68.38,94.26.02.64,1.02.64,1,0-.19-7.9-.91-15.79-2.35-23.56-5.34-34.66-31.25-66.49-67.03-71.71-.64-.07-.63.93,0,1h0Z"/></g><path class="cls-8" d="m140.23,116.78c-16.43-10.16-23.33-30.44-24.46-48.9-.04-.64-1.04-.64-1,0,1.14,18.8,8.21,39.45,24.96,49.76.57.29,1.08-.57.5-.86h0Z"/><g class="cls-7"><path class="cls-8" d="m156.31,148.43c-2.14-3.57-1.31-8.79-.21-12.82.17-.62-.79-.89-.96-.27-1.11,4.39-2.14,9.75.47,13.79.41.49,1.12-.22.71-.71h0Z"/></g><g class="cls-7"><path class="cls-8" d="m15.31,119.96c-2.28-38.85,8.74-90.76,50.54-104.15.61-.2.35-1.17-.27-.96C22.98,28.84,12.18,80.19,14.31,119.96c.05.64,1.05.64,1,0h0Z"/></g><g class="cls-7"><path class="cls-8" d="m171.13,126.32c5.46,4.63,6.88,12.65,6.21,19.55-.06.64.94.64,1,0,.63-7.18-.78-15.63-6.71-20.42-.53-.37-1.03.49-.5.86h0Z"/></g><g class="cls-7"><path class="cls-8" d="m113.96,30c5.8,8.47,20.79,13.52,30.35,16.52.62.18.88-.78.27-.96-7.35-2.19-14.7-4.86-21.3-8.81-3.07-1.86-6.19-3.95-8.28-6.95-.06-.1-.12-.19-.17-.3-.28-.58-1.15-.07-.86.5h0Z"/></g><g class="cls-7"><path class="cls-8" d="m82.29,29.14c-7.81,10.97-21.55,16.14-34.37,18.48-.63.11-.36,1.07.27.96,13.1-2.38,27.01-7.72,34.97-18.94.33-.56-.54-1.06-.86-.5h0Z"/></g><path class="cls-8" d="m111.47,127.91c-6.01-4.05-8.23-11.86-8.36-18.8-.01-.64-1.01-.64-1,0,.15,7.23,2.48,15.48,8.86,19.66.56.32,1.07-.55.5-.86h0Z"/><g class="cls-7"><path class="cls-8" d="m26.02,118.34c3.76,6.2,2.43,14.18-.39,20.49-.26.58.6,1.09.86.5,2.95-6.61,4.38-14.99.39-21.5-.37-.52-1.24-.02-.86.5h0Z"/></g></g><g id="nederdel"><path class="cls-13" d="m154.22,240.76s12.04,58.78,11.28,75.23c0,0,9.86,45.84-106.47,77.19,0,0,8.67-30.42,10.16-47.94,1.67-19.59,10.87-100.95,16.79-99.61s30.07,9.59,68.24-4.88Z"/><g id="sløjfe"><path class="cls-8" d="m82.68,250.99c-18.51,23.97-36.81,7.4-21.71-1.05,0,0,11.06-6.22,22.77-.92,0,0-22.81-.04-19.65,8.5,0,0,2.07,4.73,18.97-6.76"/><path class="cls-8" d="m63.27,264.42c-4.06.16-8.49-2.49-8.84-6.35-.54-3.49,2.39-7.2,6.71-9.37l.02.02c2.66-1.27,12.59-5.32,22.99-.61l4.23,1.92c-.92,0-4.97-.02-5.82,0l1.05,1.55c-.1.07-.21.14-.31.21-7.28,9.34-14.65,12.62-20.05,12.62Zm-1.81-13.6c-13.02,7.63,1.35,19,15.78,4.77-5.87,3.24-11.9,5.64-14.06,2.33-2.4-7.48,8.76-8.97,14.94-9.63-8.87-1.67-16.29,2.33-16.65,2.53h0Zm3.54,6.25c.28.26,3.32,2.48,17.35-7.03-4.74.23-19.18,1.06-17.35,7.03Z"/><path class="cls-8" d="m81.45,254.22c5.17,22.89-13.36,26.14-11.06,12.81,0,0,1.67-9.78,10.41-14.41,0,0-11,13.97-4.46,16.15,0,0,3.77,1.01,5.16-14.89"/><path class="cls-8" d="m74.5,275.65c-8.95-.49-5.5-17.47,5.94-23.7,0,0,3.21-1.7,3.21-1.7-.44.56-2.41,3.04-2.8,3.58l1.41.12c0,.1-.02.2-.03.29,2.59,11.89-.79,20.79-7.73,21.41Zm-3.36-8.48c-1.02,4.93,1.79,8.83,6.08,5.99,2.6-1.84,4.81-6.2,4.3-13.31-.95,5.16-2.37,9.9-5.39,9.66-5.58-2.16-1.07-9.64,1.48-13.74-5.2,4.64-6.41,11.07-6.47,11.39h0Zm9.57-13.16c-2.15,3.04-8.55,12.21-4.22,14,.29-.05,3.05-.91,4.22-14Z"/><path class="cls-8" d="m77.54,269.8c-2.71,5.13-5.29,10.71-5.38,16.6.04,2.15,1.28,5.13,1.52,6.64.38,1.86.7,3.63.47,5.18-.02.24.13-.48.03-.15-.05.18-.27.83,0,.1-.03.08-.07.15-.1.23.31-.62.19-.33.09-.2.36-.51.22-.27.11-.16-.21.22.35-.28.1-.1-6.08,3.3-10.93,11.96-9.78,19.7.1.83.79,1.14,1.47.66.74-.53,1.26-1.67,1.15-2.58-.74-7.03,2.46-11.24,7.14-14.35,4.19-2.28,2.13-10.64.55-15.42.03.13.04.16.04.15-.12-.48-.16-1.08-.17-1.61,0-1.41.56-3.98,1.37-6.19.38-1.15,2.01-4.93,3.07-6.82-.39.77-.21.38-.11.2.38-.68.89-1.87.27-2.57-.59-.66-1.55.17-1.85.71h0Z"/><path class="cls-8" d="m72.09,271.66c-5.59,4.11-12.55,11.09-9.45,18.6.12.52.54,3.25.48,4.65,0,.1-.01.32,0-.14-.05,1.99-.17,3.07-.72,4.79-.06.19-.01.35.05-.13-.17.51-.42.99-.65,1.48-.15.31.08-.15.09-.16-.19.4-.49.77-.74,1.14-.09.12-.05.07.12-.15-.33.42-.69.81-1.07,1.18.3-.29-.13.11-.25.2-.38.31-.78.59-1.19.84-.02.01-.42.23-.14.08-.88.48-1.83.85-2.8,1.12-1.37.39-2.28,4.17-.35,3.62,9.85-2.7,12.08-14.66,9.11-22.62-.07-.33-.08-.66-.12-1-.01-.09.01-.32,0,.07,0-.29.03-.58.07-.87.02-.12.12-.52,0-.01.07-.33.16-.66.27-.98.08-.26.06.07-.05.14.94-2.4,2.49-4.14,4.9-6.4-.18.17-.17.15,0,0,.89-.78,1.8-1.54,2.77-2.21.76-.52,1.25-1.67,1.15-2.58-.1-.86-.78-1.14-1.47-.66h0Z"/></g><g id="blomst"><path class="cls-11" d="m131.08,271.84s-2.65-7.95-11.06-9.1c0,0-5.65,6.09-2.17,14.34,0,0-6.9-1.99-13.24,5.25,0,0,2.37,7.54,11.07,9.09,0,0-5.65,6.09-2.17,14.34,0,0,7.28,1.67,13.23-5.26,0,0,2.65,7.95,11.06,9.1,0,0,5.65-6.09,2.17-14.34,0,0,7.58,2.09,13.24-5.25,0,0-2.08-7.13-10.87-9.24,0,0,5.45-5.94,1.97-14.19,0,0-7.28-1.67-13.23,5.26Z"/><path class="cls-5" d="m125.24,275.59s-1.52,6.15,3.54,10.76c0,0-4.39-3.92-10.96-1.73,0,0,4.36,4.12,10.84,2.23,0,0-5.86,2.19-6.91,8.85,0,0,5.75-1.67,7.33-8.38,0,0-1.07,6.31,4.03,10.44,0,0,1.59-5.38-3.41-10.66,0,0,4.35,3.79,10.83,1.64,0,0-4.31-4.17-10.86-2.24,0,0,5.96-2.21,6.93-8.84,0,0-5.55,1.31-7.4,8.52,0,0,1.3-6-3.95-10.58Z"/></g><g class="cls-7"><path class="cls-8" d="m149.76,253.64c-5.06,3.57-11.36,5.43-17.51,5.58-.64,0-.64,1.01,0,1,5.93-.09,11.88-1.9,16.93-5,.37-.23.74-.46,1.09-.72.51-.38.02-1.24-.5-.86h0Z"/></g><g class="cls-7"><path class="cls-8" d="m157.68,315.84c.67,5.96-.33,12.76-3.01,18.38-.27.58.59,1.09.86.5,1.94-4.1,3-8.55,3.27-13.07.12-2.01.13-4.08-.17-6.08-.1-.63-1.06-.36-.96.27h0Z"/></g><g class="cls-7"><path class="cls-8" d="m74.72,347.7c-.48,8-1.33,16.04-3.38,23.8-.69,2.57-1.54,5.15-2.9,7.45-.33.56.54,1.06.86.5,2.53-4.46,3.56-9.6,4.5-14.59.99-5.67,1.59-11.42,1.91-17.17.03-.64-.97-.64-1,0h0Z"/></g><path class="cls-8" d="m155.17,245.38s-33.05,19.12-71.98,4.98c0,0,1.16-4.55,2.82-3.4,0,0,28.64,7.95,68.18-5.6l.97,4.02Z"/><g id="blomst-2"><path class="cls-11" d="m131.56,350.69c-4.66-6.05-2.22-11.9-2.22-11.9,7.15-1.67,11.1,3.81,11.1,3.81,3.02-7.06,9.07-7.72,9.07-7.72,5.04,5.86,2.21,11.91,2.21,11.91-5.25,5.17-20.5,24.13-29.14,11.82,2.2-6.88,8.98-7.9,8.98-7.9Z"/><path class="cls-5" d="m142.78,354.44c-5.51-2.65-5.72-7.5-5.72-7.5,5.18,1.81,6.05,7.15,6.05,7.15-.56-5.79,3.45-8.78,3.45-8.78.75,5.77-2.96,8.84-2.96,8.84,1.24-.84-.74.66-.74.66-4.47,3.55-9.18,1.34-9.18,1.34,4.47-3.72,9.09-1.72,9.09-1.72Z"/></g><g id="blomst-3"><path class="cls-11" d="m73.8,301.08c.63-3.03.64-6.13,1-9.2.37-3.33,1.28-6.65,1.73-9.98,2.01-5.63,5.62-9.58,12.22-8.02,2.97,7.07-1.74,12.74-1.74,12.74,7.87,1.48,9.93,7.91,9.93,7.91-4.56,6.46-11.46,4.92-11.46,4.92,2.43,7.8-1.94,12.66-1.94,12.66-8.04-1.06-9.93-7.91-9.93-7.91.07-.83.12-1.87.17-3.04,0-.03.01-.05.02-.08Z"/><path class="cls-5" d="m75.48,291.68c6.21-1.83,9.71,1.89,9.71,1.89-5.37,2.26-9.73-1.37-9.73-1.37,4.41,4.22,3.27,9.47,3.27,9.47-4.55-4.06-3.71-9.17-3.71-9.17-.41,1.56.14-1.06.14-1.06,1.13-6.04,6.4-7.65,6.4-7.65-1.01,6.17-6.08,7.89-6.08,7.89Z"/></g><g id="blomst-4"><path class="cls-11" d="m96.15,321.34s-5.14-4.09-11.2-1.11c0,0-1.15,6.55,4.66,10.47,0,0-5.41,1.75-6.54,9.36,0,0,4.78,3.94,11.2,1.1,0,0-1.15,6.55,4.66,10.47,0,0,5.53-2.13,6.53-9.37,0,0,5.14,4.09,11.2,1.11,0,0,1.15-6.55-4.66-10.47,0,0,5.91-1.98,6.54-9.36,0,0-4.41-3.8-11.13-1.29,0,0,1.09-6.36-4.73-10.28,0,0-5.53,2.13-6.53,9.37Z"/><path class="cls-5" d="m93.88,326.42s1.61,4.75,6.92,5.56c0,0-4.58-.64-8,3.72,0,0,4.64.79,8.13-3.34,0,0-2.95,4.05-.81,8.93,0,0,3.1-3.67,1.29-8.81,0,0,1.98,4.66,7.11,5.13,0,0-1.24-4.27-6.8-5.55,0,0,4.49.58,7.87-3.73,0,0-4.63-.85-8.15,3.34,0,0,3.01-4.12.83-8.94,0,0-3.12,3.33-1.28,8.93,0,0-1.69-4.56-7.12-5.25Z"/></g><g id="blomst-5"><path class="cls-11" d="m82.25,377.94c-1.75-5.54,1.49-9.03,1.49-9.03,5.5.74,6.89,5.68,6.89,5.68,3.96-4.19,8.41-3.04,8.41-3.04,2.06,5.51-1.5,9.03-1.5,9.03-5.05,2.25-20.74,11.59-23.7.54,3.33-4.29,8.4-3.19,8.4-3.19Z"/><path class="cls-5" d="m89.24,383.62c-3.22-3.36-2.12-6.86-2.12-6.86,3.2,2.68,2.45,6.7,2.45,6.7,1.1-4.25,4.7-5.29,4.7-5.29-.95,4.29-4.37,5.47-4.37,5.47,1.1-.26-.69.27-.69.27-4.08,1.31-6.85-1.52-6.85-1.52,4.12-1.43,6.89,1.23,6.89,1.23Z"/></g><path class="cls-8" d="m155.1,240.44c4.46,24.65,10.78,50.77,11.28,75.24.23,43.19-61.95,64.31-95.36,75.1-2.46.16-12.75,5.21-12.92,2.22,15.17-47.38,10.82-98.84,25.36-146.25,1.31-3.54,3.6-1.35,7.52-.86,17.86,2.25,35.97,2.45,53.13-2.72,1.85-.13,13.63-5.92,10.41-1.51-21.6,8.39-46.71,11.46-68.65,4.92-.26.02.24-.08.01,0-.25.08.25-.12-.02.02s.06-.11-.06.04c-.06.08-.14.15-.2.23-.08.1-.29.42-.11.14-14.9,47.08-10.32,99.01-25.54,146.36l-1.24-1.1c34.78-9.93,105.57-31.85,105.85-76.18-.63-23.81-6.58-49.81-11.03-74-.54-.88.03-3.62,1.57-1.65Z"/></g><g id="overkrop"><path class="cls-1" d="m139.85,202.82c-2.27-14.71-10.47-43.97-15.46-58.08l-29,1-7,27,2.76,31.57"/><path class="cls-4" d="m143.39,196.75c-4.79-4-10-21-10-21-2,14,20,66,20,66-51.2,18.17-68,4-68,4,8.21-52.58,2.76-69.43,2.76-69.43"/><path class="cls-8" d="m107.99,252.05c-17.03-.15-22.52-5.01-23.68-5.9,8.08-50.6,2.97-69.96,2.89-69.52l1.9-.61c.22.69,5.38,17.54-2.63,69.28,2.92,1.91,20.8,11.52,65.58-4.14-3.65-9.64-23.55-54.78-19.02-69.98l1.31,4.28c.05.17,5.18,16.76,9.69,20.53l-1.28,1.54c-3.01-2.51-6.08-9.62-8.08-14.98,2.83,18.92,19.45,58.37,19.65,58.82l.41.98c-19.82,7.2-36.17,9.8-46.73,9.71Z"/><g id="bikini"><path class="cls-8" d="m94.39,145.75c-4.52,24.62,1.3,25.89,1.3,25.89,37.42,33.7,5.01,37.92-7.59,31.17-7.53-5.69,4.36-56.81,4.36-56.81l1.94-.24Z"/><path class="cls-8" d="m120.48,201.2c11.81,9.46,22.22-1.21,22.22-1.21,5.1-10.09-9.48-24-9.48-24-.99-12.73-9.84-31.23-9.84-31.23h-4c15.69,28.77-6.94,38.73,1.09,56.45,0,0-2.33,1.13-9.5.22l.17-1.1h9l.33.87Z"/></g><path class="cls-4" d="m171.39,204.75s-8-63-48-60c0,0,5.32,9.13,8.16,19.56,0,0,16.94,20.7,18.84,25.44,2,5,7.74,18.34,11,22"/><path class="cls-8" d="m160.64,212.41c-3.38-3.8-9.22-17.38-11.18-22.29-1.48-3.68-12.98-18.21-18.82-25.34-3.36-11.8-7.77-18.8-8.92-20.91,33.61-4.37,47.81,39.24,50.66,60.75l-1.98.25c-.08-.61-8.09-60.37-45.36-59.21,1.59,2.97,5.23,10.22,7.42,18.18,1.72,2.11,17,20.88,18.86,25.53,2.68,6.7,7.99,18.52,10.82,21.71l-1.49,1.33Z"/><g id="glas"><g id="fod"><path class="cls-6" d="m151.79,256.18s-2.14,11.74.25,12.09c2.4.35,10.25,1.45,8.4,3.1-1.85,1.65-15.96,2.63-23.98.65,0,0-6.08-1.22,8.57-3.92,0,0,1.34.22-.09-11.95"/><path class="cls-8" d="m147.61,273.33c-3.94,0-8.05-.32-11.21-1.1-3.41-1.01-.95-2.65,8.58-4.35h0c.11-.11.96-1.29-.26-11.71l.44-.05c.75,7.09,1.09,11.7-.11,12.2-9.56,1.83-11,2.95-8.54,3.48,7.55,1.85,23.17,1.32,23.99-.99-.23-.75-3.01-1.52-8.26-2.29-3.13-.11-.55-12.49-.65-12.38l.43.08c.07.03-2.12,10.87.07,11.83,3.95.56,8.51,1.39,8.83,2.63.45,2.06-7.58,2.58-13.3,2.65Z"/><g class="cls-7"><path class="cls-8" d="m157.25,270.14c.55.15,1.17.26,1.64.61.04.03.05.06.06.08-.28.26-.73.27-1.09.35-1.57.27-3.16.39-4.74.49-.14,0-.14.23,0,.22,1.2-.07,2.41-.17,3.6-.32.71-.11,1.45-.17,2.13-.42,1.14-.59-1.1-1.13-1.53-1.23-.14-.03-.2.18-.06.21h0Z"/></g><g class="cls-7"><path class="cls-8" d="m134.98,269.98c-.69.11-1.32,1.09-1.19,1.77.28,1.12,1.63,1.45,2.62,1.68.14.03.2-.18.06-.21-.61-.13-1.24-.3-1.78-.64-1.05-.6-.82-1.73.1-2.31.07-.04.09-.05.16-.06.15.02.2-.2.03-.22h0Z"/></g><g class="cls-7"><path class="cls-8" d="m161.56,271.98c-.67.99-2.24,1.4-3.43,1.68-.14.03-.08.24.06.21,1.21-.29,2.9-.71,3.59-1.83.05-.13-.16-.19-.21-.06h0Z"/></g></g><path id="banana_shake" class="cls-5" d="m130.41,203.83s8.77-4.61,28.74-1.54c0,0-8.12,6.8-28.74,1.54Z"/><path id="glas_fill_" class="cls-6" d="m161.67,192.05c0-4.83-16.64-5.16-16.64-5.16,0,0-15.82-.32-18.46,5.82,0,0,17.99,5.7,35.1-.66"/><g id="glas_stroke_"><path class="cls-8" d="m143.86,195.26c-9.8,0-17.24-2.3-17.36-2.34l-.23-.07c1.75-5.45,14.75-6.3,18.76-6.17.04,0,4.22.09,8.35.77,5.73.98,8.57,2.44,8.5,4.76-6.13,2.31-12.48,3.06-18.03,3.06Zm-16.98-2.69c2.18.63,18.83,5.11,34.57-.67-.19-2.24-4.5-3.42-8.13-4.02-4.1-.68-8.25-.77-8.29-.77-.15,0-15.31-.24-18.15,5.46Z"/><path class="cls-8" d="m143.86,195.15c-5.92-.03-11.87-.75-17.56-2.41l.07.16c2.17-5.7,14.85-6.3,20.14-6.06,3.3.22,15.42.91,15.26,5.36l.08-.11c-5.74,2.15-11.88,3.06-18,3.05-.14,0-.14.22,0,.22,6.13,0,12.3-.9,18.06-3.06.22-.2-.01-.91-.11-1.18-1.16-2.54-5.95-3.35-8.47-3.8-7.04-1.09-14.42-1.17-21.29.94-2.34.77-4.94,2.07-5.88,4.52-.03.07,0,.14.07.16,3.7,1.11,7.54,1.73,11.38,2.12,2.07.2,4.15.3,6.24.3.14,0,.14-.22,0-.22Z"/><path class="cls-8" d="m126.85,192.68c5.09,1.41,10.38,2.11,15.66,2.24,6.42.14,12.92-.69,18.97-2.91.04-.02.09-.06.08-.11-.13-1.4-1.61-2.2-2.76-2.69-6.99-2.46-14.73-2.63-22.01-1.59-3.26.57-7.55,1.49-9.63,4.28-.14.2-.26.4-.37.62-.06.13.13.24.19.11.46-.91,1.2-1.63,2.04-2.19,3.14-2,6.96-2.55,10.59-2.96,4-.59,20.85-.24,21.73,4.42l.08-.11c-10.96,3.95-23.15,3.64-34.33.72-.06-.02-.12-.03-.18-.05-.14-.04-.19.17-.06.21Z"/></g><g id="sugerør"><path class="cls-12" d="m140.5,204.66s-9.32-31.48-11.41-32.46c0,0-1.21-1.21-10.75-.66,0,0-1.54-2.43,0-4.18,0,0,10.09-.21,12.72,1.11,0,0,3.79-1.1,13.74,36.19l11.38,48.15s-2.19,1.75-4.17,1.1l-11.52-49.24Z"/><path class="cls-8" d="m140.71,204.6c-3.26-10.43-6.14-21.06-10.47-31.11-.25-.49-.57-1.18-1-1.45-2.29-1.26-8.16-.82-10.9-.72l.19.11c-.67-1.09-.9-2.49-.24-3.63.08-.2.01-.16.13-.21,4.15.04,9.01-.17,12.75,1.12.2.08.3.16.47.32.67.64,1.15,1.45,1.64,2.28,4.58,8.81,7.07,18.55,9.85,28.03,4.65,17.75,8.51,35.71,12.85,53.54l.06-.21c-1.02.81-2.6,1.46-3.95,1.04l.15.15c-3.84-16.41-7.67-32.83-11.52-49.24-.06-.27-.49-.16-.42.12,3.84,16.41,7.67,32.82,11.51,49.22.14.32.77.32,1.07.33,1.26.02,2.48-.56,3.47-1.31-1.05-5.76-2.74-11.6-4-17.39-5.37-21.38-9.02-43.53-18.24-63.69-.56-1.04-1.74-3.47-3.02-3.64-.25-.02.18.07.05,0-2.87-1.09-6.11-1-9.14-1.1-1.21-.02-2.42-.04-3.62,0-.48.08-.77.96-.86,1.38-.22,1.04.08,2.23.64,3.13.04.06.11.11.19.11,2.73-.15,5.51-.27,8.23.03.84.11,1.94.19,2.53.7.91,1.19,1.4,2.71,1.98,4.09,3.52,9.22,6.32,18.71,9.2,28.15.08.27.5.16.42-.12Z"/><path class="cls-8" d="m127.89,171.66c0-.14-.21-3.47,1.47-3.95l.12.42c-1.12.32-1.22,2.64-1.16,3.5l-.44.03Z"/><path class="cls-8" d="m129.66,172.67l-.48-.06c.02-.16.54-3.87,2.41-4.05l.05.48c-1.24.12-1.85,2.66-1.98,3.63Z"/><path class="cls-8" d="m130.04,173.38l-.37-.23c.07-.12,1.79-2.82,3.49-2.82v.44c-1.46,0-3.1,2.58-3.12,2.61Z"/><path class="cls-8" d="m130.7,174.64l-.35-.27c.08-.11,2.05-2.62,3.73-2.27l-.09.43c-1.42-.29-3.27,2.09-3.29,2.11Z"/></g><path id="banana_shake-2" class="cls-2" d="m130.41,203.83s3.51,12.06,2.39,17.99c0,0,.22,5.7-2.19,19.74-3.9,19.05,39.65,20.38,31.59-.44,0,0-4.39-17.99-3.95-20.4,0,0-.64-7.68.9-18.42,0,0-8.12,6.8-28.74,1.54Z"/><g id="banan"><path class="cls-5" d="m155.91,193.23s-4.15-8.5,5.18-12.44c0,0,12.65-3.32,13.06,9.95,0,0-.62,11.19-13.89,6.63,0,0-3.73-2.07-4.35-4.15Z"/><path class="cls-8" d="m165.98,198.69c-1.71,0-3.64-.37-5.78-1.11l-.04-.02c-.16-.09-3.8-2.13-4.45-4.26-1.88-4.1-1.33-10.07,5.3-12.72h.03c5.43-1.33,13.19.26,13.34,10.15-.17,2.95-2.36,8.06-8.4,7.95Zm-5.62-1.51c8.15,2.95,12.95-.47,13.58-6.45-.15-9.51-7.48-10.95-12.77-9.73-6.51,2.62-6.76,8.34-5.06,12.13v.03c.58,1.9,3.98,3.86,4.25,4.01Z"/><path class="cls-5" d="m163.99,185.16s-.99,2.09.51,4.06c0,0-1.31-1.68-3.84-1.33,0,0,1.28,1.75,3.76,1.5,0,0-2.28.4-3.13,2.7,0,0,2.2-.22,3.25-2.5,0,0-.84,2.18.71,3.98,0,0,.96-1.81-.47-4.01,0,0,1.3,1.63,3.8,1.29,0,0-1.26-1.76-3.77-1.51,0,0,2.32-.4,3.14-2.69,0,0-2.1.1-3.29,2.55,0,0,.9-2.05-.67-4.02Z"/><path class="cls-8" d="m165.26,193.63c-1.17-1.3-1.05-2.94-.87-3.66-1.1,1.93-3.07,2.15-3.09,2.15h-.07c.59-1.71,2.09-2.45,2.79-2.67-2.11.07-3.42-1.53-3.39-1.54,0,0-.04-.06-.04-.06,1.78-.29,3.1.52,3.62,1.01-1.12-1.85-.26-3.7-.25-3.72l.03-.06c1.16,1.39,1.04,2.97.86,3.68,1.21-2.05,3.09-2.17,3.11-2.17h.06c-.57,1.7-2.08,2.45-2.79,2.67,2.12-.07,3.42,1.54,3.39,1.55,0,0,.04.06.04.06-1.84.29-3.17-.58-3.65-1.03,1.15,2.06.3,3.73.29,3.75l-.03.06Zm-.76-4.07l.08.03s-.8,2.13.66,3.88c.14-.33.76-1.97-.5-3.91l.07-.05s1.29,1.58,3.69,1.28c-.25-.3-1.49-1.66-3.68-1.43v-.08s2.25-.41,3.07-2.6c-.36.04-2.14.37-3.19,2.52l-.08-.04s.85-2.01-.62-3.92c-.15.37-.79,2.21.53,3.95l-.07.05s-1.3-1.62-3.73-1.32c.25.3,1.51,1.65,3.68,1.43v.08s-2.21.41-3.06,2.6c.38-.06,2.22-.46,3.15-2.47Z"/><g id="ansigt"><g id="_øje"><path class="cls-8" d="m164.53,187.76c-1.33,2.75-5.53.74-4.22-2.02,1.33-2.75,5.53-.74,4.22,2.02Z"/><path class="cls-10" d="m163.08,188.19c-.26.55-1.12.14-.85-.41.26-.55,1.12-.14.85.41Z"/><path class="cls-10" d="m162.83,186.52c-.47,1.03-2.07.26-1.57-.75.47-1.03,2.07-.26,1.57.75Z"/></g><g id="_øje-2"><path class="cls-8" d="m169.88,191.34c-1.33,2.75-5.53.74-4.22-2.02,1.33-2.75,5.53-.74,4.22,2.02Z"/><path class="cls-10" d="m168.18,190.1c-.47,1.03-2.07.26-1.57-.75.47-1.03,2.07-.26,1.57.75Z"/><path class="cls-10" d="m168.42,191.77c-.26.55-1.12.14-.85-.41.26-.55,1.12-.14.85.41Z"/></g><g id="_øjenbryn"><path class="cls-8" d="m163.02,183.36c.05-.12.16-.22.21-.27.03-.02.07-.05.11-.07.02,0,.04-.02,0,0,.12-.05.19-.05.32-.04.3.04.66.32.9.57.16.16.42-.09.25-.25-.53-.58-1.46-1.04-2.03-.25-.25.26.01.57.23.32h0Z"/><path class="cls-8" d="m170.51,187.73c-.1.01-.03,0,0,0,.19,0,.29,0,.47.07-.05-.01-.03-.01-.02,0,.05.02.1.05.15.09.03.02-.03-.03,0,0,.04.03.08.07.11.11-.01-.02-.02-.02-.01-.02.04.04.06.09.09.14.01.03.05.13.06.19,0,0,.01.07,0,.03.03.26,0,.51-.07.77-.06.22.29.32.35.1.25-.83.05-1.81-.98-1.83-.08,0-.15,0-.23.01-.23.07-.14.4.1.35h0Z"/></g><g id="mund"><path class="cls-8" d="m162.62,189.99c-.2,1.43.9,1.85,2.08,1.32.23-.08.13-.41-.1-.35-.42.16-.87.29-1.24.15.05.02-.02,0-.03-.01-.02-.01-.04-.02-.06-.04-.01,0-.06-.05-.02-.01-.11-.1-.13-.13-.21-.27,0,0-.01-.03,0,.01-.11-.29-.1-.46-.08-.73,0-.03,0,.06,0,.03.05-.23-.28-.32-.35-.1h0Z"/></g><g id="kinder"><path class="cls-13" d="m159.61,188.43c.46,1.67-.97,2.05-1.39.37-.46-1.67.97-2.05,1.39-.37Z"/><path class="cls-13" d="m166.42,193.24c1.73.06,1.66,1.53-.06,1.44-1.73-.06-1.66-1.53.06-1.44Z"/></g></g><path class="cls-3" d="m156.99,192.75s-3.61-7.39,4.51-10.82c0,0,11-2.89,11.36,8.66,0,0-.54,9.74-12.08,5.77,0,0-3.25-1.8-3.79-3.61Z"/></g><path id="glas_fill_-2" class="cls-6" d="m126.57,192.93s7.79,17.66,6.25,28.85c0,0,.22,5.7-2.19,19.74-3.9,19.05,39.65,20.38,31.59-.44,0,0-4.39-17.99-3.95-20.4,0,0-.77-17.44,3.18-28.63,0,0-14.26,6.14-34.88.88Z"/><g id="glas_stroke_-2"><path class="cls-8" d="m147.94,256.44c-7.54-.17-19.6-3.87-17.52-14.96,2.38-13.88,2.19-19.61,2.19-19.72,1.33-6.79-3.05-21.85-6.41-29.16,19.76,5.36,35.94-.94,35.63-.95-4.03,10.76-3.37,28.88-3.33,29.04-.44,2.35,3.9,20.14,3.94,20.33,4.37,12.31-7.1,15.48-14.49,15.42Zm-14.9-34.66c.01.39.12,6.28-2.2,19.77-3.67,19.04,39.34,19.63,31.16-.4-.18-.75-4.37-17.96-3.96-20.49-.03-.73-.64-17.31,3.04-28.23-2.57.96-15.92,5.35-34.14.82,3.62,8.14,7.32,22.29,6.09,28.54Z"/><path class="cls-8" d="m147.94,256.33c-6.66-.2-15.92-2.81-17.42-10.29-.35-1.78-.16-3.52.13-5.29.98-6.21,2.02-12.48,2.07-18.78.91-10.15-2.63-20.16-6.43-29.42l-.12.16c11.65,2.95,24.3,3.16,35.69-.95l-.13-.13c-3.26,9.53-3.45,19.78-3.37,29.75.63,6.36,2.39,12.58,3.76,18.81.65,2.37,1.44,4.74,1.06,7.24-.84,6.57-8.38,8.69-14.06,8.88-.39.02-.79.03-1.18.03-.14,0-.14.22,0,.22,8.7,0,17.83-3.71,15.05-14.06-1.77-6.53-3.25-13.17-4.3-19.86-.21-2.96-.15-5.93-.1-8.89.26-7.43.84-15,3.34-22.06.03-.07-.06-.17-.13-.13-11.33,4.34-24.36,3.49-35.7,1.11,3.71,9.2,7.31,19.1,6.4,29.17-.1,5.84-.89,11.64-1.82,17.4-.65,3.41-1.1,6.7.73,9.86,3.17,5.22,9.84,6.96,15.57,7.44.32.02.64.03.96.03.14,0,.14-.22,0-.22Z"/><path class="cls-8" d="m132.93,221.78c-.02,6.03-.98,12.02-1.9,17.97-.26,1.59-.58,3.17-.49,4.79.53,15.06,36.61,16.24,32.14-1.43-1.31-4.64-2.3-9.37-3.3-14.09-.52-2.78-1.24-5.57-1.23-8.41-.15-9.44.16-19.11,3.04-28.17.03-.08-.06-.16-.13-.13-10.91,4-23.34,3.13-34.2.98,3.55,8.99,6.98,18.65,6.08,28.45-.02.14.19.2.21.06,1.01-9.34-2.65-20.02-6.11-28.62l-.12.16c11.17,2.72,23.24,2.95,34.2-.82l-.13-.13c-3.01,9.36-3.16,19.37-3.06,29.12.7,6.45,2.41,12.75,3.84,19.07,4.21,11.5-4.78,15.52-14.79,15.28-6.96-.53-16.19-3.51-16.22-11.87.69-7.39,2.49-14.73,2.4-22.21,0-.14-.22-.14-.22,0Z"/></g><g id="skygger"><g class="cls-7"><path class="cls-8" d="m129.67,191.85c1.13-.98,2.55-1.74,4.07-1.81.14,0,.14-.22,0-.22-1.57.06-3.06.85-4.23,1.87-.1.1.05.25.16.16h0Z"/></g><g class="cls-7"><path class="cls-8" d="m135.02,215.2h-.22c.22-4.95-1.35-7.33-1.37-7.35l.18-.12c.07.1,1.63,2.45,1.41,7.48Z"/></g><g class="cls-7"><path class="cls-8" d="m157.41,228.64c-2.31-2.72-1.8-12.76-1.34-15.83l.22.03c-.02.12-1.5,11.8,1.3,15.67l-.18.13Z"/></g><g class="cls-7"><path class="cls-8" d="m135.14,249.53c-3.01-2.28-1.84-10.84-1.15-13.57l.16.04c-.02.1-2.42,10.41,1.1,13.41l-.11.12Z"/></g><g class="cls-7"><path class="cls-8" d="m149.5,258.38c-.2,1.6-.9,6.25.03,7.45.09.11.25-.05.16-.16-.52-.83-.36-1.95-.38-2.9.05-1.45.2-2.9.41-4.33.02-.14-.19-.2-.21-.06h0Z"/></g></g></g><path class="cls-4" d="m74.39,222.75c9.09,6.32,41.73,9.2,41.73,9.2,1.25.96,8.2,6.16,10.23,7.82,6.85,5.62,15.14,5.15,3.35-4.27-1.48-1.18,9.8,4.66,13.54,2.04,0,0,2.91-2.42-11.57-7.73,7.32,2.68,30.63-5.97-.17-5.18,12.66-4.95,15.39-12.32-5.29-3.98,0,0,9.17-9.12,4.47-10.62,0,0-2.67-.24-8.3,5.43s-5.85,5.1-5.85,5.1c0,0-29.13-9.81-33.13-16.81,0,0-6.55-15.18,4-31,4-6,2-3,2-3l3.06-23.76s-28.06-2.24-34.06,31.76c0,0-7,29,16,45Z"/><path class="cls-8" d="m73.88,223.61c5.48,3.46,12.09,4.6,18.34,5.97,7.9,1.54,15.89,2.6,23.89,3.37l-.5-.14c1.89,1.44,3.79,2.86,5.68,4.3,3.83,2.84,7.51,6.73,12.48,7.29,1.73.24,3.3-.95,2.73-2.79-1.11-2.94-3.91-4.92-6.2-6.89.11.03.25.59.25.64l-.14.5h0c-.12.11-.24.23-.36.35-.03.02-.62.21-.67.1,4.23,1.36,8.78,3.74,13.31,2.59.93-.32,1.73-.85,1.75-1.91-.29-3.97-9.27-6.85-12.54-8.14l-.53,1.93c4.05,1.22,8.51.31,12.47-.88,3.77-.97,6.53-4.15,1.24-5.58-4.46-.93-9.07-.75-13.61-.69l.27,1.96c2.48-.9,13.92-5.97,9.63-9.34-1.38-.74-3.32-.33-4.75-.05-3.67.72-7.24,2.08-10.7,3.48.32.56.65,1.11.97,1.67,2.19-2.28,7.64-7.86,5.64-11.18-.68-.99-1.73-1.29-2.83-1.03-5.38,1.67-8.61,6.77-12.89,10.12.23-.18-.11.08-.18.13-.11.08-.24.14-.35.22-.16.12.05-.02.1-.04-.14.04-.13-.01.17-.01s.56.2.81.48c-.29-.4-.74-.52-1.18-.66-6.61-2.29-13.17-4.84-19.49-7.84-4.24-2.15-8.88-4.17-12.1-7.76.16.2,0,0-.02-.03-.08-.11-.16-.23-.23-.35-.24-.35.05-.04-.01.05-4.46-12.07-1.12-23.98,6.41-33.96l-1.73-1.01c-.17.25-.33.5-.5.75l1.86.5c1.02-7.92,2.04-15.84,3.06-23.76.07-.57-.52-.96-1-1-14.93-.56-27.77,9.26-32.56,23.19-7.06,19.05-3.89,43.5,13.99,55.43,1.06.74,2.06-.99,1.01-1.73-19.82-13.43-20.89-43.46-8.3-62.25,4.93-6.93,12.71-11.35,21.04-12.42.96-.16,3.37-.26,4.81-.22-.33-.33-.67-.67-1-1-.89,6.93-1.79,13.87-2.68,20.8-.13.99-.25,1.97-.38,2.96-.14,1.07,1.37,1.24,1.86.5.17-.25.33-.5.5-.75.72-1.07-1.02-2.08-1.73-1.01-1.69,2.54-3.47,5.03-4.84,7.77-4.17,8.35-5.13,18.49-1.93,27.33,3.17,7.19,26.19,15.09,34,17.93l-.6-.46c.83,1.26,2.33-.13,3.1-.79,3.76-3.02,7.07-8.1,11.91-9.24.06,0-.16,0-.16,0,.02-.07.14.11,0,0,.1.07.25.12.35.2-.03-.02-.18-.11-.03-.01.03.02.08.08.1.1-.02-.02-.14-.17-.03-.04.05.07.14.31.05.06.03.1.06.2.08.3.03.14-.02-.2,0-.05.01.15,0,.3,0,.46-.63,2.65-3.34,5.67-5.5,7.9-.66.66,0,2.06.97,1.67,4.26-1.57,9.11-3.8,13.65-3.69.1.03.2.06.3.08.23.05-.21-.12.04.02s-.14-.14,0,0c.08.08.05.14-.07-.1.06.12.03.15-.03-.1.06.26,0-.11,0-.04.01.28,0-.08.01-.02,0,.07-.05.17-.07.23.09-.33,0-.01-.07.1-.06.09-.12.18-.18.27-.31.42-1.56,1.54-2.47,2.08-1.98,1.31-4.15,2.34-6.36,3.21-.98.39-.95,1.99.27,1.96,4.59-.09,11.25-.32,14.47,1.11.04.04.09.07.12.11.12.17-.14-.23-.04-.05.09.16-.02-.04-.04-.11.01.06.04.21.02,0s-.01-.06-.01,0c0,.11.07-.32,0-.11-.05.18.1-.23.05-.1-.02.04-.04.08-.07.12-.1.14.2-.18.04-.05-.05.04-.09.09-.13.14-.1.1-.36.28-.11.1-.54.4-1.29.74-1.67.89-3.44,1.26-7.06,1.92-10.71,1.54.14.02.12.01.06,0-.59-.09-1.04-.19-1.55-.38-1.22-.44-1.73,1.49-.53,1.93,3.28,1.19,7.26,2.81,9.8,4.69.37.29.71.6,1.01.95.14.15-.09-.18.07.11.04.07.08.15.13.21.13.2,0,.02,0-.01.01.06.05.12.06.18,0,.28-.02-.22,0-.05.03.26,0,.16.02.02,0,.04-.02.07-.03.11-.06.18.13-.28.05-.12-.14.27.17-.21.02-.02-3.36,1.33-8.42-1.04-12.12-2.3-.59-.21-1.31-.36-1.71.31-.26.43-.14.94.2,1.29,1.97,1.74,4.36,3.41,5.6,5.78-.03-.06.08.27.11.36.08.23.04-.16.01.14-.02.19.09-.24.01-.07,0,.01-.04.12-.04.14,0-.03.1-.26.02-.08-.07.16.17-.19.04-.06-.15.15.06-.05.06-.04,0,0-.16.1-.17.09l.14-.06s-.07.02-.1.03c-.03,0-.14.03-.17.04-.2.06.24-.01.02,0-.29.02-.58.01-.86-.02-3.55-.54-7.11-3.77-10.13-6.12-1.85-1.42-3.71-2.82-5.57-4.22-.52-.39-1.11-1.02-1.77-1.09-9.36-.92-18.67-2.17-27.85-4.25-4.58-1.14-9.39-2.23-13.37-4.81-1.06-.73-2.06,1-1.01,1.73Z"/><path class="cls-4" d="m161.39,211.75c2.24,2.24,3,7,3,7,0,0,5,5,0,0s-8.58-4.44-8.58-4.44c-3.64,2.39,6.3,7.96,6.3,7.96-19.51-2.19-15.46,3.41-3.55,4.63-26.33,6.6-4.5,8.45,1.08,4.44-11.04,7.92-7.99,9.29-7.99,9.29,3.79,1.34,11.98-6.28,11.01-4.93-7.78,10.78-.64,9.22,3.85,2.83,1.33-1.89,6-7.94,6.83-9.05,0,0,3.05-4.73.05-13.73l-2-11"/><path class="cls-8" d="m160.68,212.46c1.69,1.76,2.19,4.26,2.74,6.55.46.99,1.76,1.8,2.48,2.67.91.91,2.33-.5,1.41-1.41-3.09-3.1-6.55-6.87-11.25-6.97-1.62.04-2.39,1.92-1.89,3.29,1.37,3.08,4.7,4.82,7.42,6.55l.5-1.86c-3.03-.34-6.11-.61-9.16-.47-1.44.07-3.22.13-4.47.95-4.21,4.07,7.6,6.01,10.08,6.15l-.27-1.96c-2.44.73-15.05,3.26-13.28,6.9.63,1.22,2.45,1.4,3.65,1.52,3.85.2,8.14-.06,11.48-2.16l-1.01-1.73c-2.57,1.96-9.21,6.28-8.83,9.82.13.66.57,1.15,1.2,1.34,2.25.69,4.86-.75,6.72-1.85,1.72-.99,3.28-2.24,4.91-3.35-.13.13-.78.08-.92-.02l-.46-.6c-.05-.12,0-.66.08-.69-.85,1.05-1.56,2.31-2.26,3.48-.8,1.54-2.05,3.61-.96,5.27.5.62,1.26.76,2.01.64,3.94-.96,6.19-4.85,8.49-7.87,1.45-1.93,2.92-3.84,4.39-5.76,3.47-4.62,2.17-10.91.72-16.05-.63-3.45-1.25-6.9-1.88-10.35-.23-1.26-2.16-.73-1.93.53.63,3.45,1.25,6.9,1.88,10.35,1.14,4.2,2.26,8.81.48,13.01-1.07,1.9-3.29,4.35-4.76,6.43-2.06,2.84-5.05,7.23-7.86,7.77-.04,0-.09-.02-.12-.03-.17-.04.21.12.07.03.03.02.05.06.08.08.18.24-.25-.32.04.09-.05-.08-.04-.38-.03-.07,0-.11,0-.23,0-.34,0-.18,0,0,0,.03.49-2.33,2.06-4.24,3.34-6.19.68-1.07-.47-2.06-1.49-1.43-1.55,1.06-3.02,2.24-4.65,3.2-1.59.9-3.33,2.01-5.22,1.79-.17-.03-.22-.14-.02.02-.18-.15.22.21.07.06s.08.12.06.09c-.13-.2-.02,0,0,.05-.07-.17-.06-.23-.02.01-.04-.2.06-.32-.02-.08.04-.11.06-.24.09-.35.01-.05.11-.28.04-.11s.07-.13.09-.18c.18-.34.4-.65.63-.96,1.76-2.14,4.6-4.33,7.05-6.1,1.1-.73.14-2.36-1.01-1.73-3.25,2.04-8.88,2.4-12.08,1.55-.12-.02-.49-.37-.22-.09-.11-.13-.16-.23-.03,0-.02-.03-.03-.06-.05-.09.17.27.05.06.07.21,0,.02-.03.26,0,.14-.03.09-.1.18.03-.02-.23.33.13-.16.23-.2.19-.19-.05.02.05-.04,3.52-2.15,7.73-2.98,11.68-4.07,1.16-.29.8-1.85-.27-1.96-2.36-.22-5.41-.86-7.28-1.64-.41-.18-.81-.37-1.19-.61-.08-.05-.44-.33-.19-.12-.13-.11-.25-.23-.38-.36.11.11.07.15,0-.01-.09-.21.08.27,0,.01-.02-.07.03.31.02.05.01.26-.04.26-.02.17.03-.11.08-.09-.06.12.14-.22-.15.15-.03.02.02-.02.04-.05.07-.07.18-.15-.18.09-.03.02.07-.03.15-.08.21-.13.27-.17-.11.02.13-.06s.51-.16.77-.22c3.76-.66,7.73-.17,11.5.2,1.02.11,1.32-1.41.5-1.86-2.35-1.45-5.06-2.96-6.5-5.37-.12-.24.05.19-.02-.06-.04-.12-.07-.24-.09-.36.05.29,0,.04.01-.02.08-.26,0,.08,0-.07,0-.02.08-.22.02-.07s.03-.06.05-.07c.18-.17-.15.15.03-.04.01-.01.18-.17.18-.17.05.13-.78.12-.28.12.25,0,.49,0,.74.04,3.27.41,6.68,3.74,9.15,6.35.91.91,2.33-.5,1.41-1.41-.74-.74-1.48-1.48-2.22-2.22l.26.44c-.42-2.61-1.39-5.52-3.26-7.44-.9-.92-2.31.49-1.41,1.41h0Z"/></g><g id="ansigt-2"><path class="cls-4" d="m99.29,29.97s29.7,33.04,52.1,27.78c13.04,25.56,22.73,63.29-9.5,79.41-19.88,9.86-48.91,17.38-81.01,3.32-12.58-5.51-21.56-16.98-23.83-30.53-1.83-10.9-2.13-25.19,3.07-40.68,0,0,33.07-1.09,59.17-39.3Z"/><path class="cls-8" d="m97.1,149.2c-24.74-.25-56.33-9.56-61.04-39.08-2.41-14.35-1.28-28.43,3.33-41.82l.69-.02c-.06.44,35.11-2.95,59.1-39.92l.85.95c.09.51,31.55,33.65,51.89,27.3,12.12,22.49,24.57,65.06-9.59,81.45-11.69,5.8-27.32,11.15-45.23,11.15Zm-56.24-78.97c-7.71,24.14-6.58,57.88,20.42,69.34,32.27,14.14,61.41,6.01,80.17-3.3,32.28-15.45,20.76-55.69,9.4-77.37-16.18,4.05-40.72-15.58-51.44-27.33-23.87,34.18-53.61,38.22-58.55,38.66Z"/><g id="_øjne"><path class="cls-8" d="m56.25,99.25c2.29-4.06,6.18-9.81,11.56-9.34,5.2,1.04,8.01,6.77,10.09,11.14.67,1.11,2.34.17,1.73-1.01-6.13-14.74-17.21-16.71-25.1-1.8-.58,1.15,1.15,2.16,1.73,1.01h0Z"/><path class="cls-8" d="m118.81,98.39c1.4-4.5,4.12-10.61,9.12-11.41,5.02-.44,9.42,4.77,12.31,8.68.74,1.1,2.36.14,1.73-1.01-2.42-3.26-5.25-6.66-8.94-8.54-7.18-3.81-12.68,2.42-15.07,8.72-.41.99-.79,2-1.07,3.03-.33,1.24,1.59,1.78,1.93.53h0Z"/></g><g id="_øjenbryn-2"><path class="cls-8" d="m58.01,81.29c.01-.13-.07.37,0,.06.07-.41.19-.8.33-1.19.05-.14.07-.16,0,0,.38-.82.67-1.26,1.34-1.82-.21.18.07-.05.13-.09.16-.11.33-.2.5-.29.06-.03.33-.14.11-.05,1.99-.76,4.17-.13,6.15.7,1.2.59,2.12-1.04,1.01-1.73-4.6-2.35-10.89-1.7-11.58,4.4.03,1.31,1.92,1.33,2,0h0Z"/><path class="cls-8" d="m131.61,75.86c.12-.12.25-.23.38-.33.14-.13-.2.14-.04.03.37-.26.75-.51,1.16-.69.09-.05.68-.25,1.04-.31.11-.02.27-.03.07-.01,2.58-.39,4.69,2.26,5.92,4.59.62,1.13,2.34.12,1.73-1.01-2.3-4.7-7.17-7.82-11.67-3.68-.9.92.51,2.34,1.41,1.41h0Z"/></g><g id="kinder-2"><path class="cls-13" d="m58.61,105.38c13.53,5.28,8.95,16.73-4.49,11.22-13.53-5.28-8.95-16.73,4.49-11.22Z"/><path class="cls-13" d="m141.08,100.43c12.72-7.01,18.58,3.84,5.74,10.64-12.72,7.01-18.58-3.84-5.74-10.64Z"/></g><g id="mund-2"><g id="mund-3"><path class="cls-8" d="m83.98,111.65c2.02,26.8,36.05,25.8,32.42-2.13,0,0-10.86,15.31-32.42,2.13Z"/><path class="cls-12" d="m84.04,112.15s15.88,15.26,32.49-1.94c-1.59-14.78-8.96,14.97-31.4-3.22,0,0-1.36,4.4-1.09,5.16Z"/></g><path class="cls-13" d="m90.89,127.25s12.32-8.84,22-1c0,0-8.31,11.97-22,1Z"/></g></g><g class="cls-7"><path class="cls-8" d="m55.2,211.93c2.58,6.88,7.64,13.53,14.92,15.7.62.18.88-.78.27-.96-6.95-2.09-11.73-8.46-14.22-15-.2-.61-1.17-.35-.96.27h0Z"/></g></g></svg>