<?xml version="1.0" encoding="UTF-8"?><svg id="eksport" xmlns="http://www.w3.org/2000/svg" width="32" height="32" viewBox="0 0 32 32"><defs><style>.cls-1{opacity:.5;}.cls-2{fill:#38322d;}.cls-2,.cls-3,.cls-4,.cls-5{stroke-width:0px;}.cls-3{fill:#fff;}.cls-4{fill:#f4e787;}.cls-5{fill:#f4e6ef;}</style></defs><g id="banan"><path class="cls-4" d="m22.98,1.02l.88,4.3c18.23,14.9-4.06,34.77-22.52,22.93,0,0,.14-1.29.14-1.29,0,0,10.46-.86,15.19-8.31,6.38-10.71,5.81-10.74,3.15-16.63,0,0,.72-1.72,1.15-1.86s1.86.43,2.01.86Z"/><path class="cls-2" d="m22.85,1.06c.29,1.42.58,2.85.87,4.27.03.14.21.23.31.32.24.2.48.41.71.62,3.59,3.16,6.38,7.83,5.65,12.76-1.06,7.2-8.23,11.94-15.1,12.58-4.85.51-9.8-.84-13.88-3.48l.07.16c.06-.44.1-.89.15-1.33l-.14.14c5.56-.68,11.31-2.97,14.75-7.56,1.16-1.65,2.1-3.46,3.11-5.21,1.08-2.04,2.35-4.13,2.51-6.48.06-2.12-1.09-4.01-1.9-5.9v.11c.17-.36.43-.93.69-1.33.12-.17.24-.41.44-.45.31-.04.67.11.95.22.28.13.65.28.81.55.06.17.34.1.28-.08-.12-.31-.48-.51-.76-.64-.35-.17-.74-.31-1.13-.34-.31-.02-.5.12-.68.36-.35.5-.64,1.05-.86,1.62-.03.12.09.3.14.41.67,1.54,1.55,3.09,1.72,4.79.15,2.53-1.32,4.88-2.46,7.04-.55.99-1.12,1.97-1.69,2.94s-1.12,1.92-1.82,2.78c-3,3.65-7.56,5.65-12.11,6.58-.63.12-1.26.23-1.9.3-.1,0-.23.03-.23.15-.05.41-.1.98-.14,1.25,0,.07,0,.12.07.16,1.96,1.25,4.09,2.23,6.33,2.85,5.69,1.6,12.11.7,16.96-2.75,4.2-2.89,7.04-8.02,6.04-13.18-.73-4.08-3.46-7.49-6.6-10.06-.27-1.14-.52-2.62-.8-3.87-.03-.13-.05-.26-.08-.4-.04-.18-.31-.1-.28.08Z"/><path class="cls-2" d="m21.38,1.99s1.48-.58,1.52-1.1c0,0-.38-.72-1.96-.67,0,0-.3.15-1,1.83,0,0,.42.21,1.44-.06Z"/><path class="cls-2" d="m3.2,27.97s-.43-.72-1.72-1c-.16,1.22-.42,1.17.86,1.86,0,0,.86-.57.86-.86Z"/><g id="_øje"><path class="cls-2" d="m21.95,18.79c-.01,2.43-3.71,2.43-3.72,0,.01-2.43,3.71-2.43,3.72,0Z"/><path class="cls-3" d="m21.06,19.6c0,.49-.76.49-.75,0,0-.49.76-.49.75,0Z"/><path class="cls-3" d="m20.31,18.48c.01.9-1.4.9-1.39,0-.01-.9,1.4-.9,1.39,0Z"/></g><g id="_øje-2"><path class="cls-2" d="m27.02,19.52c-.01,2.43-3.71,2.43-3.72,0,.01-2.43,3.71-2.43,3.72,0Z"/><path class="cls-3" d="m25.38,19.22c.01.9-1.4.9-1.39,0-.01-.9,1.4-.9,1.39,0Z"/><path class="cls-3" d="m26.13,20.33c0,.49-.76.49-.75,0,0-.49.76-.49.75,0Z"/></g><g id="_øjenbryn"><path class="cls-2" d="m19.36,16.14s0-.05,0-.07c0-.03,0,.02,0,.01.01-.06.02-.12.05-.17,0,.02-.01.02,0,0,.01-.03.03-.05.05-.08.01-.02.03-.03,0,0,.02-.03.05-.05.07-.08.03-.03-.02.01.01,0,.02-.01.04-.03.07-.04,0,0,.05-.02.01,0,.1-.04.15-.05.23-.05.24-.01.46.05.69.13.07.03.16-.03.18-.1.02-.08-.03-.15-.1-.18-.36-.13-.82-.23-1.18-.02-.24.14-.37.41-.37.68,0,.18.29.18.29,0h0Z"/><path class="cls-2" d="m26.21,16.73c.11-.07.15-.08.3-.11.02,0,.03,0,0,0,.06,0,.11,0,.17,0,.03,0-.03,0,0,0,.04.01.08.02.12.03.03,0-.03-.02,0,0,.03.02.07.03.1.06.03.02-.01-.01.02.01.02.02.05.04.07.07,0,0,.01.01.02.02,0,0,.03.04.01.01.14.19.2.4.25.64.02.08.11.12.18.1.08-.02.12-.1.1-.18-.08-.38-.24-.82-.62-.99-.28-.12-.6-.06-.85.09-.15.1-.01.35.14.25h0Z"/></g><g id="mund"><path class="cls-2" d="m21.35,21.06c.38,1.1,1.27.99,1.95.21.13-.13-.08-.34-.2-.2-.24.25-.55.56-.92.52.03,0-.02,0-.03,0-.02,0-.04,0-.05-.02,0,0-.04-.02-.02,0-.12-.06-.18-.11-.27-.22-.06-.08-.16-.25-.19-.36-.05-.18-.33-.1-.28.08h0Z"/></g><g id="kinder"><path class="cls-5" d="m18.65,20.96c.9,1.04.01,1.8-.87.74-.9-1.04-.01-1.8.87-.74Z"/><path class="cls-5" d="m25.19,22.07c1.26-.55,1.72.53.45,1.06-1.26.55-1.72-.53-.45-1.06Z"/></g><g class="cls-1"><path class="cls-2" d="m14.71,24.83c-3.22,1.94-7.26,3.57-11.08,3.13-.13-.02-.27-.04-.4-.06-.09-.02-.13.12-.04.14,3.04.5,6.13-.41,8.89-1.65.92-.43,1.84-.88,2.69-1.43.09-.04.03-.18-.06-.13h0Z"/></g><g class="cls-1"><path class="cls-2" d="m8.77,30.76c3.78.83,7.8.32,11.33-1.24,5.49-2.37,10.02-7.75,9.04-14.01-.49-3.32-2.37-6.26-4.63-8.66-.06-.07-.16.03-.1.1,2.04,2.17,3.76,4.76,4.43,7.7,1.76,7.61-4.58,13.9-11.51,15.71-2.46.67-5.06.85-7.58.44-.31-.05-.62-.11-.93-.18-.09-.02-.13.12-.04.14h0Z"/></g><g class="cls-1"><path class="cls-2" d="m20.65,13.44c.69-1.24,1.36-2.52,1.79-3.89.12-.39.22-.81.19-1.21,0-.09-.15-.09-.14,0,.04.81-.31,1.58-.6,2.32-.32.77-.7,1.52-1.1,2.25-.08.15-.17.31-.26.46-.05.08.08.15.12.07h0Z"/></g><g class="cls-1"><path class="cls-2" d="m22.33,5.29c-.42-.86-.82-1.76-1-2.71-.01-.09-.15-.05-.14.04.15.88.53,1.7.9,2.51.04.08.07.15.11.23.04.08.16.01.12-.07h0Z"/></g><g class="cls-1"><path class="cls-2" d="m22.51,2.21c-.12.11-.28.24-.41.3-.02,0-.04.01-.06.02,0,0-.02,0,0,0-.1-.01-.12.14-.02.14.22-.02.38-.19.55-.32.05-.03.1-.09.05-.15-.03-.03-.07-.03-.1,0h0Z"/></g></g></svg>