<?xml version="1.0" encoding="UTF-8"?><svg id="eksport" xmlns="http://www.w3.org/2000/svg" width="1920" height="1081" viewBox="0 0 1920 1081"><defs><style>.cls-1{fill:none;stroke:#1a1815;stroke-miterlimit:10;}.cls-2{fill:#52583d;}.cls-2,.cls-3,.cls-4,.cls-5,.cls-6{stroke-width:0px;}.cls-3{fill:#5c6344;}.cls-4{fill:#1a1815;}.cls-5{fill:#040303;}.cls-6{fill:#695741;}</style></defs><g id="sand"><g id="palme"><g id="stamme"><path class="cls-6" d="m180.43,1477.9l42.88,4.23c-48.57-350.42-152.37-465.96-165.12-412.79,56.52,40.1,116.5,306.57,109.48,402.02l12.76,6.54"/><path class="cls-4" d="m180.43,1477c14.29,1.41,28.58,2.82,42.88,4.23l-.87,1.14c-11.71-83.67-27.79-166.97-52.79-247.76-15.18-47.78-32.63-95.49-59.21-138.23-8.86-13.35-18.25-27.54-32.25-35.95-9.67-5.56-16.84-1.49-19.13,9.15l-.41-1.01c62.77,48.79,117.05,321.14,109.92,402.8l-.44-.77c4.25,2.18,8.51,4.36,12.76,6.54,1.03.53.12,2.08-.91,1.55-4.25-2.18-8.51-4.36-12.76-6.54-.26-.13-.47-.48-.44-.77,1.74-23.98-.33-48.29-2.98-72.12-11.89-93.5-32.12-187.22-69.23-274.15-8.65-18.41-17.79-37.48-32.73-51.67-1.3-1.18-2.66-2.29-4.09-3.31-.34-.24-.51-.6-.41-1.01,1.01-4.18,2.83-8.62,6.5-11.14,14.86-8.85,34.75,18.22,42.33,28.78,26.85,39.4,44.12,84.44,59.42,129.34,25.86,78.35,42.59,159.43,55,240.91,1.25,8.29,2.45,16.6,3.6,24.9.07.51-.22,1.2-.87,1.14-14.29-1.41-28.58-2.82-42.88-4.23-1.14-.11-1.15-1.91,0-1.79h0Z"/><path class="cls-1" d="m89.6,1068.44s2.52,14.96-10.77,23.33"/><path class="cls-1" d="m71.75,1055.05s2.73,12.28-7.25,19.32"/></g><g id="blade"><path class="cls-3" d="m52.06,1063.01l-3.41-102.13s-100.69-16.14-32.22-56.49c0,0-38.26-44.38-70.49-4.03,0,0-18.12-32.28,42.29-52.45,0,0-38.26-14.12-70.49,14.12,0,0-18.12-10.09,16.11-54.47,0,0-26.18-68.59-102.71-4.03,0,0,60.42-137.18,165.14-40.35,104.72,96.83,97.44,182.07,55.77,299.83Z"/><path class="cls-4" d="m51.16,1063.01c-1.14-34.04-2.27-68.09-3.41-102.13l.66.87c-37.13-6.33-87.27-26.08-32.44-58.13-.06.47-.12.94-.18,1.41-20.31-22.01-48.49-30.78-69.22-4.03-.36.45-1.15.28-1.41-.18-7.31-14.09,1.04-30.42,12.97-38.97,8.85-6.8,19.34-11.27,29.86-14.8v1.73c-15.41-5.03-32.63-4.64-47.87.86-8,2.95-15.33,7.45-21.75,13.03-.31.27-.72.35-1.09.14-4.35-2.44-5.43-8.82-5.21-13.27,1.38-15.68,11.27-29.16,20.27-41.48l.36-.47.27.22c.02-.07-.14-.35-.17-.43-20.4-42.68-60.3-35.35-92.53-10-2.9,2.18-5.73,4.45-8.51,6.79-.8.68-1.82-.15-1.41-1.09,1.84-4.18,4.07-8.21,6.34-12.15,31.36-54.57,82.35-84.8,139.71-44.85,21.34,15.08,39.58,34.24,56.25,54.26,63.49,76.62,56.55,156.47,26.24,245.47-1.94,5.84-3.94,11.65-5.99,17.45-.38,1.08-2.12.62-1.73-.48,7.91-22.38,15.18-45.05,20.51-68.2,24.18-99.52-7.08-170.12-82.18-236.2-64.9-56.46-123.51-23.65-157.6,45.61-.47-.36-.94-.72-1.41-1.09,15.8-13.29,34.99-26.48,56.28-27.84,20.38-1.67,38.76,12.03,46.97,30.1.3.63.7,1.33.88,2,.2.76-.26,1.16-.75,1.8-7.79,10.47-15.7,21.6-19.05,34.41-1.52,5.84-2,13.91,3.34,17.89l-1.09.14c19.11-17.05,47.14-22.23,71.36-14.35.83.31.87,1.44,0,1.73-15.04,5.23-31.21,12.19-40.07,26.13-4.53,7.42-5.59,17.14-1.68,25.01l-1.41-.18c19.09-24.54,45.23-20.65,66.47-1.21,1.84,1.65,3.66,3.37,5.28,5.25.37.43.34,1.1-.18,1.41-5.4,3.19-10.7,6.69-15.28,10.99-7.93,6.98-11.72,16.56-2.99,24.7,5.08,4.89,11.84,8.02,18.34,10.55,9.08,3.52,18.54,5.99,28.08,7.9,1.26.23,2.63.37,3.87.71.39.06.65.5.66.87.38,11.53.77,23.05,1.15,34.58.75,22.52,1.5,45.03,2.25,67.55.04,1.16-1.76,1.15-1.79,0Z"/><path class="cls-3" d="m51.91,1055.87l-24.23-42.18s-25.13-5.38-34.1,7.18c0,0-23.33-12.56-17.95-37.69,0,0-34.1,19.74-34.1,28.72l-32.31-1.79s-8.97-14.36-8.97-34.1c0,0-32.31,5.38-46.66,50.25,0,0-22.44-12.99-16.61-45.98,0,0-30.06,29.83-28.26,47.77,0,0-44.87-10.77-28.72-50.25,0,0-46.04,35.9-47.25,78.07-60.48-207.05,322.82-191.76,319.15,0Z"/><path class="cls-4" d="m51.14,1056.33c-8.06-14.04-16.18-28.16-24.22-42.16-.15.22.8.23.37.36-.17.05-.58-.11-.75-.14-10.63-1.53-24.81-2.49-32.19,6.94-.29.4-.76.57-1.23.32-13.48-7.27-22.08-23.56-18.36-38.7l1.32,1.01c-10.23,6.22-20.72,12.54-29.29,21-1.73,1.76-4.31,4.27-4.36,6.94,0,.46-.4.92-.9.9-9.94-.55-19.88-1.1-29.82-1.66-.79-.04-1.71.03-2.48-.14-.94-.21-1.34-1.4-1.76-2.19-5.25-10.09-8.05-21.44-8.11-32.81.38.29.76.58,1.14.87-14.41,3.26-26.41,13.72-34.63,25.66-5,7.36-8.68,15.51-11.41,23.96-.18.55-.8.84-1.32.54-15.28-9.85-20.44-29.85-17.02-46.99.5.29,1,.58,1.5.87-10.55,11.15-28.72,31.12-28,47.14.06.6-.61.99-1.14.87-24.59-6.76-40.27-25.86-29.34-51.36.5.29,1,.58,1.5.87-22.95,19.33-45.42,46.24-46.99,77.44-.03,1-1.47,1.23-1.76.24-14.87-49.22-5.29-98.18,40.36-126.71,79.44-49.09,221.49-21.02,266.22,64.2,10.09,19.06,14.81,40.75,14.34,62.27-.02,1.15-1.82,1.16-1.79,0,1.74-52.47-29.98-96.85-75.09-121.17-99.64-57.15-285.49-28.72-242.31,120.93-.59.08-1.18.16-1.76.24,1.68-32,24.06-58.79,47.51-78.71.61-.47,1.88-.07,1.5.87-10.67,24.61,4.42,42.62,28.09,49.15-.38.29-.76.58-1.14.87-1.08-15.09,15.12-33.51,24.66-44.35,1.26-1.37,2.54-2.74,3.86-4.05.68-.67,1.65.03,1.5.87-3.21,16.41,1.61,35.46,16.19,44.97-.44.18-.88.36-1.32.54,7.09-22.63,23.2-45.04,47.29-50.88.57-.1,1.13.24,1.14.87.13,11.68,3,23.5,8.85,33.65l-.77-.44c10.77.6,21.54,1.2,32.31,1.79-.3.3-.6.6-.9.9.85-9.61,26.24-24.31,34.54-29.49.71-.41,1.47.27,1.32,1.01-3.46,14.61,4.84,29.48,17.54,36.68l-1.23.32c7.33-9.55,20.97-9.44,31.85-8.13,1.06.15,3.06.08,3.81.98,8.09,13.99,16.12,28.12,24.21,42.15.58,1-.97,1.91-1.55.91Z"/><path class="cls-3" d="m58.19,1062.16s55.59-94.46,62.95-87.25c0,0-3.68,34.24,16.56,28.84,0,0,0-41.45,33.12-73.89l5.52,27.03,22.08-36.05s20.24,18.02,47.84,12.62c0,0-16.56-43.62,0-49.75-5.86,18.99,28.09,66.66,69.92,22.71,0,0-18.4-34.24-5.52-46.86,0,0,91.99-1.8,97.51-7.21-122.27-92.23-312.12-45.11-349.98,209.81Z"/><path class="cls-4" d="m57.42,1061.7c10.24-17.26,20.78-34.35,31.85-51.09,6.81-10.28,13.71-20.75,21.87-30.04,2.07-2.36,4.46-5.27,7.41-6.57.89-.39,1.95-.61,2.82-.06.96.61.6,1.67.54,2.63-.71,10.18.57,30.46,15.56,26.29-.22.29-.44.58-.66.87,1.23-27.78,13.57-55.04,33.38-74.53.46-.45,1.36-.28,1.5.4,1.84,9.01,3.68,18.02,5.52,27.03l-1.64-.21c6.45-10.53,12.9-21.06,19.35-31.59.91-1.49,1.82-2.97,2.73-4.46.32-.51.97-.57,1.41-.18,12.9,10.52,30.51,15.63,46.96,12.39-.21.37-.42.74-.63,1.1-4.12-12.09-15.03-44.01.63-50.85.65-.25,1.29.49,1.1,1.1-2.4,9.81,2.98,19.95,9.17,27.28,18.51,20.48,42.55,12.92,59.25-5.44l-.14,1.09c-6.2-11.9-15.39-34.35-6.65-46.51,1.31-2.23,3.28-1.67,5.44-1.78,22.55-.58,45.11-1.29,67.61-2.96,5.28-.4,10.57-.86,15.82-1.56,3.22-.48,7.17-.68,9.92-2.35.06.47.12.94.18,1.41-56.64-43.55-135.13-57.31-201.12-27.4-63.61,27.92-105.73,89.2-127.58,153.33-9.37,27.04-15.75,55.05-19.96,83.34-.17,1.14-1.9.65-1.73-.48,9.2-61.45,28.71-123.09,67.16-172.72,36.3-47.82,93.33-80.65,154.04-81.27,43.06-.97,85.82,13.03,121.23,37.28,3,2.05,5.95,4.17,8.86,6.36,2.29,2.35-5.32,3.42-6.58,3.61-30.24,4.16-60.92,4.27-91.38,5.27.79-.29-.24.65-.45.93-6.29,9.24-2.3,21.49.91,31.2,1.64,4.58,3.57,9.07,5.83,13.38.19.36.14.79-.14,1.09-11.32,11.81-27.34,22.04-44.29,16.99-15.69-4.52-30.91-23.92-27.12-40.57l1.1,1.1c-12.75,5.27-4.24,33.43-1.18,43.4.57,1.76,1.15,3.52,1.8,5.24.16.43-.18,1.02-.63,1.1-17.15,3.25-35.28-1.8-48.71-12.85.47-.06.94-.12,1.41-.18-7.36,12.02-14.72,24.03-22.08,36.05-.38.62-1.48.57-1.64-.21-1.84-9.01-3.68-18.02-5.52-27.03.5.13,1,.26,1.5.4-19.41,19.18-31.7,45.91-32.86,73.26,0,.39-.28.77-.66.87-5.87,1.51-11.31-.19-14.37-5.6-3.88-7.21-3.88-16.08-3.34-23.98.18-.19.22.44.22.46,0,.04-.06-.12-.24-.08-2.22.37-4.15,2.63-5.75,4.18-8.09,8.39-14.62,18.45-21.1,28.09-7.69,11.44-15.06,23.11-22.28,34.85-4.1,6.52-7.93,13.23-11.95,19.78-.07.1-.12.2-.18.3-.59.99-2.14.09-1.55-.91Z"/><path class="cls-3" d="m50.12,1066.36c-.58.73,59.9-40.22,112.27-32.74-14.98,12.86-50.1,52.66,11.22,50.5,0,0-3.7-17.46,26.2-33.05,0,0-32.75,27.71,25.7,51.89,0,0,21.04-50.64,52.84-48.77,0,0-24.31,11.22-11.22,43.02,0,0,21,26.46,54.45,5.75,0,0,8.93-16.96,7.16-36.61,0,0,18.81,43.95,63.7,51.43,0,0-13.09-35.22,0-36.31,0,0,24.31.78,33.67,19.48-27.28-150.92-270.42-199.62-376-34.6Z"/><path class="cls-4" d="m50.9,1066.81l.09-.68-.87-.66c22.46-14.24,50.72-27,78.24-31.79,11.32-1.94,22.87-2.51,34.27-.92.66.09.87,1.09.4,1.5-27.38,24.21-38.28,51.51,10.59,48.97-.29.38-.58.76-.87,1.14-1.34-16.02,13.96-27.32,26.62-34.06.86-.45,1.9.72,1.09,1.41-11.13,9.76-11.71,24.16-.96,34.47,7.28,7.25,16.89,12.01,26.26,15.91l-1.1.63c9.59-21.07,27.51-50.14,53.7-49.43.81.04,1.32,1.27.45,1.67-15.85,8.23-17.51,26.61-11.01,41.65,3.56,4.45,8.68,7.74,13.81,10.17,12.92,5.78,27.84,2.99,39.36-4.61,5.23-11.07,7.85-23.57,6.88-35.83-.07-.86,1.32-1.27,1.67-.45,11.88,25.22,35.07,46.48,63.16,51.02-.37.37-.74.74-1.1,1.1-2.68-7.86-12.54-36.31,1.24-37.43,13.54.83,27.68,7.46,34.07,19.91-.55.23-1.09.46-1.64.69-12.8-74.13-80.94-123.51-152.29-134.3-30.57-4.9-62.15-3.47-92.12,4.31-49.04,12.45-92.79,43.05-122.15,84.16-2.71,3.74-5.3,7.57-7.79,11.45-.62.97-2.18.07-1.55-.91,54.07-86.65,160.43-124.14,257.26-92.77,54.85,17.24,103.98,59.82,118.06,116.95.9,3.51,1.67,7.06,2.32,10.63.17.93-1.15,1.66-1.64.69-5.97-11.7-18.94-17.81-31.6-18.95-10.32-.93-5.28,18.34-3.98,23.47.99,3.92,2.15,7.83,3.56,11.62.26.71-.5,1.21-1.1,1.1-28.64-4.91-51.98-26.1-64.24-51.84.56-.15,1.11-.3,1.67-.45.98,12.63-1.74,25.59-7.23,36.95-17.38,12.33-41.06,11.37-55.56-5.03-2.64-4.4-3.66-10.14-4.33-15.21-1.36-11.71,4.54-24.41,15.37-29.65l.45,1.67c-25.45-.59-42.69,28.1-51.97,48.11-.17.4-.61.83-1.1.63-8.84-3.68-17.68-8.05-24.94-14.4-13.47-11.15-14-27.1-1.15-38.98.36.47.72.94,1.09,1.41-11.63,6.16-24.91,15.66-25.9,29.95-.19,1.28.75,3.06-.76,3.22-50.44,2.43-40.67-26.65-11.86-52.03.13.5.26,1,.4,1.5-38.87-4.65-76.89,12.15-109.67,31.5-.58.35-1.63,1.31-2.37,1.28-.67,0-1.14-.77-.77-1.36.62-.97,2.18-.07,1.55.91Z"/><path class="cls-3" d="m65.88,1037.21c-101.81-67.04-379.85,92.21-210.93,248.39,0,0-25.63-76.88-7.89-70.97l35.48,27.6s-11.83-69,5.91-82.8c-.77,30.49,12.83,67.35,47.33,30.67,0,0-3.96-62.21,9.84-66.15,0,0-7.89,37.46,35.48,37.46,0,0-9.86-33.51,3.94-69,0,0,21.68,25.63,29.57,21.68,0,0-1.97-27.6,19.71-51.26l23.85,6.5c11.96-20.33,24.57-3.59,7.69-32.12Z"/><path class="cls-4" d="m65.43,1037.99c-104.55-66.84-376.87,93.94-209.85,246.98l-1.5.87c-2.56-8.56-25.05-75.33-7.62-72.3.95.19,1.51.67,2.25,1.24,3.47,2.7,6.93,5.39,10.4,8.09,8.02,6.24,16.05,12.48,24.07,18.72-.5.29-1,.58-1.5.87-2.92-19.25-9.71-70.41,6.14-83.67.57-.45,1.55-.21,1.53.63-.95,33.61,14.49,64.28,45.8,30.03l-.26.63c-.52-12.77-3.11-62.55,10.5-67.02.69-.21,1.24.46,1.1,1.1-3.6,23.84,11.66,36.83,34.62,36.32-.29.38-.58.76-.87,1.14-5.69-22.78-4.43-47.51,3.94-69.47.22-.57,1.02-.96,1.5-.4,4.93,5.48,20.93,23.93,28.48,21.54-.15.26-.3.52-.44.77-.44-18.98,7.21-37.94,19.98-51.89.21-.23.58-.31.87-.23,7.95,2.17,15.9,4.33,23.85,6.5-.34.14-.68.27-1.01.41,3.07-5.16,7.05-9.18,12.42-11.87,3.83-1.62,3.96-2.71,2.4-6.35-1.93-4.53-4.62-8.77-7.12-13-.59-1,.96-1.9,1.55-.91,2.38,4.02,4.86,8.05,6.81,12.3.79,1.73,1.85,3.91,1.39,5.88-1.11,3.31-5.63,3.83-8.1,5.94-3.27,2.31-5.76,5.5-7.79,8.91-.2.34-.63.52-1.01.41-7.95-2.17-15.9-4.33-23.85-6.5l.87-.23c-12.39,13.63-19.95,32.09-19.45,50.62.02.29-.18.65-.44.77-8.68,3.53-25.09-15.74-30.66-21.83.5-.13,1-.26,1.5-.4-8.29,21.59-9.65,46.1-3.94,68.52.16.56-.29,1.14-.87,1.14-11.66-.03-24.37-2.85-31.49-12.89-5.16-7.36-6.36-16.99-4.86-25.7.37.37.74.74,1.1,1.1-10.71,4.31-9.67,42.53-9.64,53.26.06,4,.25,8,.45,11.98-.02.22-.07.39-.19.59-2.35,2.82-5.34,5.26-8.14,7.67-30.51,24.88-41.92-13.67-40.8-38.88l1.53.63c-15.24,13.07-8.48,63.03-5.68,81.92.16.92-.78,1.43-1.5.87-11.83-9.2-23.66-18.39-35.48-27.6.62.38.06.1-.14.07-3.17-.95-4.18,2.64-4.42,5.12-.49,4.16,0,8.48.58,12.61,2.51,17.75,8.07,34.89,13.26,51.99.03.1.07.2.1.3.3.89-.88,1.45-1.5.87-52-47.04-73.29-110.34-30.75-171.68,41.02-58.84,127.1-100.24,198.75-93.04,15.49,1.79,30.91,6.3,44.02,14.92.96.63.06,2.19-.91,1.55Z"/></g></g><g id="palme-2"><g id="blade-2"><path class="cls-2" d="m1458.22,1131.01l-3.1-91.67s-91.51-14.49-29.28-50.7c0,0-34.77-39.84-64.06-3.62,0,0-16.47-28.97,38.43-47.08,0,0-34.77-12.68-64.06,12.68,0,0-16.47-9.05,14.64-48.89,0,0-23.79-61.57-93.34-3.62,0,0,54.91-123.13,150.08-36.22,95.17,86.92,88.55,163.42,50.68,269.13Z"/><path class="cls-5" d="m1457.4,1131.01c-1.03-30.56-2.06-61.11-3.1-91.67l.6.78c-33.74-5.68-79.31-23.41-29.48-52.17-.06.42-.11.84-.17,1.27-18.46-19.75-44.07-27.63-62.9-3.62-.33.41-1.05.25-1.28-.16-6.64-12.65.95-27.3,11.79-34.98,8.04-6.1,17.58-10.12,27.13-13.29v1.55c-14-4.52-29.66-4.16-43.5.77-7.27,2.65-13.93,6.69-19.76,11.7-.28.24-.66.31-.99.13-3.96-2.19-4.93-7.92-4.73-11.91,1.25-14.08,10.24-26.17,18.43-37.24l.33-.42.25.2c.02-.06-.13-.32-.16-.38-18.54-38.31-54.8-31.73-84.09-8.98-2.64,1.96-5.21,4-7.73,6.09-.73.61-1.66-.14-1.28-.98,1.67-3.75,3.7-7.37,5.76-10.91,28.5-48.98,74.84-76.12,126.97-40.25,19.39,13.53,35.97,30.74,51.12,48.7,57.7,68.78,51.39,140.44,23.84,220.33-1.76,5.24-3.58,10.46-5.44,15.66-.35.97-1.92.55-1.57-.43,7.19-20.09,13.8-40.44,18.64-61.22,21.98-89.33-6.43-152.7-74.68-212.02-58.98-50.68-112.25-21.23-143.23,40.94-.43-.33-.85-.65-1.28-.98,14.36-11.93,31.8-23.77,51.15-24.99,18.52-1.5,35.23,10.8,42.69,27.02.27.57.64,1.19.8,1.8.18.69-.23,1.04-.68,1.62-7.08,9.4-14.27,19.39-17.31,30.89-1.38,5.24-1.82,12.49,3.04,16.06l-.99.13c17.37-15.3,42.84-19.95,64.85-12.88.75.27.79,1.29,0,1.55-13.67,4.69-28.37,10.94-36.42,23.45-4.12,6.66-5.08,15.38-1.53,22.45l-1.28-.16c17.35-22.02,41.11-18.53,60.41-1.09,1.67,1.48,3.33,3.03,4.8,4.71.34.39.31.99-.17,1.27-4.9,2.86-9.73,6-13.89,9.86-7.2,6.26-10.65,14.86-2.72,22.17,4.62,4.39,10.76,7.2,16.66,9.47,8.25,3.16,16.85,5.37,25.52,7.09,1.15.2,2.39.33,3.51.64.36.06.59.45.6.78.35,10.35.7,20.69,1.05,31.04.68,20.21,1.37,40.42,2.05,60.64.04,1.04-1.6,1.04-1.63,0Z"/><path class="cls-2" d="m1458.08,1124.61l-22.02-37.86s-22.84-4.83-30.99,6.44c0,0-21.2-11.28-16.31-33.83,0,0-30.99,17.72-30.99,25.78l-29.36-1.61s-8.16-12.89-8.16-30.61c0,0-29.36,4.83-42.41,45.11,0,0-20.4-11.66-15.09-41.27,0,0-27.32,26.77-25.68,42.88,0,0-40.78-9.67-26.1-45.11,0,0-41.84,32.22-42.94,70.08-54.96-185.85,293.38-172.12,290.05,0Z"/><path class="cls-5" d="m1457.38,1125.02c-7.33-12.6-14.71-25.27-22.01-37.84-.13.2.73.21.34.32-.15.05-.53-.1-.68-.13-9.66-1.38-22.55-2.24-29.25,6.23-.27.36-.69.51-1.12.29-12.25-6.52-20.07-21.15-16.69-34.74l1.2.91c-9.3,5.59-18.83,11.26-26.62,18.85-1.57,1.58-3.92,3.83-3.96,6.23,0,.42-.37.83-.82.81-9.03-.5-18.07-.99-27.1-1.49-.71-.04-1.55.03-2.25-.12-.86-.19-1.22-1.26-1.6-1.97-4.77-9.05-7.32-19.24-7.37-29.45.34.26.69.52,1.03.78-13.1,2.93-24,12.32-31.47,23.04-4.54,6.61-7.89,13.92-10.37,21.51-.16.49-.73.75-1.2.48-13.89-8.84-18.58-26.8-15.47-42.18l1.36.78c-9.59,10.01-26.1,27.93-25.45,42.31.05.54-.56.89-1.03.78-22.35-6.07-36.6-23.21-26.67-46.1l1.36.78c-20.86,17.35-41.28,41.5-42.7,69.51-.03.9-1.34,1.1-1.6.21-13.52-44.18-4.81-88.13,36.68-113.74,72.2-44.06,201.29-18.87,241.95,57.63,9.17,17.11,13.46,36.58,13.03,55.89-.02,1.04-1.65,1.04-1.63,0,1.58-47.1-27.25-86.93-68.24-108.76-90.56-51.3-259.45-25.78-220.21,108.55l-1.6.21c1.53-28.72,21.87-52.77,43.18-70.65.55-.42,1.71-.06,1.36.78-9.7,22.09,4.02,38.26,25.53,44.12l-1.03.78c-.99-13.54,13.74-30.08,22.42-39.81,1.15-1.23,2.31-2.46,3.51-3.64.62-.61,1.5.03,1.36.78-2.92,14.73,1.46,31.82,14.72,40.36-.4.16-.8.32-1.2.48,6.44-20.31,21.09-40.43,42.98-45.67.52-.09,1.03.21,1.03.78.12,10.49,2.73,21.09,8.04,30.2l-.7-.4c9.79.54,19.57,1.07,29.36,1.61-.27.27-.54.54-.82.81.78-8.62,23.85-21.82,31.39-26.47.65-.37,1.34.24,1.2.91-3.14,13.11,4.4,26.46,15.94,32.92l-1.12.29c6.66-8.57,19.06-8.48,28.95-7.3.97.13,2.78.07,3.46.88,7.35,12.56,14.65,25.24,22,37.83.52.9-.89,1.71-1.41.81Z"/><path class="cls-2" d="m1463.79,1130.25s50.52-84.79,57.21-78.32c0,0-3.34,30.74,15.05,25.88,0,0,0-37.21,30.1-66.33l5.02,24.27,20.07-32.36s18.39,16.18,43.47,11.32c0,0-15.05-39.15,0-44.65-5.32,17.05,25.53,59.83,63.54,20.39,0,0-16.72-30.74-5.02-42.06,0,0,83.61-1.62,88.62-6.47-111.12-82.79-283.66-40.49-318.06,188.33Z"/><path class="cls-5" d="m1463.09,1129.84c9.31-15.49,18.89-30.83,28.94-45.86,6.19-9.23,12.46-18.63,19.88-26.96,1.88-2.12,4.06-4.73,6.74-5.89.8-.35,1.77-.55,2.56-.05.87.54.54,1.5.49,2.36-.65,9.14.52,27.34,14.14,23.6-.2.26-.4.52-.6.78,1.12-24.94,12.33-49.4,30.34-66.9.41-.4,1.24-.25,1.36.36,1.67,8.09,3.34,16.18,5.02,24.27l-1.49-.19c5.86-9.45,11.72-18.9,17.58-28.35.83-1.33,1.65-2.67,2.48-4,.29-.46.88-.51,1.28-.16,11.72,9.45,27.73,14.03,42.68,11.12-.19.33-.38.66-.57.99-3.74-10.85-13.66-39.5.57-45.64.59-.22,1.17.44,1,.99-2.18,8.81,2.71,17.91,8.33,24.48,16.83,18.39,38.67,11.59,53.84-4.88l-.13.98c-5.64-10.69-13.98-30.83-6.04-41.74,1.19-2.01,2.98-1.5,4.94-1.6,20.49-.52,41-1.16,61.44-2.66,4.8-.36,9.6-.77,14.37-1.4,2.93-.43,6.52-.61,9.02-2.11l.17,1.27c-51.47-39.09-122.81-51.44-182.78-24.59-57.81,25.06-96.09,80.06-115.94,137.63-8.52,24.27-14.32,49.42-18.14,74.8-.15,1.02-1.73.59-1.57-.43,8.36-55.15,26.09-110.49,61.04-155.03,32.99-42.93,84.82-72.39,140-72.95,39.13-.87,78,11.7,110.17,33.47,2.73,1.84,5.41,3.74,8.05,5.71,2.08,2.11-4.84,3.07-5.98,3.24-27.48,3.74-55.37,3.84-83.04,4.73.72-.26-.21.59-.41.83-5.72,8.29-2.09,19.29.82,28.01,1.49,4.11,3.24,8.14,5.3,12.01.18.32.13.71-.13.98-10.29,10.6-24.85,19.78-40.25,15.25-14.26-4.06-28.09-21.47-24.65-36.42l1,.99c-11.58,4.73-3.86,30.01-1.07,38.95.51,1.58,1.04,3.16,1.64,4.71.15.38-.17.91-.57.99-15.59,2.92-32.06-1.62-44.27-11.53.43-.05.85-.11,1.28-.16-6.69,10.79-13.38,21.57-20.07,32.36-.34.56-1.34.51-1.49-.19-1.67-8.09-3.34-16.18-5.02-24.27.45.12.91.24,1.36.36-17.64,17.21-28.81,41.21-29.86,65.76,0,.35-.25.69-.6.78-5.33,1.36-10.28-.17-13.06-5.03-3.52-6.47-3.53-14.43-3.04-21.52.17-.17.2.4.2.41,0,.04-.05-.11-.21-.07-2.02.33-3.77,2.36-5.22,3.75-7.35,7.53-13.29,16.56-19.17,25.21-6.99,10.27-13.68,20.74-20.25,31.28-3.73,5.86-7.2,11.87-10.86,17.76-.06.09-.11.18-.16.27-.53.89-1.94.08-1.41-.81Z"/><path class="cls-2" d="m1456.46,1134.02c-.53.65,54.44-36.1,102.04-29.38-13.61,11.54-45.53,47.27,10.2,45.33,0,0-3.36-15.67,23.81-29.66,0,0-29.76,24.87,23.35,46.57,0,0,19.12-45.45,48.02-43.77,0,0-22.1,10.07-10.2,38.61,0,0,19.08,23.75,49.49,5.16,0,0,8.11-15.23,6.51-32.86,0,0,17.1,39.45,57.89,46.17,0,0-11.9-31.62,0-32.6,0,0,22.1.7,30.6,17.49-24.8-135.46-245.76-179.18-341.71-31.06Z"/><path class="cls-5" d="m1457.16,1134.43l.08-.61-.79-.59c20.41-12.78,46.1-24.23,71.11-28.54,10.29-1.74,20.78-2.26,31.15-.83.6.08.79.98.36,1.35-24.88,21.73-34.79,46.23,9.62,43.95-.26.34-.52.68-.79,1.02-1.22-14.38,12.68-24.52,24.19-30.57.78-.4,1.73.65.99,1.27-10.11,8.76-10.65,21.69-.87,30.94,6.61,6.51,15.35,10.78,23.87,14.28l-1,.56c8.72-18.91,25.01-45,48.81-44.36.74.04,1.2,1.14.41,1.5-14.4,7.38-15.92,23.88-10,37.39,3.24,3.99,7.88,6.95,12.55,9.13,11.74,5.19,25.3,2.69,35.77-4.13,4.76-9.94,7.14-21.16,6.25-32.16-.07-.77,1.2-1.14,1.52-.41,10.8,22.64,31.87,41.72,57.4,45.8l-1,.99c-2.44-7.05-11.39-32.59,1.13-33.6,12.3.75,25.15,6.69,30.96,17.87-.5.21-.99.41-1.49.62-11.63-66.54-73.56-110.86-138.4-120.55-27.78-4.4-56.49-3.12-83.72,3.87-44.57,11.18-84.33,38.64-111.01,75.54-2.46,3.36-4.81,6.79-7.08,10.28-.56.87-1.98.06-1.41-.81,49.14-77.77,145.8-111.43,233.8-83.27,49.85,15.47,94.5,53.7,107.3,104.98.82,3.15,1.52,6.34,2.11,9.54.15.84-1.04,1.49-1.49.62-5.43-10.5-17.22-15.98-28.72-17.01-9.38-.83-4.8,16.46-3.62,21.07.9,3.52,1.96,7.02,3.23,10.43.24.63-.45,1.08-1,.99-26.03-4.41-47.24-23.43-58.38-46.54.51-.14,1.01-.27,1.52-.41.89,11.34-1.58,22.97-6.57,33.17-15.79,11.07-37.32,10.21-50.49-4.52-2.4-3.95-3.33-9.11-3.94-13.65-1.24-10.51,4.13-21.91,13.97-26.61l.41,1.5c-23.13-.53-38.8,25.23-47.23,43.18-.15.36-.56.75-1,.56-8.04-3.31-16.07-7.22-22.67-12.93-12.24-10.01-12.72-24.32-1.05-34.99l.99,1.27c-10.57,5.53-22.64,14.06-23.54,26.89-.17,1.15.68,2.75-.69,2.89-45.84,2.18-36.96-23.93-10.78-46.7.12.45.24.9.36,1.35-35.33-4.17-69.88,10.91-99.66,28.27-.52.32-1.48,1.18-2.16,1.15-.61,0-1.03-.69-.7-1.22.57-.87,1.98-.06,1.41.81Z"/></g></g></g></svg>