<?xml version="1.0" encoding="UTF-8"?><svg id="eksport" xmlns="http://www.w3.org/2000/svg" width="1522" height="913" viewBox="0 0 1522 913"><defs><style>.cls-1{fill:#eaba8b;stroke:#5b4f41;}.cls-1,.cls-2,.cls-3{stroke-miterlimit:10;}.cls-2,.cls-4{fill:#38322d;}.cls-2,.cls-3{stroke:#38322d;}.cls-5{fill:#e9eff4;}.cls-5,.cls-6{opacity:.5;}.cls-5,.cls-7,.cls-8,.cls-4,.cls-9,.cls-10,.cls-11,.cls-12,.cls-13,.cls-14,.cls-15,.cls-16{stroke-width:0px;}.cls-17{opacity:.6;}.cls-8{fill:#7a6958;}.cls-9{fill:#c96;}.cls-10{fill:#92785b;}.cls-11{fill:#fff;}.cls-12{fill:#f4e787;}.cls-13{fill:#f0ad5f;}.cls-14{fill:#e5bc9c;}.cls-15{fill:#fcfcfc;}.cls-16{fill:#f4e6ef;}.cls-3{fill:none;stroke-width:.5px;}</style></defs><path id="himmel" class="cls-1" d="m167.04,1.31h1188.19c87.01,0,157.65,70.64,157.65,157.65v595.07c0,87.01-70.64,157.65-157.65,157.65H167.29c-86.81,0-157.29-70.48-157.29-157.29V158.36C10,71.68,80.37,1.31,167.04,1.31Z"/><g id="kokosnød"><path class="cls-10" d="m757.1,374.53c-237.94,30.4-227.81-313.69-5.2-295.46,194.58,26.48,204.47,279.27,5.2,295.46Z"/><path class="cls-4" d="m727.94,377.76c-214.16-2.95-185.62-319.62,24.06-299.98,192.13,23.93,209.36,280.66,5.23,298.05-10.37,1.32-20.12,1.93-29.29,1.93Zm7.03-298.09c-199.63-2.47-212.63,321.36,21.96,293.57h.06c201.19-17.11,183.57-269.45-5.27-292.88-5.68-.46-11.27-.7-16.75-.7Z"/><g id="mund"><path class="cls-4" d="m713.1,258.13c-1.43,34.95,42.71,38.79,42.24,2.14,0,0-16.35,18.15-42.24-2.14Z"/><path class="cls-15" d="m713.1,258.78s18.22,22.13,42.3,2.39c.17-19.35-13.84,18.01-40.11-8.9,0,0-2.42,5.48-2.19,6.51Z"/></g><g id="_øje"><path class="cls-4" d="m716.75,222.9c-.63,36.78-55.34,36.78-55.97,0,.63-36.78,55.34-36.78,55.97,0Z"/><path class="cls-11" d="m692.02,218.35c.2,13.51-21.02,13.51-20.82,0-.2-13.51,21.02-13.51,20.82,0Z"/><path class="cls-11" d="m703.29,235.12c.11,7.3-11.37,7.3-11.26,0-.11-7.3,11.37-7.3,11.26,0Z"/></g><g id="_øje-2"><path class="cls-4" d="m807.98,223.99c-.63,36.78-55.34,36.78-55.97,0,.63-36.78,55.34-36.78,55.97,0Z"/><path class="cls-11" d="m783.25,219.43c.2,13.51-21.02,13.51-20.82,0-.2-13.51,21.02-13.51,20.82,0Z"/><path class="cls-11" d="m794.52,236.21c.11,7.3-11.37,7.3-11.26,0-.11-7.3,11.37-7.3,11.26,0Z"/></g><g id="_øjenbryn"><line class="cls-4" x1="690.85" y1="172.79" x2="722.61" y2="199.47"/><rect class="cls-4" x="704.78" y="165.39" width="3.9" height="41.48" transform="translate(109.6 607.5) rotate(-49.96)"/><line class="cls-4" x1="783.13" y1="173.99" x2="748.61" y2="198.82"/><rect class="cls-4" x="744.6" y="184.45" width="42.53" height="3.9" transform="translate(35.29 482.31) rotate(-35.73)"/></g><g id="tekstur"><g id="tekstur-2"><path class="cls-4" d="m716.1,151.97c-1.05-7.61-9.07-11.6-15.45-14.29-.79-.29-1.13.97-.35,1.26,5.79,2.49,13.41,6.14,14.49,13.04.07.83,1.37.84,1.3,0h0Z"/><path class="cls-4" d="m697.23,129.19c12.87,1.02,25.36,9.04,26.68,22.78.1.82,1.4.83,1.3,0-1.17-13.14-12.28-21.69-24.7-23.66-1.08-.19-2.18-.36-3.28-.42-.84-.04-.83,1.26,0,1.3h0Z"/></g><g id="tekstur-3"><path class="cls-4" d="m828.68,207.28c.16-8.16-5.95-15.12-13.49-17.55-.8-.24-1.15,1.01-.35,1.25,4.51,1.36,8.81,4.88,10.93,9.12,1.11,2.23,1.6,4.69,1.61,7.17,0,.84,1.31.84,1.3,0h0Z"/><path class="cls-4" d="m811.44,177.91c-.1.06-.01.06-.13.04,3.55.39,6.9,2.12,10.06,3.72,10.1,5.28,18.77,15.06,19.03,26.92.03.83,1.33.84,1.3,0-.55-15.88-14.58-28.01-29.17-31.81-.53-.1-1.24-.27-1.75.01-.73.41-.07,1.54.66,1.12h0Z"/></g><g id="tekstur-4"><path class="cls-4" d="m864.83,283.49c4.07-2.73,4.26-8.82,3.89-13.21-.04-.53-.1-1.06-.18-1.59-.16-.9-1.5-.38-1.24.47.34,3.98.79,10.32-3.13,13.21-.69.46-.04,1.59.66,1.12h0Z"/><path class="cls-4" d="m878.37,261.36c3.66,12.43.5,27.08-11.93,33.12-.74.39-.08,1.51.66,1.12,12.92-6.49,16.35-21.49,12.53-34.59-.25-.79-1.51-.46-1.25.35h0Z"/></g><g id="tekstur-5"><path class="cls-4" d="m816.32,318.57c.51,4.49,8.49,7.03,12.19,8.44.8.26,1.14-1,.35-1.26-3.4-1.2-6.96-2.5-9.75-4.86-.68-.6-1.45-1.42-1.49-2.32-.04-.83-1.34-.84-1.3,0h0Z"/><path class="cls-4" d="m834.06,337.46c-14.14-3.61-36.45-12.34-33.39-30.44.16-.82-1.09-1.17-1.25-.35-3.21,17.12,15.82,26.48,29.46,30.71,1.59.5,3.21.97,4.84,1.33.82.18,1.16-1.07.35-1.26h0Z"/></g><g id="tekstur-6"><path class="cls-4" d="m696.01,335.16c4.94,6.82,14.18,8.79,22.03,6.65.8-.24.46-1.5-.35-1.25-7.2,2.14-16.01.19-20.56-6.06-.5-.66-1.63-.01-1.12.66h0Z"/><path class="cls-4" d="m720.48,350.48c-13.88,3.07-31.96.4-38.06-14.2-.34-.76-1.46-.1-1.12.66,5.75,13.75,22.09,17.48,35.6,15.47,1.31-.17,2.64-.36,3.93-.67.81-.2.47-1.45-.35-1.26h0Z"/></g><g id="tekstur-7"><path class="cls-4" d="m619.14,281.6c6.79-3.42,8.03-12.22,8.61-19.06.03-.84-1.28-.84-1.3,0-.54,6.35-1.63,14.78-7.96,17.94-.77.33-.11,1.45.66,1.12h0Z"/><path class="cls-4" d="m634.02,254.53c6.94,15.59,2.95,32.83-11.31,42.65-.67.49-.02,1.62.66,1.12,13.47-9.35,18.55-25.41,13.18-40.86-.4-1.21-.84-2.43-1.41-3.57-.37-.75-1.5-.09-1.12.66h0Z"/></g></g><g id="skygge" class="cls-6"><path class="cls-4" d="m593.6,243.54c1.8-52.73,25.91-107.9,72.89-135.1,10.89-6.42,22.66-11.3,34.81-14.75.8-.23.46-1.49-.35-1.26-9.97,2.84-19.69,6.62-28.88,11.42-36.37,18.52-61.25,53.9-72.18,92.67-3.97,13.7-6.53,27.83-7.42,42.07-.1,1.64-.21,3.3-.18,4.95,0,.84,1.3.84,1.3,0h0Z"/></g><g id="skygge-2" class="cls-6"><path class="cls-4" d="m843.19,133.56c19.52,16.18,36.5,37.01,44.03,61.54.24.8,1.49.46,1.25-.35-6.95-23.01-22.39-42.61-40.06-58.5-1.4-1.24-2.82-2.47-4.3-3.61-.65-.51-1.58.41-.92.92h0Z"/></g></g><g class="cls-17"><path class="cls-7" d="m127.7,419.37v-68.73c0-5.2-.41-11.5-2.6-17.25,1.51-1.51,5.2-3.97,10.27-3.97,5.89,0,10.27,3.42,10.27,9.17v68.73c0,5.2.27,11.5,2.6,17.25-1.51,1.51-5.2,3.97-10.27,3.97-5.89,0-10.27-3.42-10.27-9.17Z"/><path class="cls-7" d="m239.43,419.37c0,5.48-4.65,9.86-11.78,9.86-11.09,0-15.33-10.82-18.35-19.72l-4.11-12.32c-2.05-6.03-5.48-13.69-16.02-13.69h-2.33v23.82c0,5.2.27,11.5,2.6,17.25-1.51,1.51-5.2,3.97-10.27,3.97-5.89,0-10.27-3.42-10.27-9.17v-68.73c0-5.2-.41-11.5-2.6-17.25,1.51-1.51,5.2-3.97,10.27-3.97,5.89,0,10.13,3.42,10.13,9.17l.14,38.34,3.15-.82c15.88-4.52,23.41-21.91,23.41-33.54,0-5.61-1.51-9.31-2.46-10.82,2.6-1.1,4.52-1.64,7.39-1.64,5.48,0,12.46,2.05,12.46,13.55,0,12.46-8.35,27.11-28.62,34.91,10.82,1.1,15.74,5.61,18.89,13.14l6.16,14.51c3.15,6.85,4.66,8.9,7.67,9.17,1.1.14,2.19-.14,3.42-1.1.69,1.92,1.1,3.56,1.1,5.07Z"/><path class="cls-7" d="m323.77,419.37c0,5.48-4.65,9.86-11.78,9.86-11.09,0-15.33-10.82-18.35-19.72l-4.11-12.32c-2.05-6.03-5.48-13.69-16.02-13.69h-2.33v23.82c0,5.2.27,11.5,2.6,17.25-1.51,1.51-5.2,3.97-10.27,3.97-5.89,0-10.27-3.42-10.27-9.17v-68.73c0-5.2-.41-11.5-2.6-17.25,1.51-1.51,5.2-3.97,10.27-3.97,5.89,0,10.13,3.42,10.13,9.17l.14,38.34,3.15-.82c15.88-4.52,23.41-21.91,23.41-33.54,0-5.61-1.51-9.31-2.46-10.82,2.6-1.1,4.52-1.64,7.39-1.64,5.48,0,12.46,2.05,12.46,13.55,0,12.46-8.35,27.11-28.62,34.91,10.82,1.1,15.74,5.61,18.89,13.14l6.16,14.51c3.15,6.85,4.66,8.9,7.67,9.17,1.1.14,2.19-.14,3.42-1.1.69,1.92,1.1,3.56,1.1,5.07Z"/><path class="cls-7" d="m391.4,426.62h-43.54c-5.89,0-10.27-3.42-10.27-9.17v-64.49c0-5.34-.41-11.5-2.6-17.25,4.52-3.83,8.21-4.52,16.29-4.52h39.71c5.07,0,2.88,13.42-1.92,15.61-9.72-3.97-21.5-6.71-33.68-6.98l.14,32.45h29.57c.96,3.29.69,6.98,0,9.72h-29.57v36.01c12.32-.41,29.16-3.97,36.83-7.39,4.65,2.74,4.93,16.02-.96,16.02Z"/><path class="cls-7" d="m439.86,426.21c2.19-5.89,2.6-13.83,2.6-18.89v-56.68c0-7.94-.27-13.55-.96-18.89,2.05-2.46,10.95-2.88,12.46-1.37,16.29,23.14,45.04,58.05,51.89,73.11l-4.52-61.47c-.68-6.98,2.19-11.78,8.21-12.32,2.46-.14,5.34.41,7.39,1.78-1.78,5.34-1.78,12.6-1.78,16.84l-.14,59.29c0,8.08.14,13.28.82,18.62-1.78,2.05-9.17,3.01-12.05,1.51-30.53-35.73-44.09-56.68-51.48-70.51l3.83,61.06c.55,6.16-4.52,10.27-8.9,10.27-2.6,0-5.34-.82-7.39-2.33Z"/><path class="cls-7" d="m533.38,378.84c0-33,13.28-49.56,38.75-49.56s38.75,16.57,38.75,49.56-13.28,49.7-38.75,49.7-38.75-16.57-38.75-49.7Zm57.64,0c0-30.26-5.75-43.4-18.89-43.4s-19.03,13.14-19.03,43.4,6.02,43.4,19.03,43.4,18.89-13.01,18.89-43.4Z"/><path class="cls-7" d="m699.73,419.37c0,5.48-4.65,9.86-11.78,9.86-11.09,0-15.33-10.82-18.35-19.72l-4.11-12.32c-2.05-6.03-5.48-13.69-16.02-13.69h-2.33v23.82c0,5.2.27,11.5,2.6,17.25-1.51,1.51-5.2,3.97-10.27,3.97-5.89,0-10.27-3.42-10.27-9.17v-68.73c0-5.2-.41-11.5-2.6-17.25,1.51-1.51,5.2-3.97,10.27-3.97,5.89,0,10.13,3.42,10.13,9.17l.14,38.34,3.15-.82c15.88-4.52,23.41-21.91,23.41-33.54,0-5.61-1.51-9.31-2.46-10.82,2.6-1.1,4.52-1.64,7.39-1.64,5.48,0,12.46,2.05,12.46,13.55,0,12.46-8.35,27.11-28.62,34.91,10.82,1.1,15.74,5.61,18.89,13.14l6.16,14.51c3.15,6.85,4.66,8.9,7.67,9.17,1.1.14,2.19-.14,3.42-1.1.69,1.92,1.1,3.56,1.1,5.07Z"/><path class="cls-7" d="m807.35,399.65c0,18.35-14.38,26.97-39.02,26.97h-15.2c-5.89,0-10.27-3.42-10.27-9.17v-66.82c0-4.11-.41-11.5-2.6-17.25,5.34-2.6,13.14-4.11,24.78-4.11,23.69,0,37.65,6.44,37.65,23,0,11.23-6.44,19.99-17.39,22.87,13.01,1.92,22.04,10.27,22.04,24.51Zm-46.55-64.08v37.24h7.12c10.96.27,15.75-7.53,15.75-19.03s-4.65-18.21-18.35-18.21h-4.52Zm26.97,64.35c0-16.57-8.35-20.81-19.85-20.81h-7.12v41.21h6.85c14.51,0,20.13-8.49,20.13-20.4Z"/><path class="cls-7" d="m898.12,424.43c-1.64,1.92-4.65,4.11-10.54,4.11-5.48,0-9.86-2.33-10.82-6.98l-6.16-23h-30.94l-4.52,17.66c-.55,2.05-.96,4.11-.96,6.02,0,2.05.55,3.42,1.51,4.38-2.6.96-5.34,1.92-9.86,1.92-6.98,0-9.99-2.33-9.99-7.53,0-2.33.69-5.61,1.78-9.31l26.97-80.1c5.07-1.64,10.13-2.46,15.06-2.46,4.38,0,8.49,1.23,9.72,5.89l24.37,80.92c.68,2.33,2.19,6.16,4.38,8.49Zm-30.12-35.6l-13.14-49.02-12.73,49.02h25.88Z"/><path class="cls-7" d="m907.7,426.21c2.19-5.89,2.6-13.83,2.6-18.89v-56.68c0-7.94-.27-13.55-.96-18.89,2.05-2.46,10.95-2.88,12.46-1.37,16.29,23.14,45.05,58.05,51.89,73.11l-4.52-61.47c-.69-6.98,2.19-11.78,8.21-12.32,2.46-.14,5.34.41,7.39,1.78-1.78,5.34-1.78,12.6-1.78,16.84l-.14,59.29c0,8.08.14,13.28.82,18.62-1.78,2.05-9.17,3.01-12.05,1.51-30.53-35.73-44.09-56.68-51.48-70.51l3.83,61.06c.55,6.16-4.52,10.27-8.9,10.27-2.6,0-5.34-.82-7.39-2.33Z"/><path class="cls-7" d="m1079.26,424.43c-1.64,1.92-4.65,4.11-10.54,4.11-5.48,0-9.86-2.33-10.82-6.98l-6.16-23h-30.94l-4.52,17.66c-.55,2.05-.96,4.11-.96,6.02,0,2.05.55,3.42,1.51,4.38-2.6.96-5.34,1.92-9.86,1.92-6.98,0-9.99-2.33-9.99-7.53,0-2.33.69-5.61,1.78-9.31l26.97-80.1c5.07-1.64,10.13-2.46,15.06-2.46,4.38,0,8.49,1.23,9.72,5.89l24.37,80.92c.68,2.33,2.19,6.16,4.38,8.49Zm-30.12-35.6l-13.14-49.02-12.73,49.02h25.88Z"/><path class="cls-7" d="m1088.84,426.21c2.19-5.89,2.6-13.83,2.6-18.89v-56.68c0-7.94-.27-13.55-.96-18.89,2.05-2.46,10.95-2.88,12.46-1.37,16.29,23.14,45.05,58.05,51.89,73.11l-4.52-61.47c-.69-6.98,2.19-11.78,8.21-12.32,2.46-.14,5.34.41,7.39,1.78-1.78,5.34-1.78,12.6-1.78,16.84l-.14,59.29c0,8.08.14,13.28.82,18.62-1.78,2.05-9.17,3.01-12.05,1.51-30.53-35.73-44.09-56.68-51.48-70.51l3.83,61.06c.55,6.16-4.52,10.27-8.9,10.27-2.6,0-5.34-.82-7.39-2.33Z"/><path class="cls-7" d="m1241.09,426.62h-43.54c-5.89,0-10.27-3.42-10.27-9.17v-64.49c0-5.34-.41-11.5-2.6-17.25,4.52-3.83,8.22-4.52,16.29-4.52h39.71c5.07,0,2.88,13.42-1.92,15.61-9.72-3.97-21.5-6.71-33.68-6.98l.14,32.45h29.57c.96,3.29.68,6.98,0,9.72h-29.57v36.01c12.32-.41,29.16-3.97,36.83-7.39,4.65,2.74,4.93,16.02-.96,16.02Z"/><path class="cls-7" d="m1335.15,418.55c0,6.98-6.71,10-10.82,10-11.23,0-14.38-7.53-19.3-19.85l-4.24-11.23c-2.74-6.85-5.2-13.01-14.79-13.01l-5.2-.14v23.96c0,4.24.27,10.95,2.6,16.29-1.51,1.51-5.2,3.97-10.27,3.97-5.89,0-10.27-3.42-10.27-9.17v-68.73c0-4.11-.41-11.5-2.6-17.25,5.34-2.6,13.14-4.11,25.33-4.11,25.88,0,40.12,6.98,40.12,24.92,0,13.55-8.35,23-21.63,26.42,6.71,1.92,10.13,6.16,13.28,11.64l5.75,13.28c2.74,6.44,4.93,9.17,7.67,9.31.96,0,2.19-.27,3.29-1.23.82,1.92,1.1,3.56,1.1,4.93Zm-48.33-40.53c12.87-.41,19.17-10.13,19.17-22.59,0-11.5-5.07-19.99-19.03-19.99-2.46,0-4.52,0-6.16.27v42.17c1.92.14,3.97.27,6.03.14Z"/><path class="cls-7" d="m1348.97,328.32c6.85-2.33,13.83-2.19,20.68,0l-3.83,71.06h-12.05l-4.79-71.06Zm10.27,100.22c5.61,0,9.99-4.52,9.99-10.13s-4.38-10.13-9.99-10.13-10.27,4.38-10.27,10.13,4.52,10.13,10.27,10.13Z"/></g><path class="cls-8" d="m120.7,413.37v-68.73c0-5.2-.41-11.5-2.6-17.25,1.51-1.51,5.2-3.97,10.27-3.97,5.89,0,10.27,3.42,10.27,9.17v68.73c0,5.2.27,11.5,2.6,17.25-1.51,1.51-5.2,3.97-10.27,3.97-5.89,0-10.27-3.42-10.27-9.17Z"/><path class="cls-7" d="m130.97,423.04c-6.44,0-10.77-3.89-10.77-9.67v-68.73c0-4.44-.27-11.03-2.57-17.07l-.12-.3.23-.23c1.9-1.9,5.82-4.12,10.62-4.12,6.44,0,10.77,3.89,10.77,9.67v68.73c0,5.31.3,11.48,2.57,17.06l.12.31-.23.23c-1.9,1.9-5.82,4.12-10.62,4.12Zm-12.29-95.53c2.25,6.11,2.52,12.68,2.52,17.12v68.73c0,5.27,3.83,8.67,9.77,8.67,4.31,0,7.84-1.89,9.68-3.6-2.21-5.66-2.51-11.82-2.51-17.12v-68.73c0-5.27-3.83-8.67-9.77-8.67-4.31,0-7.85,1.89-9.69,3.6Z"/><path class="cls-8" d="m232.43,413.37c0,5.48-4.65,9.86-11.78,9.86-11.09,0-15.33-10.82-18.35-19.72l-4.11-12.32c-2.05-6.03-5.48-13.69-16.02-13.69h-2.33v23.82c0,5.2.27,11.5,2.6,17.25-1.51,1.51-5.2,3.97-10.27,3.97-5.89,0-10.27-3.42-10.27-9.17v-68.73c0-5.2-.41-11.5-2.6-17.25,1.51-1.51,5.2-3.97,10.27-3.97,5.89,0,10.13,3.42,10.13,9.17l.14,38.34,3.15-.82c15.88-4.52,23.41-21.91,23.41-33.54,0-5.61-1.51-9.31-2.46-10.82,2.6-1.1,4.52-1.64,7.39-1.64,5.48,0,12.46,2.05,12.46,13.55,0,12.46-8.35,27.11-28.62,34.91,10.82,1.1,15.74,5.61,18.89,13.14l6.16,14.51c3.15,6.85,4.66,8.9,7.67,9.17,1.1.14,2.19-.14,3.42-1.1.69,1.92,1.1,3.56,1.1,5.07Z"/><path class="cls-7" d="m220.65,423.73c-11.1,0-15.54-10.35-18.82-20.06l-4.11-12.32c-2.36-6.93-5.88-13.35-15.54-13.35h-1.83v23.32c0,5.31.3,11.48,2.57,17.06l.12.31-.23.23c-1.9,1.9-5.82,4.12-10.62,4.12-6.44,0-10.77-3.89-10.77-9.67v-68.73c0-4.44-.27-11.03-2.57-17.07l-.12-.3.23-.23c1.9-1.9,5.82-4.12,10.62-4.12,6.36,0,10.63,3.89,10.63,9.67l.13,37.69,2.53-.66c15.89-4.52,23.04-22.05,23.04-33.06,0-6.47-1.99-9.92-2.39-10.55l-.32-.5.55-.23c2.59-1.09,4.57-1.68,7.59-1.68,8.48,0,12.96,4.86,12.96,14.05,0,17.11-13.7,28.95-27.14,34.65,8.94,1.32,14.05,5.24,17.38,13.21l6.16,14.51c3.17,6.89,4.59,8.63,7.25,8.87,1.06.13,2.03-.18,3.07-.99l.54-.42.23.65c.78,2.18,1.12,3.79,1.12,5.23,0,6-5.16,10.36-12.28,10.36Zm-41.3-46.73h2.83c10.32,0,14.13,7.09,16.49,14.03l4.11,12.33c3.17,9.37,7.43,19.37,17.87,19.37,6.53,0,11.28-3.94,11.28-9.36,0-1.19-.26-2.52-.85-4.27-1.06.68-2.11.93-3.23.8-3.31-.3-4.92-2.63-8.06-9.46l-6.17-14.53c-3.4-8.14-8.76-11.86-18.49-12.84l-2.08-.21,1.96-.75c13.68-5.27,28.29-17.08,28.29-34.45,0-8.66-4.02-13.05-11.96-13.05-2.65,0-4.45.48-6.67,1.38,1.13,2.07,2.24,5.77,2.24,10.57,0,11.32-7.38,29.36-23.78,34.03l-3.79.99-.14-38.98c0-5.27-3.78-8.67-9.63-8.67-4.31,0-7.85,1.89-9.69,3.6,2.25,6.11,2.52,12.68,2.52,17.12v68.73c0,5.27,3.83,8.67,9.77,8.67,4.31,0,7.84-1.89,9.68-3.6-2.21-5.66-2.51-11.82-2.51-17.12v-24.32Z"/><path class="cls-8" d="m316.77,413.37c0,5.48-4.65,9.86-11.78,9.86-11.09,0-15.33-10.82-18.35-19.72l-4.11-12.32c-2.05-6.03-5.48-13.69-16.02-13.69h-2.33v23.82c0,5.2.27,11.5,2.6,17.25-1.51,1.51-5.2,3.97-10.27,3.97-5.89,0-10.27-3.42-10.27-9.17v-68.73c0-5.2-.41-11.5-2.6-17.25,1.51-1.51,5.2-3.97,10.27-3.97,5.89,0,10.13,3.42,10.13,9.17l.14,38.34,3.15-.82c15.88-4.52,23.41-21.91,23.41-33.54,0-5.61-1.51-9.31-2.46-10.82,2.6-1.1,4.52-1.64,7.39-1.64,5.48,0,12.46,2.05,12.46,13.55,0,12.46-8.35,27.11-28.62,34.91,10.82,1.1,15.74,5.61,18.89,13.14l6.16,14.51c3.15,6.85,4.66,8.9,7.67,9.17,1.1.14,2.19-.14,3.42-1.1.69,1.92,1.1,3.56,1.1,5.07Z"/><path class="cls-7" d="m304.99,423.73c-11.1,0-15.54-10.35-18.82-20.06l-4.11-12.32c-2.36-6.93-5.88-13.35-15.54-13.35h-1.83v23.32c0,5.31.3,11.48,2.57,17.06l.12.31-.23.23c-1.9,1.9-5.82,4.12-10.62,4.12-6.44,0-10.77-3.89-10.77-9.67v-68.73c0-4.44-.27-11.03-2.57-17.07l-.12-.3.23-.23c1.9-1.9,5.82-4.12,10.62-4.12,6.36,0,10.63,3.89,10.63,9.67l.13,37.69,2.53-.66c15.89-4.52,23.04-22.05,23.04-33.06,0-6.47-1.99-9.92-2.39-10.55l-.32-.5.55-.23c2.59-1.09,4.57-1.68,7.59-1.68,8.48,0,12.96,4.86,12.96,14.05,0,17.11-13.7,28.95-27.14,34.65,8.94,1.32,14.05,5.24,17.38,13.21l6.16,14.51c3.17,6.89,4.59,8.63,7.25,8.87,1.06.13,2.03-.18,3.07-.99l.54-.42.23.65c.78,2.18,1.12,3.79,1.12,5.23,0,6-5.16,10.36-12.28,10.36Zm-41.3-46.73h2.83c10.32,0,14.13,7.09,16.49,14.03l4.11,12.33c3.17,9.37,7.43,19.37,17.87,19.37,6.53,0,11.28-3.94,11.28-9.36,0-1.19-.26-2.52-.85-4.27-1.06.68-2.11.93-3.23.8-3.31-.3-4.92-2.63-8.06-9.46l-6.17-14.53c-3.4-8.14-8.76-11.86-18.49-12.84l-2.08-.21,1.96-.75c13.68-5.27,28.29-17.08,28.29-34.45,0-8.66-4.02-13.05-11.96-13.05-2.65,0-4.45.48-6.67,1.38,1.13,2.07,2.24,5.77,2.24,10.57,0,11.32-7.38,29.36-23.78,34.03l-3.79.99-.14-38.98c0-5.27-3.78-8.67-9.63-8.67-4.31,0-7.85,1.89-9.69,3.6,2.25,6.11,2.52,12.68,2.52,17.12v68.73c0,5.27,3.83,8.67,9.77,8.67,4.31,0,7.84-1.89,9.68-3.6-2.21-5.66-2.51-11.82-2.51-17.12v-24.32Z"/><path class="cls-8" d="m384.4,420.62h-43.54c-5.89,0-10.27-3.42-10.27-9.17v-64.49c0-5.34-.41-11.5-2.6-17.25,4.52-3.83,8.21-4.52,16.29-4.52h39.71c5.07,0,2.88,13.42-1.92,15.61-9.72-3.97-21.5-6.71-33.68-6.98l.14,32.45h29.57c.96,3.29.69,6.98,0,9.72h-29.57v36.01c12.32-.41,29.16-3.97,36.83-7.39,4.65,2.74,4.93,16.02-.96,16.02Z"/><path class="cls-7" d="m384.4,421.12h-43.54c-6.44,0-10.77-3.89-10.77-9.67v-64.49c0-4.81-.29-11.1-2.57-17.07l-.13-.33.27-.23c4.64-3.94,8.38-4.64,16.62-4.64h39.71c1.6,0,2.73,1.13,3.18,3.19.94,4.33-1.3,11.74-4.89,13.38l-.2.09-.2-.08c-10.19-4.16-21.88-6.62-32.99-6.93l.13,31.44h29.45l.1.36c1.22,4.17.41,8.37,0,9.98l-.09.38h-29.46v34.99c11.79-.47,28.2-3.79,36.13-7.33l.24-.1.22.13c3.27,1.92,4.45,8.38,3.28,12.65-.76,2.78-2.35,4.3-4.5,4.3Zm-55.82-91.26c2.22,6.02,2.51,12.29,2.51,17.1v64.49c0,5.27,3.83,8.67,9.77,8.67h43.54c2.23,0,3.17-2.24,3.53-3.57,1.02-3.75.07-9.54-2.62-11.39-8.23,3.59-24.97,6.93-36.77,7.33l-.52.02v-37.03h29.68c.38-1.69.94-5.2.01-8.72h-29.69l-.14-33.46h.51c11.3.27,23.24,2.73,33.65,6.95,3.05-1.62,4.97-8.33,4.14-12.16-.35-1.59-1.09-2.4-2.2-2.4h-39.71c-7.8,0-11.42.64-15.7,4.17Z"/><path class="cls-8" d="m432.86,420.21c2.19-5.89,2.6-13.83,2.6-18.89v-56.68c0-7.94-.27-13.55-.96-18.89,2.05-2.46,10.95-2.88,12.46-1.37,16.29,23.14,45.04,58.05,51.89,73.11l-4.52-61.47c-.68-6.98,2.19-11.78,8.21-12.32,2.46-.14,5.34.41,7.39,1.78-1.78,5.34-1.78,12.6-1.78,16.84l-.14,59.29c0,8.08.14,13.28.82,18.62-1.78,2.05-9.17,3.01-12.05,1.51-30.53-35.73-44.09-56.68-51.48-70.51l3.83,61.06c.55,6.16-4.52,10.27-8.9,10.27-2.6,0-5.34-.82-7.39-2.33Z"/><path class="cls-7" d="m440.26,423.04c-2.78,0-5.59-.88-7.69-2.42l-.3-.22.13-.35c2.12-5.71,2.57-13.33,2.57-18.72v-56.68c0-7.98-.29-13.61-.95-18.83l-.03-.22.14-.17c1.31-1.58,4.8-2.28,7.62-2.41,1.03-.04,4.46-.11,5.58,1,5.59,7.93,12.42,16.96,19.65,26.51,12.67,16.75,25.75,34.04,31.2,44.43l-4.33-58.91c-.4-4.07.39-7.43,2.27-9.71,1.53-1.85,3.68-2.91,6.4-3.15,2.85-.15,5.73.54,7.72,1.86l.32.21-.12.36c-1.76,5.26-1.76,12.41-1.76,16.68l-.14,59.29c0,7.9.13,13.2.82,18.56l.03.22-.15.17c-1.93,2.23-9.62,3.21-12.66,1.62l-.15-.12c-23.92-28-40.45-50.47-50.46-68.61l3.69,58.81c.25,2.84-.65,5.54-2.54,7.61-1.83,2-4.4,3.19-6.86,3.19Zm-6.79-3.02c1.9,1.29,4.35,2.02,6.79,2.02,2.19,0,4.48-1.07,6.13-2.87,1.7-1.85,2.5-4.29,2.28-6.86l-3.98-63.37,1.08,2.03c9.84,18.4,26.63,41.41,51.35,70.35,2.62,1.28,9.34.49,11.21-1.28-.67-5.33-.8-10.62-.8-18.45l.14-59.29c0-4.23,0-11.25,1.69-16.62-1.78-1.06-4.34-1.63-6.77-1.5-2.42.22-4.35,1.16-5.7,2.79-1.71,2.07-2.42,5.17-2.05,8.98l4.72,64.28-1.16-2.55c-4.49-9.89-18.6-28.53-32.23-46.56-7.23-9.56-14.06-18.59-19.61-26.47-.37-.36-2.07-.76-4.77-.65-3.07.14-5.73.89-6.76,1.9.65,5.2.93,10.82.93,18.73v56.68c0,5.36-.44,12.91-2.5,18.71Z"/><path class="cls-8" d="m526.38,372.84c0-33,13.28-49.56,38.75-49.56s38.75,16.57,38.75,49.56-13.28,49.7-38.75,49.7-38.75-16.57-38.75-49.7Zm57.64,0c0-30.26-5.75-43.4-18.89-43.4s-19.03,13.14-19.03,43.4,6.02,43.4,19.03,43.4,18.89-13.01,18.89-43.4Z"/><path class="cls-7" d="m565.13,423.04c-26.04,0-39.25-16.89-39.25-50.2s13.21-50.06,39.25-50.06,39.25,16.84,39.25,50.06-13.21,50.2-39.25,50.2Zm0-99.27c-25.38,0-38.25,16.51-38.25,49.06s12.87,49.2,38.25,49.2,38.25-16.55,38.25-49.2-12.87-49.06-38.25-49.06Zm0,92.97c-13.51,0-19.53-13.54-19.53-43.9s6.02-43.9,19.53-43.9,19.39,13.13,19.39,43.9-5.8,43.9-19.39,43.9Zm0-86.8c-12.82,0-18.53,13.23-18.53,42.9s5.71,42.9,18.53,42.9,18.39-12.83,18.39-42.9-5.5-42.9-18.39-42.9Z"/><path class="cls-8" d="m692.73,413.37c0,5.48-4.65,9.86-11.78,9.86-11.09,0-15.33-10.82-18.35-19.72l-4.11-12.32c-2.05-6.03-5.48-13.69-16.02-13.69h-2.33v23.82c0,5.2.27,11.5,2.6,17.25-1.51,1.51-5.2,3.97-10.27,3.97-5.89,0-10.27-3.42-10.27-9.17v-68.73c0-5.2-.41-11.5-2.6-17.25,1.51-1.51,5.2-3.97,10.27-3.97,5.89,0,10.13,3.42,10.13,9.17l.14,38.34,3.15-.82c15.88-4.52,23.41-21.91,23.41-33.54,0-5.61-1.51-9.31-2.46-10.82,2.6-1.1,4.52-1.64,7.39-1.64,5.48,0,12.46,2.05,12.46,13.55,0,12.46-8.35,27.11-28.62,34.91,10.82,1.1,15.74,5.61,18.89,13.14l6.16,14.51c3.15,6.85,4.66,8.9,7.67,9.17,1.1.14,2.19-.14,3.42-1.1.69,1.92,1.1,3.56,1.1,5.07Z"/><path class="cls-7" d="m680.95,423.73c-11.1,0-15.54-10.35-18.82-20.06l-4.11-12.32c-2.36-6.93-5.88-13.35-15.54-13.35h-1.83v23.32c0,5.31.3,11.48,2.57,17.06l.12.31-.23.23c-1.9,1.9-5.82,4.12-10.62,4.12-6.44,0-10.77-3.89-10.77-9.67v-68.73c0-4.44-.27-11.03-2.57-17.07l-.12-.3.23-.23c1.9-1.9,5.82-4.12,10.62-4.12,6.36,0,10.63,3.89,10.63,9.67l.13,37.69,2.53-.66c15.89-4.52,23.04-22.05,23.04-33.06,0-6.47-1.99-9.92-2.39-10.55l-.32-.5.55-.23c2.59-1.09,4.57-1.68,7.59-1.68,8.48,0,12.96,4.86,12.96,14.05,0,17.11-13.7,28.95-27.14,34.65,8.94,1.32,14.05,5.24,17.38,13.21l6.16,14.51c3.17,6.89,4.59,8.63,7.25,8.87,1.06.13,2.03-.18,3.07-.99l.54-.42.23.65c.78,2.18,1.12,3.79,1.12,5.23,0,6-5.16,10.36-12.28,10.36Zm-41.3-46.73h2.83c10.32,0,14.13,7.09,16.49,14.03l4.11,12.33c3.17,9.37,7.43,19.37,17.87,19.37,6.53,0,11.28-3.94,11.28-9.36,0-1.19-.26-2.52-.85-4.27-1.06.68-2.11.93-3.23.8-3.31-.3-4.92-2.63-8.06-9.46l-6.17-14.53c-3.4-8.14-8.76-11.86-18.49-12.84l-2.08-.21,1.96-.75c13.68-5.27,28.29-17.08,28.29-34.45,0-8.66-4.02-13.05-11.96-13.05-2.65,0-4.45.48-6.67,1.38,1.13,2.07,2.24,5.77,2.24,10.57,0,11.32-7.38,29.36-23.78,34.03l-3.79.99-.14-38.98c0-5.27-3.78-8.67-9.63-8.67-4.31,0-7.85,1.89-9.69,3.6,2.25,6.11,2.52,12.68,2.52,17.12v68.73c0,5.27,3.83,8.67,9.77,8.67,4.31,0,7.84-1.89,9.68-3.6-2.21-5.66-2.51-11.82-2.51-17.12v-24.32Z"/><path class="cls-8" d="m800.35,393.65c0,18.35-14.38,26.97-39.02,26.97h-15.2c-5.89,0-10.27-3.42-10.27-9.17v-66.82c0-4.11-.41-11.5-2.6-17.25,5.34-2.6,13.14-4.11,24.78-4.11,23.69,0,37.65,6.44,37.65,23,0,11.23-6.44,19.99-17.39,22.87,13.01,1.92,22.04,10.27,22.04,24.51Zm-46.55-64.08v37.24h7.12c10.96.27,15.75-7.53,15.75-19.03s-4.65-18.21-18.35-18.21h-4.52Zm26.97,64.35c0-16.57-8.35-20.81-19.85-20.81h-7.12v41.21h6.85c14.51,0,20.13-8.49,20.13-20.4Z"/><path class="cls-7" d="m761.32,421.12h-15.2c-6.44,0-10.77-3.89-10.77-9.67v-66.82c0-3.11-.25-10.99-2.57-17.07l-.16-.43.41-.2c5.75-2.8,13.92-4.16,25-4.16,25.67,0,38.15,7.69,38.15,23.5,0,10.8-5.98,19.34-15.75,22.74,12.82,2.65,20.4,11.74,20.4,24.64,0,17.97-13.67,27.47-39.52,27.47Zm-27.44-93.49c2.23,6.17,2.47,13.91,2.47,17v66.82c0,5.27,3.83,8.67,9.77,8.67h15.2c25.2,0,38.52-9.15,38.52-26.47,0-13.24-7.88-21.99-21.62-24.01l-2.42-.36,2.37-.62c10.65-2.8,17.02-11.16,17.02-22.38,0-15.14-12.15-22.5-37.15-22.5-10.66,0-18.57,1.26-24.15,3.86Zm26.75,87.19h-7.35v-42.21h7.62c14.08,0,20.35,6.57,20.35,21.31,0,17.27-11.22,20.9-20.63,20.9Zm-6.35-1h6.35c16.22,0,19.63-10.82,19.63-19.9,0-14.05-5.97-20.31-19.35-20.31h-6.62v40.21Zm7.17-46.5c-.19,0-.38,0-.57,0h-7.61v-38.24h5.02c12.68,0,18.85,6.12,18.85,18.71,0,6.97-1.78,12.4-5.15,15.69-2.62,2.56-6.17,3.85-10.54,3.85Zm-7.17-1.01h6.62c4.4.12,7.86-1.09,10.4-3.56,3.17-3.09,4.85-8.27,4.85-14.97,0-12.08-5.67-17.71-17.85-17.71h-4.02v36.24Z"/><path class="cls-8" d="m891.12,418.43c-1.64,1.92-4.65,4.11-10.54,4.11-5.48,0-9.86-2.33-10.82-6.98l-6.16-23h-30.94l-4.52,17.66c-.55,2.05-.96,4.11-.96,6.02,0,2.05.55,3.42,1.51,4.38-2.6.96-5.34,1.92-9.86,1.92-6.98,0-9.99-2.33-9.99-7.53,0-2.33.69-5.61,1.78-9.31l26.97-80.1c5.07-1.64,10.13-2.46,15.06-2.46,4.38,0,8.49,1.23,9.72,5.89l24.37,80.92c.68,2.33,2.19,6.16,4.38,8.49Zm-30.12-35.6l-13.14-49.02-12.73,49.02h25.88Z"/><path class="cls-7" d="m880.58,423.04c-6.13,0-10.35-2.76-11.31-7.38l-6.05-22.6h-30.17l-4.42,17.29c-.64,2.41-.94,4.29-.94,5.9,0,1.82.43,3.1,1.36,4.03l.55.55-.73.27c-2.36.87-5.29,1.95-10.03,1.95-7.26,0-10.49-2.48-10.49-8.03,0-2.24.61-5.42,1.8-9.45l27.06-80.35.24-.08c5.09-1.65,10.21-2.49,15.22-2.49,5.67,0,9.1,2.11,10.2,6.26l24.37,80.9c.78,2.64,2.3,6.21,4.27,8.29l.31.33-.29.34c-2.44,2.84-6.11,4.28-10.92,4.28Zm-48.31-30.98h31.71l6.26,23.37c.86,4.15,4.72,6.61,10.33,6.61,4.31,0,7.63-1.21,9.87-3.61-2.43-2.8-3.81-7.07-4.19-8.35l-24.37-80.91c-.99-3.73-4.01-5.53-9.24-5.53-4.82,0-9.75.79-14.67,2.36l-26.89,79.86c-1.16,3.93-1.75,7.01-1.75,9.15,0,4.93,2.84,7.03,9.49,7.03,4.14,0,6.77-.83,9.01-1.64-.78-1.05-1.16-2.42-1.16-4.16s.31-3.66.97-6.15l4.62-18.03Zm29.38-8.72h-27.17l13.37-51.48,13.8,51.48Zm-25.88-1h24.58l-12.49-46.56-12.09,46.56Z"/><path class="cls-8" d="m900.7,420.21c2.19-5.89,2.6-13.83,2.6-18.89v-56.68c0-7.94-.27-13.55-.96-18.89,2.05-2.46,10.95-2.88,12.46-1.37,16.29,23.14,45.05,58.05,51.89,73.11l-4.52-61.47c-.69-6.98,2.19-11.78,8.21-12.32,2.46-.14,5.34.41,7.39,1.78-1.78,5.34-1.78,12.6-1.78,16.84l-.14,59.29c0,8.08.14,13.28.82,18.62-1.78,2.05-9.17,3.01-12.05,1.51-30.53-35.73-44.09-56.68-51.48-70.51l3.83,61.06c.55,6.16-4.52,10.27-8.9,10.27-2.6,0-5.34-.82-7.39-2.33Z"/><path class="cls-7" d="m908.09,423.04c-2.79,0-5.59-.88-7.69-2.42l-.3-.22.13-.35c2.12-5.71,2.57-13.33,2.57-18.72v-56.68c0-7.99-.29-13.62-.96-18.83l-.03-.22.14-.17c1.32-1.58,4.8-2.28,7.62-2.41,1.02-.05,4.46-.11,5.57,1,5.59,7.93,12.42,16.96,19.65,26.52,12.67,16.75,25.74,34.04,31.2,44.42l-4.33-58.91c-.4-4.07.39-7.42,2.27-9.7,1.53-1.85,3.68-2.91,6.4-3.15,2.86-.16,5.73.54,7.71,1.86l.32.21-.12.36c-1.75,5.26-1.75,12.41-1.75,16.68l-.14,59.29c0,7.9.13,13.2.82,18.56l.03.22-.15.17c-1.93,2.23-9.62,3.21-12.66,1.62l-.15-.12c-23.92-27.99-40.45-50.47-50.46-68.61l3.69,58.81c.25,2.84-.65,5.54-2.54,7.61-1.83,2-4.4,3.19-6.86,3.19Zm-6.79-3.02c1.88,1.27,4.39,2.02,6.79,2.02,2.19,0,4.48-1.07,6.13-2.87,1.7-1.85,2.5-4.29,2.28-6.86l-3.98-63.37,1.08,2.03c9.84,18.4,26.64,41.41,51.35,70.35,2.62,1.28,9.34.49,11.21-1.28-.67-5.33-.79-10.62-.79-18.45l.14-59.29c0-4.23,0-11.25,1.68-16.62-1.78-1.06-4.32-1.63-6.77-1.5-2.42.22-4.35,1.16-5.7,2.79-1.71,2.07-2.42,5.17-2.04,8.98l4.72,64.28-1.16-2.55c-4.49-9.89-18.59-28.53-32.23-46.56-7.23-9.56-14.07-18.6-19.62-26.48-.37-.36-2.06-.76-4.76-.65-3.08.14-5.74.89-6.76,1.9.65,5.19.93,10.81.93,18.73v56.68c0,5.36-.44,12.91-2.5,18.71Z"/><path class="cls-8" d="m1072.26,418.43c-1.64,1.92-4.65,4.11-10.54,4.11-5.48,0-9.86-2.33-10.82-6.98l-6.16-23h-30.94l-4.52,17.66c-.55,2.05-.96,4.11-.96,6.02,0,2.05.55,3.42,1.51,4.38-2.6.96-5.34,1.92-9.86,1.92-6.98,0-9.99-2.33-9.99-7.53,0-2.33.69-5.61,1.78-9.31l26.97-80.1c5.07-1.64,10.13-2.46,15.06-2.46,4.38,0,8.49,1.23,9.72,5.89l24.37,80.92c.68,2.33,2.19,6.16,4.38,8.49Zm-30.12-35.6l-13.14-49.02-12.73,49.02h25.88Z"/><path class="cls-7" d="m1061.71,423.04c-6.13,0-10.35-2.76-11.31-7.38l-6.05-22.6h-30.17l-4.42,17.29c-.64,2.41-.94,4.29-.94,5.9,0,1.82.43,3.1,1.36,4.03l.55.55-.73.27c-2.36.87-5.29,1.95-10.03,1.95-7.26,0-10.49-2.48-10.49-8.03,0-2.24.61-5.42,1.8-9.45l27.06-80.35.24-.08c5.09-1.65,10.21-2.49,15.22-2.49,5.67,0,9.1,2.11,10.2,6.26l24.37,80.9c.78,2.64,2.3,6.21,4.27,8.29l.31.33-.29.34c-2.44,2.84-6.11,4.28-10.92,4.28Zm-48.31-30.98h31.71l6.26,23.37c.86,4.15,4.72,6.61,10.33,6.61,4.31,0,7.63-1.21,9.87-3.61-2.43-2.8-3.81-7.07-4.19-8.35l-24.37-80.91c-.99-3.73-4.01-5.53-9.24-5.53-4.82,0-9.75.79-14.67,2.36l-26.89,79.86c-1.16,3.93-1.75,7.01-1.75,9.15,0,4.93,2.84,7.03,9.49,7.03,4.14,0,6.77-.83,9.01-1.64-.78-1.05-1.16-2.42-1.16-4.16s.31-3.66.97-6.15l4.62-18.03Zm29.38-8.72h-27.17l13.37-51.48,13.8,51.48Zm-25.88-1h24.58l-12.49-46.56-12.09,46.56Z"/><path class="cls-8" d="m1081.84,420.21c2.19-5.89,2.6-13.83,2.6-18.89v-56.68c0-7.94-.27-13.55-.96-18.89,2.05-2.46,10.95-2.88,12.46-1.37,16.29,23.14,45.05,58.05,51.89,73.11l-4.52-61.47c-.69-6.98,2.19-11.78,8.21-12.32,2.46-.14,5.34.41,7.39,1.78-1.78,5.34-1.78,12.6-1.78,16.84l-.14,59.29c0,8.08.14,13.28.82,18.62-1.78,2.05-9.17,3.01-12.05,1.51-30.53-35.73-44.09-56.68-51.48-70.51l3.83,61.06c.55,6.16-4.52,10.27-8.9,10.27-2.6,0-5.34-.82-7.39-2.33Z"/><path class="cls-7" d="m1089.23,423.04c-2.79,0-5.59-.88-7.69-2.42l-.3-.22.13-.35c2.12-5.71,2.57-13.33,2.57-18.72v-56.68c0-7.99-.29-13.62-.96-18.83l-.03-.22.14-.17c1.32-1.58,4.8-2.28,7.62-2.41,1.02-.05,4.46-.11,5.57,1,5.59,7.93,12.42,16.96,19.65,26.52,12.67,16.75,25.74,34.04,31.2,44.42l-4.33-58.91c-.4-4.07.39-7.42,2.27-9.7,1.53-1.85,3.68-2.91,6.4-3.15,2.86-.16,5.73.54,7.71,1.86l.32.21-.12.36c-1.75,5.26-1.75,12.41-1.75,16.68l-.14,59.29c0,7.9.13,13.2.82,18.56l.03.22-.15.17c-1.93,2.23-9.62,3.21-12.66,1.62l-.15-.12c-23.92-27.99-40.45-50.47-50.46-68.61l3.69,58.81c.25,2.84-.65,5.54-2.54,7.61-1.83,2-4.4,3.19-6.86,3.19Zm-6.79-3.02c1.88,1.27,4.39,2.02,6.79,2.02,2.19,0,4.48-1.07,6.13-2.87,1.7-1.85,2.5-4.29,2.28-6.86l-3.98-63.37,1.08,2.03c9.84,18.4,26.64,41.41,51.35,70.35,2.62,1.28,9.34.49,11.21-1.28-.67-5.33-.79-10.62-.79-18.45l.14-59.29c0-4.23,0-11.25,1.68-16.62-1.78-1.06-4.32-1.63-6.77-1.5-2.42.22-4.35,1.16-5.7,2.79-1.71,2.07-2.42,5.17-2.04,8.98l4.72,64.28-1.16-2.55c-4.49-9.89-18.59-28.53-32.23-46.56-7.23-9.56-14.07-18.6-19.62-26.48-.37-.36-2.06-.76-4.76-.65-3.08.14-5.74.89-6.76,1.9.65,5.19.93,10.81.93,18.73v56.68c0,5.36-.44,12.91-2.5,18.71Z"/><path class="cls-8" d="m1234.09,420.62h-43.54c-5.89,0-10.27-3.42-10.27-9.17v-64.49c0-5.34-.41-11.5-2.6-17.25,4.52-3.83,8.22-4.52,16.29-4.52h39.71c5.07,0,2.88,13.42-1.92,15.61-9.72-3.97-21.5-6.71-33.68-6.98l.14,32.45h29.57c.96,3.29.68,6.98,0,9.72h-29.57v36.01c12.32-.41,29.16-3.97,36.83-7.39,4.65,2.74,4.93,16.02-.96,16.02Z"/><path class="cls-7" d="m1234.09,421.12h-43.54c-6.44,0-10.77-3.89-10.77-9.67v-64.49c0-4.81-.29-11.1-2.57-17.07l-.13-.33.27-.23c4.64-3.94,8.39-4.64,16.62-4.64h39.71c1.6,0,2.73,1.13,3.18,3.18.94,4.33-1.3,11.74-4.89,13.38l-.2.09-.2-.08c-10.19-4.16-21.89-6.62-32.99-6.93l.13,31.44h29.45l.11.36c1.21,4.17.41,8.37,0,9.98l-.09.38h-29.46v34.99c11.79-.47,28.2-3.79,36.13-7.33l.24-.1.22.13c3.27,1.92,4.45,8.38,3.29,12.65-.76,2.78-2.35,4.3-4.5,4.3Zm-55.82-91.26c2.22,6.02,2.51,12.29,2.51,17.1v64.49c0,5.19,3.93,8.67,9.77,8.67h43.54c2.23,0,3.17-2.24,3.53-3.57,1.02-3.75.07-9.54-2.62-11.39-8.23,3.59-24.97,6.93-36.77,7.33l-.52.02v-37.03h29.68c.38-1.69.94-5.2.01-8.72h-29.69l-.14-33.46h.51c11.3.27,23.24,2.73,33.65,6.95,3.05-1.62,4.97-8.33,4.14-12.16-.35-1.59-1.09-2.4-2.2-2.4h-39.71c-7.8,0-11.42.64-15.7,4.17Z"/><path class="cls-8" d="m1328.15,412.55c0,6.98-6.71,10-10.82,10-11.23,0-14.38-7.53-19.3-19.85l-4.24-11.23c-2.74-6.85-5.2-13.01-14.79-13.01l-5.2-.14v23.96c0,4.24.27,10.95,2.6,16.29-1.51,1.51-5.2,3.97-10.27,3.97-5.89,0-10.27-3.42-10.27-9.17v-68.73c0-4.11-.41-11.5-2.6-17.25,5.34-2.6,13.14-4.11,25.33-4.11,25.88,0,40.12,6.98,40.12,24.92,0,13.55-8.35,23-21.63,26.42,6.71,1.92,10.13,6.16,13.28,11.64l5.75,13.28c2.74,6.44,4.93,9.17,7.67,9.31.96,0,2.19-.27,3.29-1.23.82,1.92,1.1,3.56,1.1,4.93Zm-48.33-40.53c12.87-.41,19.17-10.13,19.17-22.59,0-11.5-5.07-19.99-19.03-19.99-2.46,0-4.52,0-6.16.27v42.17c1.92.14,3.97.27,6.03.14Z"/><path class="cls-7" d="m1317.33,423.04c-11.7,0-14.91-8.02-19.77-20.17l-4.25-11.24c-2.72-6.8-5.07-12.68-14.32-12.68l-4.7-.12v23.45c0,6.88.84,12.14,2.56,16.09l.14.31-.24.24c-1.9,1.9-5.82,4.12-10.62,4.12-6.44,0-10.77-3.89-10.77-9.67v-68.73c0-3.11-.25-10.99-2.57-17.07l-.16-.43.41-.2c5.82-2.84,13.94-4.16,25.55-4.16,27.71,0,40.62,8.08,40.62,25.42,0,12.97-7.41,22.54-20.41,26.46,5.7,2.1,8.96,6.08,11.99,11.35l5.78,13.33c2.67,6.28,4.77,8.89,7.23,9.01.75,0,1.88-.19,2.93-1.11l.52-.45.27.63c.75,1.76,1.14,3.49,1.14,5.13,0,7.16-6.75,10.5-11.32,10.5Zm-44.04-45.24l5.72.15c9.91,0,12.5,6.47,15.24,13.32l4.25,11.24c4.87,12.18,7.81,19.53,18.84,19.53,4.16,0,10.32-3.02,10.32-9.5,0-1.32-.27-2.71-.81-4.13-1.12.76-2.26.93-3.07.93-2.97-.15-5.25-2.84-8.13-9.62l-5.75-13.28c-3.24-5.63-6.55-9.53-12.96-11.36l-1.77-.5,1.78-.46c13.51-3.48,21.26-12.94,21.26-25.94,0-16.66-12.59-24.42-39.62-24.42-11.02,0-19.11,1.26-24.7,3.86,2.23,6.17,2.47,13.91,2.47,17v68.73c0,5.27,3.83,8.67,9.77,8.67,4.3,0,7.83-1.88,9.67-3.59-1.69-4.04-2.51-9.34-2.51-16.17v-24.47Zm4.73-5.23c-1.38,0-2.77-.09-4.26-.2l-.46-.03v-43.06l.42-.07c1.68-.28,3.8-.28,6.24-.28,12.78,0,19.53,7.08,19.53,20.49s-7.53,22.7-19.64,23.09c-.61.04-1.22.06-1.82.06Zm-3.73-1.16c1.93.13,3.7.23,5.49.1h.02c11.7-.37,18.68-8.63,18.68-22.09s-6.23-19.49-18.53-19.49c-2.2,0-4.12,0-5.66.2v41.27Z"/><path class="cls-8" d="m1341.97,322.32c6.85-2.33,13.83-2.19,20.68,0l-3.83,71.06h-12.05l-4.79-71.06Zm10.27,100.22c5.61,0,9.99-4.52,9.99-10.13s-4.38-10.13-9.99-10.13-10.27,4.38-10.27,10.13,4.52,10.13,10.27,10.13Z"/><path class="cls-7" d="m1352.24,423.04c-6.04,0-10.77-4.67-10.77-10.63s4.73-10.63,10.77-10.63,10.49,4.67,10.49,10.63-4.61,10.63-10.49,10.63Zm0-20.26c-5.48,0-9.77,4.23-9.77,9.63s4.29,9.63,9.77,9.63,9.49-4.23,9.49-9.63-4.17-9.63-9.49-9.63Zm7.05-8.9h-12.99l-4.85-71.91.36-.12c6.76-2.3,13.82-2.3,20.99,0l.37.12-.02.39-3.86,71.53Zm-12.05-1h11.11l3.79-70.2c-6.71-2.07-13.31-2.08-19.63,0l4.74,70.21Z"/><g id="Ella"><g id="hår"><path class="cls-9" d="m1107.74,431.16s116.89-22.94,99.15,152.62l-5.22-6.98-4.2,6.98-7.28-8.98-3.13,10.97-6.26-9.98-1.04,7.98-7.31-3.99-5.22,7.98c-10.85-6.09-7.48-14-16.7-2.99l-5.22-5.99-1.04,6.98s-9.39-4.99-6.26-8.98c3.13-3.99-5.78,10.97-5.78,10.97,0,0-8.83-2-11.96-9.98,0,0,2.09,6.98-9.39,11.97,0,0,2.09-14.12-3.13-14.04,0,0,5.22,5.5,0,10.27,0,0-3.13-2.21-6.26-9.19,0,0-8.35,4.99-6.26,10.97,0,0-7.31-7.98-6.26-10.97,0,0,0,8.98-4.17,10.97l-4.17-8.98s0,4.99-3.13,5.99c0,0-6.26-2.99-6.26-9.98v11.56s-7.31-.58-7.31-14.55c0,0-3.13,9.73,0,12.35,0,0-7.31-.38-8.35-10.35l-4.17,11.97s-8.35-6.98-7.31-10.97l-1.04,8.98s-6.26-3.99-5.22-9.98c0,0-3.72,4.39-3.13,10.97-8.73-17.66-43.75-143.78,73.05-153.62Z"/><path class="cls-4" d="m1108,432.12c90.42-9.93,106.48,81.23,97.88,151.66.62-.17,1.24-.34,1.86-.5-1.74-2.33-3.48-4.66-5.22-6.98-.44-.59-1.31-.7-1.73,0-1.4,2.33-2.8,4.66-4.2,6.98l1.57-.2c-2.43-2.99-4.85-5.99-7.28-8.98-.49-.61-1.48-.22-1.67.44-1.04,3.66-2.09,7.32-3.13,10.97l1.83-.24c-2.09-3.33-4.17-6.65-6.26-9.98-.57-.91-1.74-.44-1.86.5-.35,2.66-.7,5.32-1.04,7.98.5-.29,1-.58,1.5-.86-2.44-1.33-4.87-2.66-7.31-3.99-.49-.27-1.07-.1-1.37.36-1.74,2.66-3.48,5.32-5.22,7.98l1.37-.36c-3.1-1.67-5.59-4.17-7.83-6.84-3.62-4.69-7.61,1.2-10.08,4h1.41c-1.74-2-3.48-3.99-5.22-5.99-.46-.53-1.56-.29-1.67.44-.35,2.33-.7,4.66-1.04,6.98l1.47-.6c-2.17-1.24-8.4-4.99-5.66-7.88.18-.24.07.02,0-.03-.48-.28-.96-.55-1.43-.83l.03-.22c-1.49,3.3-4.26,7.7-6.34,11.32l1.13-.46c-4.81-1.1-9.41-4.68-11.26-9.28-.63-1.3-2.45-.61-1.87.81.7,4.91-4.72,8.86-9,10.56.49.38.98.75,1.47,1.13.44-4.15,1.93-14.87-4.1-15.31-.89,0-1.29,1.09-.71,1.71,2.37,2.46,2.82,6.47,0,8.86l1.21-.16c-2.16-1.77-4.58-5.74-5.9-8.84-.22-.49-.94-.61-1.37-.36-3.98,2.39-8.37,7.1-6.72,12.1.56-.32,1.11-.65,1.67-.97-2.04-2.29-4-4.72-5.41-7.46-.4-.81-.82-1.83-.6-2.54-.65-.09-1.31-.18-1.96-.27,0,1.44-.17,2.89-.45,4.3-.42,2.11-1.15,4.76-3.23,5.81l1.37.36c-1.39-2.99-2.78-5.99-4.17-8.98-.43-.93-1.86-.43-1.86.5,0,1.73-.52,4.37-2.4,5.02l.77.1c-3.44-1.66-5.73-5.33-5.77-9.11-.01-1.29-2-1.29-2,0v11.56l1-1c-.07,0,.34.08.06,0-.16-.05-.33-.07-.49-.12-.12-.04-.23-.08-.35-.12s-.14-.06,0,0c-4.74-2.21-5.47-8.59-5.52-13.31,0-1.15-1.62-1.33-1.96-.27-.99,3.71-2.89,10.3.26,13.32l.71-1.71c-.22-.01-.22-.03-.07,0-4.5-.61-6.94-5.19-7.28-9.35-.12-1.1-1.58-1.38-1.96-.27-1.39,3.99-2.78,7.98-4.17,11.97l1.67-.44c-2.37-2.05-4.65-4.32-6.26-7.03-.49-.86-1.03-1.97-.79-2.97l-1.96-.27c-.35,2.99-.7,5.99-1.04,8.98.5-.29,1-.58,1.5-.86-2.76-1.87-5.35-5.28-4.76-8.85.14-.87-.96-1.83-1.67-.97-2.64,3.15-3.75,7.66-3.42,11.68l1.86-.5c-.3-.62-.58-1.25-.85-1.88-22.92-62.13-13.41-140.3,65.04-149.35,2.66-.37,5.33-.66,8-.89,1.27-.11,1.28-2.11,0-2-85.41,3.84-100.86,88.06-73.92,155.12.43.87,1.94.47,1.86-.5-.38-3.54.84-7.72,2.84-10.27l-1.67-.97c-.71,4.47,1.98,8.73,5.68,11.1.7.45,1.42-.16,1.5-.86.35-2.99.7-5.99,1.04-8.98.13-1.12-1.71-1.35-1.96-.27-.67,2.84,1.56,5.66,3.27,7.67,1.3,1.53,2.75,2.98,4.29,4.28.59.5,1.41.3,1.67-.44,1.39-3.99,2.78-7.98,4.17-11.97-.65-.09-1.31-.18-1.96-.27.41,5.22,3.67,10.89,9.35,11.35.84.05,1.35-1.14.71-1.71-1.65-1.45-1.16-4.64-.86-6.55.25-1.63.62-3.26,1.12-4.83l-1.96-.27c-.03,5.7,1.43,14.42,8.31,15.55.54.05,1-.5,1-1v-11.56h-2c.03,4.56,2.76,8.73,6.75,10.84.87.37,1.89-.34,2.51-.93,1.53-1.52,2.08-3.82,2.13-5.92l-1.86.5c1.39,2.99,2.78,5.99,4.17,8.98.24.51.92.58,1.37.36,3.98-2.29,4.46-7.69,4.67-11.84,0-1.15-1.63-1.33-1.96-.27-.37,1.17.06,2.42.52,3.49,1.47,3.14,3.71,5.87,5.99,8.45.66.73,1.98-.03,1.67-.97-1.35-4.09,2.59-7.92,5.8-9.84l-1.37-.36c1.65,3.49,3.57,7.09,6.62,9.55.36.26.91.13,1.21-.16,3.59-3.13,3.17-8.41,0-11.69-.24.57-.47,1.14-.71,1.71,3.65.34,2.37,10.72,2.19,12.63-.22.93.54,1.69,1.45,1.28,3.87-1.7,7.84-4.29,9.44-8.39.55-1.41.85-3.21.42-4.71l-1.93.53c2.11,5.25,7.12,9.41,12.66,10.67.44.1.9-.07,1.13-.46,1.97-3.3,3.95-6.61,5.73-10.01.29-.55.69-1.17.81-1.78.25-1.24-1.09-1.71-1.9-.91-2.07,2.05-1.42,4.64.29,6.67,1.53,1.81,3.65,3.28,5.74,4.4.51.27,1.37.07,1.47-.6.35-2.33.7-4.66,1.04-6.98l-1.67.44c1.74,2,3.48,3.99,5.22,5.99.33.38,1.08.39,1.41,0,1.53-1.77,3.19-3.97,5.13-5.09.1-.04.55-.15.34-.12.08-.01.16-.01.24,0,.17.02-.15-.04.08.02.18.05.45.21.63.37,2.74,2.96,5.4,6.07,9.05,7.97.49.28,1.07.1,1.37-.36,1.74-2.66,3.48-5.32,5.22-7.98l-1.37.36c10.46,5.36,8.09,6.99,9.85-4.85-.62.17-1.24.34-1.86.5,2.09,3.33,4.17,6.65,6.26,9.98.45.72,1.59.6,1.83-.24,1.04-3.66,2.09-7.32,3.13-10.97l-1.67.44c2.43,2.99,4.85,5.99,7.28,8.98.42.51,1.27.3,1.57-.2,1.4-2.33,2.8-4.66,4.2-6.98h-1.73c1.74,2.33,3.48,4.66,5.22,6.98.61.81,1.76.52,1.86-.5,8.65-72.28-8.11-163.62-100.41-153.58-1.26.25-.73,2.18.53,1.93Z"/><g class="cls-6"><path class="cls-4" d="m1128.61,439.14c46.24,8.03,68.15,50.41,68.38,94.26.02.64,1.02.64,1,0-.19-7.9-.91-15.79-2.35-23.56-5.34-34.66-31.25-66.49-67.03-71.71-.64-.07-.63.93,0,1h0Z"/></g><path class="cls-4" d="m1160.05,544.8c-16.43-10.16-23.33-30.44-24.46-48.9-.04-.64-1.04-.64-1,0,1.14,18.8,8.21,39.45,24.96,49.76.57.29,1.08-.57.5-.86h0Z"/><g class="cls-6"><path class="cls-4" d="m1176.13,576.44c-2.14-3.57-1.31-8.79-.21-12.82.17-.62-.79-.89-.96-.27-1.11,4.39-2.14,9.75.47,13.79.41.49,1.12-.22.71-.71h0Z"/></g><g class="cls-6"><path class="cls-4" d="m1035.13,547.98c-2.28-38.85,8.74-90.76,50.54-104.15.61-.2.35-1.17-.27-.96-42.6,13.99-53.4,65.34-51.27,105.11.05.64,1.05.64,1,0h0Z"/></g><g class="cls-6"><path class="cls-4" d="m1190.95,554.33c5.46,4.63,6.88,12.65,6.21,19.55-.06.64.94.64,1,0,.63-7.18-.78-15.63-6.71-20.42-.53-.37-1.03.49-.5.86h0Z"/></g><g class="cls-6"><path class="cls-4" d="m1133.78,458.02c5.8,8.47,20.79,13.52,30.35,16.52.62.18.88-.78.27-.96-7.35-2.19-14.7-4.86-21.3-8.81-3.07-1.86-6.19-3.95-8.28-6.95-.06-.1-.12-.19-.17-.3-.28-.58-1.15-.07-.86.5h0Z"/></g><g class="cls-6"><path class="cls-4" d="m1102.11,457.16c-7.81,10.97-21.55,16.14-34.37,18.48-.63.11-.36,1.07.27.96,13.1-2.38,27.01-7.72,34.97-18.94.33-.56-.54-1.06-.86-.5h0Z"/></g><path class="cls-4" d="m1131.29,555.92c-6.01-4.05-8.23-11.86-8.36-18.8-.01-.64-1.01-.64-1,0,.15,7.23,2.48,15.48,8.86,19.66.56.32,1.07-.55.5-.86h0Z"/><g class="cls-6"><path class="cls-4" d="m1045.84,546.35c3.76,6.2,2.43,14.18-.39,20.49-.26.58.6,1.09.86.5,2.95-6.61,4.38-14.99.39-21.5-.37-.52-1.24-.02-.86.5h0Z"/></g></g><g id="ben"><path class="cls-14" d="m1125.85,822.5s.8-14.29,2.13-27.09c-1.5.39-12.69,5.08-16.99,6.12-.85,12.46-1.3,26.18.5,29.18,1.86,3.09,27.11,9.75,25.68,1.63,0,0-1.09-10.81-11.33-9.83Z"/><path class="cls-4" d="m1126.85,822.5c.52-9.04,1.22-18.08,2.13-27.09.07-.66-.69-1.12-1.27-.96-4.48,1.46-8.78,3.5-13.27,4.97-1.22.42-2.45.84-3.71,1.15-.45.11-.7.53-.73.96-.47,8.75-1.3,17.59-.3,26.32.15,1.09.34,2.27.88,3.25,1.66,2.22,4.73,2.9,7.22,3.8,4.82,1.52,21.08,5.54,20.38-2.57-.54-5.21-4.22-10.33-9.73-10.81-1.07,0-3.49-.56-3.6.99,0,.5.46,1.05,1,1,6.23-.73,9.63,3.96,10.32,8.78.01.11.03.21.04.32.03.19,0-.19,0,.07.02.17.01.35,0,.52,0,.27.05-.11-.01.09-.03.11-.18.52-.06.26-.07.15-.15.28-.24.41-.06.1.14-.12-.03.03-.06.05-.12.12-.17.17-.03.03-.21.18-.09.08s-.12.08-.16.11c-4.46,2.55-18.53-1.01-22.75-3.81-.14-.12-.27-.24-.39-.37-.01,0,.11.22.06.07-.05-.11-.13-.21-.17-.33-.08-.17.04.12,0,0-1.12-3.52-.93-7.42-.95-11.11.03-5.76.36-11.51.74-17.26-.24.32-.49.64-.73.96,5.82-1.54,11.29-4.19,16.99-6.12l-1.27-.96c-.93,9.01-1.6,18.05-2.13,27.09-.07,1.29,1.93,1.28,2,0Z"/><path class="cls-14" d="m1153.23,782.01s-1.61,45.47,2.25,50.96c2.07,2.95,27.73,7.8,25.73-.2,0,0-1.86-10.7-12-9,0,0-.7-46.96,2.89-47.22"/><path class="cls-4" d="m1152.23,782.01c.04,7.92-2.09,49.57,3.43,52.42,4.81,2.51,10.45,3.25,15.8,3.66,5.44.31,13.42-.35,10.02-7.88-1.97-5.32-6.83-8.58-12.54-7.4.42.32.84.64,1.27.96-.05-13.83-.28-28.45,1.17-41.88.2-1.5.54-3.52,1.04-4.39.06-.13.17-.2-.03.02.04-.04.08-.09.12-.13-.05.04-.24.16-.07.06.1-.06-.27.1-.16.07.09-.03.22-.02-.17.02,1.32-.07,1.31-1.97,0-2-2.13.35-2.21,3.52-2.57,5.22-1.69,14.25-1.36,28.68-1.32,43,.01.7.63,1.07,1.27.96,4.43-.91,8.47,1.69,10.01,5.83.26.61.7,1.95.83,2.84-.04-.27,0,.11,0,.21,0,.06,0,.13,0,.19,0,.21,0,0,0,.01-.03.12-.06.23-.09.35-.04.19.04-.07.01-.02-.03.06-.06.12-.09.18-.05.09-.26.35-.08.14-.39.45-.6.57-1.17.86-.09.04-.19.09-.04.02-1.97.77-3.96.83-6.19.79-5-.15-10.02-1.01-14.73-2.78-.27-.08-1.3-.64-1.47-.78.14.11-.08-.08-.13-.12-.18-.14-.03-.03-.01,0-.15-.22-.28-.46-.38-.71-.33-.72-.91-3.59-1.01-4.62-1.59-14.89-1.05-29.92-.73-44.86.32-1.42-1.89-1.73-1.99-.27h0Z"/><g class="cls-6"><path class="cls-4" d="m1110.34,834.9s-.26.1-.08.05c-.16.07-.34.11-.51.14.07-.02.08-.02.06-.02-.14.03-.28.02-.41.01-.13,0,.12.03,0,0-.08-.02-.16-.03-.24-.06-.04-.01-.21-.09-.06-.01-.13-.06-.26-.13-.38-.22-.02-.02-.11-.09,0,0-.12-.1-.23-.2-.33-.32-.02-.02-.14-.17-.07-.08-.98-1.39-1.17-3.12-1.33-4.77-.05-.64-1.05-.64-1,0,.2,1.97.43,4.17,1.82,5.69.79.81,2.06,1.01,3.04.45.55-.33.05-1.2-.5-.86h0Z"/></g><g class="cls-6"><path class="cls-4" d="m1153.77,836.41s-.26.1-.08.05c-.16.07-.34.11-.51.14.07-.02.08-.02.06-.02-.14.03-.28.02-.41.01-.13,0,.12.03,0,0-.08-.02-.16-.03-.24-.06-.04-.01-.21-.09-.06-.01-.13-.06-.26-.13-.38-.22-.02-.02-.11-.09,0,0-.12-.1-.23-.2-.33-.32-.02-.02-.14-.17-.07-.08-.98-1.39-1.17-3.12-1.33-4.77-.05-.64-1.05-.64-1,0,.2,1.97.43,4.17,1.82,5.69.79.81,2.06,1.01,3.04.45.55-.33.05-1.2-.5-.86h0Z"/></g></g><g id="nederdel"><path class="cls-16" d="m1174.04,668.78s12.04,58.78,11.28,75.23c0,0,9.86,45.84-106.47,77.19,0,0,8.67-30.42,10.16-47.94,1.67-19.59,10.87-100.95,16.79-99.61,5.91,1.34,30.07,9.59,68.24-4.88Z"/><g id="sløjfe"><path class="cls-4" d="m1102.51,679.01c-18.51,23.97-36.81,7.4-21.71-1.05,0,0,11.06-6.22,22.77-.92,0,0-22.81-.04-19.65,8.5,0,0,2.07,4.73,18.97-6.76"/><path class="cls-4" d="m1083.09,692.43c-4.06.16-8.49-2.49-8.84-6.35-.54-3.49,2.39-7.19,6.71-9.36l.02.02c2.66-1.27,12.59-5.32,22.99-.61l4.23,1.92c-.92,0-4.97-.02-5.82,0l1.05,1.55c-.1.07-.21.14-.31.21-7.28,9.34-14.65,12.62-20.05,12.62Zm-1.81-13.6c-13.02,7.63,1.35,19,15.78,4.77-5.87,3.24-11.89,5.64-14.06,2.33-2.4-7.48,8.76-8.97,14.94-9.63-8.87-1.67-16.29,2.33-16.66,2.53h0Zm3.54,6.25c.27.26,3.31,2.48,17.35-7.03-4.73.23-19.18,1.06-17.35,7.03Z"/><path class="cls-4" d="m1101.27,682.24c5.17,22.89-13.36,26.14-11.06,12.81,0,0,1.67-9.78,10.41-14.41,0,0-11,13.97-4.46,16.15,0,0,3.77,1.01,5.16-14.89"/><path class="cls-4" d="m1094.33,703.66c-8.95-.49-5.5-17.47,5.94-23.7,0,0,3.21-1.7,3.21-1.7-.44.56-2.41,3.04-2.8,3.58l1.41.12c0,.1-.02.2-.03.3,2.59,11.89-.79,20.78-7.73,21.41Zm-3.36-8.47c-1.02,4.93,1.78,8.83,6.08,5.99,2.6-1.84,4.81-6.2,4.3-13.31-.95,5.16-2.37,9.9-5.39,9.66-5.58-2.16-1.07-9.64,1.48-13.74-5.2,4.64-6.41,11.07-6.47,11.39h0Zm9.57-13.16c-2.15,3.04-8.55,12.21-4.22,14,.29-.05,3.05-.91,4.22-14Z"/><path class="cls-4" d="m1097.36,697.82c-2.71,5.13-5.29,10.71-5.38,16.6.04,2.15,1.28,5.13,1.52,6.64.38,1.86.7,3.63.47,5.18-.02.24.13-.48.03-.15-.05.18-.27.83,0,.1-.03.08-.07.15-.1.23.31-.62.19-.33.09-.2.36-.51.22-.27.11-.16-.21.22.35-.28.1-.1-6.08,3.3-10.93,11.96-9.78,19.7.1.83.79,1.14,1.47.66.74-.53,1.26-1.67,1.15-2.58-.74-7.03,2.46-11.24,7.14-14.35,4.19-2.28,2.13-10.64.55-15.42.03.13.04.16.04.15-.12-.48-.16-1.08-.17-1.61,0-1.41.56-3.98,1.37-6.19.38-1.15,2.01-4.93,3.07-6.82-.39.77-.21.38-.11.2.38-.68.89-1.87.27-2.57-.59-.66-1.55.17-1.85.71h0Z"/><path class="cls-4" d="m1091.91,699.67c-5.59,4.11-12.55,11.09-9.45,18.6.12.52.54,3.25.48,4.65,0,.1-.01.32,0-.14-.05,1.99-.17,3.07-.72,4.79-.06.19-.01.35.05-.13-.17.51-.42.99-.65,1.48-.15.31.08-.15.09-.16-.19.4-.49.77-.74,1.14-.09.12-.05.07.12-.15-.33.42-.69.81-1.07,1.18.3-.29-.13.11-.25.2-.38.31-.78.59-1.19.84-.02.01-.42.23-.14.08-.88.48-1.83.85-2.8,1.12-1.37.39-2.28,4.17-.35,3.62,9.85-2.7,12.08-14.66,9.11-22.62-.07-.33-.08-.66-.12-1-.01-.09.01-.32,0,.07,0-.29.03-.58.07-.87.02-.12.12-.52,0-.01.07-.33.16-.66.27-.98.08-.26.06.07-.05.14.94-2.4,2.49-4.14,4.9-6.4-.18.17-.17.15,0,0,.89-.78,1.8-1.54,2.77-2.21.76-.52,1.25-1.67,1.15-2.58-.1-.86-.78-1.14-1.47-.66h0Z"/></g><g id="blomst"><path class="cls-13" d="m1150.9,699.86s-2.65-7.95-11.06-9.1c0,0-5.65,6.09-2.17,14.34,0,0-6.9-1.99-13.24,5.25,0,0,2.37,7.54,11.07,9.09,0,0-5.65,6.09-2.17,14.34,0,0,7.28,1.67,13.23-5.26,0,0,2.65,7.95,11.06,9.1,0,0,5.65-6.09,2.17-14.34,0,0,7.58,2.09,13.24-5.25,0,0-2.08-7.13-10.87-9.24,0,0,5.45-5.94,1.97-14.19,0,0-7.28-1.67-13.23,5.26Z"/><path class="cls-12" d="m1145.06,703.6s-1.52,6.15,3.54,10.76c0,0-4.39-3.92-10.96-1.73,0,0,4.36,4.12,10.84,2.23,0,0-5.86,2.19-6.91,8.85,0,0,5.75-1.67,7.33-8.38,0,0-1.07,6.31,4.03,10.44,0,0,1.59-5.38-3.41-10.66,0,0,4.35,3.79,10.83,1.64,0,0-4.31-4.17-10.86-2.24,0,0,5.96-2.21,6.93-8.84,0,0-5.55,1.31-7.4,8.52,0,0,1.3-6-3.95-10.58Z"/></g><g class="cls-6"><path class="cls-4" d="m1169.58,681.66c-5.06,3.57-11.36,5.43-17.51,5.58-.64,0-.64,1.01,0,1,5.93-.09,11.88-1.9,16.93-5,.37-.23.74-.46,1.09-.72.51-.38.02-1.24-.5-.86h0Z"/></g><g class="cls-6"><path class="cls-4" d="m1177.5,743.85c.67,5.96-.33,12.76-3.01,18.38-.27.58.59,1.09.86.5,1.94-4.1,3-8.55,3.27-13.07.12-2.01.13-4.08-.17-6.08-.1-.63-1.06-.36-.96.27h0Z"/></g><g class="cls-6"><path class="cls-4" d="m1094.55,775.72c-.48,8-1.33,16.04-3.38,23.8-.69,2.57-1.54,5.15-2.9,7.45-.33.56.54,1.06.86.5,2.53-4.46,3.56-9.6,4.5-14.59.99-5.67,1.59-11.42,1.91-17.17.03-.64-.97-.64-1,0h0Z"/></g><path class="cls-2" d="m1175,673.39s-33.05,19.12-71.98,4.98c0,0,1.16-4.55,2.82-3.4,0,0,28.64,7.95,68.18-5.6l.97,4.02Z"/><g id="blomst-2"><path class="cls-13" d="m1151.38,778.7c-4.66-6.05-2.22-11.9-2.22-11.9,7.15-1.67,11.1,3.81,11.1,3.81,3.02-7.06,9.07-7.72,9.07-7.72,5.04,5.86,2.21,11.91,2.21,11.91-5.25,5.17-20.5,24.13-29.14,11.82,2.2-6.88,8.98-7.9,8.98-7.9Z"/><path class="cls-12" d="m1162.6,782.46c-5.51-2.65-5.72-7.5-5.72-7.5,5.18,1.81,6.05,7.15,6.05,7.15-.56-5.79,3.45-8.78,3.45-8.78.75,5.77-2.96,8.84-2.96,8.84,1.24-.84-.74.66-.74.66-4.47,3.55-9.18,1.34-9.18,1.34,4.47-3.72,9.09-1.72,9.09-1.72Z"/></g><g id="blomst-3"><path class="cls-13" d="m1093.62,729.1c.63-3.03.64-6.13,1-9.2.37-3.33,1.28-6.65,1.73-9.98,2.01-5.63,5.62-9.58,12.22-8.02,2.97,7.07-1.74,12.74-1.74,12.74,7.87,1.48,9.93,7.91,9.93,7.91-4.56,6.46-11.46,4.92-11.46,4.92,2.43,7.8-1.94,12.66-1.94,12.66-8.04-1.06-9.93-7.91-9.93-7.91.07-.83.12-1.87.17-3.04,0-.03.01-.05.02-.08Z"/><path class="cls-12" d="m1095.3,719.69c6.21-1.83,9.71,1.89,9.71,1.89-5.37,2.26-9.73-1.37-9.73-1.37,4.41,4.22,3.27,9.47,3.27,9.47-4.55-4.06-3.71-9.17-3.71-9.17-.41,1.56.14-1.06.14-1.06,1.13-6.04,6.4-7.65,6.4-7.65-1.01,6.17-6.08,7.89-6.08,7.89Z"/></g><g id="blomst-4"><path class="cls-13" d="m1115.98,749.36s-5.14-4.09-11.2-1.11c0,0-1.15,6.55,4.66,10.47,0,0-5.41,1.75-6.54,9.36,0,0,4.78,3.94,11.2,1.1,0,0-1.15,6.55,4.66,10.47,0,0,5.53-2.13,6.53-9.37,0,0,5.14,4.09,11.2,1.11,0,0,1.15-6.55-4.66-10.47,0,0,5.91-1.98,6.54-9.36,0,0-4.41-3.8-11.13-1.29,0,0,1.09-6.36-4.73-10.28,0,0-5.53,2.13-6.53,9.37Z"/><path class="cls-12" d="m1113.7,754.44s1.61,4.75,6.92,5.56c0,0-4.58-.64-8,3.72,0,0,4.64.79,8.13-3.34,0,0-2.95,4.05-.81,8.93,0,0,3.1-3.67,1.29-8.81,0,0,1.98,4.66,7.11,5.13,0,0-1.24-4.27-6.8-5.55,0,0,4.49.58,7.87-3.73,0,0-4.63-.85-8.15,3.34,0,0,3.01-4.12.83-8.94,0,0-3.12,3.33-1.28,8.93,0,0-1.69-4.56-7.12-5.25Z"/></g><g id="blomst-5"><path class="cls-13" d="m1102.08,805.96c-1.75-5.54,1.49-9.03,1.49-9.03,5.5.74,6.89,5.68,6.89,5.68,3.96-4.19,8.41-3.04,8.41-3.04,2.06,5.51-1.5,9.03-1.5,9.03-5.05,2.25-20.74,11.59-23.7.54,3.33-4.29,8.4-3.19,8.4-3.19Z"/><path class="cls-12" d="m1109.06,811.63c-3.22-3.36-2.12-6.86-2.12-6.86,3.2,2.68,2.45,6.7,2.45,6.7,1.1-4.25,4.7-5.29,4.7-5.29-.95,4.29-4.37,5.47-4.37,5.47,1.1-.26-.69.27-.69.27-4.08,1.31-6.85-1.52-6.85-1.52,4.12-1.43,6.89,1.23,6.89,1.23Z"/></g><path class="cls-4" d="m1174.93,668.46c4.46,24.65,10.78,50.77,11.28,75.24.23,43.19-61.95,64.31-95.36,75.1-2.46.16-12.75,5.21-12.92,2.22,15.17-47.38,10.82-98.84,25.36-146.25,1.31-3.54,3.6-1.35,7.52-.86,17.86,2.25,35.97,2.45,53.13-2.72,1.85-.13,13.63-5.92,10.41-1.51-21.6,8.39-46.71,11.46-68.65,4.92-.26.02.24-.08.01,0-.25.08.25-.12-.02.02s.06-.11-.06.04c-.06.08-.14.15-.2.23-.08.1-.29.42-.11.14-14.9,47.08-10.32,99.01-25.54,146.36l-1.24-1.1c34.78-9.93,105.57-31.85,105.85-76.18-.63-23.81-6.58-49.81-11.03-74-.54-.88.03-3.62,1.57-1.65Z"/></g><g id="overkrop"><path class="cls-14" d="m1112.01,576.07l-3.22,81.46s-20.84-21.14-20.31-28.3c.53-7.16.84-53.24,23.53-53.16"/><path class="cls-4" d="m1109.69,659.88c-3.09-3.33-22.1-21.91-22.22-30.72.84-13.95,1.82-54.83,25.57-54.08l-3.35,84.8Zm1.27-82.77c-12.88-.18-20.62,21.65-21.49,52.2-.37,5.03,11.94,19.07,18.41,25.85l3.08-78.05Z"/><path class="cls-14" d="m1141.06,574.36c21.99-5.61,33.52,39,35.78,45.82,2.26,6.81-12.8,32.4-12.8,32.4,0,0-15.51-47.02-22.98-78.22"/><path class="cls-4" d="m1163.78,654.98l-.69-2.1c-.09-.22-16.08-48.91-23.24-79.25,22.83-6.44,33.71,32.91,37.93,46.23,2.03,8.55-11.81,31.14-14,35.12Zm-21.51-79.87c6.54,27.01,18.96,65.6,22.03,75.02,4.6-8.12,13.19-24.83,11.59-29.64-8.31-29.45-21.15-48.75-33.62-45.37Z"/><path class="cls-14" d="m1107.59,606.16s5.83,15.03-2.38,67.61c0,0,16.8,14.17,68-4,0,0-23.62-51.61-21.62-65.61l-9.53-31.39s-19.64,4.22-31.05,3.31c-11.42-.91,0,0,0,0l-3.42,30.09Z"/><path class="cls-4" d="m1127.81,680.07c-17.03-.15-22.52-5.01-23.68-5.9,8.1-50.41,2.57-68.22,2.52-67.65,0,0-.09-.23-.09-.23.04-.4,3.29-28.94,3.33-29.3l-4.04-.32.16-1.99,5.07.41c11.13.89,30.57-3.25,30.76-3.29l.9-.19,9.86,32.49c-2.12,13.6,21.27,64.67,21.51,65.27l.46.99c-19.81,7.2-36.2,9.82-46.76,9.72Zm-21.52-6.76c2.92,1.91,20.79,11.52,65.55-4.12-3.35-7.42-22.91-51.46-21.28-64.94l-9.2-30.31c-3.91.8-19.26,3.76-29.48,3.2l-3.28,28.91c.73,2.19,5.25,18.42-2.32,67.27Z"/><g id="bikini"><path class="cls-4" d="m1113.53,573.65c-4.52,24.62,1.3,25.89,1.3,25.89,37.42,33.7,5.01,37.92-7.59,31.17-7.53-5.69,4.36-56.81,4.36-56.81l1.94-.24Z"/><path class="cls-4" d="m1140.63,629.1c11.81,9.46,20.96-.94,20.96-.94,6-7-10-29-10-29-.99-12.73-8.06-26.5-8.06-26.5h-4c15.69,28.77-6.94,38.73,1.09,56.45,0,0-2.87.96-10.04.06l.71-.93h9l.33.87Z"/></g></g><g id="ansigt"><path class="cls-14" d="m1119.11,457.98s29.7,33.04,52.1,27.78c13.12,23.43,21.83,65.77-9.5,79.41-48.04,25.17-126.86,9.24-101.77-67.88,0,0,33.07-1.09,59.17-39.3Z"/><path class="cls-4" d="m1116.29,577.29c-42.71-.84-74.93-25.35-57.09-80.98l.7-.02c-.06.44,35.11-2.95,59.1-39.92,7.2,8.51,34.81,33.81,52.71,28.25,13.95,24.18,22.18,67.89-9.61,81.47-14.31,7.5-30.47,11.2-45.81,11.2Zm-55.61-79.05c-23.28,73.06,48.64,92.03,100.56,66.04,30.14-12.96,22.33-54.01,9.45-77.39-16.19,4.07-40.73-15.56-51.47-27.32-18.27,25.38-38.39,35.97-58.54,38.67Z"/><g id="kinder"><path class="cls-16" d="m1079.04,540.47c13.78,4.59,9.79,16.25-3.92,11.43-13.78-4.59-9.79-16.25,3.92-11.43Z"/><path class="cls-16" d="m1161.17,531.36c12.35-7.64,18.75,2.9,6.27,10.33-12.35,7.64-18.75-2.9-6.27-10.33Z"/></g><g id="_øjenbryn-2"><path class="cls-4" d="m1147.87,502.73c-1.34,7.62,7.65,10.54,13.72,10.69,1.28.09,1.28-1.91,0-2-5.01-.1-12.51-2.45-11.84-7.89.53-1.39-1.45-2.19-1.88-.8h0Z"/><path class="cls-4" d="m1083.37,510.03c.09.13.16.27.23.4.05.09.2.47.06.11.18.44.31.89.39,1.36.01.07.04.35.01.06.05.42.06.85.03,1.28,0,.07-.05.41-.01.18-.08.53-.22,1.05-.42,1.55-1.45,3.31-5.26,5.5-8.57,6.99-1.12.68-.17,2.33,1.01,1.73,5.64-2.28,12.73-7.95,9-14.67-.72-1.06-2.46-.06-1.73,1.01h0Z"/></g><g id="_øjne"><g id="_øje-3"><path class="cls-4" d="m1108.58,525.6c.62,18.5-26.88,19.89-28.12,1.42-.62-18.5,26.88-19.88,28.12-1.42Z"/><path class="cls-11" d="m1096.04,523.93c.44,6.78-10.22,7.32-10.46.53-.44-6.78,10.22-7.32,10.46-.53Z"/><path class="cls-11" d="m1102.13,532.08c.24,3.67-5.53,3.96-5.66.29-.24-3.67,5.53-3.96,5.66-.29Z"/></g><g id="_øje-4"><path class="cls-4" d="m1157.81,520.67c.62,18.5-26.88,19.89-28.12,1.42-.62-18.5,26.88-19.88,28.12-1.42Z"/><path class="cls-11" d="m1145.27,519.01c.44,6.78-10.22,7.32-10.46.53-.44-6.78,10.22-7.32,10.46-.53Z"/><path class="cls-11" d="m1151.36,527.15c.24,3.67-5.53,3.96-5.66.29-.24-3.67,5.53-3.96,5.66-.29Z"/></g></g><g id="mund-2"><path class="cls-4" d="m1113.67,540.36c3.29-6.76,9.25-7.5,14.27-1.55.88.95,2.29-.47,1.41-1.41-5.97-6.75-13.21-6.2-17.41,1.95-.6,1.17,1.04,2.13,1.73,1.01h0Z"/></g></g><g class="cls-6"><path class="cls-4" d="m1079.97,620.62c-1.99,6.89-4,18.74,5.02,21.26.62.15.89-.81.27-.96-7.61-1.87-6.29-12.12-4.91-17.86.18-.73.36-1.45.59-2.16.2-.61-.77-.88-.96-.27h0Z"/></g><g class="cls-6"><path class="cls-4" d="m1184.1,612.21c2.51,5.94,6.17,16.97-1.73,20.33-.59.23-.34,1.2.27.96,8.73-3.6,5.14-15.26,2.32-21.8-.27-.58-1.14-.07-.86.5h0Z"/></g></g><g id="glas"><path id="glas_fill_" class="cls-5" d="m392.27,717.05c0-22-75.87-23.52-75.87-23.52,0,0-72.13-1.48-84.13,26.52,0,0,82,26,160-3"/><g id="glas_stroke_"><path class="cls-4" d="m311.09,731.67c-44.67,0-78.6-10.51-79.12-10.67l-1.05-.33c7.96-24.87,67.25-28.7,85.51-28.14.19,0,19.26.42,38.07,3.52,26.14,4.47,39.08,11.14,38.77,21.69-27.96,10.52-56.89,13.95-82.18,13.93Zm-77.43-12.26c9.94,2.89,85.83,23.32,157.58-3.06-.84-10.21-20.5-15.6-37.05-18.34-18.68-3.08-37.62-3.5-37.81-3.5-.7-.01-69.8-1.12-82.72,24.9Z"/><path class="cls-4" d="m311.09,731.17c-26.97-.16-54.11-3.42-80.04-10.99.1.24.2.49.3.73,9.9-26.01,67.72-28.7,91.83-27.62,15.06,1,70.3,4.17,69.59,24.44l.37-.48c-26.16,9.8-54.18,13.93-82.04,13.91-.64,0-.64,1,0,1,27.95,0,56.08-4.11,82.31-13.95.21-.08.37-.25.37-.48,0-1.7-.18-3.31-.85-4.89-5.29-11.58-27.11-15.27-38.61-17.33-32.11-4.97-65.75-5.33-97.04,4.3-10.65,3.52-22.53,9.46-26.79,20.6-.13.3-.04.63.3.73,16.88,5.05,34.38,7.9,51.88,9.65,9.45.9,18.94,1.37,28.43,1.37.64,0,.64-1,0-1Z"/><path class="cls-4" d="m233.53,719.9c23.22,6.43,47.31,9.6,71.37,10.22,29.28.63,58.9-3.15,86.47-13.27.19-.07.39-.25.37-.48-.58-6.38-7.34-10.04-12.58-12.28-17.15-6.86-35.94-8.34-54.2-9.68-15.4-.99-30.9.12-46.14,2.43-14.86,2.59-34.44,6.8-43.9,19.51-.64.9-1.2,1.84-1.69,2.83-.29.57.58,1.08.86.5,2.08-4.15,5.49-7.42,9.3-9.99,14.32-9.11,31.72-11.62,48.3-13.49,18.24-2.7,95.05-1.09,99.05,20.17l.37-.48c-49.98,17.99-105.56,16.58-156.5,3.29-.27-.08-.54-.15-.81-.23-.62-.18-.88.78-.27.96Z"/></g><g id="sugerør"><path class="cls-15" d="m295.77,774.55s-42.5-143.5-52-148c0,0-5.5-5.5-49-3,0,0-7-11.08,0-19.04,0,0,46-.96,58,5.04,0,0,17.27-5,62.63,165l51.87,219.5s-10,8-19,5l-52.5-224.5Z"/><path class="cls-4" d="m296.73,774.28c-14.87-47.57-27.97-96.03-47.75-141.85-1.16-2.25-2.62-5.37-4.54-6.63-10.42-5.75-37.22-3.72-49.67-3.26l.86.5c-1.86-3.12-3-6.76-2.97-10.4.06-2.4.98-4.04,1.86-6.17.38-.93.06-.72.6-.97,13.59-.17,27.37,0,40.94,1.43,4.96.53,10.18,1.12,14.87,2.9.74.28,1.37.55,2.13.68.12.02-.38,0-.14.02.37.05-.22-.11.32.06.93.35,1.37.73,2.15,1.45,3.05,2.9,5.26,6.62,7.45,10.39,20.88,40.15,32.22,84.57,44.91,127.79,21.21,80.93,38.81,162.78,58.57,244.09.09-.32.17-.65.26-.97-4.65,3.69-11.87,6.64-18.03,4.74l.7.7c-17.52-74.83-34.98-149.68-52.5-224.5-.29-1.25-2.22-.72-1.93.53,17.49,74.79,34.99,149.63,52.48,224.39.63,1.47,3.5,1.47,4.88,1.51,5.76.08,11.3-2.55,15.82-5.96.28-.22.33-.65.26-.97-6.17-26.1-12.33-52.2-18.5-78.3-24.49-97.46-41.1-198.43-83.15-290.34-2.54-4.75-7.95-15.84-13.77-16.61-1.13-.09.83.32.25.04-13.11-4.99-27.84-4.55-41.66-5.04-5.5-.07-11.02-.19-16.5-.04-2.18.36-3.5,4.39-3.91,6.29-1.02,4.75.36,10.17,2.91,14.26.18.29.51.52.86.5,12.44-.71,25.11-1.25,37.53.13,3.85.48,8.85.86,11.56,3.19,4.16,5.44,6.4,12.34,9.03,18.63,16.04,42.05,28.8,85.29,41.92,128.31.36,1.23,2.3.71,1.93-.53Z"/><path class="cls-4" d="m238.27,624.11c-.04-.65-.96-15.83,6.72-18.03l.55,1.92c-5.1,1.46-5.54,12.02-5.28,15.97l-2,.13Z"/><path class="cls-4" d="m246.36,628.7l-2.17-.29c.1-.72,2.46-17.62,10.97-18.45l.21,2.18c-5.64.55-8.42,12.15-9.01,16.57Z"/><path class="cls-4" d="m248.07,631.95l-1.69-1.06c.33-.52,8.15-12.84,15.89-12.84v2c-6.65,0-14.13,11.78-14.2,11.9Z"/><path class="cls-4" d="m251.06,637.66l-1.58-1.22c.38-.49,9.34-11.95,16.99-10.37l-.41,1.96c-6.45-1.34-14.92,9.52-15.01,9.63Z"/></g><g id="banan"><path class="cls-12" d="m366.03,722.43s-18.9-38.75,23.63-56.71c0,0,57.65-15.12,59.54,45.37,0,0-2.84,51.04-63.32,30.24,0,0-17.01-9.45-19.85-18.9Z"/><path class="cls-4" d="m411.92,747.32c-7.78,0-16.59-1.68-26.37-5.04l-.16-.07c-.71-.39-17.31-9.71-20.3-19.41-8.56-18.67-6.08-45.92,24.17-57.99l.13-.05c24.73-6.03,60.12,1.23,60.8,46.3-.78,13.45-10.75,36.74-38.28,36.26Zm-25.63-6.9c37.16,13.46,59.02-2.15,61.91-29.38-.69-43.33-34.1-49.92-58.22-44.36-29.67,11.94-30.81,38.02-23.05,55.32l.06.15c2.59,8.65,18.09,17.58,19.3,18.27Z"/><path class="cls-12" d="m402.87,685.64s-4.52,9.51,2.33,18.5c0,0-5.97-7.66-17.51-6.07,0,0,5.85,7.98,17.16,6.85,0,0-10.38,1.81-14.28,12.3,0,0,10.04-1,14.82-11.41,0,0-3.83,9.92,3.24,18.13,0,0,4.37-8.24-2.15-18.3,0,0,5.94,7.44,17.33,5.87,0,0-5.75-8.04-17.18-6.86,0,0,10.55-1.81,14.31-12.28,0,0-9.57.47-14.99,11.61,0,0,4.11-9.35-3.07-18.32Z"/><path class="cls-4" d="m408.66,724.27c-5.33-5.92-4.77-13.39-3.98-16.67-5.03,8.8-14,9.8-14.09,9.81l-.31.03c2.7-7.81,9.54-11.22,12.73-12.22-9.62.3-15.58-6.99-15.47-7.03,0,0-.19-.26-.19-.26,8.13-1.31,14.11,2.38,16.51,4.58-5.09-8.43-1.2-16.86-1.16-16.95l.13-.28c5.3,6.33,4.76,13.56,3.91,16.78,5.51-9.37,14.09-9.9,14.18-9.9h.29c-2.59,7.77-9.47,11.15-12.71,12.16,9.65-.34,15.59,7.02,15.46,7.06,0,0,.19.26.19.26-8.38,1.34-14.46-2.63-16.66-4.71,5.26,9.4,1.35,17,1.31,17.08l-.13.25Zm-3.45-18.55l.36.15c-.04.1-3.63,9.72,3.01,17.7.66-1.49,3.47-8.99-2.27-17.84l.32-.23c.06.07,5.88,7.19,16.81,5.84-1.12-1.37-6.79-7.55-16.8-6.52l-.05-.39c.1-.02,10.29-1.89,14.05-11.86-1.65.2-9.76,1.67-14.52,11.47l-.35-.16c.04-.09,3.9-9.17-2.84-17.87-.67,1.67-3.59,10.09,2.43,18l-.31.24c-.06-.08-5.92-7.41-16.99-6.04,1.14,1.36,6.88,7.5,16.77,6.5l.05.39c-.1.02-10.11,1.88-14.01,11.86,1.74-.28,10.14-2.11,14.34-11.26Z"/><g id="ansigt-2"><g id="_øje-5"><path class="cls-4" d="m405.32,697.47c-6.08,12.55-25.21,3.39-19.24-9.22,6.08-12.55,25.21-3.39,19.24,9.22Z"/><path class="cls-11" d="m398.68,699.45c-1.17,2.53-5.11.64-3.87-1.85,1.17-2.53,5.11-.64,3.87,1.85Z"/><path class="cls-11" d="m397.57,691.83c-2.16,4.68-9.45,1.18-7.16-3.43,2.16-4.68,9.45-1.18,7.16,3.43Z"/></g><g id="_øje-6"><path class="cls-4" d="m429.7,713.81c-6.08,12.55-25.21,3.39-19.24-9.22,6.08-12.55,25.21-3.39,19.24,9.22Z"/><path class="cls-11" d="m421.95,708.17c-2.16,4.68-9.45,1.18-7.16-3.43,2.16-4.68,9.45-1.18,7.16,3.43Z"/><path class="cls-11" d="m423.06,715.79c-1.17,2.53-5.11.64-3.87-1.85,1.17-2.53,5.11-.64,3.87,1.85Z"/></g><g id="_øjenbryn-3"><path class="cls-4" d="m398.42,677.43c.25-.56.72-1.01.97-1.23.15-.11.32-.21.49-.3.08-.04.18-.08.04-.02.54-.21.85-.25,1.45-.19,1.36.18,3.01,1.44,4.12,2.58.75.75,1.91-.42,1.16-1.16-2.4-2.64-6.65-4.76-9.25-1.16-.4.49-.8,1.34-.1,1.76.35.21.94.11,1.12-.29h0Z"/><path class="cls-4" d="m432.59,697.35c-.44.06-.14.02-.03.01.87-.03,1.3.01,2.14.32-.21-.07-.13-.06-.08-.03.24.11.47.24.69.39.14.08-.14-.13-.02-.02.19.15.35.32.51.51-.07-.07-.08-.09-.06-.07.17.19.28.42.39.64.08.16-.03-.11.04.09.09.26.17.52.22.79,0,.04.05.33.02.12.14,1.2-.02,2.33-.33,3.52-.26,1.03,1.33,1.46,1.58.44,1.13-3.77.21-8.24-4.47-8.36-.35-.02-.69,0-1.03.05-1.03.3-.64,1.8.44,1.58h0Z"/></g><g id="mund-3"><path class="cls-4" d="m406.62,712.95c.76-6.54-4.3-8.33-9.61-5.81-1.02.37-.56,1.86.47,1.57,1.88-.78,3.92-1.42,5.64-.8-.21-.08.07.03.12.06.1.05.2.1.29.16.05.03.29.2.1.06.53.44.62.57.96,1.21.02.04.06.14-.03-.06.53,1.33.51,2.09.44,3.33,0,.12.04-.28.01-.13-.2,1.07,1.31,1.44,1.59.4h0Z"/></g><g id="kinder-2"><path class="cls-16" d="m382.87,700.54c2.08,7.62-4.4,9.33-6.35,1.68-2.08-7.62,4.4-9.33,6.35-1.68Z"/><path class="cls-16" d="m413.92,722.45c7.89.29,7.59,6.98-.3,6.56-7.89-.29-7.59-6.98.3-6.56Z"/></g></g><path class="cls-3" d="m370.91,720.25s-16.44-33.71,20.56-49.33c0,0,50.16-13.16,51.8,39.47,0,0-2.47,44.4-55.09,26.31,0,0-14.8-8.22-17.27-16.44Z"/></g><path id="glas_fill_-2" class="cls-5" d="m232.27,721.05s35.5,80.5,28.5,131.5c0,0,1,26-10,90-17.79,86.84,180.77,92.89,144-2,0,0-20-82-18-93,0,0-3.5-79.5,14.5-130.5,0,0-65,28-159,4Z"/><g id="glas_stroke_-2"><path class="cls-4" d="m329.68,1010.6c-34.37-.77-89.36-17.65-79.89-68.22,10.85-63.26,10-89.42,9.98-89.88,6.06-30.97-13.89-99.62-29.24-132.93,90.09,24.45,163.83-4.27,162.45-4.35-18.36,49.07-15.35,131.67-15.2,132.39-2.02,10.72,17.77,91.81,17.97,92.69,19.94,56.14-32.38,70.58-66.06,70.29Zm-67.91-158c.05,1.77.55,28.61-10.02,90.12-16.72,86.81,179.36,89.51,142.07-1.84-.84-3.43-19.92-81.89-18.06-93.39-.13-3.34-2.92-78.93,13.85-128.72-11.71,4.37-72.55,24.4-155.63,3.75,16.52,37.1,33.36,101.61,27.79,130.09Z"/><path class="cls-4" d="m329.68,1010.1c-30.38-.89-72.59-12.83-79.44-46.93-1.6-8.1-.75-16.05.61-24.1,4.49-28.33,9.21-56.88,9.43-85.64,4.13-46.25-12-91.9-29.33-134.11l-.56.73c53.09,13.43,110.79,14.42,162.71-4.35l-.62-.62c-14.88,43.45-15.74,90.15-15.35,135.63.32,8.58,2.24,17.21,3.87,25.61,3.94,20.15,8.55,40.17,13.29,60.14,2.97,10.83,6.55,21.6,4.85,33.02-3.83,29.94-38.21,39.6-64.08,40.49-1.79.08-3.59.12-5.39.13-.64,0-.64,1,0,1,39.65-.04,81.3-16.89,68.6-64.11-2.73-8.56-4.61-17.36-6.62-26.11-4.77-21.37-9.99-42.72-13-64.42-.96-13.48-.67-27.02-.43-40.53,1.2-33.88,3.84-68.4,15.23-100.57.12-.33-.27-.76-.61-.62-51.68,18.74-109.33,17.8-162.18,4.35-.46-.12-.73.35-.56.73,16.92,41.95,33.33,87.09,29.18,132.99-.48,26.61-4.07,53.06-8.28,79.31-2.95,15.54-5.02,30.52,3.34,44.93,14.44,23.81,44.88,31.72,70.98,33.91,1.46.09,2.91.12,4.37.13.64,0,.64-1,0-1Z"/><path class="cls-4" d="m261.27,852.6c-.11,27.49-4.46,54.82-8.64,81.93-1.19,7.27-2.66,14.45-2.22,21.85,2.41,68.67,166.9,74.02,146.51-6.51-5.95-21.15-10.5-42.71-15.06-64.21-2.38-12.67-5.63-25.39-5.6-38.34-.67-43.02.74-87.11,13.84-128.43.12-.34-.26-.75-.61-.61-49.74,17.17-104.64,16.11-155.37,3.75-.46-.11-.73.35-.56.73,14.39,35.39,26.71,72.65,28.53,111.08.2,6.21.04,12.46-.79,18.62-.09.63.88.9.96.27,4.6-42.58-12.08-91.25-27.84-130.47l-.56.73c50.92,12.41,105.96,13.45,155.9-3.75l-.62-.62c-13.7,42.69-14.41,88.32-13.94,132.75,3.19,29.39,10.98,58.13,17.49,86.93,19.2,52.44-21.79,70.73-67.41,69.64-31.71-2.44-73.8-15.99-73.96-54.1-.08-7.77,1.7-15.43,2.92-23.06,3.92-25.89,7.94-51.96,8.03-78.2-.02-.64-1.02-.64-1,0Z"/></g><g id="skygger"><g class="cls-6"><path class="cls-4" d="m246.39,716.12c5.15-4.48,11.64-7.92,18.56-8.24.64-.02.64-1.02,0-1-6.63.25-12.94,3.39-18.04,7.49-.42.33-.83.68-1.22,1.04-.47.44.24,1.15.71.71h0Z"/></g><g class="cls-6"><path class="cls-4" d="m270.77,822.57l-1-.04c.98-22.54-6.17-33.37-6.24-33.47l.83-.56c.3.45,7.41,11.18,6.41,34.08Z"/></g><g class="cls-6"><path class="cls-4" d="m372.86,883.84c-10.53-12.39-8.23-58.17-6.09-72.15l.99.13c-.07.54-6.83,53.8,5.91,71.43l-.81.59Z"/></g></g></g></svg>