<?xml version="1.0" encoding="UTF-8"?><svg id="eksport" xmlns="http://www.w3.org/2000/svg" width="170" height="142" viewBox="0 0 170 142"><defs><style>.cls-1{opacity:.5;}.cls-2{fill:#38322d;}.cls-2,.cls-3,.cls-4,.cls-5{stroke-width:0px;}.cls-3{fill:#fff;}.cls-4{fill:#f4e787;}.cls-5{fill:#f4e6ef;}</style></defs><g id="bananer"><g id="banan"><path class="cls-4" d="m123.25,12.07l-4.35,16.6C156.35,107.2,51.92,143.34,2.61,74.83c-3.26-3.58-2.23-4.69.71-9.03,0,0,38.06,15.11,67.46-2.84,40.78-26.51,38.87-27.6,39.73-52.85,0,0,5.47-4.79,7.23-4.55s5.77,4.74,5.53,6.49Z"/><path class="cls-2" d="m122.66,11.9c-1.45,5.52-2.9,11.05-4.34,16.57-.06.36.11.62.26.94,1.27,2.69,2.41,5.43,3.41,8.23,16.11,43.54-15.54,76.22-59.29,72.47-20.15-1.81-39.07-12.03-52.59-27-2.35-2.57-4.56-5.28-6.61-8.09-.72-.98-1.7-1.86-2.13-3.02-.3-.82-.14-1.61.24-2.37.61-1.24,1.46-2.37,2.23-3.51l-.7.28c20.13,7.05,43.52,9.03,63.23-.34,3.55-1.72,6.8-3.92,10.09-6.09,5.57-3.66,11.14-7.35,16.51-11.33,17.22-12.68,17.75-17.94,18.14-38.53l-.18.44c1.44-1.26,2.96-2.46,4.59-3.47.72-.39,1.59-1.11,2.41-.82,1.1.44,2.05,1.49,2.81,2.36.79.99,1.84,2.1,1.89,3.43-.08.79,1.15.79,1.23,0,.12-1.17-.76-2.41-1.42-3.29-1.31-1.6-3.52-4.48-5.84-3.63-2.46,1.02-4.51,2.86-6.55,4.53-.37.43-.21,1.43-.23,1.97-.3,18.77-1.27,23.84-16.78,35.41-6.17,4.62-12.62,8.85-19.06,13.06-3.57,2.42-7.29,4.64-11.31,6.24-15.85,6.44-33.72,5.72-50.07,1.65-2.95-.75-5.89-1.59-8.74-2.66-.13-.05-.26-.1-.39-.15-.26-.1-.55.07-.7.28-1.71,2.53-4.18,5.37-1.78,8.35,49.36,70.56,156.4,34.84,118.44-45.48l.06.48c1.45-5.53,2.9-11.07,4.35-16.6.2-.77-.99-1.1-1.19-.33Z"/><path class="cls-2" d="m7.59,72.3s-.27-3.26-4.28-6.5c-2.66,4.01-3.98,4.4-.71,9.03,0,0,4.49-1.53,4.99-2.53Z"/><g id="_øje"><path class="cls-2" d="m88.99,72.57c-4.24,8.52-17.18,2.11-13.01-6.45,4.24-8.52,17.18-2.11,13.01,6.45Z"/><path class="cls-3" d="m84.46,73.87c-.81,1.72-3.48.39-2.62-1.3.81-1.72,3.48-.39,2.62,1.3Z"/><path class="cls-3" d="m83.76,68.66c-1.51,3.17-6.44.73-4.84-2.4,1.51-3.17,6.44-.73,4.84,2.4Z"/></g><g id="_øje-2"><path class="cls-2" d="m105.44,83.92c-4.24,8.52-17.18,2.11-13.01-6.45,4.24-8.52,17.18-2.11,13.01,6.45Z"/><path class="cls-3" d="m100.22,80.01c-1.51,3.17-6.44.73-4.84-2.4,1.51-3.17,6.44-.73,4.84,2.4Z"/><path class="cls-3" d="m100.91,85.22c-.81,1.72-3.48.39-2.62-1.3.81-1.72,3.48-.39,2.62,1.3Z"/></g><g id="_øjenbryn"><path class="cls-2" d="m84.51,58.86c.21-.4.29-.48.66-.81.07-.07-.12.08,0,0,.03-.02.06-.04.09-.06.31-.18.28-.17.66-.26,1.03-.18,2.43.86,3.29,1.79.56.57,1.43-.31.87-.88-1.84-2.07-4.94-3.4-6.64-.41-.37.73.64,1.32,1.07.62h0Z"/><path class="cls-2" d="m107.4,72.79c.71-.03.84-.02,1.48.19.15.05-.13-.07.01,0,.16.08.32.17.47.28,0,0-.12-.1-.05-.04.08.08.17.15.25.23.02.02.14.17.07.08s.04.05.05.08c.08.11.14.23.2.35.05.09-.01-.03-.02-.04.09.21.14.44.18.66,0,.04.02.18,0,.02.09.83-.03,1.55-.25,2.4-.2.77.99,1.1,1.19.33.8-2.62.21-5.66-3.02-5.81-.47-.05-1.18,0-1.19.63,0,.3.28.66.62.62h0Z"/></g><g id="mund"><path class="cls-2" d="m82.91,79.43c-.65,4.53,2.72,5.84,6.48,4.25.77-.26.46-1.39-.33-1.19-.96.38-2.25.72-3.16.59-.3-.05-.68-.15-1-.39-.11-.06.1.1.01,0-.12-.11-.24-.22-.34-.35.06.06.07.08.06.07-.12-.13-.24-.37-.33-.56-.19-.47-.31-1.3-.2-2.15,0-.11-.05.18-.01.1.21-.83-.92-1.19-1.18-.38h0Z"/></g><g id="kinder"><path class="cls-5" d="m73.69,74.48c1.35,5.22-3.07,6.33-4.34,1.09-1.35-5.22,3.07-6.33,4.34-1.09Z"/><path class="cls-5" d="m94.64,89.69c5.37.26,5.11,4.83-.25,4.48-5.36-.26-5.11-4.83.25-4.48Z"/></g><g class="cls-1"><path class="cls-2" d="m53.24,81.17c-14.68,1.24-31.6-.06-44.24-8.26-.42-.28-.84-.58-1.25-.88-.32-.23-.63.3-.31.53,9.78,7.01,22.12,9.15,33.9,9.59,3.97.09,7.96.07,11.9-.37.39-.05.39-.67,0-.62h0Z"/></g><g class="cls-1"><path class="cls-2" d="m22.21,91.75c11.78,9.45,26.69,14.64,41.71,15.29,23.3,1.21,48.46-9.81,55.87-33.48,4.01-12.49,2.55-26.07-1.24-38.43-.12-.38-.71-.22-.6.16,3.41,11.15,4.93,23.2,2.2,34.66-6.98,29.72-39.96,40.76-67.27,35.14-9.76-1.91-19.17-5.79-27.29-11.57-1-.71-1.99-1.46-2.95-2.23-.31-.25-.75.19-.44.44h0Z"/></g><g class="cls-1"><path class="cls-2" d="m93.68,51.59c4.59-3.18,9.16-6.51,13-10.59,1.08-1.17,2.17-2.46,2.74-3.97.14-.37-.45-.53-.6-.16-1.28,2.89-3.84,4.99-6.12,7.08-2.96,2.56-6.1,4.91-9.34,7.11-.33.22-.02.76.31.53h0Z"/></g><g class="cls-1"><path class="cls-2" d="m113.63,25.9c.03-3.75.14-7.59,1.18-11.21.12-.38-.47-.54-.6-.16-1,3.35-1.08,6.9-1.2,10.37,0,.33-.01.66,0,1,0,.4.62.4.62,0h0Z"/></g><g class="cls-1"><path class="cls-2" d="m119.56,15.37c-.4.13-.99.25-1.32.3-.25.03-.5.05-.75.03-.02,0-.03,0-.05,0,.04,0,.05,0,.02,0-.05,0-.09-.02-.14-.03-.08-.02.03.02-.01,0-.15-.07-.33-.04-.42.11-.27,1.05,2.33.35,2.84.2.38-.11.22-.71-.16-.6h0Z"/></g></g><g id="banan-2"><path class="cls-4" d="m136.34,8.19l3.78,18.57c78.51,64.36-17.47,150.19-96.97,99.06,0,0,.62-5.57.62-5.57,0,0,45.05-3.71,65.42-35.91,27.46-46.26,25.04-46.41,13.58-71.82,0,0,3.09-7.43,4.94-8.05s8.02,1.86,8.64,3.71Z"/><path class="cls-2" d="m135.75,8.36c1.26,6.14,2.49,12.29,3.76,18.43.15.6.9,1,1.36,1.38,1.04.88,2.07,1.77,3.08,2.68,15.46,13.64,27.49,33.84,24.31,55.13-4.57,31.11-35.43,51.56-65.04,54.33-20.89,2.22-42.19-3.62-59.74-15.02l.28.7c.26-1.9.43-3.83.64-5.74l-.62.62c23.92-2.93,48.71-12.84,63.53-32.68,4.97-7.14,9.03-14.95,13.38-22.48,4.66-8.8,10.12-17.85,10.79-28.01.28-9.17-4.68-17.33-8.18-25.49l.06.48c.67-1.57,1.81-4.03,2.89-5.73.51-.72,1.02-1.77,1.91-1.95,1.34-.16,2.88.46,4.09.97,1.2.57,2.81,1.2,3.49,2.38.27.74,1.47.42,1.19-.33-.5-1.36-2.07-2.18-3.29-2.77-1.51-.73-3.17-1.35-4.85-1.48-1.34-.1-2.14.52-2.92,1.55-1.5,2.14-2.74,4.55-3.69,6.98-.15.53.38,1.29.6,1.77,2.9,6.67,6.66,13.36,7.39,20.68.64,10.94-5.67,21.06-10.6,30.4-2.36,4.27-4.81,8.49-7.28,12.7s-4.81,8.28-7.85,12.02c-12.94,15.76-32.54,24.42-52.12,28.43-2.71.54-5.43,1-8.18,1.29-.44,0-.97.12-.99.65-.23,1.75-.45,4.24-.6,5.41-.04.29.03.54.28.7,8.43,5.41,17.61,9.65,27.27,12.33,24.49,6.91,52.14,3.02,73.01-11.86,18.08-12.48,30.33-34.64,26.02-56.93-3.16-17.62-14.9-32.36-28.42-43.45-1.18-4.92-2.24-11.31-3.42-16.71-.12-.57-.23-1.14-.35-1.71-.16-.78-1.35-.45-1.19.33Z"/><path class="cls-2" d="m51.18,124.59s-1.85-3.1-7.41-4.33c-.68,5.27-1.54,5.08,3.96,8.06,0,0,3.45-2.48,3.45-3.72Z"/><g id="_øje-3"><path class="cls-2" d="m131.91,84.92c-.05,10.51-15.98,10.51-16.03,0,.05-10.51,15.98-10.51,16.03,0Z"/><path class="cls-3" d="m128.06,88.43c.03,2.1-3.25,2.1-3.22,0-.03-2.1,3.25-2.1,3.22,0Z"/><path class="cls-3" d="m124.83,83.61c.06,3.88-6.02,3.88-5.96,0-.06-3.88,6.02-3.88,5.96,0Z"/></g><g id="_øje-4"><path class="cls-2" d="m153.73,88.09c-.05,10.51-15.98,10.51-16.03,0,.05-10.51,15.98-10.51,16.03,0Z"/><path class="cls-3" d="m146.65,86.78c.06,3.88-6.02,3.88-5.96,0-.06-3.88,6.02-3.88,5.96,0Z"/><path class="cls-3" d="m149.88,91.6c.03,2.1-3.25,2.1-3.22,0-.03-2.1,3.25-2.1,3.22,0Z"/></g><g id="_øjenbryn-2"><path class="cls-2" d="m120.73,73.49c0-.1,0-.2.02-.3.01-.14-.02.1,0,.05.05-.26.1-.51.2-.75-.03.08-.05.09.01-.02.06-.12.12-.24.2-.35.04-.07.12-.15.02-.04.1-.12.2-.23.32-.33.12-.11-.09.05.05-.04.1-.06.19-.12.29-.18.04-.02.22-.1.06-.04.41-.16.64-.2.97-.22,1.02-.06,1.97.21,2.95.55.31.11.68-.13.76-.43.09-.34-.12-.65-.43-.76-1.56-.55-3.54-1-5.07-.1-1.02.6-1.59,1.79-1.59,2.95.02.8,1.25.8,1.23,0h0Z"/><path class="cls-2" d="m150.25,76.02c.49-.29.65-.35,1.28-.49.1-.02.14-.02,0,0,.25-.03.49-.04.74,0,.12,0-.12-.03-.04,0,.17.05.35.07.51.14.13.04-.13-.07,0,0,.15.07.29.15.42.24.14.1-.05-.06.08.06.11.09.21.19.3.29.03.03.05.06.08.09.02.02.13.17.05.05.62.82.88,1.74,1.09,2.76.07.33.45.52.76.43.34-.09.5-.43.43-.76-.33-1.62-1.01-3.56-2.65-4.27-1.21-.52-2.57-.25-3.67.4-.66.44-.04,1.51.62,1.07h0Z"/></g><g id="mund-2"><path class="cls-2" d="m129.31,94.73c1.63,4.76,5.48,4.29,8.39.92.54-.58-.33-1.46-.87-.88-1.03,1.08-2.35,2.4-3.96,2.25.13.02-.08-.02-.11-.03-.08-.02-.16-.04-.23-.07-.04-.01-.19-.07-.07-.02-.52-.24-.77-.48-1.15-.95-.25-.34-.67-1.1-.8-1.56-.23-.76-1.42-.44-1.19.33h0Z"/></g><g id="kinder-2"><path class="cls-5" d="m117.7,94.32c3.88,4.5.05,7.77-3.76,3.21-3.88-4.5-.05-7.77,3.76-3.21Z"/><path class="cls-5" d="m145.85,99.1c5.44-2.37,7.41,2.28,1.93,4.56-5.44,2.37-7.41-2.28-1.93-4.56Z"/></g><g class="cls-1"><path class="cls-2" d="m100.7,111.01c-13.86,8.4-31.28,15.41-47.71,13.54-.58-.07-1.15-.16-1.73-.26-.39-.07-.56.53-.16.6,13.11,2.16,26.38-1.77,38.27-7.12,3.96-1.86,7.92-3.81,11.6-6.19.38-.18.11-.8-.26-.56h0Z"/></g><g class="cls-1"><path class="cls-2" d="m75.17,136.65c16.28,3.57,33.59,1.38,48.77-5.35,23.63-10.23,43.13-33.49,38.92-60.52-2.12-14.33-10.19-27.04-19.96-37.42-.27-.29-.71.15-.44.44,8.8,9.37,16.19,20.56,19.07,33.25,7.59,32.89-19.73,60.02-49.55,67.85-10.59,2.89-21.8,3.66-32.66,1.92-1.34-.22-2.68-.47-4.01-.76-.39-.08-.55.51-.16.6h0Z"/></g><g class="cls-1"><path class="cls-2" d="m126.31,61.81c2.99-5.37,5.87-10.9,7.69-16.8.5-1.67.97-3.49.8-5.25-.04-.39-.65-.4-.62,0,.16,3.49-1.34,6.83-2.58,10.02-1.39,3.32-3,6.55-4.72,9.72-.36.67-.73,1.33-1.1,1.99-.2.35.33.66.53.31h0Z"/></g><g class="cls-1"><path class="cls-2" d="m133.52,26.61c-1.8-3.73-3.55-7.59-4.29-11.69-.06-.39-.65-.23-.59.16.64,3.8,2.3,7.35,3.87,10.84.16.33.32.67.48,1,.18.36.71.04.53-.31h0Z"/></g><g class="cls-1"><path class="cls-2" d="m134.3,13.31c-.53.49-1.22,1.04-1.78,1.29-.08.03-.17.06-.26.08-.04,0-.08,0,0,0-.43-.06-.51.61-.07.62.93-.08,1.65-.82,2.35-1.37.2-.14.43-.4.21-.63-.12-.12-.31-.11-.44,0h0Z"/></g></g><path class="cls-2" d="m136.34,8.19c-7.64,5-13.23,5.56-25.67,1.86-15.24-11.23,40.14-14.69,25.67-1.86Z"/></g></svg>