<?xml version="1.0" encoding="UTF-8"?><svg id="eksport" xmlns="http://www.w3.org/2000/svg" width="129" height="121" viewBox="0 0 129 121"><defs><style>.cls-1{opacity:.5;}.cls-2{fill:#38322d;}.cls-2,.cls-3,.cls-4{stroke-width:0px;}.cls-3{fill:#92785b;}.cls-4{fill:#fff;}</style></defs><g id="kokosnød"><path class="cls-3" d="m70.94,119.38C-24.12,131.61-20.07-6.78,68.86.55c77.73,10.65,81.68,112.32,2.08,118.83Z"/><path class="cls-2" d="m59.29,120.68C-26.26,119.49-14.87-7.86,68.9.03c76.75,9.62,83.64,112.88,2.09,119.87-4.14.53-8.04.78-11.7.78ZM62.1.79C-17.65-.2-22.85,130.04,70.87,118.86h.02c80.37-6.88,73.33-108.37-2.11-117.79-2.27-.19-4.5-.28-6.69-.28Z"/><g id="_øjenbryn"><polygon class="cls-2" points="56.66 49.58 43.97 38.85 44.97 37.64 57.66 48.37 56.66 49.58"/><polygon class="cls-2" points="68 49.35 67.09 48.08 80.88 38.09 81.79 39.36 68 49.35"/></g><g id="mund"><path class="cls-2" d="m51.59,76.9c2.29-4.4,7.53-10.48,13.03-7.63,3.04,1.57,5.07,4.72,6.68,7.63.49.88,1.84.09,1.35-.79-6.56-12.36-15.65-11.93-22.4,0-.47.89.88,1.69,1.35.79h0Z"/></g><g id="_øje"><path class="cls-2" d="m54.82,58.58c-.25,14.79-22.11,14.79-22.36,0,.25-14.79,22.11-14.79,22.36,0Z"/><path class="cls-4" d="m44.94,56.75c.08,5.43-8.4,5.43-8.32,0-.08-5.43,8.4-5.43,8.32,0Z"/><path class="cls-4" d="m49.44,63.5c.04,2.94-4.54,2.94-4.5,0-.04-2.94,4.54-2.94,4.5,0Z"/></g><g id="_øje-2"><path class="cls-2" d="m91.22,59.11c-.25,14.79-22.11,14.79-22.36,0,.25-14.79,22.11-14.79,22.36,0Z"/><path class="cls-4" d="m81.34,57.28c.08,5.43-8.4,5.43-8.32,0-.08-5.43,8.4-5.43,8.32,0Z"/><path class="cls-4" d="m85.84,64.02c.04,2.94-4.54,2.94-4.5,0-.04-2.94,4.54-2.94,4.5,0Z"/></g><g id="tekstur"><g id="tekstur-2"><path class="cls-2" d="m54.56,29.87c-.42-3.06-3.62-4.66-6.17-5.75-.31-.12-.45.39-.14.5,2.31,1,5.36,2.47,5.79,5.24.03.33.55.34.52,0h0Z"/><path class="cls-2" d="m47.02,20.71c5.14.41,10.13,3.64,10.66,9.16.04.33.56.33.52,0-.47-5.29-4.91-8.72-9.87-9.51-.43-.08-.87-.15-1.31-.17-.33-.02-.33.51,0,.52h0Z"/></g><g id="tekstur-3"><path class="cls-2" d="m99.53,52.12c.07-3.28-2.38-6.08-5.39-7.06-.32-.1-.46.41-.14.5,1.8.55,3.52,1.96,4.36,3.67.44.9.64,1.89.64,2.88,0,.34.52.34.52,0h0Z"/><path class="cls-2" d="m92.64,40.3s0,.02-.05.02c1.42.16,2.76.85,4.02,1.5,4.04,2.12,7.5,6.06,7.6,10.83.01.34.53.34.52,0-.22-6.39-5.83-11.27-11.65-12.79-.21-.04-.5-.11-.7,0-.29.17-.03.62.26.45h0Z"/></g><g id="tekstur-4"><path class="cls-2" d="m113.97,82.76c1.62-1.1,1.7-3.55,1.56-5.31-.02-.21-.04-.43-.07-.64-.06-.36-.6-.15-.49.19.14,1.6.31,4.15-1.25,5.31-.28.19-.02.64.26.45h0Z"/><path class="cls-2" d="m119.38,73.86c1.46,5,.2,10.89-4.77,13.32-.3.16-.03.61.26.45,5.16-2.61,6.53-8.64,5-13.91-.1-.32-.6-.18-.5.14h0Z"/></g><g id="tekstur-5"><path class="cls-2" d="m94.59,96.87c.2,1.8,3.39,2.83,4.87,3.39.32.1.46-.4.14-.5-1.36-.48-2.78-1.01-3.89-1.95-.27-.24-.58-.57-.6-.93-.02-.34-.54-.34-.52,0h0Z"/><path class="cls-2" d="m101.68,104.47c-5.65-1.45-14.56-4.96-13.34-12.24.06-.33-.44-.47-.5-.14-1.28,6.89,6.32,10.65,11.77,12.35.64.2,1.28.39,1.93.54.33.07.47-.43.14-.5h0Z"/></g><g id="tekstur-6"><path class="cls-2" d="m46.53,103.55c1.97,2.74,5.66,3.53,8.8,2.68.32-.1.18-.6-.14-.5-2.88.86-6.4.07-8.21-2.44-.2-.26-.65,0-.45.26h0Z"/><path class="cls-2" d="m56.31,109.71c-5.54,1.23-12.77.16-15.2-5.71-.14-.31-.58-.04-.45.26,2.3,5.53,8.82,7.03,14.22,6.22.52-.07,1.05-.15,1.57-.27.33-.08.19-.58-.14-.5h0Z"/></g><g id="tekstur-7"><path class="cls-2" d="m15.82,82c2.71-1.37,3.21-4.91,3.44-7.67.01-.34-.51-.34-.52,0-.21,2.55-.65,5.94-3.18,7.21-.31.13-.04.58.26.45h0Z"/><path class="cls-2" d="m21.77,71.12c2.77,6.27,1.18,13.21-4.52,17.15-.27.2,0,.65.26.45,5.38-3.76,7.41-10.22,5.27-16.43-.16-.49-.34-.98-.56-1.44-.15-.3-.6-.04-.45.26h0Z"/></g></g><g id="skygge" class="cls-1"><path class="cls-2" d="m5.62,66.7c.72-21.21,10.35-43.4,29.12-54.33,4.35-2.58,9.05-4.55,13.91-5.93.32-.09.18-.6-.14-.5-3.98,1.14-7.86,2.66-11.54,4.59-14.53,7.45-24.47,21.68-28.84,37.27-1.58,5.51-2.61,11.19-2.96,16.92-.04.66-.08,1.33-.07,1.99,0,.34.52.34.52,0h0Z"/></g><g id="skygge-2" class="cls-1"><path class="cls-2" d="m105.33,22.46c7.8,6.51,14.58,14.89,17.59,24.75.09.32.6.19.5-.14-2.77-9.25-8.94-17.14-16-23.53-.56-.5-1.13-.99-1.72-1.45-.26-.2-.63.16-.37.37h0Z"/></g></g></svg>