<?xml version="1.0" encoding="UTF-8"?><svg id="eksport" xmlns="http://www.w3.org/2000/svg" width="1920" height="974" viewBox="0 0 1920 974"><defs><style>.cls-1{stroke-width:2px;}.cls-1,.cls-2,.cls-3{stroke-miterlimit:10;}.cls-1,.cls-4{fill:#e5bc9c;}.cls-1,.cls-3{stroke:#38322d;}.cls-2{stroke:#f4e787;}.cls-2,.cls-5{fill:#f4e787;}.cls-6{fill:#e9eff4;}.cls-6,.cls-7{opacity:.5;}.cls-6,.cls-8,.cls-9,.cls-10,.cls-11,.cls-12,.cls-13,.cls-5,.cls-4,.cls-14,.cls-15{stroke-width:0px;}.cls-16{opacity:.6;}.cls-8{fill:#5b4f41;}.cls-9{fill:#38322d;}.cls-10{fill:#d0e8f7;}.cls-11{fill:#c96;}.cls-12{fill:#998f56;}.cls-13{fill:#fff;}.cls-14{fill:#fcfcfc;}.cls-15{fill:#f4e6ef;}.cls-3{fill:none;stroke-width:.5px;}</style></defs><g id="sky"><path class="cls-10" d="m383.17,182.3s269.3-335.3,523.98-12.86c0,0,422.43-329.44,709.81,12.86,0,0,257.17-51.3,280.99,315.7,0,0,8.66,270-201.14,250.3,0,0-44.63,303.7-435.42,115.77,0,0-237.11,196.93-520.75-26.07,0,0-669.63,423-711.71-269.79,0,0-69.5-477.21,354.24-385.9Z"/><path class="cls-8" d="m349.15,966.35c-54.5,0-102.81-10.62-143.93-31.68-105.84-54.21-165.32-177.5-176.79-366.43-.08-.53-8.2-57.61-1.71-127.51,3.81-41.06,11.85-78.45,23.88-111.13,15.05-40.87,36.43-74.44,63.55-99.79,61.1-57.1,151.54-73.27,268.82-48.06,2.72-3.33,33.33-40.2,81.39-76.54,29.45-22.27,59.6-39.98,89.6-52.65,37.18-15.7,74.26-23.66,110.2-23.66.33,0,.66,0,.99,0,87.49.36,168.94,47.41,242.07,139.85,7.23-5.53,111.22-83.77,246.92-121.72,82.25-23,159.89-26.91,230.77-11.63,88.52,19.08,166.65,68.33,232.24,146.36,2.74-.5,24.32-4.17,54.04-1.33,29.24,2.8,72.58,12.64,113.02,43.67,67.36,51.69,105.79,143.83,114.23,273.86.01.37,1.03,35.51-7.22,78.88-7.61,40.05-24.91,95.53-64.06,132.34-33.18,31.19-76.9,44.54-129.95,39.65-.61,3.67-5.05,28.39-19.05,57.9-13.95,29.4-40.5,69.71-87.82,94.85-35.98,19.11-79.1,27.04-128.17,23.55-58.3-4.14-125.84-24.49-200.73-60.47-4.32,3.49-63.29,50.05-153.97,70.49-55.07,12.41-110.9,12.92-165.92,1.49-68.68-14.26-136.29-47.24-200.96-98.03-5.52,3.44-85.17,52.54-188.11,88.58-62.38,21.84-120.99,34.69-174.19,38.18-9.9.65-19.62.97-29.15.97Zm-65.96-795.13c-69.7,0-126.09,19.82-168.36,59.32-27,25.24-48.3,58.68-63.29,99.39-12,32.59-20.02,69.89-23.83,110.87-6.48,69.78,1.62,126.77,1.71,127.34,11.46,188.6,70.75,311.6,176.25,365.64,48.14,24.66,106.19,34.95,172.55,30.6,53.11-3.49,111.63-16.31,173.92-38.12,106.09-37.14,187.42-88.17,188.23-88.68l.3-.19.28.22c64.63,50.81,132.18,83.8,200.79,98.05,54.88,11.4,110.56,10.9,165.49-1.47,93.54-21.08,153.25-70.01,153.84-70.5l.25-.21.29.14c74.89,36.01,142.39,56.37,200.64,60.51,48.88,3.47,91.82-4.41,127.63-23.43,25.98-13.8,62.22-41.37,87.38-94.36,15.05-31.71,19.02-57.85,19.06-58.11l.07-.47.47.04c52.96,4.97,96.58-8.26,129.63-39.34,38.95-36.62,56.17-91.87,63.76-131.77,8.23-43.27,7.22-78.32,7.2-78.67-8.42-129.7-46.72-221.59-113.83-273.11-22.21-17.04-59.75-38.42-112.48-43.48-31.55-3.02-53.87,1.32-54.09,1.36l-.29.06-.19-.23c-65.47-77.99-143.48-127.19-231.85-146.25-70.71-15.25-148.18-11.34-230.27,11.6-139.82,39.09-245.94,121.03-246.99,121.85l-.39.31-.31-.39c-73.02-92.44-154.3-139.5-241.59-139.85-36.13-.15-73.39,7.78-110.79,23.57-29.93,12.64-60,30.31-89.39,52.52-50.04,37.83-81.12,76.24-81.43,76.63l-.19.24-.3-.07c-35.83-7.72-69.14-11.57-99.87-11.57Z"/></g><g id="glas"><g id="fod"><path class="cls-6" d="m1523.64,751.57s-10.64,58.23,1.26,59.98c11.89,1.75,50.83,7.18,41.66,15.39-9.18,8.21-79.21,13.04-119,3.2,0,0-30.19-6.04,42.5-19.44,0,0,6.65,1.09-.43-59.3"/><path class="cls-9" d="m1502.92,836.67c-19.56,0-39.94-1.59-55.62-5.47-1.14-.23-7.07-1.58-7.04-4.93.02-3.22,5.19-8.45,49.61-16.64h0c.55-.53,4.75-6.4-1.31-58.1l2.16-.25c3.73,35.2,5.41,58.06-.55,60.51-47.44,9.07-54.6,14.66-42.39,17.29,37.48,9.17,114.94,6.56,119.03-4.93-1.12-3.72-14.91-7.54-41.01-11.36-15.55-.55-2.71-61.98-3.23-61.41l2.14.39c.34.16-10.5,53.92.35,58.71,19.59,2.8,42.23,6.89,43.83,13.04,2.23,10.21-37.63,12.82-65.97,13.16Z"/><g class="cls-7"><path class="cls-9" d="m1550.76,820.82c2.75.76,5.79,1.31,8.12,3.04.14.13.18.17.25.32.01.03,0,.11.02.06-1.37,1.27-3.63,1.34-5.4,1.76-7.77,1.36-15.66,1.94-23.53,2.45-.7.04-.7,1.13,0,1.09,5.97-.33,11.94-.84,17.87-1.59,3.53-.53,7.19-.83,10.56-2.07,5.65-2.91-5.46-5.62-7.61-6.12-.68-.16-.97.89-.29,1.05h0Z"/></g><g class="cls-7"><path class="cls-9" d="m1440.26,820.04c-3.41.55-6.56,5.41-5.88,8.79,1.4,5.56,8.1,7.19,12.99,8.31.68.14.98-.91.29-1.05-3.04-.64-6.16-1.49-8.81-3.16-5.2-2.98-4.05-8.57.52-11.47.33-.19.47-.25.77-.32.15-.03-.06-.01.13,0,.7,0,.7-1.08,0-1.09h0Z"/></g><g class="cls-7"><path class="cls-9" d="m1572.15,829.94c-3.34,4.89-11.1,6.95-17.03,8.33-.68.15-.39,1.2.29,1.05,5.99-1.42,14.4-3.51,17.79-9.09.26-.65-.79-.93-1.05-.29h0Z"/></g></g><path id="banana_shake" class="cls-5" d="m1417.54,491.81s43.54-22.86,142.58-7.62c0,0-40.27,33.74-142.58,7.62Z"/><path id="glas_fill_" class="cls-6" d="m1572.67,433.37c0-23.94-82.57-25.6-82.57-25.6,0,0-78.51-1.61-91.57,28.87,0,0,89.25,28.3,174.14-3.27"/><g id="glas_stroke_"><path class="cls-9" d="m1484.32,449.29c-48.62,0-85.54-11.44-86.12-11.62l-1.14-.36c8.66-27.07,73.2-31.24,93.07-30.63.21,0,20.96.45,41.44,3.84,28.45,4.86,42.54,12.13,42.2,23.61-30.43,11.45-61.92,15.18-89.44,15.16Zm-84.27-13.34c10.82,3.14,93.42,25.38,171.51-3.33-.92-11.12-22.31-16.98-40.32-19.96-20.33-3.36-40.94-3.81-41.15-3.81-.77-.01-75.97-1.21-90.03,27.1Z"/><path class="cls-9" d="m1484.32,448.75c-29.36-.17-58.9-3.72-87.12-11.96l.33.8c10.78-28.3,73.7-31.24,99.95-30.06,16.39,1.09,76.52,4.54,75.74,26.6l.4-.52c-28.47,10.66-58.97,15.17-89.3,15.14-.7,0-.7,1.09,0,1.09,30.42,0,61.04-4.47,89.59-15.18.23-.08.4-.27.4-.52,0-1.85-.2-3.61-.92-5.33-5.76-12.6-29.51-16.62-42.02-18.87-34.95-5.41-71.57-5.8-105.62,4.68-11.59,3.83-24.52,10.3-29.16,22.42-.14.33-.04.68.33.8,18.37,5.5,37.41,8.6,56.47,10.5,10.28.98,20.61,1.49,30.94,1.5.7,0,.7-1.09,0-1.09Z"/><path class="cls-9" d="m1399.9,436.48c25.27,6.99,51.49,10.45,77.68,11.12,31.87.68,64.1-3.43,94.12-14.45.21-.08.42-.28.4-.52-.64-6.95-7.99-10.93-13.69-13.36-18.67-7.47-39.12-9.08-58.99-10.54-16.76-1.08-33.63.13-50.21,2.65-16.18,2.82-37.48,7.4-47.78,21.23-.69.98-1.31,2.01-1.84,3.08-.31.62.63,1.18.94.55,2.26-4.51,5.98-8.08,10.12-10.87,15.59-9.92,34.53-12.64,52.57-14.68,19.86-2.94,103.45-1.19,107.8,21.95l.4-.52c-54.39,19.58-114.89,18.04-170.34,3.58-.29-.08-.59-.17-.88-.25-.67-.2-.96.85-.29,1.05Z"/></g><g id="sugerør"><path class="cls-14" d="m1467.64,495.95s-46.26-156.18-56.6-161.08c0,0-5.99-5.99-53.33-3.27,0,0-7.62-12.06,0-20.72,0,0,50.07-1.04,63.13,5.49,0,0,18.79-5.44,68.17,179.58l56.45,238.9s-10.88,8.71-20.68,5.44l-57.14-244.34Z"/><path class="cls-9" d="m1468.69,495.66c-16.19-51.77-30.44-104.52-51.97-154.39-1.26-2.44-2.85-5.85-4.95-7.21-11.34-6.26-40.51-4.05-54.06-3.55l.94.54c-2.03-3.39-3.27-7.36-3.23-11.32.06-2.61,1.07-4.4,2.02-6.71.42-1.01.06-.78.65-1.06,14.79-.18,29.79,0,44.56,1.55,5.4.58,11.08,1.22,16.19,3.16.81.31,1.49.6,2.31.74.13.02-.41,0-.16.03.4.05-.24-.11.34.07,1.01.38,1.49.8,2.34,1.58,3.32,3.16,5.73,7.2,8.11,11.31,22.73,43.7,35.06,92.04,48.88,139.09,23.09,88.09,42.24,177.17,63.74,265.66l.28-1.06c-5.06,4.02-12.92,7.23-19.62,5.16l.76.76c-19.06-81.44-38.07-162.92-57.14-244.34-.32-1.36-2.42-.79-2.1.58,19.04,81.4,38.08,162.85,57.11,244.23.68,1.6,3.81,1.6,5.31,1.64,6.27.08,12.3-2.78,17.22-6.49.3-.24.36-.71.28-1.06-6.71-28.41-13.42-56.81-20.14-85.22-26.66-106.07-44.73-215.97-90.49-316-2.76-5.17-8.65-17.24-14.98-18.08-1.23-.1.9.35.27.05-14.26-5.43-30.3-4.95-45.35-5.48-5.98-.08-12-.2-17.96-.05-2.37.4-3.81,4.78-4.25,6.85-1.11,5.17.39,11.07,3.17,15.52.2.31.55.56.94.54,13.54-.77,27.33-1.36,40.84.14,4.19.53,9.63.93,12.58,3.47,4.53,5.93,6.96,13.43,9.83,20.28,17.46,45.77,31.34,92.83,45.63,139.66.4,1.34,2.5.77,2.1-.58Z"/><path class="cls-9" d="m1405.06,332.22c-.05-.7-1.05-17.23,7.32-19.62l.6,2.09c-5.56,1.59-6.03,13.09-5.74,17.38l-2.17.14Z"/><path class="cls-9" d="m1413.87,337.22l-2.36-.32c.1-.78,2.67-19.18,11.94-20.08l.23,2.37c-6.14.6-9.16,13.22-9.81,18.03Z"/><path class="cls-9" d="m1415.73,340.75l-1.84-1.16c.36-.57,8.87-13.97,17.3-13.97v2.18c-7.24,0-15.37,12.82-15.46,12.95Z"/><path class="cls-9" d="m1418.98,346.96l-1.72-1.33c.41-.53,10.17-13.01,18.5-11.28l-.44,2.13c-7.02-1.45-16.24,10.36-16.33,10.48Z"/></g><path id="banana_shake-2" class="cls-2" d="m1417.54,491.81s17.41,59.86,11.88,89.24c0,0,1.09,28.3-10.88,97.96-19.36,94.51,196.75,101.1,156.73-2.18,0,0-21.77-89.25-19.59-101.22,0,0-3.17-38.09,4.44-91.42,0,0-40.27,33.74-142.58,7.62Z"/><g id="banan"><path class="cls-5" d="m1544.11,439.23s-20.57-42.17,25.72-61.72c0,0,62.75-16.46,64.81,49.38,0,0-3.09,55.55-68.92,32.92,0,0-18.52-10.29-21.6-20.57Z"/><path class="cls-9" d="m1594.06,466.32c-8.47,0-18.06-1.83-28.7-5.49l-.17-.08c-.77-.43-18.84-10.57-22.09-21.13-9.31-20.32-6.61-49.98,26.31-63.12l.15-.05c26.92-6.56,65.43,1.34,66.17,50.39-.85,14.63-11.7,39.99-41.66,39.47Zm-27.9-7.52c40.45,14.65,64.24-2.33,67.39-31.98-.75-47.16-37.11-54.33-63.37-48.28-32.29,13-33.53,41.38-25.09,60.21l.06.16c2.82,9.41,19.68,19.14,21.01,19.89Z"/><path class="cls-5" d="m1584.21,399.19s-4.91,10.35,2.53,20.13c0,0-6.5-8.34-19.06-6.61,0,0,6.37,8.69,18.67,7.45,0,0-11.29,1.97-15.54,13.38,0,0,10.92-1.09,16.13-12.42,0,0-4.16,10.79,3.53,19.73,0,0,4.75-8.97-2.34-19.92,0,0,6.46,8.09,18.86,6.39,0,0-6.26-8.75-18.7-7.47,0,0,11.49-1.98,15.57-13.36,0,0-10.42.51-16.31,12.64,0,0,4.47-10.17-3.34-19.94Z"/><path class="cls-9" d="m1590.51,441.23c-5.81-6.44-5.19-14.57-4.34-18.14-5.47,9.58-15.23,10.66-15.34,10.67l-.34.03c2.93-8.5,10.39-12.21,13.86-13.3-10.48.33-16.96-7.61-16.84-7.65,0,0-.21-.29-.21-.29,8.84-1.42,15.36,2.59,17.97,4.99-5.54-9.18-1.31-18.35-1.26-18.45l.15-.31c5.77,6.89,5.18,14.76,4.26,18.27,6-10.19,15.33-10.77,15.43-10.78l.32-.02c-2.82,8.47-10.3,12.16-13.83,13.25,10.5-.37,16.97,7.64,16.82,7.68,0,0,.2.29.2.29-9.13,1.46-15.74-2.87-18.13-5.13,5.72,10.23,1.47,18.51,1.42,18.59l-.15.27Zm-3.76-20.19l.39.16c-.04.11-3.95,10.58,3.28,19.26.72-1.62,3.77-9.79-2.47-19.41l.34-.25c.06.08,6.4,7.82,18.3,6.36-1.22-1.49-7.39-8.21-18.28-7.1l-.06-.42c.11-.02,11.2-2.05,15.29-12.91-1.8.22-10.62,1.81-15.81,12.48l-.38-.18c.04-.1,4.24-9.98-3.09-19.44-.73,1.81-3.91,10.98,2.65,19.59l-.34.26c-.06-.08-6.45-8.06-18.49-6.57,1.24,1.48,7.49,8.16,18.25,7.08l.06.42c-.11.02-11,2.04-15.25,12.91,1.89-.31,11.03-2.29,15.61-12.25Z"/><g id="ansigt"><g id="_øje"><path class="cls-9" d="m1586.87,412.06c-6.62,13.66-27.44,3.69-20.94-10.03,6.62-13.66,27.44-3.69,20.94,10.03Z"/><path class="cls-13" d="m1579.65,414.22c-1.27,2.75-5.56.69-4.21-2.02,1.27-2.75,5.56-.69,4.21,2.02Z"/><path class="cls-13" d="m1578.44,405.93c-2.35,5.09-10.29,1.29-7.79-3.73,2.35-5.09,10.29-1.29,7.79,3.73Z"/></g><g id="_øje-2"><path class="cls-9" d="m1613.41,429.84c-6.62,13.66-27.44,3.69-20.94-10.03,6.62-13.66,27.44-3.69,20.94,10.03Z"/><path class="cls-13" d="m1604.97,423.71c-2.35,5.09-10.29,1.29-7.79-3.73,2.35-5.09,10.29-1.29,7.79,3.73Z"/><path class="cls-13" d="m1606.18,432c-1.27,2.75-5.56.69-4.21-2.02,1.27-2.75,5.56-.69,4.21,2.02Z"/></g><g id="_øjenbryn"><path class="cls-9" d="m1579.37,390.25c.27-.61.79-1.1,1.06-1.33.17-.12.34-.23.53-.32.09-.05.2-.09.04-.03.59-.23.93-.27,1.57-.2,1.48.19,3.27,1.57,4.48,2.81.82.81,2.08-.45,1.26-1.26-2.61-2.87-7.24-5.18-10.06-1.26-.44.53-.87,1.46-.11,1.92.38.22,1.02.12,1.22-.32h0Z"/><path class="cls-9" d="m1616.55,411.93c-.48.07-.15.02-.03.01.95-.03,1.41.01,2.33.35-.23-.07-.14-.06-.09-.04.26.12.51.26.75.43.15.09-.15-.14-.02-.02.2.17.38.35.55.55-.07-.08-.08-.09-.07-.07.18.21.31.45.43.69.09.17-.03-.12.04.1.1.28.18.56.24.86,0,.04.06.36.03.13.16,1.31-.03,2.53-.36,3.83-.28,1.12,1.44,1.59,1.72.48,1.23-4.11.23-8.97-4.87-9.1-.38-.02-.75,0-1.13.06-1.12.33-.7,1.96.48,1.72h0Z"/></g><g id="mund"><path class="cls-9" d="m1577.38,423.13c-.98,7.1,4.47,9.17,10.31,6.55,1.12-.38.66-2.01-.48-1.72-2.07.8-4.3,1.45-6.15.73.23.09-.08-.04-.13-.07-.11-.06-.21-.12-.32-.18-.06-.04-.31-.23-.11-.06-.57-.49-.67-.64-1.02-1.34-.02-.05-.06-.16.03.07-.54-1.46-.51-2.29-.4-3.64,0-.13-.05.31-.02.14.25-1.16-1.39-1.6-1.72-.48h0Z"/></g><g id="kinder"><path class="cls-15" d="m1562.44,415.4c2.26,8.29-4.79,10.15-6.91,1.83-2.26-8.29,4.79-10.15,6.91-1.83Z"/><path class="cls-15" d="m1596.23,439.25c8.59.31,8.26,7.6-.32,7.14-8.59-.31-8.26-7.6.32-7.14Z"/></g></g><path class="cls-3" d="m1549.43,436.86s-17.9-36.69,22.37-53.69c0,0,54.59-14.32,56.38,42.95,0,0-2.68,48.32-59.96,28.64,0,0-16.11-8.95-18.79-17.9Z"/></g><path id="glas_fill_-2" class="cls-6" d="m1398.53,437.72s38.64,87.62,31.02,143.12c0,0,1.09,28.3-10.88,97.96-19.36,94.51,196.75,101.1,156.73-2.18,0,0-21.77-89.25-19.59-101.22,0,0-3.81-86.53,15.78-142.03,0,0-70.75,30.47-173.05,4.35Z"/><g id="glas_stroke_-2"><path class="cls-9" d="m1504.55,752.87c-37.41-.83-97.26-19.21-86.95-74.25,11.81-68.85,10.89-97.32,10.86-97.82,6.59-33.7-15.11-108.42-31.83-144.68,98.06,26.61,178.31-4.65,176.81-4.73-19.98,53.41-16.71,143.31-16.54,144.09-2.2,11.66,19.34,99.92,19.56,100.89,21.7,61.1-35.24,76.81-71.9,76.5Zm-73.91-171.96c.05,1.92.6,31.14-10.9,98.08-18.2,94.49,195.21,97.42,154.63-2.01-.92-3.74-21.68-89.13-19.65-101.64-.15-3.64-3.17-85.9,15.08-140.09-12.75,4.76-78.97,26.56-169.39,4.08,17.99,40.38,36.31,110.59,30.24,141.59Z"/><path class="cls-9" d="m1504.55,752.32c-33.07-.97-79.01-13.96-86.46-51.08-1.74-8.81-.81-17.47.67-26.23,4.88-30.84,10.02-61.91,10.27-93.21,4.5-50.34-13.07-100.02-31.92-145.96l-.61.8c57.78,14.62,120.58,15.7,177.1-4.73-.22-.22-.45-.45-.67-.67-16.19,47.29-17.13,98.12-16.71,147.61.35,9.34,2.44,18.73,4.21,27.87,4.28,21.93,9.3,43.72,14.47,65.46,3.24,11.78,7.13,23.51,5.28,35.94-4.17,32.59-41.59,43.1-69.75,44.06-1.95.09-3.91.13-5.86.14-.7,0-.7,1.09,0,1.09,43.16-.05,88.49-18.39,74.66-69.78-2.97-9.32-5.02-18.89-7.2-28.42-5.19-23.26-10.88-46.49-14.15-70.12-1.04-14.67-.73-29.4-.47-44.11,1.31-36.87,4.18-74.44,16.57-109.46.13-.36-.29-.83-.67-.67-56.25,20.4-119,19.37-176.52,4.73-.5-.13-.8.38-.61.8,18.41,45.66,36.28,94.79,31.76,144.75-.52,28.97-4.43,57.75-9.01,86.32-3.21,16.91-5.46,33.22,3.64,48.9,15.71,25.91,48.84,34.52,77.25,36.91,1.58.1,3.17.14,4.75.14.7,0,.7-1.09,0-1.09Z"/><path class="cls-9" d="m1430.1,580.9c-.12,29.92-4.85,59.66-9.41,89.18-1.3,7.91-2.89,15.73-2.42,23.79,2.62,74.74,181.65,80.56,159.46-7.09-6.48-23.02-11.43-46.48-16.39-69.89-2.59-13.79-6.13-27.63-6.09-41.73-.73-46.82.8-94.81,15.07-139.78.13-.37-.29-.81-.67-.67-54.14,18.69-113.89,17.54-169.1,4.08-.5-.12-.79.38-.61.8,15.67,38.52,29.07,79.08,31.05,120.9.22,6.76.04,13.56-.86,20.27-.09.68.96.98,1.05.29,5.01-46.35-13.15-99.31-30.3-142.01l-.61.8c55.42,13.51,115.33,14.64,169.68-4.08l-.67-.67c-14.91,46.46-15.69,96.13-15.17,144.49,3.47,31.99,11.96,63.27,19.04,94.61,20.89,57.07-23.72,76.98-73.37,75.8-34.51-2.65-80.32-17.4-80.5-58.89-.09-8.45,1.85-16.79,3.18-25.1,4.27-28.18,8.64-56.55,8.74-85.11-.02-.7-1.11-.7-1.09,0Z"/></g><g id="skygger"><g class="cls-7"><path class="cls-9" d="m1413.9,432.36c5.6-4.87,12.66-8.62,20.2-8.97.7-.03.7-1.11,0-1.09-7.22.27-14.08,3.69-19.64,8.15-.45.36-.91.73-1.33,1.13-.51.48.26,1.25.77.77h0Z"/></g><g class="cls-7"><path class="cls-9" d="m1440.43,548.22l-1.09-.05c1.07-24.53-6.71-36.32-6.79-36.43l.9-.61c.33.49,8.06,12.16,6.98,37.09Z"/></g><g class="cls-7"><path class="cls-9" d="m1551.55,614.91c-11.46-13.49-8.96-63.31-6.63-78.52l1.08.14c-.08.58-7.43,58.55,6.43,77.75l-.88.64Z"/></g><g class="cls-7"><path class="cls-9" d="m1441.04,718.56c-14.93-11.31-9.12-53.78-5.69-67.35l.78.19c-.12.51-12,51.66,5.43,66.55l-.52.61Z"/></g><g class="cls-7"><path class="cls-9" d="m1512.29,762.46c-.98,7.94-4.47,31,.14,36.98.46.53,1.23-.24.77-.77-1.2-1.37-1.45-3.72-1.65-5.49-.33-2.96-.32-5.96-.23-8.93.18-5.93.76-11.86,1.51-17.74.16-1.26.32-2.51.51-3.77.1-.69-.95-.98-1.05-.29h0Z"/></g></g></g><g id="overskrift" class="cls-16"><path class="cls-12" d="m378.77,456.79c-1.43,1.43-5.07,3.77-9.75,3.77-5.33,0-9.23-3.25-9.23-8.71l-.13-64.74-22.49,60.97c-6.11,2.08-10.79,2.47-15.6.52-8.45-17.42-17.81-40.82-24.96-61.88l.13,53.69c0,4.94.39,12.48,2.47,18.07-1.43,1.43-3.77,2.08-5.98,2.08-4.16,0-5.72-2.6-5.72-6.76v-67.6c0-7.54-.13-12.48-.91-17.55,1.43-1.43,5.07-2.21,11.83-2.21,4.29,0,6.76,1.04,8.84,3.12,8.32,21.84,16.64,43.68,24.7,64.22,7.15-19.76,17.03-47.71,22.88-65.65,4.16-1.56,8.45-1.69,10.79-1.69,5.2,0,10.01,1.82,10.66,3.64v70.33c0,4.94.39,10.92,2.47,16.38Z"/><path class="cls-12" d="m465.22,418.83c0,27.69-11.44,41.73-34.06,41.73s-33.15-12.74-33.15-41.73v-32.24c0-4.94-.39-10.92-2.47-16.38,1.43-1.43,4.94-3.77,9.75-3.77,5.33,0,9.62,3.25,9.62,8.71v44.59c0,24.57,4.94,34.84,16.25,34.84,11.96,0,17.16-12.09,17.16-34.84v-33.15c0-4.94-.39-10.92-2.47-16.38,1.56-1.43,4.94-3.77,9.62-3.77,5.46,0,9.75,3.25,9.75,8.71v43.68Z"/><path class="cls-12" d="m576.89,456.79c-1.43,1.43-5.07,3.77-9.75,3.77-5.33,0-9.23-3.25-9.23-8.71l-.13-64.74-22.49,60.97c-6.11,2.08-10.79,2.47-15.6.52-8.45-17.42-17.81-40.82-24.96-61.88l.13,53.69c0,4.94.39,12.48,2.47,18.07-1.43,1.43-3.77,2.08-5.98,2.08-4.16,0-5.72-2.6-5.72-6.76v-67.6c0-7.54-.13-12.48-.91-17.55,1.43-1.43,5.07-2.21,11.83-2.21,4.29,0,6.76,1.04,8.84,3.12,8.32,21.84,16.64,43.68,24.7,64.22,7.15-19.76,17.03-47.71,22.88-65.65,4.16-1.56,8.45-1.69,10.79-1.69,5.2,0,10.01,1.82,10.66,3.64v70.33c0,4.94.39,10.92,2.47,16.38Z"/><path class="cls-12" d="m590.15,442.23c0-5.85,3.38-10.79,14.3-9.23-.52,2.08-.52,4.55-.13,6.63,1.04,7.41,6.89,14.82,19.11,14.82,8.06,0,14.69-4.29,14.69-13.52s-6.24-13.52-18.2-20.28c-16.38-9.36-26.52-16.38-26.52-31.33,0-16.51,14.3-23.01,30.68-23.01s27.56,5.07,27.56,15.21c0,4.16-2.08,7.8-8.71,7.93-1.43.26-3.25.13-4.81-.13.13-2.6-.13-5.2-1.04-7.54-1.3-5.33-5.98-9.62-14.95-9.62-5.72,0-12.87,2.47-12.87,11.18s4.68,13,20.15,21.58c12.35,6.76,25.22,14.69,25.22,30.16,0,13.91-10.66,25.61-33.67,25.61-21.06,0-30.81-8.06-30.81-18.46Z"/><path class="cls-12" d="m670.49,365.39c6.5-2.21,13.13-2.08,19.63,0l-3.64,67.47h-11.44l-4.55-67.47Zm9.75,95.16c5.33,0,9.49-4.29,9.49-9.62s-4.16-9.62-9.49-9.62-9.75,4.16-9.75,9.62,4.29,9.62,9.75,9.62Z"/><path class="cls-12" d="m279.94,559.21c0-4.03,2.33-7.43,9.84-6.35-.36,1.43-.36,3.13-.09,4.56.72,5.1,4.74,10.2,13.15,10.2,5.55,0,10.11-2.95,10.11-9.3s-4.29-9.3-12.53-13.96c-11.27-6.44-18.25-11.27-18.25-21.56,0-11.36,9.84-15.83,21.11-15.83s18.97,3.49,18.97,10.47c0,2.86-1.43,5.37-5.99,5.46-.98.18-2.24.09-3.31-.09.09-1.79-.09-3.58-.72-5.19-.89-3.67-4.12-6.62-10.29-6.62-3.94,0-8.86,1.7-8.86,7.69s3.22,8.95,13.87,14.85c8.5,4.65,17.36,10.11,17.36,20.75,0,9.57-7.34,17.62-23.17,17.62-14.49,0-21.2-5.55-21.2-12.7Z"/><path class="cls-12" d="m382.73,569.14c-1.07,1.25-3.04,2.68-6.89,2.68-3.58,0-6.44-1.52-7.07-4.56l-4.03-15.03h-20.22l-2.95,11.54c-.36,1.34-.63,2.68-.63,3.94,0,1.34.36,2.24.98,2.86-1.7.63-3.49,1.25-6.44,1.25-4.56,0-6.53-1.52-6.53-4.92,0-1.52.45-3.67,1.16-6.08l17.62-52.33c3.31-1.07,6.62-1.61,9.84-1.61,2.86,0,5.55.8,6.35,3.85l15.92,52.87c.45,1.52,1.43,4.03,2.86,5.55Zm-19.68-23.26l-8.59-32.03-8.32,32.03h16.91Zm-16.1-49.38c0-4.92,3.76-8.05,9.13-8.05s8.77,3.04,8.77,7.69c-.09,4.83-3.76,7.96-9.12,7.96s-8.77-3.04-8.77-7.6Zm5.55-.18c0,3.04,1.25,4.65,3.4,4.65s3.4-1.61,3.4-4.65-1.16-4.74-3.4-4.74-3.4,1.7-3.4,4.74Z"/><path class="cls-12" d="m445,570.57h-28.45c-3.85,0-6.71-2.24-6.71-5.99v-42.14c0-3.49-.27-7.51-1.7-11.27,2.95-2.51,5.37-2.95,10.65-2.95h25.94c3.31,0,1.88,8.77-1.25,10.2-6.35-2.59-14.05-4.38-22.01-4.56l.09,21.2h19.32c.63,2.15.45,4.56,0,6.35h-19.32v23.53c8.05-.27,19.05-2.59,24.07-4.83,3.04,1.79,3.22,10.47-.63,10.47Z"/><path class="cls-12" d="m506.46,565.29c0,4.56-4.38,6.53-7.07,6.53-7.34,0-9.39-4.92-12.61-12.97l-2.77-7.34c-1.79-4.47-3.4-8.5-9.66-8.5l-3.4-.09v15.66c0,2.77.18,7.16,1.7,10.65-.98.98-3.4,2.59-6.71,2.59-3.85,0-6.71-2.24-6.71-5.99v-44.91c0-2.68-.27-7.51-1.7-11.27,3.49-1.7,8.59-2.68,16.55-2.68,16.91,0,26.21,4.56,26.21,16.28,0,8.86-5.46,15.03-14.14,17.27,4.38,1.25,6.62,4.03,8.68,7.6l3.76,8.68c1.79,4.21,3.22,5.99,5.01,6.08.63,0,1.43-.18,2.15-.81.54,1.25.72,2.33.72,3.22Zm-31.58-26.48c8.41-.27,12.53-6.62,12.53-14.76,0-7.51-3.31-13.06-12.44-13.06-1.61,0-2.95,0-4.03.18v27.55c1.25.09,2.59.18,3.94.09Z"/><path class="cls-12" d="m533.92,564.66l-.09-43.75c0-3.4.27-9.04-1.16-12.88,4.92-.63,13.78-.72,19.86-.72,17.98,0,28.18,10.47,28.18,31.22,0,22.46-10.2,32.03-27.55,32.03h-12.44c-4.21,0-6.8-2.33-6.8-5.9Zm18.61,1.79c10.47,0,15.3-7.25,15.3-27.11s-4.83-27.91-15.3-27.91h-6.89v55.02h6.89Z"/><path class="cls-12" d="m627.86,570.57h-28.45c-3.85,0-6.71-2.24-6.71-5.99v-42.14c0-3.49-.27-7.51-1.7-11.27,2.95-2.51,5.37-2.95,10.65-2.95h25.94c3.31,0,1.88,8.77-1.25,10.2-6.35-2.59-14.05-4.38-22.01-4.56l.09,21.2h19.32c.63,2.15.45,4.56,0,6.35h-19.32v23.53c8.05-.27,19.05-2.59,24.07-4.83,3.04,1.79,3.22,10.47-.63,10.47Z"/><path class="cls-12" d="m689.32,565.29c0,4.56-4.38,6.53-7.07,6.53-7.34,0-9.39-4.92-12.61-12.97l-2.77-7.34c-1.79-4.47-3.4-8.5-9.66-8.5l-3.4-.09v15.66c0,2.77.18,7.16,1.7,10.65-.98.98-3.4,2.59-6.71,2.59-3.85,0-6.71-2.24-6.71-5.99v-44.91c0-2.68-.27-7.51-1.7-11.27,3.49-1.7,8.59-2.68,16.55-2.68,16.91,0,26.21,4.56,26.21,16.28,0,8.86-5.46,15.03-14.13,17.27,4.38,1.25,6.62,4.03,8.68,7.6l3.76,8.68c1.79,4.21,3.22,5.99,5.01,6.08.63,0,1.43-.18,2.15-.81.54,1.25.72,2.33.72,3.22Zm-31.58-26.48c8.41-.27,12.53-6.62,12.53-14.76,0-7.51-3.31-13.06-12.44-13.06-1.61,0-2.95,0-4.03.18v27.55c1.25.09,2.59.18,3.94.09Z"/><path class="cls-12" d="m759.37,552.94c0,11.99-9.39,17.62-25.5,17.62h-9.93c-3.85,0-6.71-2.24-6.71-5.99v-43.66c0-2.68-.27-7.51-1.7-11.27,3.49-1.7,8.59-2.68,16.19-2.68,15.48,0,24.6,4.21,24.6,15.03,0,7.34-4.21,13.06-11.36,14.94,8.5,1.25,14.4,6.71,14.4,16.01Zm-30.42-41.87v24.33h4.65c7.16.18,10.29-4.92,10.29-12.44s-3.04-11.9-11.99-11.9h-2.95Zm17.62,42.05c0-10.82-5.46-13.6-12.97-13.6h-4.65v26.93h4.47c9.48,0,13.15-5.55,13.15-13.33Z"/><path class="cls-12" d="m818.68,569.14c-1.07,1.25-3.04,2.68-6.89,2.68-3.58,0-6.44-1.52-7.07-4.56l-4.03-15.03h-20.22l-2.95,11.54c-.36,1.34-.63,2.68-.63,3.94,0,1.34.36,2.24.98,2.86-1.7.63-3.49,1.25-6.44,1.25-4.56,0-6.53-1.52-6.53-4.92,0-1.52.45-3.67,1.16-6.08l17.62-52.33c3.31-1.07,6.62-1.61,9.84-1.61,2.86,0,5.55.8,6.35,3.85l15.92,52.87c.45,1.52,1.43,4.03,2.86,5.55Zm-19.68-23.26l-8.59-32.03-8.32,32.03h16.91Z"/><path class="cls-12" d="m824.94,570.3c1.43-3.85,1.7-9.04,1.7-12.35v-37.04c0-5.19-.18-8.86-.63-12.35,1.34-1.61,7.16-1.88,8.14-.89,10.65,15.12,29.43,37.93,33.91,47.77l-2.95-40.17c-.45-4.56,1.43-7.69,5.37-8.05,1.61-.09,3.49.27,4.83,1.16-1.16,3.49-1.16,8.23-1.16,11l-.09,38.74c0,5.28.09,8.68.54,12.17-1.16,1.34-5.99,1.97-7.87.98-19.95-23.35-28.81-37.04-33.64-46.07l2.5,39.9c.36,4.03-2.95,6.71-5.82,6.71-1.7,0-3.49-.54-4.83-1.52Z"/><path class="cls-12" d="m937.04,569.14c-1.07,1.25-3.04,2.68-6.89,2.68-3.58,0-6.44-1.52-7.07-4.56l-4.03-15.03h-20.22l-2.95,11.54c-.36,1.34-.63,2.68-.63,3.94,0,1.34.36,2.24.98,2.86-1.7.63-3.49,1.25-6.44,1.25-4.56,0-6.53-1.52-6.53-4.92,0-1.52.45-3.67,1.16-6.08l17.62-52.33c3.31-1.07,6.62-1.61,9.84-1.61,2.86,0,5.55.8,6.35,3.85l15.92,52.87c.45,1.52,1.43,4.03,2.86,5.55Zm-19.68-23.26l-8.59-32.03-8.32,32.03h16.91Z"/><path class="cls-12" d="m943.3,570.3c1.43-3.85,1.7-9.04,1.7-12.35v-37.04c0-5.19-.18-8.86-.63-12.35,1.34-1.61,7.16-1.88,8.14-.89,10.65,15.12,29.43,37.93,33.91,47.77l-2.95-40.17c-.45-4.56,1.43-7.69,5.37-8.05,1.61-.09,3.49.27,4.83,1.16-1.16,3.49-1.16,8.23-1.16,11l-.09,38.74c0,5.28.09,8.68.54,12.17-1.16,1.34-5.99,1.97-7.87.98-19.95-23.35-28.81-37.04-33.64-46.07l2.5,39.9c.36,4.03-2.95,6.71-5.82,6.71-1.7,0-3.49-.54-4.83-1.52Z"/><path class="cls-12" d="m1055.4,569.14c-1.07,1.25-3.04,2.68-6.89,2.68-3.58,0-6.44-1.52-7.07-4.56l-4.03-15.03h-20.22l-2.95,11.54c-.36,1.34-.63,2.68-.63,3.94,0,1.34.36,2.24.98,2.86-1.7.63-3.49,1.25-6.44,1.25-4.56,0-6.53-1.52-6.53-4.92,0-1.52.45-3.67,1.16-6.08l17.62-52.33c3.31-1.07,6.62-1.61,9.84-1.61,2.86,0,5.55.8,6.35,3.85l15.92,52.87c.45,1.52,1.43,4.03,2.86,5.55Zm-19.68-23.26l-8.59-32.03-8.32,32.03h16.91Z"/><path class="cls-12" d="m1078.12,559.21c0-4.03,2.33-7.43,9.84-6.35-.36,1.43-.36,3.13-.09,4.56.72,5.1,4.74,10.2,13.15,10.2,5.55,0,10.11-2.95,10.11-9.3s-4.29-9.3-12.53-13.96c-11.27-6.44-18.25-11.27-18.25-21.56,0-11.36,9.84-15.83,21.11-15.83s18.97,3.49,18.97,10.47c0,2.86-1.43,5.37-5.99,5.46-.98.18-2.24.09-3.31-.09.09-1.79-.09-3.58-.72-5.19-.89-3.67-4.12-6.62-10.29-6.62-3.94,0-8.86,1.7-8.86,7.69s3.22,8.95,13.87,14.85c8.5,4.65,17.36,10.11,17.36,20.75,0,9.57-7.34,17.62-23.17,17.62-14.49,0-21.2-5.55-21.2-12.7Z"/><path class="cls-12" d="m1182.08,569.23c-.98.98-3.4,2.59-6.71,2.59-3.85,0-6.71-2.24-6.71-5.99v-24.69h-23.8v16.82c0,3.4.18,7.51,1.7,11.27-.98.98-3.4,2.59-6.71,2.59-3.85,0-6.71-2.24-6.71-5.99v-44.91c0-3.4-.27-7.51-1.7-11.27.98-.98,3.4-2.59,6.71-2.59,3.85,0,6.71,2.24,6.71,5.99v21.83h23.8v-13.96c0-3.4-.27-7.51-1.7-11.27.98-.98,3.4-2.59,6.71-2.59,3.76,0,6.71,2.24,6.71,5.99v44.91c0,3.4.18,7.51,1.7,11.27Z"/><path class="cls-12" d="m1243.36,569.14c-1.07,1.25-3.04,2.68-6.89,2.68-3.58,0-6.44-1.52-7.07-4.56l-4.03-15.03h-20.22l-2.95,11.54c-.36,1.34-.63,2.68-.63,3.94,0,1.34.36,2.24.98,2.86-1.7.63-3.49,1.25-6.44,1.25-4.56,0-6.53-1.52-6.53-4.92,0-1.52.45-3.67,1.16-6.08l17.62-52.33c3.31-1.07,6.62-1.61,9.84-1.61,2.86,0,5.55.8,6.35,3.85l15.92,52.87c.45,1.52,1.43,4.03,2.86,5.55Zm-19.68-23.26l-8.59-32.03-8.32,32.03h16.91Z"/><path class="cls-12" d="m1297.4,565.83c0,3.58-3.04,6.44-7.69,6.44-7.25,0-10.02-7.07-11.99-12.88l-2.68-8.05c-1.34-3.94-3.58-8.95-10.47-8.95h-1.52v15.57c0,3.4.18,7.51,1.7,11.27-.98.98-3.4,2.59-6.71,2.59-3.85,0-6.71-2.24-6.71-5.99v-44.91c0-3.4-.27-7.51-1.7-11.27.98-.98,3.4-2.59,6.71-2.59,3.85,0,6.62,2.24,6.62,5.99l.09,25.05,2.06-.54c10.38-2.95,15.3-14.31,15.3-21.92,0-3.67-.98-6.08-1.61-7.07,1.7-.71,2.95-1.07,4.83-1.07,3.58,0,8.14,1.34,8.14,8.86,0,8.14-5.46,17.71-18.7,22.81,7.07.72,10.29,3.67,12.35,8.59l4.03,9.48c2.06,4.47,3.04,5.82,5.01,5.99.71.09,1.43-.09,2.24-.72.45,1.25.72,2.33.72,3.31Z"/><path class="cls-12" d="m1341.59,570.57h-28.45c-3.85,0-6.71-2.24-6.71-5.99v-42.14c0-3.49-.27-7.51-1.7-11.27,2.95-2.51,5.37-2.95,10.65-2.95h25.94c3.31,0,1.88,8.77-1.25,10.2-6.35-2.59-14.05-4.38-22.01-4.56l.09,21.2h19.32c.63,2.15.45,4.56,0,6.35h-19.32v23.53c8.05-.27,19.05-2.59,24.07-4.83,3.04,1.79,3.22,10.47-.63,10.47Z"/><path class="cls-12" d="m1356.09,506.33c4.47-1.52,9.04-1.43,13.51,0l-2.5,46.43h-7.87l-3.13-46.43Zm6.71,65.49c3.67,0,6.53-2.95,6.53-6.62s-2.86-6.62-6.53-6.62-6.71,2.86-6.71,6.62,2.95,6.62,6.71,6.62Z"/></g><g id="overskrift-2"><path class="cls-5" d="m373.77,453.79c-1.43,1.43-5.07,3.77-9.75,3.77-5.33,0-9.23-3.25-9.23-8.71l-.13-64.74-22.49,60.97c-6.11,2.08-10.79,2.47-15.6.52-8.45-17.42-17.81-40.82-24.96-61.88l.13,53.69c0,4.94.39,12.48,2.47,18.07-1.43,1.43-3.77,2.08-5.98,2.08-4.16,0-5.72-2.6-5.72-6.76v-67.6c0-7.54-.13-12.48-.91-17.55,1.43-1.43,5.07-2.21,11.83-2.21,4.29,0,6.76,1.04,8.84,3.12,8.32,21.84,16.64,43.68,24.7,64.22,7.15-19.76,17.03-47.71,22.88-65.65,4.16-1.56,8.45-1.69,10.79-1.69,5.2,0,10.01,1.82,10.66,3.64v70.33c0,4.94.39,10.92,2.47,16.38Z"/><path class="cls-8" d="m364.02,458.06c-5.82,0-9.73-3.7-9.73-9.21l-.12-61.96-21.61,58.58-.23.08c-6.65,2.26-11.27,2.41-15.95.51l-.18-.07-.08-.17c-7.89-16.27-16.78-38.16-24-59.08l.12,50.67c0,5.17.42,12.48,2.44,17.9l.11.3-.23.23c-1.39,1.39-3.76,2.23-6.33,2.23-4.13,0-6.22-2.44-6.22-7.26v-67.6c0-7.69-.14-12.51-.9-17.47l-.04-.25.18-.18c1.61-1.61,5.48-2.36,12.18-2.36,4.21,0,6.87.95,9.19,3.27l.11.18c8.02,21.04,16.3,42.79,24.22,62.98,7.16-19.81,16.67-46.74,22.42-64.39l.08-.23.22-.08c4.59-1.72,9.39-1.72,10.97-1.72,5.26,0,10.36,1.82,11.13,3.97l.03.17v70.33c0,4.21.25,10.47,2.44,16.2l.12.3-.23.23c-1.45,1.45-5.22,3.92-10.1,3.92Zm-8.87-76.74l.14,67.53c0,4.99,3.43,8.21,8.73,8.21,4.32,0,7.68-2.04,9.17-3.4-2.13-5.8-2.39-12.03-2.39-16.25v-70.24c-.66-1.51-5.17-3.23-10.16-3.23-1.51,0-6.04,0-10.39,1.58-5.89,18.04-15.63,45.6-22.81,65.44l-.45,1.25-.48-1.23c-8.05-20.51-16.5-42.68-24.66-64.13-2.1-2.06-4.54-2.9-8.41-2.9-5.99,0-9.79.64-11.3,1.9.74,4.94.88,9.76.88,17.36v67.6c0,4.27,1.66,6.26,5.22,6.26,2.17,0,4.16-.64,5.4-1.72-1.97-5.52-2.39-12.77-2.39-17.93l-.14-56.74.98,2.89c7.35,21.66,16.64,44.69,24.85,61.65,4.33,1.7,8.66,1.55,14.85-.52l23.37-63.36Z"/><path class="cls-5" d="m460.22,415.83c0,27.69-11.44,41.73-34.06,41.73s-33.15-12.74-33.15-41.73v-32.24c0-4.94-.39-10.92-2.47-16.38,1.43-1.43,4.94-3.77,9.75-3.77,5.33,0,9.62,3.25,9.62,8.71v44.59c0,24.57,4.94,34.84,16.25,34.84,11.96,0,17.16-12.09,17.16-34.84v-33.15c0-4.94-.39-10.92-2.47-16.38,1.56-1.43,4.94-3.77,9.62-3.77,5.46,0,9.75,3.25,9.75,8.71v43.68Z"/><path class="cls-8" d="m426.16,458.06c-22.64,0-33.65-13.81-33.65-42.23v-32.24c0-4.21-.25-10.47-2.44-16.2l-.12-.3.23-.23c1.81-1.81,5.54-3.92,10.1-3.92,5.96,0,10.12,3.79,10.12,9.21v44.59c0,24.07,4.71,34.34,15.75,34.34s16.66-11.23,16.66-34.34v-33.15c0-4.21-.25-10.47-2.44-16.2l-.12-.32.25-.23c1.28-1.17,4.81-3.9,9.96-3.9,6.04,0,10.25,3.79,10.25,9.21v43.68c0,28.02-11.63,42.23-34.56,42.23Zm-35.04-90.72c2.14,5.8,2.39,12.03,2.39,16.25v32.24c0,28.13,10.38,41.23,32.65,41.23s33.56-13.87,33.56-41.23v-43.68c0-4.91-3.72-8.21-9.25-8.21-4.49,0-7.67,2.23-9.03,3.42,2.13,5.8,2.38,12.03,2.38,16.23v33.15c0,23.78-5.78,35.34-17.66,35.34s-16.75-10.57-16.75-35.34v-44.59c0-4.83-3.75-8.21-9.12-8.21-4.08,0-7.42,1.78-9.17,3.4Z"/><path class="cls-5" d="m571.89,453.79c-1.43,1.43-5.07,3.77-9.75,3.77-5.33,0-9.23-3.25-9.23-8.71l-.13-64.74-22.49,60.97c-6.11,2.08-10.79,2.47-15.6.52-8.45-17.42-17.81-40.82-24.96-61.88l.13,53.69c0,4.94.39,12.48,2.47,18.07-1.43,1.43-3.77,2.08-5.98,2.08-4.16,0-5.72-2.6-5.72-6.76v-67.6c0-7.54-.13-12.48-.91-17.55,1.43-1.43,5.07-2.21,11.83-2.21,4.29,0,6.76,1.04,8.84,3.12,8.32,21.84,16.64,43.68,24.7,64.22,7.15-19.76,17.03-47.71,22.88-65.65,4.16-1.56,8.45-1.69,10.79-1.69,5.2,0,10.01,1.82,10.66,3.64v70.33c0,4.94.39,10.92,2.47,16.38Z"/><path class="cls-8" d="m562.14,458.06c-5.82,0-9.73-3.7-9.73-9.21l-.12-61.96-21.61,58.58-.23.08c-6.65,2.26-11.27,2.41-15.95.51l-.18-.07-.08-.17c-7.89-16.27-16.78-38.16-24-59.08l.12,50.67c0,5.17.42,12.48,2.44,17.9l.11.3-.23.23c-1.39,1.39-3.76,2.23-6.33,2.23-4.13,0-6.22-2.44-6.22-7.26v-67.6c0-7.69-.14-12.51-.9-17.47l-.04-.25.18-.18c1.61-1.61,5.48-2.36,12.18-2.36,4.21,0,6.87.95,9.19,3.27l.11.18c8.02,21.04,16.3,42.79,24.22,62.98,7.15-19.79,16.66-46.71,22.42-64.39l.08-.23.22-.08c4.59-1.72,9.39-1.72,10.97-1.72,5.26,0,10.36,1.82,11.13,3.97l.03.17v70.33c0,4.21.25,10.47,2.44,16.2l.12.3-.23.23c-1.45,1.45-5.22,3.92-10.1,3.92Zm-8.87-76.74l.14,67.53c0,4.99,3.43,8.21,8.73,8.21,4.32,0,7.68-2.04,9.17-3.4-2.13-5.8-2.39-12.03-2.39-16.25v-70.24c-.66-1.51-5.17-3.23-10.16-3.23-1.51,0-6.04,0-10.39,1.58-5.9,18.07-15.64,45.62-22.81,65.44l-.45,1.25-.48-1.23c-8.05-20.51-16.5-42.68-24.66-64.13-2.1-2.06-4.54-2.9-8.41-2.9-5.99,0-9.79.64-11.3,1.9.74,4.94.88,9.75.88,17.36v67.6c0,4.27,1.66,6.26,5.22,6.26,2.17,0,4.16-.64,5.4-1.72-1.97-5.52-2.39-12.77-2.39-17.93l-.14-56.74.98,2.89c7.35,21.66,16.64,44.69,24.85,61.65,4.33,1.7,8.66,1.55,14.85-.52l23.37-63.36Z"/><path class="cls-5" d="m585.15,439.23c0-5.85,3.38-10.79,14.3-9.23-.52,2.08-.52,4.55-.13,6.63,1.04,7.41,6.89,14.82,19.11,14.82,8.06,0,14.69-4.29,14.69-13.52s-6.24-13.52-18.2-20.28c-16.38-9.36-26.52-16.38-26.52-31.33,0-16.51,14.3-23.01,30.68-23.01s27.56,5.07,27.56,15.21c0,4.16-2.08,7.8-8.71,7.93-1.43.26-3.25.13-4.81-.13.13-2.6-.13-5.2-1.04-7.54-1.3-5.33-5.98-9.62-14.95-9.62-5.72,0-12.87,2.47-12.87,11.18s4.68,13,20.15,21.58c12.35,6.76,25.22,14.69,25.22,30.16,0,13.91-10.66,25.61-33.67,25.61-21.06,0-30.81-8.06-30.81-18.46Z"/><path class="cls-8" d="m615.96,458.19c-19.61,0-31.31-7.09-31.31-18.96,0-3.26,1.04-5.88,3-7.58,2.52-2.19,6.52-2.91,11.87-2.14l.55.08-.13.54c-.47,1.9-.52,4.3-.12,6.42.98,6.98,6.38,14.41,18.62,14.41,6.86,0,14.19-3.42,14.19-13.02,0-8.35-5.29-12.69-17.95-19.85-16.17-9.24-26.77-16.45-26.77-31.77s11.66-23.51,31.18-23.51c17.57,0,28.06,5.87,28.06,15.71,0,5.32-3.27,8.31-9.2,8.43-1.67.31-3.79.05-4.9-.14l-.44-.07.02-.44c.14-2.79-.2-5.26-1.01-7.33-1.45-5.93-6.73-9.3-14.49-9.3-2.9,0-12.37.77-12.37,10.68,0,7.94,4.28,12.48,19.89,21.14,13.43,7.35,25.48,15.22,25.48,30.6,0,12.62-8.98,26.11-34.17,26.11Zm-20.32-27.98c-3.19,0-5.65.73-7.33,2.19-1.76,1.53-2.66,3.83-2.66,6.83,0,11.25,11.33,17.96,30.31,17.96,24.46,0,33.17-12.97,33.17-25.11,0-14.83-11.81-22.52-24.96-29.72-16.02-8.89-20.41-13.62-20.41-22.02s6.91-11.68,13.37-11.68c8.26,0,13.89,3.65,15.44,10,.8,2.04,1.16,4.49,1.07,7.23,1.1.16,2.8.32,4.2.06,5.54-.11,8.3-2.61,8.3-7.44,0-9.21-10.12-14.71-27.06-14.71-18.9,0-30.18,8.42-30.18,22.51s10.4,21.83,26.27,30.9c11.15,6.3,18.45,11.15,18.45,20.71,0,8.65-5.82,14.02-15.19,14.02-12.88,0-18.57-7.88-19.61-15.25-.38-2.04-.37-4.34.02-6.28-1.14-.14-2.21-.22-3.2-.22Z"/><path class="cls-5" d="m665.49,362.39c6.5-2.21,13.13-2.08,19.63,0l-3.64,67.47h-11.44l-4.55-67.47Zm9.75,95.16c5.33,0,9.49-4.29,9.49-9.62s-4.16-9.62-9.49-9.62-9.75,4.16-9.75,9.62,4.29,9.62,9.75,9.62Z"/><path class="cls-8" d="m675.24,458.06c-5.75,0-10.25-4.45-10.25-10.12s4.5-10.12,10.25-10.12,9.99,4.45,9.99,10.12-4.39,10.12-9.99,10.12Zm0-19.24c-5.19,0-9.25,4.01-9.25,9.12s4.06,9.12,9.25,9.12,8.99-4.01,8.99-9.12-3.95-9.12-8.99-9.12Zm6.71-8.45h-12.38l-4.61-68.32.36-.12c6.42-2.18,13.13-2.19,19.94,0l.37.12-.02.39-3.67,67.95Zm-11.45-1h10.5l3.59-66.61c-6.35-1.96-12.6-1.96-18.59,0l4.49,66.62Z"/><path class="cls-5" d="m274.94,556.21c0-4.03,2.33-7.43,9.84-6.35-.36,1.43-.36,3.13-.09,4.56.72,5.1,4.74,10.2,13.15,10.2,5.55,0,10.11-2.95,10.11-9.3s-4.29-9.3-12.53-13.96c-11.27-6.44-18.25-11.27-18.25-21.56,0-11.36,9.84-15.83,21.11-15.83s18.97,3.49,18.97,10.47c0,2.86-1.43,5.37-5.99,5.46-.98.18-2.24.09-3.31-.09.09-1.79-.09-3.58-.72-5.19-.89-3.67-4.12-6.62-10.29-6.62-3.94,0-8.86,1.7-8.86,7.69s3.22,8.95,13.87,14.85c8.5,4.65,17.36,10.11,17.36,20.75,0,9.57-7.34,17.62-23.17,17.62-14.49,0-21.2-5.55-21.2-12.7Z"/><path class="cls-8" d="m296.14,569.41c-20.14,0-21.7-10.11-21.7-13.2,0-2.29.73-4.13,2.12-5.34,1.77-1.54,4.56-2.04,8.29-1.51l.55.08-.13.54c-.32,1.29-.35,2.91-.08,4.35.67,4.74,4.34,9.79,12.66,9.79,4.65,0,9.61-2.31,9.61-8.8,0-5.67-3.62-8.63-12.27-13.52-11.18-6.39-18.5-11.37-18.5-22s8.08-16.33,21.61-16.33c12.19,0,19.47,4.1,19.47,10.97,0,2.18-.84,5.85-6.48,5.96-1.15.22-2.63.03-3.4-.1l-.44-.07.02-.44c.09-1.9-.14-3.58-.68-4.98-.99-4.03-4.56-6.3-9.82-6.3-1.96,0-8.36.52-8.36,7.19,0,5.39,2.92,8.49,13.61,14.41,9.28,5.08,17.61,10.53,17.61,21.19,0,8.76-6.22,18.12-23.67,18.12Zm-13.99-19.26c-2.16,0-3.81.49-4.94,1.47-1.18,1.02-1.77,2.56-1.77,4.58,0,7.64,7.74,12.2,20.7,12.2,16.71,0,22.67-8.85,22.67-17.12,0-10.12-8.09-15.38-17.1-20.32-11.09-6.15-14.13-9.44-14.13-15.29s4.83-8.19,9.36-8.19c5.76,0,9.69,2.55,10.77,7,.54,1.37.79,3.02.75,4.88,1.05.14,2,.15,2.7.02,3.73-.08,5.58-1.75,5.58-4.96,0-6.24-6.9-9.97-18.47-9.97-18.6,0-20.61,10.72-20.61,15.33,0,10.11,6.8,14.73,18,21.13,7.72,4.36,12.78,7.72,12.78,14.39,0,6.05-4.07,9.8-10.61,9.8-5.61,0-12.54-2.78-13.65-10.63-.26-1.38-.26-2.89-.02-4.21-.72-.08-1.39-.13-2.02-.13Z"/><path class="cls-5" d="m377.73,566.14c-1.07,1.25-3.04,2.68-6.89,2.68-3.58,0-6.44-1.52-7.07-4.56l-4.03-15.03h-20.22l-2.95,11.54c-.36,1.34-.63,2.68-.63,3.94,0,1.34.36,2.24.98,2.86-1.7.63-3.49,1.25-6.44,1.25-4.56,0-6.53-1.52-6.53-4.92,0-1.52.45-3.67,1.16-6.08l17.62-52.33c3.31-1.07,6.62-1.61,9.84-1.61,2.86,0,5.55.8,6.35,3.85l15.92,52.87c.45,1.52,1.43,4.03,2.86,5.55Zm-19.68-23.26l-8.59-32.03-8.32,32.03h16.91Zm-16.1-49.38c0-4.92,3.76-8.05,9.13-8.05s8.77,3.04,8.77,7.69c-.09,4.83-3.76,7.96-9.12,7.96s-8.77-3.04-8.77-7.6Zm5.55-.18c0,3.04,1.25,4.65,3.4,4.65s3.4-1.61,3.4-4.65-1.16-4.74-3.4-4.74-3.4,1.7-3.4,4.74Z"/><path class="cls-8" d="m370.84,569.32c-4.09,0-6.92-1.85-7.56-4.96l-3.92-14.63h-19.45l-2.86,11.17c-.42,1.56-.61,2.77-.61,3.81,0,1.14.27,1.94.84,2.51l.55.55-.73.27c-1.55.57-3.48,1.28-6.61,1.28-4.8,0-7.03-1.72-7.03-5.42,0-1.48.4-3.58,1.18-6.23l17.71-52.59.24-.08c3.34-1.08,6.71-1.63,10-1.63,3.79,0,6.09,1.42,6.83,4.22l15.92,52.85c.5,1.71,1.49,4.01,2.75,5.35l.31.33-.29.34c-1.62,1.9-4.07,2.86-7.27,2.86Zm-31.7-20.59h20.99l4.12,15.4c.54,2.63,3,4.19,6.58,4.19,2.7,0,4.79-.74,6.22-2.19-1.54-1.86-2.43-4.57-2.67-5.4l-15.92-52.87c-.62-2.36-2.54-3.49-5.87-3.49-3.1,0-6.28.51-9.45,1.51l-17.54,52.09c-.75,2.54-1.14,4.54-1.14,5.92,0,3.14,1.75,4.42,6.03,4.42,2.55,0,4.21-.48,5.62-.98-.44-.69-.66-1.56-.66-2.63,0-1.13.2-2.42.64-4.06l3.05-11.91Zm19.56-5.35h-18.21l8.96-34.49,9.25,34.49Zm-16.91-1h15.61l-7.93-29.57-7.68,29.57Zm8.93-40.78c-5.54,0-9.27-3.26-9.27-8.1,0-5.12,3.87-8.55,9.63-8.55s9.27,3.29,9.27,8.19c-.09,5.07-3.96,8.46-9.62,8.46Zm.36-15.66c-5.16,0-8.63,3.04-8.63,7.55,0,4.25,3.32,7.1,8.27,7.1s8.54-2.93,8.62-7.47c0-4.29-3.32-7.19-8.27-7.19Zm-.18,12.52c-2.48,0-3.9-1.88-3.9-5.15s1.46-5.24,3.9-5.24c1.46,0,3.9.68,3.9,5.24s-2.44,5.15-3.9,5.15Zm0-9.39c-2.52,0-2.9,2.66-2.9,4.24,0,1.89.5,4.15,2.9,4.15,1.92,0,2.9-1.4,2.9-4.15s-.98-4.24-2.9-4.24Z"/><path class="cls-5" d="m440,567.57h-28.45c-3.85,0-6.71-2.24-6.71-5.99v-42.14c0-3.49-.27-7.51-1.7-11.27,2.95-2.51,5.37-2.95,10.65-2.95h25.94c3.31,0,1.88,8.77-1.25,10.2-6.35-2.59-14.05-4.38-22.01-4.56l.09,21.2h19.32c.63,2.15.45,4.56,0,6.35h-19.32v23.53c8.05-.27,19.05-2.59,24.07-4.83,3.04,1.79,3.22,10.47-.63,10.47Z"/><path class="cls-8" d="m440,568.07h-28.45c-4.31,0-7.21-2.61-7.21-6.49v-42.14c0-3.13-.19-7.21-1.67-11.09l-.13-.33.27-.23c3.07-2.61,5.54-3.07,10.97-3.07h25.94c.66,0,1.83.29,2.25,2.22.63,2.89-.88,7.84-3.29,8.94l-.2.09-.2-.08c-6.58-2.69-14.13-4.29-21.32-4.51l.09,20.19h19.2l.1.36c.81,2.76.27,5.54,0,6.61l-.09.38h-19.21v22.51c7.55-.33,18.33-2.52,23.36-4.77l.24-.1.22.13c2.2,1.29,3,5.61,2.23,8.46-.51,1.87-1.64,2.94-3.11,2.94Zm-36.27-59.74c1.44,3.98,1.61,8.23,1.61,11.11v42.14c0,3.34,2.44,5.49,6.21,5.49h28.45c1.27,0,1.87-1.2,2.14-2.2.64-2.34.03-6-1.56-7.2-5.43,2.34-16.31,4.51-24,4.76l-.52.02v-24.54h19.43c.24-1.11.54-3.22.01-5.35h-19.44l-.09-22.21h.51c7.38.18,15.17,1.78,21.97,4.52,1.85-1.08,3.07-5.33,2.55-7.72-.21-.95-.63-1.43-1.27-1.43h-25.94c-4.99,0-7.34.4-10.05,2.61Z"/><path class="cls-5" d="m501.46,562.29c0,4.56-4.38,6.53-7.07,6.53-7.34,0-9.39-4.92-12.61-12.97l-2.77-7.34c-1.79-4.47-3.4-8.5-9.66-8.5l-3.4-.09v15.66c0,2.77.18,7.16,1.7,10.65-.98.98-3.4,2.59-6.71,2.59-3.85,0-6.71-2.24-6.71-5.99v-44.91c0-2.68-.27-7.51-1.7-11.27,3.49-1.7,8.59-2.68,16.55-2.68,16.91,0,26.21,4.56,26.21,16.28,0,8.86-5.46,15.03-14.14,17.27,4.38,1.25,6.62,4.03,8.68,7.6l3.76,8.68c1.79,4.21,3.22,5.99,5.01,6.08.63,0,1.43-.18,2.15-.81.54,1.25.72,2.33.72,3.22Zm-31.58-26.48c8.41-.27,12.53-6.62,12.53-14.76,0-7.51-3.31-13.06-12.44-13.06-1.61,0-2.95,0-4.03.18v27.55c1.25.09,2.59.18,3.94.09Z"/><path class="cls-8" d="m494.39,569.32c-7.76,0-9.88-5.29-13.08-13.29l-2.78-7.34c-1.75-4.38-3.27-8.18-9.19-8.18l-2.9-.08v15.14c0,4.47.54,7.89,1.66,10.45l.14.31-.24.24c-1.26,1.26-3.87,2.74-7.06,2.74-4.31,0-7.21-2.61-7.21-6.49v-44.91c0-2.02-.16-7.14-1.67-11.09l-.16-.43.41-.2c3.83-1.87,9.16-2.73,16.77-2.73,18.22,0,26.71,5.33,26.71,16.78,0,8.4-4.71,14.63-12.98,17.31,3.49,1.43,5.54,3.98,7.46,7.31l3.78,8.73c1.71,4.03,3.04,5.71,4.58,5.78.45,0,1.15-.12,1.79-.68l.52-.45.27.63c.5,1.17.76,2.32.76,3.42,0,4.8-4.52,7.03-7.57,7.03Zm-28.95-29.91l3.91.1c6.59,0,8.3,4.28,10.11,8.81l2.78,7.35c3.15,7.88,5.06,12.65,12.15,12.65,2.65,0,6.57-1.92,6.57-6.03,0-.78-.15-1.6-.45-2.44-.71.42-1.41.52-1.92.52-2.03-.1-3.56-1.89-5.47-6.39l-3.76-8.67c-2.09-3.63-4.23-6.14-8.36-7.32l-1.77-.51,1.78-.46c8.75-2.25,13.76-8.37,13.76-16.78,0-10.77-8.17-15.78-25.71-15.78-7.08,0-12.3.8-15.92,2.44,1.42,4.04,1.57,9.01,1.57,11.01v44.91c0,3.34,2.44,5.49,6.21,5.49,2.69,0,4.91-1.15,6.11-2.22-1.08-2.65-1.6-6.09-1.6-10.52v-16.17Zm3.26-3.06c-1,0-1.97-.07-2.79-.13l-.46-.03v-28.44l.42-.07c1.11-.19,2.5-.19,4.11-.19,8.46,0,12.94,4.69,12.94,13.56s-4.98,15-13,15.26c-.4.03-.81.04-1.2.04Zm-2.26-1.09c1.03.07,2.23.13,3.4.06h.02c7.54-.24,12.04-5.57,12.04-14.26s-4.02-12.56-11.94-12.56c-1.36,0-2.56,0-3.53.11v26.65Z"/><path class="cls-5" d="m528.92,561.66l-.09-43.75c0-3.4.27-9.04-1.16-12.88,4.92-.63,13.78-.72,19.86-.72,17.98,0,28.18,10.47,28.18,31.22,0,22.46-10.2,32.03-27.55,32.03h-12.44c-4.21,0-6.8-2.33-6.8-5.9Zm18.61,1.79c10.47,0,15.3-7.25,15.3-27.11s-4.83-27.91-15.3-27.91h-6.89v55.02h6.89Z"/><path class="cls-8" d="m548.16,568.07h-12.44c-4.43,0-7.3-2.51-7.3-6.4l-.09-43.75c0-.44,0-.91,0-1.42.03-3.39.08-8.03-1.14-11.29l-.22-.59.62-.08c3.81-.48,10.33-.72,19.92-.72,18.76,0,28.68,10.97,28.68,31.72s-9.44,32.53-28.05,32.53Zm-19.81-62.61c1.07,3.38,1.03,7.79,1,11.05,0,.5,0,.97,0,1.41l.09,43.75c0,3.33,2.41,5.4,6.3,5.4h12.44c17.95,0,27.05-10.61,27.05-31.53s-9.57-30.72-27.68-30.72c-9.06,0-15.35.21-19.19.64Zm19.19,58.5h-7.39v-56.02h7.39c10.93,0,15.8,8.76,15.8,28.41s-4.58,27.61-15.8,27.61Zm-6.39-1h6.39c10.51,0,14.8-7.71,14.8-26.61s-4.56-27.41-14.8-27.41h-6.39v54.02Z"/><path class="cls-5" d="m622.86,567.57h-28.45c-3.85,0-6.71-2.24-6.71-5.99v-42.14c0-3.49-.27-7.51-1.7-11.27,2.95-2.51,5.37-2.95,10.65-2.95h25.94c3.31,0,1.88,8.77-1.25,10.2-6.35-2.59-14.05-4.38-22.01-4.56l.09,21.2h19.32c.63,2.15.45,4.56,0,6.35h-19.32v23.53c8.05-.27,19.05-2.59,24.07-4.83,3.04,1.79,3.22,10.47-.63,10.47Z"/><path class="cls-8" d="m622.86,568.07h-28.45c-4.31,0-7.21-2.61-7.21-6.49v-42.14c0-3.13-.19-7.21-1.67-11.09l-.13-.33.27-.23c3.07-2.61,5.54-3.07,10.97-3.07h25.94c.66,0,1.83.29,2.25,2.22.63,2.89-.88,7.84-3.29,8.94l-.2.09-.2-.08c-6.58-2.69-14.13-4.29-21.32-4.51l.09,20.19h19.2l.1.36c.81,2.76.27,5.54,0,6.61l-.09.38h-19.21v22.51c7.55-.33,18.33-2.52,23.36-4.77l.24-.1.22.13c2.2,1.29,3,5.61,2.23,8.46-.51,1.87-1.64,2.94-3.11,2.94Zm-36.27-59.74c1.44,3.98,1.61,8.23,1.61,11.11v42.14c0,3.34,2.44,5.49,6.21,5.49h28.45c1.27,0,1.87-1.2,2.14-2.2.64-2.34.03-6-1.56-7.2-5.43,2.34-16.31,4.51-24,4.76l-.52.02v-24.54h19.43c.24-1.11.54-3.22.01-5.35h-19.44l-.09-22.21h.51c7.38.18,15.17,1.78,21.97,4.52,1.85-1.08,3.07-5.33,2.55-7.72-.21-.95-.63-1.43-1.27-1.43h-25.94c-4.99,0-7.34.4-10.05,2.61Z"/><path class="cls-5" d="m684.32,562.29c0,4.56-4.38,6.53-7.07,6.53-7.34,0-9.39-4.92-12.61-12.97l-2.77-7.34c-1.79-4.47-3.4-8.5-9.66-8.5l-3.4-.09v15.66c0,2.77.18,7.16,1.7,10.65-.98.98-3.4,2.59-6.71,2.59-3.85,0-6.71-2.24-6.71-5.99v-44.91c0-2.68-.27-7.51-1.7-11.27,3.49-1.7,8.59-2.68,16.55-2.68,16.91,0,26.21,4.56,26.21,16.28,0,8.86-5.46,15.03-14.13,17.27,4.38,1.25,6.62,4.03,8.68,7.6l3.76,8.68c1.79,4.21,3.22,5.99,5.01,6.08.63,0,1.43-.18,2.15-.81.54,1.25.72,2.33.72,3.22Zm-31.58-26.48c8.41-.27,12.53-6.62,12.53-14.76,0-7.51-3.31-13.06-12.44-13.06-1.61,0-2.95,0-4.03.18v27.55c1.25.09,2.59.18,3.94.09Z"/><path class="cls-8" d="m677.25,569.32c-7.76,0-9.88-5.29-13.08-13.29l-2.78-7.34c-1.75-4.38-3.27-8.18-9.19-8.18l-2.9-.08v15.14c0,4.47.54,7.89,1.66,10.45l.14.31-.24.24c-1.26,1.26-3.87,2.74-7.06,2.74-4.31,0-7.21-2.61-7.21-6.49v-44.91c0-2.02-.16-7.14-1.67-11.09l-.16-.43.41-.2c3.83-1.87,9.16-2.73,16.77-2.73,18.22,0,26.71,5.33,26.71,16.78,0,8.4-4.71,14.63-12.98,17.31,3.49,1.43,5.54,3.98,7.46,7.31l3.78,8.73c1.71,4.03,3.04,5.71,4.58,5.78.45,0,1.15-.12,1.79-.68l.52-.45.27.63c.5,1.17.76,2.32.76,3.42,0,4.8-4.52,7.03-7.57,7.03Zm-28.95-29.91l3.91.1c6.59,0,8.3,4.28,10.11,8.81l2.78,7.35c3.15,7.88,5.06,12.65,12.15,12.65,2.65,0,6.57-1.92,6.57-6.03,0-.78-.15-1.6-.45-2.44-.71.42-1.41.52-1.92.52-2.03-.1-3.56-1.89-5.47-6.39l-3.76-8.67c-2.09-3.63-4.23-6.14-8.36-7.32l-1.77-.51,1.78-.46c8.74-2.25,13.76-8.37,13.76-16.78,0-10.77-8.17-15.78-25.71-15.78-7.08,0-12.3.8-15.92,2.44,1.42,4.04,1.57,9.01,1.57,11.01v44.91c0,3.34,2.44,5.49,6.21,5.49,2.69,0,4.91-1.15,6.11-2.22-1.08-2.65-1.6-6.09-1.6-10.52v-16.17Zm3.26-3.06c-1,0-1.97-.07-2.79-.13l-.46-.03v-28.44l.42-.07c1.11-.19,2.5-.19,4.11-.19,8.46,0,12.94,4.69,12.94,13.56s-4.98,15-13,15.26c-.4.03-.81.04-1.2.04Zm-2.26-1.09c1.03.07,2.23.13,3.4.06h.02c7.54-.24,12.04-5.57,12.04-14.26s-4.02-12.56-11.94-12.56c-1.36,0-2.56,0-3.53.11v26.65Z"/><path class="cls-5" d="m754.37,549.94c0,11.99-9.39,17.62-25.5,17.62h-9.93c-3.85,0-6.71-2.24-6.71-5.99v-43.66c0-2.68-.27-7.51-1.7-11.27,3.49-1.7,8.59-2.68,16.19-2.68,15.48,0,24.6,4.21,24.6,15.03,0,7.34-4.21,13.06-11.36,14.94,8.5,1.25,14.4,6.71,14.4,16.01Zm-30.42-41.87v24.33h4.65c7.16.18,10.29-4.92,10.29-12.44s-3.04-11.9-11.99-11.9h-2.95Zm17.62,42.05c0-10.82-5.46-13.6-12.97-13.6h-4.65v26.93h4.47c9.48,0,13.15-5.55,13.15-13.33Z"/><path class="cls-8" d="m728.87,568.07h-9.93c-4.31,0-7.21-2.61-7.21-6.49v-43.66c0-2.02-.16-7.14-1.67-11.09l-.16-.43.41-.2c3.78-1.84,9.15-2.73,16.41-2.73,16.89,0,25.1,5.08,25.1,15.53,0,6.93-3.72,12.45-9.85,14.81,8.11,1.9,12.89,7.82,12.89,16.14,0,11.86-8.99,18.12-26,18.12Zm-17.71-61.17c1.42,4.04,1.57,9.01,1.57,11.01v43.66c0,3.34,2.44,5.49,6.21,5.49h9.93c11.4,0,25-2.97,25-17.12,0-8.55-5.09-14.21-13.98-15.52l-2.42-.36,2.37-.62c6.88-1.81,10.99-7.21,10.99-14.46,0-9.78-7.88-14.53-24.1-14.53-6.85,0-11.95.8-15.57,2.44Zm17.27,57.05h-4.97v-27.93h5.15c5.78,0,13.47,1.46,13.47,14.1,0,9.05-4.72,13.83-13.65,13.83Zm-3.97-1h3.97c10.46,0,12.65-6.98,12.65-12.83,0-9.18-3.73-13.1-12.47-13.1h-4.15v25.93Zm4.51-30.04c-.12,0-.25,0-.37,0h-5.14v-25.33h3.45c8.4,0,12.49,4.06,12.49,12.4,0,4.6-1.18,8.19-3.42,10.37-1.75,1.7-4.1,2.57-7.01,2.57Zm-4.51-1h4.15c2.83.07,5.05-.7,6.67-2.28,2.04-1.99,3.12-5.33,3.12-9.66,0-7.78-3.65-11.4-11.49-11.4h-2.45v23.33Z"/><path class="cls-5" d="m813.68,566.14c-1.07,1.25-3.04,2.68-6.89,2.68-3.58,0-6.44-1.52-7.07-4.56l-4.03-15.03h-20.22l-2.95,11.54c-.36,1.34-.63,2.68-.63,3.94,0,1.34.36,2.24.98,2.86-1.7.63-3.49,1.25-6.44,1.25-4.56,0-6.53-1.52-6.53-4.92,0-1.52.45-3.67,1.16-6.08l17.62-52.33c3.31-1.07,6.62-1.61,9.84-1.61,2.86,0,5.55.8,6.35,3.85l15.92,52.87c.45,1.52,1.43,4.03,2.86,5.55Zm-19.68-23.26l-8.59-32.03-8.32,32.03h16.91Z"/><path class="cls-8" d="m806.79,569.32c-4.09,0-6.92-1.85-7.56-4.96l-3.92-14.63h-19.45l-2.86,11.17c-.42,1.56-.61,2.77-.61,3.81,0,1.14.27,1.94.84,2.51l.55.55-.73.27c-1.55.57-3.48,1.28-6.61,1.28-4.8,0-7.03-1.72-7.03-5.42,0-1.48.4-3.58,1.18-6.23l17.71-52.59.24-.08c3.34-1.08,6.71-1.63,10-1.63,3.79,0,6.09,1.42,6.83,4.22l15.92,52.85c.5,1.71,1.49,4.01,2.75,5.35l.31.33-.29.34c-1.62,1.9-4.07,2.86-7.27,2.86Zm-31.7-20.59h20.99l4.12,15.4c.54,2.63,3,4.19,6.58,4.19,2.7,0,4.79-.74,6.22-2.19-1.54-1.86-2.43-4.57-2.67-5.4l-15.92-52.87c-.62-2.36-2.54-3.49-5.87-3.49-3.1,0-6.28.51-9.45,1.51l-17.54,52.09c-.75,2.54-1.14,4.54-1.14,5.92,0,3.14,1.75,4.42,6.03,4.42,2.55,0,4.21-.48,5.62-.98-.44-.69-.66-1.56-.66-2.63,0-1.13.2-2.42.64-4.06l3.05-11.91Zm19.56-5.35h-18.21l8.96-34.49,9.25,34.49Zm-16.91-1h15.61l-7.93-29.57-7.68,29.57Z"/><path class="cls-5" d="m819.94,567.3c1.43-3.85,1.7-9.04,1.7-12.35v-37.04c0-5.19-.18-8.86-.63-12.35,1.34-1.61,7.16-1.88,8.14-.89,10.65,15.12,29.43,37.93,33.91,47.77l-2.95-40.17c-.45-4.56,1.43-7.69,5.37-8.05,1.61-.09,3.49.27,4.83,1.16-1.16,3.49-1.16,8.23-1.16,11l-.09,38.74c0,5.28.09,8.68.54,12.17-1.16,1.34-5.99,1.97-7.87.98-19.95-23.35-28.81-37.04-33.64-46.07l2.5,39.9c.36,4.03-2.95,6.71-5.82,6.71-1.7,0-3.49-.54-4.83-1.52Z"/><path class="cls-8" d="m824.78,569.32c-1.86,0-3.73-.59-5.13-1.62l-.3-.22.13-.35c1.45-3.9,1.67-9.3,1.67-12.17v-37.04c0-5.21-.19-8.88-.62-12.28l-.03-.22.14-.17c.9-1.07,3.22-1.55,5.1-1.63.89-.04,3.02-.05,3.77.71,3.67,5.2,8.13,11.1,12.86,17.34,8,10.58,16.24,21.47,20.01,28.33l-2.77-37.68c-.26-2.7.26-4.94,1.52-6.46,1.01-1.23,2.5-1.96,4.3-2.12,1.9-.11,3.83.36,5.15,1.25l.32.21-.12.36c-1.14,3.41-1.14,8.07-1.14,10.85l-.09,38.74c0,5.16.08,8.61.53,12.1l.03.22-.15.17c-1.33,1.53-6.4,2.19-8.48,1.1l-.15-.12c-15.34-17.96-26.04-32.44-32.62-44.19l2.36,37.66c.17,1.9-.44,3.71-1.7,5.1-1.23,1.34-2.95,2.14-4.61,2.14Zm-4.23-2.21c1.18.76,2.74,1.21,4.23,1.21,1.38,0,2.83-.68,3.88-1.82,1.08-1.17,1.59-2.72,1.44-4.35l-2.65-42.21,1.08,2.03c6.42,12.01,17.38,27.02,33.51,45.91,1.73.82,5.86.21,7.03-.76-.43-3.46-.51-6.91-.51-11.98l.09-38.74c0-2.74,0-7.26,1.07-10.78-1.13-.63-2.7-.96-4.21-.89-1.53.14-2.75.73-3.6,1.76-1.09,1.32-1.54,3.3-1.3,5.74l3.16,42.97-1.16-2.55c-2.93-6.44-12.13-18.61-21.04-30.39-4.73-6.25-9.19-12.16-12.82-17.31-.15-.14-1.14-.43-2.96-.35-1.88.09-3.57.54-4.24,1.13.42,3.38.6,7.04.6,12.17v37.04c0,3.48-.28,8.36-1.6,12.15Z"/><path class="cls-5" d="m932.04,566.14c-1.07,1.25-3.04,2.68-6.89,2.68-3.58,0-6.44-1.52-7.07-4.56l-4.03-15.03h-20.22l-2.95,11.54c-.36,1.34-.63,2.68-.63,3.94,0,1.34.36,2.24.98,2.86-1.7.63-3.49,1.25-6.44,1.25-4.56,0-6.53-1.52-6.53-4.92,0-1.52.45-3.67,1.16-6.08l17.62-52.33c3.31-1.07,6.62-1.61,9.84-1.61,2.86,0,5.55.8,6.35,3.85l15.92,52.87c.45,1.52,1.43,4.03,2.86,5.55Zm-19.68-23.26l-8.59-32.03-8.32,32.03h16.91Z"/><path class="cls-8" d="m925.15,569.32c-4.09,0-6.92-1.85-7.56-4.96l-3.92-14.63h-19.45l-2.86,11.17c-.42,1.56-.61,2.77-.61,3.81,0,1.14.27,1.94.84,2.51l.55.55-.73.27c-1.55.57-3.48,1.28-6.61,1.28-4.8,0-7.03-1.72-7.03-5.42,0-1.48.4-3.58,1.18-6.23l17.71-52.59.24-.08c3.34-1.08,6.71-1.63,10-1.63,3.79,0,6.09,1.42,6.83,4.22l15.92,52.85c.5,1.71,1.49,4.01,2.75,5.35l.31.33-.29.34c-1.62,1.9-4.07,2.86-7.27,2.86Zm-31.7-20.59h20.99l4.12,15.4c.54,2.63,3,4.19,6.58,4.19,2.7,0,4.79-.74,6.22-2.19-1.54-1.86-2.43-4.57-2.67-5.4l-15.92-52.87c-.62-2.36-2.54-3.49-5.87-3.49-3.1,0-6.28.51-9.45,1.51l-17.54,52.09c-.75,2.54-1.14,4.54-1.14,5.92,0,3.14,1.75,4.42,6.03,4.42,2.55,0,4.21-.48,5.62-.98-.44-.69-.66-1.56-.66-2.63,0-1.13.2-2.42.64-4.06l3.05-11.91Zm19.56-5.35h-18.21l8.96-34.49,9.25,34.49Zm-16.91-1h15.61l-7.93-29.57-7.68,29.57Z"/><path class="cls-5" d="m938.3,567.3c1.43-3.85,1.7-9.04,1.7-12.35v-37.04c0-5.19-.18-8.86-.63-12.35,1.34-1.61,7.16-1.88,8.14-.89,10.65,15.12,29.43,37.93,33.91,47.77l-2.95-40.17c-.45-4.56,1.43-7.69,5.37-8.05,1.61-.09,3.49.27,4.83,1.16-1.16,3.49-1.16,8.23-1.16,11l-.09,38.74c0,5.28.09,8.68.54,12.17-1.16,1.34-5.99,1.97-7.87.98-19.95-23.35-28.81-37.04-33.64-46.07l2.5,39.9c.36,4.03-2.95,6.71-5.82,6.71-1.7,0-3.49-.54-4.83-1.52Z"/><path class="cls-8" d="m943.14,569.32c-1.86,0-3.73-.59-5.13-1.62l-.3-.22.13-.35c1.45-3.9,1.67-9.3,1.67-12.17v-37.04c0-5.21-.19-8.88-.62-12.28l-.03-.22.14-.17c.9-1.07,3.22-1.55,5.1-1.63.89-.04,3.02-.05,3.77.71,3.67,5.2,8.13,11.1,12.85,17.34,8,10.58,16.25,21.48,20.02,28.34l-2.77-37.68c-.26-2.7.26-4.94,1.52-6.46,1.01-1.23,2.5-1.96,4.3-2.12,1.9-.11,3.83.36,5.15,1.25l.32.21-.12.36c-1.14,3.41-1.14,8.07-1.14,10.85l-.09,38.74c0,5.16.08,8.61.53,12.1l.03.22-.15.17c-1.33,1.53-6.4,2.19-8.48,1.1l-.15-.12c-15.34-17.96-26.04-32.44-32.62-44.19l2.36,37.66c.17,1.9-.44,3.71-1.7,5.1-1.23,1.34-2.95,2.14-4.61,2.14Zm-4.23-2.21c1.18.76,2.74,1.21,4.23,1.21,1.38,0,2.83-.68,3.88-1.82,1.08-1.17,1.59-2.72,1.44-4.35l-2.65-42.21,1.08,2.03c6.42,12.01,17.38,27.02,33.51,45.91,1.73.82,5.86.21,7.03-.76-.43-3.46-.51-6.91-.51-11.98l.09-38.74c0-2.74,0-7.26,1.07-10.78-1.13-.63-2.7-.96-4.21-.89-1.53.14-2.75.73-3.6,1.76-1.09,1.32-1.54,3.3-1.3,5.74l3.16,42.97-1.16-2.55c-2.93-6.44-12.14-18.62-21.04-30.39-4.73-6.25-9.19-12.15-12.82-17.3-.15-.14-1.14-.43-2.96-.35-1.88.09-3.57.54-4.24,1.13.42,3.38.6,7.04.6,12.17v37.04c0,3.48-.28,8.36-1.6,12.15Z"/><path class="cls-5" d="m1050.4,566.14c-1.07,1.25-3.04,2.68-6.89,2.68-3.58,0-6.44-1.52-7.07-4.56l-4.03-15.03h-20.22l-2.95,11.54c-.36,1.34-.63,2.68-.63,3.94,0,1.34.36,2.24.98,2.86-1.7.63-3.49,1.25-6.44,1.25-4.56,0-6.53-1.52-6.53-4.92,0-1.52.45-3.67,1.16-6.08l17.62-52.33c3.31-1.07,6.62-1.61,9.84-1.61,2.86,0,5.55.8,6.35,3.85l15.92,52.87c.45,1.52,1.43,4.03,2.86,5.55Zm-19.68-23.26l-8.59-32.03-8.32,32.03h16.91Z"/><path class="cls-8" d="m1043.51,569.32c-4.09,0-6.92-1.85-7.56-4.96l-3.92-14.63h-19.45l-2.86,11.17c-.42,1.56-.61,2.77-.61,3.81,0,1.14.27,1.94.84,2.51l.55.55-.73.27c-1.55.57-3.48,1.28-6.61,1.28-4.8,0-7.03-1.72-7.03-5.42,0-1.48.4-3.58,1.18-6.23l17.71-52.59.24-.08c3.34-1.08,6.71-1.63,10-1.63,3.79,0,6.09,1.42,6.83,4.22l15.92,52.85c.5,1.71,1.49,4.01,2.75,5.35l.31.33-.29.34c-1.62,1.9-4.07,2.86-7.27,2.86Zm-31.7-20.59h20.99l4.12,15.4c.54,2.63,3,4.19,6.58,4.19,2.7,0,4.79-.74,6.22-2.19-1.54-1.86-2.43-4.57-2.67-5.4l-15.92-52.87c-.62-2.36-2.54-3.49-5.87-3.49-3.1,0-6.28.51-9.45,1.51l-17.54,52.09c-.75,2.54-1.14,4.54-1.14,5.92,0,3.14,1.75,4.42,6.03,4.42,2.55,0,4.21-.48,5.62-.98-.44-.69-.66-1.56-.66-2.63,0-1.13.2-2.42.64-4.06l3.05-11.91Zm19.56-5.35h-18.21l8.96-34.49,9.25,34.49Zm-16.91-1h15.61l-7.93-29.57-7.68,29.57Z"/><path class="cls-5" d="m1073.12,556.21c0-4.03,2.33-7.43,9.84-6.35-.36,1.43-.36,3.13-.09,4.56.72,5.1,4.74,10.2,13.15,10.2,5.55,0,10.11-2.95,10.11-9.3s-4.29-9.3-12.53-13.96c-11.27-6.44-18.25-11.27-18.25-21.56,0-11.36,9.84-15.83,21.11-15.83s18.97,3.49,18.97,10.47c0,2.86-1.43,5.37-5.99,5.46-.98.18-2.24.09-3.31-.09.09-1.79-.09-3.58-.72-5.19-.89-3.67-4.12-6.62-10.29-6.62-3.94,0-8.86,1.7-8.86,7.69s3.22,8.95,13.87,14.85c8.5,4.65,17.36,10.11,17.36,20.75,0,9.57-7.34,17.62-23.17,17.62-14.49,0-21.2-5.55-21.2-12.7Z"/><path class="cls-8" d="m1094.33,569.41c-20.14,0-21.7-10.11-21.7-13.2,0-2.29.73-4.13,2.12-5.34,1.77-1.54,4.56-2.04,8.29-1.51l.55.08-.13.54c-.32,1.29-.35,2.91-.08,4.35.67,4.74,4.34,9.79,12.66,9.79,4.65,0,9.61-2.31,9.61-8.8,0-5.67-3.62-8.63-12.27-13.52-11.18-6.39-18.5-11.37-18.5-22s8.08-16.33,21.61-16.33c12.19,0,19.47,4.1,19.47,10.97,0,2.18-.84,5.85-6.48,5.96-1.15.22-2.63.03-3.4-.1l-.44-.07.02-.44c.09-1.9-.14-3.58-.68-4.98-.99-4.03-4.56-6.3-9.82-6.3-1.96,0-8.36.52-8.36,7.19,0,5.39,2.92,8.49,13.61,14.41,9.28,5.08,17.61,10.53,17.61,21.19,0,8.76-6.22,18.12-23.67,18.12Zm-13.99-19.26c-2.16,0-3.81.49-4.94,1.47-1.18,1.02-1.77,2.56-1.77,4.58,0,7.64,7.74,12.2,20.7,12.2,16.71,0,22.67-8.85,22.67-17.12,0-10.12-8.09-15.38-17.1-20.32-11.09-6.15-14.13-9.44-14.13-15.29s4.83-8.19,9.36-8.19c5.76,0,9.69,2.55,10.77,7,.54,1.37.79,3.02.75,4.88,1.05.14,2,.15,2.7.02,3.73-.08,5.58-1.75,5.58-4.96,0-6.24-6.9-9.97-18.47-9.97-18.6,0-20.61,10.72-20.61,15.33,0,10.11,6.8,14.73,18,21.13,7.72,4.36,12.78,7.72,12.78,14.39,0,6.05-4.07,9.8-10.61,9.8-5.61,0-12.54-2.78-13.65-10.63-.26-1.38-.26-2.89-.02-4.21-.72-.08-1.39-.13-2.02-.13Z"/><path class="cls-5" d="m1177.08,566.23c-.98.98-3.4,2.59-6.71,2.59-3.85,0-6.71-2.24-6.71-5.99v-24.69h-23.8v16.82c0,3.4.18,7.51,1.7,11.27-.98.98-3.4,2.59-6.71,2.59-3.85,0-6.71-2.24-6.71-5.99v-44.91c0-3.4-.27-7.51-1.7-11.27.98-.98,3.4-2.59,6.71-2.59,3.85,0,6.71,2.24,6.71,5.99v21.83h23.8v-13.96c0-3.4-.27-7.51-1.7-11.27.98-.98,3.4-2.59,6.71-2.59,3.76,0,6.71,2.24,6.71,5.99v44.91c0,3.4.18,7.51,1.7,11.27Z"/><path class="cls-8" d="m1170.37,569.32c-4.31,0-7.21-2.61-7.21-6.49v-24.19h-22.8v16.32c0,3.45.2,7.46,1.66,11.08l.12.31-.23.23c-1.26,1.26-3.87,2.74-7.06,2.74-4.31,0-7.21-2.61-7.21-6.49v-44.91c0-2.88-.17-7.17-1.67-11.09l-.12-.3.23-.23c1.26-1.26,3.87-2.74,7.06-2.74,4.31,0,7.21,2.61,7.21,6.49v21.33h22.8v-13.46c0-2.88-.17-7.17-1.67-11.09l-.12-.3.23-.23c1.26-1.26,3.87-2.74,7.06-2.74,4.25,0,7.21,2.67,7.21,6.49v44.91c0,3.45.2,7.46,1.66,11.08l.12.31-.23.23c-1.26,1.26-3.87,2.74-7.06,2.74Zm-31.01-31.69h24.8v25.19c0,3.34,2.44,5.49,6.21,5.49,2.7,0,4.92-1.15,6.12-2.22-1.42-3.69-1.61-7.7-1.61-11.14v-44.91c0-3.29-2.5-5.49-6.21-5.49-2.7,0-4.93,1.16-6.13,2.23,1.45,3.99,1.62,8.25,1.62,11.14v14.46h-24.8v-22.33c0-3.34-2.44-5.49-6.21-5.49-2.7,0-4.93,1.16-6.13,2.23,1.45,3.99,1.62,8.25,1.62,11.14v44.91c0,3.34,2.44,5.49,6.21,5.49,2.7,0,4.92-1.15,6.12-2.22-1.42-3.69-1.61-7.7-1.61-11.14v-17.32Z"/><path class="cls-5" d="m1238.36,566.14c-1.07,1.25-3.04,2.68-6.89,2.68-3.58,0-6.44-1.52-7.07-4.56l-4.03-15.03h-20.22l-2.95,11.54c-.36,1.34-.63,2.68-.63,3.94,0,1.34.36,2.24.98,2.86-1.7.63-3.49,1.25-6.44,1.25-4.56,0-6.53-1.52-6.53-4.92,0-1.52.45-3.67,1.16-6.08l17.62-52.33c3.31-1.07,6.62-1.61,9.84-1.61,2.86,0,5.55.8,6.35,3.85l15.92,52.87c.45,1.52,1.43,4.03,2.86,5.55Zm-19.68-23.26l-8.59-32.03-8.32,32.03h16.91Z"/><path class="cls-8" d="m1231.47,569.32c-4.09,0-6.92-1.85-7.56-4.96l-3.92-14.63h-19.45l-2.86,11.17c-.42,1.56-.61,2.77-.61,3.81,0,1.14.27,1.94.84,2.51l.55.55-.73.27c-1.55.57-3.48,1.28-6.61,1.28-4.8,0-7.03-1.72-7.03-5.42,0-1.48.4-3.58,1.18-6.23l17.71-52.59.24-.08c3.34-1.08,6.71-1.63,10-1.63,3.79,0,6.09,1.42,6.83,4.22l15.92,52.85c.5,1.71,1.49,4.01,2.75,5.35l.31.33-.29.34c-1.62,1.9-4.07,2.86-7.27,2.86Zm-31.7-20.59h20.99l4.12,15.4c.54,2.63,3,4.19,6.58,4.19,2.7,0,4.79-.74,6.22-2.19-1.54-1.86-2.43-4.57-2.67-5.4l-15.92-52.87c-.62-2.36-2.54-3.49-5.87-3.49-3.1,0-6.28.51-9.45,1.51l-17.54,52.09c-.75,2.54-1.14,4.54-1.14,5.92,0,3.14,1.75,4.42,6.03,4.42,2.55,0,4.21-.48,5.62-.98-.44-.69-.66-1.56-.66-2.63,0-1.13.2-2.42.64-4.06l3.05-11.91Zm19.56-5.35h-18.21l8.96-34.49,9.25,34.49Zm-16.91-1h15.61l-7.93-29.57-7.68,29.57Z"/><path class="cls-5" d="m1292.4,562.83c0,3.58-3.04,6.44-7.69,6.44-7.25,0-10.02-7.07-11.99-12.88l-2.68-8.05c-1.34-3.94-3.58-8.95-10.47-8.95h-1.52v15.57c0,3.4.18,7.51,1.7,11.27-.98.98-3.4,2.59-6.71,2.59-3.85,0-6.71-2.24-6.71-5.99v-44.91c0-3.4-.27-7.51-1.7-11.27.98-.98,3.4-2.59,6.71-2.59,3.85,0,6.62,2.24,6.62,5.99l.09,25.05,2.06-.54c10.38-2.95,15.3-14.31,15.3-21.92,0-3.67-.98-6.08-1.61-7.07,1.7-.71,2.95-1.07,4.83-1.07,3.58,0,8.14,1.34,8.14,8.86,0,8.14-5.46,17.71-18.7,22.81,7.07.72,10.29,3.67,12.35,8.59l4.03,9.48c2.06,4.47,3.04,5.82,5.01,5.99.71.09,1.43-.09,2.24-.72.45,1.25.72,2.33.72,3.31Z"/><path class="cls-8" d="m1284.7,569.77c-7.37,0-10.3-6.82-12.46-13.22l-2.69-8.05c-1.52-4.47-3.79-8.6-9.99-8.6h-1.02v15.07c0,3.45.2,7.46,1.66,11.08l.12.31-.23.23c-1.26,1.26-3.87,2.74-7.06,2.74-4.31,0-7.21-2.61-7.21-6.49v-44.91c0-2.88-.17-7.17-1.67-11.09l-.12-.3.23-.23c1.26-1.26,3.87-2.74,7.06-2.74,4.26,0,7.12,2.61,7.12,6.49l.09,24.4,1.43-.37c10.29-2.93,14.92-14.3,14.92-21.43,0-4.18-1.28-6.4-1.53-6.8l-.32-.5.54-.23c1.71-.72,3.02-1.11,5.03-1.11,3.94,0,8.64,1.62,8.64,9.36s-4.58,17.02-17.28,22.57c5.54.96,8.76,3.55,10.89,8.64l4.02,9.48c2.03,4.42,2.94,5.54,4.6,5.69.65.08,1.23-.11,1.88-.61l.54-.42.23.65c.52,1.44.75,2.52.75,3.48,0,4.02-3.45,6.94-8.19,6.94Zm-27.16-30.88h2.02c6.85,0,9.38,4.69,10.94,9.29l2.69,8.05c2.05,6.07,4.8,12.54,11.51,12.54,4.17,0,7.19-2.5,7.19-5.94,0-.71-.15-1.5-.48-2.53-.66.38-1.34.52-2.04.43-2.24-.2-3.32-1.75-5.4-6.28l-4.03-9.5c-2.2-5.25-5.65-7.65-11.94-8.29l-2.08-.21,1.96-.75c13.55-5.22,18.38-14.96,18.38-22.35,0-5.54-2.57-8.36-7.64-8.36-1.63,0-2.77.29-4.12.82.72,1.4,1.39,3.78,1.39,6.82,0,7.45-4.86,19.33-15.66,22.4l-2.69.7-.09-25.69c0-3.34-2.4-5.5-6.12-5.5-2.7,0-4.93,1.16-6.13,2.23,1.45,3.99,1.62,8.25,1.62,11.14v44.91c0,3.34,2.44,5.49,6.21,5.49,2.7,0,4.92-1.15,6.12-2.22-1.42-3.69-1.61-7.7-1.61-11.14v-16.07Z"/><path class="cls-5" d="m1336.59,567.57h-28.45c-3.85,0-6.71-2.24-6.71-5.99v-42.14c0-3.49-.27-7.51-1.7-11.27,2.95-2.51,5.37-2.95,10.65-2.95h25.94c3.31,0,1.88,8.77-1.25,10.2-6.35-2.59-14.05-4.38-22.01-4.56l.09,21.2h19.32c.63,2.15.45,4.56,0,6.35h-19.32v23.53c8.05-.27,19.05-2.59,24.07-4.83,3.04,1.79,3.22,10.47-.63,10.47Z"/><path class="cls-8" d="m1336.59,568.07h-28.45c-4.31,0-7.21-2.61-7.21-6.49v-42.14c0-3.13-.19-7.21-1.67-11.09l-.13-.33.27-.23c3.07-2.61,5.54-3.07,10.97-3.07h25.94c.66,0,1.83.29,2.25,2.22.63,2.89-.88,7.84-3.29,8.94l-.2.09-.2-.08c-6.58-2.69-14.13-4.29-21.32-4.51l.09,20.19h19.2l.1.36c.81,2.76.27,5.54,0,6.61l-.09.38h-19.21v22.51c7.55-.33,18.33-2.52,23.36-4.77l.24-.1.22.13c2.2,1.29,3,5.61,2.23,8.46-.51,1.87-1.64,2.94-3.11,2.94Zm-36.27-59.74c1.44,3.98,1.61,8.23,1.61,11.11v42.14c0,3.34,2.44,5.49,6.21,5.49h28.45c1.27,0,1.87-1.2,2.14-2.2.64-2.34.03-6-1.56-7.2-5.43,2.34-16.31,4.51-24,4.76l-.52.02v-24.54h19.43c.24-1.11.54-3.22.01-5.35h-19.44l-.09-22.21h.51c7.38.18,15.17,1.78,21.97,4.52,1.85-1.08,3.07-5.33,2.55-7.72-.21-.95-.63-1.43-1.27-1.43h-25.94c-4.99,0-7.34.4-10.05,2.61Z"/><path class="cls-5" d="m1351.09,503.33c4.47-1.52,9.04-1.43,13.51,0l-2.5,46.43h-7.87l-3.13-46.43Zm6.71,65.49c3.67,0,6.53-2.95,6.53-6.62s-2.86-6.62-6.53-6.62-6.71,2.86-6.71,6.62,2.95,6.62,6.71,6.62Z"/><path class="cls-8" d="m1357.8,569.32c-4.04,0-7.21-3.13-7.21-7.12s3.17-7.12,7.21-7.12,7.03,3.13,7.03,7.12-3.09,7.12-7.03,7.12Zm0-13.24c-3.48,0-6.21,2.69-6.21,6.12s2.73,6.12,6.21,6.12,6.03-2.69,6.03-6.12-2.59-6.12-6.03-6.12Zm4.77-5.81h-8.81l-3.19-47.28.36-.12c4.45-1.51,9.1-1.51,13.82,0l.37.12-.02.39-2.53,46.9Zm-7.88-1h6.93l2.46-45.57c-4.26-1.29-8.45-1.29-12.46,0l3.07,45.58Z"/></g><g id="Ella"><g id="hår"><path class="cls-11" d="m548.33,927.67c1.45-.71,2.96-1.33,4.5-1.88,33.92-337.26-193.13-294.69-193.13-294.69-229.81,17.4-163.06,265.95-146.18,300.81-1.05-12.94,6.34-21.52,6.34-21.52-2.15,11.75,10.09,19.7,10.09,19.7l2.01-16.12c.02,7.97,14.37,20.19,14.37,20.19l8.41-23.47c1.89,19.63,16.24,20.49,16.24,20.49-6.11-5.19.21-24.28.21-24.28-.23,27.46,14.12,28.73,14.12,28.73l.19-22.72c-.12,13.73,12.15,19.72,12.15,19.72,6.17-1.91,6.25-11.72,6.25-11.72l8.06,17.72c6.37-2.98,7.9-14.19,8.27-19.13,1.09,6.91,12.25,19.31,12.25,19.31-4-11.8,12.49-21.47,12.49-21.47,6.04,13.78,12.16,18.18,12.16,18.18,10.34-9.29.17-20.19.17-20.19,10.26-.07,5.92,27.67,5.92,27.67,22.65-9.62,18.67-23.38,18.67-23.38,6.02,15.74,23.34,19.81,23.34,19.81,0,0,6.54-10.78,10.3-17.51.59,6.83,13.42,13.79,13.42,13.79l2.17-13.71,10.16,11.85c18.3-21.5,11.56-6,32.78,6.16l10.39-15.6,14.3,7.97,2.18-15.67,12.15,19.72,6.34-21.52,14.16,17.77,8.38-13.66,6.37,8.68Z"/><path class="cls-9" d="m534.26,933.1c.57-.22,1.14-.45,1.73-.61,2.04-3.33,4.08-6.65,6.12-9.98,1.49,2.03,2.98,4.05,4.46,6.08,1.15-.63,2.34-1.22,3.57-1.75-2.16-2.94-4.32-5.88-6.48-8.82-.85-1.16-2.56-1.39-3.4-.03-2.3,3.75-4.6,7.5-6.9,11.26-4.18-5.25-8.36-10.49-12.54-15.74-.96-1.2-2.91-.46-3.29.84-1.7,5.76-3.39,11.52-5.09,17.27-3.27-5.3-6.53-10.6-9.8-15.91-1.11-1.79-3.41-.89-3.67.96-.58,4.19-1.17,8.39-1.75,12.58-3.92-2.18-7.84-4.37-11.75-6.55-.96-.54-2.09-.22-2.7.68-3.1,4.65-6.2,9.31-9.3,13.96-5.32-3.29-9.7-7.8-13.68-12.62-6.41-8.45-13.56.33-18.49,6.1-2.92-3.41-5.85-6.82-8.77-10.23-.9-1.05-3.07-.6-3.29.84-.58,3.69-1.17,7.37-1.75,11.06-3.87-2.45-9.31-6.48-9.85-10.35.79-1.56,1.93-3.1,2.35-4.81.52-2.43-2.12-3.37-3.72-1.82-1.79,1.75-2.57,3.71-2.59,5.7-2.79,5.1-6.36,10.82-9.38,15.9-8.9-2.6-17.14-9.43-20.51-18.03-1.22-2.57-4.81-1.24-3.68,1.56,1.14,8.43-6.89,15.36-14.56,19.16,1.05-9.51,2.09-25.62-8.22-26.47-1.75-.02-2.56,2.11-1.42,3.34,4.21,4.45,5.25,11.42,1.15,16.13-3.92-3.85-8.03-10.88-10.37-16.47-.43-.96-1.84-1.22-2.68-.73-6.12,3.61-12.76,9.97-13.91,17.26-3.12-4.18-6.64-8.52-7.91-13.64.05-.72.1-1.42.14-2.11.02-2.26-3.18-2.65-3.86-.56-.32,1-.34,2.04-.19,3.06-.63,5.48-1.34,11.99-5.49,16.05-2.39-5.26-4.78-10.51-7.17-15.77-.84-1.84-3.65-.87-3.67.96-.04,3.19-.98,7.96-4.17,9.57-6.23-3.5-10.29-10.42-10.3-17.53,0-2.53-3.91-2.57-3.93-.03l-.17,20.06c-8.89-4.6-10.21-16.9-10.21-26.03.01-2.26-3.17-2.64-3.86-.56-1.59,5.76-4.32,15.05-2.35,21.65-6.31-2.98-9.74-10.43-10.24-17.31-.22-2.17-3.08-2.74-3.86-.56-2.46,6.86-4.91,13.71-7.37,20.57-3.79-3.53-7.33-7.39-9.93-11.87-.8-1.44-1.65-3.21-1.61-4.91.06-.49.12-.98.18-1.48.28-2.21-3.34-2.68-3.86-.56-.15.62-.22,1.24-.24,1.85-.53,4.21-1.05,8.42-1.58,12.63-4.32-3.88-7.72-9.58-6.69-15.47.29-1.71-1.85-3.61-3.27-1.94-3.31,3.88-5.43,8.84-6.39,13.97-42.05-121.81-20.75-271.99,131.85-288.28,5.3-.72,10.65-1.18,15.98-1.65.1,0,.19,0,.3-.03,175.27-17.75,207.07,156.11,190.71,293.53,1.33-.55,2.7-1.03,4.09-1.45,16.06-140.48-17.37-313.31-195.13-295.94-.05,0-.1,0-.15,0-167.98,6.13-199.76,171.46-147.91,303.76.83,1.72,3.81.97,3.67-.96-.48-4.92.61-10.45,2.69-15.03,1.34,6.06,5.52,11.45,10.77,14.88,1.37.9,2.8-.3,2.97-1.67.33-2.63.66-5.26.99-7.9,3.46,5.09,7.44,9.34,12.03,13.32,1.16.99,2.77.62,3.29-.84,2-5.57,3.99-11.15,5.99-16.72,2.54,7.7,8.23,14.41,16.75,15.17,1.66.11,2.67-2.22,1.42-3.34-2.52-2.26-2.44-6.59-1.99-10.16,1.8,8.46,6.01,16.42,14.9,17.95,1.06.1,1.97-.96,1.98-1.95l.08-9.94c2.29,3.56,5.48,6.56,9.28,8.61,1.71.75,3.71-.63,4.95-1.78,1.45-1.42,2.45-3.19,3.13-5.11l5.54,12.18c.46,1.01,1.81,1.16,2.68.73,4.91-2.78,7.16-7.96,8.27-13.45,2.73,4.8,6.27,9.14,9.87,13.29,1.3,1.44,3.9-.03,3.3-1.89-2.34-7.31,3.86-14.12,9.77-18.12,2.99,6.29,6.56,12.57,11.98,17.02.71.52,1.79.27,2.39-.29,1.62-1.39,2.82-3.01,3.65-4.75-.12,4.44-.63,8.51-.79,9.99-.45,1.82,1.03,3.33,2.83,2.54,8.16-3.49,16.66-9.09,19.28-18.07,4.95,7.21,12.74,12.68,21.22,14.69.86.2,1.76-.12,2.23-.88,2.8-4.61,5.62-9.24,8.3-13.93,2.93,4.75,7.91,8.21,12.72,10.89.99.54,2.69.17,2.9-1.15.51-3.25,1.03-6.51,1.54-9.76,2.5,2.91,4.99,5.83,7.49,8.74.65.76,2.12.79,2.78.02,3.04-3.46,6.33-7.76,10.18-9.91.15-.06.71-.19.77-.22.14-.01.29-.02.43,0,.42.09.95.41,1.36.76,5.33,5.87,10.53,12.03,17.66,15.83.95.55,2.1.21,2.7-.68,3.12-4.68,6.23-9.36,9.35-14.04,16.86,9.07,14.85,11.85,17-4.64,3.09,5.02,6.18,10.04,9.28,15.06.88,1.43,3.11,1.21,3.6-.44,1.76-5.96,3.51-11.93,5.27-17.89,3.85,4.83,7.69,9.65,11.54,14.48.82-.19,1.66-.34,2.49-.43Z"/><path class="cls-9" d="m418.99,918.36c.26-.33.13-.01,0,0h0Z"/><g class="cls-7"><path class="cls-9" d="m400.61,647.13c90.77,16.56,133.15,100.25,132.88,186.47.02,1.26,1.99,1.28,1.97.02-.25-15.53-1.53-31.06-4.23-46.36-9.92-68.24-60.33-131.25-130.6-142.09-1.26-.14-1.26,1.82-.02,1.97h0Z"/></g><path class="cls-9" d="m460.67,855.39c-32.14-20.24-45.36-60.23-47.28-96.54-.07-1.26-2.04-1.28-1.97-.02,1.93,36.99,15.48,77.7,48.24,98.25,1.12.58,2.13-1.11,1.01-1.69h0Z"/><g class="cls-7"><path class="cls-9" d="m491.75,917.87c-4.15-7.05-2.42-17.31-.2-25.2.34-1.22-1.55-1.76-1.89-.54-2.25,8.61-4.37,19.14.69,27.12.8.98,2.2-.41,1.4-1.38h0Z"/></g><g class="cls-7"><path class="cls-9" d="m215.01,859.57c-3.84-76.42,18.7-178.29,101.09-203.93,1.2-.39.7-2.29-.51-1.9-83.99,26.8-106.08,127.58-102.55,205.81.1,1.25,2.06,1.28,1.97.02h0Z"/></g><g class="cls-7"><path class="cls-9" d="m521.27,874.65c10.65,9.19,13.31,24.99,11.89,38.55-.12,1.26,1.84,1.27,1.97.02,1.36-14.11-1.28-30.75-12.85-40.25-1.03-.74-2.03.95-1.01,1.69h0Z"/></g><g class="cls-7"><path class="cls-9" d="m410.45,684.33c11.26,16.76,40.64,26.92,59.39,32.98,1.21.37,1.75-1.52.54-1.89-18.59-5.9-45.95-15.52-57.89-31.48-.12-.19-.24-.38-.34-.59-.55-1.14-2.25-.16-1.71.98h0Z"/></g><g class="cls-7"><path class="cls-9" d="m348.21,682.12c-15.53,21.44-42.63,31.38-67.88,35.76-1.25.21-.73,2.11.51,1.9,25.8-4.47,53.23-14.73,69.07-36.65.65-1.09-1.04-2.09-1.69-1.01h0Z"/></g><path class="cls-9" d="m403.93,876.79c-11.76-8.06-15.99-23.46-16.13-37.1-.02-1.26-1.98-1.28-1.97-.02.18,14.22,4.61,30.48,17.09,38.8,1.1.63,2.11-1.06,1.01-1.69h0Z"/><g class="cls-7"><path class="cls-9" d="m236.09,856.55c7.28,12.26,4.54,27.91-1.12,40.29-.52,1.14,1.17,2.16,1.69,1.01,5.9-12.95,8.85-29.4,1.13-42.27-.72-1.02-2.44-.06-1.71.98h0Z"/></g></g><g id="overkrop"><path class="cls-1" d="m380.54,962.89c7.23-.36,15.25-1.45,22.94-2.29,8.21-.9,16.38-1.56,24.54-2.89,4.32-.71,8.63-1.36,12.97-1.84-4.24-15.16-8.51-29.18-11.99-39.28l-57.03,1.48-12.1,45.1c6.89-.1,13.79.06,20.67-.28Z"/><g id="bikini"><path class="cls-9" d="m368.01,963.13c-2-6.22-3.02-18.98,2-45.07l-3.82.45s-5.05,20.92-9.13,44.72c3.65-.09,7.3-.09,10.95-.1Z"/><path class="cls-9" d="m429.96,957.4c3.87-.62,7.74-1.17,11.62-1.59-5.6-20.07-14.55-39.23-14.55-39.23l-7.86-.07c8.72,16.31,11.24,29.52,10.79,40.89Z"/></g><path class="cls-4" d="m427.04,916.58s10.32,18.04,15.72,38.6c0,0,.13.17.38.47,1.52-.15,3.03-.28,4.55-.38,8.36-1.31,16.69-2.8,24.96-4.65,4.95-1.23,9.82-2.69,14.72-4.09-13.92-18.36-33.36-31.75-60.33-29.95Z"/><path class="cls-9" d="m423.77,914.83c2.23,4.16,10.73,17.93,17.14,41.06,1.52-.17,3.05-.32,4.58-.44-.4-.5-.73-.91-.93-1.17-4.18-15.69-11.22-30.01-14.29-35.87,24.13-.55,41.92,11.84,54.93,28.74,1.3-.39,2.61-.75,3.95-1.08-15.42-20.58-36.74-34.72-65.37-31.24Z"/><path class="cls-4" d="m356.97,963.24c1.03-.03,2.06-.05,3.08-.06l6.14-44.67s-44.5-3.93-62.5,43.69c1.37.18,2.74.33,4.11.48,13.44.61,26.87,1.28,40.3,2.13,3.02-1.12,6.5-1.51,8.88-1.58Z"/><path class="cls-9" d="m363.95,920.45c-1.96,14.25-3.92,28.51-5.88,42.76,1.54-.03,3.09-.05,4.63-.06-.11-.31-.31-.59-.57-.81,2.01-14.6,4.01-29.21,6.02-43.81.15-1.11-1-1.9-1.95-1.98-29.35-1.34-54.76,17.74-64.4,45.05-.04.12-.08.24-.13.36,1.38.17,2.76.36,4.15.51,2.5-6.22,5.61-12.14,9.31-17.56,9.81-13.55,25.18-22.1,41.57-24.07,1.46-.24,4.59-.37,7.25-.38Z"/></g><g id="ansigt-2"><path class="cls-4" d="m381.56,690.51s57.85,65.45,101.97,55.49c25.21,50.48,43.64,124.82-20,155.96-39.26,19.06-96.45,33.37-159.33,5.18-24.64-11.05-42.1-33.75-46.35-60.42-3.42-21.46-3.77-49.57,6.72-79.92,0,0,65.04-1.59,116.99-76.29Z"/><path class="cls-9" d="m375.28,924.89c-48.64-.9-110.58-19.73-119.37-77.85-4.51-28.26-2.05-55.91,7.25-82.16l1.36-.03c-.13.87,69.09-5.22,116.85-77.51l1.66,1.87c.16,1.01,61.47,66.68,101.57,54.53,23.45,44.41,47.22,128.33-20.21,159.99-23.07,11.21-53.9,21.46-89.12,21.16Zm-109.27-156.21c-15.56,47.34-13.9,113.68,38.99,136.67,63.21,28.33,120.63,12.83,157.67-5.16,63.72-29.83,41.74-109.14,19.77-151.96-31.87,7.7-79.8-31.32-100.69-54.59-47.49,66.8-106.04,74.26-115.75,75.04Z"/><g id="_øjne"><path class="cls-9" d="m295.79,826.02c4.57-7.95,12.3-19.19,22.89-18.18,10.21,2.14,15.64,13.45,19.65,22.08,1.3,2.19,4.6.38,3.41-1.96-11.81-29.09-33.56-33.15-49.33-3.96-1.15,2.24,2.22,4.27,3.38,2.01h0Z"/><path class="cls-9" d="m418.8,825.36c2.82-8.82,8.28-20.8,18.11-22.29,9.87-.77,18.45,9.53,24.07,17.26,1.44,2.18,4.64.31,3.41-1.96-4.7-6.45-10.21-13.19-17.44-16.93-14.06-7.62-24.98,4.55-29.78,16.89-.82,1.93-1.59,3.92-2.15,5.94-.68,2.44,3.11,3.52,3.78,1.08h0Z"/></g><g id="_øjenbryn-2"><path class="cls-9" d="m299.54,790.72c.03-.26-.14.73-.01.11.15-.8.38-1.57.68-2.33.1-.27.15-.31,0,0,.75-1.6,1.34-2.47,2.67-3.55-.42.34.14-.09.26-.17.32-.21.65-.39.99-.56.12-.06.66-.27.22-.1,3.93-1.47,8.2-.18,12.08,1.47,2.35,1.17,4.18-2.01,2.01-3.38-9.01-4.69-21.37-3.52-22.83,8.47.04,2.57,3.75,2.65,3.93.03h0Z"/><path class="cls-9" d="m444.35,781.28c.23-.23.49-.44.75-.65.28-.25-.4.28-.08.06.72-.51,1.48-.99,2.29-1.35.18-.09,1.35-.48,2.06-.6.21-.04.53-.06.13-.03,5.09-.73,9.18,4.51,11.55,9.13,1.19,2.23,4.61.28,3.41-1.96-4.45-9.28-13.97-15.5-22.87-7.42-1.78,1.8.97,4.61,2.76,2.8h0Z"/></g><g id="kinder-2"><path class="cls-15" d="m300.32,838.09c26.51,10.6,17.33,33.03-9.01,21.99-26.51-10.6-17.32-33.03,9.01-21.99Z"/><path class="cls-15" d="m462.56,829.73c25.13-13.56,36.46,7.86,11.11,21.01-25.13,13.56-36.46-7.86-11.11-21.01Z"/></g><g id="mund-2"><g id="mund-3"><path class="cls-9" d="m350.1,850.86c3.53,52.72,70.45,51.33,63.79-3.65,0,0-21.61,29.91-63.79,3.65Z"/><path class="cls-14" d="m350.21,851.83s30.96,30.27,63.92-3.27c-2.89-29.08-17.86,29.29-61.68-6.86,0,0-2.74,8.62-2.24,10.13Z"/></g><path class="cls-15" d="m363.43,881.63s24.38-17.18,43.27-1.6c0,0-16.53,23.39-43.27,1.6Z"/></g></g></g></svg>