<?xml version="1.0" encoding="UTF-8"?><svg id="eksport" xmlns="http://www.w3.org/2000/svg" width="205" height="53" viewBox="0 0 205 53"><defs><style>.cls-1{opacity:.5;}.cls-2{fill:#38322d;}.cls-2,.cls-3,.cls-4{stroke-width:0px;}.cls-3{fill:#92785b;}.cls-4{fill:#fff;}</style></defs><g id="liv"><g id="kokosnød"><path class="cls-3" d="m31.12,51.85C-9.86,57.09-8.11-2.17,30.23.97c33.51,4.56,35.21,48.1.9,50.88Z"/><path class="cls-2" d="m26.1,52.41C-10.78,51.9-5.87-2.64,30.24.74c33.09,4.12,36.06,48.34.9,51.33-1.79.23-3.47.33-5.04.33ZM27.31,1.07C-7.07.64-9.31,56.41,31.09,51.63h.01c34.65-2.95,31.62-46.41-.91-50.44-.98-.08-1.94-.12-2.88-.12Z"/><g id="_øjenbryn"><rect class="cls-2" x="22.11" y="15.83" width=".67" height="7.14" transform="translate(-6.85 24.11) rotate(-49.96)"/><rect class="cls-2" x="28.97" y="19.12" width="7.32" height=".67" transform="translate(-5.22 22.72) rotate(-35.73)"/></g><g id="mund"><path class="cls-2" d="m22.78,33.66c.99-1.89,3.25-4.49,5.62-3.27,1.31.67,2.18,2.02,2.88,3.27.21.38.79.04.58-.34-2.83-5.29-6.75-5.11-9.66,0-.2.38.38.72.58.34h0Z"/></g><g id="_øje"><path class="cls-2" d="m24.17,25.82c-.11,6.34-9.53,6.33-9.64,0,.11-6.33,9.53-6.33,9.64,0Z"/><path class="cls-4" d="m19.91,25.03c.03,2.33-3.62,2.33-3.59,0-.03-2.33,3.62-2.33,3.59,0Z"/><path class="cls-4" d="m21.86,27.92c.02,1.26-1.96,1.26-1.94,0-.02-1.26,1.96-1.26,1.94,0Z"/></g><g id="_øje-2"><path class="cls-2" d="m39.86,26.04c-.11,6.34-9.53,6.33-9.64,0,.11-6.33,9.53-6.33,9.64,0Z"/><path class="cls-4" d="m35.6,25.26c.03,2.33-3.62,2.33-3.59,0-.03-2.33,3.62-2.33,3.59,0Z"/><path class="cls-4" d="m37.55,28.15c.02,1.26-1.96,1.26-1.94,0-.02-1.26,1.96-1.26,1.94,0Z"/></g><g id="tekstur"><g id="tekstur-2"><path class="cls-2" d="m24.06,13.52c-.18-1.31-1.56-2-2.66-2.46-.14-.05-.19.17-.06.22,1,.43,2.31,1.06,2.5,2.25.01.14.24.14.22,0h0Z"/><path class="cls-2" d="m20.81,9.6c2.22.17,4.37,1.56,4.6,3.92.02.14.24.14.22,0-.2-2.26-2.12-3.74-4.25-4.07-.19-.03-.38-.06-.56-.07-.14,0-.14.22,0,.22h0Z"/></g><g id="tekstur-3"><path class="cls-2" d="m43.45,23.05c.03-1.41-1.02-2.6-2.32-3.02-.14-.04-.2.17-.06.22.78.23,1.52.84,1.88,1.57.19.38.28.81.28,1.24,0,.14.23.14.22,0h0Z"/><path class="cls-2" d="m40.48,17.99s0,.01-.02,0c.61.07,1.19.36,1.73.64,1.74.91,3.23,2.59,3.28,4.64,0,.14.23.14.22,0-.1-2.74-2.51-4.82-5.02-5.48-.09-.02-.21-.05-.3,0-.13.07-.01.26.11.19h0Z"/></g><g id="tekstur-4"><path class="cls-2" d="m49.68,36.17c.7-.47.73-1.52.67-2.28,0-.09-.02-.18-.03-.27-.03-.16-.26-.07-.21.08.06.69.14,1.78-.54,2.28-.12.08,0,.27.11.19h0Z"/><path class="cls-2" d="m52.01,32.36c.63,2.14.09,4.66-2.05,5.7-.13.07-.01.26.11.19,2.23-1.12,2.82-3.7,2.16-5.96-.04-.14-.26-.08-.22.06h0Z"/></g><g id="tekstur-5"><path class="cls-2" d="m41.32,42.21c.09.77,1.46,1.21,2.1,1.45.14.04.2-.17.06-.22-.59-.21-1.2-.43-1.68-.84-.12-.1-.25-.25-.26-.4,0-.14-.23-.14-.22,0h0Z"/><path class="cls-2" d="m44.38,45.47c-2.43-.62-6.28-2.13-5.75-5.24.03-.14-.19-.2-.22-.06-.55,2.95,2.73,4.56,5.07,5.29.27.09.55.17.83.23.14.03.2-.19.06-.22h0Z"/></g><g id="tekstur-6"><path class="cls-2" d="m20.6,45.07c.85,1.17,2.44,1.51,3.79,1.15.14-.04.08-.26-.06-.22-1.24.37-2.76.03-3.54-1.04-.09-.11-.28,0-.19.11h0Z"/><path class="cls-2" d="m24.81,47.71c-2.39.53-5.5.07-6.55-2.45-.06-.13-.25-.02-.19.11.99,2.37,3.8,3.01,6.13,2.66.23-.03.45-.06.68-.12.14-.03.08-.25-.06-.22h0Z"/></g><g id="tekstur-7"><path class="cls-2" d="m7.36,35.85c1.17-.59,1.38-2.1,1.48-3.28,0-.14-.22-.14-.22,0-.09,1.09-.28,2.55-1.37,3.09-.13.06-.02.25.11.19h0Z"/><path class="cls-2" d="m9.92,31.18c1.19,2.68.51,5.65-1.95,7.35-.12.08,0,.28.11.19,2.32-1.61,3.2-4.38,2.27-7.04-.07-.21-.14-.42-.24-.61-.06-.13-.26-.02-.19.11h0Z"/></g></g><g id="skygge" class="cls-1"><path class="cls-2" d="m2.96,29.29c.31-9.08,4.46-18.58,12.55-23.27,1.88-1.11,3.9-1.95,6-2.54.14-.04.08-.26-.06-.22-1.72.49-3.39,1.14-4.97,1.97-6.26,3.19-10.55,9.28-12.43,15.96-.68,2.36-1.13,4.79-1.28,7.25-.02.28-.04.57-.03.85,0,.14.22.14.22,0h0Z"/></g><g id="skygge-2" class="cls-1"><path class="cls-2" d="m45.95,10.35c3.36,2.79,6.29,6.37,7.58,10.6.04.14.26.08.22-.06-1.2-3.96-3.86-7.34-6.9-10.07-.24-.21-.49-.43-.74-.62-.11-.09-.27.07-.16.16h0Z"/></g></g><g id="kokosnød-2"><path class="cls-3" d="m105.12,51.85c-40.98,5.24-39.23-54.02-.9-50.88,33.51,4.56,35.21,48.1.9,50.88Z"/><path class="cls-2" d="m100.1,52.41c-36.88-.51-31.97-55.04,4.14-51.66,33.09,4.12,36.06,48.34.9,51.33-1.79.23-3.47.33-5.04.33Zm1.21-51.34c-34.38-.43-36.62,55.35,3.78,50.56h.01c34.65-2.95,31.62-46.41-.91-50.44-.98-.08-1.94-.12-2.88-.12Z"/><g id="_øjenbryn-2"><rect class="cls-2" x="96.11" y="15.83" width=".67" height="7.14" transform="translate(19.55 80.76) rotate(-49.96)"/><rect class="cls-2" x="102.97" y="19.12" width="7.32" height=".67" transform="translate(8.71 65.93) rotate(-35.73)"/></g><g id="mund-2"><path class="cls-2" d="m96.78,33.66c.99-1.89,3.25-4.49,5.62-3.27,1.31.67,2.18,2.02,2.88,3.27.21.38.79.04.58-.34-2.83-5.29-6.75-5.11-9.66,0-.2.38.38.72.58.34h0Z"/></g><g id="_øje-3"><path class="cls-2" d="m98.17,25.82c-.11,6.34-9.53,6.33-9.64,0,.11-6.33,9.53-6.33,9.64,0Z"/><path class="cls-4" d="m93.91,25.03c.03,2.33-3.62,2.33-3.59,0-.03-2.33,3.62-2.33,3.59,0Z"/><path class="cls-4" d="m95.86,27.92c.02,1.26-1.96,1.26-1.94,0-.02-1.26,1.96-1.26,1.94,0Z"/></g><g id="_øje-4"><path class="cls-2" d="m113.86,26.04c-.11,6.34-9.53,6.33-9.64,0,.11-6.33,9.53-6.33,9.64,0Z"/><path class="cls-4" d="m109.6,25.26c.03,2.33-3.62,2.33-3.59,0-.03-2.33,3.62-2.33,3.59,0Z"/><path class="cls-4" d="m111.55,28.15c.02,1.26-1.96,1.26-1.94,0-.02-1.26,1.96-1.26,1.94,0Z"/></g><g id="tekstur-8"><g id="tekstur-9"><path class="cls-2" d="m98.06,13.52c-.18-1.31-1.56-2-2.66-2.46-.14-.05-.19.17-.06.22,1,.43,2.31,1.06,2.5,2.25.01.14.24.14.22,0h0Z"/><path class="cls-2" d="m94.81,9.6c2.22.17,4.37,1.56,4.6,3.92.02.14.24.14.22,0-.2-2.26-2.12-3.74-4.25-4.07-.19-.03-.38-.06-.56-.07-.14,0-.14.22,0,.22h0Z"/></g><g id="tekstur-10"><path class="cls-2" d="m117.45,23.05c.03-1.41-1.02-2.6-2.32-3.02-.14-.04-.2.17-.06.22.78.23,1.52.84,1.88,1.57.19.38.28.81.28,1.24,0,.14.23.14.22,0h0Z"/><path class="cls-2" d="m114.48,17.99s0,.01-.02,0c.61.07,1.19.36,1.73.64,1.74.91,3.23,2.59,3.28,4.64,0,.14.23.14.22,0-.1-2.74-2.51-4.82-5.02-5.48-.09-.02-.21-.05-.3,0-.13.07-.01.26.11.19h0Z"/></g><g id="tekstur-11"><path class="cls-2" d="m123.68,36.17c.7-.47.73-1.52.67-2.28,0-.09-.02-.18-.03-.27-.03-.16-.26-.07-.21.08.06.69.14,1.78-.54,2.28-.12.08,0,.27.11.19h0Z"/><path class="cls-2" d="m126.01,32.36c.63,2.14.09,4.66-2.05,5.7-.13.07-.01.26.11.19,2.23-1.12,2.82-3.7,2.16-5.96-.04-.14-.26-.08-.22.06h0Z"/></g><g id="tekstur-12"><path class="cls-2" d="m115.32,42.21c.09.77,1.46,1.21,2.1,1.45.14.04.2-.17.06-.22-.59-.21-1.2-.43-1.68-.84-.12-.1-.25-.25-.26-.4,0-.14-.23-.14-.22,0h0Z"/><path class="cls-2" d="m118.38,45.47c-2.43-.62-6.28-2.13-5.75-5.24.03-.14-.19-.2-.22-.06-.55,2.95,2.73,4.56,5.07,5.29.27.09.55.17.83.23.14.03.2-.19.06-.22h0Z"/></g><g id="tekstur-13"><path class="cls-2" d="m94.6,45.07c.85,1.17,2.44,1.51,3.79,1.15.14-.04.08-.26-.06-.22-1.24.37-2.76.03-3.54-1.04-.09-.11-.28,0-.19.11h0Z"/><path class="cls-2" d="m98.81,47.71c-2.39.53-5.5.07-6.55-2.45-.06-.13-.25-.02-.19.11.99,2.37,3.8,3.01,6.13,2.66.23-.03.45-.06.68-.12.14-.03.08-.25-.06-.22h0Z"/></g><g id="tekstur-14"><path class="cls-2" d="m81.36,35.85c1.17-.59,1.38-2.1,1.48-3.28,0-.14-.22-.14-.22,0-.09,1.09-.28,2.55-1.37,3.09-.13.06-.02.25.11.19h0Z"/><path class="cls-2" d="m83.92,31.18c1.19,2.68.51,5.65-1.95,7.35-.12.08,0,.28.11.19,2.32-1.61,3.2-4.38,2.27-7.04-.07-.21-.14-.42-.24-.61-.06-.13-.26-.02-.19.11h0Z"/></g></g><g id="skygge-3" class="cls-1"><path class="cls-2" d="m76.96,29.29c.31-9.08,4.46-18.58,12.55-23.27,1.88-1.11,3.9-1.95,6-2.54.14-.04.08-.26-.06-.22-1.72.49-3.39,1.14-4.97,1.97-6.26,3.19-10.55,9.28-12.43,15.96-.68,2.36-1.13,4.79-1.28,7.25-.02.28-.04.57-.03.85,0,.14.22.14.22,0h0Z"/></g><g id="skygge-4" class="cls-1"><path class="cls-2" d="m119.95,10.35c3.36,2.79,6.29,6.37,7.58,10.6.04.14.26.08.22-.06-1.2-3.96-3.86-7.34-6.9-10.07-.24-.21-.49-.43-.74-.62-.11-.09-.27.07-.16.16h0Z"/></g></g><g id="kokosnød-3"><path class="cls-3" d="m179.12,51.85c-40.98,5.24-39.23-54.02-.9-50.88,33.51,4.56,35.21,48.1.9,50.88Z"/><path class="cls-2" d="m174.1,52.41c-36.88-.51-31.97-55.04,4.14-51.66,33.09,4.12,36.06,48.34.9,51.33-1.79.23-3.47.33-5.04.33Zm1.21-51.34c-34.38-.43-36.62,55.35,3.78,50.56h.01c34.65-2.95,31.62-46.41-.91-50.44-.98-.08-1.94-.12-2.88-.12Z"/><g id="_øjenbryn-3"><rect class="cls-2" x="170.11" y="15.83" width=".67" height="7.14" transform="translate(45.95 137.42) rotate(-49.96)"/><rect class="cls-2" x="176.97" y="19.12" width="7.32" height=".67" transform="translate(22.64 109.14) rotate(-35.73)"/></g><g id="mund-3"><path class="cls-2" d="m170.78,33.66c.99-1.89,3.25-4.49,5.62-3.27,1.31.67,2.18,2.02,2.88,3.27.21.38.79.04.58-.34-2.83-5.29-6.75-5.11-9.66,0-.2.38.38.72.58.34h0Z"/></g><g id="_øje-5"><path class="cls-2" d="m172.17,25.82c-.11,6.34-9.53,6.33-9.64,0,.11-6.33,9.53-6.33,9.64,0Z"/><path class="cls-4" d="m167.91,25.03c.03,2.33-3.62,2.33-3.59,0-.03-2.33,3.62-2.33,3.59,0Z"/><path class="cls-4" d="m169.86,27.92c.02,1.26-1.96,1.26-1.94,0-.02-1.26,1.96-1.26,1.94,0Z"/></g><g id="_øje-6"><path class="cls-2" d="m187.86,26.04c-.11,6.34-9.53,6.33-9.64,0,.11-6.33,9.53-6.33,9.64,0Z"/><path class="cls-4" d="m183.6,25.26c.03,2.33-3.62,2.33-3.59,0-.03-2.33,3.62-2.33,3.59,0Z"/><path class="cls-4" d="m185.55,28.15c.02,1.26-1.96,1.26-1.94,0-.02-1.26,1.96-1.26,1.94,0Z"/></g><g id="tekstur-15"><g id="tekstur-16"><path class="cls-2" d="m172.06,13.52c-.18-1.31-1.56-2-2.66-2.46-.14-.05-.19.17-.06.22,1,.43,2.31,1.06,2.5,2.25.01.14.24.14.22,0h0Z"/><path class="cls-2" d="m168.81,9.6c2.22.17,4.37,1.56,4.6,3.92.02.14.24.14.22,0-.2-2.26-2.12-3.74-4.25-4.07-.19-.03-.38-.06-.56-.07-.14,0-.14.22,0,.22h0Z"/></g><g id="tekstur-17"><path class="cls-2" d="m191.45,23.05c.03-1.41-1.02-2.6-2.32-3.02-.14-.04-.2.17-.06.22.78.23,1.52.84,1.88,1.57.19.38.28.81.28,1.24,0,.14.23.14.22,0h0Z"/><path class="cls-2" d="m188.48,17.99s0,.01-.02,0c.61.07,1.19.36,1.73.64,1.74.91,3.23,2.59,3.28,4.64,0,.14.23.14.22,0-.1-2.74-2.51-4.82-5.02-5.48-.09-.02-.21-.05-.3,0-.13.07-.01.26.11.19h0Z"/></g><g id="tekstur-18"><path class="cls-2" d="m197.68,36.17c.7-.47.73-1.52.67-2.28,0-.09-.02-.18-.03-.27-.03-.16-.26-.07-.21.08.06.69.14,1.78-.54,2.28-.12.08,0,.27.11.19h0Z"/><path class="cls-2" d="m200.01,32.36c.63,2.14.09,4.66-2.05,5.7-.13.07-.01.26.11.19,2.23-1.12,2.82-3.7,2.16-5.96-.04-.14-.26-.08-.22.06h0Z"/></g><g id="tekstur-19"><path class="cls-2" d="m189.32,42.21c.09.77,1.46,1.21,2.1,1.45.14.04.2-.17.06-.22-.59-.21-1.2-.43-1.68-.84-.12-.1-.25-.25-.26-.4,0-.14-.23-.14-.22,0h0Z"/><path class="cls-2" d="m192.38,45.47c-2.43-.62-6.28-2.13-5.75-5.24.03-.14-.19-.2-.22-.06-.55,2.95,2.73,4.56,5.07,5.29.27.09.55.17.83.23.14.03.2-.19.06-.22h0Z"/></g><g id="tekstur-20"><path class="cls-2" d="m168.6,45.07c.85,1.17,2.44,1.51,3.79,1.15.14-.04.08-.26-.06-.22-1.24.37-2.76.03-3.54-1.04-.09-.11-.28,0-.19.11h0Z"/><path class="cls-2" d="m172.81,47.71c-2.39.53-5.5.07-6.55-2.45-.06-.13-.25-.02-.19.11.99,2.37,3.8,3.01,6.13,2.66.23-.03.45-.06.68-.12.14-.03.08-.25-.06-.22h0Z"/></g><g id="tekstur-21"><path class="cls-2" d="m155.36,35.85c1.17-.59,1.38-2.1,1.48-3.28,0-.14-.22-.14-.22,0-.09,1.09-.28,2.55-1.37,3.09-.13.06-.02.25.11.19h0Z"/><path class="cls-2" d="m157.92,31.18c1.19,2.68.51,5.65-1.95,7.35-.12.08,0,.28.11.19,2.32-1.61,3.2-4.38,2.27-7.04-.07-.21-.14-.42-.24-.61-.06-.13-.26-.02-.19.11h0Z"/></g></g><g id="skygge-5" class="cls-1"><path class="cls-2" d="m150.96,29.29c.31-9.08,4.46-18.58,12.55-23.27,1.88-1.11,3.9-1.95,6-2.54.14-.04.08-.26-.06-.22-1.72.49-3.39,1.14-4.97,1.97-6.26,3.19-10.55,9.28-12.43,15.96-.68,2.36-1.13,4.79-1.28,7.25-.02.28-.04.57-.03.85,0,.14.22.14.22,0h0Z"/></g><g id="skygge-6" class="cls-1"><path class="cls-2" d="m193.95,10.35c3.36,2.79,6.29,6.37,7.58,10.6.04.14.26.08.22-.06-1.2-3.96-3.86-7.34-6.9-10.07-.24-.21-.49-.43-.74-.62-.11-.09-.27.07-.16.16h0Z"/></g></g></g></svg>