<?xml version="1.0" encoding="UTF-8"?><svg id="eksport" xmlns="http://www.w3.org/2000/svg" width="395" height="424" viewBox="0 0 395 424"><defs><style>.cls-1{fill:none;stroke:#38322d;stroke-miterlimit:10;}.cls-2{opacity:.5;}.cls-3{fill:#38322d;}.cls-3,.cls-4,.cls-5,.cls-6{stroke-width:0px;}.cls-4{fill:#838c61;}.cls-5{fill:#92785b;}.cls-6{fill:#fff;}</style></defs><g id="palme"><g id="palme-2"><g id="stamme"><path class="cls-5" d="m255.58,419.55l23.89,2.36c-27.06-195.25-84.9-259.62-92-230,31.49,22.34,64.91,170.82,61,224l7.11,3.64"/><path class="cls-3" d="m255.58,419.05c7.96.79,15.93,1.57,23.89,2.36l-.48.63c-6.52-46.62-15.49-93.03-29.42-138.05-8.46-26.62-18.18-53.21-32.99-77.02-4.93-7.44-10.17-15.35-17.97-20.03-5.39-3.1-9.38-.83-10.66,5.1l-.23-.56c34.97,27.18,65.22,178.93,61.25,224.43l-.25-.43c2.37,1.21,4.74,2.43,7.11,3.64.57.29.07,1.16-.5.86-2.37-1.21-4.74-2.43-7.11-3.64-.15-.07-.26-.27-.25-.43.97-13.36-.18-26.9-1.66-40.18-6.62-52.1-17.9-104.32-38.57-152.75-4.82-10.26-9.91-20.89-18.24-28.79-.73-.66-1.48-1.28-2.28-1.85-.19-.13-.29-.33-.23-.56.56-2.33,1.58-4.8,3.62-6.21,8.28-4.93,19.36,10.15,23.58,16.03,14.96,21.95,24.58,47.05,33.11,72.07,14.41,43.65,23.73,88.83,30.65,134.23.7,4.62,1.36,9.25,2.01,13.88.04.29-.12.67-.48.63-7.96-.79-15.93-1.57-23.89-2.36-.63-.06-.64-1.06,0-1h0Z"/><path class="cls-1" d="m277.41,408.35s-3.8,9.56-21.7,11.07"/><path class="cls-1" d="m204.97,191.4s1.41,8.33-6,13"/><path class="cls-1" d="m215.69,204.79s.64,9.99-8.73,14.62"/><path class="cls-1" d="m224.62,220.02s-1.25,8.74-12.31,11.77"/><path class="cls-1" d="m231.89,235.22s-1.47,8.3-14.3,11.75"/><path class="cls-1" d="m238.51,250.98s-1.08,8.98-14.54,13.42"/><path class="cls-1" d="m243.83,265.14s-.2,7.73-15.17,16.18"/><path class="cls-1" d="m250.06,284.37s-.34,8.34-16.4,16.95"/><path class="cls-1" d="m256.5,305.97s-1.28,8.67-18.53,15.44"/><path class="cls-1" d="m261.97,327.4s-1.76,8.74-20,15"/><path class="cls-1" d="m266.46,347.16s-2.47,7.85-22,13.5"/><path class="cls-1" d="m270.32,365.89s-2.28,9.44-22.85,15.86"/><path class="cls-1" d="m274.33,389.04s-3.69,10.08-25.72,13.73"/><path class="cls-1" d="m195.02,183.95s1.52,6.84-4.04,10.76"/></g><g id="blade"><path class="cls-4" d="m184.05,188.38l-1.9-56.9s-56.1-8.99-17.95-31.47c0,0-21.32-24.73-39.27-2.25,0,0-10.1-17.98,23.56-29.22,0,0-21.32-7.87-39.27,7.87,0,0-10.1-5.62,8.98-30.35,0,0-14.59-38.22-57.23-2.25,0,0,33.66-76.43,92.01-22.48,58.35,53.95,54.29,101.44,31.07,167.06Z"/><path class="cls-3" d="m183.55,188.38c-.63-18.97-1.27-37.94-1.9-56.9l.37.48c-20.69-3.53-48.62-14.53-18.07-32.39l-.1.79c-11.32-12.26-27.02-17.15-38.57-2.25-.2.25-.64.16-.79-.1-4.07-7.85.58-16.95,7.23-21.71,4.93-3.79,10.78-6.28,16.64-8.25v.96c-8.58-2.8-18.18-2.58-26.67.48-4.45,1.64-8.54,4.15-12.12,7.26-.17.15-.4.19-.61.08-2.43-1.36-3.02-4.92-2.9-7.39.77-8.74,6.28-16.25,11.3-23.11l.2-.26.15.12s-.08-.2-.1-.24c-11.37-23.78-33.6-19.7-51.55-5.57-1.62,1.21-3.19,2.48-4.74,3.78-.45.38-1.02-.08-.79-.61,1.03-2.33,2.27-4.57,3.53-6.77C81.54,6.37,109.95-10.47,141.91,11.79c11.89,8.4,22.05,19.08,31.34,30.23,35.38,42.69,31.51,87.18,14.62,136.77-1.08,3.25-2.19,6.49-3.34,9.72-.21.6-1.18.34-.96-.27,4.41-12.47,8.46-25.1,11.43-38,13.47-55.45-3.94-94.79-45.79-131.61C113.05-12.82,80.39,5.46,61.4,44.05l-.79-.61c8.8-7.4,19.5-14.76,31.36-15.51,11.36-.93,21.6,6.71,26.17,16.77.17.35.39.74.49,1.12.11.43-.14.65-.42,1-4.34,5.84-8.75,12.04-10.61,19.17-.84,3.25-1.11,7.75,1.86,9.97l-.61.08c10.65-9.5,26.27-12.38,39.76-8,.46.17.48.8,0,.96-8.38,2.91-17.39,6.79-22.33,14.56-2.52,4.13-3.11,9.55-.94,13.93l-.79-.1c10.64-13.67,25.2-11.5,37.04-.68,1.03.92,2.04,1.88,2.94,2.92.21.24.19.61-.1.79-3.01,1.78-5.96,3.72-8.52,6.12-4.42,3.89-6.53,9.23-1.67,13.76,2.83,2.72,6.6,4.47,10.22,5.88,5.06,1.96,10.33,3.34,15.65,4.4.7.13,1.46.21,2.15.39.22.04.36.28.37.48.21,6.42.43,12.84.64,19.27.42,12.55.84,25.09,1.26,37.64.02.64-.98.64-1,0Z"/><path class="cls-4" d="m183.97,184.4l-13.5-23.5s-14-3-19,4c0,0-13-7-10-21,0,0-19,11-19,16l-18-1s-5-8-5-19c0,0-18,3-26,28,0,0-12.51-7.24-9.25-25.62,0,0-16.75,16.62-15.75,26.62,0,0-25-6-16-28,0,0-25.65,20-26.33,43.5-33.7-115.36,179.87-106.84,177.83,0Z"/><path class="cls-3" d="m183.54,184.66c-4.49-7.82-9.02-15.69-13.49-23.49-.08.12.45.13.21.2-.09.03-.33-.06-.42-.08-5.92-.85-13.83-1.39-17.93,3.87-.16.22-.43.32-.68.18-7.51-4.05-12.3-13.13-10.23-21.56l.73.56c-5.7,3.47-11.55,6.99-16.32,11.7-.96.98-2.4,2.38-2.43,3.87,0,.26-.23.52-.5.5-5.54-.31-11.08-.62-16.62-.92-.44-.02-.95.02-1.38-.08-.53-.12-.75-.78-.98-1.22-2.92-5.62-4.49-11.94-4.52-18.28l.63.48c-8.03,1.82-14.71,7.65-19.29,14.3-2.78,4.1-4.84,8.64-6.36,13.35-.1.31-.45.47-.73.3-8.51-5.49-11.39-16.63-9.48-26.18l.84.49c-5.88,6.22-16,17.34-15.6,26.27.03.34-.34.55-.63.48-13.7-3.77-22.44-14.41-16.35-28.62l.84.49c-12.79,10.77-25.31,25.76-26.18,43.15-.02.56-.82.68-.98.13-8.29-27.43-2.95-54.7,22.49-70.6,44.26-27.35,123.41-11.71,148.33,35.77,5.62,10.62,8.25,22.71,7.99,34.7-.01.64-1.01.64-1,0,.97-29.23-16.71-53.96-41.84-67.51C86.11,85.05-17.44,100.89,6.62,184.27l-.98.13c.94-17.83,13.41-32.76,26.47-43.85.34-.26,1.05-.04.84.49-5.95,13.71,2.46,23.75,15.65,27.38l-.63.48c-.6-8.41,8.42-18.67,13.74-24.71.7-.77,1.41-1.53,2.15-2.26.38-.38.92.02.84.49-1.79,9.14.9,19.75,9.02,25.05l-.73.3c3.95-12.61,12.93-25.1,26.35-28.35.32-.05.63.13.63.48.07,6.51,1.67,13.09,4.93,18.75l-.43-.25c6,.33,12,.67,18,1l-.5.5c.48-5.35,14.62-13.54,19.25-16.43.4-.23.82.15.73.56-1.93,8.14,2.69,16.43,9.77,20.44l-.68.18c4.08-5.32,11.68-5.26,17.75-4.53.59.08,1.7.05,2.12.55,4.51,7.8,8.98,15.67,13.49,23.48.32.56-.54,1.06-.86.5Z"/><path class="cls-4" d="m187.47,187.9s30.98-52.63,35.08-48.62c0,0-2.05,19.08,9.23,16.07,0,0,0-23.1,18.45-41.17l3.08,15.06,12.3-20.08s11.28,10.04,26.65,7.03c0,0-9.23-24.3,0-27.72-3.26,10.58,15.65,37.14,38.96,12.65,0,0-10.25-19.08-3.08-26.11,0,0,51.26-1,54.33-4.02-68.13-51.39-173.91-25.13-195,116.9Z"/><path class="cls-3" d="m187.04,187.65c5.71-9.62,11.58-19.14,17.74-28.47,3.8-5.73,7.64-11.56,12.19-16.74,1.15-1.31,2.49-2.94,4.13-3.66.49-.22,1.09-.34,1.57-.03.54.34.33.93.3,1.47-.4,5.67.32,16.97,8.67,14.65l-.37.48c.69-15.48,7.56-30.67,18.6-41.53.25-.25.76-.16.84.22,1.03,5.02,2.05,10.04,3.08,15.06l-.91-.12c3.59-5.87,7.19-11.73,10.78-17.6.51-.83,1.01-1.66,1.52-2.48.18-.29.54-.32.79-.1,7.19,5.86,17,8.71,26.17,6.9l-.35.62c-2.3-6.73-8.37-24.52.35-28.33.36-.14.72.27.62.62-1.34,5.47,1.66,11.12,5.11,15.2,10.32,11.41,23.71,7.2,33.01-3.03l-.08.61c-3.46-6.63-8.57-19.14-3.7-25.91.73-1.24,1.83-.93,3.03-.99,12.56-.32,25.13-.72,37.67-1.65,2.94-.22,5.89-.48,8.81-.87,1.79-.27,4-.38,5.53-1.31l.1.79c-31.56-24.27-75.29-31.93-112.06-15.27-35.44,15.56-58.91,49.7-71.08,85.44-5.22,15.06-8.78,30.67-11.12,46.43-.09.63-1.06.36-.96-.27,5.13-34.24,16-68.59,37.42-96.23,20.23-26.65,52-44.93,85.83-45.28,23.99-.54,47.82,7.26,67.55,20.77,1.67,1.14,3.32,2.32,4.94,3.54,1.27,1.31-2.97,1.91-3.67,2.01-16.85,2.32-33.94,2.38-50.91,2.94.44-.16-.13.36-.25.52-3.51,5.15-1.28,11.98.5,17.38.92,2.55,1.99,5.06,3.25,7.46.11.2.08.44-.08.61-6.31,6.58-15.23,12.28-24.68,9.47-8.74-2.52-17.22-13.33-15.11-22.61l.62.62c-7.1,2.94-2.36,18.63-.66,24.18.32.98.64,1.96,1,2.92.09.24-.1.57-.35.62-9.56,1.81-19.66-1-27.14-7.16l.79-.1c-4.1,6.69-8.2,13.39-12.3,20.08-.21.35-.82.32-.91-.12-1.03-5.02-2.05-10.04-3.08-15.06l.84.22c-10.82,10.68-17.66,25.58-18.31,40.82,0,.22-.15.43-.37.48-3.27.84-6.3-.11-8-3.12-2.16-4.02-2.16-8.96-1.86-13.36.1-.1.12.25.12.25,0,.02-.03-.07-.13-.04-1.24.21-2.31,1.47-3.2,2.33-4.51,4.67-8.15,10.28-11.75,15.65-4.29,6.38-8.39,12.87-12.41,19.42-2.28,3.63-4.42,7.37-6.66,11.02-.04.05-.07.11-.1.17-.33.55-1.19.05-.86-.5Z"/><path class="cls-4" d="m182.97,190.25c-.33.41,33.38-22.41,62.56-18.24-8.34,7.17-27.92,29.34,6.25,28.14,0,0-2.06-9.73,14.6-18.41,0,0-18.25,15.44,14.32,28.91,0,0,11.72-28.21,29.44-27.17,0,0-13.55,6.25-6.25,23.97,0,0,11.7,14.74,30.34,3.2,0,0,4.97-9.45,3.99-20.4,0,0,10.48,24.49,35.49,28.66,0,0-7.29-19.62,0-20.23,0,0,13.55.43,18.76,10.85-15.2-84.09-150.67-111.23-209.5-19.28Z"/><path class="cls-3" d="m183.4,190.5l.05-.38-.48-.37c12.52-7.94,28.26-15.04,43.6-17.71,6.31-1.08,12.74-1.4,19.1-.51.37.05.49.61.22.84-15.26,13.49-21.33,28.7,5.9,27.28l-.48.63c-.75-8.93,7.78-15.22,14.83-18.98.48-.25,1.06.4.61.79-6.2,5.44-6.53,13.46-.54,19.21,4.05,4.04,9.41,6.69,14.63,8.87l-.62.35c5.35-11.74,15.33-27.94,29.92-27.54.45.02.73.71.25.93-8.83,4.58-9.76,14.83-6.13,23.21,1.99,2.48,4.83,4.31,7.69,5.67,7.2,3.22,15.51,1.67,21.93-2.57,2.92-6.17,4.38-13.13,3.83-19.96-.04-.48.74-.71.93-.25,6.62,14.05,19.54,25.9,35.19,28.43l-.62.62c-1.5-4.38-6.99-20.23.69-20.86,7.54.46,15.42,4.15,18.98,11.09l-.91.39c-7.13-41.3-45.1-68.82-84.85-74.83-17.03-2.73-34.63-1.93-51.33,2.4-27.32,6.94-51.7,23.99-68.06,46.89-1.51,2.09-2.95,4.22-4.34,6.38-.35.54-1.21.04-.86-.5,30.13-48.28,89.39-69.17,143.34-51.69,30.56,9.6,57.94,33.33,65.78,65.16.5,1.96.93,3.93,1.29,5.92.09.52-.64.93-.91.39-3.33-6.52-10.56-9.92-17.61-10.56-5.75-.52-2.94,10.22-2.22,13.08.55,2.18,1.2,4.36,1.98,6.47.15.39-.28.67-.62.62-15.96-2.73-28.96-14.54-35.79-28.89l.93-.25c.55,7.04-.97,14.26-4.03,20.59-9.68,6.87-22.88,6.34-30.95-2.8-1.47-2.45-2.04-5.65-2.41-8.47-.76-6.52,2.53-13.6,8.57-16.52l.25.93c-14.18-.33-23.79,15.66-28.96,26.8-.09.22-.34.46-.62.35-4.93-2.05-9.85-4.48-13.9-8.03-7.51-6.21-7.8-15.1-.64-21.72l.61.79c-6.48,3.43-13.88,8.73-14.43,16.69-.1.71.42,1.7-.42,1.79-28.11,1.35-22.66-14.85-6.61-28.99l.22.84c-21.66-2.59-42.84,6.77-61.1,17.55-.32.2-.91.73-1.32.71-.37,0-.63-.43-.43-.76.35-.54,1.21-.04.86.5Z"/><path class="cls-4" d="m191.75,174.01c-56.73-37.36-211.65,51.38-117.53,138.4,0,0-14.28-42.84-4.39-39.54l19.77,15.38s-6.59-38.44,3.3-46.13c-.43,16.99,7.15,37.52,26.37,17.09,0,0-2.21-34.66,5.48-36.86,0,0-4.39,20.87,19.77,20.87,0,0-5.49-18.67,2.2-38.44,0,0,12.08,14.28,16.48,12.08,0,0-1.1-15.38,10.98-28.56l13.29,3.62c6.66-11.33,13.69-2,4.29-17.9Z"/><path class="cls-3" d="m191.5,174.44c-58.25-37.24-209.99,52.34-116.92,137.61l-.84.49c-1.43-4.77-13.96-41.97-4.24-40.28.53.11.84.37,1.25.69,1.93,1.5,3.86,3,5.79,4.51,4.47,3.48,8.94,6.95,13.41,10.43l-.84.49c-1.63-10.73-5.41-39.23,3.42-46.62.32-.25.87-.12.85.35-.53,18.73,8.08,35.82,25.52,16.73l-.15.35c-.29-7.12-1.73-34.85,5.85-37.34.39-.11.69.26.62.62-2,13.28,6.5,20.52,19.29,20.24l-.48.63c-3.17-12.69-2.47-26.47,2.2-38.71.12-.32.57-.54.84-.22,2.74,3.05,11.66,13.34,15.87,12l-.25.43c-.25-10.57,4.01-21.14,11.13-28.91.12-.13.32-.17.49-.13,4.43,1.21,8.86,2.41,13.29,3.62l-.56.23c1.71-2.88,3.93-5.11,6.92-6.62,2.14-.9,2.21-1.51,1.33-3.54-1.08-2.52-2.58-4.89-3.97-7.24-.33-.56.54-1.06.86-.5,1.32,2.24,2.71,4.49,3.79,6.86.44.96,1.03,2.18.77,3.27-.62,1.84-3.14,2.13-4.51,3.31-1.82,1.28-3.21,3.06-4.34,4.96-.11.19-.35.29-.56.23-4.43-1.21-8.86-2.41-13.29-3.62l.49-.13c-6.9,7.6-11.11,17.88-10.84,28.2.01.16-.1.36-.25.43-4.84,1.97-13.98-8.77-17.08-12.16l.84-.22c-4.62,12.03-5.37,25.69-2.2,38.18.09.31-.16.63-.48.63-6.49-.02-13.58-1.59-17.55-7.18-2.88-4.1-3.54-9.47-2.71-14.32l.62.62c-5.97,2.4-5.39,23.69-5.37,29.68.03,2.23.14,4.46.25,6.68-.01.13-.04.22-.11.33-1.31,1.57-2.97,2.93-4.53,4.27-17,13.86-23.36-7.62-22.73-21.67l.85.35c-8.49,7.28-4.73,35.12-3.17,45.65.09.51-.44.8-.84.49-6.59-5.13-13.18-10.25-19.77-15.38.34.21.03.06-.08.04-1.77-.53-2.33,1.47-2.46,2.85-.27,2.32,0,4.73.32,7.03,1.4,9.89,4.5,19.44,7.39,28.97.02.06.04.11.06.17.17.5-.49.81-.84.49-28.97-26.21-40.83-61.48-17.13-95.66,22.86-32.79,70.82-55.85,110.74-51.84,8.63,1,17.22,3.51,24.53,8.32.54.35.04,1.22-.5.86Z"/></g></g><g id="kokosnød"><path class="cls-5" d="m235.58,214.22c-13.68,18.33-36.61-5.16-20.61-19.22,14.71-11.59,32.71,4.48,20.61,19.22Z"/><path class="cls-3" d="m233.87,216.43c-14.4,14.49-34.22-8.45-18.98-21.53,14.37-11.59,33.12,4.24,20.79,19.39-.6.8-1.2,1.51-1.81,2.14Zm-19.98-20.24c-13.4,13.53,7.95,35.88,21.59,17.95h0c12.16-14.94-6.31-30.45-20.44-19.05-.41.36-.79.73-1.16,1.1Z"/><g id="_øjenbryn"><rect class="cls-3" x="217.34" y="205" width="3.96" height=".37" transform="translate(-20.08 23.83) rotate(-5.95)"/><rect class="cls-3" x="221.23" y="200.96" width="4.06" height=".37" transform="translate(-7.97 393.08) rotate(-81.71)"/></g><g id="mund"><path class="cls-3" d="m225.13,210.54c-.37-1.12-.54-3.02.86-3.5.77-.26,1.65-.09,2.41.11.23.06.32-.3.09-.36-3.2-.91-4.63.72-3.72,3.85.08.23.43.13.36-.1h0Z"/></g><g id="_øje"><path class="cls-3" d="m222.54,206.97c2.48,2.48-1.15,6.23-3.71,3.84-2.48-2.48,1.15-6.23,3.71-3.84Z"/><path class="cls-6" d="m220.59,208.36c.94.88-.47,2.34-1.38,1.43-.94-.88.47-2.34,1.38-1.43Z"/><path class="cls-6" d="m222.49,208.7c.51.48-.25,1.26-.75.77-.51-.48.25-1.26.75-.77Z"/></g><g id="_øje-2"><path class="cls-3" d="m228.67,200.81c2.48,2.48-1.15,6.23-3.71,3.84-2.48-2.48,1.15-6.23,3.71-3.84Z"/><path class="cls-6" d="m226.72,202.2c.94.88-.47,2.34-1.38,1.43-.94-.88.47-2.34,1.38-1.43Z"/><path class="cls-6" d="m228.61,202.54c.51.48-.25,1.26-.75.77-.51-.48.25-1.26.75-.77Z"/></g><g id="tekstur"><g id="tekstur-2"><path class="cls-3" d="m217.6,202.28c-.59-.43-1.4-.15-2,.11-.07.04,0,.14.06.11.55-.23,1.31-.51,1.85-.13.06.05.15-.04.09-.09h0Z"/><path class="cls-3" d="m214.79,202.07c.92-.82,2.3-1.14,3.33-.32.06.05.15-.04.09-.09-.98-.79-2.3-.6-3.26.13-.08.06-.17.13-.25.2-.06.05.03.14.09.09h0Z"/></g><g id="tekstur-3"><path class="cls-3" d="m228.85,198.23c-.55-.55-1.43-.59-2.1-.24-.07.04,0,.15.06.11.39-.22.92-.28,1.35-.15.23.07.43.2.6.36.06.06.14-.03.09-.09h0Z"/><path class="cls-3" d="m225.7,197.46s0,0,0,.01c.26-.22.6-.33.92-.44,1.03-.34,2.28-.29,3.11.48.06.05.15-.04.09-.09-1.13-1.01-2.89-.86-4.11-.11-.04.03-.1.07-.12.12-.02.08.1.11.12.03h0Z"/></g><g id="tekstur-4"><path class="cls-3" d="m236.48,200.8c.08-.46-.32-.88-.65-1.14-.04-.03-.08-.06-.12-.09-.07-.05-.13.08-.05.12.3.24.76.63.7,1.09-.01.08.11.11.12.03h0Z"/><path class="cls-3" d="m235.86,198.4c1.1.57,1.89,1.76,1.48,3.01-.02.08.1.11.12.03.41-1.32-.39-2.55-1.54-3.15-.07-.04-.13.07-.06.11h0Z"/></g><g id="tekstur-5"><path class="cls-3" d="m235.67,206.45c.34.26,1.04-.12,1.39-.28.07-.04,0-.14-.06-.11-.31.15-.63.31-.98.35-.09,0-.19,0-.26-.05-.06-.05-.15.04-.09.09h0Z"/><path class="cls-3" d="m238.14,206.48c-1.18.73-3.26,1.68-4.3.27-.05-.07-.15,0-.11.06.96,1.35,2.87.67,4.06.01.14-.08.28-.16.41-.24.07-.04,0-.15-.06-.11h0Z"/></g><g id="tekstur-6"><path class="cls-3" d="m228.83,215.8c.8.11,1.54-.39,1.92-1.07.04-.07-.07-.13-.11-.06-.33.64-1.05,1.11-1.78,1.01-.08,0-.11.11-.03.12h0Z"/><path class="cls-3" d="m231.51,215.14c-.71,1.15-2.09,2.22-3.5,1.67-.07-.03-.1.09-.03.12,1.32.52,2.66-.36,3.42-1.42.08-.1.15-.2.21-.31.04-.07-.07-.13-.11-.06h0Z"/></g><g id="tekstur-7"><path class="cls-3" d="m220.06,217.52c.22-.69-.31-1.36-.74-1.85-.06-.06-.14.03-.09.09.4.46.91,1.09.7,1.73-.03.07.09.1.12.03h0Z"/><path class="cls-3" d="m219.19,214.71c1.53.56,2.45,1.97,2.18,3.6-.01.08.11.11.12.03.25-1.54-.51-2.96-1.93-3.61-.11-.05-.22-.1-.34-.14-.08-.02-.11.1-.03.12h0Z"/></g></g><g id="skygge" class="cls-2"><path class="cls-3" d="m215.76,216.75c-3.5-3.62-5.68-8.93-4.44-13.95.28-1.17.73-2.3,1.3-3.37.04-.07-.07-.13-.11-.06-.47.87-.85,1.79-1.13,2.74-1.14,3.72-.36,7.77,1.57,11.09.68,1.18,1.48,2.29,2.39,3.3.11.12.21.23.33.34.06.06.14-.03.09-.09h0Z"/></g><g id="skygge-2" class="cls-2"><path class="cls-3" d="m224.76,192.34c2.4-.27,4.96-.05,7.14,1.06.07.04.13-.07.06-.11-2.04-1.05-4.41-1.29-6.67-1.13-.18.01-.36.03-.53.06-.08.01-.08.14,0,.12h0Z"/></g></g><g id="kokosnød-2"><path class="cls-5" d="m203.8,234.95c-21.61,7.52-27.44-24.79-6.3-27.47,18.68-1.36,24.58,22.04,6.3,27.47Z"/><path class="cls-3" d="m201.14,235.82c-20.04,3.94-23.62-26.17-3.66-28.47,18.4-1.55,25.06,22.07,6.36,27.71-.94.33-1.84.58-2.7.76Zm-5.21-27.96c-18.68,3.7-13.52,34.18,7.83,26.96h0c18.44-5.56,11.83-28.76-6.26-27.23-.54.07-1.07.16-1.58.26Z"/><g id="_øjenbryn-2"><rect class="cls-3" x="195.2" y="216.38" width=".37" height="3.96" transform="translate(-89.29 287.75) rotate(-61.88)"/><rect class="cls-3" x="198.88" y="217.03" width="4.06" height=".37" transform="translate(-94.97 219.33) rotate(-47.64)"/></g><g id="mund-2"><path class="cls-3" d="m197.2,226.04c.32-1.13,1.25-2.8,2.67-2.41.79.21,1.41.85,1.93,1.44.16.18.43-.07.28-.25-2.14-2.54-4.24-2-5.23,1.1-.06.23.29.35.35.12h0Z"/></g><g id="_øje-3"><path class="cls-3" d="m197.05,221.63c.67,3.45-4.44,4.52-5.22,1.1-.67-3.44,4.44-4.52,5.22-1.1Z"/><path class="cls-6" d="m194.66,221.69c.28,1.26-1.7,1.67-1.94.41-.28-1.26,1.7-1.67,1.94-.41Z"/><path class="cls-6" d="m196.04,223.04c.15.68-.92.91-1.05.22-.15-.68.92-.91,1.05-.22Z"/></g><g id="_øje-4"><path class="cls-3" d="m205.58,219.96c.67,3.45-4.44,4.52-5.22,1.1-.67-3.44,4.44-4.52,5.22-1.1Z"/><path class="cls-6" d="m203.19,220.02c.28,1.26-1.7,1.67-1.94.41-.28-1.26,1.7-1.67,1.94-.41Z"/><path class="cls-6" d="m204.57,221.37c.15.68-.92.91-1.05.22-.15-.68.92-.91,1.05-.22Z"/></g><g id="tekstur-8"><g id="tekstur-9"><path class="cls-3" d="m195.59,214.98c-.25-.69-1.07-.9-1.72-1.03-.08-.01-.09.11,0,.12.59.12,1.37.31,1.61.93.02.08.14.05.12-.03h0Z"/><path class="cls-3" d="m193.38,213.23c1.22-.16,2.54.34,2.94,1.6.03.07.15.05.12-.03-.37-1.2-1.57-1.78-2.77-1.72-.1,0-.21,0-.31.03-.08.01-.05.13.03.12h0Z"/></g><g id="tekstur-10"><path class="cls-3" d="m207.18,217.93c-.15-.77-.85-1.29-1.6-1.37-.08,0-.09.12,0,.12.45.04.92.28,1.2.64.15.19.24.41.29.64.02.08.14.05.12-.03h0Z"/><path class="cls-3" d="m205,215.53s0,0-.01,0c.34-.03.69.06,1.01.15,1.05.29,2.05,1.04,2.31,2.14.02.08.14.05.12-.03-.36-1.47-1.91-2.33-3.35-2.39-.05,0-.12,0-.16.04-.06.05.02.14.08.09h0Z"/></g><g id="tekstur-11"><path class="cls-3" d="m212.06,224.33c.33-.33.22-.91.1-1.31-.01-.05-.03-.1-.05-.15-.03-.08-.15,0-.11.07.11.36.28.95-.03,1.29-.06.06.03.15.08.09h0Z"/><path class="cls-3" d="m212.88,222c.59,1.09.58,2.52-.46,3.33-.06.05.02.14.08.09,1.08-.86,1.1-2.33.49-3.47-.04-.07-.15-.01-.11.06h0Z"/></g><g id="tekstur-12"><path class="cls-3" d="m208.22,228.56c.14.41.93.49,1.3.55.08,0,.09-.12,0-.12-.34-.04-.7-.1-1.01-.26-.08-.04-.16-.1-.18-.19-.02-.08-.14-.05-.12.03h0Z"/><path class="cls-3" d="m210.25,229.97c-1.39-.06-3.64-.43-3.71-2.18,0-.08-.13-.09-.12,0,.04,1.66,2,2.16,3.35,2.29.16.01.32.03.48.03.08,0,.09-.12,0-.12h0Z"/></g><g id="tekstur-13"><path class="cls-3" d="m197.32,232.47c.6.54,1.5.54,2.19.19.07-.04.01-.15-.06-.11-.63.34-1.49.33-2.04-.16-.06-.05-.15.03-.09.08h0Z"/><path class="cls-3" d="m199.91,233.42c-1.23.56-2.97.67-3.83-.58-.05-.06-.14.02-.09.08.81,1.17,2.41,1.2,3.63.74.12-.04.24-.09.35-.14.07-.03.02-.14-.06-.11h0Z"/></g><g id="tekstur-14"><path class="cls-3" d="m189.09,228.99c.57-.45.51-1.3.43-1.95-.01-.08-.14-.05-.12.03.07.6.14,1.41-.39,1.83-.07.05.02.14.08.09h0Z"/><path class="cls-3" d="m189.95,226.17c.95,1.32.92,3.01-.22,4.2-.05.06.03.15.08.09,1.07-1.14,1.23-2.74.43-4.07-.06-.1-.13-.21-.2-.31-.05-.06-.14.02-.09.08h0Z"/></g></g><g id="skygge-3" class="cls-2"><path class="cls-3" d="m185.96,225.94c-.87-4.96.29-10.58,4.14-14.04.89-.81,1.89-1.5,2.96-2.06.07-.04.01-.15-.06-.11-.87.46-1.71,1.01-2.47,1.63-3.03,2.44-4.65,6.24-4.91,10.07-.1,1.36-.06,2.73.14,4.07.02.16.05.31.08.47.02.08.14.05.12-.03h0Z"/></g><g id="skygge-4" class="cls-2"><path class="cls-3" d="m207.09,210.76c2.14,1.13,4.14,2.74,5.32,4.88.04.07.15.01.11-.06-1.1-2.01-2.93-3.54-4.89-4.67-.16-.09-.31-.18-.47-.25-.07-.03-.14.07-.07.1h0Z"/></g></g><g id="kokosnød-3"><path class="cls-5" d="m210.26,209.14c-17.73,14.46-34.26-13.91-15.32-23.66,17.09-7.67,30.64,12.3,15.32,23.66Z"/><path class="cls-3" d="m208.06,210.87c-17.49,10.56-31.14-16.51-13.18-25.5,16.76-7.75,31.1,12.16,15.45,23.86-.77.63-1.53,1.17-2.27,1.63Zm-14.46-24.49c-16.29,9.87-1.01,36.74,16.58,22.66h0c15.43-11.53,1.27-31.07-15.2-23.45-.48.25-.95.51-1.39.79Z"/><g id="_øjenbryn-3"><rect class="cls-3" x="196.49" y="194.45" width=".37" height="3.96" transform="translate(-25.55 363.4) rotate(-81.88)"/><rect class="cls-3" x="199.45" y="193.28" width="4.06" height=".37" transform="translate(-54.07 306.23) rotate(-67.65)"/></g><g id="mund-3"><path class="cls-3" d="m201.01,203.03c-.09-1.18.21-3.06,1.68-3.18.81-.07,1.62.31,2.31.69.21.12.38-.21.17-.33-2.88-1.66-4.67-.43-4.54,2.83.02.24.39.23.37-.01h0Z"/></g><g id="_øje-5"><path class="cls-3" d="m199.37,198.93c1.8,3.01-2.63,5.77-4.53,2.82-1.8-3.01,2.63-5.77,4.53-2.82Z"/><path class="cls-6" d="m197.14,199.81c.7,1.08-1.02,2.15-1.69,1.05-.7-1.08,1.02-2.15,1.69-1.05Z"/><path class="cls-6" d="m198.89,200.6c.38.59-.55,1.16-.91.57-.38-.59.55-1.16.91-.57Z"/></g><g id="_øje-6"><path class="cls-3" d="m206.81,194.45c1.8,3.01-2.63,5.77-4.53,2.82-1.8-3.01,2.63-5.77,4.53-2.82Z"/><path class="cls-6" d="m204.58,195.32c.7,1.08-1.02,2.15-1.69,1.05-.7-1.08,1.02-2.15,1.69-1.05Z"/><path class="cls-6" d="m206.33,196.11c.38.59-.55,1.16-.91.57-.38-.59.55-1.16.91-.57Z"/></g><g id="tekstur-15"><g id="tekstur-16"><path class="cls-3" d="m195.71,193.19c-.47-.56-1.32-.48-1.97-.38-.08.02-.04.14.04.12.59-.09,1.39-.18,1.83.32.05.06.15,0,.11-.07h0Z"/><path class="cls-3" d="m193.04,192.3c1.09-.57,2.51-.55,3.31.5.05.06.16,0,.11-.07-.76-1.01-2.09-1.14-3.19-.67-.1.04-.19.08-.29.13-.07.04,0,.14.07.11h0Z"/></g><g id="tekstur-17"><path class="cls-3" d="m207.62,191.99c-.4-.67-1.24-.92-1.98-.74-.08.02-.04.14.04.12.43-.12.96-.05,1.34.19.2.12.37.3.49.5.04.07.15,0,.11-.07h0Z"/><path class="cls-3" d="m204.74,190.48s0,0,0,0c.31-.15.67-.18,1-.21,1.08-.08,2.28.27,2.9,1.22.04.07.15,0,.11-.07-.85-1.26-2.59-1.53-3.97-1.1-.05.02-.11.04-.14.09-.04.07.07.13.11.06h0Z"/></g><g id="tekstur-18"><path class="cls-3" d="m214.39,196.33c.19-.43-.1-.93-.35-1.27-.03-.04-.06-.08-.09-.12-.06-.06-.14.04-.08.1.23.31.58.8.41,1.23-.03.07.08.13.11.06h0Z"/><path class="cls-3" d="m214.37,193.86c.92.82,1.41,2.17.7,3.28-.04.07.07.13.11.06.72-1.18.24-2.56-.73-3.43-.06-.05-.15.04-.08.09h0Z"/></g><g id="tekstur-19"><path class="cls-3" d="m212.23,201.62c.27.34,1.04.14,1.41.07.08-.02.04-.14-.04-.12-.34.07-.69.15-1.03.1-.09-.01-.19-.04-.24-.11-.05-.07-.15,0-.11.07h0Z"/><path class="cls-3" d="m214.62,202.26c-1.33.42-3.57.84-4.24-.78-.03-.07-.15-.04-.12.04.6,1.55,2.62,1.35,3.93,1,.15-.04.31-.08.46-.14.08-.03.04-.15-.04-.12h0Z"/></g><g id="tekstur-20"><path class="cls-3" d="m203.33,209.03c.74.3,1.59,0,2.12-.57.05-.06-.04-.14-.09-.08-.47.54-1.29.82-1.97.55-.07-.03-.13.08-.06.11h0Z"/><path class="cls-3" d="m206.08,209.04c-.97.95-2.57,1.64-3.8.77-.07-.04-.12.07-.06.11,1.16.82,2.67.3,3.66-.54.1-.08.2-.16.28-.25.06-.06-.04-.14-.09-.08h0Z"/></g><g id="tekstur-21"><path class="cls-3" d="m194.4,208.57c.38-.62.03-1.39-.26-1.98-.04-.07-.15,0-.11.07.28.54.61,1.28.26,1.85-.05.07.06.12.11.06h0Z"/><path class="cls-3" d="m194.24,205.63c1.35.91,1.89,2.51,1.24,4.02-.03.07.08.13.11.06.62-1.44.22-2.99-.99-3.97-.09-.08-.19-.15-.29-.22-.07-.04-.13.07-.06.11h0Z"/></g></g><g id="skygge-5" class="cls-2"><path class="cls-3" d="m190.41,206.78c-2.51-4.36-3.34-10.04-.91-14.61.56-1.07,1.26-2.06,2.07-2.95.05-.06-.04-.14-.09-.08-.66.73-1.26,1.53-1.76,2.38-2.01,3.33-2.24,7.45-1.17,11.14.37,1.31.87,2.58,1.52,3.78.07.14.15.28.24.41.04.07.15,0,.11-.07h0Z"/></g><g id="skygge-6" class="cls-2"><path class="cls-3" d="m205.07,185.29c2.4.33,4.82,1.16,6.67,2.76.06.05.14-.04.08-.09-1.72-1.51-3.96-2.32-6.19-2.72-.18-.03-.35-.06-.53-.08-.08,0-.11.11-.03.12h0Z"/></g></g></g></svg>