<?xml version="1.0" encoding="UTF-8"?><svg id="eksport" xmlns="http://www.w3.org/2000/svg" width="395" height="424" viewBox="0 0 395 424"><defs><style>.cls-1{stroke-width:.31px;}.cls-1,.cls-2,.cls-3,.cls-4,.cls-5,.cls-6,.cls-7,.cls-8{stroke:#38322d;stroke-miterlimit:10;}.cls-1,.cls-2,.cls-3,.cls-5,.cls-6,.cls-7,.cls-8{fill:#f4e787;}.cls-2{stroke-width:.3px;}.cls-3{stroke-width:.34px;}.cls-4{fill:none;}.cls-9{opacity:.5;}.cls-5{stroke-width:.35px;}.cls-6{stroke-width:.37px;}.cls-10{fill:#38322d;}.cls-10,.cls-11,.cls-12,.cls-13,.cls-14{stroke-width:0px;}.cls-11{fill:#838c61;}.cls-12{fill:#92785b;}.cls-13{fill:#fff;}.cls-14{fill:#f4e6ef;}.cls-7{stroke-width:.32px;}.cls-8{stroke-width:.32px;}</style></defs><g id="palme"><g id="stamme"><path class="cls-12" d="m139.42,419.55l-23.89,2.36c27.06-195.25,84.9-259.62,92-230-31.49,22.34-64.91,170.82-61,224l-7.11,3.64"/><path class="cls-10" d="m139.42,419.05c-7.96.79-15.93,1.57-23.89,2.36l.48.63c6.52-46.62,15.49-93.03,29.42-138.05,8.46-26.62,18.18-53.21,32.99-77.02,4.93-7.44,10.17-15.35,17.97-20.03,5.39-3.1,9.38-.83,10.66,5.1l.23-.56c-34.97,27.18-65.22,178.93-61.25,224.43l.25-.43c-2.37,1.21-4.74,2.43-7.11,3.64-.57.29-.07,1.16.5.86,2.37-1.21,4.74-2.43,7.11-3.64.15-.07.26-.27.25-.43-.97-13.36.18-26.9,1.66-40.18,6.62-52.1,17.9-104.32,38.57-152.75,4.82-10.26,9.91-20.89,18.24-28.79.73-.66,1.48-1.28,2.28-1.85.19-.13.29-.33.23-.56-.56-2.33-1.58-4.8-3.62-6.21-8.28-4.93-19.36,10.15-23.58,16.03-14.96,21.95-24.58,47.05-33.11,72.07-14.41,43.65-23.73,88.83-30.65,134.23-.7,4.62-1.36,9.25-2.01,13.88-.04.29.12.67.48.63,7.96-.79,15.93-1.57,23.89-2.36.63-.06.64-1.06,0-1h0Z"/><path class="cls-4" d="m117.59,408.35s3.8,9.56,21.7,11.07"/><path class="cls-4" d="m190.03,191.4s-1.41,8.33,6,13"/><path class="cls-4" d="m179.31,204.79s-.64,9.99,8.73,14.62"/><path class="cls-4" d="m170.38,220.02s1.25,8.74,12.31,11.77"/><path class="cls-4" d="m163.11,235.22s1.47,8.3,14.3,11.75"/><path class="cls-4" d="m156.49,250.98s1.08,8.98,14.54,13.42"/><path class="cls-4" d="m151.17,265.14s.2,7.73,15.17,16.18"/><path class="cls-4" d="m144.94,284.37s.34,8.34,16.4,16.95"/><path class="cls-4" d="m138.5,305.97s1.28,8.67,18.53,15.44"/><path class="cls-4" d="m133.03,327.4s1.76,8.74,20,15"/><path class="cls-4" d="m128.54,347.16s2.47,7.85,22,13.5"/><path class="cls-4" d="m124.68,365.89s2.28,9.44,22.85,15.86"/><path class="cls-4" d="m120.67,389.04s3.69,10.08,25.72,13.73"/><path class="cls-4" d="m199.98,183.95s-1.52,6.84,4.04,10.76"/></g><g id="bananer"><g id="banan"><path class="cls-1" d="m174.54,239.86l-3.73-3.05c-24.44.46-21.48-30.52,1.79-35.19,1.04-.46,1.64.09,2.22,1.23,0,0-8.31,8-7.15,17.62,2.01,13.54,2.51,13.18,8.86,16.34.68,1.78.58,3.34-1.99,3.04Z"/><path class="cls-10" d="m175.23,237.92s-.86,1.52-.53,1.99c0,0,.82.35,2.13-.79,0,0,.15-.34-.42-2.25,0,0-.5.11-1.18,1.06Z"/><path class="cls-10" d="m172.66,203.2s.86.31,2.16-.34c-.5-.99-.95-1.6-2.22-1.23,0,0-.13,1.33.06,1.57Z"/><g id="_øje"><path class="cls-10" d="m163.08,224.03c-1.71-2.03,1.52-4.66,3.17-2.58,1.71,2.03-1.52,4.66-3.17,2.58Z"/><path class="cls-13" d="m163.28,222.72c-.34-.41.31-.94.64-.52.34.41-.31.94-.64.52Z"/><path class="cls-13" d="m164.69,223.15c-.64-.76.57-1.74,1.18-.96.64.76-.57,1.74-1.18.96Z"/></g><g id="_øje-2"><path class="cls-10" d="m158.26,226.93c-1.71-2.03,1.52-4.66,3.17-2.58,1.71,2.03-1.52,4.66-3.17,2.58Z"/><path class="cls-13" d="m159.87,226.04c-.64-.76.57-1.74,1.18-.96.64.76-.57,1.74-1.18.96Z"/><path class="cls-13" d="m158.46,225.61c-.34-.41.31-.94.64-.52.34.41-.31.94-.64.52Z"/></g><g id="_øjenbryn"><path class="cls-10" d="m167.14,224.49s.11.17.13.31c0,.02,0-.04,0-.01,0,.04,0,.09,0,.13,0,.02,0-.03,0,0,0,.03-.01.06-.02.09,0,0-.03.06,0,.02-.02.04-.05.09-.07.13-.02.02,0,0,0,0-.19.23-.47.36-.75.47-.08.03-.13.11-.11.19.02.08.11.14.19.11.41-.15.88-.37,1.04-.81.11-.29.02-.62-.17-.84-.14-.15-.37.08-.22.22h0Z"/><path class="cls-10" d="m160.88,228.76s-.03.08,0,.03c-.11.26-.3.42-.49.45-.04,0-.15,0-.16,0-.27-.04-.5-.2-.71-.36-.07-.05-.16-.06-.22,0-.06.06-.07.17,0,.22.52.5,1.44.71,1.82-.07.03-.06.06-.12.08-.18.06-.19-.24-.28-.3-.08h0Z"/></g><g id="mund"><path class="cls-10" d="m162.01,221.67c-.47-.33-1.22-.39-1.53.18-.19.3-.24.67-.26,1.02,0,.08.08.16.16.16.09,0,.15-.07.16-.16.03-.32.07-.66.26-.93-.02.02.04-.05.08-.08,0,0,.06-.04.02-.02.04-.03.08-.05.12-.07.05-.02.19-.05.33-.03-.02,0-.02,0-.02,0,.11.01.21.05.31.09-.02,0-.02,0,0,0,.07.03.14.07.21.11.17.11.33-.16.16-.27h0Z"/></g><g id="kinder"><path class="cls-14" d="m164.38,219.89c-1.49-.26-1.26-1.52.23-1.24,1.49.26,1.26,1.52-.23,1.24Z"/><path class="cls-14" d="m158.05,223.49c-.69,1.34-1.83.75-1.11-.59.69-1.34,1.83-.75,1.11.59Z"/></g><g class="cls-9"><path class="cls-10" d="m165.06,213.85c1.4-4.12,3.83-8.3,7.64-10.59.09-.05,0-.19-.08-.14-3.56,2.04-5.86,5.92-7.33,9.64-.14.34-.27.69-.38,1.05-.03.1.12.14.15.04h0Z"/></g><g class="cls-9"><path class="cls-10" d="m165.97,204.69c-9.47,4.59-15.25,19.14-6.68,27.16,2.73,2.46,6.33,3.62,9.91,4.1.1.01.1-.14,0-.16-3.29-.44-6.59-1.46-9.21-3.56-6.62-5.12-5.62-15.14-1-21.28,1.83-2.56,4.25-4.7,7.06-6.13.09-.05.01-.18-.08-.14h0Z"/></g><g class="cls-9"><path class="cls-10" d="m167.91,227.69c.41,1.93.65,4.1,1.87,5.71.07.07.18-.04.11-.11-1.19-1.59-1.42-3.73-1.83-5.64-.02-.1-.17-.06-.15.04h0Z"/></g><g class="cls-9"><path class="cls-10" d="m172.13,235.77c.95.46,1.93.91,2.73,1.61.07.07.19-.04.11-.11-.49-.45-1.09-.78-1.68-1.1-.35-.19-.71-.37-1.08-.54-.09-.04-.17.09-.08.14h0Z"/></g><g class="cls-9"><path class="cls-10" d="m174.12,238.53c.04-.23.07-.49.21-.63.07-.07-.04-.18-.11-.11-.13.05-.41,1.05-.09.74h0Z"/></g></g><g id="banan-2"><path class="cls-8" d="m173.56,240.67l-4.83-.96c-21.84,12.15-34.05-17.24-15.28-32.62.72-.92,1.53-.7,2.6.04,0,0-3.66,11.21,2,19.35,8.32,11.26,8.6,10.69,15.85,10.49,1.47,1.33,2.15,2.69-.33,3.7Z"/><path class="cls-10" d="m173.25,238.59s-.04,1.79.48,2.05c0,0,.91-.08,1.55-1.74,0,0-.03-.38-1.46-1.83,0,0-.39.34-.56,1.52Z"/><path class="cls-10" d="m154.25,208.47s.93-.13,1.79-1.34c-.93-.66-1.62-.99-2.6-.04,0,0,.52,1.26.81,1.39Z"/><g id="_øje-3"><path class="cls-10" d="m155.61,231.88c-2.52-1.01-.87-4.94,1.62-3.85,2.52,1.01.87,4.94-1.62,3.85Z"/><path class="cls-13" d="m155.16,230.6c-.51-.2-.17-.99.33-.78.51.2.17.99-.33.78Z"/><path class="cls-13" d="m156.64,230.31c-.94-.38-.32-1.84.6-1.43.94.38.32,1.84-.6,1.43Z"/></g><g id="_øje-4"><path class="cls-10" d="m152.65,236.81c-2.52-1.01-.87-4.94,1.62-3.85,2.52,1.01.87,4.94-1.62,3.85Z"/><path class="cls-13" d="m153.68,235.24c-.94-.38-.32-1.84.6-1.43.94.38.32,1.84-.6,1.43Z"/><path class="cls-13" d="m152.2,235.53c-.51-.2-.17-.99.33-.78.51.2.17.99-.33.78Z"/></g><g id="_øjenbryn-2"><path class="cls-10" d="m159.5,230.35s-.05-.02-.01,0c.02.01.04.02.07.04.01,0,.03.02.04.03.02.01.06.05.02.01.14.1.2.25.22.34.04.35-.21.69-.46.96-.14.15.09.38.23.23.29-.33.61-.75.55-1.22.01-.27-.56-.96-.76-.58-.03.09.03.17.11.2h0Z"/><path class="cls-10" d="m155.9,237.21c.02.13,0,.41-.13.58.01-.01.02-.02,0,0-.02.02-.04.05-.06.07,0,0-.05.04-.01.01-.17.12-.33.15-.55.15-.21.04-.52-.18-.63.06-.02.08.03.18.11.2.44.09.98.12,1.33-.21.22-.16.49-1.07.06-1.05-.09.02-.13.11-.11.2h0Z"/></g><g id="mund-2"><path class="cls-10" d="m153.5,230.27c-.59-.07-1.26.24-1.29.9-.03.36.11.73.25,1.05.04.08.15.1.22.06.08-.05.09-.14.06-.22-.13-.3-.24-.62-.21-.93,0,.03,0,0,0,0,.01-.06.02-.11.05-.16.04-.09.15-.22.32-.29.13-.05.39-.1.6-.07.21,0,.21-.32,0-.32h0Z"/></g><g id="kinder-2"><path class="cls-14" d="m154.8,227.52c-1.47.48-1.87-.77-.39-1.23,1.47-.48,1.87.77.39,1.23Z"/><path class="cls-14" d="m150.81,233.8c.02,1.55-1.29,1.55-1.29,0-.02-1.55,1.29-1.55,1.29,0Z"/></g><g class="cls-9"><path class="cls-10" d="m152.51,221.74c-.64-4.41-.55-9.31,1.82-13.22.06-.09-.08-.17-.14-.08-2.39,3.95-2.48,8.9-1.83,13.35.02.1.17.06.16-.04h0Z"/></g><g class="cls-9"><path class="cls-10" d="m148.93,213.04c-6.31,8.66-4.61,24.45,6.87,27.69,3.68.96,7.55.29,11.05-1.01.1-.04.05-.19-.04-.16-3.15,1.17-6.58,1.84-9.93,1.24-8.46-1.37-12.44-10.89-11.24-18.66.42-3.23,1.57-6.35,3.44-9.02.06-.09-.08-.17-.14-.08h0Z"/></g><g class="cls-9"><path class="cls-10" d="m161.71,232.85c1.3,1.55,2.56,3.4,4.44,4.27.1.03.14-.12.04-.16-1.84-.87-3.06-2.68-4.35-4.2-.06-.08-.2,0-.14.08h0Z"/></g><g class="cls-9"><path class="cls-10" d="m169.42,238.14c1.07-.04,2.18-.11,3.23.14.1.03.14-.13.04-.16-1.07-.25-2.19-.19-3.28-.15-.1,0-.1.17,0,.16h0Z"/></g><g class="cls-9"><path class="cls-10" d="m172.54,239.67c-.05-.14-.11-.34-.12-.47,0-.05-.01-.1,0-.16.06-.09-.06-.23-.14-.09-.09.11.14,1.15.27.71h0Z"/></g></g><g id="banan-3"><path class="cls-3" d="m172.62,242.2l-5.23.47c-18.69,18.97-39.97-7.41-25.4-28.76.46-1.15,1.35-1.18,2.67-.73,0,0-.38,12.55,7.85,19.17,11.88,9.01,11.99,8.35,19.34,5.97,1.9.91,3,2.11.77,3.88Z"/><path class="cls-10" d="m171.68,240.16s.49,1.84,1.1,1.96c0,0,.91-.35,1.06-2.24,0,0-.14-.38-2.04-1.44,0,0-.3.47-.12,1.72Z"/><path class="cls-10" d="m143.23,215.08s.91-.42,1.42-1.91c-1.15-.39-1.96-.53-2.67.73,0,0,.91,1.14,1.25,1.18Z"/><g id="_øje-5"><path class="cls-10" d="m151.64,238.6c-2.88-.28-2.37-4.79.5-4.42,2.88.28,2.37,4.79-.5,4.42Z"/><path class="cls-13" d="m150.8,237.42c-.58-.06-.48-.96.1-.89.58.06.48.96-.1.89Z"/><path class="cls-13" d="m152.22,236.68c-1.07-.1-.88-1.78.19-1.65,1.07.1.88,1.78-.19,1.65Z"/></g><g id="_øje-6"><path class="cls-10" d="m150.09,244.52c-2.88-.28-2.37-4.79.5-4.42,2.88.28,2.37,4.79-.5,4.42Z"/><path class="cls-13" d="m150.67,242.61c-1.07-.1-.88-1.78.19-1.65,1.07.1.88,1.78-.19,1.65Z"/><path class="cls-13" d="m149.25,243.35c-.58-.06-.48-.96.1-.89.58.06.48.96-.1.89Z"/></g><g id="_øjenbryn-3"><path class="cls-10" d="m155.15,235.87s-.06-.01-.01,0c.06.01.13.03.19.05.03.01-.04-.02,0,0,.03.02.07.03.1.05.01,0,.08.06.03.02.04.03.08.07.11.11-.03-.04,0,0,0,0,.06.08.08.15.1.26.04.25-.08.65-.23.93-.04.08-.02.19.06.23.07.04.19.02.23-.06.21-.43.4-.96.19-1.42-.07-.27-.85-.8-.95-.35,0,.1.08.16.17.17h0Z"/><path class="cls-10" d="m153.53,243.95c.05.09.1.36.08.47-.03.14-.04.17-.11.28,0,.02.03-.03,0,0-.03.04-.07.07-.11.11,0,0-.04.03,0,0-.07.06-.15.1-.24.14-.16.12-.8.05-.78.3,0,.09.08.18.17.17.47-.04,1.04-.16,1.29-.61.18-.23.19-1.23-.25-1.09-.08.05-.1.15-.06.23h0Z"/></g><g id="mund-3"><path class="cls-10" d="m149.01,237.58c-1.32.25-1.32,1.47-.48,2.3.14.17.38-.08.24-.24-.25-.29-.54-.73-.5-1.08.03-.18.12-.3.26-.41.03-.03.17-.11.27-.15-.05.02,0,0,.01,0,.09-.04.19-.07.28-.08.21-.05.12-.39-.09-.33h0Z"/></g><g id="kinder-3"><path class="cls-14" d="m149.5,234.38c-1.36.93-2.14-.23-.77-1.14,1.36-.93,2.14.23.77,1.14Z"/><path class="cls-14" d="m147.31,242c.48,1.58-.86,1.98-1.31.39-.48-1.58.86-1.98,1.31-.39Z"/></g><g class="cls-9"><path class="cls-10" d="m145.43,229.16c-1.98-4.32-3.36-9.35-2.11-14.06.03-.11-.14-.15-.17-.05-1.26,4.76.13,9.84,2.13,14.19.05.1.2.01.15-.09h0Z"/></g><g class="cls-9"><path class="cls-10" d="m139.17,221.34c-3.85,10.74,2.62,26.39,15.34,26.25,4.04-.13,7.79-1.97,10.98-4.35.09-.07,0-.21-.09-.15-2.88,2.15-6.2,3.86-9.81,4.25-9.06,1.11-15.96-7.42-17.06-15.72-.54-3.42-.29-6.95.81-10.23.04-.1-.13-.15-.17-.05h0Z"/></g><g class="cls-9"><path class="cls-10" d="m158.18,237.77c1.77,1.22,3.63,2.7,5.8,3.02.11,0,.11-.17,0-.17-2.15-.29-3.95-1.85-5.72-3-.09-.07-.17.08-.09.15h0Z"/></g><g class="cls-9"><path class="cls-10" d="m167.63,240.85c1.08-.37,2.2-.76,3.35-.83.11,0,.11-.18,0-.17-1.17.06-2.29.46-3.39.83-.1.04-.06.2.05.17h0Z"/></g><g class="cls-9"><path class="cls-10" d="m171.28,241.49c-.11-.15-.21-.3-.28-.47,0,0,0,0,0,0-.03-.07-.05-.12-.04-.18,0-.11-.17-.11-.17,0-.07.14.49,1.13.49.65h0Z"/></g></g><g id="banan-4"><path class="cls-6" d="m174.76,241.43l-4.55,3.4c-6.47,28.08-41.05,15.84-39.74-12.11-.23-1.32.58-1.85,2.05-2.19,0,0,6.77,11.79,18.11,13.22,16.06,1.57,15.79.89,21.22-5.47,2.27-.23,3.96.23,2.91,3.14Z"/><path class="cls-10" d="m172.75,240.08s1.5,1.42,2.12,1.18c0,0,.64-.84-.29-2.67,0,0-.34-.27-2.7-.17,0,0-.01.6.87,1.66Z"/><path class="cls-10" d="m132.29,233.1s.6-.9.23-2.57c-1.32.33-2.07.57-2.05,2.19,0,0,1.48.53,1.82.38Z"/><g id="_øje-7"><path class="cls-10" d="m153.38,250.01c-2.81,1.37-4.9-3.07-2.05-4.36,2.81-1.37,4.9,3.07,2.05,4.36Z"/><path class="cls-13" d="m151.94,249.41c-.57.28-.99-.62-.41-.88.57-.28.99.62.41.88Z"/><path class="cls-13" d="m152.83,247.91c-1.05.51-1.82-1.14-.76-1.62,1.05-.51,1.82,1.14.76,1.62Z"/></g><g id="_øje-8"><path class="cls-10" d="m155.32,256.35c-2.81,1.37-4.9-3.07-2.05-4.36,2.81-1.37,4.9,3.07,2.05,4.36Z"/><path class="cls-13" d="m154.76,254.26c-1.05.51-1.82-1.14-.76-1.62,1.05-.51,1.82,1.14.76,1.62Z"/><path class="cls-13" d="m153.87,255.75c-.57.28-.99-.62-.41-.88.57-.28.99.62.41.88Z"/></g><g id="_øjenbryn-4"><path class="cls-10" d="m155.07,245.5s0,0,0,0c.04-.02-.05.02-.02,0,.07-.03.14-.05.21-.06.04,0,.01,0-.01,0,.29-.03.42.03.6.25-.03-.04,0,0,0,0,.05.08.1.16.13.24.15.2.08.92.35.9.09,0,.2-.09.19-.19-.05-.51-.18-1.11-.63-1.43-.3-.2-.7-.2-1.01-.05-.21.12-.02.44.19.32h0Z"/><path class="cls-10" d="m158.15,253.87c.08.05.16.12.26.24.01.02,0-.01,0-.01.09.12.13.21.16.35.01.07,0,.26-.07.38-.13.26-.36.47-.59.64-.08.06-.12.16-.07.25.05.08.17.13.25.07.41-.3.86-.73.85-1.29-.01-.4-.27-.74-.59-.95-.2-.13-.39.2-.19.32h0Z"/></g><g id="mund-4"><path class="cls-10" d="m150.38,250.56c-1.08.98-.4,2.1.85,2.4.23.07.33-.28.1-.36-.4-.12-.91-.35-1.08-.71-.05-.13-.06-.2-.04-.34,0,.02,0,.02,0,.02.01-.09.03-.15.06-.22.01-.03,0,0,0,0,.11-.23.21-.36.38-.53.18-.16-.08-.42-.26-.26h0Z"/></g><g id="kinder-4"><path class="cls-14" d="m149.01,247.34c-.72,1.63-2.1,1-1.35-.61.72-1.63,2.1-1,1.35.61Z"/><path class="cls-14" d="m151.32,255.61c1.34,1.18.33,2.31-.99,1.11-1.34-1.18-.33-2.31.99-1.11Z"/></g><g class="cls-9"><path class="cls-10" d="m142.3,244.84c-4.32-2.78-8.4-6.76-9.93-11.77-.03-.11-.21-.07-.18.05,1.31,4.66,5.1,8.4,8.94,11.15.35.25.71.5,1.08.73.1.06.2-.1.09-.16h0Z"/></g><g class="cls-9"><path class="cls-10" d="m132.09,241.17c2.54,12.15,17.54,22.93,29.17,15.4,3.58-2.42,5.95-6.2,7.52-10.16.04-.11-.14-.16-.18-.05-1.44,3.64-3.56,7.12-6.71,9.53-7.74,6.09-18.89,2.1-24.59-4.91-2.42-2.84-4.19-6.22-5.03-9.86-.03-.12-.21-.07-.18.05h0Z"/></g><g class="cls-9"><path class="cls-10" d="m158.94,245.54c2.33.09,4.87.43,7.06-.51.1-.06,0-.22-.09-.16-2.16.91-4.67.56-6.97.48-.12-.01-.12.18,0,.19h0Z"/></g><g class="cls-9"><path class="cls-10" d="m169.39,243.02c.78-.96,1.6-1.94,2.62-2.66.1-.07,0-.23-.09-.16-1.04.73-1.85,1.72-2.66,2.69-.07.09.06.22.13.13h0Z"/></g><g class="cls-9"><path class="cls-10" d="m173.11,241.52c-.11-.04-.41-.19-.53-.28-.05-.04-.09-.08-.11-.12-.06-.1-.22-.01-.16.09.16.26.49.37.75.49.05.02.1-.02.11-.06.01-.05-.02-.1-.06-.11h0Z"/></g></g><g id="banan-5"><path class="cls-7" d="m173.3,237.61l4.68,1.23c14.09,20.12,37.49-.61,27.52-22.27-.2-1.08-1.09-1.3-2.32-1.08,0,0-1.58,11.48-10.08,16.24-12.18,6.38-12.19,5.76-18.51,2.47-1.84.5-3.05,1.51-1.3,3.41Z"/><path class="cls-10" d="m204.19,217.44s-.76-.52-1-1.96c1.1-.18,1.86-.18,2.32,1.08,0,0-1,.9-1.32.88Z"/><g id="_øje-9"><path class="cls-10" d="m192.93,237.55c2.66.19,2.89-3.99.23-4.1-2.66-.19-2.89,3.99-.23,4.1Z"/><path class="cls-13" d="m193.88,236.61c.53.04.58-.8.05-.83-.53-.04-.58.8-.05.83Z"/><path class="cls-13" d="m192.7,235.72c.99.07,1.07-1.49.08-1.53-.99-.07-1.07,1.49-.08,1.53Z"/></g><g id="_øje-10"><path class="cls-10" d="m193.43,243.17c2.66.19,2.89-3.99.23-4.1-2.66-.19-2.89,3.99-.23,4.1Z"/><path class="cls-13" d="m193.2,241.34c.99.07,1.07-1.49.08-1.53-.99-.07-1.07,1.49-.08,1.53Z"/><path class="cls-13" d="m194.38,242.24c.53.04.58-.8.05-.83-.53-.04-.58.8-.05.83Z"/></g><g id="_øjenbryn-5"><path class="cls-10" d="m190.18,234.21c-.47-.03-.88.34-.92.81-.03.29.03.59.11.86.06.2.36.11.31-.08-.08-.25-.13-.61-.09-.79.01-.11.08-.24.11-.28.07-.08.1-.1.19-.15.02,0,.05-.01,0,0,.14-.05.17-.05.3-.05.2,0,.2-.32,0-.32h0Z"/><path class="cls-10" d="m190.14,241.95c-.28.39-.28.97.11,1.29.23.19.51.3.8.38.2.05.28-.25.08-.31-.36-.1-.71-.23-.85-.54,0,.02,0,.02,0,.01-.02-.04-.03-.08-.04-.12,0-.04,0,.03,0-.01,0-.06,0-.11,0-.17,0-.06.07-.26.16-.37.11-.17-.17-.34-.27-.16h0Z"/></g><g id="mund-5"><path class="cls-10" d="m195.38,237.32s.29.15.33.19c.05.04.15.14.17.16.37.46-.15.98-.51,1.28-.16.13.07.35.22.22.75-.55,1.1-1.54.1-2.05-.07-.04-.15-.08-.23-.11-.19-.07-.27.24-.08.31h0Z"/></g><g id="kinder-5"><path class="cls-14" d="m195.53,234.04c1.09,1.06,1.98.12.87-.92-1.09-1.06-1.98-.12-.87.92Z"/><path class="cls-14" d="m196.35,241.31c-.68,1.36.48,1.93,1.14.56.68-1.36-.48-1.93-1.14-.56Z"/></g><g class="cls-9"><path class="cls-10" d="m200.16,230.01c2.48-3.65,4.51-8.05,4.1-12.57-.01-.1-.17-.1-.16,0,.41,4.49-1.62,8.86-4.08,12.49-.06.08.08.16.14.08h0Z"/></g><g class="cls-9"><path class="cls-10" d="m206.77,223.79c1.83,10.26-6.36,23.39-17.79,21.34-3.63-.73-6.72-2.97-9.24-5.6-.07-.07-.18.04-.11.11,2.28,2.38,5.02,4.44,8.23,5.37,8.17,2.52,15.93-4.26,18.24-11.76,1.02-3.05,1.34-6.33.83-9.51-.02-.1-.17-.06-.15.04h0Z"/></g><g class="cls-9"><path class="cls-10" d="m187.04,235.65c-1.78.8-3.65,1.86-5.64,1.85-.1-.01-.14.14-.04.15,2.04.04,3.94-1.05,5.76-1.86.09-.05.01-.18-.08-.14h0Z"/></g><g class="cls-9"><path class="cls-10" d="m178.12,237.01c-.94-.51-1.91-1.04-2.96-1.28-.1-.02-.14.13-.04.15,1.04.23,1.99.76,2.92,1.26.09.05.17-.09.08-.14h0Z"/></g><g class="cls-9"><path class="cls-10" d="m174.74,237.27c.11-.12.62-.61.35-.71-.09.01-.07.08-.1.14-.01.03-.1.16-.11.18-.06.13-.33.25-.25.39.03.03.08.03.11,0h0Z"/></g></g><g id="banan-6"><path class="cls-2" d="m172.36,237.34l3.44,3.06c3.24,23.12,32.01,15.67,32.91-6.97.3-1-.37-1.57-1.5-1.91,0,0-6.3,9.03-15.55,9.39-13.07.14-12.81-.39-16.74-5.91-1.78-.37-3.24-.04-2.57,2.33Z"/><path class="cls-10" d="m207.22,233.61s-.42-.77,0-2.09c1.02.33,1.65.66,1.5,1.91,0,0-1.23.33-1.49.18Z"/><g id="_øje-11"><path class="cls-10" d="m189.01,245.77c2.17,1.3,4.17-2.13,1.96-3.37-2.17-1.3-4.17,2.13-1.96,3.37Z"/><path class="cls-13" d="m190.21,245.38c.44.26.84-.43.39-.68-.44-.26-.84.43-.39.68Z"/><path class="cls-13" d="m189.6,244.11c.81.49,1.55-.79.73-1.26-.81-.49-1.55.79-.73,1.26Z"/></g><g id="_øje-12"><path class="cls-10" d="m187,250.75c2.17,1.3,4.17-2.13,1.96-3.37-2.17-1.3-4.17,2.13-1.96,3.37Z"/><path class="cls-13" d="m187.59,249.1c.81.49,1.55-.79.73-1.26-.81-.49-1.55.79-.73,1.26Z"/><path class="cls-13" d="m188.21,250.36c.44.26.84-.43.39-.68-.44-.26-.84.43-.39.68Z"/></g><g id="_øjenbryn-6"><path class="cls-10" d="m188.13,241.76c-.74-.44-1.35.37-1.41,1.05-.05.19.24.27.29.08.03-.17.08-.33.14-.49.02-.06.11-.21.14-.24.16-.18.26-.23.48-.21.05,0,.16.04.21.07.17.1.32-.16.15-.26h0Z"/><path class="cls-10" d="m184.74,248.28c-.8.4-.58,1.34.04,1.8.14.13.36-.08.21-.21-.22-.2-.44-.42-.49-.73-.02-.1.03-.28.11-.37.05-.06.1-.11.16-.16,0,0-.02.02,0,0,.04-.03.07-.05.11-.07.17-.09.02-.35-.15-.26h0Z"/></g><g id="mund-6"><path class="cls-10" d="m191.17,246.63c.23.25.41.68.19.94-.21.26-.56.36-.89.44-.19.04-.11.33.08.29.46-.11,1.06-.32,1.19-.83.09-.38-.11-.77-.36-1.05-.13-.14-.34.07-.21.21h0Z"/></g><g id="kinder-6"><path class="cls-14" d="m192.72,243.92c.47,1.37,1.63.96,1.13-.4-.47-1.37-1.63-.96-1.13.4Z"/><path class="cls-14" d="m190.28,250.43c-1.16.86-.43,1.84.72.96,1.16-.86.43-1.84-.72-.96Z"/></g><g class="cls-9"><path class="cls-10" d="m198.38,242.51c3.71-1.95,7.32-4.91,8.91-8.88.03-.09-.11-.13-.15-.04-1.38,3.65-4.72,6.39-7.99,8.32-.28.16-.56.33-.85.47-.09.04-.01.17.08.13h0Z"/></g><g class="cls-9"><path class="cls-10" d="m206.67,240.09c-2.88,9.49-15.51,17.08-24.3,10.37-2.74-2.18-4.39-5.41-5.38-8.71-.03-.09-.17-.05-.14.04.9,3.02,2.34,5.96,4.68,8.13,5.85,5.64,15.32,3.23,20.5-2.12,2.17-2.14,3.85-4.77,4.8-7.67.03-.09-.12-.13-.14-.04h0Z"/></g><g class="cls-9"><path class="cls-10" d="m184.84,241.62c-1.86-.1-3.91,0-5.59-.88-.08-.06-.15.07-.08.13,1.7.9,3.78.81,5.67.9.1,0,.1-.15,0-.15h0Z"/></g><g class="cls-9"><path class="cls-10" d="m176.7,238.91c-.57-.84-1.17-1.7-1.95-2.36-.07-.06-.18.05-.11.11.78.65,1.36,1.5,1.93,2.33.05.08.18,0,.13-.08h0Z"/></g><g class="cls-9"><path class="cls-10" d="m173.72,237.68c.22-.08.49-.15.64-.35.05-.08-.08-.16-.13-.08,0,.01-.03.03-.05.06,0,0,0,0,0,0-.07.05-.19.11-.25.13-.08.03-.17.07-.25.09-.09.03-.05.17.04.14h0Z"/></g></g><g id="banan-7"><path class="cls-5" d="m170.91,238.24l2.87,4.49c-3.61,26.79,30.79,27.47,38.88,2.51.64-1.08.11-1.82-1.07-2.6,0,0-9.84,8.11-20.27,5.62-14.62-3.93-14.16-4.43-16.82-11.81-1.91-.96-3.56-1.1-3.6,1.79Z"/><path class="cls-10" d="m210.94,244.97s-.23-.99.65-2.33c1.05.72,1.63,1.18,1.07,2.6,0,0-1.48-.02-1.72-.27Z"/><g id="_øje-13"><path class="cls-10" d="m186.84,252.84c2.01,2.13,5.32-1.08,3.24-3.15-2.01-2.13-5.32,1.08-3.24,3.15Z"/><path class="cls-13" d="m188.31,252.79c.4.43,1.07-.22.65-.63-.4-.43-1.07.22-.65.63Z"/><path class="cls-13" d="m188.02,251.18c.75.79,1.98-.4,1.21-1.17-.75-.79-1.98.4-1.21,1.17Z"/></g><g id="_øje-14"><path class="cls-10" d="m183.05,257.77c2.01,2.13,5.32-1.08,3.24-3.15-2.01-2.13-5.32,1.08-3.24,3.15Z"/><path class="cls-13" d="m184.23,256.11c.75.79,1.98-.4,1.21-1.17-.75-.79-1.98.4-1.21,1.17Z"/><path class="cls-13" d="m184.52,257.72c.4.43,1.07-.22.65-.63-.4-.43-1.07.22-.65.63Z"/></g><g id="_øjenbryn-7"><path class="cls-10" d="m187.11,248.09c-.36-.38-.97-.39-1.34-.04-.24.21-.42.49-.56.78-.04.08-.02.19.06.24.08.05.2.02.24-.06.15-.31.4-.7.69-.82.11-.04.18-.05.3-.04,0,0-.03,0,0,0,.04,0,.08.02.11.03.02,0,.04.02,0,0,.12.06.17.09.25.16.15.16.4-.08.25-.25h0Z"/><path class="cls-10" d="m181.3,254.31c-.52.1-.95.57-.88,1.12.04.33.19.63.36.91.12.19.42.01.3-.18-.14-.21-.26-.44-.31-.7-.05-.21.03-.43.1-.51.02-.03.14-.14.12-.12.15-.1.22-.14.39-.18.22-.06.12-.39-.09-.34h0Z"/></g><g id="mund-7"><path class="cls-10" d="m188.99,254.48c.05.08.13.35.14.44.01.1.02.19,0,.29,0-.02,0-.04,0,0,0,.06-.03.12-.05.17.02-.05,0,0-.01.02s-.02.04-.03.06c-.01.02-.05.06-.02.03-.16.2-.35.26-.65.31-.17.08-.75-.12-.77.19,0,.1.08.17.17.17.54.03,1.28-.02,1.58-.56.22-.4.12-.89-.07-1.28-.1-.2-.4-.02-.3.18h0Z"/></g><g id="kinder-7"><path class="cls-14" d="m191.56,251.94c.1,1.67,1.51,1.58,1.39-.09-.1-1.67-1.51-1.58-1.39.09Z"/><path class="cls-14" d="m186.8,258.44c-1.57.59-1.05,1.92.5,1.3,1.57-.59,1.05-1.92-.5-1.3Z"/></g><g class="cls-9"><path class="cls-10" d="m198.31,252.13c4.74-1.1,9.68-3.15,12.71-7.12.07-.09-.08-.18-.15-.09-3,3.93-7.91,5.94-12.6,7.04-.11.02-.06.19.05.17h0Z"/></g><g class="cls-9"><path class="cls-10" d="m208.31,252.03c-6.17,9.68-22.64,14.2-30.34,3.97-2.37-3.29-3.21-7.4-3.28-11.39,0-.11-.18-.11-.17,0,.06,3.65.76,7.39,2.68,10.54,4.76,8.08,16.03,8.37,23.47,4.04,3.11-1.71,5.82-4.12,7.79-7.08.06-.09-.09-.18-.15-.09h0Z"/></g><g class="cls-9"><path class="cls-10" d="m183.49,246.91c-2.04-.69-4.36-1.22-5.96-2.73-.07-.09-.19.04-.12.12,1.59,1.57,3.98,2.06,6.03,2.77.11.03.15-.14.05-.17h0Z"/></g><g class="cls-9"><path class="cls-10" d="m175.26,241.36c-.39-1.11-.77-2.27-1.44-3.24-.06-.09-.22,0-.15.09.67.96,1.04,2.1,1.42,3.2.03.11.2.06.17-.05h0Z"/></g><g class="cls-9"><path class="cls-10" d="m172.33,239.05c.27-.02.6,0,.82-.19.08-.08-.04-.2-.12-.12,0,0-.02.02,0,0-.02.01-.04.02-.06.03,0,0,0,0,0,0-.1.04-.2.06-.31.07-.07,0-.22.02-.33.03-.11,0-.11.18,0,.17h0Z"/></g></g><g id="banan-8"><path class="cls-5" d="m169.76,239.05l.64,5.29c-14.88,22.56,15.81,38.12,33.93,19.14,1.05-.7.88-1.59.16-2.81,0,0-12.38,3.03-20.7-3.74-11.46-9.88-10.83-10.14-10.02-17.94-1.31-1.69-2.73-2.54-4.02.06Z"/><path class="cls-10" d="m202.89,262.49s.22-.99,1.6-1.82c.63,1.11.96,1.78-.16,2.81,0,0-1.32-.66-1.43-.99Z"/><g id="_øje-15"><path class="cls-10" d="m177.77,259.11c.89,2.8,5.26,1.34,4.29-1.43-.89-2.8-5.26-1.34-4.29,1.43Z"/><path class="cls-13" d="m179.11,259.7c.18.56,1.06.27.86-.29-.18-.56-1.06-.27-.86.29Z"/><path class="cls-13" d="m179.54,258.13c.33,1.04,1.96.5,1.6-.53-.33-1.04-1.96-.5-1.6.53Z"/></g><g id="_øje-16"><path class="cls-10" d="m172.21,261.9c.89,2.8,5.26,1.34,4.29-1.43-.89-2.8-5.26-1.34-4.29,1.43Z"/><path class="cls-13" d="m173.99,260.92c.33,1.04,1.96.5,1.6-.53-.33-1.04-1.96-.5-1.6.53Z"/><path class="cls-13" d="m173.55,262.49c.18.56,1.06.27.86-.29-.18-.56-1.06-.27-.86.29Z"/></g><g id="_øjenbryn-8"><path class="cls-10" d="m180.07,254.96c-.15-.5-.69-.78-1.19-.63-.31.08-.59.26-.84.45-.07.06-.11.15-.06.24.04.07.16.12.24.06.3-.23.66-.48,1.06-.44-.01,0-.02,0-.01,0,.05,0,.1.02.15.04.08.04.21.14.28.28.01.02.02.05.04.07,0,.02-.02-.05,0-.02.04.24.42.19.35-.06h0Z"/><path class="cls-10" d="m172.15,258.04c-.53-.14-1.13.1-1.3.64-.11.3-.1.63-.06.94.01.09.07.17.17.17.09,0,.19-.08.17-.17-.04-.33-.05-.6.07-.9,0,.02,0,.02,0,.02.02-.04.04-.08.06-.11,0-.02.07-.1.03-.04.03-.04.07-.08.12-.12-.04.03-.02.01,0,0,.15-.1.25-.12.4-.13.14,0,.15,0,.26.02.22.06.31-.28.09-.34h0Z"/></g><g id="mund-8"><path class="cls-10" d="m178.99,261.5c0,.07,0,.14-.01.21,0,.04,0,.01,0,0-.02.2-.12.45-.19.54-.13.15-.2.19-.4.23-.27.04-.73-.12-1.04-.3-.2-.11-.37.19-.18.3.89.56,2.04.52,2.16-.74,0-.08.02-.16.01-.24,0-.22-.36-.22-.35,0h0Z"/></g><g id="kinder-8"><path class="cls-14" d="m182.4,260.35c-.64,1.55.68,2.08,1.29.52.64-1.55-.68-2.08-1.29-.52Z"/><path class="cls-14" d="m175.3,264.14c-1.67-.15-1.78,1.27-.11,1.39,1.67.15,1.78-1.27.11-1.39Z"/></g><g class="cls-9"><path class="cls-10" d="m188.4,263.45c4.75,1.07,10.09,1.36,14.54-.89.1-.05.01-.2-.09-.15-4.41,2.23-9.7,1.93-14.41.87-.11-.03-.15.14-.05.17h0Z"/></g><g class="cls-9"><path class="cls-10" d="m197.46,267.7c-9.75,6.03-26.48,2.99-29.04-9.52-.74-4.01.3-8.11,1.97-11.75.05-.1-.1-.19-.15-.09-1.53,3.32-2.53,6.98-2.16,10.66.77,9.36,10.82,14.52,19.41,13.84,3.53-.19,7.01-1.19,10.06-2.99.1-.06,0-.21-.09-.15h0Z"/></g><g class="cls-9"><path class="cls-10" d="m177.33,252.32c-1.56-1.48-3.4-2.99-4.18-5.04-.03-.11-.19-.06-.17.05.22.92.95,1.74,1.56,2.44.83.95,1.73,1.84,2.67,2.69.08.07.21-.05.12-.12h0Z"/></g><g class="cls-9"><path class="cls-10" d="m172.32,243.75c.14-1.18.29-2.39.11-3.57-.02-.11-.19-.06-.17.05.18,1.15.02,2.33-.11,3.48-.02.11.15.16.17.05h0Z"/></g><g class="cls-9"><path class="cls-10" d="m170.67,240.38c.26.1.54.25.82.19.11-.03.06-.2-.05-.17-.04.01-.09,0-.14,0,.01,0,0,0,0,0-.19-.03-.4-.11-.55-.18-.1-.06-.19.1-.09.15h0Z"/></g></g></g><g id="blade"><path class="cls-11" d="m210.95,188.38l1.9-56.9s56.1-8.99,17.95-31.47c0,0,21.32-24.73,39.27-2.25,0,0,10.1-17.98-23.56-29.22,0,0,21.32-7.87,39.27,7.87,0,0,10.1-5.62-8.98-30.35,0,0,14.59-38.22,57.23-2.25,0,0-33.66-76.43-92.01-22.48-58.35,53.95-54.29,101.44-31.07,167.06Z"/><path class="cls-10" d="m211.45,188.38c.63-18.97,1.27-37.94,1.9-56.9l-.37.48c20.69-3.53,48.62-14.53,18.07-32.39l.1.79c11.32-12.26,27.02-17.15,38.57-2.25.2.25.64.16.79-.1,4.07-7.85-.58-16.95-7.23-21.71-4.93-3.79-10.78-6.28-16.64-8.25v.96c8.58-2.8,18.18-2.58,26.67.48,4.45,1.64,8.54,4.15,12.12,7.26.17.15.4.19.61.08,2.43-1.36,3.02-4.92,2.9-7.39-.77-8.74-6.28-16.25-11.3-23.11l-.2-.26-.15.12s.08-.2.1-.24c11.37-23.78,33.6-19.7,51.55-5.57,1.62,1.21,3.19,2.48,4.74,3.78.45.38,1.02-.08.79-.61-1.03-2.33-2.27-4.57-3.53-6.77-17.47-30.4-45.88-47.25-77.84-24.99-11.89,8.4-22.05,19.08-31.34,30.23-35.38,42.69-31.51,87.18-14.62,136.77,1.08,3.25,2.19,6.49,3.34,9.72.21.6,1.18.34.96-.27-4.41-12.47-8.46-25.1-11.43-38-13.47-55.45,3.94-94.79,45.79-131.61,36.16-31.46,68.82-13.18,87.81,25.41l.79-.61c-8.8-7.4-19.5-14.76-31.36-15.51-11.36-.93-21.6,6.71-26.17,16.77-.17.35-.39.74-.49,1.12-.11.43.14.65.42,1,4.34,5.84,8.75,12.04,10.61,19.17.84,3.25,1.11,7.75-1.86,9.97l.61.08c-10.65-9.5-26.27-12.38-39.76-8-.46.17-.48.8,0,.96,8.38,2.91,17.39,6.79,22.33,14.56,2.52,4.13,3.11,9.55.94,13.93l.79-.1c-10.64-13.67-25.2-11.5-37.04-.68-1.03.92-2.04,1.88-2.94,2.92-.21.24-.19.61.1.79,3.01,1.78,5.96,3.72,8.52,6.12,4.42,3.89,6.53,9.23,1.67,13.76-2.83,2.72-6.6,4.47-10.22,5.88-5.06,1.96-10.33,3.34-15.65,4.4-.7.13-1.46.21-2.15.39-.22.04-.36.28-.37.48-.21,6.42-.43,12.84-.64,19.27-.42,12.55-.84,25.09-1.26,37.64-.02.64.98.64,1,0Z"/><path class="cls-11" d="m211.03,184.4l13.5-23.5s14-3,19,4c0,0,13-7,10-21,0,0,19,11,19,16l18-1s5-8,5-19c0,0,18,3,26,28,0,0,12.51-7.24,9.25-25.62,0,0,16.75,16.62,15.75,26.62,0,0,25-6,16-28,0,0,25.65,20,26.33,43.5,33.7-115.36-179.87-106.84-177.83,0Z"/><path class="cls-10" d="m211.46,184.66c4.49-7.82,9.02-15.69,13.49-23.49.08.12-.45.13-.21.2.09.03.33-.06.42-.08,5.92-.85,13.83-1.39,17.93,3.87.16.22.43.32.68.18,7.51-4.05,12.3-13.13,10.23-21.56l-.73.56c5.7,3.47,11.55,6.99,16.32,11.7.96.98,2.4,2.38,2.43,3.87,0,.26.23.52.5.5,5.54-.31,11.08-.62,16.62-.92.44-.02.95.02,1.38-.08.53-.12.75-.78.98-1.22,2.92-5.62,4.49-11.94,4.52-18.28l-.63.48c8.03,1.82,14.71,7.65,19.29,14.3,2.78,4.1,4.84,8.64,6.36,13.35.1.31.45.47.73.3,8.51-5.49,11.39-16.63,9.48-26.18l-.84.49c5.88,6.22,16,17.34,15.6,26.27-.03.34.34.55.63.48,13.7-3.77,22.44-14.41,16.35-28.62l-.84.49c12.79,10.77,25.31,25.76,26.18,43.15.02.56.82.68.98.13,8.29-27.43,2.95-54.7-22.49-70.6-44.26-27.35-123.41-11.71-148.33,35.77-5.62,10.62-8.25,22.71-7.99,34.7.01.64,1.01.64,1,0-.97-29.23,16.71-53.96,41.84-67.51,55.52-31.84,159.07-16,135.01,67.38l.98.13c-.94-17.83-13.41-32.76-26.47-43.85-.34-.26-1.05-.04-.84.49,5.95,13.71-2.46,23.75-15.65,27.38l.63.48c.6-8.41-8.42-18.67-13.74-24.71-.7-.77-1.41-1.53-2.15-2.26-.38-.38-.92.02-.84.49,1.79,9.14-.9,19.75-9.02,25.05l.73.3c-3.95-12.61-12.93-25.1-26.35-28.35-.32-.05-.63.13-.63.48-.07,6.51-1.67,13.09-4.93,18.75l.43-.25c-6,.33-12,.67-18,1l.5.5c-.48-5.35-14.62-13.54-19.25-16.43-.4-.23-.82.15-.73.56,1.93,8.14-2.69,16.43-9.77,20.44l.68.18c-4.08-5.32-11.68-5.26-17.75-4.53-.59.08-1.7.05-2.12.55-4.51,7.8-8.98,15.67-13.49,23.48-.32.56.54,1.06.86.5Z"/><path class="cls-11" d="m207.53,187.9s-30.98-52.63-35.08-48.62c0,0,2.05,19.08-9.23,16.07,0,0,0-23.1-18.45-41.17l-3.08,15.06-12.3-20.08s-11.28,10.04-26.65,7.03c0,0,9.23-24.3,0-27.72,3.26,10.58-15.65,37.14-38.96,12.65,0,0,10.25-19.08,3.08-26.11,0,0-51.26-1-54.33-4.02,68.13-51.39,173.91-25.13,195,116.9Z"/><path class="cls-10" d="m207.96,187.65c-5.71-9.62-11.58-19.14-17.74-28.47-3.8-5.73-7.64-11.56-12.19-16.74-1.15-1.31-2.49-2.94-4.13-3.66-.49-.22-1.09-.34-1.57-.03-.54.34-.33.93-.3,1.47.4,5.67-.32,16.97-8.67,14.65l.37.48c-.69-15.48-7.56-30.67-18.6-41.53-.25-.25-.76-.16-.84.22-1.03,5.02-2.05,10.04-3.08,15.06l.91-.12c-3.59-5.87-7.19-11.73-10.78-17.6-.51-.83-1.01-1.66-1.52-2.48-.18-.29-.54-.32-.79-.1-7.19,5.86-17,8.71-26.17,6.9l.35.62c2.3-6.73,8.37-24.52-.35-28.33-.36-.14-.72.27-.62.62,1.34,5.47-1.66,11.12-5.11,15.2-10.32,11.41-23.71,7.2-33.01-3.03l.08.61c3.46-6.63,8.57-19.14,3.7-25.91-.73-1.24-1.83-.93-3.03-.99-12.56-.32-25.13-.72-37.67-1.65-2.94-.22-5.89-.48-8.81-.87-1.79-.27-4-.38-5.53-1.31l-.1.79c31.56-24.27,75.29-31.93,112.06-15.27,35.44,15.56,58.91,49.7,71.08,85.44,5.22,15.06,8.78,30.67,11.12,46.43.09.63,1.06.36.96-.27-5.13-34.24-16-68.59-37.42-96.23-20.23-26.65-52-44.93-85.83-45.28-23.99-.54-47.82,7.26-67.55,20.77-1.67,1.14-3.32,2.32-4.94,3.54-1.27,1.31,2.97,1.91,3.67,2.01,16.85,2.32,33.94,2.38,50.91,2.94-.44-.16.13.36.25.52,3.51,5.15,1.28,11.98-.5,17.38-.92,2.55-1.99,5.06-3.25,7.46-.11.2-.08.44.08.61,6.31,6.58,15.23,12.28,24.68,9.47,8.74-2.52,17.22-13.33,15.11-22.61l-.62.62c7.1,2.94,2.36,18.63.66,24.18-.32.98-.64,1.96-1,2.92-.09.24.1.57.35.62,9.56,1.81,19.66-1,27.14-7.16l-.79-.1c4.1,6.69,8.2,13.39,12.3,20.08.21.35.82.32.91-.12,1.03-5.02,2.05-10.04,3.08-15.06l-.84.22c10.82,10.68,17.66,25.58,18.31,40.82,0,.22.15.43.37.48,3.27.84,6.3-.11,8-3.12,2.16-4.02,2.16-8.96,1.86-13.36-.1-.1-.12.25-.12.25,0,.02.03-.07.13-.04,1.24.21,2.31,1.47,3.2,2.33,4.51,4.67,8.15,10.28,11.75,15.65,4.29,6.38,8.39,12.87,12.41,19.42,2.28,3.63,4.42,7.37,6.66,11.02.04.05.07.11.1.17.33.55,1.19.05.86-.5Z"/><path class="cls-11" d="m212.03,190.25c.33.41-33.38-22.41-62.56-18.24,8.34,7.17,27.92,29.34-6.25,28.14,0,0,2.06-9.73-14.6-18.41,0,0,18.25,15.44-14.32,28.91,0,0-11.72-28.21-29.44-27.17,0,0,13.55,6.25,6.25,23.97,0,0-11.7,14.74-30.34,3.2,0,0-4.97-9.45-3.99-20.4,0,0-10.48,24.49-35.49,28.66,0,0,7.29-19.62,0-20.23,0,0-13.55.43-18.76,10.85,15.2-84.09,150.67-111.23,209.5-19.28Z"/><path class="cls-10" d="m211.6,190.5l-.05-.38.48-.37c-12.52-7.94-28.26-15.04-43.6-17.71-6.31-1.08-12.74-1.4-19.1-.51-.37.05-.49.61-.22.84,15.26,13.49,21.33,28.7-5.9,27.28l.48.63c.75-8.93-7.78-15.22-14.83-18.98-.48-.25-1.06.4-.61.79,6.2,5.44,6.53,13.46.54,19.21-4.05,4.04-9.41,6.69-14.63,8.87l.62.35c-5.35-11.74-15.33-27.94-29.92-27.54-.45.02-.73.71-.25.93,8.83,4.58,9.76,14.83,6.13,23.21-1.99,2.48-4.83,4.31-7.69,5.67-7.2,3.22-15.51,1.67-21.93-2.57-2.92-6.17-4.38-13.13-3.83-19.96.04-.48-.74-.71-.93-.25-6.62,14.05-19.54,25.9-35.19,28.43l.62.62c1.5-4.38,6.99-20.23-.69-20.86-7.54.46-15.42,4.15-18.98,11.09l.91.39c7.13-41.3,45.1-68.82,84.85-74.83,17.03-2.73,34.63-1.93,51.33,2.4,27.32,6.94,51.7,23.99,68.06,46.89,1.51,2.09,2.95,4.22,4.34,6.38.35.54,1.21.04.86-.5-30.13-48.28-89.39-69.17-143.34-51.69-30.56,9.6-57.94,33.33-65.78,65.16-.5,1.96-.93,3.93-1.29,5.92-.09.52.64.93.91.39,3.33-6.52,10.56-9.92,17.61-10.56,5.75-.52,2.94,10.22,2.22,13.08-.55,2.18-1.2,4.36-1.98,6.47-.15.39.28.67.62.62,15.96-2.73,28.96-14.54,35.79-28.89l-.93-.25c-.55,7.04.97,14.26,4.03,20.59,9.68,6.87,22.88,6.34,30.95-2.8,1.47-2.45,2.04-5.65,2.41-8.47.76-6.52-2.53-13.6-8.57-16.52l-.25.93c14.18-.33,23.79,15.66,28.96,26.8.09.22.34.46.62.35,4.93-2.05,9.85-4.48,13.9-8.03,7.51-6.21,7.8-15.1.64-21.72l-.61.79c6.48,3.43,13.88,8.73,14.43,16.69.1.71-.42,1.7.42,1.79,28.11,1.35,22.66-14.85,6.61-28.99l-.22.84c21.66-2.59,42.84,6.77,61.1,17.55.32.2.91.73,1.32.71.37,0,.63-.43.43-.76-.35-.54-1.21-.04-.86.5Z"/><path class="cls-11" d="m203.25,174.01c56.73-37.36,211.65,51.38,117.53,138.4,0,0,14.28-42.84,4.39-39.54l-19.77,15.38s6.59-38.44-3.3-46.13c.43,16.99-7.15,37.52-26.37,17.09,0,0,2.21-34.66-5.48-36.86,0,0,4.39,20.87-19.77,20.87,0,0,5.49-18.67-2.2-38.44,0,0-12.08,14.28-16.48,12.08,0,0,1.1-15.38-10.98-28.56l-13.29,3.62c-6.66-11.33-13.69-2-4.29-17.9Z"/><path class="cls-10" d="m203.5,174.44c58.25-37.24,209.99,52.34,116.92,137.61l.84.49c1.43-4.77,13.96-41.97,4.24-40.28-.53.11-.84.37-1.25.69-1.93,1.5-3.86,3-5.79,4.51-4.47,3.48-8.94,6.95-13.41,10.43l.84.49c1.63-10.73,5.41-39.23-3.42-46.62-.32-.25-.87-.12-.85.35.53,18.73-8.08,35.82-25.52,16.73l.15.35c.29-7.12,1.73-34.85-5.85-37.34-.39-.11-.69.26-.62.62,2,13.28-6.5,20.52-19.29,20.24l.48.63c3.17-12.69,2.47-26.47-2.2-38.71-.12-.32-.57-.54-.84-.22-2.74,3.05-11.66,13.34-15.87,12l.25.43c.25-10.57-4.01-21.14-11.13-28.91-.12-.13-.32-.17-.49-.13-4.43,1.21-8.86,2.41-13.29,3.62l.56.23c-1.71-2.88-3.93-5.11-6.92-6.62-2.14-.9-2.21-1.51-1.33-3.54,1.08-2.52,2.58-4.89,3.97-7.24.33-.56-.54-1.06-.86-.5-1.32,2.24-2.71,4.49-3.79,6.86-.44.96-1.03,2.18-.77,3.27.62,1.84,3.14,2.13,4.51,3.31,1.82,1.28,3.21,3.06,4.34,4.96.11.19.35.29.56.23,4.43-1.21,8.86-2.41,13.29-3.62l-.49-.13c6.9,7.6,11.11,17.88,10.84,28.2-.01.16.1.36.25.43,4.84,1.97,13.98-8.77,17.08-12.16l-.84-.22c4.62,12.03,5.37,25.69,2.2,38.18-.09.31.16.63.48.63,6.49-.02,13.58-1.59,17.55-7.18,2.88-4.1,3.54-9.47,2.71-14.32l-.62.62c5.97,2.4,5.39,23.69,5.37,29.68-.03,2.23-.14,4.46-.25,6.68.01.13.04.22.11.33,1.31,1.57,2.97,2.93,4.53,4.27,17,13.86,23.36-7.62,22.73-21.67l-.85.35c8.49,7.28,4.73,35.12,3.17,45.65-.09.51.44.8.84.49,6.59-5.13,13.18-10.25,19.77-15.38-.34.21-.03.06.08.04,1.77-.53,2.33,1.47,2.46,2.85.27,2.32,0,4.73-.32,7.03-1.4,9.89-4.5,19.44-7.39,28.97-.02.06-.04.11-.06.17-.17.5.49.81.84.49,28.97-26.21,40.83-61.48,17.13-95.66-22.86-32.79-70.82-55.85-110.74-51.84-8.63,1-17.22,3.51-24.53,8.32-.54.35-.04,1.22.5.86Z"/></g></g></svg>