<?xml version="1.0" encoding="UTF-8"?><svg id="eksport" xmlns="http://www.w3.org/2000/svg" width="127" height="100" viewBox="0 0 127 100"><defs><style>.cls-1{opacity:.5;}.cls-2{fill:#5b4f41;}.cls-2,.cls-3,.cls-4,.cls-5,.cls-6{stroke-width:0px;}.cls-3{fill:#38322d;}.cls-4{fill:#fff;}.cls-5{fill:#f4e787;}.cls-6{fill:#f4e6ef;}</style></defs><g id="point"><g id="banan"><path class="cls-5" d="m68.19,3.54l2.73,13.34C127.49,63.1,58.33,124.75,1.04,88.03c0,0,.45-4,.45-4,0,0,32.46-2.67,47.14-25.79,19.78-33.22,18.04-33.33,9.78-51.58,0,0,2.22-5.34,3.56-5.78s5.78,1.33,6.23,2.67Z"/><path class="cls-3" d="m67.76,3.65c.91,4.41,1.79,8.83,2.71,13.24.11.43.65.72.98.99.75.63,1.49,1.27,2.22,1.93,11.14,9.8,19.81,24.3,17.52,39.6-3.3,22.35-25.53,37.04-46.86,39.03-15.05,1.59-30.4-2.6-43.05-10.79l.2.5c.19-1.37.31-2.75.46-4.12l-.44.44c17.24-2.11,35.1-9.22,45.78-23.47,3.58-5.13,6.51-10.74,9.64-16.15,3.36-6.32,7.29-12.82,7.77-20.12.2-6.59-3.38-12.44-5.89-18.31l.04.34c.48-1.13,1.3-2.89,2.08-4.12.37-.51.73-1.27,1.38-1.4.96-.11,2.08.33,2.94.69.87.41,2.03.86,2.52,1.71.2.53,1.06.3.86-.24-.36-.97-1.49-1.57-2.37-1.99-1.09-.52-2.28-.97-3.5-1.06-.96-.07-1.54.37-2.1,1.11-1.08,1.54-1.98,3.27-2.66,5.02-.11.38.27.92.43,1.27,2.09,4.79,4.8,9.59,5.32,14.86.46,7.86-4.08,15.13-7.64,21.84-1.7,3.07-3.47,6.1-5.25,9.12s-3.46,5.95-5.66,8.63c-9.32,11.32-23.45,17.54-37.56,20.42-1.95.39-3.91.72-5.89.93-.32,0-.7.09-.71.47-.16,1.26-.33,3.04-.43,3.88-.03.21.02.39.2.5,6.07,3.89,12.69,6.93,19.65,8.85,17.65,4.96,37.57,2.17,52.61-8.52,13.03-8.97,21.85-24.88,18.75-40.89-2.27-12.65-10.74-23.24-20.48-31.21-.85-3.53-1.61-8.13-2.47-12-.08-.41-.17-.82-.25-1.23-.11-.56-.97-.32-.86.24Z"/><path class="cls-3" d="m63.22,6.54s4.6-1.8,4.72-3.41c0,0-1.17-2.24-6.08-2.08,0,0-.93.47-3.11,5.68,0,0,1.29.64,4.47-.2Z"/><path class="cls-3" d="m6.82,87.14s-1.33-2.22-5.34-3.11c-.49,3.79-1.29,3.64,2.67,5.78,0,0,2.67-1.78,2.67-2.67Z"/><g id="_øje"><path class="cls-3" d="m65,58.65c-.03,7.55-11.52,7.55-11.55,0,.03-7.55,11.52-7.55,11.55,0Z"/><path class="cls-4" d="m62.22,61.17c.02,1.51-2.35,1.51-2.32,0-.02-1.51,2.35-1.51,2.32,0Z"/><path class="cls-4" d="m59.89,57.71c.04,2.79-4.34,2.79-4.3,0-.04-2.79,4.34-2.79,4.3,0Z"/></g><g id="_øje-2"><path class="cls-3" d="m80.72,60.92c-.03,7.55-11.52,7.55-11.55,0,.03-7.55,11.52-7.55,11.55,0Z"/><path class="cls-4" d="m75.62,59.98c.04,2.79-4.34,2.79-4.3,0-.04-2.79,4.34-2.79,4.3,0Z"/><path class="cls-4" d="m77.95,63.44c.02,1.51-2.35,1.51-2.32,0-.02-1.51,2.35-1.51,2.32,0Z"/></g><g id="_øjenbryn"><path class="cls-3" d="m56.94,50.44c0-.07,0-.15.01-.22,0-.1-.01.07,0,.04.03-.18.07-.37.15-.54-.02.06-.03.07,0-.01.04-.09.09-.17.14-.25.03-.05.09-.11.02-.03.07-.08.15-.17.23-.24.09-.08-.06.04.04-.03.07-.04.14-.09.21-.13.03-.01.16-.07.05-.03.3-.11.46-.14.7-.16.73-.04,1.42.15,2.13.4.23.08.49-.09.55-.31.07-.25-.08-.47-.31-.55-1.12-.39-2.55-.72-3.65-.07-.74.43-1.14,1.28-1.15,2.12.01.57.9.57.89,0h0Z"/><path class="cls-3" d="m78.22,52.26c.36-.21.47-.25.92-.35.07-.01.1-.01,0,0,.18-.02.36-.03.53,0,.09,0-.08-.02-.03,0,.12.04.25.05.37.1.09.03-.09-.05,0,0,.11.05.21.11.3.17.1.07-.04-.04.06.04.08.06.15.13.22.21.02.02.04.04.06.07.01.02.09.12.03.04.45.59.63,1.25.78,1.98.05.24.33.37.55.31.24-.07.36-.31.31-.55-.24-1.16-.73-2.55-1.91-3.07-.87-.38-1.85-.18-2.64.29-.48.31-.03,1.08.45.77h0Z"/></g><g id="mund"><path class="cls-3" d="m63.13,65.69c1.17,3.42,3.95,3.08,6.05.66.39-.42-.24-1.05-.63-.63-.74.77-1.7,1.72-2.86,1.61.09.01-.06-.01-.08-.02-.06-.01-.11-.03-.17-.05-.03,0-.13-.05-.05-.02-.38-.17-.55-.34-.83-.68-.18-.24-.49-.79-.58-1.12-.16-.55-1.02-.31-.86.24h0Z"/></g><g id="kinder"><path class="cls-6" d="m54.75,65.39c2.8,3.23.03,5.58-2.71,2.31-2.8-3.23-.03-5.58,2.71-2.31Z"/><path class="cls-6" d="m75.04,68.83c3.92-1.7,5.34,1.63,1.39,3.27-3.92,1.7-5.34-1.63-1.39-3.27Z"/></g><g class="cls-1"><path class="cls-3" d="m42.51,77.39c-9.99,6.03-22.54,11.07-34.38,9.73-.42-.05-.83-.12-1.24-.19-.28-.05-.4.38-.12.43,9.45,1.55,19.01-1.27,27.58-5.11,2.86-1.33,5.71-2.74,8.36-4.45.28-.13.08-.57-.19-.41h0Z"/></g><g class="cls-1"><path class="cls-3" d="m24.11,95.8c11.73,2.56,24.2.99,35.15-3.85,17.03-7.35,31.08-24.05,28.05-43.47-1.53-10.29-7.34-19.42-14.38-26.87-.2-.21-.51.11-.31.31,6.34,6.73,11.67,14.77,13.74,23.88,5.47,23.62-14.22,43.11-35.7,48.73-7.63,2.07-15.71,2.63-23.53,1.38-.97-.15-1.93-.34-2.89-.55-.28-.06-.4.37-.12.43h0Z"/></g><g class="cls-1"><path class="cls-3" d="m60.96,42.05c2.15-3.86,4.23-7.83,5.54-12.06.36-1.2.7-2.51.58-3.77-.03-.28-.47-.29-.44,0,.12,2.51-.97,4.91-1.86,7.2-1,2.39-2.16,4.71-3.4,6.98-.26.48-.52.96-.8,1.43-.14.25.24.47.38.22h0Z"/></g><g class="cls-1"><path class="cls-3" d="m66.16,16.77c-1.3-2.68-2.56-5.45-3.09-8.4-.04-.28-.47-.16-.43.12.46,2.73,1.66,5.28,2.79,7.79.11.24.23.48.35.72.13.26.51.03.38-.22h0Z"/></g><g class="cls-1"><path class="cls-3" d="m66.72,7.21c-.38.35-.88.74-1.29.93-.06.02-.12.05-.19.06-.03,0-.05,0,0,0-.31-.04-.37.44-.05.45.67-.06,1.19-.59,1.69-.99.14-.1.31-.28.15-.45-.09-.09-.23-.08-.31,0h0Z"/></g></g><g id="kryds"><path class="cls-2" d="m107.3,50.91c5.8,5.8,11.59,11.59,17.39,17.39.91.91,2.33-.5,1.41-1.41-5.8-5.8-11.59-11.59-17.39-17.39-.91-.91-2.33.5-1.41,1.41h0Z"/><path class="cls-2" d="m124.28,49.58c-5.8,5.8-11.59,11.59-17.39,17.39-.91.91.5,2.33,1.41,1.41,5.8-5.8,11.59-11.59,17.39-17.39.91-.91-.5-2.33-1.41-1.41h0Z"/></g></g></svg>