<?xml version="1.0" encoding="UTF-8"?><svg id="eksport" xmlns="http://www.w3.org/2000/svg" width="250" height="174" viewBox="0 0 250 174"><defs><style>.cls-1{opacity:.5;}.cls-2{fill:#5b4f41;}.cls-2,.cls-3,.cls-4,.cls-5,.cls-6,.cls-7,.cls-8{stroke-width:0px;}.cls-3{fill:#38322d;}.cls-4{fill:#fff;}.cls-5{fill:#f4e787;}.cls-6{fill:#fcfcfc;}.cls-7{fill:#e9eff4;}.cls-8{fill:#f4e6ef;}</style></defs><g id="point"><g id="banan"><path class="cls-5" d="m68.19,3.54l2.73,13.34C127.49,63.1,58.33,124.75,1.04,88.03c0,0,.45-4,.45-4,0,0,32.46-2.67,47.14-25.79,19.78-33.22,18.04-33.33,9.78-51.58,0,0,2.22-5.34,3.56-5.78s5.78,1.33,6.23,2.67Z"/><path class="cls-3" d="m67.76,3.65c.91,4.41,1.79,8.83,2.71,13.24.11.43.65.72.98.99.75.63,1.49,1.27,2.22,1.93,11.14,9.8,19.81,24.3,17.52,39.6-3.3,22.35-25.53,37.04-46.86,39.03-15.05,1.59-30.4-2.6-43.05-10.79l.2.5c.19-1.37.31-2.75.46-4.12l-.44.44c17.24-2.11,35.1-9.22,45.78-23.47,3.58-5.13,6.51-10.74,9.64-16.15,3.36-6.32,7.29-12.82,7.77-20.12.2-6.59-3.38-12.44-5.89-18.31l.04.34c.48-1.13,1.3-2.89,2.08-4.12.37-.51.73-1.27,1.38-1.4.96-.11,2.08.33,2.94.69.87.41,2.03.86,2.52,1.71.2.53,1.06.3.86-.24-.36-.97-1.49-1.57-2.37-1.99-1.09-.52-2.28-.97-3.5-1.06-.96-.07-1.54.37-2.1,1.11-1.08,1.54-1.98,3.27-2.66,5.02-.11.38.27.92.43,1.27,2.09,4.79,4.8,9.59,5.32,14.86.46,7.86-4.08,15.13-7.64,21.84-1.7,3.07-3.47,6.1-5.25,9.12s-3.46,5.95-5.66,8.63c-9.32,11.32-23.45,17.54-37.56,20.42-1.95.39-3.91.72-5.89.93-.32,0-.7.09-.71.47-.16,1.26-.33,3.04-.43,3.88-.03.21.02.39.2.5,6.07,3.89,12.69,6.93,19.65,8.85,17.65,4.96,37.57,2.17,52.61-8.52,13.03-8.97,21.85-24.88,18.75-40.89-2.27-12.65-10.74-23.24-20.48-31.21-.85-3.53-1.61-8.13-2.47-12-.08-.41-.17-.82-.25-1.23-.11-.56-.97-.32-.86.24Z"/><path class="cls-3" d="m63.22,6.54s4.6-1.8,4.72-3.41c0,0-1.17-2.24-6.08-2.08,0,0-.93.47-3.11,5.68,0,0,1.29.64,4.47-.2Z"/><path class="cls-3" d="m6.82,87.14s-1.33-2.22-5.34-3.11c-.49,3.79-1.29,3.64,2.67,5.78,0,0,2.67-1.78,2.67-2.67Z"/><g id="_øje"><path class="cls-3" d="m65,58.65c-.03,7.55-11.52,7.55-11.55,0,.03-7.55,11.52-7.55,11.55,0Z"/><path class="cls-4" d="m62.22,61.17c.02,1.51-2.35,1.51-2.32,0-.02-1.51,2.35-1.51,2.32,0Z"/><path class="cls-4" d="m59.89,57.71c.04,2.79-4.34,2.79-4.3,0-.04-2.79,4.34-2.79,4.3,0Z"/></g><g id="_øje-2"><path class="cls-3" d="m80.72,60.92c-.03,7.55-11.52,7.55-11.55,0,.03-7.55,11.52-7.55,11.55,0Z"/><path class="cls-4" d="m75.62,59.98c.04,2.79-4.34,2.79-4.3,0-.04-2.79,4.34-2.79,4.3,0Z"/><path class="cls-4" d="m77.95,63.44c.02,1.51-2.35,1.51-2.32,0-.02-1.51,2.35-1.51,2.32,0Z"/></g><g id="_øjenbryn"><path class="cls-3" d="m56.94,50.44c0-.07,0-.15.01-.22,0-.1-.01.07,0,.04.03-.18.07-.37.15-.54-.02.06-.03.07,0-.01.04-.09.09-.17.14-.25.03-.05.09-.11.02-.03.07-.08.15-.17.23-.24.09-.08-.06.04.04-.03.07-.04.14-.09.21-.13.03-.01.16-.07.05-.03.3-.11.46-.14.7-.16.73-.04,1.42.15,2.13.4.23.08.49-.09.55-.31.07-.25-.08-.47-.31-.55-1.12-.39-2.55-.72-3.65-.07-.74.43-1.14,1.28-1.15,2.12.01.57.9.57.89,0h0Z"/><path class="cls-3" d="m78.22,52.26c.36-.21.47-.25.92-.35.07-.01.1-.01,0,0,.18-.02.36-.03.53,0,.09,0-.08-.02-.03,0,.12.04.25.05.37.1.09.03-.09-.05,0,0,.11.05.21.11.3.17.1.07-.04-.04.06.04.08.06.15.13.22.21.02.02.04.04.06.07.01.02.09.12.03.04.45.59.63,1.25.78,1.98.05.24.33.37.55.31.24-.07.36-.31.31-.55-.24-1.16-.73-2.55-1.91-3.07-.87-.38-1.85-.18-2.64.29-.48.31-.03,1.08.45.77h0Z"/></g><g id="mund"><path class="cls-3" d="m63.13,65.69c1.17,3.42,3.95,3.08,6.05.66.39-.42-.24-1.05-.63-.63-.74.77-1.7,1.72-2.86,1.61.09.01-.06-.01-.08-.02-.06-.01-.11-.03-.17-.05-.03,0-.13-.05-.05-.02-.38-.17-.55-.34-.83-.68-.18-.24-.49-.79-.58-1.12-.16-.55-1.02-.31-.86.24h0Z"/></g><g id="kinder"><path class="cls-8" d="m54.75,65.39c2.8,3.23.03,5.58-2.71,2.31-2.8-3.23-.03-5.58,2.71-2.31Z"/><path class="cls-8" d="m75.04,68.83c3.92-1.7,5.34,1.63,1.39,3.27-3.92,1.7-5.34-1.63-1.39-3.27Z"/></g><g class="cls-1"><path class="cls-3" d="m42.51,77.39c-9.99,6.03-22.54,11.07-34.38,9.73-.42-.05-.83-.12-1.24-.19-.28-.05-.4.38-.12.43,9.45,1.55,19.01-1.27,27.58-5.11,2.86-1.33,5.71-2.74,8.36-4.45.28-.13.08-.57-.19-.41h0Z"/></g><g class="cls-1"><path class="cls-3" d="m24.11,95.8c11.73,2.56,24.2.99,35.15-3.85,17.03-7.35,31.08-24.05,28.05-43.47-1.53-10.29-7.34-19.42-14.38-26.87-.2-.21-.51.11-.31.31,6.34,6.73,11.67,14.77,13.74,23.88,5.47,23.62-14.22,43.11-35.7,48.73-7.63,2.07-15.71,2.63-23.53,1.38-.97-.15-1.93-.34-2.89-.55-.28-.06-.4.37-.12.43h0Z"/></g><g class="cls-1"><path class="cls-3" d="m60.96,42.05c2.15-3.86,4.23-7.83,5.54-12.06.36-1.2.7-2.51.58-3.77-.03-.28-.47-.29-.44,0,.12,2.51-.97,4.91-1.86,7.2-1,2.39-2.16,4.71-3.4,6.98-.26.48-.52.96-.8,1.43-.14.25.24.47.38.22h0Z"/></g><g class="cls-1"><path class="cls-3" d="m66.16,16.77c-1.3-2.68-2.56-5.45-3.09-8.4-.04-.28-.47-.16-.43.12.46,2.73,1.66,5.28,2.79,7.79.11.24.23.48.35.72.13.26.51.03.38-.22h0Z"/></g><g class="cls-1"><path class="cls-3" d="m66.72,7.21c-.38.35-.88.74-1.29.93-.06.02-.12.05-.19.06-.03,0-.05,0,0,0-.31-.04-.37.44-.05.45.67-.06,1.19-.59,1.69-.99.14-.1.31-.28.15-.45-.09-.09-.23-.08-.31,0h0Z"/></g></g><g id="kryds"><path class="cls-2" d="m107.3,50.91c5.8,5.8,11.59,11.59,17.39,17.39.91.91,2.33-.5,1.41-1.41-5.8-5.8-11.59-11.59-17.39-17.39-.91-.91-2.33.5-1.41,1.41h0Z"/><path class="cls-2" d="m124.28,49.58c-5.8,5.8-11.59,11.59-17.39,17.39-.91.91.5,2.33,1.41,1.41,5.8-5.8,11.59-11.59,17.39-17.39.91-.91-.5-2.33-1.41-1.41h0Z"/></g></g><g id="glas"><g id="fod"><g class="cls-1"><path class="cls-7" d="m212.8,142.95s-3.41,18.69.4,19.25c3.82.56,16.32,2.31,13.37,4.94-2.95,2.64-25.43,4.19-38.2,1.03,0,0-9.69-1.94,13.64-6.24,0,0,2.13.35-.14-19.03"/></g><path class="cls-3" d="m206.15,170.27c-6.28,0-12.82-.51-17.85-1.76-.37-.07-2.27-.51-2.26-1.58,0-1.03,1.67-2.71,15.92-5.34h0c.18-.17,1.52-2.05-.42-18.65l.69-.08c1.2,11.3,1.74,18.64-.18,19.42-15.23,2.91-17.53,4.71-13.61,5.55,12.03,2.94,36.89,2.1,38.21-1.58-.36-1.19-4.79-2.42-13.16-3.65-4.99-.18-.87-19.89-1.04-19.71l.69.13c.11.05-3.37,17.31.11,18.85,6.29.9,13.56,2.21,14.07,4.19.71,3.28-12.08,4.11-21.18,4.22Z"/><g class="cls-1"><path class="cls-3" d="m221.51,165.18c.88.24,1.86.42,2.61.98.04.04.06.05.08.1,0,0,0,.03,0,.02-.44.41-1.17.43-1.73.56-2.5.44-5.03.62-7.55.79-.22.01-.23.36,0,.35,1.92-.11,3.83-.27,5.74-.51,1.13-.17,2.31-.27,3.39-.66,1.81-.93-1.75-1.8-2.44-1.96-.22-.05-.31.29-.09.34h0Z"/></g><g class="cls-1"><path class="cls-3" d="m186.04,164.93c-1.09.18-2.11,1.74-1.89,2.82.45,1.79,2.6,2.31,4.17,2.67.22.05.31-.29.09-.34-.97-.21-1.98-.48-2.83-1.01-1.67-.96-1.3-2.75.17-3.68.11-.06.15-.08.25-.1.05-.01-.02,0,.04,0,.22,0,.23-.35,0-.35h0Z"/></g><g class="cls-1"><path class="cls-3" d="m228.38,168.11c-1.07,1.57-3.56,2.23-5.47,2.67-.22.05-.13.38.09.34,1.92-.46,4.62-1.13,5.71-2.92.08-.21-.25-.3-.34-.09h0Z"/></g></g><g id="glas_fill_" class="cls-1"><path class="cls-7" d="m228.54,40.82c0-7.69-26.5-8.22-26.5-8.22,0,0-25.2-.52-29.39,9.27,0,0,28.65,9.08,55.9-1.05"/></g><g id="glas_stroke_"><path class="cls-3" d="m200.18,45.93c-15.61,0-27.46-3.67-27.64-3.73l-.37-.12c2.78-8.69,23.49-10.03,29.87-9.83.07,0,6.73.15,13.3,1.23,9.13,1.56,13.65,3.89,13.54,7.58-9.77,3.67-19.87,4.87-28.71,4.87Zm-27.05-4.28c3.47,1.01,29.99,8.15,55.05-1.07-.29-3.57-7.16-5.45-12.94-6.41-6.53-1.08-13.14-1.22-13.21-1.22-.25,0-24.39-.39-28.9,8.7Z"/><path class="cls-3" d="m200.18,45.75c-9.42-.06-18.91-1.19-27.96-3.84l.1.26c3.46-9.09,23.66-10.03,32.08-9.65,5.26.35,24.56,1.46,24.31,8.54l.13-.17c-9.14,3.42-18.93,4.87-28.66,4.86-.22,0-.23.35,0,.35,9.76,0,19.59-1.44,28.76-4.87.07-.03.13-.09.13-.17,0-.59-.06-1.16-.3-1.71-1.85-4.04-9.47-5.33-13.49-6.06-11.22-1.74-22.97-1.86-33.9,1.5-3.72,1.23-7.87,3.3-9.36,7.2-.05.11-.01.22.1.26,5.9,1.76,12.01,2.76,18.13,3.37,3.3.32,6.62.48,9.93.48.22,0,.23-.35,0-.35Z"/><path class="cls-3" d="m173.09,41.81c8.11,2.25,16.53,3.35,24.93,3.57,10.23.22,20.58-1.1,30.21-4.64.07-.02.14-.09.13-.17-.2-2.23-2.56-3.51-4.4-4.29-5.99-2.4-12.56-2.91-18.94-3.38-5.38-.35-10.8.04-16.12.85-5.19.91-12.03,2.38-15.34,6.81-.22.31-.42.64-.59.99-.1.2.2.38.3.18.73-1.45,1.92-2.59,3.25-3.49,5-3.18,11.08-4.06,16.87-4.71,6.37-.94,33.21-.38,34.6,7.05l.13-.17c-17.46,6.29-36.88,5.79-54.68,1.15-.09-.03-.19-.05-.28-.08-.22-.06-.31.27-.09.34Z"/></g><g id="sugerør"><path class="cls-6" d="m194.83,60.9s-14.85-50.13-18.17-51.7c0,0-1.92-1.92-17.12-1.05,0,0-2.45-3.87,0-6.65,0,0,16.07-.34,20.26,1.76,0,0,6.03-1.75,21.88,57.64l18.12,76.68s-3.49,2.79-6.64,1.75l-18.34-78.43Z"/><path class="cls-3" d="m195.17,60.81c-5.2-16.62-9.77-33.55-16.68-49.56-.41-.78-.92-1.88-1.59-2.31-3.64-2.01-13-1.3-17.35-1.14l.3.17c-.65-1.09-1.05-2.36-1.04-3.63.02-.84.34-1.41.65-2.15.13-.33.02-.25.21-.34,4.75-.06,9.56,0,14.3.5,1.73.19,3.56.39,5.2,1.01.26.1.48.19.74.24.04,0-.13,0-.05,0,.13.02-.08-.04.11.02.33.12.48.26.75.51,1.06,1.01,1.84,2.31,2.6,3.63,7.3,14.03,11.25,29.54,15.69,44.65,7.41,28.27,13.56,56.87,20.46,85.27l.09-.34c-1.63,1.29-4.15,2.32-6.3,1.66l.24.24c-6.12-26.14-12.22-52.29-18.34-78.43-.1-.44-.78-.25-.67.19,6.11,26.13,12.22,52.27,18.33,78.39.22.51,1.22.51,1.7.53,2.01.03,3.95-.89,5.53-2.08.1-.08.12-.23.09-.34-2.15-9.12-4.31-18.24-6.46-27.35-8.56-34.05-14.36-69.32-29.05-101.43-.89-1.66-2.78-5.53-4.81-5.8-.4-.03.29.11.09.02-4.58-1.74-9.73-1.59-14.56-1.76-1.92-.03-3.85-.06-5.77-.01-.76.13-1.22,1.53-1.36,2.2-.36,1.66.13,3.55,1.02,4.98.06.1.18.18.3.17,4.35-.25,8.77-.44,13.11.05,1.34.17,3.09.3,4.04,1.11,1.45,1.9,2.23,4.31,3.16,6.51,5.61,14.69,10.06,29.8,14.65,44.83.13.43.8.25.67-.19Z"/><path class="cls-3" d="m174.74,8.35c-.02-.23-.34-5.53,2.35-6.3l.19.67c-1.78.51-1.94,4.2-1.84,5.58l-.7.05Z"/><path class="cls-3" d="m177.57,9.95l-.76-.1c.03-.25.86-6.16,3.83-6.45l.07.76c-1.97.19-2.94,4.24-3.15,5.79Z"/><path class="cls-3" d="m178.17,11.09l-.59-.37c.11-.18,2.85-4.49,5.55-4.49v.7c-2.32,0-4.94,4.12-4.96,4.16Z"/><path class="cls-3" d="m179.21,13.08l-.55-.43c.13-.17,3.26-4.18,5.94-3.62l-.14.68c-2.25-.47-5.21,3.33-5.24,3.37Z"/></g><g id="banan-2"><path class="cls-5" d="m219.38,42.7s-6.6-13.54,8.25-19.81c0,0,20.14-5.28,20.8,15.85,0,0-.99,17.83-22.12,10.57,0,0-5.94-3.3-6.93-6.6Z"/><path class="cls-3" d="m235.41,51.39c-2.72,0-5.8-.59-9.21-1.76l-.06-.03c-.25-.14-6.05-3.39-7.09-6.78-2.99-6.52-2.12-16.04,8.45-20.26l.05-.02c8.64-2.11,21,.43,21.24,16.18-.27,4.7-3.75,12.83-13.37,12.67Zm-8.96-2.41c12.98,4.7,20.62-.75,21.63-10.27-.24-15.14-11.91-17.44-20.34-15.5-10.37,4.17-10.76,13.28-8.05,19.33l.02.05c.91,3.02,6.32,6.14,6.74,6.38Z"/><path class="cls-5" d="m232.25,29.85s-1.58,3.32.81,6.46c0,0-2.09-2.68-6.12-2.12,0,0,2.04,2.79,5.99,2.39,0,0-3.63.63-4.99,4.3,0,0,3.51-.35,5.18-3.99,0,0-1.34,3.46,1.13,6.33,0,0,1.53-2.88-.75-6.39,0,0,2.08,2.6,6.05,2.05,0,0-2.01-2.81-6-2.4,0,0,3.69-.63,5-4.29,0,0-3.34.16-5.24,4.06,0,0,1.44-3.27-1.07-6.4Z"/><path class="cls-3" d="m234.27,43.34c-1.86-2.07-1.67-4.68-1.39-5.82-1.76,3.08-4.89,3.42-4.92,3.43h-.11c.94-2.72,3.33-3.91,4.45-4.26-3.36.11-5.44-2.44-5.41-2.46,0,0-.07-.09-.07-.09,2.84-.46,4.93.83,5.77,1.6-1.78-2.95-.42-5.89-.4-5.92l.05-.1c1.85,2.21,1.66,4.74,1.37,5.86,1.92-3.27,4.92-3.46,4.95-3.46h.1c-.91,2.71-3.31,3.9-4.44,4.25,3.37-.12,5.45,2.45,5.4,2.47,0,0,.07.09.07.09-2.93.47-5.05-.92-5.82-1.65,1.84,3.28.47,5.94.46,5.97l-.05.09Zm-1.21-6.48l.13.05s-1.27,3.4,1.05,6.18c.23-.52,1.21-3.14-.79-6.23l.11-.08s2.06,2.51,5.87,2.04c-.39-.48-2.37-2.64-5.87-2.28l-.02-.13s3.6-.66,4.91-4.14c-.58.07-3.41.58-5.07,4.01l-.12-.06s1.36-3.2-.99-6.24c-.23.58-1.25,3.53.85,6.29l-.11.08s-2.07-2.59-5.93-2.11c.4.48,2.4,2.62,5.86,2.27l.02.13s-3.53.66-4.9,4.15c.61-.1,3.54-.74,5.01-3.93Z"/><g id="ansigt"><g id="_øje-3"><path class="cls-3" d="m233.1,33.98c-2.13,4.39-8.81,1.18-6.72-3.22,2.13-4.39,8.81-1.18,6.72,3.22Z"/><path class="cls-4" d="m230.78,34.67c-.41.88-1.79.22-1.35-.65.41-.88,1.79-.22,1.35.65Z"/><path class="cls-4" d="m230.39,32.01c-.75,1.63-3.3.41-2.5-1.2.75-1.63,3.3-.41,2.5,1.2Z"/></g><g id="_øje-4"><path class="cls-3" d="m241.62,39.68c-2.13,4.39-8.81,1.18-6.72-3.22,2.13-4.39,8.81-1.18,6.72,3.22Z"/><path class="cls-4" d="m238.91,37.71c-.75,1.63-3.3.41-2.5-1.2.75-1.63,3.3-.41,2.5,1.2Z"/><path class="cls-4" d="m239.3,40.38c-.41.88-1.79.22-1.35-.65.41-.88,1.79-.22,1.35.65Z"/></g><g id="_øjenbryn-2"><path class="cls-3" d="m230.69,26.98c.09-.19.25-.35.34-.43.05-.04.11-.07.17-.1.03-.02.06-.03.01,0,.19-.07.3-.09.51-.07.47.06,1.05.5,1.44.9.26.26.67-.15.41-.41-.84-.92-2.32-1.66-3.23-.4-.14.17-.28.47-.03.62.12.07.33.04.39-.1h0Z"/><path class="cls-3" d="m242.63,33.93c-.16.02-.05,0-.01,0,.3-.01.45,0,.75.11-.07-.02-.05-.02-.03-.01.08.04.17.08.24.14.05.03-.05-.05,0,0,.06.05.12.11.18.18-.02-.03-.03-.03-.02-.02.06.07.1.15.14.22.03.05-.01-.04.01.03.03.09.06.18.08.28,0,.01.02.11,0,.04.05.42,0,.81-.11,1.23-.09.36.46.51.55.15.4-1.32.07-2.88-1.56-2.92-.12,0-.24,0-.36.02-.36.11-.22.63.15.55h0Z"/></g><g id="mund-2"><path class="cls-3" d="m230.05,37.53c-.32,2.28,1.44,2.94,3.31,2.1.36-.12.21-.65-.15-.55-.66.26-1.38.47-1.97.23.07.03-.02-.01-.04-.02-.03-.02-.07-.04-.1-.06-.02-.01-.1-.07-.03-.02-.18-.16-.21-.21-.33-.43,0-.02-.02-.05,0,.02-.17-.47-.16-.73-.13-1.17,0-.04-.01.1,0,.05.08-.37-.45-.51-.55-.15h0Z"/></g><g id="kinder-2"><path class="cls-8" d="m225.26,35.05c.73,2.66-1.54,3.26-2.22.59-.73-2.66,1.54-3.26,2.22-.59Z"/><path class="cls-8" d="m236.11,42.7c2.76.1,2.65,2.44-.1,2.29-2.76-.1-2.65-2.44.1-2.29Z"/></g></g><path class="cls-3" d="m235.03,49.28c-2.34,0-4.99-.51-7.94-1.52-.23-.12-5.22-2.92-6.09-5.8-.1-.21-2.4-5.16-.57-10.05,1.18-3.16,3.81-5.61,7.79-7.3.09-.02,7.82-1.99,13.15,1.99,3.19,2.38,4.89,6.38,5.06,11.87,0,.07-.38,5.96-4.89,8.99-1.79,1.2-3.97,1.81-6.52,1.81Zm-2.21-25c-2.57,0-4.49.49-4.53.5-3.93,1.66-6.52,4.08-7.69,7.19-1.84,4.9.54,9.87.56,9.92h0c.84,2.82,5.94,5.68,5.99,5.71,6.1,2.09,10.91,2.01,14.3-.27,4.44-2.99,4.82-8.79,4.82-8.85-.17-5.43-1.85-9.38-4.99-11.73-2.64-1.97-5.88-2.46-8.46-2.46Z"/></g><g id="glas_fill_-2" class="cls-1"><path class="cls-7" d="m172.65,42.21s12.4,28.12,9.96,45.94c0,0,.35,9.08-3.49,31.44-6.22,30.34,63.15,32.45,50.31-.7,0,0-6.99-28.65-6.29-32.49,0,0-1.22-27.77,5.07-45.59,0,0-22.71,9.78-55.55,1.4Z"/></g><g id="glas_stroke_-2"><path class="cls-3" d="m206.68,143.37c-12.01-.27-31.22-6.17-27.91-23.83,3.79-22.1,3.49-31.24,3.49-31.4,2.12-10.82-4.85-34.8-10.22-46.44,31.47,8.54,57.24-1.49,56.75-1.52-6.41,17.14-5.36,46-5.31,46.25-.71,3.74,6.21,32.07,6.28,32.38,6.97,19.61-11.31,24.66-23.08,24.56Zm-23.72-55.2c.02.62.19,10-3.5,31.48-5.84,30.33,62.66,31.27,49.63-.64-.29-1.2-6.96-28.61-6.31-32.63-.05-1.17-1.02-27.57,4.84-44.97-4.09,1.53-25.35,8.53-54.37,1.31,5.77,12.96,11.66,35.5,9.71,45.45Z"/><path class="cls-3" d="m206.68,143.2c-10.61-.31-25.36-4.48-27.75-16.4-.56-2.83-.26-5.61.21-8.42,1.57-9.9,3.22-19.87,3.3-29.92,1.44-16.16-4.19-32.1-10.25-46.85l-.2.26c18.55,4.69,38.7,5.04,56.85-1.52l-.21-.21c-5.2,15.18-5.5,31.5-5.36,47.38.11,3,.78,6.01,1.35,8.95,1.38,7.04,2.99,14.03,4.64,21.01,1.04,3.78,2.29,7.55,1.69,11.54-1.34,10.46-13.35,13.84-22.39,14.14-.63.03-1.25.04-1.88.04-.22,0-.23.35,0,.35,13.85-.02,28.4-5.9,23.97-22.4-.95-2.99-1.61-6.06-2.31-9.12-1.67-7.47-3.49-14.92-4.54-22.51-.34-4.71-.24-9.44-.15-14.16.42-11.84,1.34-23.89,5.32-35.13.04-.12-.09-.27-.21-.21-18.05,6.55-38.2,6.22-56.66,1.52-.16-.04-.26.12-.2.26,5.91,14.65,11.64,30.43,10.2,46.46-.17,9.3-1.42,18.54-2.89,27.71-1.03,5.43-1.75,10.66,1.17,15.7,5.04,8.32,15.68,11.08,24.8,11.85.51.03,1.02.04,1.53.04.22,0,.23-.35,0-.35Z"/><path class="cls-3" d="m182.78,88.17c-.04,9.6-1.56,19.15-3.02,28.62-.42,2.54-.93,5.05-.78,7.63.84,23.99,58.31,25.86,51.18-2.27-2.08-7.39-3.67-14.92-5.26-22.43-.83-4.43-1.97-8.87-1.95-13.39-.23-15.03.26-30.43,4.84-44.87.04-.12-.09-.26-.21-.21-17.38,6-36.56,5.63-54.28,1.31-.16-.04-.25.12-.2.26,5.03,12.36,9.33,25.38,9.97,38.81.07,2.17.01,4.35-.28,6.51-.03.22.31.31.34.09,1.61-14.88-4.22-31.88-9.72-45.58l-.2.26c17.79,4.34,37.02,4.7,54.46-1.31l-.21-.21c-4.79,14.91-5.04,30.86-4.87,46.38,1.11,10.27,3.84,20.31,6.11,30.37,6.71,18.32-7.61,24.71-23.55,24.33-11.08-.85-25.78-5.59-25.84-18.9-.03-2.71.59-5.39,1.02-8.06,1.37-9.04,2.77-18.15,2.81-27.32,0-.22-.36-.23-.35,0Z"/></g><g id="skygger"><g class="cls-1"><path class="cls-3" d="m177.58,40.49c1.8-1.56,4.07-2.77,6.48-2.88.22,0,.23-.36,0-.35-2.32.09-4.52,1.19-6.3,2.62-.15.12-.29.24-.43.36-.16.15.08.4.25.25h0Z"/></g><g class="cls-1"><path class="cls-3" d="m186.1,77.68l-.35-.02c.34-7.87-2.15-11.66-2.18-11.69l.29-.2c.11.16,2.59,3.9,2.24,11.91Z"/></g><g class="cls-1"><path class="cls-3" d="m221.76,99.09c-3.68-4.33-2.87-20.32-2.13-25.21l.35.05c-.02.19-2.39,18.8,2.06,24.96l-.28.2Z"/></g><g class="cls-1"><path class="cls-3" d="m186.29,132.36c-4.79-3.63-2.93-17.26-1.83-21.62l.25.06c-.04.17-3.85,16.58,1.74,21.36l-.17.2Z"/></g><g class="cls-1"><path class="cls-3" d="m209.16,146.45c-.31,2.55-1.43,9.95.04,11.87.15.17.39-.08.25-.25-.38-.44-.47-1.19-.53-1.76-.11-.95-.1-1.91-.07-2.87.06-1.9.25-3.81.48-5.69.05-.4.1-.81.16-1.21.03-.22-.3-.31-.34-.09h0Z"/></g></g></g></svg>