<?xml version="1.0" encoding="UTF-8"?><svg id="eksport" xmlns="http://www.w3.org/2000/svg" width="375" height="215" viewBox="0 0 375 215"><defs><style>.cls-1{fill:#998f56;opacity:.6;}.cls-1,.cls-2,.cls-3{stroke-width:0px;}.cls-2{fill:#5b4f41;}.cls-3{fill:#f4e787;}</style></defs><g id="spil_igen"><ellipse class="cls-1" cx="191.13" cy="113.25" rx="182.25" ry="100.24"/><ellipse class="cls-3" cx="183.87" cy="101.75" rx="182.25" ry="100.24"/><path class="cls-2" d="m63.17,92.92c0,9.67-7.04,14.98-19.72,14.98h-1.54v8.77c0,1.98.13,5.12,1.22,7.62-.7.7-2.43,1.86-4.8,1.86-2.75,0-4.8-1.6-4.8-4.29v-32.14c0-1.92-.19-5.38-1.22-8.07,2.5-1.22,6.21-1.92,11.46-1.92,12.49,0,19.4,3.84,19.4,13.19Zm-9.22.64c0-6.47-2.56-10.88-9.99-10.88-.83,0-1.47,0-2.05.06v22.28h1.15c8.2,0,10.88-4.67,10.88-11.46Z"/><path class="cls-2" d="m104.6,121.47c0,3.27-3.14,4.67-5.06,4.67-5.25,0-6.72-3.52-9.03-9.28l-1.98-5.25c-1.28-3.2-2.43-6.08-6.92-6.08l-2.43-.06v11.21c0,1.98.13,5.12,1.22,7.62-.7.7-2.43,1.86-4.8,1.86-2.75,0-4.8-1.6-4.8-4.29v-32.14c0-1.92-.19-5.38-1.22-8.07,2.5-1.22,6.15-1.92,11.84-1.92,12.1,0,18.76,3.27,18.76,11.65,0,6.34-3.91,10.76-10.12,12.36,3.14.9,4.74,2.88,6.21,5.44l2.69,6.21c1.28,3.01,2.31,4.29,3.59,4.35.45,0,1.02-.13,1.54-.58.38.9.51,1.66.51,2.3Zm-22.6-18.95c6.02-.19,8.96-4.74,8.96-10.56,0-5.38-2.37-9.35-8.9-9.35-1.15,0-2.11,0-2.88.13v19.72c.9.06,1.86.13,2.82.06Z"/><path class="cls-2" d="m144.8,102.9c0,15.49-6.21,23.24-18.12,23.24-4.61,0-8.32-1.15-11.21-3.46l-2.11,3.52c-1.15,0-2.05-.51-2.69-1.54l2.56-4.23c-3.07-3.91-4.67-9.73-4.67-17.54,0-15.43,6.21-23.18,18.12-23.18,3.78,0,6.92.77,9.54,2.3l2.11-3.46c1.22-.06,2.05.51,2.62,1.54l-2.24,3.78c4.03,3.78,6.08,10.12,6.08,19.02Zm-26.51,9.03l14.92-24.91c-1.41-3.01-3.58-4.42-6.53-4.42-6.08,0-8.9,6.15-8.9,20.3,0,3.52.19,6.53.51,9.03Zm17.22-9.03c0-4.93-.32-8.96-1.02-12.04l-15.24,25.55c1.34,4.67,3.78,6.79,7.43,6.79,6.15,0,8.83-6.08,8.83-20.3Z"/><path class="cls-2" d="m185.39,83.18c0,1.09-.32,2.63-.9,4.29l-12.29,37.52c-2.24.9-4.23,1.15-5.63,1.15-2.95,0-4.67-.64-5.19-2.3l-11.46-38.29c-.32-1.09-1.02-2.95-2.05-4.03.77-.83,2.24-1.79,4.99-1.79,3.01,0,4.8,1.02,5.38,3.2l9.48,37.13,8.58-34.64c.26-.96.45-1.86.45-2.82,0-1.02-.26-1.6-.58-2.05,1.22-.51,2.37-.83,4.48-.83,3.33,0,4.74,1.02,4.74,3.46Z"/><path class="cls-2" d="m205.62,121.86v-32.14c0-2.43-.19-5.38-1.22-8.07.7-.7,2.43-1.86,4.8-1.86,2.75,0,4.8,1.6,4.8,4.29v32.14c0,2.43.13,5.38,1.22,8.07-.7.7-2.43,1.86-4.8,1.86-2.75,0-4.8-1.6-4.8-4.29Z"/><path class="cls-2" d="m222.58,102.9c0-14.79,7.23-23.18,19.46-23.18,6.66,0,13.96,2.75,13.96,7.49,0,2.5-2.3,4.93-6.79,4.87-.64-6.47-3.07-9.48-7.04-9.48-7.17,0-10.37,6.79-10.37,20.3s3.14,20.3,10.18,20.3c6.4,0,7.62-7.17,7.62-12.17,0-3.52-.64-7.17-3.91-8.64.7-1.73,2.88-2.56,4.99-2.56,4.29,0,7.43,2.95,7.43,9.16,0,11.4-7.56,17.16-16.58,17.16-12.04,0-18.95-8.39-18.95-23.24Z"/><path class="cls-2" d="m291.79,125.25h-20.36c-2.75,0-4.8-1.6-4.8-4.29v-30.16c0-2.5-.19-5.38-1.22-8.07,2.11-1.79,3.84-2.11,7.62-2.11h18.57c2.37,0,1.34,6.27-.9,7.3-4.55-1.86-10.05-3.14-15.75-3.27l.06,15.17h13.83c.45,1.54.32,3.26,0,4.55h-13.83v16.84c5.76-.19,13.64-1.86,17.22-3.46,2.18,1.28,2.3,7.49-.45,7.49Z"/><path class="cls-2" d="m300.75,125.06c1.02-2.75,1.22-6.47,1.22-8.83v-26.51c0-3.71-.13-6.34-.45-8.84.96-1.15,5.12-1.34,5.83-.64,7.62,10.82,21.06,27.15,24.27,34.19l-2.11-28.75c-.32-3.26,1.02-5.51,3.84-5.76,1.15-.06,2.5.19,3.46.83-.83,2.5-.83,5.89-.83,7.88l-.06,27.72c0,3.78.06,6.21.38,8.71-.83.96-4.29,1.41-5.63.7-14.28-16.71-20.62-26.51-24.07-32.97l1.79,28.56c.26,2.88-2.11,4.8-4.16,4.8-1.22,0-2.5-.38-3.46-1.09Z"/></g></svg>