<?xml version="1.0" encoding="UTF-8"?><svg id="eksport" xmlns="http://www.w3.org/2000/svg" width="319" height="399" viewBox="0 0 319 399"><defs><style>.cls-1{stroke-width:.41px;}.cls-1,.cls-2,.cls-3,.cls-4{stroke-miterlimit:10;}.cls-1,.cls-3,.cls-4{stroke:#38322d;}.cls-1,.cls-4,.cls-5{fill:#38322d;}.cls-6{opacity:.5;}.cls-2{fill:none;stroke:#5b4f41;stroke-width:2.13px;}.cls-3{fill:#92785b;stroke-width:.28px;}.cls-4{stroke-width:.18px;}.cls-7{fill:#5b4f41;}.cls-7,.cls-5,.cls-8,.cls-9,.cls-10,.cls-11,.cls-12{stroke-width:0px;}.cls-8{fill:#c2d9a0;}.cls-9{fill:#fff;}.cls-10{fill:#f4e787;}.cls-11{fill:#fcfcfc;}.cls-12{fill:#f4e6ef;}</style></defs><g id="regler"><rect class="cls-11" x="2" y="2.5" width="315" height="394" rx="10.67" ry="10.67"/><rect class="cls-2" x="2" y="2.5" width="315" height="394" rx="10.67" ry="10.67"/><path class="cls-7" d="m39.55,41.01c-.18.18-.61.46-1.2.46-.69,0-1.2-.4-1.2-1.07v-4.42h-4.26v3.01c0,.61.03,1.34.3,2.02-.18.18-.61.46-1.2.46-.69,0-1.2-.4-1.2-1.07v-8.04c0-.61-.05-1.34-.3-2.02.18-.18.61-.46,1.2-.46.69,0,1.2.4,1.2,1.07v3.91h4.26v-2.5c0-.61-.05-1.34-.3-2.02.18-.18.61-.46,1.2-.46.67,0,1.2.4,1.2,1.07v8.04c0,.61.03,1.34.3,2.02Z"/><path class="cls-7" d="m38.9,43.51c0-.53.35-1.04,1.09-1.04.37,0,.58.13.74.45-.14.24-.24.51-.24.72,0,.42.26.61.53.61.78,0,.78-1.44.78-3.01l.02-5.97c0-.48-.03-1.34-.29-2.03.27-.26.69-.46,1.15-.46.66,0,1.17.4,1.17,1.09v7.75c0,1.81-.77,3.3-2.91,3.3-1.39,0-2.03-.61-2.03-1.39Zm2.69-12.87c0-.64.51-1.14,1.15-1.14s1.15.5,1.15,1.14-.51,1.15-1.15,1.15-1.15-.5-1.15-1.15Z"/><path class="cls-7" d="m57.69,39.86c-.42,1.04-1.54,1.62-3.03,1.62-1.9,0-3.27-.93-3.79-2.64-.54,1.46-1.71,2.58-3.33,2.58-1.23,0-2.1-.67-2.1-1.89,0-1.5,1.41-2.29,2.77-2.69.86-.24,1.66-.3,2.35-.32v-.4c0-1.75-.35-2.64-1.42-2.64-.7,0-1.22.34-1.22,1.2,0,.43.13.93.58,1.18-.24.26-.67.37-1.1.37-1.01,0-1.58-.66-1.58-1.47,0-1.28,1.33-1.98,3.46-1.98,1.17,0,1.97.38,2.5,1.07.67-.69,1.67-1.07,2.91-1.07,1.83,0,3.25.82,3.25,2.42s-1.41,2.45-3.47,2.45c-.5,0-1.02,0-1.58-.06.16,1.94,1.02,2.61,2.37,2.61,1.18,0,1.95-.51,2.3-1.23.22.1.38.34.14.91Zm-7.06-2.67c-.71,0-1.44.06-1.95.35-.58.29-.98.82-.98,1.49,0,.56.26,1.1.9,1.04.88-.08,2.03-1.28,2.03-2.88Zm2.21-.35v.02c.13,0,.27.02.43.02,1.02.02,2.43-.18,2.43-2.02,0-1.09-.54-1.36-1.1-1.36-1.1,0-1.76,1.25-1.76,3.34Z"/><path class="cls-7" d="m59.53,39.2v-8.6c0-.69.51-1.09,1.2-1.09.59,0,1.01.3,1.17.46-.26.96-.3,1.75-.3,3.12v5.92c0,.56.19.85.58.85.14,0,.38-.06.48-.22.14.21.21.46.21.66,0,.64-.64,1.1-1.41,1.1-1.25,0-1.92-.85-1.92-2.21Z"/><path class="cls-7" d="m71.85,36.82c0,3.04-1.34,4.66-3.46,4.66-.94,0-1.63-.34-1.94-.98v.82c0,.72.05,1.97.32,2.96-.18.16-.59.45-1.18.45-.66,0-1.18-.4-1.18-1.06l.02-8.45c0-.58-.13-.82-.43-.82-.11,0-.32.03-.42.18-.13-.21-.19-.48-.19-.66,0-.62.51-1.07,1.26-1.07,1.01,0,1.52.78,1.65,2.1.48-1.44,1.39-2.18,2.69-2.18,2.16,0,2.87,1.9,2.87,4.05Zm-2.21-.02c0-1.74-.24-2.91-1.26-2.91-1.31,0-1.89,2.11-1.89,4.03,0,1.63.35,2.48,1.39,2.48,1.25,0,1.76-1.3,1.76-3.6Z"/><path class="cls-7" d="m83.5,41.25h-5.09c-.69,0-1.2-.4-1.2-1.07v-7.54c0-.62-.05-1.34-.3-2.02.53-.45.96-.53,1.9-.53h4.64c.59,0,.34,1.57-.22,1.82-1.14-.46-2.51-.78-3.94-.82l.02,3.79h3.46c.11.38.08.82,0,1.14h-3.46v4.21c1.44-.05,3.41-.46,4.31-.86.54.32.58,1.87-.11,1.87Z"/><path class="cls-7" d="m85.74,39.2v-8.6c0-.69.51-1.09,1.2-1.09.59,0,1.01.3,1.17.46-.26.96-.3,1.75-.3,3.12v5.92c0,.56.19.85.58.85.14,0,.38-.06.48-.22.14.21.21.46.21.66,0,.64-.64,1.1-1.41,1.1-1.25,0-1.92-.85-1.92-2.21Z"/><path class="cls-7" d="m90.38,39.2v-8.6c0-.69.51-1.09,1.2-1.09.59,0,1.01.3,1.17.46-.26.96-.3,1.75-.3,3.12v5.92c0,.56.19.85.58.85.14,0,.38-.06.48-.22.14.21.21.46.21.66,0,.64-.64,1.1-1.41,1.1-1.25,0-1.92-.85-1.92-2.21Z"/><path class="cls-7" d="m102.91,40.31c0,.61-.56,1.1-1.47,1.1-.98,0-1.6-.56-1.7-2.14-.58,1.25-1.65,2.14-3.11,2.14-1.23,0-2.1-.67-2.1-1.89,0-1.5,1.41-2.29,2.77-2.69.86-.24,1.66-.3,2.29-.32v-.4c0-1.75-.35-2.64-1.42-2.64-.64,0-1.15.34-1.15,1.2,0,.43.13.93.58,1.18-.24.26-.67.37-1.1.37-1.01,0-1.58-.66-1.58-1.47,0-1.28,1.33-1.98,3.39-1.98,2.35,0,3.42,1.01,3.42,3.47v2.79c0,.56.18.85.53.85.13,0,.34-.06.45-.22.14.21.21.46.21.66Zm-3.25-3.12c-.64,0-1.38.06-1.89.35-.58.29-.98.82-.98,1.49,0,.56.26,1.1.9,1.04.88-.08,1.97-1.28,1.97-2.88Z"/><path class="cls-7" d="m119.66,41.01c-.27.24-.66.46-1.18.46-.69,0-1.2-.4-1.2-1.07v-4.08c0-1.39-.08-2.58-1.02-2.58-.86,0-1.67,1.18-1.7,3.67l.02,1.58c0,.48.03,1.34.29,2.02-.26.24-.61.46-1.15.46-.66,0-1.14-.4-1.14-1.07l-.02-4.08c0-1.65-.19-2.58-1.12-2.58s-1.58,1.2-1.58,3.78c0,2.11,0,2.69.34,3.51-.18.18-.54.45-1.18.45-.67,0-1.18-.45-1.18-1.17l-.02-5.14c0-.59-.16-.85-.46-.85-.14,0-.35.06-.45.24-.14-.22-.19-.43-.19-.66,0-.66.48-1.12,1.28-1.12.94,0,1.54.62,1.62,1.94.38-1.18,1.17-1.95,2.53-1.95s2,.66,2.29,1.89c.38-1.14,1.23-1.89,2.51-1.89,1.63,0,2.43,1.1,2.43,3.23v2.99c0,.48.05,1.34.3,2.02Z"/><path class="cls-7" d="m127.99,39.86c-.42,1.04-1.54,1.62-3.04,1.62-2.45,0-4.03-1.57-4.03-4.37s1.42-4.34,4.07-4.34c1.82,0,3.25.82,3.25,2.42s-1.41,2.45-3.47,2.45c-.51,0-1.02,0-1.6-.06.18,1.94,1.02,2.61,2.39,2.61,1.17,0,1.95-.51,2.3-1.23.21.1.37.34.14.91Zm-4.85-3.03v.02c.13,0,.27.02.43.02,1.02.02,2.43-.18,2.43-2.02,0-1.09-.54-1.36-1.1-1.36-1.1,0-1.76,1.25-1.76,3.34Z"/><path class="cls-7" d="m137.9,40.32c0,.62-.59,1.07-1.36,1.07-1.02,0-1.55-.79-1.68-2.08-.48,1.44-1.39,2.16-2.69,2.16-2.06,0-2.85-1.76-2.85-4.05,0-2.96,1.23-4.66,3.42-4.66.99,0,1.67.37,1.97.99v-.86c0-.74-.05-1.9-.34-2.91.18-.16.59-.46,1.18-.46.66,0,1.18.4,1.18,1.09l-.02,8.42c0,.56.19.83.54.83.11,0,.32-.03.42-.19.14.22.21.48.21.66Zm-3.23-4.21c0-1.17-.19-2.31-1.41-2.31s-1.71,1.31-1.71,3.57c0,1.92.27,2.96,1.23,2.96,1.31,0,1.89-2.1,1.89-4.23Z"/><path class="cls-7" d="m150.54,40.31c0,.61-.56,1.1-1.47,1.1-.98,0-1.6-.56-1.7-2.14-.58,1.25-1.65,2.14-3.11,2.14-1.23,0-2.1-.67-2.1-1.89,0-1.5,1.41-2.29,2.77-2.69.86-.24,1.66-.3,2.29-.32v-.4c0-1.75-.35-2.64-1.42-2.64-.64,0-1.15.34-1.15,1.2,0,.43.13.93.58,1.18-.24.26-.67.37-1.1.37-1.01,0-1.58-.66-1.58-1.47,0-1.28,1.33-1.98,3.39-1.98,2.35,0,3.42,1.01,3.42,3.47v2.79c0,.56.18.85.53.85.13,0,.34-.06.45-.22.14.21.21.46.21.66Zm-3.25-3.12c-.64,0-1.38.06-1.89.35-.58.29-.98.82-.98,1.49,0,.56.26,1.1.9,1.04.88-.08,1.97-1.28,1.97-2.88Z"/><path class="cls-7" d="m155.94,32.94l-.02.5c-.02.34-.24.51-.53.51h-1.42v5.07c0,.56.24.85.74.85.21,0,.56-.06.64-.22.16.21.21.48.21.66,0,.66-.66,1.1-1.7,1.1-1.25,0-1.95-.85-1.95-2.21v-5.25h-.22c-.21,0-.75.02-.96.05l.02-.5c.02-.34.26-.5.54-.5h.62v-1.07c0-.67.51-1.07,1.2-1.07.59,0,1.01.3,1.17.46-.14.58-.22,1.07-.27,1.68h.05c.16,0,1.73-.03,1.89-.06Z"/><path class="cls-7" d="m160.76,39.2v-8.6c0-.69.51-1.09,1.2-1.09.59,0,1.01.3,1.17.46-.26.96-.3,1.75-.3,3.12v5.92c0,.56.19.85.58.85.14,0,.38-.06.48-.22.14.21.21.46.21.66,0,.64-.64,1.1-1.41,1.1-1.25,0-1.92-.85-1.92-2.21Z"/><path class="cls-7" d="m173.29,40.31c0,.61-.56,1.1-1.47,1.1-.98,0-1.6-.56-1.7-2.14-.58,1.25-1.65,2.14-3.11,2.14-1.23,0-2.1-.67-2.1-1.89,0-1.5,1.41-2.29,2.77-2.69.86-.24,1.66-.3,2.29-.32v-.4c0-1.75-.35-2.64-1.42-2.64-.64,0-1.15.34-1.15,1.2,0,.43.13.93.58,1.18-.24.26-.67.37-1.1.37-1.01,0-1.58-.66-1.58-1.47,0-1.28,1.33-1.98,3.39-1.98,2.35,0,3.42,1.01,3.42,3.47v2.79c0,.56.18.85.53.85.13,0,.34-.06.45-.22.14.21.21.46.21.66Zm-3.25-3.12c-.64,0-1.38.06-1.89.35-.58.29-.98.82-.98,1.49,0,.56.26,1.1.9,1.04.88-.08,1.97-1.28,1.97-2.88Z"/><path class="cls-7" d="m181.32,33.68c0,.27-.05.69-.22,1.09l-2.42,6.4c-.46.21-.93.3-1.39.3s-.93-.16-1.09-.67l-2.19-6.53c-.08-.24-.22-.72-.48-.99.18-.22.53-.48,1.17-.48s1.1.27,1.22.82l1.74,6.58,1.5-5.95c.05-.24.1-.46.1-.7s-.05-.4-.14-.51c.29-.11.58-.22,1.07-.22.8,0,1.14.27,1.14.88Z"/><path class="cls-7" d="m189.18,39.86c-.42,1.04-1.54,1.62-3.04,1.62-2.45,0-4.03-1.57-4.03-4.37s1.42-4.34,4.07-4.34c1.82,0,3.25.82,3.25,2.42s-1.41,2.45-3.47,2.45c-.51,0-1.02,0-1.6-.06.18,1.94,1.02,2.61,2.39,2.61,1.17,0,1.95-.51,2.3-1.23.21.1.37.34.14.91Zm-4.85-3.03v.02c.13,0,.27.02.43.02,1.02.02,2.43-.18,2.43-2.02,0-1.09-.54-1.36-1.1-1.36-1.1,0-1.76,1.25-1.76,3.34Z"/><path class="cls-7" d="m193.84,39.6c0-.58.35-1.28,1.54-1.09-.06.3-.05.56.03.85.1.67.64,1.34,1.78,1.34.82,0,1.46-.3,1.46-.99,0-.85-.93-1.22-1.91-1.68-1.23-.59-2.62-1.23-2.62-2.94s1.47-2.34,3.17-2.34,2.91.53,2.91,1.57c0,.48-.24.94-.98.96-.22.03-.38.02-.56-.02.03-.3.02-.66-.11-.93-.18-.51-.64-.85-1.34-.85-.64,0-1.23.26-1.23.9,0,.88.93,1.31,1.95,1.81,1.23.59,2.66,1.25,2.66,2.72,0,1.26-.98,2.56-3.68,2.56-2.08,0-3.06-.78-3.06-1.87Z"/><path class="cls-7" d="m204.55,41.01c-.19.18-.61.46-1.2.46-.64,0-1.15-.4-1.15-1.07v-5.15c0-.61-.05-1.34-.3-2.03.18-.16.58-.45,1.15-.45.69,0,1.18.38,1.18,1.07l.02,5.15c0,.61.03,1.34.3,2.02Zm-2.61-10.21c0-.67.53-1.2,1.2-1.2s1.17.53,1.17,1.2-.51,1.18-1.17,1.18-1.2-.53-1.2-1.18Z"/><path class="cls-7" d="m205.96,43.01c0-.82.61-1.33,1.44-1.33.43,0,.77.13.96.35-.32.27-.48.67-.48,1.09,0,.62.35,1.09,1.15,1.09,1.42,0,2.11-1.36,2.11-3.41,0-.29,0-.8.02-1.18-.37,1.04-1.2,1.62-2.42,1.62-1.68,0-2.85-1.07-2.85-3.97,0-2.53,1.01-4.5,3.91-4.5,1.34,0,2.61.38,3.39,1.06v6.72c0,3.2-1.79,4.31-4.23,4.31-1.58,0-3.01-.51-3.01-1.84Zm5.17-5.75l.02-3.41c-.29-.22-.75-.37-1.23-.37-1.47,0-1.81,1.55-1.81,3.99,0,2.06.3,2.8,1.26,2.8,1.18,0,1.75-1.18,1.76-3.01Z"/><path class="cls-7" d="m225.13,39.86c-.42,1.04-1.54,1.62-3.04,1.62-2.45,0-4.03-1.57-4.03-4.37s1.42-4.34,4.07-4.34c1.82,0,3.25.82,3.25,2.42s-1.41,2.45-3.47,2.45c-.51,0-1.02,0-1.6-.06.18,1.94,1.02,2.61,2.39,2.61,1.17,0,1.95-.51,2.3-1.23.21.1.37.34.14.91Zm-4.85-3.03v.02c.13,0,.27.02.43.02,1.02.02,2.43-.18,2.43-2.02,0-1.09-.54-1.36-1.1-1.36-1.1,0-1.76,1.25-1.76,3.34Z"/><path class="cls-7" d="m234.58,41.01c-.29.26-.69.46-1.2.46-.67,0-1.18-.4-1.18-1.07v-4.08c-.02-1.58-.24-2.51-1.22-2.51s-1.73,1.18-1.73,3.67c0,2.16,0,2.72.34,3.55-.18.18-.61.45-1.17.45-.7,0-1.22-.45-1.22-1.17v-5.14c-.02-.61-.14-.85-.43-.85-.11,0-.32.03-.42.19-.13-.21-.19-.42-.19-.66,0-.62.45-1.07,1.25-1.07.94,0,1.55.61,1.6,1.89.43-1.2,1.3-1.9,2.67-1.9,1.76,0,2.58,1.09,2.58,3.23v2.99c.02.48.05,1.34.32,2.02Z"/><path class="cls-7" d="m30.39,59.62v-9.81c0-.69.48-1.09,1.1-1.09s1.09.3,1.28.46c-.29,1.15-.34,2.58-.34,3.31v1.14c.37-1.01,1.23-1.67,2.45-1.67,1.7,0,2.83,1.15,2.83,4.05s-1.12,4.66-3.87,4.66c-1.38,0-2.71-.38-3.46-1.06Zm5.12-3.6c0-2.07-.32-2.96-1.1-2.96-1.33,0-1.95,1.65-1.95,3.46v2.95c.29.22.78.38,1.25.38,1.55-.02,1.81-1.81,1.81-3.83Z"/><path class="cls-7" d="m47.24,59.51c0,.61-.56,1.1-1.47,1.1-.98,0-1.6-.56-1.7-2.14-.58,1.25-1.65,2.14-3.11,2.14-1.23,0-2.1-.67-2.1-1.89,0-1.5,1.41-2.29,2.77-2.69.86-.24,1.66-.3,2.29-.32v-.4c0-1.75-.35-2.64-1.42-2.64-.64,0-1.15.34-1.15,1.2,0,.43.13.93.58,1.18-.24.26-.67.37-1.1.37-1.01,0-1.58-.66-1.58-1.47,0-1.28,1.33-1.98,3.39-1.98,2.35,0,3.42,1.01,3.42,3.47v2.79c0,.56.18.85.53.85.13,0,.34-.06.45-.22.14.21.21.46.21.66Zm-3.25-3.12c-.64,0-1.38.06-1.89.35-.58.29-.98.82-.98,1.49,0,.56.26,1.1.9,1.04.88-.08,1.97-1.28,1.97-2.88Z"/><path class="cls-7" d="m56.03,60.21c-.29.26-.69.46-1.2.46-.67,0-1.18-.4-1.18-1.07v-4.08c-.02-1.58-.24-2.51-1.22-2.51s-1.73,1.18-1.73,3.67c0,2.16,0,2.72.34,3.55-.18.18-.61.45-1.17.45-.7,0-1.22-.45-1.22-1.17v-5.14c-.02-.61-.14-.85-.43-.85-.11,0-.32.03-.42.19-.13-.21-.19-.42-.19-.66,0-.62.45-1.07,1.25-1.07.94,0,1.55.61,1.6,1.89.43-1.2,1.3-1.9,2.67-1.9,1.76,0,2.58,1.09,2.58,3.23v2.99c.02.48.05,1.34.32,2.02Z"/><path class="cls-7" d="m65.66,59.51c0,.61-.56,1.1-1.47,1.1-.98,0-1.6-.56-1.7-2.14-.58,1.25-1.65,2.14-3.11,2.14-1.23,0-2.1-.67-2.1-1.89,0-1.5,1.41-2.29,2.77-2.69.86-.24,1.66-.3,2.29-.32v-.4c0-1.75-.35-2.64-1.42-2.64-.64,0-1.15.34-1.15,1.2,0,.43.13.93.58,1.18-.24.26-.67.37-1.1.37-1.01,0-1.58-.66-1.58-1.47,0-1.28,1.33-1.98,3.39-1.98,2.35,0,3.42,1.01,3.42,3.47v2.79c0,.56.18.85.53.85.13,0,.34-.06.45-.22.14.21.21.46.21.66Zm-3.25-3.12c-.64,0-1.38.06-1.89.35-.58.29-.98.82-.98,1.49,0,.56.26,1.1.9,1.04.88-.08,1.97-1.28,1.97-2.88Z"/><path class="cls-7" d="m74.44,60.21c-.29.26-.69.46-1.2.46-.67,0-1.18-.4-1.18-1.07v-4.08c-.02-1.58-.24-2.51-1.22-2.51s-1.73,1.18-1.73,3.67c0,2.16,0,2.72.34,3.55-.18.18-.61.45-1.17.45-.7,0-1.22-.45-1.22-1.17v-5.14c-.02-.61-.14-.85-.43-.85-.11,0-.32.03-.42.19-.13-.21-.19-.42-.19-.66,0-.62.45-1.07,1.25-1.07.94,0,1.55.61,1.6,1.89.43-1.2,1.3-1.9,2.67-1.9,1.76,0,2.58,1.09,2.58,3.23v2.99c.02.48.05,1.34.32,2.02Z"/><path class="cls-7" d="m84.07,59.51c0,.61-.56,1.1-1.47,1.1-.98,0-1.6-.56-1.7-2.14-.58,1.25-1.65,2.14-3.11,2.14-1.23,0-2.1-.67-2.1-1.89,0-1.5,1.41-2.29,2.77-2.69.86-.24,1.66-.3,2.29-.32v-.4c0-1.75-.35-2.64-1.42-2.64-.64,0-1.15.34-1.15,1.2,0,.43.13.93.58,1.18-.24.26-.67.37-1.1.37-1.01,0-1.58-.66-1.58-1.47,0-1.28,1.33-1.98,3.39-1.98,2.35,0,3.42,1.01,3.42,3.47v2.79c0,.56.18.85.53.85.13,0,.34-.06.45-.22.14.21.21.46.21.66Zm-3.25-3.12c-.64,0-1.38.06-1.89.35-.58.29-.98.82-.98,1.49,0,.56.26,1.1.9,1.04.88-.08,1.97-1.28,1.97-2.88Z"/><path class="cls-7" d="m88.07,58.8c0-.58.35-1.28,1.54-1.09-.06.3-.05.56.03.85.1.67.64,1.34,1.78,1.34.82,0,1.46-.3,1.46-.99,0-.85-.93-1.22-1.91-1.68-1.23-.59-2.62-1.23-2.62-2.94s1.47-2.34,3.17-2.34,2.91.53,2.91,1.57c0,.48-.24.94-.98.96-.22.03-.38.02-.56-.02.03-.3.02-.66-.11-.93-.18-.51-.64-.85-1.34-.85-.64,0-1.23.26-1.23.9,0,.88.93,1.31,1.95,1.81,1.23.59,2.66,1.25,2.66,2.72,0,1.26-.98,2.56-3.68,2.56-2.08,0-3.06-.78-3.06-1.87Z"/><path class="cls-7" d="m103.63,60.21c-.27.24-.64.46-1.17.46-.67,0-1.18-.4-1.18-1.07v-4.08c0-1.65-.24-2.58-1.22-2.58s-1.74,1.22-1.74,3.73c0,2.16,0,2.72.35,3.55-.18.18-.61.45-1.17.45-.69,0-1.2-.45-1.2-1.17l-.02-9.7c0-.69.42-1.02.98-1.07.64-.05,1.22.29,1.41.45-.3.98-.34,2.18-.35,3.71v.7c.43-1.04,1.23-1.63,2.43-1.63,1.76,0,2.58,1.09,2.58,3.23v2.99c0,.48.05,1.34.3,2.02Z"/><path class="cls-7" d="m113.27,59.51c0,.61-.56,1.1-1.47,1.1-.98,0-1.6-.56-1.7-2.14-.58,1.25-1.65,2.14-3.11,2.14-1.23,0-2.1-.67-2.1-1.89,0-1.5,1.41-2.29,2.77-2.69.86-.24,1.66-.3,2.29-.32v-.4c0-1.75-.35-2.64-1.42-2.64-.64,0-1.15.34-1.15,1.2,0,.43.13.93.58,1.18-.24.26-.67.37-1.1.37-1.01,0-1.58-.66-1.58-1.47,0-1.28,1.33-1.98,3.39-1.98,2.35,0,3.42,1.01,3.42,3.47v2.79c0,.56.18.85.53.85.13,0,.34-.06.45-.22.14.21.21.46.21.66Zm-3.25-3.12c-.64,0-1.38.06-1.89.35-.58.29-.98.82-.98,1.49,0,.56.26,1.1.9,1.04.88-.08,1.97-1.28,1.97-2.88Z"/><path class="cls-7" d="m121.91,59.48c0,.67-.64,1.2-1.5,1.2-.69,0-1.33-.37-1.67-1.23l-1.04-2.45c-.46.13-.85.22-1.22.29,0,1.74.02,2.18.35,2.95-.24.19-.59.45-1.25.45-.94,0-1.14-.51-1.14-1.17l-.02-9.7c0-.69.5-1.09,1.18-1.09.61,0,1.01.3,1.17.46-.34,1.78-.26,2.43-.32,3.75v1.02c.48-1.2,1.42-1.98,2.87-1.98s2.03.83,2.03,1.79c0,1.33-1.14,2.24-2.29,2.79.37.08.64.42.93.9l.5.83c.26.46.37.67.69.67.13,0,.29-.03.45-.14.21.21.27.45.27.67Zm-2.66-5.59c0-.66-.3-.88-.74-.88-1.15,0-2.03,1.58-2.03,3.52,1.28-.38,2.77-1.25,2.77-2.64Z"/><path class="cls-7" d="m129.82,59.06c-.42,1.04-1.54,1.62-3.04,1.62-2.45,0-4.03-1.57-4.03-4.37s1.42-4.34,4.07-4.34c1.82,0,3.25.82,3.25,2.42s-1.41,2.45-3.47,2.45c-.51,0-1.02,0-1.6-.06.18,1.94,1.02,2.61,2.39,2.61,1.17,0,1.95-.51,2.3-1.23.21.1.37.34.14.91Zm-4.85-3.03v.02c.13,0,.27.02.43.02,1.02.02,2.43-.18,2.43-2.02,0-1.09-.54-1.36-1.1-1.36-1.1,0-1.76,1.25-1.76,3.34Z"/><path class="cls-7" d="m132.33,61.81c.35-.42.58-.82.58-1.23,0-.82-.66-.98-1.04-1.09,0-.62.5-1.18,1.22-1.18.61,0,1.2.38,1.2,1.46,0,.8-.35,1.58-1.28,2.42-.27-.03-.46-.14-.67-.37Z"/><path class="cls-7" d="m146.92,52.88c0,.27-.05.69-.22,1.09l-2.42,6.4c-.46.21-.93.3-1.39.3s-.93-.16-1.09-.67l-2.19-6.53c-.08-.24-.22-.72-.48-.99.18-.22.53-.48,1.17-.48s1.1.27,1.22.82l1.74,6.58,1.5-5.95c.05-.24.1-.46.1-.7s-.05-.4-.14-.51c.29-.11.58-.22,1.07-.22.8,0,1.14.27,1.14.88Z"/><path class="cls-7" d="m154.78,59.06c-.42,1.04-1.54,1.62-3.04,1.62-2.45,0-4.03-1.57-4.03-4.37s1.42-4.34,4.07-4.34c1.82,0,3.25.82,3.25,2.42s-1.41,2.45-3.47,2.45c-.51,0-1.02,0-1.6-.06.18,1.94,1.02,2.61,2.39,2.61,1.17,0,1.95-.51,2.3-1.23.21.1.37.34.14.91Zm-4.85-3.03v.02c.13,0,.27.02.43.02,1.02.02,2.43-.18,2.43-2.02,0-1.09-.54-1.36-1.1-1.36-1.1,0-1.76,1.25-1.76,3.34Z"/><path class="cls-7" d="m164.68,59.52c0,.62-.59,1.07-1.36,1.07-1.02,0-1.55-.79-1.68-2.08-.48,1.44-1.39,2.16-2.69,2.16-2.06,0-2.85-1.76-2.85-4.05,0-2.96,1.23-4.66,3.42-4.66.99,0,1.67.37,1.97.99v-.86c0-.74-.05-1.9-.34-2.91.18-.16.59-.46,1.18-.46.66,0,1.18.4,1.18,1.09l-.02,8.42c0,.56.19.83.54.83.11,0,.32-.03.42-.19.14.22.21.48.21.66Zm-3.23-4.21c0-1.17-.19-2.31-1.41-2.31s-1.71,1.31-1.71,3.57c0,1.92.27,2.96,1.23,2.96,1.31,0,1.89-2.1,1.89-4.23Z"/><path class="cls-7" d="m177.32,59.51c0,.61-.56,1.1-1.47,1.1-.98,0-1.6-.56-1.7-2.14-.58,1.25-1.65,2.14-3.11,2.14-1.23,0-2.1-.67-2.1-1.89,0-1.5,1.41-2.29,2.77-2.69.86-.24,1.66-.3,2.29-.32v-.4c0-1.75-.35-2.64-1.42-2.64-.64,0-1.15.34-1.15,1.2,0,.43.13.93.58,1.18-.24.26-.67.37-1.1.37-1.01,0-1.58-.66-1.58-1.47,0-1.28,1.33-1.98,3.39-1.98,2.35,0,3.42,1.01,3.42,3.47v2.79c0,.56.18.85.53.85.13,0,.34-.06.45-.22.14.21.21.46.21.66Zm-3.25-3.12c-.64,0-1.38.06-1.89.35-.58.29-.98.82-.98,1.49,0,.56.26,1.1.9,1.04.88-.08,1.97-1.28,1.97-2.88Z"/><path class="cls-7" d="m182.73,52.15l-.02.5c-.02.34-.24.51-.53.51h-1.42v5.07c0,.56.24.85.74.85.21,0,.56-.06.64-.22.16.21.21.48.21.66,0,.66-.66,1.1-1.7,1.1-1.25,0-1.95-.85-1.95-2.21v-5.25h-.22c-.21,0-.75.02-.96.05l.02-.5c.02-.34.26-.5.54-.5h.62v-1.07c0-.67.51-1.07,1.2-1.07.59,0,1.01.3,1.17.46-.14.58-.22,1.07-.27,1.68h.05c.16,0,1.73-.03,1.89-.06Z"/><path class="cls-7" d="m187.11,62.21c0-.82.61-1.33,1.44-1.33.43,0,.77.13.96.35-.32.27-.48.67-.48,1.09,0,.62.35,1.09,1.15,1.09,1.42,0,2.11-1.36,2.11-3.41,0-.29,0-.8.02-1.18-.37,1.04-1.2,1.62-2.42,1.62-1.68,0-2.85-1.07-2.85-3.97,0-2.53,1.01-4.5,3.91-4.5,1.34,0,2.61.38,3.39,1.06v6.72c0,3.2-1.79,4.31-4.23,4.31-1.58,0-3.01-.51-3.01-1.84Zm5.17-5.75l.02-3.41c-.29-.22-.75-.37-1.23-.37-1.47,0-1.81,1.55-1.81,3.99,0,2.06.3,2.8,1.26,2.8,1.18,0,1.75-1.18,1.76-3.01Z"/><path class="cls-7" d="m202.49,53.79c0,.82-.56,1.41-1.3,1.42-.42,0-.75-.13-.94-.34.24-.4.3-.67.3-1.09,0-.54-.24-.85-.7-.85-.77,0-1.26,1.2-1.26,3.73,0,2.1,0,2.67.34,3.49-.18.18-.59.45-1.18.46-.64,0-1.2-.43-1.2-1.18v-5.07c0-.61-.14-.85-.43-.85-.11,0-.32.03-.42.19-.13-.21-.19-.42-.19-.66,0-.62.45-1.07,1.25-1.07.9,0,1.5.56,1.58,1.73.38-1.17,1.07-1.75,2.11-1.75,1.2,0,2.05.69,2.05,1.83Z"/><path class="cls-7" d="m206.28,60.21c-.19.18-.61.46-1.2.46-.64,0-1.15-.4-1.15-1.07v-5.15c0-.61-.05-1.34-.3-2.03.18-.16.58-.45,1.15-.45.69,0,1.18.38,1.18,1.07l.02,5.15c0,.61.03,1.34.3,2.02Zm-2.61-10.21c0-.67.53-1.2,1.2-1.2s1.17.53,1.17,1.2-.51,1.18-1.17,1.18-1.2-.53-1.2-1.18Z"/><path class="cls-7" d="m208.02,59.62v-9.81c0-.69.48-1.09,1.1-1.09s1.09.3,1.28.46c-.29,1.15-.34,2.58-.34,3.31v1.14c.37-1.01,1.23-1.67,2.45-1.67,1.7,0,2.83,1.15,2.83,4.05s-1.12,4.66-3.87,4.66c-1.38,0-2.71-.38-3.46-1.06Zm5.12-3.6c0-2.07-.32-2.96-1.1-2.96-1.33,0-1.95,1.65-1.95,3.46v2.95c.29.22.78.38,1.25.38,1.55-.02,1.81-1.81,1.81-3.83Z"/><path class="cls-7" d="m223.56,59.06c-.42,1.04-1.54,1.62-3.04,1.62-2.45,0-4.03-1.57-4.03-4.37s1.42-4.34,4.07-4.34c1.82,0,3.25.82,3.25,2.42s-1.41,2.45-3.47,2.45c-.51,0-1.02,0-1.6-.06.18,1.94,1.02,2.61,2.39,2.61,1.17,0,1.95-.51,2.3-1.23.21.1.37.34.14.91Zm-4.85-3.03v.02c.13,0,.27.02.43.02,1.02.02,2.43-.18,2.43-2.02,0-1.09-.54-1.36-1.1-1.36-1.1,0-1.76,1.25-1.76,3.34Z"/><path class="cls-7" d="m35.31,79.41c-.16.18-.59.46-1.17.46-.67,0-1.17-.4-1.17-1.07v-7.94c0-.29-.02-.51-.05-.74-.56.74-1.63,1.84-2.16,1.84-.99,0-.88-1.17-.88-1.3.11-.03,2.71-1.81,3.14-2.1.19-.11.48-.21.82-.21.67,0,1.17.4,1.17,1.06v7.97c0,.61.05,1.34.3,2.02Z"/><path class="cls-7" d="m37.62,74.07c0-3.86,1.44-5.79,4.21-5.79s4.21,1.94,4.21,5.79-1.46,5.81-4.21,5.81-4.21-1.94-4.21-5.81Zm6.1,0c0-3.54-.59-5.07-1.89-5.07s-1.91,1.54-1.91,5.07.59,5.07,1.91,5.07,1.89-1.52,1.89-5.07Z"/><path class="cls-7" d="m51.32,78.82v-9.81c0-.69.48-1.09,1.1-1.09s1.09.3,1.28.46c-.29,1.15-.34,2.58-.34,3.31v1.14c.37-1.01,1.23-1.67,2.45-1.67,1.7,0,2.83,1.15,2.83,4.05s-1.12,4.66-3.87,4.66c-1.38,0-2.71-.38-3.46-1.06Zm5.12-3.6c0-2.07-.32-2.96-1.1-2.96-1.33,0-1.95,1.65-1.95,3.46v2.95c.29.22.78.38,1.25.38,1.55-.02,1.81-1.81,1.81-3.83Z"/><path class="cls-7" d="m68.17,78.71c0,.61-.56,1.1-1.47,1.1-.98,0-1.6-.56-1.7-2.14-.58,1.25-1.65,2.14-3.11,2.14-1.23,0-2.1-.67-2.1-1.89,0-1.5,1.41-2.29,2.77-2.69.86-.24,1.66-.3,2.29-.32v-.4c0-1.75-.35-2.64-1.42-2.64-.64,0-1.15.34-1.15,1.2,0,.43.13.93.58,1.18-.24.26-.67.37-1.1.37-1.01,0-1.58-.66-1.58-1.47,0-1.28,1.33-1.98,3.39-1.98,2.35,0,3.42,1.01,3.42,3.47v2.79c0,.56.18.85.53.85.13,0,.34-.06.45-.22.14.21.21.46.21.66Zm-3.25-3.12c-.64,0-1.38.06-1.89.35-.58.29-.98.82-.98,1.49,0,.56.26,1.1.9,1.04.88-.08,1.97-1.28,1.97-2.88Z"/><path class="cls-7" d="m76.95,79.41c-.29.26-.69.46-1.2.46-.67,0-1.18-.4-1.18-1.07v-4.08c-.02-1.58-.24-2.51-1.22-2.51s-1.73,1.18-1.73,3.67c0,2.16,0,2.72.34,3.55-.18.18-.61.45-1.17.45-.7,0-1.22-.45-1.22-1.17v-5.14c-.02-.61-.14-.85-.43-.85-.11,0-.32.03-.42.19-.13-.21-.19-.42-.19-.66,0-.62.45-1.07,1.25-1.07.94,0,1.55.61,1.6,1.89.43-1.2,1.3-1.9,2.67-1.9,1.76,0,2.58,1.09,2.58,3.23v2.99c.02.48.05,1.34.32,2.02Z"/><path class="cls-7" d="m86.59,78.71c0,.61-.56,1.1-1.47,1.1-.98,0-1.6-.56-1.7-2.14-.58,1.25-1.65,2.14-3.11,2.14-1.23,0-2.1-.67-2.1-1.89,0-1.5,1.41-2.29,2.77-2.69.86-.24,1.66-.3,2.29-.32v-.4c0-1.75-.35-2.64-1.42-2.64-.64,0-1.15.34-1.15,1.2,0,.43.13.93.58,1.18-.24.26-.67.37-1.1.37-1.01,0-1.58-.66-1.58-1.47,0-1.28,1.33-1.98,3.39-1.98,2.35,0,3.42,1.01,3.42,3.47v2.79c0,.56.18.85.53.85.13,0,.34-.06.45-.22.14.21.21.46.21.66Zm-3.25-3.12c-.64,0-1.38.06-1.89.35-.58.29-.98.82-.98,1.49,0,.56.26,1.1.9,1.04.88-.08,1.97-1.28,1.97-2.88Z"/><path class="cls-7" d="m95.37,79.41c-.29.26-.69.46-1.2.46-.67,0-1.18-.4-1.18-1.07v-4.08c-.02-1.58-.24-2.51-1.22-2.51s-1.73,1.18-1.73,3.67c0,2.16,0,2.72.34,3.55-.18.18-.61.45-1.17.45-.7,0-1.22-.45-1.22-1.17v-5.14c-.02-.61-.14-.85-.43-.85-.11,0-.32.03-.42.19-.13-.21-.19-.42-.19-.66,0-.62.45-1.07,1.25-1.07.94,0,1.55.61,1.6,1.89.43-1.2,1.3-1.9,2.67-1.9,1.76,0,2.58,1.09,2.58,3.23v2.99c.02.48.05,1.34.32,2.02Z"/><path class="cls-7" d="m103.69,78.26c-.42,1.04-1.54,1.62-3.04,1.62-2.45,0-4.03-1.57-4.03-4.37s1.42-4.34,4.07-4.34c1.82,0,3.25.82,3.25,2.42s-1.41,2.45-3.47,2.45c-.51,0-1.02,0-1.6-.06.18,1.94,1.02,2.61,2.39,2.61,1.17,0,1.95-.51,2.3-1.23.21.1.37.34.14.91Zm-4.85-3.03v.02c.13,0,.27.02.43.02,1.02.02,2.43-.18,2.43-2.02,0-1.09-.54-1.36-1.1-1.36-1.1,0-1.76,1.25-1.76,3.34Z"/><path class="cls-7" d="m111.72,72.99c0,.82-.56,1.41-1.3,1.42-.42,0-.75-.13-.94-.34.24-.4.3-.67.3-1.09,0-.54-.24-.85-.7-.85-.77,0-1.26,1.2-1.26,3.73,0,2.1,0,2.67.34,3.49-.18.18-.59.45-1.18.46-.64,0-1.2-.43-1.2-1.18v-5.07c0-.61-.14-.85-.43-.85-.11,0-.32.03-.42.19-.13-.21-.19-.42-.19-.66,0-.62.45-1.07,1.25-1.07.9,0,1.5.56,1.58,1.73.38-1.17,1.07-1.75,2.11-1.75,1.2,0,2.05.69,2.05,1.82Z"/><path class="cls-7" d="m118.94,79.41c-.19.18-.61.46-1.2.46-.64,0-1.15-.4-1.15-1.07v-5.15c0-.61-.05-1.34-.3-2.03.18-.16.58-.45,1.15-.45.69,0,1.18.38,1.18,1.07l.02,5.15c0,.61.03,1.34.3,2.02Zm-2.61-10.21c0-.67.53-1.2,1.2-1.2s1.17.53,1.17,1.2-.51,1.18-1.17,1.18-1.2-.53-1.2-1.18Z"/><path class="cls-7" d="m128.41,79.41c-.29.26-.69.46-1.2.46-.67,0-1.18-.4-1.18-1.07v-4.08c-.02-1.58-.24-2.51-1.22-2.51s-1.73,1.18-1.73,3.67c0,2.16,0,2.72.34,3.55-.18.18-.61.45-1.17.45-.7,0-1.22-.45-1.22-1.17v-5.14c-.02-.61-.14-.85-.43-.85-.11,0-.32.03-.42.19-.13-.21-.19-.42-.19-.66,0-.62.45-1.07,1.25-1.07.94,0,1.55.61,1.6,1.89.43-1.2,1.3-1.9,2.67-1.9,1.76,0,2.58,1.09,2.58,3.23v2.99c.02.48.05,1.34.32,2.02Z"/><path class="cls-7" d="m138.23,78.72c0,.62-.59,1.07-1.36,1.07-1.02,0-1.55-.79-1.68-2.08-.48,1.44-1.39,2.16-2.69,2.16-2.06,0-2.85-1.76-2.85-4.05,0-2.96,1.23-4.66,3.42-4.66.99,0,1.67.37,1.97.99v-.86c0-.74-.05-1.9-.34-2.91.18-.16.59-.46,1.18-.46.66,0,1.18.4,1.18,1.09l-.02,8.42c0,.56.19.83.54.83.11,0,.32-.03.42-.19.14.22.21.48.21.66Zm-3.23-4.21c0-1.17-.19-2.31-1.41-2.31s-1.71,1.31-1.71,3.57c0,1.92.27,2.96,1.23,2.96,1.31,0,1.89-2.1,1.89-4.23Z"/><path class="cls-7" d="m146.14,78.26c-.42,1.04-1.54,1.62-3.04,1.62-2.45,0-4.03-1.57-4.03-4.37s1.42-4.34,4.07-4.34c1.82,0,3.25.82,3.25,2.42s-1.41,2.45-3.47,2.45c-.51,0-1.02,0-1.6-.06.18,1.94,1.02,2.61,2.39,2.61,1.17,0,1.95-.51,2.3-1.23.21.1.37.34.14.91Zm-4.85-3.03v.02c.13,0,.27.02.43.02,1.02.02,2.43-.18,2.43-2.02,0-1.09-.54-1.36-1.1-1.36-1.1,0-1.76,1.25-1.76,3.34Z"/><path class="cls-7" d="m155.59,79.41c-.29.26-.69.46-1.2.46-.67,0-1.18-.4-1.18-1.07v-4.08c-.02-1.58-.24-2.51-1.22-2.51s-1.73,1.18-1.73,3.67c0,2.16,0,2.72.34,3.55-.18.18-.61.45-1.17.45-.7,0-1.22-.45-1.22-1.17v-5.14c-.02-.61-.14-.85-.43-.85-.11,0-.32.03-.42.19-.13-.21-.19-.42-.19-.66,0-.62.45-1.07,1.25-1.07.94,0,1.55.61,1.6,1.89.43-1.2,1.3-1.9,2.67-1.9,1.76,0,2.58,1.09,2.58,3.23v2.99c.02.48.05,1.34.32,2.02Z"/><path class="cls-7" d="m160.18,78c0-.58.35-1.28,1.54-1.09-.06.3-.05.56.03.85.1.67.64,1.34,1.78,1.34.82,0,1.46-.3,1.46-.99,0-.85-.93-1.22-1.91-1.68-1.23-.59-2.62-1.23-2.62-2.94s1.47-2.34,3.17-2.34,2.91.53,2.91,1.57c0,.48-.24.94-.98.96-.22.03-.38.02-.56-.02.03-.3.02-.66-.11-.93-.18-.51-.64-.85-1.34-.85-.64,0-1.23.26-1.23.9,0,.88.93,1.31,1.95,1.81,1.23.59,2.66,1.25,2.66,2.72,0,1.26-.98,2.56-3.68,2.56-2.08,0-3.06-.78-3.06-1.87Z"/><path class="cls-7" d="m167.88,75.54c0-2.75,1.46-4.37,3.92-4.37s3.91,1.62,3.91,4.37-1.44,4.34-3.91,4.34-3.92-1.62-3.92-4.34Zm5.6,0c0-2.42-.54-3.65-1.68-3.65s-1.7,1.23-1.7,3.65.53,3.62,1.7,3.62,1.68-1.23,1.68-3.62Z"/><path class="cls-7" d="m177.33,77.6v-8.6c0-.69.51-1.09,1.2-1.09.59,0,1.01.3,1.17.46-.26.96-.3,1.75-.3,3.12v5.92c0,.56.19.85.58.85.14,0,.38-.06.48-.22.14.21.21.46.21.66,0,.64-.64,1.1-1.41,1.1-1.25,0-1.92-.85-1.92-2.21Z"/><path class="cls-7" d="m188.55,78.26c-.42,1.04-1.54,1.62-3.04,1.62-2.45,0-4.03-1.57-4.03-4.37s1.42-4.34,4.07-4.34c1.82,0,3.25.82,3.25,2.42s-1.41,2.45-3.47,2.45c-.51,0-1.02,0-1.6-.06.18,1.94,1.02,2.61,2.39,2.61,1.17,0,1.95-.51,2.3-1.23.21.1.37.34.14.91Zm-4.85-3.03v.02c.13,0,.27.02.43.02,1.02.02,2.43-.18,2.43-2.02,0-1.09-.54-1.36-1.1-1.36-1.1,0-1.76,1.25-1.76,3.34Z"/><path class="cls-7" d="m198.01,79.41c-.29.26-.69.46-1.2.46-.67,0-1.18-.4-1.18-1.07v-4.08c-.02-1.58-.24-2.51-1.22-2.51s-1.73,1.18-1.73,3.67c0,2.16,0,2.72.34,3.55-.18.18-.61.45-1.17.45-.7,0-1.22-.45-1.22-1.17v-5.14c-.02-.61-.14-.85-.43-.85-.11,0-.32.03-.42.19-.13-.21-.19-.42-.19-.66,0-.62.45-1.07,1.25-1.07.94,0,1.55.61,1.6,1.89.43-1.2,1.3-1.9,2.67-1.9,1.76,0,2.58,1.09,2.58,3.23v2.99c.02.48.05,1.34.32,2.02Z"/><path class="cls-7" d="m202.74,81.41c0-.82.61-1.33,1.44-1.33.43,0,.77.13.96.35-.32.27-.48.67-.48,1.09,0,.62.35,1.09,1.15,1.09,1.42,0,2.11-1.36,2.11-3.41,0-.29,0-.8.02-1.18-.37,1.04-1.2,1.62-2.42,1.62-1.68,0-2.85-1.07-2.85-3.97,0-2.53,1.01-4.5,3.91-4.5,1.34,0,2.61.38,3.39,1.06v6.72c0,3.2-1.79,4.31-4.23,4.31-1.58,0-3.01-.51-3.01-1.84Zm5.17-5.75l.02-3.41c-.29-.22-.75-.37-1.23-.37-1.47,0-1.81,1.55-1.81,3.99,0,2.06.3,2.8,1.26,2.8,1.18,0,1.75-1.18,1.76-3.01Z"/><path class="cls-7" d="m219.8,78.71c0,.61-.56,1.1-1.47,1.1-.98,0-1.6-.56-1.7-2.14-.58,1.25-1.65,2.14-3.11,2.14-1.23,0-2.1-.67-2.1-1.89,0-1.5,1.41-2.29,2.77-2.69.86-.24,1.66-.3,2.29-.32v-.4c0-1.75-.35-2.64-1.42-2.64-.64,0-1.15.34-1.15,1.2,0,.43.13.93.58,1.18-.24.26-.67.37-1.1.37-1.01,0-1.58-.66-1.58-1.47,0-1.28,1.33-1.98,3.39-1.98,2.35,0,3.42,1.01,3.42,3.47v2.79c0,.56.18.85.53.85.13,0,.34-.06.45-.22.14.21.21.46.21.66Zm-6.16-9.4c0-.88.67-1.44,1.63-1.44s1.57.54,1.57,1.38c-.02.86-.67,1.42-1.63,1.42s-1.57-.54-1.57-1.36Zm2.91,6.27c-.64,0-1.38.06-1.89.35-.58.29-.98.82-.98,1.49,0,.56.26,1.1.9,1.04.88-.08,1.97-1.28,1.97-2.88Zm-1.92-6.31c0,.54.22.83.61.83s.61-.29.61-.83-.21-.85-.61-.85-.61.3-.61.85Z"/><path class="cls-7" d="m227.16,72.99c0,.82-.56,1.41-1.3,1.42-.42,0-.75-.13-.94-.34.24-.4.3-.67.3-1.09,0-.54-.24-.85-.7-.85-.77,0-1.26,1.2-1.26,3.73,0,2.1,0,2.67.34,3.49-.18.18-.59.45-1.18.46-.64,0-1.2-.43-1.2-1.18v-5.07c0-.61-.14-.85-.43-.85-.11,0-.32.03-.42.19-.13-.21-.19-.42-.19-.66,0-.62.45-1.07,1.25-1.07.9,0,1.5.56,1.58,1.73.38-1.17,1.07-1.75,2.11-1.75,1.2,0,2.05.69,2.05,1.82Z"/><path class="cls-7" d="m239.5,79.41c-.29.26-.69.46-1.2.46-.67,0-1.18-.4-1.18-1.07v-4.08c-.02-1.58-.24-2.51-1.22-2.51s-1.73,1.18-1.73,3.67c0,2.16,0,2.72.34,3.55-.18.18-.61.45-1.17.45-.7,0-1.22-.45-1.22-1.17v-5.14c-.02-.61-.14-.85-.43-.85-.11,0-.32.03-.42.19-.13-.21-.19-.42-.19-.66,0-.62.45-1.07,1.25-1.07.94,0,1.55.61,1.6,1.89.43-1.2,1.3-1.9,2.67-1.9,1.76,0,2.58,1.09,2.58,3.23v2.99c.02.48.05,1.34.32,2.02Z"/><path class="cls-7" d="m247.81,78.26c-.42,1.04-1.54,1.62-3.04,1.62-2.45,0-4.03-1.57-4.03-4.37s1.42-4.34,4.07-4.34c1.82,0,3.25.82,3.25,2.42s-1.41,2.45-3.47,2.45c-.51,0-1.02,0-1.6-.06.18,1.94,1.02,2.61,2.39,2.61,1.17,0,1.95-.51,2.3-1.23.21.1.37.34.14.91Zm-4.85-3.03v.02c.13,0,.27.02.43.02,1.02.02,2.43-.18,2.43-2.02,0-1.09-.54-1.36-1.1-1.36-1.1,0-1.76,1.25-1.76,3.34Z"/><path class="cls-7" d="m257.72,78.72c0,.62-.59,1.07-1.36,1.07-1.02,0-1.55-.79-1.68-2.08-.48,1.44-1.39,2.16-2.69,2.16-2.06,0-2.85-1.76-2.85-4.05,0-2.96,1.23-4.66,3.42-4.66.99,0,1.67.37,1.97.99v-.86c0-.74-.05-1.9-.34-2.91.18-.16.59-.46,1.18-.46.66,0,1.18.4,1.18,1.09l-.02,8.42c0,.56.19.83.54.83.11,0,.32-.03.42-.19.14.22.21.48.21.66Zm-3.23-4.21c0-1.17-.19-2.31-1.41-2.31s-1.71,1.31-1.71,3.57c0,1.92.27,2.96,1.23,2.96,1.31,0,1.89-2.1,1.89-4.23Z"/><path class="cls-7" d="m259.27,78.69c0-.67.53-1.18,1.2-1.18s1.17.51,1.17,1.18-.51,1.18-1.17,1.18-1.2-.53-1.2-1.18Z"/><path class="cls-7" d="m36.04,122.58c-.18.2-.67.52-1.31.52-.76,0-1.31-.45-1.31-1.21v-8.93c0-.32-.02-.58-.05-.83-.63.83-1.84,2.07-2.43,2.07-1.12,0-.99-1.31-.99-1.46.13-.04,3.04-2.04,3.53-2.36.22-.13.54-.23.92-.23.76,0,1.31.45,1.31,1.19v8.97c0,.68.05,1.51.34,2.27Z"/><path class="cls-7" d="m50.71,121.66c0,.72-.63,1.46-1.75,1.46s-1.6-.77-2.3-2.11l-.74-1.33-1.57,2.74c-.22.38-.58.68-1.17.68-.63,0-1.21-.36-1.3-1.4.9-.23,1.44-.76,1.89-1.46l1.35-1.98-1.3-2.23c-.25-.45-.47-.65-.7-.65-.27,0-.5.25-.58.5-.4-.2-.72-.56-.72-1.1,0-.7.56-1.48,1.82-1.48,1.1,0,1.44.58,2.25,2.11l.59,1.15,1.46-2.54c.22-.4.56-.72,1.21-.72.79,0,1.24.43,1.35,1.44-.94.23-1.44.83-1.91,1.48l-1.3,1.8,1.4,2.39c.23.41.52.63.74.63.2,0,.47-.23.52-.49.38.16.74.54.74,1.1Z"/><path class="cls-7" d="m98.34,114.3c.16.41.16.83,0,1.24h-7.17c-.16-.41-.16-.83,0-1.24h7.17Zm0,3.55c.16.41.16.83,0,1.24h-7.17c-.16-.41-.16-.83,0-1.24h7.17Z"/><path class="cls-7" d="m110.09,122.58c-.18.2-.67.52-1.31.52-.76,0-1.31-.45-1.31-1.21v-8.93c0-.32-.02-.58-.05-.83-.63.83-1.84,2.07-2.43,2.07-1.12,0-.99-1.31-.99-1.46.13-.04,3.04-2.04,3.53-2.36.22-.13.54-.23.92-.23.76,0,1.31.45,1.31,1.19v8.97c0,.68.05,1.51.34,2.27Z"/><path class="cls-7" d="m125.38,117.86c0,3.42-1.51,5.24-3.89,5.24-1.06,0-1.84-.38-2.18-1.1v.92c0,.81.05,2.21.36,3.33-.2.18-.67.5-1.33.5-.74,0-1.33-.45-1.33-1.19l.02-9.51c0-.65-.14-.92-.49-.92-.13,0-.36.04-.47.2-.14-.23-.22-.54-.22-.74,0-.7.58-1.21,1.42-1.21,1.13,0,1.71.88,1.85,2.36.54-1.62,1.57-2.45,3.03-2.45,2.43,0,3.22,2.14,3.22,4.56Zm-2.48-.02c0-1.96-.27-3.28-1.42-3.28-1.48,0-2.12,2.38-2.12,4.54,0,1.84.4,2.79,1.57,2.79,1.41,0,1.98-1.46,1.98-4.05Z"/><path class="cls-7" d="m126.65,118.23c0-3.1,1.64-4.92,4.41-4.92s4.39,1.82,4.39,4.92-1.62,4.88-4.39,4.88-4.41-1.82-4.41-4.88Zm6.3,0c0-2.72-.61-4.11-1.89-4.11s-1.91,1.39-1.91,4.11.59,4.07,1.91,4.07,1.89-1.39,1.89-4.07Z"/><path class="cls-7" d="m140.12,122.58c-.22.2-.68.52-1.35.52-.72,0-1.3-.45-1.3-1.21v-5.8c0-.68-.05-1.51-.34-2.29.2-.18.65-.5,1.3-.5.77,0,1.33.43,1.33,1.21l.02,5.8c0,.68.04,1.51.34,2.27Zm-2.94-11.49c0-.76.59-1.35,1.35-1.35s1.31.59,1.31,1.35-.58,1.33-1.31,1.33-1.35-.59-1.35-1.33Z"/><path class="cls-7" d="m150.77,122.58c-.32.29-.77.52-1.35.52-.76,0-1.33-.45-1.33-1.21v-4.59c-.02-1.78-.27-2.83-1.37-2.83s-1.94,1.33-1.94,4.12c0,2.43,0,3.06.38,4-.2.2-.68.5-1.31.5-.79,0-1.37-.5-1.37-1.31v-5.78c-.02-.68-.16-.95-.49-.95-.13,0-.36.04-.47.22-.14-.23-.22-.47-.22-.74,0-.7.5-1.21,1.41-1.21,1.06,0,1.75.68,1.8,2.12.49-1.35,1.46-2.14,3.01-2.14,1.98,0,2.9,1.22,2.9,3.64v3.37c.02.54.05,1.51.36,2.27Z"/><path class="cls-7" d="m157.52,113.51l-.02.56c-.02.38-.27.58-.59.58h-1.6v5.71c0,.63.27.95.83.95.23,0,.63-.07.72-.25.18.23.23.54.23.74,0,.74-.74,1.24-1.91,1.24-1.4,0-2.2-.95-2.2-2.48v-5.91h-.25c-.23,0-.85.02-1.08.05l.02-.56c.02-.38.29-.56.61-.56h.7v-1.21c0-.76.58-1.21,1.35-1.21.67,0,1.13.34,1.31.52-.16.65-.25,1.21-.31,1.89h.05c.18,0,1.94-.04,2.12-.07Z"/><path class="cls-7" d="m36.04,180.18c-.18.2-.67.52-1.31.52-.76,0-1.31-.45-1.31-1.21v-8.93c0-.32-.02-.58-.05-.83-.63.83-1.84,2.07-2.43,2.07-1.12,0-.99-1.31-.99-1.46.13-.04,3.04-2.04,3.53-2.36.22-.13.54-.23.92-.23.76,0,1.31.45,1.31,1.19v8.97c0,.68.05,1.51.34,2.27Z"/><path class="cls-7" d="m50.71,179.26c0,.72-.63,1.46-1.75,1.46s-1.6-.77-2.3-2.11l-.74-1.33-1.57,2.74c-.22.38-.58.68-1.17.68-.63,0-1.21-.36-1.3-1.4.9-.23,1.44-.76,1.89-1.46l1.35-1.98-1.3-2.23c-.25-.45-.47-.65-.7-.65-.27,0-.5.25-.58.5-.4-.2-.72-.56-.72-1.1,0-.7.56-1.48,1.82-1.48,1.1,0,1.44.58,2.25,2.11l.59,1.15,1.46-2.54c.22-.4.56-.72,1.21-.72.79,0,1.24.43,1.35,1.44-.94.23-1.44.83-1.91,1.48l-1.3,1.8,1.4,2.39c.23.41.52.63.74.63.2,0,.47-.23.52-.49.38.16.74.54.74,1.1Z"/><path class="cls-7" d="m98.34,171.9c.16.41.16.83,0,1.24h-7.17c-.16-.41-.16-.83,0-1.24h7.17Zm0,3.55c.16.41.16.83,0,1.24h-7.17c-.16-.42-.16-.83,0-1.24h7.17Z"/><path class="cls-7" d="m104.21,179.19c1.13-1.22,5.92-4.27,5.92-8.19,0-1.31-.54-2.57-1.87-2.57-1.67,0-2,1.93-2,3.24-1.58,0-1.93-.9-1.93-1.51,0-1.31,1.57-2.5,4.09-2.5,2.36,0,4.2,1.1,4.2,3.51,0,4.41-5.33,7.31-6.81,8.12,1.78-.05,5.65-.7,6.84-1.3.59.43.61,2.45-.13,2.47h-8.01c-.27-.22-.47-.72-.31-1.26Z"/><path class="cls-7" d="m127.27,175.47c0,3.42-1.51,5.24-3.89,5.24-1.06,0-1.84-.38-2.18-1.1v.92c0,.81.05,2.21.36,3.33-.2.18-.67.5-1.33.5-.74,0-1.33-.45-1.33-1.19l.02-9.51c0-.65-.14-.92-.49-.92-.13,0-.36.04-.47.2-.14-.23-.22-.54-.22-.74,0-.7.58-1.21,1.42-1.21,1.13,0,1.71.88,1.85,2.36.54-1.62,1.57-2.45,3.03-2.45,2.43,0,3.22,2.14,3.22,4.56Zm-2.49-.02c0-1.96-.27-3.28-1.42-3.28-1.48,0-2.12,2.38-2.12,4.54,0,1.84.4,2.79,1.57,2.79,1.4,0,1.98-1.46,1.98-4.05Z"/><path class="cls-7" d="m128.54,175.83c0-3.1,1.64-4.92,4.41-4.92s4.39,1.82,4.39,4.92-1.62,4.88-4.39,4.88-4.41-1.82-4.41-4.88Zm6.3,0c0-2.72-.61-4.11-1.89-4.11s-1.91,1.39-1.91,4.11.59,4.07,1.91,4.07,1.89-1.39,1.89-4.07Z"/><path class="cls-7" d="m142.01,180.18c-.22.2-.68.52-1.35.52-.72,0-1.3-.45-1.3-1.21v-5.8c0-.68-.05-1.51-.34-2.29.2-.18.65-.5,1.3-.5.77,0,1.33.43,1.33,1.21l.02,5.8c0,.68.04,1.51.34,2.27Zm-2.94-11.49c0-.76.59-1.35,1.35-1.35s1.31.59,1.31,1.35-.58,1.33-1.31,1.33-1.35-.59-1.35-1.33Z"/><path class="cls-7" d="m152.66,180.18c-.32.29-.77.52-1.35.52-.76,0-1.33-.45-1.33-1.21v-4.59c-.02-1.78-.27-2.83-1.37-2.83s-1.94,1.33-1.94,4.12c0,2.43,0,3.06.38,4-.2.2-.68.5-1.31.5-.79,0-1.37-.5-1.37-1.31v-5.78c-.02-.68-.16-.95-.49-.95-.13,0-.36.04-.47.22-.14-.23-.22-.47-.22-.74,0-.7.5-1.21,1.41-1.21,1.06,0,1.75.68,1.8,2.12.49-1.35,1.46-2.14,3.01-2.14,1.98,0,2.9,1.22,2.9,3.64v3.37c.02.54.05,1.51.36,2.27Z"/><path class="cls-7" d="m159.41,171.11l-.02.56c-.02.38-.27.58-.59.58h-1.6v5.71c0,.63.27.95.83.95.23,0,.63-.07.72-.25.18.23.23.54.23.74,0,.74-.74,1.24-1.91,1.24-1.4,0-2.2-.95-2.2-2.48v-5.91h-.25c-.23,0-.85.02-1.08.05l.02-.56c.02-.38.29-.56.61-.56h.7v-1.21c0-.76.58-1.21,1.35-1.21.67,0,1.13.34,1.31.52-.16.65-.25,1.21-.31,1.89h.05c.18,0,1.94-.04,2.12-.07Z"/><path class="cls-7" d="m39.02,237.94c0,3.41-1.41,5.14-4.19,5.14s-4.08-1.57-4.08-5.14v-3.97c0-.61-.05-1.34-.3-2.02.18-.18.61-.46,1.2-.46.66,0,1.18.4,1.18,1.07v5.49c0,3.03.61,4.29,2,4.29,1.47,0,2.11-1.49,2.11-4.29v-4.08c0-.61-.05-1.34-.3-2.02.19-.18.61-.46,1.18-.46.67,0,1.2.4,1.2,1.07v5.38Z"/><path class="cls-7" d="m48.89,242.61c-.29.26-.69.46-1.2.46-.67,0-1.18-.4-1.18-1.07v-4.08c-.02-1.58-.24-2.51-1.22-2.51s-1.73,1.18-1.73,3.67c0,2.16,0,2.72.34,3.55-.18.18-.61.45-1.17.45-.7,0-1.22-.45-1.22-1.17v-5.14c-.02-.61-.14-.85-.43-.85-.11,0-.32.03-.42.19-.13-.21-.19-.42-.19-.66,0-.62.45-1.07,1.25-1.07.94,0,1.55.61,1.6,1.89.43-1.2,1.3-1.9,2.67-1.9,1.76,0,2.58,1.09,2.58,3.23v2.99c.02.48.05,1.34.32,2.02Z"/><path class="cls-7" d="m58.72,241.92c0,.62-.59,1.07-1.36,1.07-1.02,0-1.55-.79-1.68-2.08-.48,1.44-1.39,2.16-2.69,2.16-2.06,0-2.85-1.76-2.85-4.05,0-2.96,1.23-4.66,3.42-4.66.99,0,1.67.37,1.97.99v-.86c0-.74-.05-1.9-.34-2.91.18-.16.59-.46,1.18-.46.66,0,1.18.4,1.18,1.09l-.02,8.42c0,.56.19.83.54.83.11,0,.32-.03.42-.19.14.22.21.48.21.66Zm-3.23-4.21c0-1.17-.19-2.31-1.41-2.31s-1.71,1.31-1.71,3.57c0,1.92.27,2.96,1.23,2.96,1.31,0,1.89-2.1,1.89-4.23Z"/><path class="cls-7" d="m59.61,244.61c0-.82.61-1.33,1.44-1.33.43,0,.77.13.96.35-.32.27-.48.67-.48,1.09,0,.62.35,1.09,1.15,1.09,1.42,0,2.11-1.36,2.11-3.41,0-.29,0-.8.02-1.18-.37,1.04-1.2,1.62-2.42,1.62-1.68,0-2.85-1.07-2.85-3.97,0-2.53,1.01-4.5,3.91-4.5,1.34,0,2.61.38,3.39,1.06v6.72c0,3.2-1.79,4.31-4.23,4.31-1.58,0-3.01-.51-3.01-1.84Zm5.17-5.75l.02-3.41c-.29-.22-.75-.37-1.23-.37-1.47,0-1.81,1.55-1.81,3.99,0,2.06.3,2.8,1.26,2.8,1.18,0,1.75-1.18,1.76-3.01Z"/><path class="cls-7" d="m76.67,241.91c0,.61-.56,1.1-1.47,1.1-.98,0-1.6-.56-1.7-2.14-.58,1.25-1.65,2.14-3.11,2.14-1.23,0-2.1-.67-2.1-1.89,0-1.5,1.41-2.29,2.77-2.69.86-.24,1.66-.3,2.29-.32v-.4c0-1.75-.35-2.64-1.42-2.64-.64,0-1.15.34-1.15,1.2,0,.43.13.93.58,1.18-.24.26-.67.37-1.1.37-1.01,0-1.58-.66-1.58-1.47,0-1.28,1.33-1.98,3.39-1.98,2.35,0,3.42,1.01,3.42,3.47v2.79c0,.56.18.85.53.85.13,0,.34-.06.45-.22.14.21.21.46.21.66Zm-6.16-9.4c0-.88.67-1.44,1.63-1.44s1.57.54,1.57,1.38c-.02.86-.67,1.42-1.63,1.42s-1.57-.54-1.57-1.36Zm2.91,6.27c-.64,0-1.38.06-1.89.35-.58.29-.98.82-.98,1.49,0,.56.26,1.1.9,1.04.88-.08,1.97-1.28,1.97-2.88Zm-1.92-6.31c0,.54.22.83.61.83s.61-.29.61-.83-.21-.85-.61-.85-.61.3-.61.85Z"/><path class="cls-7" d="m89.13,241.91c0,.61-.56,1.1-1.47,1.1-.98,0-1.6-.56-1.7-2.14-.58,1.25-1.65,2.14-3.11,2.14-1.23,0-2.1-.67-2.1-1.89,0-1.5,1.41-2.29,2.77-2.69.86-.24,1.66-.3,2.29-.32v-.4c0-1.75-.35-2.64-1.42-2.64-.64,0-1.15.34-1.15,1.2,0,.43.13.93.58,1.18-.24.26-.67.37-1.1.37-1.01,0-1.58-.66-1.58-1.47,0-1.28,1.33-1.98,3.39-1.98,2.35,0,3.42,1.01,3.42,3.47v2.79c0,.56.18.85.53.85.13,0,.34-.06.45-.22.14.21.21.46.21.66Zm-3.25-3.12c-.64,0-1.38.06-1.89.35-.58.29-.98.82-.98,1.49,0,.56.26,1.1.9,1.04.88-.08,1.97-1.28,1.97-2.88Z"/><path class="cls-7" d="m94.54,234.54l-.02.5c-.02.34-.24.51-.53.51h-1.42v5.07c0,.56.24.85.74.85.21,0,.56-.06.64-.22.16.21.21.48.21.66,0,.66-.66,1.1-1.7,1.1-1.25,0-1.95-.85-1.95-2.21v-5.25h-.22c-.21,0-.75.02-.96.05l.02-.5c.02-.34.26-.5.54-.5h.62v-1.07c0-.67.51-1.07,1.2-1.07.59,0,1.01.3,1.17.46-.14.58-.22,1.07-.27,1.68h.05c.16,0,1.73-.03,1.89-.06Z"/><path class="cls-7" d="m98.92,244.61c0-.82.61-1.33,1.44-1.33.43,0,.77.13.96.35-.32.27-.48.67-.48,1.09,0,.62.35,1.09,1.15,1.09,1.42,0,2.11-1.36,2.11-3.41,0-.29,0-.8.02-1.18-.37,1.04-1.2,1.62-2.42,1.62-1.68,0-2.85-1.07-2.85-3.97,0-2.53,1.01-4.5,3.91-4.5,1.34,0,2.61.38,3.39,1.06v6.72c0,3.2-1.79,4.31-4.23,4.31-1.58,0-3.01-.51-3.01-1.84Zm5.17-5.75l.02-3.41c-.29-.22-.75-.37-1.23-.37-1.47,0-1.81,1.55-1.81,3.99,0,2.06.3,2.8,1.26,2.8,1.18,0,1.75-1.18,1.76-3.01Z"/><path class="cls-7" d="m114.3,236.19c0,.82-.56,1.41-1.3,1.42-.42,0-.75-.13-.94-.34.24-.4.3-.67.3-1.09,0-.54-.24-.85-.7-.85-.77,0-1.26,1.2-1.26,3.73,0,2.1,0,2.67.34,3.49-.18.18-.59.45-1.18.46-.64,0-1.2-.43-1.2-1.18v-5.07c0-.61-.14-.85-.43-.85-.11,0-.32.03-.42.19-.13-.21-.19-.42-.19-.66,0-.62.45-1.07,1.25-1.07.9,0,1.5.56,1.58,1.73.38-1.17,1.07-1.75,2.11-1.75,1.2,0,2.05.69,2.05,1.82Z"/><path class="cls-7" d="m118.09,242.61c-.19.18-.61.46-1.2.46-.64,0-1.15-.4-1.15-1.07v-5.15c0-.61-.05-1.34-.3-2.03.18-.16.58-.45,1.15-.45.69,0,1.18.38,1.18,1.07l.02,5.15c0,.61.03,1.34.3,2.02Zm-2.61-10.21c0-.67.53-1.2,1.2-1.2s1.17.53,1.17,1.2-.51,1.18-1.17,1.18-1.2-.53-1.2-1.18Z"/><path class="cls-7" d="m119.83,242.02v-9.81c0-.69.48-1.09,1.1-1.09s1.09.3,1.28.46c-.29,1.15-.34,2.58-.34,3.31v1.14c.37-1.01,1.23-1.67,2.45-1.67,1.7,0,2.83,1.15,2.83,4.05s-1.12,4.66-3.87,4.66c-1.38,0-2.71-.38-3.46-1.06Zm5.12-3.6c0-2.07-.32-2.96-1.1-2.96-1.33,0-1.95,1.65-1.95,3.46v2.95c.29.22.78.38,1.25.38,1.55-.02,1.81-1.81,1.81-3.83Z"/><path class="cls-7" d="m135.37,241.46c-.42,1.04-1.54,1.62-3.04,1.62-2.45,0-4.03-1.57-4.03-4.37s1.42-4.34,4.07-4.34c1.82,0,3.25.82,3.25,2.42s-1.41,2.45-3.47,2.45c-.51,0-1.02,0-1.6-.06.18,1.94,1.02,2.61,2.39,2.61,1.17,0,1.95-.51,2.3-1.23.21.1.37.34.14.91Zm-4.85-3.03v.02c.13,0,.27.02.43.02,1.02.02,2.43-.18,2.43-2.02,0-1.09-.54-1.36-1.1-1.36-1.1,0-1.76,1.25-1.76,3.34Z"/><path class="cls-7" d="m148.7,241.92c0,.62-.59,1.07-1.36,1.07-1.02,0-1.55-.79-1.68-2.08-.48,1.44-1.39,2.16-2.69,2.16-2.06,0-2.85-1.76-2.85-4.05,0-2.96,1.23-4.66,3.42-4.66.99,0,1.67.37,1.97.99v-.86c0-.74-.05-1.9-.34-2.91.18-.16.59-.46,1.18-.46.66,0,1.18.4,1.18,1.09l-.02,8.42c0,.56.19.83.54.83.11,0,.32-.03.42-.19.14.22.21.48.21.66Zm-3.23-4.21c0-1.17-.19-2.31-1.41-2.31s-1.71,1.31-1.71,3.57c0,1.92.27,2.96,1.23,2.96,1.31,0,1.89-2.1,1.89-4.23Z"/><path class="cls-7" d="m156.6,241.46c-.42,1.04-1.54,1.62-3.04,1.62-2.45,0-4.03-1.57-4.03-4.37s1.42-4.34,4.07-4.34c1.82,0,3.25.82,3.25,2.42s-1.41,2.45-3.47,2.45c-.51,0-1.02,0-1.6-.06.18,1.94,1.02,2.61,2.39,2.61,1.17,0,1.95-.51,2.3-1.23.21.1.37.34.14.91Zm-4.85-3.03v.02c.13,0,.27.02.43.02,1.02.02,2.43-.18,2.43-2.02,0-1.09-.54-1.36-1.1-1.36-1.1,0-1.76,1.25-1.76,3.34Z"/><path class="cls-7" d="m169.86,241.99c0,.64-.45,1.07-1.26,1.07-.94,0-1.55-.61-1.58-1.87-.43,1.22-1.28,1.91-2.62,1.91-1.71,0-2.53-.88-2.53-3.25v-2.98c0-.48-.05-1.34-.3-2.03.27-.22.64-.46,1.18-.46.69,0,1.18.4,1.18,1.09l.02,4.07c0,1.73.21,2.59,1.14,2.59.98,0,1.7-1.22,1.7-3.75,0-2.15,0-2.72-.35-3.55.18-.16.61-.45,1.18-.45.67,0,1.2.45,1.2,1.18l.02,5.14c0,.61.13.83.42.83.11,0,.3-.03.42-.18.14.21.21.42.21.64Z"/><path class="cls-7" d="m183.32,242.61c-.27.24-.66.46-1.18.46-.69,0-1.2-.4-1.2-1.07v-4.08c0-1.39-.08-2.58-1.02-2.58-.86,0-1.67,1.18-1.7,3.67l.02,1.58c0,.48.03,1.34.29,2.02-.26.24-.61.46-1.15.46-.66,0-1.14-.4-1.14-1.07l-.02-4.08c0-1.65-.19-2.58-1.12-2.58s-1.58,1.2-1.58,3.78c0,2.11,0,2.69.34,3.51-.18.18-.54.45-1.18.45-.67,0-1.18-.45-1.18-1.17l-.02-5.14c0-.59-.16-.85-.46-.85-.14,0-.35.06-.45.24-.14-.22-.19-.43-.19-.66,0-.66.48-1.12,1.28-1.12.94,0,1.54.62,1.62,1.94.38-1.18,1.17-1.95,2.53-1.95s2,.66,2.29,1.89c.38-1.14,1.23-1.89,2.51-1.89,1.63,0,2.43,1.1,2.43,3.23v2.99c0,.48.05,1.34.3,2.02Z"/><path class="cls-7" d="m184.58,238.74c0-2.75,1.46-4.37,3.92-4.37s3.91,1.62,3.91,4.37-1.44,4.34-3.91,4.34-3.92-1.62-3.92-4.34Zm5.6,0c0-2.42-.54-3.65-1.68-3.65s-1.7,1.23-1.7,3.65.53,3.62,1.7,3.62,1.68-1.23,1.68-3.62Z"/><path class="cls-7" d="m202.12,241.92c0,.62-.59,1.07-1.36,1.07-1.02,0-1.55-.79-1.68-2.08-.48,1.44-1.39,2.16-2.69,2.16-2.06,0-2.85-1.76-2.85-4.05,0-2.96,1.23-4.66,3.42-4.66.99,0,1.67.37,1.97.99v-.86c0-.74-.05-1.9-.34-2.91.18-.16.59-.46,1.18-.46.66,0,1.18.4,1.18,1.09l-.02,8.42c0,.56.19.83.54.83.11,0,.32-.03.42-.19.14.22.21.48.21.66Zm-3.23-4.21c0-1.17-.19-2.31-1.41-2.31s-1.71,1.31-1.71,3.57c0,1.92.27,2.96,1.23,2.96,1.31,0,1.89-2.1,1.89-4.23Z"/><path class="cls-7" d="m211.08,242.61c-.29.26-.69.46-1.2.46-.67,0-1.18-.4-1.18-1.07v-4.08c-.02-1.58-.24-2.51-1.22-2.51s-1.73,1.18-1.73,3.67c0,2.16,0,2.72.34,3.55-.18.18-.61.45-1.17.45-.7,0-1.22-.45-1.22-1.17v-5.14c-.02-.61-.14-.85-.43-.85-.11,0-.32.03-.42.19-.13-.21-.19-.42-.19-.66,0-.62.45-1.07,1.25-1.07.94,0,1.55.61,1.6,1.89.43-1.2,1.3-1.9,2.67-1.9,1.76,0,2.58,1.09,2.58,3.23v2.99c.02.48.05,1.34.32,2.02Z"/><path class="cls-7" d="m219.4,241.46c-.42,1.04-1.54,1.62-3.04,1.62-2.45,0-4.03-1.57-4.03-4.37s1.42-4.34,4.07-4.34c1.82,0,3.25.82,3.25,2.42s-1.41,2.45-3.47,2.45c-.51,0-1.02,0-1.6-.06.18,1.94,1.02,2.61,2.39,2.61,1.17,0,1.95-.51,2.3-1.23.21.1.37.34.14.91Zm-4.85-3.03v.02c.13,0,.27.02.43.02,1.02.02,2.43-.18,2.43-2.02,0-1.09-.54-1.36-1.1-1.36-1.1,0-1.76,1.25-1.76,3.34Z"/><path class="cls-7" d="m224.55,242.02v-9.81c0-.69.48-1.09,1.1-1.09s1.09.3,1.28.46c-.29,1.15-.34,2.58-.34,3.31v1.14c.37-1.01,1.23-1.67,2.45-1.67,1.7,0,2.83,1.15,2.83,4.05s-1.12,4.66-3.87,4.66c-1.38,0-2.71-.38-3.46-1.06Zm5.12-3.6c0-2.07-.32-2.96-1.1-2.96-1.33,0-1.95,1.65-1.95,3.46v2.95c.29.22.78.38,1.25.38,1.55-.02,1.81-1.81,1.81-3.83Z"/><path class="cls-7" d="m241.4,241.91c0,.61-.56,1.1-1.47,1.1-.98,0-1.6-.56-1.7-2.14-.58,1.25-1.65,2.14-3.11,2.14-1.23,0-2.1-.67-2.1-1.89,0-1.5,1.41-2.29,2.77-2.69.86-.24,1.66-.3,2.29-.32v-.4c0-1.75-.35-2.64-1.42-2.64-.64,0-1.15.34-1.15,1.2,0,.43.13.93.58,1.18-.24.26-.67.37-1.1.37-1.01,0-1.58-.66-1.58-1.47,0-1.28,1.33-1.98,3.39-1.98,2.35,0,3.42,1.01,3.42,3.47v2.79c0,.56.18.85.53.85.13,0,.34-.06.45-.22.14.21.21.46.21.66Zm-3.25-3.12c-.64,0-1.38.06-1.89.35-.58.29-.98.82-.98,1.49,0,.56.26,1.1.9,1.04.88-.08,1.97-1.28,1.97-2.88Z"/><path class="cls-7" d="m250.18,242.61c-.29.26-.69.46-1.2.46-.67,0-1.18-.4-1.18-1.07v-4.08c-.02-1.58-.24-2.51-1.22-2.51s-1.73,1.18-1.73,3.67c0,2.16,0,2.72.34,3.55-.18.18-.61.45-1.17.45-.7,0-1.22-.45-1.22-1.17v-5.14c-.02-.61-.14-.85-.43-.85-.11,0-.32.03-.42.19-.13-.21-.19-.42-.19-.66,0-.62.45-1.07,1.25-1.07.94,0,1.55.61,1.6,1.89.43-1.2,1.3-1.9,2.67-1.9,1.76,0,2.58,1.09,2.58,3.23v2.99c.02.48.05,1.34.32,2.02Z"/><path class="cls-7" d="m259.82,241.91c0,.61-.56,1.1-1.47,1.1-.98,0-1.6-.56-1.7-2.14-.58,1.25-1.65,2.14-3.11,2.14-1.23,0-2.1-.67-2.1-1.89,0-1.5,1.41-2.29,2.77-2.69.86-.24,1.66-.3,2.29-.32v-.4c0-1.75-.35-2.64-1.42-2.64-.64,0-1.15.34-1.15,1.2,0,.43.13.93.58,1.18-.24.26-.67.37-1.1.37-1.01,0-1.58-.66-1.58-1.47,0-1.28,1.33-1.98,3.39-1.98,2.35,0,3.42,1.01,3.42,3.47v2.79c0,.56.18.85.53.85.13,0,.34-.06.45-.22.14.21.21.46.21.66Zm-3.25-3.12c-.64,0-1.38.06-1.89.35-.58.29-.98.82-.98,1.49,0,.56.26,1.1.9,1.04.88-.08,1.97-1.28,1.97-2.88Z"/><path class="cls-7" d="m268.6,242.61c-.29.26-.69.46-1.2.46-.67,0-1.18-.4-1.18-1.07v-4.08c-.02-1.58-.24-2.51-1.22-2.51s-1.73,1.18-1.73,3.67c0,2.16,0,2.72.34,3.55-.18.18-.61.45-1.17.45-.7,0-1.22-.45-1.22-1.17v-5.14c-.02-.61-.14-.85-.43-.85-.11,0-.32.03-.42.19-.13-.21-.19-.42-.19-.66,0-.62.45-1.07,1.25-1.07.94,0,1.55.61,1.6,1.89.43-1.2,1.3-1.9,2.67-1.9,1.76,0,2.58,1.09,2.58,3.23v2.99c.02.48.05,1.34.32,2.02Z"/><path class="cls-7" d="m276.92,241.46c-.42,1.04-1.54,1.62-3.04,1.62-2.45,0-4.03-1.57-4.03-4.37s1.42-4.34,4.07-4.34c1.82,0,3.25.82,3.25,2.42s-1.41,2.45-3.47,2.45c-.51,0-1.02,0-1.6-.06.18,1.94,1.02,2.61,2.39,2.61,1.17,0,1.95-.51,2.3-1.23.21.1.37.34.14.91Zm-4.85-3.03v.02c.13,0,.27.02.43.02,1.02.02,2.43-.18,2.43-2.02,0-1.09-.54-1.36-1.1-1.36-1.1,0-1.76,1.25-1.76,3.34Z"/><path class="cls-7" d="m284.95,236.19c0,.82-.56,1.41-1.3,1.42-.42,0-.75-.13-.94-.34.24-.4.3-.67.3-1.09,0-.54-.24-.85-.7-.85-.77,0-1.26,1.2-1.26,3.73,0,2.1,0,2.67.34,3.49-.18.18-.59.45-1.18.46-.64,0-1.2-.43-1.2-1.18v-5.07c0-.61-.14-.85-.43-.85-.11,0-.32.03-.42.19-.13-.21-.19-.42-.19-.66,0-.62.45-1.07,1.25-1.07.9,0,1.5.56,1.58,1.73.38-1.17,1.07-1.75,2.11-1.75,1.2,0,2.05.69,2.05,1.82Z"/><path class="cls-7" d="m286.92,244.21c.35-.42.58-.82.58-1.23,0-.82-.66-.98-1.04-1.09,0-.62.5-1.18,1.22-1.18.61,0,1.2.38,1.2,1.46,0,.8-.35,1.58-1.28,2.42-.27-.03-.46-.14-.67-.37Z"/><path class="cls-7" d="m29.99,257.94c0-2.75,1.46-4.37,3.92-4.37s3.91,1.62,3.91,4.37-1.44,4.34-3.91,4.34-3.92-1.62-3.92-4.34Zm5.6,0c0-2.42-.54-3.65-1.68-3.65s-1.7,1.23-1.7,3.65.53,3.62,1.7,3.62,1.68-1.23,1.68-3.62Z"/><path class="cls-7" d="m39.02,263.81c0-.82.61-1.33,1.44-1.33.43,0,.77.13.96.35-.32.27-.48.67-.48,1.09,0,.62.35,1.09,1.15,1.09,1.42,0,2.11-1.36,2.11-3.41,0-.29,0-.8.02-1.18-.37,1.04-1.2,1.62-2.42,1.62-1.68,0-2.85-1.07-2.85-3.97,0-2.53,1.01-4.5,3.91-4.5,1.34,0,2.61.38,3.39,1.06v6.72c0,3.2-1.79,4.31-4.23,4.31-1.58,0-3.01-.51-3.01-1.84Zm5.17-5.75l.02-3.41c-.29-.22-.75-.37-1.23-.37-1.47,0-1.81,1.55-1.81,3.99,0,2.06.3,2.8,1.26,2.8,1.18,0,1.75-1.18,1.76-3.01Z"/><path class="cls-7" d="m59.69,261.12c0,.62-.59,1.07-1.36,1.07-1.02,0-1.55-.79-1.68-2.08-.48,1.44-1.39,2.16-2.69,2.16-2.06,0-2.85-1.76-2.85-4.05,0-2.96,1.23-4.66,3.42-4.66.99,0,1.67.37,1.97.99v-.86c0-.74-.05-1.9-.34-2.91.18-.16.59-.46,1.18-.46.66,0,1.18.4,1.18,1.09l-.02,8.42c0,.56.19.83.54.83.11,0,.32-.03.42-.19.14.22.21.48.21.66Zm-3.23-4.21c0-1.17-.19-2.31-1.41-2.31s-1.71,1.31-1.71,3.57c0,1.92.27,2.96,1.23,2.96,1.31,0,1.89-2.1,1.89-4.23Z"/><path class="cls-7" d="m67.59,260.66c-.42,1.04-1.54,1.62-3.04,1.62-2.45,0-4.03-1.57-4.03-4.37s1.42-4.34,4.07-4.34c1.82,0,3.25.82,3.25,2.42s-1.41,2.45-3.47,2.45c-.51,0-1.02,0-1.6-.06.18,1.94,1.02,2.61,2.39,2.61,1.17,0,1.95-.51,2.3-1.23.21.1.37.34.14.91Zm-4.85-3.03v.02c.13,0,.27.02.43.02,1.02.02,2.43-.18,2.43-2.02,0-1.09-.54-1.36-1.1-1.36-1.1,0-1.76,1.25-1.76,3.34Z"/><path class="cls-7" d="m72.26,260.4c0-.58.35-1.28,1.54-1.09-.06.3-.05.56.03.85.1.67.64,1.34,1.78,1.34.82,0,1.46-.3,1.46-.99,0-.85-.93-1.22-1.91-1.68-1.23-.59-2.62-1.23-2.62-2.94s1.47-2.34,3.17-2.34,2.91.53,2.91,1.57c0,.48-.24.94-.98.96-.22.03-.38.02-.56-.02.03-.3.02-.66-.11-.93-.18-.51-.64-.85-1.34-.85-.64,0-1.23.26-1.23.9,0,.88.93,1.31,1.95,1.81,1.23.59,2.66,1.25,2.66,2.72,0,1.26-.98,2.56-3.68,2.56-2.08,0-3.06-.78-3.06-1.87Z"/><path class="cls-7" d="m88.47,261.19c0,.64-.45,1.07-1.26,1.07-.94,0-1.55-.61-1.58-1.87-.43,1.22-1.28,1.91-2.62,1.91-1.71,0-2.53-.88-2.53-3.25v-2.98c0-.48-.05-1.34-.3-2.03.27-.22.64-.46,1.18-.46.69,0,1.18.4,1.18,1.09l.02,4.07c0,1.73.21,2.59,1.14,2.59.98,0,1.7-1.22,1.7-3.75,0-2.15,0-2.72-.35-3.55.18-.16.61-.45,1.18-.45.67,0,1.2.45,1.2,1.18l.02,5.14c0,.61.13.83.42.83.11,0,.3-.03.42-.18.14.21.21.42.21.64Z"/><path class="cls-7" d="m95.96,255.39c0,.82-.56,1.41-1.3,1.42-.42,0-.75-.13-.94-.34.24-.4.3-.67.3-1.09,0-.54-.24-.85-.7-.85-.77,0-1.26,1.2-1.26,3.73,0,2.1,0,2.67.34,3.49-.18.18-.59.45-1.18.46-.64,0-1.2-.43-1.2-1.18v-5.07c0-.61-.14-.85-.43-.85-.11,0-.32.03-.42.19-.13-.21-.19-.42-.19-.66,0-.62.45-1.07,1.25-1.07.9,0,1.5.56,1.58,1.73.38-1.17,1.07-1.75,2.11-1.75,1.2,0,2.05.69,2.05,1.83Z"/><path class="cls-7" d="m103.82,260.66c-.42,1.04-1.54,1.62-3.04,1.62-2.45,0-4.03-1.57-4.03-4.37s1.42-4.34,4.07-4.34c1.82,0,3.25.82,3.25,2.42s-1.41,2.45-3.47,2.45c-.51,0-1.02,0-1.6-.06.18,1.94,1.02,2.61,2.39,2.61,1.17,0,1.95-.51,2.3-1.23.21.1.37.34.14.91Zm-4.85-3.03v.02c.13,0,.27.02.43.02,1.02.02,2.43-.18,2.43-2.02,0-1.09-.54-1.36-1.1-1.36-1.1,0-1.76,1.25-1.76,3.34Z"/><path class="cls-7" d="m116.55,261.08c0,.67-.64,1.2-1.5,1.2-.69,0-1.33-.37-1.67-1.23l-1.04-2.45c-.46.13-.85.22-1.22.29,0,1.74.02,2.18.35,2.95-.24.19-.59.45-1.25.45-.94,0-1.14-.51-1.14-1.17l-.02-9.7c0-.69.5-1.09,1.18-1.09.61,0,1.01.3,1.17.46-.34,1.78-.26,2.43-.32,3.75v1.02c.48-1.2,1.42-1.98,2.87-1.98s2.03.83,2.03,1.79c0,1.33-1.14,2.24-2.29,2.79.37.08.64.42.93.9l.5.83c.26.46.37.67.69.67.13,0,.29-.03.45-.14.21.21.27.45.27.67Zm-2.66-5.59c0-.66-.3-.88-.74-.88-1.15,0-2.03,1.58-2.03,3.52,1.28-.38,2.77-1.25,2.77-2.64Z"/><path class="cls-7" d="m117.38,257.94c0-2.75,1.46-4.37,3.92-4.37s3.91,1.62,3.91,4.37-1.44,4.34-3.91,4.34-3.92-1.62-3.92-4.34Zm5.6,0c0-2.42-.54-3.65-1.68-3.65s-1.7,1.23-1.7,3.65.53,3.62,1.7,3.62,1.68-1.23,1.68-3.62Z"/><path class="cls-7" d="m134.33,261.08c0,.67-.64,1.2-1.5,1.2-.69,0-1.33-.37-1.67-1.23l-1.04-2.45c-.46.13-.85.22-1.22.29,0,1.74.02,2.18.35,2.95-.24.19-.59.45-1.25.45-.94,0-1.14-.51-1.14-1.17l-.02-9.7c0-.69.5-1.09,1.18-1.09.61,0,1.01.3,1.17.46-.34,1.78-.26,2.43-.32,3.75v1.02c.48-1.2,1.42-1.98,2.87-1.98s2.03.83,2.03,1.79c0,1.33-1.14,2.24-2.29,2.79.37.08.64.42.93.9l.5.83c.26.46.37.67.69.67.13,0,.29-.03.45-.14.21.21.27.45.27.67Zm-2.66-5.59c0-.66-.3-.88-.74-.88-1.15,0-2.03,1.58-2.03,3.52,1.28-.38,2.77-1.25,2.77-2.64Z"/><path class="cls-7" d="m135.16,257.94c0-2.75,1.46-4.37,3.92-4.37s3.91,1.62,3.91,4.37-1.44,4.34-3.91,4.34-3.92-1.62-3.92-4.34Zm5.6,0c0-2.42-.54-3.65-1.68-3.65s-1.7,1.23-1.7,3.65.53,3.62,1.7,3.62,1.68-1.23,1.68-3.62Z"/><path class="cls-7" d="m144.04,260.4c0-.58.35-1.28,1.54-1.09-.06.3-.05.56.03.85.1.67.64,1.34,1.78,1.34.82,0,1.46-.3,1.46-.99,0-.85-.93-1.22-1.91-1.68-1.23-.59-2.62-1.23-2.62-2.94s1.47-2.34,3.17-2.34,2.91.53,2.91,1.57c0,.48-.24.94-.98.96-.22.03-.38.02-.56-.02.03-.3.02-.66-.11-.93-.18-.51-.64-.85-1.34-.85-.64,0-1.23.26-1.23.9,0,.88.93,1.31,1.95,1.81,1.23.59,2.66,1.25,2.66,2.72,0,1.26-.98,2.56-3.68,2.56-2.08,0-3.06-.78-3.06-1.87Z"/><path class="cls-7" d="m159.87,261.81c-.29.26-.69.46-1.2.46-.67,0-1.18-.4-1.18-1.07v-4.08c-.02-1.58-.24-2.51-1.22-2.51s-1.73,1.18-1.73,3.67c0,2.16,0,2.72.34,3.55-.18.18-.61.45-1.17.45-.7,0-1.22-.45-1.22-1.17v-5.14c-.02-.61-.14-.85-.43-.85-.11,0-.32.03-.42.19-.13-.21-.19-.42-.19-.66,0-.62.45-1.07,1.25-1.07.94,0,1.55.61,1.6,1.89.43-1.2,1.3-1.9,2.67-1.9,1.76,0,2.58,1.09,2.58,3.23v2.99c.02.48.05,1.34.32,2.02Z"/><path class="cls-7" d="m168.94,257.94c0,2.72-1.44,4.34-3.91,4.34-.75,0-1.41-.14-1.95-.43l-.38.59c-.32-.02-.54-.14-.67-.4l.4-.64c-.85-.74-1.31-1.92-1.31-3.46,0-2.75,1.46-4.37,3.92-4.37.8,0,1.49.18,2.05.5l.29-.45c.29,0,.51.14.67.38l-.32.51c.78.75,1.22,1.92,1.22,3.43Zm-5.46,1.81l2.85-4.5c-.29-.64-.7-.96-1.3-.96-1.17,0-1.7,1.23-1.7,3.65,0,.7.05,1.31.14,1.81Zm3.23-1.81c0-.64-.03-1.2-.11-1.67l-2.82,4.45c.29.56.69.83,1.25.83,1.14,0,1.68-1.23,1.68-3.62Z"/><path class="cls-7" d="m178.65,261.12c0,.62-.59,1.07-1.36,1.07-1.02,0-1.55-.79-1.68-2.08-.48,1.44-1.39,2.16-2.69,2.16-2.06,0-2.85-1.76-2.85-4.05,0-2.96,1.23-4.66,3.42-4.66.99,0,1.67.37,1.97.99v-.86c0-.74-.05-1.9-.34-2.91.18-.16.59-.46,1.18-.46.66,0,1.18.4,1.18,1.09l-.02,8.42c0,.56.19.83.54.83.11,0,.32-.03.42-.19.14.22.21.48.21.66Zm-3.23-4.21c0-1.17-.19-2.31-1.41-2.31s-1.71,1.31-1.71,3.57c0,1.92.27,2.96,1.23,2.96,1.31,0,1.89-2.1,1.89-4.23Z"/><path class="cls-7" d="m188.06,261.12c0,.62-.59,1.07-1.36,1.07-1.02,0-1.55-.79-1.68-2.08-.48,1.44-1.39,2.16-2.69,2.16-2.06,0-2.85-1.76-2.85-4.05,0-2.96,1.23-4.66,3.42-4.66.99,0,1.67.37,1.97.99v-.86c0-.74-.05-1.9-.34-2.91.18-.16.59-.46,1.18-.46.66,0,1.18.4,1.18,1.09l-.02,8.42c0,.56.19.83.54.83.11,0,.32-.03.42-.19.14.22.21.48.21.66Zm-3.23-4.21c0-1.17-.19-2.31-1.41-2.31s-1.71,1.31-1.71,3.57c0,1.92.27,2.96,1.23,2.96,1.31,0,1.89-2.1,1.89-4.23Z"/><path class="cls-7" d="m195.96,260.66c-.42,1.04-1.54,1.62-3.04,1.62-2.45,0-4.03-1.57-4.03-4.37s1.42-4.34,4.07-4.34c1.82,0,3.25.82,3.25,2.42s-1.41,2.45-3.47,2.45c-.51,0-1.02,0-1.6-.06.18,1.94,1.02,2.61,2.39,2.61,1.17,0,1.95-.51,2.3-1.23.21.1.37.34.14.91Zm-4.85-3.03v.02c.13,0,.27.02.43.02,1.02.02,2.43-.18,2.43-2.02,0-1.09-.54-1.36-1.1-1.36-1.1,0-1.76,1.25-1.76,3.34Z"/><path class="cls-7" d="m203.99,255.39c0,.82-.56,1.41-1.3,1.42-.42,0-.75-.13-.94-.34.24-.4.3-.67.3-1.09,0-.54-.24-.85-.7-.85-.77,0-1.26,1.2-1.26,3.73,0,2.1,0,2.67.34,3.49-.18.18-.59.45-1.18.46-.64,0-1.2-.43-1.2-1.18v-5.07c0-.61-.14-.85-.43-.85-.11,0-.32.03-.42.19-.13-.21-.19-.42-.19-.66,0-.62.45-1.07,1.25-1.07.9,0,1.5.56,1.58,1.73.38-1.17,1.07-1.75,2.11-1.75,1.2,0,2.05.69,2.05,1.83Z"/><path class="cls-7" d="m205.49,261.09c0-.67.53-1.18,1.2-1.18s1.17.51,1.17,1.18-.51,1.18-1.17,1.18-1.2-.53-1.2-1.18Z"/><path class="cls-7" d="m36.04,304.98c-.18.2-.67.52-1.31.52-.76,0-1.31-.45-1.31-1.21v-8.93c0-.32-.02-.58-.05-.83-.63.83-1.84,2.07-2.43,2.07-1.12,0-.99-1.31-.99-1.46.13-.04,3.04-2.04,3.53-2.36.22-.13.54-.23.92-.23.76,0,1.31.45,1.31,1.19v8.97c0,.68.05,1.51.34,2.27Z"/><path class="cls-7" d="m50.71,304.06c0,.72-.63,1.46-1.75,1.46s-1.6-.77-2.3-2.11l-.74-1.33-1.57,2.74c-.22.38-.58.68-1.17.68-.63,0-1.21-.36-1.3-1.4.9-.23,1.44-.76,1.89-1.46l1.35-1.98-1.3-2.23c-.25-.45-.47-.65-.7-.65-.27,0-.5.25-.58.5-.4-.2-.72-.56-.72-1.1,0-.7.56-1.48,1.82-1.48,1.1,0,1.44.58,2.25,2.11l.59,1.15,1.46-2.54c.22-.4.56-.72,1.21-.72.79,0,1.24.43,1.35,1.44-.94.23-1.44.83-1.91,1.48l-1.3,1.8,1.4,2.39c.23.41.52.63.74.63.2,0,.47-.23.52-.49.38.16.74.54.74,1.1Z"/><path class="cls-7" d="m98.34,296.7c.16.41.16.83,0,1.24h-7.17c-.16-.41-.16-.83,0-1.24h7.17Zm0,3.55c.16.41.16.83,0,1.24h-7.17c-.16-.41-.16-.83,0-1.24h7.17Z"/><path class="cls-7" d="m109.99,299.92v1.35h-5.83v-1.35h5.83Z"/><path class="cls-7" d="m117.28,304.98c-.18.2-.67.52-1.31.52-.76,0-1.31-.45-1.31-1.21v-8.93c0-.32-.02-.58-.05-.83-.63.83-1.84,2.07-2.43,2.07-1.12,0-.99-1.31-.99-1.46.13-.04,3.04-2.04,3.53-2.36.22-.13.54-.23.92-.23.76,0,1.31.45,1.31,1.19v8.97c0,.68.05,1.51.34,2.27Z"/><path class="cls-7" d="m132.56,300.27c0,3.42-1.51,5.24-3.89,5.24-1.06,0-1.84-.38-2.18-1.1v.92c0,.81.05,2.21.36,3.33-.2.18-.67.5-1.33.5-.74,0-1.33-.45-1.33-1.19l.02-9.51c0-.65-.14-.92-.49-.92-.13,0-.36.04-.47.2-.14-.23-.22-.54-.22-.74,0-.7.58-1.21,1.42-1.21,1.13,0,1.71.88,1.85,2.36.54-1.62,1.57-2.45,3.03-2.45,2.43,0,3.22,2.14,3.22,4.56Zm-2.48-.02c0-1.96-.27-3.28-1.42-3.28-1.48,0-2.12,2.38-2.12,4.54,0,1.84.4,2.79,1.57,2.79,1.41,0,1.98-1.46,1.98-4.05Z"/><path class="cls-7" d="m133.83,300.63c0-3.1,1.64-4.92,4.41-4.92s4.39,1.82,4.39,4.92-1.62,4.88-4.39,4.88-4.41-1.82-4.41-4.88Zm6.3,0c0-2.72-.61-4.11-1.89-4.11s-1.91,1.39-1.91,4.11.59,4.07,1.91,4.07,1.89-1.39,1.89-4.07Z"/><path class="cls-7" d="m147.3,304.98c-.22.2-.68.52-1.35.52-.72,0-1.3-.45-1.3-1.21v-5.8c0-.68-.05-1.51-.34-2.29.2-.18.65-.5,1.3-.5.77,0,1.33.43,1.33,1.21l.02,5.8c0,.68.04,1.51.34,2.27Zm-2.94-11.49c0-.76.59-1.35,1.35-1.35s1.31.59,1.31,1.35-.58,1.33-1.31,1.33-1.35-.59-1.35-1.33Z"/><path class="cls-7" d="m157.96,304.98c-.32.29-.77.52-1.35.52-.76,0-1.33-.45-1.33-1.21v-4.59c-.02-1.78-.27-2.83-1.37-2.83s-1.94,1.33-1.94,4.12c0,2.43,0,3.06.38,4-.2.2-.68.5-1.31.5-.79,0-1.37-.5-1.37-1.31v-5.78c-.02-.68-.16-.95-.49-.95-.13,0-.36.04-.47.22-.14-.23-.22-.47-.22-.74,0-.7.5-1.21,1.41-1.21,1.06,0,1.75.68,1.8,2.12.49-1.35,1.46-2.14,3.01-2.14,1.98,0,2.9,1.22,2.9,3.64v3.37c.02.54.05,1.51.36,2.27Z"/><path class="cls-7" d="m164.7,295.91l-.02.56c-.02.38-.27.58-.59.58h-1.6v5.71c0,.63.27.95.83.95.23,0,.63-.07.72-.25.18.23.23.54.23.74,0,.74-.74,1.24-1.91,1.24-1.4,0-2.2-.95-2.2-2.48v-5.91h-.25c-.23,0-.85.02-1.08.05l.02-.56c.02-.38.29-.56.61-.56h.7v-1.21c0-.76.58-1.21,1.35-1.21.67,0,1.13.34,1.31.52-.16.65-.25,1.21-.31,1.89h.05c.18,0,1.94-.04,2.12-.07Z"/><path class="cls-7" d="m36.04,364.98c-.18.2-.67.52-1.31.52-.76,0-1.31-.45-1.31-1.21v-8.93c0-.32-.02-.58-.05-.83-.63.83-1.84,2.07-2.43,2.07-1.12,0-.99-1.31-.99-1.46.13-.04,3.04-2.04,3.53-2.36.22-.13.54-.23.92-.23.76,0,1.31.45,1.31,1.19v8.97c0,.68.05,1.51.34,2.27Z"/><path class="cls-7" d="m50.71,364.06c0,.72-.63,1.46-1.75,1.46s-1.6-.77-2.3-2.11l-.74-1.33-1.57,2.74c-.22.38-.58.68-1.17.68-.63,0-1.21-.36-1.3-1.4.9-.23,1.44-.76,1.89-1.46l1.35-1.98-1.3-2.23c-.25-.45-.47-.65-.7-.65-.27,0-.5.25-.58.5-.4-.2-.72-.56-.72-1.1,0-.7.56-1.48,1.82-1.48,1.1,0,1.44.58,2.25,2.11l.59,1.15,1.46-2.54c.22-.4.56-.72,1.21-.72.79,0,1.24.43,1.35,1.44-.94.23-1.44.83-1.91,1.48l-1.3,1.8,1.4,2.39c.23.41.52.63.74.63.2,0,.47-.23.52-.49.38.16.74.54.74,1.1Z"/><path class="cls-7" d="m110.83,356.7c.16.41.16.83,0,1.24h-7.17c-.16-.41-.16-.83,0-1.24h7.17Zm0,3.55c.16.41.16.83,0,1.24h-7.17c-.16-.41-.16-.83,0-1.24h7.17Z"/><path class="cls-7" d="m122.47,359.92v1.35h-5.83v-1.35h5.83Z"/><path class="cls-7" d="m129.76,364.98c-.18.2-.67.52-1.31.52-.76,0-1.31-.45-1.31-1.21v-8.93c0-.32-.02-.58-.05-.83-.63.83-1.84,2.07-2.43,2.07-1.12,0-.99-1.31-.99-1.46.13-.04,3.04-2.04,3.53-2.36.22-.13.54-.23.92-.23.76,0,1.31.45,1.31,1.19v8.97c0,.68.05,1.51.34,2.27Z"/><path class="cls-7" d="m136.4,362.95v-9.67c0-.77.58-1.22,1.35-1.22.67,0,1.13.34,1.31.52-.29,1.08-.34,1.96-.34,3.51v6.66c0,.63.22.95.65.95.16,0,.43-.07.54-.25.16.23.23.52.23.74,0,.72-.72,1.24-1.58,1.24-1.4,0-2.16-.95-2.16-2.48Z"/><path class="cls-7" d="m144.45,364.98c-.22.2-.68.52-1.35.52-.72,0-1.3-.45-1.3-1.21v-5.8c0-.68-.05-1.51-.34-2.29.2-.18.65-.5,1.3-.5.77,0,1.33.43,1.33,1.21l.02,5.8c0,.68.04,1.51.34,2.27Zm-2.94-11.49c0-.76.59-1.35,1.35-1.35s1.31.59,1.31,1.35-.58,1.33-1.31,1.33-1.35-.59-1.35-1.33Z"/><path class="cls-7" d="m154.26,356.74c0,.31-.05.77-.25,1.22l-2.72,7.2c-.52.23-1.04.34-1.57.34s-1.04-.18-1.22-.76l-2.47-7.35c-.09-.27-.25-.81-.54-1.12.2-.25.59-.54,1.31-.54s1.24.31,1.37.92l1.96,7.4,1.69-6.7c.05-.27.11-.52.11-.79s-.05-.45-.16-.58c.32-.13.65-.25,1.21-.25.9,0,1.28.31,1.28.99Z"/><g id="banan"><path class="cls-10" d="m73.32,104.34l1.11,5.43c23.02,18.81-5.12,43.9-28.44,28.96,0,0,.18-1.63.18-1.63,0,0,13.21-1.09,19.18-10.5,8.05-13.52,7.34-13.56,3.98-20.99,0,0,.9-2.17,1.45-2.35s2.35.54,2.53,1.09Z"/><path class="cls-5" d="m73.15,104.39c.32,1.56.64,3.13.96,4.69.04.21.05.52.15.71.07.15.22.24.35.35.32.27.63.54.94.82,1.13,1.02,2.2,2.13,3.15,3.32,3.04,3.82,4.81,8.66,3.85,13.55-.86,4.39-3.69,8.17-7.27,10.76-3.99,2.89-8.9,4.41-13.82,4.49-2.76.05-5.51-.35-8.15-1.15-1.41-.43-2.79-.97-4.12-1.62-.69-.34-1.37-.7-2.03-1.08-.18-.11-.36-.21-.54-.33-.07-.05-.4-.19-.42-.22-.03-.04,0-.28.02-.42.04-.39.09-.78.13-1.17l-.18.18c1.95-.16,3.9-.63,5.77-1.19,3.87-1.16,7.62-3.01,10.58-5.8,1.92-1.8,3.21-3.95,4.53-6.2,1.22-2.09,2.45-4.2,3.47-6.41,1.08-2.34,1.77-4.73,1.02-7.27-.44-1.49-1.15-2.91-1.79-4.32-.05-.11-.23-.46-.23-.46,0-.12.15-.33.2-.44.21-.46.43-.92.72-1.33.36-.53.7-.5,1.29-.31.45.14,1.22.41,1.43.88.1.21.41.03.31-.18-.31-.69-1.48-1.07-2.16-1.17-.73-.12-1.04.34-1.39.93-.22.38-.42.79-.6,1.19-.08.18-.17.32-.14.5.06.37.35.78.51,1.12.17.37.34.74.5,1.11.52,1.16,1.03,2.36,1.25,3.62s.05,2.42-.31,3.59c-.54,1.79-1.43,3.47-2.32,5.11-.67,1.23-1.37,2.44-2.07,3.65s-1.44,2.55-2.31,3.72c-2.7,3.61-6.7,6.05-10.89,7.55-2.35.85-4.87,1.53-7.37,1.74-.11,0-.17.08-.18.18-.06.54-.12,1.09-.18,1.63,0,.06.04.12.09.16,4.73,3.01,10.23,4.73,15.86,4.56,4.81-.14,9.6-1.63,13.54-4.42,3.49-2.47,6.31-6.01,7.39-10.19,1.15-4.42.11-9.01-2.32-12.82-.74-1.16-1.59-2.25-2.52-3.27-.52-.57-1.07-1.13-1.64-1.66-.28-.26-.56-.51-.84-.76-.21-.18-.64-.42-.77-.63-.1-.17-.11-.52-.15-.71l-.27-1.31-.58-2.84-.11-.53c-.05-.23-.4-.13-.35.1Z"/><path class="cls-5" d="m71.3,105.56s1.87-.73,1.92-1.39c0,0-.47-.91-2.48-.85,0,0-.38.19-1.27,2.31,0,0,.52.26,1.82-.08Z"/><path class="cls-5" d="m71.33,105.65c.49-.19.98-.43,1.41-.73.22-.16.48-.36.56-.63.04-.13,0-.19-.09-.29-.35-.41-.93-.61-1.45-.7-.25-.04-.5-.06-.75-.06-.1,0-.23-.02-.31.02-.06.03-.12.11-.16.17-.16.2-.3.44-.42.67-.27.5-.5,1.01-.71,1.53-.01.03,0,.09.04.1.14.07.3.09.45.1.48.04.97-.05,1.44-.17.11-.03.06-.2-.05-.17-.44.11-.9.2-1.36.16-.1,0-.21-.02-.31-.05-.03,0-.1-.04-.09-.03l.04.1c.29-.68.58-1.39,1-2,.05-.08.12-.19.2-.24.03-.02,0-.01.02-.02,0,0,.13,0,.09,0,.12,0,.25,0,.37,0,.6.03,1.27.17,1.72.59.05.04.16.13.17.2,0-.03-.01.01-.03.03-.03.05-.05.1-.08.15-.08.12-.2.22-.31.3-.43.33-.94.58-1.44.77-.11.04-.06.22.05.17Z"/><path class="cls-5" d="m48.35,138.36s-.54-.9-2.17-1.27c-.2,1.54-.53,1.48,1.09,2.35,0,0,1.09-.72,1.09-1.09Z"/><path class="cls-5" d="m48.43,138.32c-.12-.2-.31-.38-.5-.52-.5-.4-1.11-.64-1.73-.79-.06-.01-.11.03-.11.09-.03.25-.08.5-.12.75-.03.16-.06.33-.05.49.01.32.22.53.48.71s.54.33.82.48c.03.01.06.02.09,0,.2-.13.4-.28.58-.44.2-.17.54-.43.55-.73,0-.12-.18-.12-.18,0,0,.11-.1.22-.17.29-.11.12-.24.23-.36.34-.16.13-.33.26-.51.38h.09c-.24-.13-.49-.26-.72-.41-.14-.09-.28-.18-.38-.31-.17-.21-.11-.5-.07-.75.04-.27.09-.54.13-.81l-.11.09c.6.13,1.18.37,1.67.75.17.14.35.3.45.47.06.1.22,0,.16-.09Z"/><g id="_je"><path class="cls-5" d="m69.67,128.98c-1.08,0-2.25-.69-2.26-2.21,0-1.52,1.18-2.21,2.26-2.21s2.25.69,2.26,2.21c0,1.52-1.18,2.21-2.26,2.21Z"/><path class="cls-5" d="m69.67,124.64h0c1.04,0,2.16.67,2.17,2.12,0,1.46-1.13,2.12-2.17,2.12s-2.16-.66-2.17-2.12c0-1.46,1.13-2.12,2.17-2.12m0-.18c-1.17,0-2.34.77-2.35,2.3,0,1.54,1.18,2.3,2.35,2.3s2.34-.77,2.35-2.3c0-1.54-1.18-2.31-2.35-2.3h0Z"/><path class="cls-9" d="m70.42,128.21c-.12,0-.24-.05-.32-.12-.07-.07-.11-.17-.11-.29,0-.12.04-.22.11-.29.08-.08.2-.12.32-.12s.24.05.32.12c.07.07.11.17.11.29,0,.12-.04.22-.11.29-.08.08-.19.12-.32.12Z"/><path class="cls-5" d="m70.42,127.42c.11,0,.22.04.29.11.06.07.1.15.09.26,0,.11-.03.19-.09.26-.07.07-.17.11-.29.11s-.22-.04-.29-.11c-.06-.07-.1-.15-.09-.26,0-.11.03-.19.09-.26.07-.07.17-.11.29-.11m0-.09c-.24,0-.48.15-.47.46,0,.31.23.46.47.46s.48-.15.47-.46c0-.31-.23-.46-.47-.46h0Z"/><path class="cls-9" d="m69.07,127.19c-.24,0-.47-.09-.62-.24-.14-.14-.21-.34-.21-.56,0-.23.07-.42.21-.56.15-.15.38-.24.62-.24s.47.09.62.24c.14.14.21.34.21.56,0,.23-.07.42-.21.56-.15.15-.38.24-.62.24Z"/><path class="cls-5" d="m69.07,125.62h0c.23,0,.44.08.59.23.13.13.2.32.2.53,0,.21-.06.4-.2.53-.14.15-.36.23-.59.23s-.44-.08-.59-.23c-.13-.13-.2-.32-.2-.53,0-.21.06-.4.2-.53.14-.15.36-.23.59-.23m0-.09c-.44,0-.88.28-.87.85,0,.57.43.85.87.85s.88-.28.87-.85c0-.57-.43-.85-.87-.85h0Z"/></g><g id="_je-2"><path class="cls-5" d="m76.07,129.91c-1.08,0-2.25-.69-2.26-2.21,0-1.52,1.18-2.21,2.26-2.21s2.25.69,2.26,2.21c0,1.52-1.18,2.21-2.26,2.21Z"/><path class="cls-5" d="m76.07,125.57h0c1.04,0,2.16.67,2.17,2.12,0,1.46-1.13,2.12-2.17,2.12s-2.16-.66-2.17-2.12c0-1.46,1.13-2.12,2.17-2.12m0-.18c-1.17,0-2.34.77-2.35,2.3,0,1.54,1.18,2.3,2.35,2.3s2.34-.77,2.35-2.3c0-1.54-1.18-2.31-2.35-2.3h0Z"/><path class="cls-9" d="m75.47,128.11c-.24,0-.47-.09-.62-.24-.14-.14-.21-.34-.21-.56,0-.23.07-.42.21-.56.15-.15.38-.24.62-.24s.47.09.62.24c.14.14.21.34.21.56,0,.23-.07.42-.21.56-.15.15-.38.24-.62.24Z"/><path class="cls-5" d="m75.47,126.55h0c.23,0,.44.08.59.23.13.13.2.32.2.53,0,.21-.06.4-.2.53-.14.15-.36.23-.59.23s-.44-.08-.59-.23c-.13-.13-.2-.32-.2-.53,0-.21.06-.4.2-.53.14-.15.36-.23.59-.23m0-.09c-.44,0-.88.28-.87.85,0,.57.43.85.87.85s.88-.28.87-.85c0-.57-.43-.85-.87-.85h0Z"/><path class="cls-9" d="m76.82,129.13c-.13,0-.24-.05-.32-.12-.07-.07-.11-.17-.11-.29,0-.12.04-.22.11-.29.08-.08.2-.12.32-.12s.24.05.32.12c.07.07.11.17.11.29,0,.12-.04.22-.11.29-.08.08-.2.12-.32.12Z"/><path class="cls-5" d="m76.82,128.35c.11,0,.22.04.29.11.06.07.1.15.09.26,0,.11-.03.19-.09.26-.07.07-.17.11-.29.11s-.22-.04-.29-.11c-.06-.07-.1-.15-.09-.26,0-.11.03-.19.09-.26.07-.07.17-.11.29-.11m0-.09c-.24,0-.48.15-.47.46,0,.31.23.46.47.46s.48-.15.47-.46c0-.31-.23-.46-.47-.46h0Z"/></g><g id="_jenbryn"><path class="cls-5" d="m68.75,123.43s0-.02,0-.03c0-.01,0-.02,0-.03,0,0,0-.01,0-.02,0-.04,0,.03,0,.01,0-.04.01-.08.03-.12,0-.02.01-.04.02-.07,0-.01,0-.02.01-.04,0,.02-.01.03,0,0,.01-.02.02-.05.04-.07,0-.01.01-.02.02-.03.01-.02.04-.04,0-.01.02-.02.04-.05.06-.07.01,0,.02-.02.03-.03.04-.03-.03.01.02-.01.03-.02.06-.04.08-.05.01,0,.07-.03.02-.01.02,0,.04-.02.06-.02.04-.01.08-.02.12-.03,0,0,.02,0,.03,0,.03,0-.03,0,0,0s.05,0,.08,0c.3-.02.58.06.87.16.09.03.2-.04.22-.13.03-.1-.03-.19-.13-.22-.46-.16-1.04-.29-1.49-.03-.24.14-.4.39-.45.66-.01.07-.02.14-.02.2,0,.23.37.23.36,0h0Z"/><path class="cls-5" d="m77.4,124.17s.08-.04.12-.06c0,0,.02,0,.03-.01.04-.02-.05.02,0,0,.02,0,.05-.02.07-.03.05-.02.11-.03.16-.04.03,0,.04,0,0,0,.02,0,.03,0,.05,0,.03,0,.07,0,.1,0,.02,0,.03,0,.05,0,0,0,.01,0,.02,0,.04,0-.03,0-.01,0,.03.01.07.01.1.02.02,0,.03.01.05.02.04.01-.04-.02,0,0,0,0,.01,0,.02,0,.04.02.07.04.1.06.04.03-.02-.02.02.02.02.01.03.03.04.04s.03.03.04.04c0,0,.02.02.02.03,0,0,.04.05.01.02.18.24.26.51.32.81.02.1.13.15.22.13.1-.03.15-.13.13-.22-.1-.47-.3-1.04-.78-1.25-.3-.13-.62-.09-.91.03-.06.02-.11.05-.16.08-.19.13-.01.44.18.31h0Z"/></g><g id="mund"><path class="cls-5" d="m71.26,129.63c.07.23.19.45.34.63.28.34.71.49,1.13.35.39-.13.71-.42.99-.71.16-.17-.1-.43-.26-.26-.22.23-.47.47-.77.6-.04.02-.09.03-.14.05-.06.01-.08.02-.12.02-.05,0-.09,0-.14,0,.04,0-.02,0-.03,0-.02,0-.05-.01-.07-.02-.01,0-.05-.02-.02,0-.02,0-.04-.02-.05-.03-.04-.02-.07-.04-.11-.07-.02-.02.02.02,0,0,0,0-.01,0-.02-.01-.01-.01-.03-.03-.04-.04-.03-.03-.06-.06-.08-.09-.01-.01-.02-.03-.03-.04.03.03,0-.01-.01-.02-.02-.03-.04-.06-.06-.1-.03-.06-.06-.11-.09-.17,0-.01-.01-.03-.02-.04-.02-.04.01.03,0,0,0-.02-.02-.04-.02-.06,0-.02-.01-.04-.02-.06-.07-.22-.42-.13-.35.1h0Z"/></g><g id="kinder"><path class="cls-12" d="m67.86,129.51c1.14,1.32.01,2.27-1.1.94-1.14-1.32-.01-2.27,1.1-.94Z"/><path class="cls-12" d="m76.11,130.91c1.6-.69,2.17.67.57,1.33-1.6.69-2.17-.67-.57-1.33Z"/></g><g class="cls-6"><path class="cls-5" d="m62.87,134.39c-1.45.94-3.04,1.7-4.64,2.35-3.09,1.25-6.52,2.09-9.86,1.53-.11-.02-.16.16-.05.17,3.32.55,6.72-.25,9.8-1.47,1.67-.66,3.33-1.45,4.84-2.43.1-.06,0-.22-.09-.16h0Z"/></g><g class="cls-6"><path class="cls-5" d="m55.38,141.89c6.34,1.36,13.23-.16,18.48-3.95,4.86-3.51,8.13-9.14,7.24-15.25-.61-4.22-2.99-7.93-5.86-10.98-.08-.09-.21.04-.13.13,2.58,2.75,4.76,6.01,5.6,9.74.66,2.93.39,5.99-.78,8.76-2.39,5.62-7.93,9.46-13.69,11.04-3.52.97-7.25,1.12-10.82.36-.11-.02-.16.15-.05.17h0Z"/></g><g class="cls-6"><path class="cls-5" d="m70.38,120.01c.49-.84.93-1.71,1.34-2.59.32-.68.61-1.37.84-2.09.18-.56.36-1.17.31-1.77,0-.12-.19-.12-.18,0,.05.6-.14,1.22-.32,1.79-.24.72-.54,1.42-.87,2.11-.39.83-.81,1.66-1.28,2.45-.06.1.1.19.16.09h0Z"/></g><g class="cls-6"><path class="cls-5" d="m72.5,109.72c-.2-.41-.39-.82-.56-1.24-.29-.7-.58-1.42-.69-2.17-.02-.11-.19-.07-.17.05.11.76.41,1.51.71,2.21.18.42.36.84.57,1.25.05.1.21.01.16-.09h0Z"/></g><g class="cls-6"><path class="cls-5" d="m72.73,105.84c-.05.05-.11.09-.16.14-.01,0-.02.02-.04.03,0,0-.01,0-.02.01,0,0-.01,0,0,0s0,0,0,0c-.03.02-.06.04-.09.06-.05.04-.11.07-.17.11-.02,0-.03.02-.05.02,0,0,0,0,0,0,0,0,0,0-.01,0,0,0-.02,0-.02,0-.01,0-.03,0-.04.01-.01,0-.02,0,0,0,0,0-.01,0-.02,0-.12,0-.12.18,0,.18.13,0,.26-.08.37-.15s.22-.16.32-.25c.02-.02.04-.04.06-.06.04-.03.03-.09,0-.13-.04-.04-.09-.03-.13,0h0Z"/></g></g><g id="banan-2"><path class="cls-8" d="m71.28,287.11l1.09,5.3c22.64,18.35-5.04,42.83-27.97,28.25,0,0,.18-1.59.18-1.59,0,0,12.99-1.06,18.86-10.24,7.92-13.19,7.22-13.23,3.92-20.48,0,0,.89-2.12,1.42-2.3s2.31.53,2.49,1.06Z"/><path class="cls-5" d="m71.11,287.16c.36,1.75.72,3.51,1.08,5.26.04.17.26.29.39.39.3.25.6.5.89.77,4.46,3.89,7.93,9.65,7.01,15.72-1.32,8.87-10.22,14.71-18.76,15.5-6.02.63-12.17-1.03-17.23-4.28l.08.2c.08-.54.12-1.09.18-1.64l-.18.18c6.9-.84,14.05-3.66,18.32-9.32,1.43-2.04,2.61-4.26,3.86-6.41,1.34-2.51,2.92-5.09,3.11-7.99.08-2.62-1.35-4.94-2.36-7.27l.02.14c.19-.45.52-1.15.83-1.64.15-.2.29-.51.55-.56.39-.05.83.13,1.18.28.35.16.81.34,1.01.68.08.21.42.12.34-.09-.14-.39-.6-.62-.95-.79-.43-.21-.91-.39-1.4-.42-.39-.03-.62.15-.84.44-.43.61-.79,1.3-1.06,1.99-.04.15.11.37.17.5.84,1.9,1.92,3.81,2.13,5.9.19,3.12-1.63,6.01-3.06,8.67-.68,1.22-1.39,2.42-2.1,3.62s-1.39,2.36-2.26,3.43c-3.73,4.49-9.38,6.97-15.03,8.11-.78.15-1.57.29-2.36.37-.13,0-.28.03-.29.19-.06.5-.13,1.21-.17,1.54-.01.08,0,.15.08.2,2.43,1.54,5.08,2.75,7.86,3.51,7.06,1.97,15.04.86,21.05-3.38,5.21-3.56,8.75-9.88,7.5-16.24-.91-5.02-4.3-9.23-8.2-12.39-.34-1.4-.65-3.23-.99-4.77-.03-.16-.07-.33-.1-.49-.05-.22-.39-.13-.34.09Z"/><path class="cls-5" d="m69.29,288.3s1.84-.72,1.89-1.35c0,0-.47-.89-2.44-.83,0,0-.37.19-1.24,2.26,0,0,.52.25,1.79-.08Z"/><path class="cls-5" d="m46.72,320.3s-.53-.88-2.14-1.24c-.2,1.5-.52,1.45,1.07,2.3,0,0,1.07-.71,1.07-1.06Z"/><g id="_je-3"><path class="cls-5" d="m70,308.99c-.01,3-4.61,3-4.62,0,.01-3,4.61-3,4.62,0Z"/><path class="cls-9" d="m68.89,309.99c0,.6-.94.6-.93,0,0-.6.94-.6.93,0Z"/><path class="cls-9" d="m67.96,308.62c.02,1.11-1.74,1.11-1.72,0-.02-1.11,1.74-1.11,1.72,0Z"/></g><g id="_je-4"><path class="cls-5" d="m76.3,309.89c-.01,3-4.61,3-4.62,0,.01-3,4.61-3,4.62,0Z"/><path class="cls-9" d="m74.25,309.52c.02,1.11-1.74,1.11-1.72,0-.02-1.11,1.74-1.11,1.72,0Z"/><path class="cls-9" d="m75.19,310.89c0,.6-.94.6-.93,0,0-.6.94-.6.93,0Z"/></g><path id="mund-2" class="cls-5" d="m68.53,312.7s-.18-.32.22-.31c.39,0,1.21.16,2.64.16,0,0,.41,0,.2.31,0,0-1.23.15-3.07-.15Z"/><g id="_jenbryn-2"><path class="cls-5" d="m66.78,305.73s0-.06,0-.09c0-.04,0,.03,0,.01.01-.07.03-.15.06-.21,0,.02-.01.03,0,0,.02-.03.04-.07.06-.1.01-.02.04-.04,0-.01.03-.03.06-.07.09-.09.03-.03-.03.01.02-.01.03-.02.05-.04.08-.05.01,0,.06-.03.02-.01.12-.05.18-.06.28-.06.29-.02.57.06.85.16.09.03.19-.04.22-.12.03-.1-.03-.19-.12-.22-.45-.16-1.02-.29-1.46-.03-.29.17-.46.51-.46.84,0,.23.36.23.36,0h0Z"/><path class="cls-5" d="m75.29,306.45c.14-.08.19-.1.37-.14.03,0,.04,0,0,0,.07,0,.14-.01.21,0,.04,0-.03,0-.01,0,.05.01.1.02.15.04.04.01-.04-.02,0,0,.04.02.08.04.12.07.04.03-.02-.02.02.02.03.03.06.05.09.08,0,0,.02.02.02.03,0,0,.04.05.01.02.18.23.25.5.31.79.02.09.13.15.22.12.1-.03.14-.12.12-.22-.1-.46-.29-1.01-.76-1.22-.35-.15-.74-.07-1.06.12-.19.12-.01.43.18.3h0Z"/></g><g id="kinder-2"><path class="cls-12" d="m65.9,311.67c1.12,1.28.01,2.22-1.08.92-1.12-1.28-.01-2.22,1.08-.92Z"/><path class="cls-12" d="m74.02,313.03c1.57-.68,2.14.65.56,1.3-1.57.68-2.14-.65-.56-1.3Z"/></g><g class="cls-6"><path class="cls-5" d="m61,316.43c-4,2.39-9.02,4.39-13.76,3.86-.17-.02-.33-.05-.5-.07-.11-.02-.16.15-.05.17,3.78.61,7.61-.5,11.04-2.03,1.14-.53,2.28-1.09,3.34-1.77.11-.05.03-.23-.08-.16h0Z"/></g><g class="cls-6"><path class="cls-5" d="m53.64,323.74c4.69,1.02,9.69.39,14.07-1.53,6.82-2.92,12.44-9.55,11.22-17.26-.61-4.09-2.94-7.71-5.75-10.67-.08-.08-.2.04-.13.12,2.54,2.67,4.67,5.86,5.5,9.48,2.19,9.38-5.69,17.12-14.29,19.35-3.06.82-6.29,1.04-9.42.55-.39-.06-.77-.13-1.16-.22-.11-.02-.16.15-.05.17h0Z"/></g><g class="cls-6"><path class="cls-5" d="m68.39,302.4c.86-1.53,1.69-3.11,2.22-4.79.14-.48.28-1,.23-1.5-.01-.11-.19-.11-.18,0,.05,1-.39,1.95-.74,2.86-.4.95-.87,1.87-1.36,2.77-.1.19-.21.38-.32.57-.06.1.1.19.15.09h0Z"/></g><g class="cls-6"><path class="cls-5" d="m70.47,292.36c-.52-1.06-1.02-2.17-1.24-3.33-.02-.11-.19-.06-.17.05.18,1.08.66,2.1,1.12,3.09.05.1.09.19.14.28.05.1.2.01.15-.09h0Z"/></g><g class="cls-6"><path class="cls-5" d="m70.69,288.57c-.15.14-.35.3-.51.37-.02,0-.05.02-.08.02-.01,0-.02,0,0,0-.12-.02-.15.18-.02.18.27-.02.48-.23.68-.39.06-.04.13-.11.06-.18-.04-.03-.09-.03-.13,0h0Z"/></g></g><g id="bananer"><g id="banan-3"><path class="cls-10" d="m68.9,171.76v4.97c16.37,19.19-10.27,37.09-29.21,21.6-1.18-.76-.97-1.15-.47-2.58,0,0,11.81,1.39,18.73-5.83,9.48-10.46,8.86-10.63,7.22-17.75,0,0,1.18-1.75,1.69-1.81s1.97.89,2.04,1.4Z"/><path class="cls-5" d="m68.72,171.76c0,1.43,0,2.86.01,4.29,0,.2-.04.44,0,.64.06.33.44.64.65.91.86,1.08,1.64,2.23,2.3,3.44,2.03,3.72,2.82,8.09,1.38,12.16-2.87,8.13-12.41,11.66-20.4,10.67-2.78-.34-5.5-1.2-7.99-2.47-1.3-.66-2.55-1.44-3.73-2.31-.36-.26-.7-.55-1.05-.82-.26-.2-.59-.37-.77-.65-.33-.53.09-1.29.27-1.81l-.17.13c1.84.21,3.74.13,5.57-.06,3.72-.39,7.46-1.44,10.58-3.55,2-1.35,3.53-3.17,5.12-4.96,1.3-1.47,2.59-2.95,3.74-4.55,1.31-1.82,2.26-3.75,2.05-6.04-.12-1.36-.48-2.7-.79-4.04-.08-.36-.19-.43,0-.71.27-.38.56-.76.89-1.1.39-.4.63-.44,1.13-.19.41.21,1.1.59,1.21,1.07.05.22.4.13.35-.1-.16-.66-1.05-1.17-1.62-1.4-.63-.26-.97-.02-1.41.45-.24.26-.46.55-.68.83-.11.15-.32.35-.37.53-.06.25.14.7.2.94.09.37.17.73.26,1.1.51,2.23.8,4.32-.27,6.44-.71,1.41-1.71,2.68-2.71,3.89-1.59,1.94-3.23,3.93-5.03,5.68-2.99,2.92-7.02,4.48-11.09,5.13-2.32.37-4.79.54-7.14.26-.08,0-.15.06-.17.13-.31.89-.71,1.77.13,2.47,1.05.88,2.2,1.69,3.37,2.41,2.22,1.38,4.65,2.44,7.19,3.08,4.48,1.13,9.3.95,13.63-.71,3.76-1.45,7.18-4.03,9.14-7.61s2.14-8,.7-11.91c-.49-1.31-1.12-2.56-1.87-3.75-.41-.65-.85-1.28-1.31-1.89-.28-.36-.83-.82-.92-1.22-.07-.31,0-.72,0-1.04v-1.68c0-.7,0-1.41,0-2.11,0-.23-.36-.23-.36,0Z"/><path class="cls-5" d="m40.91,197.25s-.32-.89-1.68-1.5c-.45,1.32-.79,1.53.47,2.58,0,0,1.15-.76,1.21-1.08Z"/><path class="cls-5" d="m40.99,197.23c-.07-.2-.21-.39-.34-.55-.37-.44-.86-.77-1.38-1-.05-.02-.11,0-.13.05-.1.28-.21.56-.3.84-.06.19-.12.39-.1.59.04.53.53.92.9,1.23.03.02.07.04.11.01.21-.14.41-.29.61-.44.14-.11.29-.23.42-.36.09-.09.2-.2.23-.33.03-.11-.15-.16-.17-.05s-.14.21-.22.29c-.13.12-.26.24-.4.34-.18.14-.36.27-.55.4h.11c-.34-.27-.84-.64-.85-1.13,0-.19.05-.38.12-.55.09-.27.2-.53.29-.79l-.13.05c.5.23.97.53,1.33.95.09.11.18.23.25.36.02.03.04.07.05.1.01.03,0,0,.01.03.04.11.21.06.17-.05Z"/><g id="_je-5"><path class="cls-5" d="m61.78,192.82c-.66,0-1.29-.28-1.68-.76-.36-.44-.49-1-.36-1.63.24-1.17,1.15-1.58,1.92-1.58.66,0,1.29.28,1.68.76.36.44.49,1,.36,1.63-.24,1.17-1.15,1.58-1.92,1.58Z"/><path class="cls-5" d="m61.65,188.94h0c.63,0,1.23.27,1.61.72.34.42.46.96.35,1.55-.23,1.12-1.1,1.51-1.83,1.51-.63,0-1.23-.27-1.61-.72-.34-.42-.46-.96-.35-1.55.23-1.12,1.1-1.51,1.83-1.51m0-.18c-.89,0-1.77.51-2,1.66-.31,1.56.92,2.49,2.13,2.49.89,0,1.77-.51,2-1.66.31-1.56-.92-2.49-2.13-2.49h0Z"/><path class="cls-9" d="m62.21,192.24c-.13,0-.25-.06-.33-.15-.07-.08-.09-.18-.06-.3.04-.22.21-.3.36-.3.13,0,.25.06.33.15.07.08.09.18.06.3-.04.22-.21.29-.36.29Z"/><path class="cls-5" d="m62.17,191.55h0c.11,0,.23.05.29.13.06.07.07.16.05.26-.04.24-.25.26-.31.26-.11,0-.23-.05-.29-.13-.06-.07-.07-.16-.05-.26.04-.24.25-.26.31-.26m0-.09c-.18,0-.36.1-.4.33-.07.31.19.5.43.5.18,0,.36-.1.4-.33.07-.31-.19-.5-.43-.5h0Z"/><path class="cls-9" d="m61.28,191.12c-.25,0-.49-.11-.63-.29-.13-.16-.17-.36-.12-.58.08-.42.41-.58.7-.58.25,0,.49.11.63.29.13.16.17.36.12.58-.08.43-.41.58-.7.58Z"/><path class="cls-5" d="m61.22,189.72h0c.23,0,.46.1.6.27.12.15.16.34.11.55-.07.4-.38.54-.65.54-.23,0-.46-.1-.6-.27-.12-.15-.16-.34-.11-.55.07-.4.39-.54.65-.54m0-.09c-.33,0-.66.19-.74.61-.12.57.34.92.8.92.33,0,.66-.19.74-.61.12-.57-.34-.92-.8-.92h0Z"/></g><g id="_je-6"><path class="cls-5" d="m67.24,194.77c-.66,0-1.29-.28-1.68-.76-.36-.44-.49-1-.36-1.63.24-1.17,1.15-1.58,1.92-1.58.66,0,1.29.28,1.68.76.36.44.49,1,.36,1.63-.24,1.17-1.15,1.58-1.92,1.58Z"/><path class="cls-5" d="m67.12,190.71v.18c.63,0,1.23.27,1.61.72.34.42.46.96.35,1.55-.23,1.12-1.1,1.51-1.83,1.51-.63,0-1.23-.27-1.61-.72-.34-.42-.46-.96-.35-1.55.23-1.12,1.1-1.51,1.83-1.51v-.18m0,0c-.89,0-1.77.51-2,1.66-.31,1.56.92,2.49,2.13,2.49.89,0,1.77-.51,2-1.66.31-1.56-.92-2.49-2.13-2.49h0Z"/><path class="cls-9" d="m66.75,193.06c-.25,0-.49-.11-.63-.29-.13-.16-.17-.36-.12-.58.08-.42.41-.58.7-.58.25,0,.49.11.63.29.13.16.17.36.12.58-.08.43-.41.58-.7.58Z"/><path class="cls-5" d="m66.69,191.67h0c.23,0,.46.1.6.27.12.15.16.34.11.55-.07.4-.39.54-.65.54-.23,0-.46-.1-.6-.27-.12-.15-.16-.34-.11-.55.07-.4.38-.54.65-.54m0-.09c-.33,0-.66.19-.74.61-.12.57.34.92.8.92.33,0,.66-.19.74-.61.12-.57-.34-.92-.8-.92h0Z"/><path class="cls-9" d="m67.67,194.19c-.13,0-.25-.06-.33-.15-.06-.08-.09-.18-.06-.3.04-.22.21-.3.36-.3.13,0,.25.06.33.15.07.08.09.18.06.3-.04.22-.21.29-.36.29Z"/><path class="cls-5" d="m67.64,193.41v.09c.11,0,.23.05.29.13.06.07.07.16.05.26-.04.24-.25.26-.31.26-.11,0-.23-.05-.29-.13-.06-.07-.07-.16-.05-.26.04-.24.25-.26.31-.26v-.09m0,0c-.18,0-.36.1-.4.33-.07.31.19.5.43.5.18,0,.36-.1.4-.33.07-.31-.19-.5-.43-.5h0Z"/></g><g id="_jenbryn-3"><path class="cls-5" d="m61.5,187.75s.02-.07.03-.1c0-.02.01-.03.02-.05-.02.06,0,0,0-.02.02-.04.05-.08.07-.12.02-.02-.03.03,0,0,0,0,.01-.02.02-.03.02-.02.04-.04.06-.06s.02-.02,0,0c.01,0,.02-.02.03-.02.02-.02.05-.03.08-.04.02-.01-.03.01.01,0,.01,0,.03,0,.04-.01.02,0,.03,0,.05-.01.01,0,.07,0,.02,0,.03,0,.07,0,.1,0,.02,0,.04,0,.06,0,.01,0,.02,0,.03,0,0,0,.05,0,.03,0,.02,0,.1.02.14.03.06.02.12.04.18.06.14.05.27.13.4.2.2.12.38-.19.18-.31-.37-.22-.87-.45-1.31-.3-.26.09-.44.29-.54.54-.02.05-.04.09-.04.14-.02.1.03.19.13.22.09.02.2-.03.22-.13h0Z"/><path class="cls-5" d="m68.97,189.94s.08-.03.12-.04c.02,0,.04,0,.06-.01,0,0,.02,0,.03,0,0,0,.01,0,.02,0,.04,0-.05,0-.02,0,.05,0,.1,0,.15,0,.03,0,.05,0,.08,0,.03,0-.05,0-.02,0,0,0,.01,0,.02,0,.02,0,.03,0,.05.01.03,0,.05.01.08.02,0,0,.01,0,.02,0,.03,0-.04-.02-.01,0,.02,0,.03.02.05.02.03.01.05.03.07.05.03.02-.03-.03,0,0,0,0,.01.01.02.02.02.01.03.03.04.04.01.01.02.03.04.04.02.03-.02-.04,0,0,0,0,.01.02.02.02.02.03.04.07.06.11,0,0,0,.02.01.03.02.05,0-.02,0,.01,0,.03.02.05.03.08.02.06.03.11.04.17,0,.03.01.07.02.1,0-.04,0,.01,0,.02,0,.02,0,.04,0,.07,0,.08.01.17.01.26,0,.1.08.18.18.18s.18-.08.18-.18c0-.46-.08-.99-.49-1.27-.23-.16-.53-.18-.79-.12-.05.01-.11.02-.16.04-.09.04-.15.12-.13.22.02.09.13.16.22.13h0Z"/></g><g id="mund-3"><path class="cls-5" d="m62.59,193.63c.02.22.08.44.19.63.19.36.54.57.95.52.37-.04.7-.24,1-.45.08-.06.12-.16.06-.25-.05-.08-.17-.12-.25-.06-.24.17-.49.33-.78.39-.01,0-.03,0-.04,0,0,0-.05,0-.01,0-.02,0-.04,0-.06,0-.02,0-.05,0-.07,0-.01,0-.09,0-.05,0-.04,0-.07-.01-.11-.03-.01,0-.07-.03-.02,0-.02,0-.04-.02-.06-.03-.02,0-.03-.02-.05-.03,0,0-.02-.01-.02-.02,0,0,.03.03,0,0-.03-.03-.06-.05-.08-.08-.01-.01-.02-.02-.03-.04.03.04,0,0-.01-.01-.02-.03-.04-.06-.06-.09-.02-.03-.03-.06-.05-.09-.02-.04,0,.03,0-.01,0-.02-.01-.03-.02-.05-.02-.06-.04-.11-.05-.17-.01-.05-.02-.09-.03-.14-.01-.06,0,.04,0-.01,0-.1-.08-.18-.18-.18-.09,0-.19.08-.18.18h0Z"/></g><g id="kinder-3"><path class="cls-12" d="m59.63,192.93c.77,1.36-.39,2-1.14.63-.77-1.36.39-2,1.14-.63Z"/><path class="cls-12" d="m66.64,195.62c1.53-.33,1.79.97.26,1.27-1.53.33-1.79-.97-.26-1.27Z"/></g><g class="cls-6"><path class="cls-5" d="m54.38,196.33c-1.42.56-2.93.94-4.43,1.23-2.97.56-6.15.69-9.02-.39-.11-.04-.15.13-.05.17,2.8,1.06,5.89.97,8.8.45,1.61-.29,3.23-.69,4.75-1.29.11-.04.06-.22-.05-.17h0Z"/></g><g class="cls-6"><path class="cls-5" d="m46.46,201.6c5.3,2.31,11.56,2.21,16.83-.14,4.94-2.2,8.88-6.57,9.21-12.14.23-3.83-1.21-7.54-3.2-10.75-.06-.1-.22,0-.15.09,1.78,2.88,3.12,6.14,3.2,9.57.06,2.68-.72,5.31-2.23,7.53-3.09,4.53-8.67,6.93-14.01,7.29-3.26.22-6.56-.3-9.55-1.6-.1-.05-.2.11-.09.15h0Z"/></g><g class="cls-6"><path class="cls-5" d="m63.54,185.03c1.07-1.21,2.13-2.53,2.89-3.97.21-.4.4-.82.45-1.27.01-.11-.17-.11-.18,0-.05.41-.23.8-.42,1.16-.23.45-.5.87-.78,1.29-.53.77-1.1,1.51-1.7,2.23-.13.15-.25.3-.38.45-.08.09.05.21.13.13h0Z"/></g><g class="cls-6"><path class="cls-5" d="m67.23,176.35c-.1-.39-.19-.78-.27-1.17-.13-.67-.26-1.36-.23-2.05,0-.12-.17-.11-.18,0-.04.69.09,1.39.23,2.06.08.41.17.81.28,1.21.03.11.2.06.17-.05h0Z"/></g><g class="cls-6"><path class="cls-5" d="m68.11,172.96c-.08.05-.17.1-.25.14-.02,0-.04.02-.06.03,0,0-.01,0-.02,0,0,0,0,0-.01,0,0,0,0,0,0,0-.04.01-.07.03-.11.04-.03.01-.07.02-.1.03-.02,0,.02,0,0,0,0,0-.02,0-.02,0,0,0-.01,0-.02,0-.03,0,.01,0,0,0-.05,0-.1.01-.11.06-.01.04.01.1.06.11.16.03.33-.05.47-.12.09-.04.19-.09.28-.15.1-.06,0-.22-.09-.15h0Z"/></g></g><g id="banan-4"><path class="cls-10" d="m72.29,169.7l2.44,4.92c26.83,12.15,6.26,43.34-19.86,34.96,0,0-.24-1.61-.24-1.61,0,0,12.37-4.4,15.7-14.93,4.27-14.99,3.58-14.85-1.53-21.11,0,0,.31-2.31.79-2.62s2.39-.08,2.7.4Z"/><path class="cls-5" d="m72.13,169.79c.76,1.53,1.52,3.05,2.28,4.58.14.29.17.37.47.51.73.34,1.44.7,2.14,1.09,1.28.71,2.51,1.51,3.65,2.43,3.65,2.94,6.26,7.09,6.45,11.85.17,4.35-1.61,8.57-4.36,11.88-3.1,3.73-7.39,6.39-12.04,7.7-2.57.72-5.24,1.04-7.91.96-1.46-.05-2.92-.21-4.36-.49-.71-.14-1.41-.3-2.11-.49-.36-.1-.74-.26-1.11-.32-.26-.04-.2-.02-.24-.32-.06-.42-.13-.84-.19-1.26l-.13.22c1.86-.66,3.65-1.63,5.32-2.67,3.41-2.12,6.53-4.87,8.64-8.32,1.4-2.28,2.08-4.77,2.78-7.33.61-2.23,1.22-4.47,1.61-6.75.43-2.52.45-4.95-.93-7.18-.82-1.32-1.86-2.51-2.85-3.71-.11-.14-.26-.27-.26-.28-.02-.13.05-.34.08-.47.09-.49.18-.99.35-1.46.21-.58.49-.65,1.09-.63.48.01,1.33.07,1.66.48.15.18.4-.08.25-.25-.47-.58-1.69-.65-2.37-.57-.75.08-.93.63-1.11,1.3-.11.42-.46,1.32-.26,1.75.15.34.57.69.8.98.26.32.53.64.79.96.78.97,1.56,1.97,2.07,3.11s.65,2.29.61,3.48c-.06,1.82-.47,3.63-.9,5.4-.32,1.32-.67,2.64-1.03,3.95-.38,1.4-.72,2.82-1.25,4.17-1.65,4.21-4.89,7.62-8.57,10.16-2.03,1.41-4.27,2.7-6.61,3.54-.1.04-.14.12-.13.22.08.54.16,1.07.24,1.61,0,.06.07.11.13.13,5.22,1.66,10.84,1.92,16.13.4,4.54-1.31,8.74-3.88,11.83-7.48,2.73-3.17,4.59-7.18,4.71-11.41.12-4.45-1.83-8.6-4.97-11.7-2.02-1.99-4.43-3.54-6.97-4.76-.45-.22-.62-.2-.82-.61l-.59-1.2-1.4-2.82-.28-.57c-.1-.21-.41-.03-.31.18Z"/><path class="cls-5" d="m57.03,208.63s-.75-.73-2.4-.66c.2,1.53-.05,1.54,1.71,1.96,0,0,.78-.95.69-1.3Z"/><path class="cls-5" d="m57.1,208.57c-.17-.16-.4-.28-.61-.37-.58-.25-1.22-.34-1.85-.31-.04,0-.1.04-.09.09.03.25.06.5.09.76.02.16.04.33.1.49.11.31.38.45.67.55s.62.18.93.25c.03,0,.07,0,.09-.02.15-.18.28-.37.41-.56.14-.22.37-.55.31-.83-.03-.11-.2-.06-.17.05.02.1-.04.23-.08.32-.07.14-.15.28-.24.41-.11.17-.23.33-.35.48l.09-.02c-.27-.06-.54-.13-.8-.21-.16-.05-.32-.1-.46-.2-.23-.15-.27-.43-.3-.68s-.06-.52-.09-.79l-.09.09c.61-.02,1.23.05,1.79.3.19.09.41.2.55.34.08.08.21-.05.13-.13Z"/><g id="_je-7"><path class="cls-5" d="m74.42,194.31c-1.03,0-1.8-.61-2.08-1.63-.23-.89.05-1.51.33-1.88.43-.56,1.17-.9,1.92-.9,1.03,0,1.8.61,2.08,1.63.23.89-.05,1.51-.33,1.88-.43.56-1.17.9-1.92.9Z"/><path class="cls-5" d="m74.58,189.99h0c.98,0,1.73.59,1.99,1.56.22.86-.05,1.45-.32,1.8-.41.54-1.12.87-1.84.87-.98,0-1.73-.58-1.99-1.56-.22-.86.05-1.45.32-1.8.41-.54,1.12-.87,1.85-.87m0-.18c-1.38,0-2.79,1.13-2.33,2.89.32,1.18,1.24,1.7,2.17,1.7,1.38,0,2.79-1.13,2.33-2.89-.32-1.18-1.24-1.7-2.17-1.7h0Z"/><path class="cls-9" d="m75.45,193.31c-.19,0-.34-.11-.39-.3-.04-.13-.02-.25.06-.35.08-.11.23-.18.38-.18.19,0,.34.11.39.3.04.13.02.25-.05.35-.08.11-.23.18-.38.18Z"/><path class="cls-5" d="m75.5,192.44v.09c.08,0,.28.03.34.27.03.12.02.22-.05.31-.07.1-.2.16-.34.16-.08,0-.28-.03-.34-.27-.03-.12-.02-.22.05-.31.07-.1.2-.16.34-.16v-.09m0,0c-.28,0-.57.23-.47.58.06.24.24.34.43.34.28,0,.57-.23.47-.58-.06-.24-.24-.34-.43-.34h0Z"/><path class="cls-9" d="m73.79,192.7c-.38,0-.66-.22-.75-.59-.09-.32,0-.54.11-.67.16-.21.44-.34.73-.34.38,0,.66.22.75.59.09.32,0,.54-.11.67-.16.21-.44.34-.73.34Z"/><path class="cls-5" d="m73.87,191.13h0c.36,0,.62.21.71.56.07.24.03.46-.1.63-.15.2-.42.33-.69.33-.36,0-.62-.21-.71-.56-.07-.24-.03-.46.1-.63.15-.2.42-.33.69-.33m0-.09c-.52,0-1.06.42-.88,1.07.11.44.45.63.8.63.52,0,1.06-.42.88-1.07-.11-.44-.45-.63-.8-.63h0Z"/></g><g id="_je-8"><path class="cls-5" d="m80.78,193.57c-1.03,0-1.8-.61-2.08-1.63-.23-.89.05-1.51.33-1.88.43-.56,1.17-.9,1.92-.9,1.03,0,1.8.61,2.08,1.63.23.89-.05,1.51-.33,1.88-.43.56-1.17.9-1.92.9Z"/><path class="cls-5" d="m80.95,189.25h0c.98,0,1.73.58,1.99,1.56.22.86-.05,1.45-.32,1.8-.41.54-1.12.87-1.84.87-.98,0-1.73-.58-1.99-1.56-.22-.86.05-1.45.32-1.8.41-.54,1.12-.87,1.85-.87m0-.18c-1.38,0-2.79,1.13-2.33,2.89.32,1.18,1.24,1.7,2.17,1.7,1.38,0,2.79-1.13,2.33-2.89-.32-1.18-1.24-1.7-2.17-1.7h0Z"/><path class="cls-9" d="m80.15,191.95c-.38,0-.66-.22-.75-.59-.09-.32,0-.54.11-.67.16-.21.44-.34.72-.34.38,0,.66.22.75.59.09.32,0,.54-.11.67-.16.21-.44.34-.72.34Z"/><path class="cls-5" d="m80.23,190.39h0c.36,0,.62.21.71.56.07.24.03.46-.1.63-.15.2-.42.33-.69.33-.36,0-.62-.21-.71-.56-.07-.24-.03-.46.1-.63.15-.2.42-.33.69-.33m0-.09c-.52,0-1.06.42-.88,1.07.11.44.45.63.8.63.52,0,1.06-.42.88-1.07-.11-.44-.45-.63-.8-.63h0Z"/><path class="cls-9" d="m81.82,192.57c-.19,0-.34-.11-.39-.3-.04-.13-.02-.25.06-.35.08-.11.23-.18.38-.18.2,0,.34.11.39.3.04.13.02.25-.05.35-.08.11-.23.18-.38.18Z"/><path class="cls-5" d="m81.86,191.7v.09c.08,0,.28.03.34.27.03.12.02.22-.05.31-.07.1-.2.16-.34.16-.08,0-.28-.03-.34-.27-.03-.12-.02-.22.05-.31.07-.1.2-.16.34-.16v-.09m0,0c-.28,0-.57.23-.47.58.06.24.24.34.43.34.28,0,.57-.23.47-.58-.06-.24-.24-.34-.43-.34h0Z"/></g><g id="_jenbryn-4"><path class="cls-5" d="m72.76,189.14s0-.02,0-.03c0-.01,0-.02,0-.04-.01-.06,0,.04,0,0,0-.04,0-.08,0-.13,0-.02,0-.05,0-.07,0-.03.02-.04,0,0,0-.01,0-.03,0-.04,0-.03.01-.05.02-.08,0-.01,0-.03.01-.04,0,0,0-.01,0-.02.01-.04-.02.04,0,0,.01-.03.03-.05.04-.08,0-.01.02-.03.02-.04,0,0,.01-.01.02-.02-.01.02-.02.03,0,0,.02-.02.04-.05.07-.07.01-.01.03-.02.04-.03-.04.04.01,0,.03-.02.03-.02.07-.04.1-.06.01,0,.02-.01.03-.02-.04.02-.02,0,0,0,.03,0,.05-.02.08-.03.06-.02.12-.03.18-.05.03,0,.07-.01.1-.02-.03,0,0,0,.01,0,.02,0,.04,0,.06,0,.17-.01.35,0,.52,0,.1,0,.18-.09.18-.18,0-.1-.08-.17-.18-.18-.48-.04-1.07-.02-1.43.35-.19.2-.28.48-.26.75,0,.07.01.14.03.2.06.22.41.13.35-.1h0Z"/><path class="cls-5" d="m81.24,187.65s.06-.06.09-.09c0,0,.02-.01.02-.02.03-.02-.01,0,0,0,.02-.01.04-.03.06-.05.05-.03.09-.06.14-.08.02,0,.04-.02,0,0,.01,0,.03-.01.04-.02.03-.01.06-.02.1-.03.01,0,.03,0,.04,0,.05,0-.01,0,.02,0,.03,0,.07,0,.1,0,.02,0,.03,0,.05,0,.03,0,0,0,0,0,0,0,.02,0,.03,0,.04,0,.07.02.11.03.04.01,0,0,.02,0,.02,0,.04.02.06.03.02,0,.04.02.05.03.01,0,.06.04.05.03.23.17.38.44.51.69.1.21.41.03.31-.18-.21-.43-.55-.92-1.06-1-.32-.05-.62.07-.86.26-.05.04-.1.08-.14.12-.15.17.1.43.25.25h0Z"/></g><g id="mund-4"><path class="cls-5" d="m76.75,194.45c.12.2.3.38.49.52.36.26.81.29,1.18.04.34-.22.57-.58.76-.93.11-.2-.2-.38-.31-.18-.15.28-.32.56-.57.76-.08.06-.17.11-.25.14-.1.03-.12.03-.22.03,0,0-.07,0-.03,0-.02,0-.04,0-.05-.01-.04,0-.08-.02-.12-.04-.03-.01.03.01,0,0,0,0-.01,0-.02,0-.02,0-.04-.02-.05-.03-.04-.02-.07-.04-.1-.06,0,0-.05-.03-.03-.02.01.01-.02-.02-.03-.02-.03-.02-.06-.05-.08-.08-.05-.04-.09-.09-.13-.14-.01-.01-.02-.03-.03-.04-.03-.04,0,0,0,0-.01-.02-.03-.04-.04-.05-.01-.02-.02-.03-.03-.05-.12-.2-.43-.02-.31.18h0Z"/></g><g id="kinder-4"><path class="cls-12" d="m73.46,195.2c1.42.97.59,2.17-.82,1.18-1.42-.97-.59-2.17.82-1.18Z"/><path class="cls-12" d="m81.72,194.44c1.35-1.07,2.25.08.88,1.13-1.35,1.07-2.25-.08-.88-1.13Z"/></g><g class="cls-6"><path class="cls-5" d="m69.93,201.14c-1.15,1.27-2.48,2.41-3.85,3.43-2.64,1.98-5.71,3.65-9.04,3.97-.11.01-.11.19,0,.18,3.32-.32,6.37-1.95,9.01-3.91,1.43-1.06,2.82-2.23,4.01-3.55.08-.09-.05-.21-.13-.13h0Z"/></g><g class="cls-6"><path class="cls-5" d="m64.67,210.22c6.41-.31,12.6-3.51,16.66-8.46,3.76-4.59,5.48-10.8,3.09-16.44-1.66-3.9-4.89-6.86-8.42-9.06-.1-.06-.19.09-.09.15,3.16,1.97,6.06,4.53,7.81,7.86,1.41,2.67,1.94,5.73,1.49,8.72-.89,5.96-5.21,11.01-10.31,13.97-3.12,1.81-6.64,2.91-10.24,3.08-.11,0-.12.18,0,.18h0Z"/></g><g class="cls-6"><path class="cls-5" d="m73.46,185.46c.25-.93.46-1.87.62-2.82.13-.73.24-1.47.28-2.21.03-.58.05-1.21-.16-1.77-.04-.11-.21-.06-.17.05.2.57.18,1.21.14,1.8-.05.75-.16,1.5-.29,2.24-.16.9-.36,1.79-.6,2.67-.03.11.14.16.17.05h0Z"/></g><g class="cls-6"><path class="cls-5" d="m72.87,175.07c-.3-.34-.58-.69-.86-1.04-.46-.59-.92-1.22-1.22-1.91-.05-.11-.2-.01-.15.09.3.7.78,1.34,1.24,1.94.28.36.56.71.86,1.05.08.09.2-.04.13-.13h0Z"/></g><g class="cls-6"><path class="cls-5" d="m72.1,171.29c-.04.06-.08.12-.12.18,0,.01-.02.02-.03.04,0,0,0,.01-.01.02,0,0,0,0,0,.01-.01.01,0,0,0,0-.02.03-.04.05-.07.08-.04.05-.09.1-.14.14-.01.01-.03.02-.04.04.01-.01,0,0,0,0,0,0-.01,0-.02.01-.01,0-.02.01-.04.02-.02,0,.01,0,0,0,0,0-.01,0-.02,0-.05.01-.08.06-.06.11s.06.08.11.06c.13-.04.23-.15.32-.24s.17-.21.24-.32c.02-.02.03-.05.05-.07.03-.04,0-.1-.03-.12-.04-.03-.1,0-.12.03h0Z"/></g></g><path class="cls-4" d="m72.29,169.7c-1.77,1.97-3.3,2.54-7.07,2.44-5.12-2,10.18-7.1,7.07-2.44Z"/></g><g id="kokosnd"><path class="cls-3" d="m77.6,374.72c-25.24,3.23-24.17-33.28-.55-31.34,20.64,2.81,21.69,29.63.55,31.34Z"/><g id="_jenbryn-5"><line class="cls-1" x1="70.57" y1="353.31" x2="73.94" y2="356.14"/><line class="cls-1" x1="80.36" y1="353.44" x2="76.7" y2="356.08"/></g><g id="mund-5"><path class="cls-5" d="m72.46,363.51c.61-1.16,1.99-2.75,3.45-2.02.82.41,1.36,1.25,1.79,2.02.13.23.49.02.36-.21-.66-1.18-1.74-2.66-3.29-2.38-.96.18-1.71.97-2.26,1.73-.15.2-.29.42-.4.64-.12.24.23.45.36.21h0Z"/></g><g id="_je-9"><path class="cls-5" d="m70.35,361.54c-1.37,0-2.87-.89-2.9-2.86.03-1.96,1.53-2.86,2.9-2.86s2.87.89,2.9,2.86c-.03,1.96-1.53,2.86-2.9,2.86Z"/><path class="cls-5" d="m70.35,355.89h0c1.34,0,2.8.87,2.83,2.79-.03,1.92-1.49,2.79-2.83,2.79s-2.8-.87-2.83-2.79c.03-1.92,1.49-2.79,2.83-2.79m0-.14c-1.47,0-2.94.98-2.97,2.93.03,1.95,1.5,2.93,2.97,2.93s2.94-.98,2.97-2.93c-.03-1.95-1.5-2.93-2.97-2.93h0Z"/><path class="cls-9" d="m69.59,359.24c-.31,0-.6-.11-.8-.31-.18-.18-.28-.44-.27-.73,0-.29.09-.54.27-.73.2-.2.49-.31.8-.31s.6.11.8.31c.18.18.28.44.27.73,0,.29-.09.54-.27.73-.2.2-.49.31-.8.31Z"/><path class="cls-5" d="m69.59,357.19h0c.3,0,.58.11.77.3.18.18.27.42.26.7,0,.28-.09.52-.26.7-.19.19-.47.3-.77.3s-.58-.11-.77-.3c-.18-.18-.27-.42-.26-.7,0-.28.09-.52.26-.7.19-.19.47-.3.77-.3m0-.07c-.56,0-1.12.36-1.1,1.07-.01.72.55,1.08,1.1,1.08s1.12-.36,1.1-1.07c.01-.72-.55-1.07-1.1-1.07h0Z"/><path class="cls-9" d="m71.3,360.52c-.16,0-.32-.06-.42-.16-.09-.1-.14-.23-.14-.38,0-.15.05-.29.14-.38.1-.1.26-.16.42-.16s.32.06.42.16c.1.1.14.23.14.38,0,.16-.05.29-.14.38-.1.1-.26.16-.42.16Z"/><path class="cls-5" d="m71.3,359.46c.16,0,.3.06.4.15.09.09.13.21.13.36,0,.14-.04.27-.13.36-.1.1-.24.15-.4.15s-.3-.06-.4-.15c-.09-.09-.13-.21-.13-.36,0-.14.04-.27.13-.36.1-.1.24-.15.4-.15m0-.07c-.3,0-.6.19-.6.58,0,.39.3.58.6.58s.6-.19.6-.58c0-.39-.3-.58-.6-.58h0Z"/></g><g id="_je-10"><path class="cls-5" d="m80.02,361.67c-1.37,0-2.87-.89-2.9-2.86.03-1.96,1.53-2.86,2.9-2.86s2.87.89,2.9,2.86c-.03,1.96-1.53,2.86-2.9,2.86Z"/><path class="cls-5" d="m80.02,356.03h0c1.34,0,2.8.87,2.83,2.79-.03,1.92-1.49,2.79-2.83,2.79s-2.8-.87-2.83-2.79c.03-1.92,1.49-2.79,2.83-2.79m0-.14c-1.47,0-2.94.98-2.97,2.93.03,1.95,1.5,2.93,2.97,2.93s2.94-.98,2.97-2.93c-.03-1.95-1.5-2.93-2.97-2.93h0Z"/><path class="cls-9" d="m79.26,359.38c-.31,0-.6-.11-.8-.31-.18-.18-.28-.44-.27-.73,0-.29.09-.54.27-.73.2-.2.49-.31.8-.31s.6.11.8.31c.18.18.28.44.27.73,0,.29-.09.54-.27.73-.2.2-.49.31-.8.31Z"/><path class="cls-5" d="m79.26,357.33h0c.3,0,.58.11.77.3.18.18.27.42.26.7,0,.28-.09.52-.26.7-.19.19-.47.3-.77.3s-.58-.11-.77-.3c-.18-.18-.27-.42-.26-.7,0-.28.09-.52.26-.7.19-.19.47-.3.77-.3m0-.07c-.56,0-1.11.36-1.1,1.07-.01.72.55,1.08,1.1,1.08s1.12-.36,1.1-1.07c.01-.72-.55-1.07-1.1-1.07h0Z"/><path class="cls-9" d="m80.96,360.66c-.17,0-.32-.06-.42-.16-.1-.1-.14-.23-.14-.38,0-.15.05-.29.14-.38.1-.1.26-.16.42-.16s.32.06.42.16c.1.1.14.23.14.38,0,.15-.05.29-.14.38-.1.1-.26.16-.42.16Z"/><path class="cls-5" d="m80.96,359.6c.16,0,.3.06.4.15.09.09.13.21.13.36,0,.14-.04.27-.13.36-.1.1-.24.15-.4.15s-.3-.06-.4-.15c-.09-.09-.13-.21-.13-.36,0-.14.04-.27.13-.36.1-.1.24-.15.4-.15m0-.07c-.3,0-.6.19-.6.58,0,.39.3.58.6.58s.6-.19.6-.58c0-.39-.3-.58-.6-.58h0Z"/></g><g id="tekstur"><g id="tekstur-2"><path class="cls-5" d="m73.25,351.1c-.03-.38-.29-.69-.57-.92-.26-.21-.55-.38-.86-.51-.07-.03-.14-.06-.21-.09-.08-.03-.12.1-.04.13.17.06.33.14.49.22.3.16.61.37.82.64.12.15.21.33.23.52,0,.09.15.09.14,0h0Z"/><path class="cls-5" d="m71.25,348.69c.87.05,1.83.47,2.36,1.18.27.36.42.79.47,1.23.01.09.15.09.14,0-.1-.77-.47-1.45-1.1-1.9-.44-.32-.97-.51-1.51-.61-.12-.02-.24-.04-.36-.05-.09,0-.09.13,0,.14h0Z"/></g><g id="tekstur-3"><path class="cls-5" d="m85.2,356.97c0-.46-.16-.9-.47-1.24-.21-.23-.48-.42-.77-.55-.06-.03-.12-.05-.19-.07-.09-.03-.12.11-.04.13.48.15.94.52,1.16.97.12.24.17.5.17.76,0,.09.14.09.14,0h0Z"/><path class="cls-5" d="m83.37,353.86s0,0,.02,0c.02,0,.05,0,.07.01.08.02.17.04.25.07.25.08.5.2.73.32.64.35,1.22.83,1.59,1.46.25.42.39.89.41,1.38,0,.09.14.09.14,0-.07-1.59-1.37-2.8-2.81-3.29-.12-.04-.35-.14-.47-.08-.08.04,0,.16.07.12h0Z"/></g><g id="tekstur-4"><path class="cls-5" d="m89.03,365.06c.43-.29.45-.94.41-1.4,0-.06-.01-.11-.02-.17-.01-.09-.15-.05-.13.04,0,0,0,0,0,.01,0-.03,0,.02,0,.03,0,.04,0,.09.01.13,0,.13.01.27,0,.4-.02.3-.09.66-.35.84-.07.05,0,.17.07.12h0Z"/><path class="cls-5" d="m90.47,362.71c.26.83.21,1.86-.26,2.61-.25.39-.6.69-1.01.9-.08.04,0,.16.07.12.68-.36,1.18-.95,1.37-1.7.14-.53.13-1.09.04-1.62-.02-.12-.05-.24-.08-.35-.03-.08-.16-.05-.13.04h0Z"/></g><g id="tekstur-5"><path class="cls-5" d="m83.88,368.78c.01.24.25.4.44.52.22.13.46.23.69.32.05.02.11.04.16.06.08.03.12-.11.04-.13-.13-.04-.26-.09-.39-.15-.23-.1-.46-.21-.65-.37-.07-.06-.15-.15-.16-.25,0-.09-.14-.09-.14,0h0Z"/><path class="cls-5" d="m85.77,370.78c-.44-.1-.87-.25-1.28-.42-.75-.31-1.54-.75-1.99-1.44-.27-.41-.36-.89-.27-1.37.02-.09-.12-.12-.13-.04-.35,1.81,1.68,2.81,3.11,3.25.17.05.35.11.53.15.09.02.12-.11.04-.13h0Z"/></g><g id="tekstur-6"><path class="cls-5" d="m71.12,370.54c.36.47.88.74,1.47.78.29.02.6,0,.87-.08.08-.03.05-.16-.04-.13-.77.23-1.68,0-2.18-.64-.05-.07-.17,0-.12.07h0Z"/><path class="cls-5" d="m73.72,372.16c-1,.24-2.23.17-3.11-.4-.42-.27-.72-.66-.93-1.11-.04-.08-.16-.01-.12.07.66,1.46,2.3,1.83,3.77,1.64.14-.02.29-.04.42-.07.09-.02.05-.15-.04-.13h0Z"/></g><g id="tekstur-7"><path class="cls-5" d="m62.97,364.86c.34-.15.55-.49.68-.82.12-.31.19-.65.22-.98,0-.07.01-.14.02-.22,0-.09-.14-.09-.14,0,0,.18-.03.36-.06.54-.06.34-.16.69-.35.99-.11.17-.25.3-.43.38-.08.04-.01.15.07.12h0Z"/><path class="cls-5" d="m64.54,361.99c.23.46.33,1.02.35,1.53.04,1.23-.57,2.28-1.55,2.99-.07.05,0,.17.07.12.79-.58,1.4-1.38,1.57-2.37.11-.65.04-1.33-.16-1.96-.04-.13-.09-.26-.15-.39-.04-.08-.16,0-.12.07h0Z"/></g></g><g id="skygge" class="cls-6"><path class="cls-5" d="m60.26,360.82c0-1.47.27-2.97.64-4.38.8-3.08,2.33-6.01,4.69-8.18,1.73-1.59,3.84-2.69,6.09-3.34.09-.02.05-.16-.04-.13-3.73,1.08-6.89,3.41-8.88,6.76-1.37,2.3-2.19,4.93-2.52,7.58-.07.56-.13,1.12-.13,1.68,0,.09.14.09.14,0h0Z"/></g><g id="skygge-2" class="cls-6"><path class="cls-5" d="m86.73,349.15c.68.53,1.3,1.16,1.88,1.8,1.23,1.37,2.26,2.96,2.79,4.73.03.08.16.05.13-.04-.52-1.75-1.53-3.31-2.73-4.68-.6-.69-1.26-1.35-1.98-1.91-.07-.05-.17.04-.1.1h0Z"/></g></g></g></svg>