<?xml version="1.0" encoding="UTF-8"?><svg id="eksport" xmlns="http://www.w3.org/2000/svg" width="342" height="335" viewBox="0 0 342 335"><defs><style>.cls-1{fill:#f2d888;stroke-width:0px;}</style></defs><g id="sol"><path class="cls-1" d="m234.71,178.29c-3.61,35.72-35.49,61.74-71.21,58.13-85.44-12.08-73.02-134.62,13.08-129.34,35.72,3.61,61.74,35.49,58.13,71.21Z"/><path class="cls-1" d="m117.48,111.35c-22.5-19.53-45-39.06-67.5-58.59-.91-1.01-2.57.39-1.53,1.32,22.5,19.53,45,39.06,67.5,58.59.91,1.01,2.57-.39,1.53-1.32h0Z"/><path class="cls-1" d="m170.15,91.95c-.11-29.79-.22-59.59-.33-89.38.16-1.36-1.99-1.54-2-.15.11,29.79.22,59.59.33,89.38-.16,1.36,1.99,1.54,2,.15h0Z"/><path class="cls-1" d="m223.69,112.24c19.53-22.5,39.06-45,58.59-67.5,1.01-.91-.39-2.57-1.32-1.53-19.53,22.5-39.06,45-58.59,67.5-1.01.91.39,2.57,1.32,1.53h0Z"/><path class="cls-1" d="m251.6,158.62c29.33-5.5,58.67-10.98,88-16.48,1.26-.24.73-2.16-.53-1.93-29.28,5.49-58.57,10.96-87.86,16.45-1.38.09-.98,2.19.39,1.96h0Z"/><path class="cls-1" d="m2.66,155.2c29.75,1.53,59.51,3.08,89.26,4.61,1.36.24,1.54-1.9.15-1.99-29.75-1.53-59.51-3.08-89.26-4.61-1.36-.24-1.54,1.9-.15,1.99h0Z"/><path class="cls-1" d="m100.03,134.05c-12.72-5.89-25.44-11.78-38.16-17.67-1.16-.6-2.14,1.03-1.01,1.73,12.72,5.89,25.44,11.78,38.16,17.67,1.17.6,2.13-1.04,1.01-1.73h0Z"/><path class="cls-1" d="m142.13,96.56c-5.73-12.79-11.47-25.58-17.2-38.37-.67-1.1-2.34-.18-1.73,1.01,5.73,12.79,11.47,25.58,17.2,38.37.68,1.11,2.33.17,1.73-1.01h0Z"/><path class="cls-1" d="m198.43,98.31c4.36-13.32,8.72-26.65,13.07-39.97.4-1.23-1.53-1.75-1.93-.53-4.36,13.32-8.72,26.65-13.07,39.97-.4,1.23,1.53,1.75,1.93.53h0Z"/><path class="cls-1" d="m242.57,133.46c12.47-6.4,24.95-12.8,37.42-19.19,1.15-.59.13-2.31-1.01-1.73-12.47,6.4-24.95,12.8-37.42,19.19-1.15.59-.13,2.31,1.01,1.73h0Z"/><path class="cls-1" d="m248.69,183.63c13.91,1.71,27.83,3.42,41.74,5.13,1.29-.02,1.34-1.91,0-2-13.91-1.71-27.83-3.42-41.74-5.13-1.3.03-1.34,1.91,0,2h0Z"/><path class="cls-1" d="m201.08,247.65c12.74,26.99,25.47,53.99,38.2,80.97.55,1.16,2.27.15,1.73-1.01-12.72-26.94-25.42-53.89-38.14-80.84-.44-1.31-2.36-.39-1.79.87h0Z"/><path class="cls-1" d="m139.97,245.97c-7.87,28.74-15.75,57.47-23.62,86.21-.52,1.27,1.5,2.01,1.89.68,7.87-28.74,15.75-57.47,23.62-86.21.52-1.27-1.5-2.01-1.89-.68h0Z"/><path class="cls-1" d="m99.1,207.59c-26.81,13.1-53.64,26.19-80.45,39.3-1.16.56-.14,2.29,1.01,1.73,26.77-13.08,53.54-26.15,80.31-39.23,1.31-.45.38-2.38-.88-1.79h0Z"/><path class="cls-1" d="m324.95,240.34c-28.07-10.14-56.13-20.3-84.2-30.44-1.21-.44-1.73,1.49-.53,1.93,28.02,10.13,56.04,20.27,84.06,30.39,1.24.62,1.97-1.39.67-1.88h0Z"/><path class="cls-1" d="m226.46,231.35c10.33,9.48,20.65,18.96,30.98,28.44.95.87,2.36-.54,1.41-1.41-10.33-9.48-20.65-18.96-30.98-28.44-.95-.87-2.36.54-1.41,1.41h0Z"/><path class="cls-1" d="m169.37,251.26c1.57,13.93,3.15,27.86,4.72,41.79.06.54.42,1,1,1,.49,0,1.06-.46,1-1-1.57-13.93-3.15-27.86-4.72-41.79-.09-1.32-1.96-1.32-2,0h0Z"/><path class="cls-1" d="m115.77,229.7c-8.2,11.37-16.4,22.74-24.6,34.11-.63,1.13.99,2.13,1.73,1.01,8.2-11.37,16.4-22.74,24.6-34.11.64-1.14-1-2.12-1.73-1.01h0Z"/><path class="cls-1" d="m90.88,183.23c-13.83,2.3-27.65,4.61-41.48,6.91-1.24.36-.78,2.21.53,1.93,13.83-2.3,27.65-4.61,41.48-6.91,1.25-.37.77-2.21-.53-1.93h0Z"/></g></svg>