<?xml version="1.0" encoding="UTF-8"?><svg id="eksport" xmlns="http://www.w3.org/2000/svg" width="375" height="215" viewBox="0 0 375 215"><defs><style>.cls-1{opacity:.6;}.cls-2{fill:#5b4f41;}.cls-2,.cls-3,.cls-4{stroke-width:0px;}.cls-3{fill:#998f56;}.cls-4{fill:#f4e787;}</style></defs><g id="spil_igen"><g class="cls-1"><ellipse class="cls-3" cx="191.5" cy="113" rx="181.15" ry="99.63"/></g><ellipse class="cls-4" cx="183.5" cy="102" rx="181.15" ry="99.63"/><path class="cls-2" d="m47.93,117.33c0-2.86,1.65-5.28,7-4.52-.25,1.02-.25,2.23-.06,3.24.51,3.62,3.37,7.25,9.35,7.25,3.94,0,7.19-2.1,7.19-6.61s-3.05-6.61-8.9-9.92c-8.01-4.58-12.97-8.01-12.97-15.33,0-8.08,7-11.26,15.01-11.26s13.48,2.48,13.48,7.44c0,2.04-1.02,3.82-4.26,3.88-.7.13-1.59.06-2.35-.06.06-1.27-.06-2.54-.51-3.69-.64-2.61-2.93-4.71-7.31-4.71-2.8,0-6.3,1.21-6.3,5.47s2.29,6.36,9.86,10.56c6.04,3.31,12.34,7.19,12.34,14.75,0,6.81-5.22,12.53-16.47,12.53-10.3,0-15.07-3.94-15.07-9.03Z"/><path class="cls-2" d="m116.49,93.29c0,9.6-7,14.88-19.59,14.88h-1.53v8.71c0,1.97.13,5.09,1.21,7.57-.7.7-2.42,1.84-4.77,1.84-2.73,0-4.77-1.59-4.77-4.26v-31.93c0-1.91-.19-5.34-1.21-8.01,2.48-1.21,6.17-1.91,11.38-1.91,12.4,0,19.27,3.82,19.27,13.1Zm-9.16.64c0-6.42-2.54-10.81-9.92-10.81-.83,0-1.46,0-2.04.06v22.13h1.14c8.14,0,10.81-4.64,10.81-11.38Z"/><path class="cls-2" d="m124.05,122.03v-31.93c0-2.42-.19-5.34-1.21-8.01.7-.7,2.42-1.84,4.77-1.84,2.73,0,4.77,1.59,4.77,4.26v31.93c0,2.42.13,5.34,1.21,8.01-.7.7-2.42,1.84-4.77,1.84-2.73,0-4.77-1.59-4.77-4.26Z"/><path class="cls-2" d="m151.52,120.95c5.6-.13,12.27-1.72,15.71-3.5,2.1,1.4,2.23,7.95-.51,7.95h-18.76c-2.73,0-4.77-1.59-4.77-4.26v-31.04c0-2.42-.19-5.34-1.21-8.01.7-.7,2.42-1.84,4.77-1.84,2.73,0,4.71,1.59,4.71,4.26l.06,36.44Z"/><path class="cls-2" d="m188.85,122.03v-31.93c0-2.42-.19-5.34-1.21-8.01.7-.7,2.42-1.84,4.77-1.84,2.73,0,4.77,1.59,4.77,4.26v31.93c0,2.42.13,5.34,1.21,8.01-.7.7-2.42,1.84-4.77,1.84-2.73,0-4.77-1.59-4.77-4.26Z"/><path class="cls-2" d="m205.71,103.21c0-14.69,7.19-23.02,19.33-23.02,6.61,0,13.86,2.73,13.86,7.44,0,2.48-2.29,4.9-6.74,4.83-.64-6.42-3.05-9.41-7-9.41-7.12,0-10.3,6.74-10.3,20.16s3.12,20.16,10.11,20.16c6.36,0,7.57-7.12,7.57-12.08,0-3.5-.64-7.12-3.88-8.59.7-1.72,2.86-2.54,4.96-2.54,4.26,0,7.38,2.93,7.38,9.09,0,11.32-7.5,17.04-16.47,17.04-11.96,0-18.83-8.33-18.83-23.09Z"/><path class="cls-2" d="m274.45,125.41h-20.22c-2.73,0-4.77-1.59-4.77-4.26v-29.96c0-2.48-.19-5.34-1.21-8.01,2.1-1.78,3.82-2.1,7.57-2.1h18.44c2.35,0,1.34,6.23-.89,7.25-4.52-1.84-9.99-3.12-15.65-3.24l.06,15.07h13.74c.45,1.53.32,3.24,0,4.52h-13.74v16.73c5.72-.19,13.55-1.84,17.11-3.43,2.16,1.27,2.29,7.44-.45,7.44Z"/><path class="cls-2" d="m283.35,125.22c1.02-2.74,1.21-6.42,1.21-8.78v-26.33c0-3.69-.13-6.3-.45-8.78.95-1.14,5.09-1.33,5.79-.64,7.57,10.75,20.92,26.97,24.1,33.96l-2.1-28.56c-.32-3.24,1.02-5.47,3.82-5.72,1.14-.06,2.48.19,3.43.83-.83,2.48-.83,5.85-.83,7.82l-.06,27.54c0,3.75.06,6.17.38,8.65-.83.95-4.26,1.4-5.6.7-14.18-16.6-20.48-26.33-23.91-32.75l1.78,28.36c.25,2.86-2.1,4.77-4.13,4.77-1.21,0-2.48-.38-3.43-1.08Z"/></g></svg>