<?xml version="1.0" encoding="UTF-8"?><svg id="eksport" xmlns="http://www.w3.org/2000/svg" width="415" height="237" viewBox="0 0 415 237"><defs><style>.cls-1{opacity:.6;}.cls-2{fill:#5b4f41;}.cls-2,.cls-3,.cls-4{stroke-width:0px;}.cls-3{fill:#998f56;}.cls-4{fill:#f4e787;}</style></defs><g id="start_knap"><g class="cls-1"><ellipse class="cls-3" cx="211" cy="124.5" rx="200" ry="110"/></g><ellipse class="cls-4" cx="204" cy="112.5" rx="200" ry="110"/><path class="cls-2" d="m64.6,136.9c0-4.5,2.6-8.3,11-7.1-.4,1.6-.4,3.5-.1,5.1.8,5.7,5.3,11.4,14.7,11.4,6.2,0,11.3-3.3,11.3-10.4s-4.8-10.4-14-15.6c-12.6-7.2-20.4-12.6-20.4-24.1,0-12.7,11-17.7,23.6-17.7s21.2,3.9,21.2,11.7c0,3.2-1.6,6-6.7,6.1-1.1.2-2.5.1-3.7-.1.1-2-.1-4-.8-5.8-1-4.1-4.6-7.4-11.5-7.4-4.4,0-9.9,1.9-9.9,8.6s3.6,10,15.5,16.6c9.5,5.2,19.4,11.3,19.4,23.2,0,10.7-8.2,19.7-25.9,19.7-16.2,0-23.7-6.2-23.7-14.2Z"/><path class="cls-2" d="m168.1,91.3c-4.3-2.1-10.4-4.8-16.3-6.1l.1,50.3c0,3.8.2,8.4,1.9,12.6-1.2,1.1-3.9,2.9-7.6,2.9-4.3,0-7.5-2.5-7.5-6.7v-59.1c-5.9,1.3-11.9,4-16.3,6.1-3.5-1.6-5.1-11.4-1.4-11.4h48.6c3.6,0,2.1,9.8-1.5,11.4Z"/><path class="cls-2" d="m234.8,148c-1.2,1.4-3.4,3-7.7,3-4,0-7.2-1.7-7.9-5.1l-4.5-16.8h-22.6l-3.3,12.9c-.4,1.5-.7,3-.7,4.4,0,1.5.4,2.5,1.1,3.2-1.9.7-3.9,1.4-7.2,1.4-5.1,0-7.3-1.7-7.3-5.5,0-1.7.5-4.1,1.3-6.8l19.7-58.5c3.7-1.2,7.4-1.8,11-1.8,3.2,0,6.2.9,7.1,4.3l17.8,59.1c.5,1.7,1.6,4.5,3.2,6.2Zm-22-26l-9.6-35.8-9.3,35.8h18.9Z"/><path class="cls-2" d="m296.5,143.7c0,5.1-4.9,7.3-7.9,7.3-8.2,0-10.5-5.5-14.1-14.5l-3.1-8.2c-2-5-3.8-9.5-10.8-9.5l-3.8-.1v17.5c0,3.1.2,8,1.9,11.9-1.1,1.1-3.8,2.9-7.5,2.9-4.3,0-7.5-2.5-7.5-6.7v-50.2c0-3-.3-8.4-1.9-12.6,3.9-1.9,9.6-3,18.5-3,18.9,0,29.3,5.1,29.3,18.2,0,9.9-6.1,16.8-15.8,19.3,4.9,1.4,7.4,4.5,9.7,8.5l4.2,9.7c2,4.7,3.6,6.7,5.6,6.8.7,0,1.6-.2,2.4-.9.6,1.4.8,2.6.8,3.6Zm-35.3-29.6c9.4-.3,14-7.4,14-16.5,0-8.4-3.7-14.6-13.9-14.6-1.8,0-3.3,0-4.5.2v30.8c1.4.1,2.9.2,4.4.1Z"/><path class="cls-2" d="m348.3,91.3c-4.3-2.1-10.4-4.8-16.3-6.1l.1,50.3c0,3.8.2,8.4,1.9,12.6-1.2,1.1-3.9,2.9-7.6,2.9-4.3,0-7.5-2.5-7.5-6.7v-59.1c-5.9,1.3-11.9,4-16.3,6.1-3.5-1.6-5.1-11.4-1.4-11.4h48.6c3.6,0,2.1,9.8-1.5,11.4Z"/></g></svg>