<?xml version="1.0" encoding="UTF-8"?><svg id="eksport" xmlns="http://www.w3.org/2000/svg" width="36" height="62" viewBox="0 0 36 62"><defs><style>.cls-1{fill:#5b4f41;stroke-width:0px;}</style></defs><g id="til_regler"><path class="cls-1" d="m5.21,18.54c.46-.48.8-1.07,1.04-1.71,1.11-2.96,3.85-10.29,11.46-9.84,0,0,10.41-.18,11.37,11.11.96,11.29-9.8,12.59-11.37,13.42,0,0-2.51.91-2.65,2.79v10.88c0,1.17.27,2.39,1.04,3.23.59.65,1.96,1.23,3.4-.28.73-.76.94-1.92.94-3.01l.06-7.64s15.52-3.47,14.7-19.39c0,0-1.09-17.08-17.5-17.48,0,0-13.6-.17-16.84,14.77-.23,1.07-.12,2.24.51,3.11.42.58,1.99,1.99,3.83.04Z"/><ellipse class="cls-1" cx="17.78" cy="57.47" rx="3.68" ry="3.91"/></g></svg>