<?xml version="1.0" encoding="UTF-8"?><svg id="eksport" xmlns="http://www.w3.org/2000/svg" width="64" height="58" viewBox="0 0 64 58"><defs><style>.cls-1{fill:#5b4f41;stroke-width:0px;}</style></defs><g id="til_titelskærm"><path class="cls-1" d="m14.39,33.38H2.26c-.47,0-.71-.61-.37-.97L31.78.78c.21-.22.54-.22.75,0l29.58,31.63c.33.36.1.97-.37.97h-11.43v23.43c0,.31-.24.57-.53.57h-11.48c-.29,0-.53-.25-.53-.57v-13.87c0-.31-.24-.57-.53-.57h-10.16c-.29,0-.53.25-.53.57v13.87c0,.31-.24.57-.53.57h-11.1c-.29,0-.53-.25-.53-.57v-23.43Z"/></g></svg>