<?xml version="1.0" encoding="UTF-8"?><svg id="eksport" xmlns="http://www.w3.org/2000/svg" width="124" height="133" viewBox="0 0 124 133"><defs><style>.cls-1{opacity:.5;}.cls-2{fill:#38322d;}.cls-2,.cls-3,.cls-4,.cls-5{stroke-width:0px;}.cls-3{fill:#c2d9a0;}.cls-4{fill:#fff;}.cls-5{fill:#f4e6ef;}</style></defs><g id="banan"><path class="cls-3" d="m90.94,4.34l3.68,17.87C171.01,84.14,77.63,166.72.28,117.53c0,0,.6-5.36.6-5.36,0,0,43.83-3.57,63.64-34.55,26.71-44.51,24.36-44.65,13.21-69.1,0,0,3-7.15,4.8-7.74s7.81,1.79,8.41,3.57Z"/><path class="cls-2" d="m90.36,4.5c1.23,5.91,2.42,11.83,3.65,17.74.15.58.88.96,1.32,1.33,1.01.84,2.01,1.7,2.99,2.58,15.05,13.12,26.74,32.56,23.65,53.04-4.45,29.94-34.47,49.61-63.27,52.28-20.33,2.13-41.05-3.48-58.13-14.46l.28.67c.26-1.83.42-3.68.62-5.52l-.6.6c23.27-2.82,47.39-12.36,61.81-31.44,4.84-6.87,8.79-14.38,13.02-21.63,4.54-8.46,9.84-17.17,10.5-26.95.27-8.82-4.56-16.67-7.96-24.53l.06.46c.65-1.51,1.76-3.87,2.81-5.52.49-.69.99-1.71,1.86-1.87,1.3-.15,2.8.45,3.98.93,1.17.55,2.73,1.16,3.4,2.29.26.71,1.43.41,1.16-.32-.48-1.3-2.01-2.1-3.2-2.67-1.47-.7-3.08-1.3-4.72-1.42-1.3-.1-2.08.5-2.84,1.49-1.46,2.06-2.67,4.38-3.59,6.72-.15.51.37,1.24.58,1.7,2.82,6.42,6.48,12.85,7.19,19.9.63,10.53-5.51,20.26-10.31,29.25-2.3,4.11-4.68,8.17-7.08,12.22-2.37,3.99-4.68,7.97-7.64,11.56-12.59,15.16-31.66,23.5-50.71,27.35-2.64.52-5.28.96-7.96,1.24-.43,0-.94.12-.96.63-.22,1.68-.44,4.08-.58,5.2-.04.28.03.52.28.67,8.2,5.21,17.14,9.29,26.53,11.86,23.83,6.65,50.73,2.91,71.03-11.41,17.59-12.01,29.5-33.33,25.31-54.77-3.07-16.95-14.49-31.13-27.65-41.8-1.15-4.73-2.18-10.88-3.33-16.08-.11-.55-.23-1.1-.34-1.64-.15-.75-1.31-.43-1.16.32Z"/><path class="cls-2" d="m84.23,8.36s6.21-2.41,6.37-4.56c0,0-1.57-3-8.22-2.79,0,0-1.25.63-4.2,7.61,0,0,1.74.85,6.04-.26Z"/><path class="cls-2" d="m8.08,116.34s-1.8-2.98-7.21-4.17c-.66,5.07-1.74,4.88,3.6,7.74,0,0,3.6-2.38,3.6-3.57Z"/><g id="_øje"><path class="cls-2" d="m86.63,78.17c-.05,10.12-15.55,10.12-15.59,0,.05-10.12,15.55-10.11,15.59,0Z"/><path class="cls-4" d="m82.88,81.54c.03,2.02-3.17,2.02-3.14,0-.03-2.02,3.17-2.02,3.14,0Z"/><path class="cls-4" d="m79.74,76.91c.05,3.73-5.86,3.73-5.8,0-.05-3.73,5.86-3.73,5.8,0Z"/></g><g id="_øje-2"><path class="cls-2" d="m107.86,81.21c-.05,10.12-15.55,10.12-15.59,0,.05-10.12,15.55-10.11,15.59,0Z"/><path class="cls-4" d="m100.97,79.95c.05,3.73-5.86,3.73-5.8,0-.05-3.73,5.86-3.73,5.8,0Z"/><path class="cls-4" d="m104.11,84.59c.03,2.02-3.17,2.02-3.14,0-.03-2.02,3.17-2.02,3.14,0Z"/></g><path id="mund" class="cls-2" d="m81.65,90.68s-.59-1.08.74-1.06c1.33.02,4.09.54,8.92.54,0,0,1.38,0,.69,1.04,0,0-4.14.52-10.35-.52Z"/><g id="_øjenbryn"><path class="cls-2" d="m75.75,67.17c0-.1,0-.19.02-.29.01-.14-.02.1,0,.05.05-.25.1-.49.2-.72-.03.08-.04.09.01-.02.06-.11.12-.23.19-.33.04-.06.12-.14.02-.04.1-.11.2-.22.31-.32.12-.11-.09.05.05-.04.09-.06.18-.12.28-.17.04-.02.22-.1.06-.03.4-.15.62-.19.95-.21.99-.05,1.91.2,2.87.53.31.11.66-.12.74-.42.09-.33-.11-.63-.42-.73-1.51-.52-3.45-.97-4.93-.1-.99.58-1.54,1.72-1.55,2.84.02.77,1.22.77,1.2,0h0Z"/><path class="cls-2" d="m104.48,69.61c.48-.28.63-.34,1.25-.47.09-.02.14-.02,0,0,.24-.03.48-.04.72,0,.12,0-.11-.03-.04,0,.16.05.34.06.5.13.12.04-.12-.06,0,0,.14.06.28.14.41.23.14.09-.05-.05.08.06.1.09.2.18.29.28.03.03.05.06.08.09.02.02.13.16.05.05.6.79.86,1.68,1.06,2.66.06.32.44.5.74.42.33-.09.48-.42.42-.73-.32-1.56-.99-3.42-2.58-4.11-1.17-.5-2.5-.24-3.57.39-.64.42-.04,1.45.61,1.03h0Z"/></g><g id="kinder"><path class="cls-5" d="m72.8,87.21c3.78,4.33.05,7.48-3.66,3.09-3.78-4.33-.04-7.48,3.66-3.09Z"/><path class="cls-5" d="m100.19,91.81c5.29-2.28,7.21,2.19,1.88,4.39-5.29,2.28-7.21-2.19-1.88-4.39Z"/></g><g class="cls-1"><path class="cls-2" d="m56.27,103.27c-13.49,8.08-30.43,14.83-46.42,13.03-.56-.07-1.12-.16-1.68-.25-.38-.06-.54.51-.16.57,12.75,2.07,25.67-1.7,37.24-6.85,3.86-1.79,7.7-3.67,11.28-5.96.37-.17.11-.77-.26-.54h0Z"/></g><g class="cls-1"><path class="cls-2" d="m31.42,127.94c15.83,3.44,32.68,1.33,47.45-5.15,22.99-9.85,41.96-32.22,37.87-58.23-2.06-13.78-9.91-26.02-19.42-36-.27-.28-.69.14-.42.42,8.57,9.01,15.75,19.78,18.55,31.99,7.38,31.64-19.2,57.75-48.2,65.28-10.31,2.78-21.21,3.52-31.77,1.85-1.31-.21-2.61-.45-3.9-.73-.38-.08-.54.49-.16.57h0Z"/></g><g class="cls-1"><path class="cls-2" d="m81.18,55.93c2.9-5.17,5.71-10.49,7.48-16.16.48-1.61.94-3.36.78-5.05-.04-.38-.64-.38-.6,0,.16,3.36-1.31,6.57-2.51,9.64-1.35,3.2-2.92,6.31-4.59,9.35-.35.64-.71,1.28-1.07,1.91-.19.33.32.63.52.3h0Z"/></g><g class="cls-1"><path class="cls-2" d="m88.2,22.06c-1.75-3.59-3.46-7.31-4.17-11.25-.06-.38-.63-.22-.58.16.62,3.66,2.24,7.07,3.77,10.43.15.32.31.64.47.96.17.34.69.04.52-.3h0Z"/></g><g class="cls-1"><path class="cls-2" d="m88.96,9.27c-.52.47-1.19,1-1.74,1.24-.08.03-.17.06-.25.08-.04,0-.07,0,0,0-.42-.06-.5.59-.07.6.9-.08,1.61-.79,2.29-1.32.19-.14.42-.38.2-.6-.12-.12-.31-.11-.42,0h0Z"/></g></g></svg>